<svg width="121" height="36" viewBox="0 0 121 36" fill="none" xmlns="http://www.w3.org/2000/svg">
<path d="M119.209 31.3586C119.209 31.8061 119.121 32.2493 118.95 32.6627C118.778 33.076 118.527 33.4516 118.21 33.7679C117.894 34.0841 117.518 34.3349 117.104 34.5058C116.69 34.6768 116.247 34.7645 115.8 34.764H4.21117C3.30674 34.765 2.43896 34.4068 1.79868 33.7681C1.15841 33.1295 0.798054 32.2628 0.796875 31.3586V4.20182C0.798053 3.29722 1.15826 2.43007 1.79841 1.79075C2.43856 1.15144 3.30633 0.792227 4.21117 0.791992H115.799C116.246 0.791992 116.69 0.880196 117.104 1.05157C117.517 1.22294 117.893 1.47412 118.21 1.79076C118.527 2.10741 118.778 2.48331 118.949 2.897C119.12 3.3107 119.209 3.75408 119.208 4.20182L119.209 31.3586Z" fill="white"/>
<path d="M115.794 35.5556H4.20583C3.09168 35.5554 2.02312 35.1133 1.23463 34.3263C0.44614 33.5394 0.00211993 32.4718 0 31.358L0 4.20205C0.00164823 3.08764 0.445375 2.01939 1.23384 1.23163C2.02231 0.443872 3.09113 0.000940603 4.20583 0L115.793 0C116.908 0.00140994 117.976 0.444492 118.765 1.23215C119.553 2.0198 119.997 3.08778 119.999 4.20205V31.358C120.001 33.6733 118.111 35.5556 115.794 35.5556Z" fill="#A6A6A6"/>
<path d="M119.209 31.3586C119.209 31.8061 119.121 32.2493 118.95 32.6627C118.778 33.076 118.527 33.4516 118.21 33.7679C117.894 34.0841 117.518 34.3349 117.104 34.5058C116.69 34.6768 116.247 34.7645 115.8 34.764H4.21117C3.30674 34.765 2.43896 34.4068 1.79868 33.7681C1.15841 33.1295 0.798054 32.2628 0.796875 31.3586V4.20182C0.798053 3.29722 1.15826 2.43007 1.79841 1.79075C2.43856 1.15144 3.30633 0.792227 4.21117 0.791992H115.799C116.246 0.791992 116.69 0.880196 117.104 1.05157C117.517 1.22294 117.893 1.47412 118.21 1.79076C118.527 2.10741 118.778 2.48331 118.949 2.897C119.12 3.3107 119.209 3.75408 119.208 4.20182L119.209 31.3586Z" fill="black"/>
<path d="M26.7932 17.5902C26.7674 14.7245 29.1402 13.3304 29.2488 13.2655C27.9049 11.3067 25.822 11.0391 25.0901 11.0177C23.3407 10.8337 21.6438 12.0643 20.7526 12.0643C19.8437 12.0643 18.4714 11.0355 16.9923 11.0658C15.0891 11.0951 13.3086 12.1967 12.332 13.9074C10.3167 17.3955 11.8198 22.5214 13.7506 25.3408C14.7164 26.7225 15.8451 28.2634 17.3223 28.2092C18.7675 28.1505 19.3074 27.2889 21.0514 27.2889C22.7795 27.2889 23.2864 28.2092 24.793 28.1745C26.3441 28.1505 27.3206 26.7874 28.2527 25.3942C29.3688 23.8124 29.8171 22.2528 29.8348 22.1728C29.7993 22.1604 26.8234 21.0241 26.7932 17.5902ZM23.9472 9.16301C24.7245 8.19119 25.2564 6.86905 25.1087 5.52734C23.9837 5.57714 22.5767 6.30534 21.7665 7.25582C21.0497 8.09339 20.4093 9.46621 20.5747 10.7572C21.8385 10.8515 23.1361 10.1197 23.9472 9.16301Z" fill="white"/>
<path d="M115.801 0H56.0312L79.4421 35.5556H115.801C116.916 35.5547 117.984 35.112 118.773 34.3246C119.561 33.5372 120.005 32.4694 120.007 31.3553V4.20205C120.005 3.08771 119.561 2.01959 118.773 1.23189C117.985 0.444183 116.916 0.00117536 115.801 0Z" fill="url(#paint0_linear_2061_2453)"/>
<path d="M47.7264 28.0117H45.7067L44.6003 24.536H40.7547L39.7008 28.0117H37.7344L41.5453 16.1791H43.8986L47.7264 28.0117ZM44.2668 23.0779L43.2663 19.9881C43.1604 19.6725 42.9612 18.9292 42.6695 17.7591H42.6339C42.5165 18.2623 42.3289 19.0056 42.0718 19.9881L41.0882 23.0779H44.2668ZM57.5077 23.6407C57.5077 25.0917 57.1137 26.2387 56.3249 27.0807C55.6187 27.8303 54.7409 28.2046 53.6941 28.2046C52.5637 28.2046 51.7508 27.8018 51.2572 26.9945V31.4713H49.3611V22.2839C49.3611 21.3725 49.3371 20.438 49.2908 19.4795H50.9584L51.0642 20.8319H51.0998C51.7322 19.813 52.6918 19.3035 53.9796 19.3035C54.9864 19.3035 55.8268 19.7009 56.4992 20.4967C57.1707 21.2943 57.5077 22.3417 57.5077 23.6407ZM55.576 23.71C55.576 22.8796 55.3893 22.1949 55.0139 21.6552C54.6039 21.0942 54.0534 20.8132 53.3633 20.8132C52.8955 20.8132 52.4703 20.9697 52.0906 21.2783C51.7099 21.5894 51.4609 21.9958 51.3444 22.499C51.2924 22.6872 51.2628 22.8809 51.2564 23.0761V24.4996C51.2564 25.1193 51.4467 25.643 51.8273 26.0716C52.208 26.4984 52.7025 26.7126 53.3108 26.7126C54.025 26.7126 54.5808 26.4361 54.9784 25.8875C55.3768 25.3371 55.576 24.6116 55.576 23.71ZM67.3237 23.6407C67.3237 25.0917 66.9297 26.2387 66.1409 27.0807C65.4338 27.8303 64.5569 28.2046 63.5092 28.2046C62.3788 28.2046 61.5659 27.8018 61.0723 26.9945V31.4713H59.1762V22.2839C59.1762 21.3725 59.1522 20.438 59.1059 19.4795H60.7735L60.8793 20.8319H60.9149C61.5464 19.813 62.506 19.3035 63.7947 19.3035C64.8006 19.3035 65.641 19.7009 66.3152 20.4967C66.9858 21.2943 67.3237 22.3417 67.3237 23.6407ZM65.3911 23.71C65.3911 22.8796 65.2035 22.1949 64.8281 21.6552C64.4181 21.0942 63.8694 20.8132 63.1793 20.8132C62.7114 20.8132 62.2863 20.9697 61.9048 21.2783C61.5241 21.5894 61.276 21.9958 61.1595 22.499C61.1017 22.7338 61.0706 22.9249 61.0706 23.0761V24.4996C61.0706 25.1193 61.2618 25.643 61.6406 26.0716C62.0213 26.4975 62.5158 26.7126 63.1259 26.7126C63.8409 26.7126 64.3968 26.4361 64.7935 25.8875C65.1919 25.3371 65.3911 24.6116 65.3911 23.71ZM78.2985 24.6925C78.2985 25.6999 77.9464 26.5188 77.2464 27.151C76.4762 27.841 75.401 28.1868 74.0224 28.1868C72.7489 28.1868 71.7279 27.9414 70.9577 27.4497L71.3961 25.8697C72.2277 26.3623 73.1411 26.6077 74.1354 26.6077C74.8505 26.6077 75.4063 26.4459 75.803 26.1249C76.2005 25.8031 76.4015 25.3727 76.4015 24.8357C76.4015 24.3547 76.2352 23.9519 75.9088 23.6238C75.5806 23.2966 75.0381 22.9916 74.2759 22.7115C72.2037 21.9389 71.1667 20.8088 71.1667 19.3222C71.1667 18.3512 71.5331 17.5563 72.2642 16.9348C72.9952 16.3142 73.9646 16.0039 75.1706 16.0039C76.2477 16.0039 77.145 16.1915 77.8574 16.5658L77.3816 18.1112C76.711 17.7484 75.9542 17.567 75.1075 17.567C74.4387 17.567 73.9139 17.7315 73.5386 18.0587C73.2229 18.3512 73.0628 18.7078 73.0628 19.131C73.0628 19.5978 73.2451 19.9854 73.608 20.2895C73.9228 20.5696 74.4974 20.8746 75.328 21.2018C76.3473 21.6126 77.0961 22.0909 77.5755 22.6404C78.0584 23.1899 78.2985 23.8754 78.2985 24.6925ZM84.5837 20.9021H82.4937V25.0446C82.4937 26.0982 82.8619 26.6237 83.6001 26.6237C83.9389 26.6237 84.22 26.5953 84.4423 26.5357L84.4948 27.9752C84.1212 28.1148 83.6294 28.185 83.0202 28.185C82.2714 28.185 81.6861 27.9565 81.2637 27.4995C80.843 27.0425 80.6314 26.277 80.6314 25.1993V20.8986H79.3862V19.476H80.6314V17.9138L82.4937 17.3518V19.476H84.5837V20.9021ZM93.995 23.6754C93.995 24.9868 93.6197 26.0636 92.8709 26.9056C92.0873 27.7725 91.045 28.2046 89.7456 28.2046C88.4916 28.2046 87.4946 27.7894 86.7511 26.9598C86.0076 26.1285 85.6358 25.0811 85.6358 23.8176C85.6358 22.4955 86.02 21.4125 86.7858 20.5705C87.5533 19.7276 88.5868 19.3061 89.8861 19.3061C91.1384 19.3061 92.1442 19.7223 92.9055 20.5527C93.633 21.3583 93.995 22.3986 93.995 23.6754ZM92.0295 23.7189C92.0295 22.9374 91.8605 22.267 91.5217 21.7059C91.1241 21.0284 90.5549 20.6896 89.8176 20.6896C89.0581 20.6896 88.4756 21.0284 88.0789 21.7059C87.7392 22.267 87.5702 22.9489 87.5702 23.7545C87.5702 24.5369 87.7392 25.2091 88.0789 25.7684C88.4889 26.4459 89.0608 26.7847 89.8016 26.7847C90.5265 26.7847 91.0948 26.4388 91.5057 25.7515C91.8543 25.1771 92.0295 24.5023 92.0295 23.7189ZM100.161 21.1467C99.9638 21.1111 99.7638 21.0935 99.5634 21.0942C98.8963 21.0942 98.3805 21.3449 98.0176 21.85C97.7028 22.2945 97.5445 22.8565 97.5445 23.5349V28.0117H95.6484V22.1665C95.6501 21.2708 95.6317 20.3753 95.5932 19.4804H97.2448L97.3142 21.1129H97.3666C97.5676 20.5518 97.8825 20.0993 98.3147 19.7605C98.7103 19.4645 99.191 19.3042 99.6852 19.3035C99.8604 19.3035 100.019 19.3159 100.159 19.3382L100.161 21.1467ZM108.641 23.3419C108.646 23.6301 108.623 23.9181 108.572 24.2017H102.883C102.905 25.0446 103.18 25.6901 103.709 26.1347C104.188 26.5313 104.808 26.7304 105.569 26.7304C106.412 26.7304 107.18 26.5971 107.871 26.3276L108.168 27.6427C107.36 27.9948 106.407 28.1699 105.307 28.1699C103.984 28.1699 102.945 27.7805 102.189 27.0034C101.435 26.2254 101.057 25.1798 101.057 23.8701C101.057 22.5844 101.408 21.513 102.111 20.6585C102.848 19.7463 103.843 19.2901 105.095 19.2901C106.325 19.2901 107.256 19.7463 107.889 20.6585C108.389 21.3814 108.641 22.2776 108.641 23.3419ZM106.833 22.8502C106.846 22.2874 106.722 21.8028 106.465 21.3929C106.137 20.8648 105.632 20.6016 104.955 20.6016C104.335 20.6016 103.83 20.8586 103.445 21.3743C103.13 21.7842 102.942 22.2767 102.884 22.8485L106.833 22.8502Z" fill="white"/>
<path d="M40.1993 11.995C39.6719 11.995 39.2157 11.9692 38.8359 11.9256V6.20494C39.3671 6.12292 39.9038 6.08249 40.4413 6.08402C42.6158 6.08402 43.6172 7.15365 43.6172 8.89724C43.6172 10.9085 42.4343 11.995 40.1993 11.995ZM40.5177 6.81756C40.2242 6.81756 39.9743 6.83534 39.7671 6.87802V11.2268C39.8792 11.2446 40.0944 11.2526 40.3968 11.2526C41.8215 11.2526 42.6327 10.4417 42.6327 8.92303C42.6327 7.56888 41.8989 6.81756 40.5177 6.81756ZM46.738 12.0386C45.5124 12.0386 44.7182 11.1236 44.7182 9.88151C44.7182 8.58693 45.5293 7.66401 46.8074 7.66401C48.0151 7.66401 48.8271 8.53536 48.8271 9.81305C48.8271 11.1236 47.9902 12.0386 46.738 12.0386ZM46.7736 8.34509C46.1003 8.34509 45.669 8.9746 45.669 9.85484C45.669 10.7182 46.1092 11.3477 46.7647 11.3477C47.4201 11.3477 47.8604 10.6746 47.8604 9.83706C47.8604 8.98349 47.429 8.34509 46.7736 8.34509ZM55.8158 7.75026L54.504 11.9434H53.6493L53.1059 10.1225C52.9708 9.67705 52.8583 9.22509 52.7688 8.76832H52.751C52.6825 9.22533 52.5527 9.68324 52.4148 10.1225L51.8367 11.9434H50.9732L49.7387 7.75026H50.6966L51.1715 9.7437C51.2836 10.2185 51.3778 10.6666 51.4561 11.0898H51.4739C51.5424 10.7369 51.6544 10.2958 51.819 9.75259L52.4148 7.75115H53.1744L53.7444 9.70991C53.8823 10.1847 53.9944 10.6506 54.0815 11.0907H54.1064C54.1669 10.6595 54.2621 10.2016 54.391 9.70991L54.9006 7.75115L55.8158 7.75026ZM60.6451 11.9434H59.713V9.53564C59.713 8.7941 59.4284 8.42244 58.8672 8.42244C58.3149 8.42244 57.9352 8.89724 57.9352 9.44939V11.9434H57.0031V8.94881C57.0031 8.57804 56.9942 8.1806 56.9684 7.74937H57.7884L57.832 8.39666H57.8578C58.1086 7.94854 58.6173 7.66401 59.1874 7.66401C60.0679 7.66401 60.6459 8.33709 60.6459 9.4325L60.6451 11.9434ZM63.2153 11.9434H62.2824V5.82617H63.2153V11.9434ZM66.6136 12.0386C65.389 12.0386 64.5939 11.1236 64.5939 9.88151C64.5939 8.58693 65.405 7.66401 66.6821 7.66401C67.8908 7.66401 68.7019 8.53536 68.7019 9.81305C68.7028 11.1236 67.865 12.0386 66.6136 12.0386ZM66.6483 8.34509C65.975 8.34509 65.5437 8.9746 65.5437 9.85484C65.5437 10.7182 65.9848 11.3477 66.6385 11.3477C67.2949 11.3477 67.7342 10.6746 67.7342 9.83706C67.7351 8.98349 67.3047 8.34509 66.6483 8.34509ZM72.3767 11.9434L72.3091 11.4606H72.2842C71.9996 11.8492 71.5843 12.0386 71.0578 12.0386C70.3063 12.0386 69.7727 11.5122 69.7727 10.8044C69.7727 9.76948 70.67 9.23422 72.2238 9.23422V9.15687C72.2238 8.60472 71.9312 8.3282 71.3531 8.3282C70.9395 8.3282 70.5767 8.43222 70.2574 8.63939L70.0679 8.02678C70.4557 7.78493 70.9395 7.66401 71.5078 7.66401C72.6035 7.66401 73.1567 8.24195 73.1567 9.39871V10.9431C73.1567 11.3664 73.1754 11.6945 73.2172 11.9443L72.3767 11.9434ZM72.2487 9.85484C71.2134 9.85484 70.694 10.1056 70.694 10.7004C70.694 11.1405 70.9618 11.3557 71.3335 11.3557C71.8075 11.3557 72.2487 10.9938 72.2487 10.5021V9.85484ZM77.6827 11.9434L77.6391 11.2703H77.6133C77.3456 11.7789 76.8956 12.0386 76.2668 12.0386C75.2556 12.0386 74.5068 11.1494 74.5068 9.89841C74.5068 8.58693 75.2832 7.66312 76.3433 7.66312C76.9045 7.66312 77.3021 7.85251 77.5262 8.23306H77.5449V5.82617H78.4778V10.8133C78.4778 11.2188 78.4876 11.5984 78.5125 11.9434H77.6827ZM77.5449 9.47607C77.5449 8.88924 77.1562 8.38866 76.563 8.38866C75.872 8.38866 75.4495 9.00127 75.4495 9.86373C75.4495 10.7093 75.888 11.2881 76.5443 11.2881C77.1304 11.2881 77.5449 10.7787 77.5449 10.1749V9.47607ZM84.393 12.0386C83.1684 12.0386 82.3741 11.1236 82.3741 9.88151C82.3741 8.58693 83.1852 7.66401 84.4624 7.66401C85.671 7.66401 86.4821 8.53536 86.4821 9.81305C86.483 11.1236 85.6461 12.0386 84.393 12.0386ZM84.4277 8.34509C83.7553 8.34509 83.324 8.9746 83.324 9.85484C83.324 10.7182 83.7642 11.3477 84.4188 11.3477C85.0752 11.3477 85.5145 10.6746 85.5145 9.83706C85.5163 8.98349 85.0849 8.34509 84.4277 8.34509ZM91.4946 11.9434H90.5617V9.53564C90.5617 8.7941 90.2771 8.42244 89.7159 8.42244C89.1636 8.42244 88.7847 8.89724 88.7847 9.44939V11.9434H87.8518V8.94881C87.8518 8.57804 87.8429 8.1806 87.8171 7.74937H88.6371L88.6807 8.39666H88.7065C88.9564 7.94854 89.466 7.66312 90.0352 7.66312C90.9156 7.66312 91.4946 8.3362 91.4946 9.43161V11.9434ZM97.7656 8.44912H96.7401V10.4852C96.7401 11.0036 96.9198 11.2623 97.2826 11.2623C97.4472 11.2623 97.585 11.2446 97.6962 11.2188L97.722 11.9265C97.5415 11.9959 97.2995 12.0306 96.9989 12.0306C96.2643 12.0306 95.825 11.6251 95.825 10.5635V8.44912H95.2131V7.75026H95.825V6.98205L96.7401 6.70553V7.74937H97.7656V8.44912ZM102.7 11.9434H101.769V9.55342C101.769 8.80299 101.485 8.42333 100.923 8.42333C100.44 8.42333 99.9899 8.75142 99.9899 9.41561V11.9434H99.0587V5.82617H99.9899V8.34509H100.009C100.302 7.88807 100.727 7.66312 101.27 7.66312C102.157 7.66312 102.7 8.35309 102.7 9.44939V11.9434ZM107.755 10.0709H104.958C104.976 10.8649 105.501 11.313 106.28 11.313C106.693 11.313 107.074 11.2437 107.41 11.1147L107.555 11.762C107.158 11.9345 106.691 12.0208 106.148 12.0208C104.836 12.0208 104.06 11.1921 104.06 9.9073C104.06 8.62161 104.855 7.65512 106.043 7.65512C107.115 7.65512 107.787 8.44912 107.787 9.64856C107.793 9.79011 107.782 9.93187 107.755 10.0709ZM106.9 9.40672C106.9 8.75943 106.574 8.30241 105.978 8.30241C105.443 8.30241 105.019 8.76832 104.959 9.40672H106.9Z" fill="white"/>
<defs>
<linearGradient id="paint0_linear_2061_2453" x1="88.0182" y1="35.65" x2="88.0182" y2="-92.5806" gradientUnits="userSpaceOnUse">
<stop stop-color="#1A1A1A" stop-opacity="0.1"/>
<stop offset="0.123" stop-color="#212121" stop-opacity="0.151"/>
<stop offset="0.308" stop-color="#353535" stop-opacity="0.227"/>
<stop offset="0.532" stop-color="#575757" stop-opacity="0.318"/>
<stop offset="0.783" stop-color="#858585" stop-opacity="0.421"/>
<stop offset="1" stop-color="#B3B3B3" stop-opacity="0.51"/>
</linearGradient>
</defs>
</svg>
