<svg width="200" height="200" viewBox="0 0 200 200" fill="none" xmlns="http://www.w3.org/2000/svg">
<rect x="0.318277" y="0.318277" width="199.363" height="199.363" rx="4.77416" fill="white" stroke="black" stroke-width="0.636555"/>
<mask id="mask0_2020_3737" style="mask-type:luminance" maskUnits="userSpaceOnUse" x="6" y="6" width="187" height="187">
<path d="M11.9873 52.0713H6.97656V57.0821H11.9873V52.0713Z" fill="white"/>
<path d="M11.9873 57.0825H6.97656V62.0933H11.9873V57.0825Z" fill="white"/>
<path d="M11.9873 62.0938H6.97656V67.1045H11.9873V62.0938Z" fill="white"/>
<path d="M11.9873 67.1035H6.97656V72.1143H11.9873V67.1035Z" fill="white"/>
<path d="M11.9873 77.1255H6.97656V82.1363H11.9873V77.1255Z" fill="white"/>
<path d="M11.9873 82.1357H6.97656V87.1465H11.9873V82.1357Z" fill="white"/>
<path d="M11.9873 107.19H6.97656V112.201H11.9873V107.19Z" fill="white"/>
<path d="M11.9873 112.2H6.97656V117.211H11.9873V112.2Z" fill="white"/>
<path d="M11.9873 122.222H6.97656V127.233H11.9873V122.222Z" fill="white"/>
<path d="M11.9873 127.233H6.97656V132.244H11.9873V127.233Z" fill="white"/>
<path d="M11.9873 132.245H6.97656V137.255H11.9873V132.245Z" fill="white"/>
<path d="M11.9873 137.254H6.97656V142.265H11.9873V137.254Z" fill="white"/>
<path d="M11.9873 147.275H6.97656V152.286H11.9873V147.275Z" fill="white"/>
<path d="M16.9951 47.061H11.9844V52.0718H16.9951V47.061Z" fill="white"/>
<path d="M16.9951 62.0938H11.9844V67.1045H16.9951V62.0938Z" fill="white"/>
<path d="M16.9951 92.1582H11.9844V97.169H16.9951V92.1582Z" fill="white"/>
<path d="M16.9951 97.1689H11.9844V102.18H16.9951V97.1689Z" fill="white"/>
<path d="M16.9951 107.19H11.9844V112.201H16.9951V107.19Z" fill="white"/>
<path d="M16.9951 112.2H11.9844V117.211H16.9951V112.2Z" fill="white"/>
<path d="M16.9951 132.245H11.9844V137.255H16.9951V132.245Z" fill="white"/>
<path d="M16.9951 147.275H11.9844V152.286H16.9951V147.275Z" fill="white"/>
<path d="M22.0108 62.0938H17V67.1045H22.0108V62.0938Z" fill="white"/>
<path d="M22.0108 67.1035H17V72.1143H22.0108V67.1035Z" fill="white"/>
<path d="M22.0108 72.1143H17V77.125H22.0108V72.1143Z" fill="white"/>
<path d="M22.0108 82.1357H17V87.1465H22.0108V82.1357Z" fill="white"/>
<path d="M22.0108 87.147H17V92.1577H22.0108V87.147Z" fill="white"/>
<path d="M22.0108 97.1689H17V102.18H22.0108V97.1689Z" fill="white"/>
<path d="M22.0108 107.19H17V112.201H22.0108V107.19Z" fill="white"/>
<path d="M22.0108 112.2H17V117.211H22.0108V112.2Z" fill="white"/>
<path d="M22.0108 127.233H17V132.244H22.0108V127.233Z" fill="white"/>
<path d="M22.0108 132.245H17V137.255H22.0108V132.245Z" fill="white"/>
<path d="M22.0108 137.254H17V142.265H22.0108V137.254Z" fill="white"/>
<path d="M22.0108 142.265H17V147.275H22.0108V142.265Z" fill="white"/>
<path d="M27.0186 47.061H22.0078V52.0718H27.0186V47.061Z" fill="white"/>
<path d="M27.0186 67.1035H22.0078V72.1143H27.0186V67.1035Z" fill="white"/>
<path d="M27.0186 77.1255H22.0078V82.1363H27.0186V77.1255Z" fill="white"/>
<path d="M27.0186 87.147H22.0078V92.1577H27.0186V87.147Z" fill="white"/>
<path d="M27.0186 92.1582H22.0078V97.169H27.0186V92.1582Z" fill="white"/>
<path d="M27.0186 102.179H22.0078V107.189H27.0186V102.179Z" fill="white"/>
<path d="M27.0186 107.19H22.0078V112.201H27.0186V107.19Z" fill="white"/>
<path d="M27.0186 112.2H22.0078V117.211H27.0186V112.2Z" fill="white"/>
<path d="M27.0186 117.211H22.0078V122.222H27.0186V117.211Z" fill="white"/>
<path d="M27.0186 127.233H22.0078V132.244H27.0186V127.233Z" fill="white"/>
<path d="M27.0186 132.245H22.0078V137.255H27.0186V132.245Z" fill="white"/>
<path d="M27.0186 142.265H22.0078V147.275H27.0186V142.265Z" fill="white"/>
<path d="M27.0186 147.275H22.0078V152.286H27.0186V147.275Z" fill="white"/>
<path d="M32.0342 47.061H27.0234V52.0718H32.0342V47.061Z" fill="white"/>
<path d="M32.0342 57.0825H27.0234V62.0933H32.0342V57.0825Z" fill="white"/>
<path d="M32.0342 67.1035H27.0234V72.1143H32.0342V67.1035Z" fill="white"/>
<path d="M32.0342 72.1143H27.0234V77.125H32.0342V72.1143Z" fill="white"/>
<path d="M32.0342 77.1255H27.0234V82.1363H32.0342V77.1255Z" fill="white"/>
<path d="M32.0342 82.1357H27.0234V87.1465H32.0342V82.1357Z" fill="white"/>
<path d="M32.0342 92.1582H27.0234V97.169H32.0342V92.1582Z" fill="white"/>
<path d="M32.0342 112.2H27.0234V117.211H32.0342V112.2Z" fill="white"/>
<path d="M32.0342 137.254H27.0234V142.265H32.0342V137.254Z" fill="white"/>
<path d="M37.042 62.0938H32.0312V67.1045H37.042V62.0938Z" fill="white"/>
<path d="M37.042 77.1255H32.0312V82.1363H37.042V77.1255Z" fill="white"/>
<path d="M37.042 87.147H32.0312V92.1577H37.042V87.147Z" fill="white"/>
<path d="M37.042 117.211H32.0312V122.222H37.042V117.211Z" fill="white"/>
<path d="M37.042 122.222H32.0312V127.233H37.042V122.222Z" fill="white"/>
<path d="M42.0498 47.061H37.0391V52.0718H42.0498V47.061Z" fill="white"/>
<path d="M42.0498 57.0825H37.0391V62.0933H42.0498V57.0825Z" fill="white"/>
<path d="M42.0498 67.1035H37.0391V72.1143H42.0498V67.1035Z" fill="white"/>
<path d="M42.0498 77.1255H37.0391V82.1363H42.0498V77.1255Z" fill="white"/>
<path d="M42.0498 87.147H37.0391V92.1577H42.0498V87.147Z" fill="white"/>
<path d="M42.0498 97.1689H37.0391V102.18H42.0498V97.1689Z" fill="white"/>
<path d="M42.0498 107.19H37.0391V112.201H42.0498V107.19Z" fill="white"/>
<path d="M42.0498 117.211H37.0391V122.222H42.0498V117.211Z" fill="white"/>
<path d="M42.0498 127.233H37.0391V132.244H42.0498V127.233Z" fill="white"/>
<path d="M42.0498 137.254H37.0391V142.265H42.0498V137.254Z" fill="white"/>
<path d="M42.0498 147.275H37.0391V152.286H42.0498V147.275Z" fill="white"/>
<path d="M47.0655 47.061H42.0547V52.0718H47.0655V47.061Z" fill="white"/>
<path d="M47.0655 52.0713H42.0547V57.0821H47.0655V52.0713Z" fill="white"/>
<path d="M47.0655 67.1035H42.0547V72.1143H47.0655V67.1035Z" fill="white"/>
<path d="M47.0655 97.1689H42.0547V102.18H47.0655V97.1689Z" fill="white"/>
<path d="M47.0655 107.19H42.0547V112.201H47.0655V107.19Z" fill="white"/>
<path d="M47.0655 117.211H42.0547V122.222H47.0655V117.211Z" fill="white"/>
<path d="M47.0655 122.222H42.0547V127.233H47.0655V122.222Z" fill="white"/>
<path d="M47.0655 132.245H42.0547V137.255H47.0655V132.245Z" fill="white"/>
<path d="M47.0655 137.254H42.0547V142.265H47.0655V137.254Z" fill="white"/>
<path d="M47.0655 142.265H42.0547V147.275H47.0655V142.265Z" fill="white"/>
<path d="M47.0655 147.275H42.0547V152.286H47.0655V147.275Z" fill="white"/>
<path d="M52.0733 11.9858H47.0625V16.9966H52.0733V11.9858Z" fill="white"/>
<path d="M52.0733 22.0068H47.0625V27.0176H52.0733V22.0068Z" fill="white"/>
<path d="M52.0733 27.0166H47.0625V32.0274H52.0733V27.0166Z" fill="white"/>
<path d="M52.0733 32.0278H47.0625V37.0386H52.0733V32.0278Z" fill="white"/>
<path d="M52.0733 37.0391H47.0625V42.0498H52.0733V37.0391Z" fill="white"/>
<path d="M52.0733 47.061H47.0625V52.0718H52.0733V47.061Z" fill="white"/>
<path d="M52.0733 52.0713H47.0625V57.0821H52.0733V52.0713Z" fill="white"/>
<path d="M52.0733 67.1035H47.0625V72.1143H52.0733V67.1035Z" fill="white"/>
<path d="M52.0733 97.1689H47.0625V102.18H52.0733V97.1689Z" fill="white"/>
<path d="M52.0733 107.19H47.0625V112.201H52.0733V107.19Z" fill="white"/>
<path d="M52.0733 122.222H47.0625V127.233H52.0733V122.222Z" fill="white"/>
<path d="M52.0733 127.233H47.0625V132.244H52.0733V127.233Z" fill="white"/>
<path d="M52.0733 132.245H47.0625V137.255H52.0733V132.245Z" fill="white"/>
<path d="M52.0733 152.287H47.0625V157.297H52.0733V152.287Z" fill="white"/>
<path d="M52.0733 157.298H47.0625V162.309H52.0733V157.298Z" fill="white"/>
<path d="M52.0733 167.319H47.0625V172.33H52.0733V167.319Z" fill="white"/>
<path d="M52.0733 172.33H47.0625V177.341H52.0733V172.33Z" fill="white"/>
<path d="M52.0733 182.351H47.0625V187.362H52.0733V182.351Z" fill="white"/>
<path d="M57.0811 6.97461H52.0703V11.9854H57.0811V6.97461Z" fill="white"/>
<path d="M57.0811 11.9858H52.0703V16.9966H57.0811V11.9858Z" fill="white"/>
<path d="M57.0811 22.0068H52.0703V27.0176H57.0811V22.0068Z" fill="white"/>
<path d="M57.0811 27.0166H52.0703V32.0274H57.0811V27.0166Z" fill="white"/>
<path d="M57.0811 57.0825H52.0703V62.0933H57.0811V57.0825Z" fill="white"/>
<path d="M57.0811 62.0938H52.0703V67.1045H57.0811V62.0938Z" fill="white"/>
<path d="M57.0811 67.1035H52.0703V72.1143H57.0811V67.1035Z" fill="white"/>
<path d="M57.0811 72.1143H52.0703V77.125H57.0811V72.1143Z" fill="white"/>
<path d="M57.0811 77.1255H52.0703V82.1363H57.0811V77.1255Z" fill="white"/>
<path d="M57.0811 87.147H52.0703V92.1577H57.0811V87.147Z" fill="white"/>
<path d="M57.0811 97.1689H52.0703V102.18H57.0811V97.1689Z" fill="white"/>
<path d="M57.0811 102.179H52.0703V107.189H57.0811V102.179Z" fill="white"/>
<path d="M57.0811 112.2H52.0703V117.211H57.0811V112.2Z" fill="white"/>
<path d="M57.0811 122.222H52.0703V127.233H57.0811V122.222Z" fill="white"/>
<path d="M57.0811 132.245H52.0703V137.255H57.0811V132.245Z" fill="white"/>
<path d="M57.0811 137.254H52.0703V142.265H57.0811V137.254Z" fill="white"/>
<path d="M57.0811 142.265H52.0703V147.275H57.0811V142.265Z" fill="white"/>
<path d="M57.0811 147.275H52.0703V152.286H57.0811V147.275Z" fill="white"/>
<path d="M57.0811 152.287H52.0703V157.297H57.0811V152.287Z" fill="white"/>
<path d="M57.0811 167.319H52.0703V172.33H57.0811V167.319Z" fill="white"/>
<path d="M57.0811 172.33H52.0703V177.341H57.0811V172.33Z" fill="white"/>
<path d="M57.0811 177.34H52.0703V182.351H57.0811V177.34Z" fill="white"/>
<path d="M62.0967 16.9971H57.0859V22.0078H62.0967V16.9971Z" fill="white"/>
<path d="M62.0967 32.0278H57.0859V37.0386H62.0967V32.0278Z" fill="white"/>
<path d="M62.0967 37.0391H57.0859V42.0498H62.0967V37.0391Z" fill="white"/>
<path d="M62.0967 42.0503H57.0859V47.0611H62.0967V42.0503Z" fill="white"/>
<path d="M62.0967 47.061H57.0859V52.0718H62.0967V47.061Z" fill="white"/>
<path d="M62.0967 57.0825H57.0859V62.0933H62.0967V57.0825Z" fill="white"/>
<path d="M62.0967 67.1035H57.0859V72.1143H62.0967V67.1035Z" fill="white"/>
<path d="M62.0967 72.1143H57.0859V77.125H62.0967V72.1143Z" fill="white"/>
<path d="M62.0967 82.1357H57.0859V87.1465H62.0967V82.1357Z" fill="white"/>
<path d="M62.0967 87.147H57.0859V92.1577H62.0967V87.147Z" fill="white"/>
<path d="M62.0967 97.1689H57.0859V102.18H62.0967V97.1689Z" fill="white"/>
<path d="M62.0967 107.19H57.0859V112.201H62.0967V107.19Z" fill="white"/>
<path d="M62.0967 112.2H57.0859V117.211H62.0967V112.2Z" fill="white"/>
<path d="M62.0967 122.222H57.0859V127.233H62.0967V122.222Z" fill="white"/>
<path d="M62.0967 132.245H57.0859V137.255H62.0967V132.245Z" fill="white"/>
<path d="M62.0967 142.265H57.0859V147.275H62.0967V142.265Z" fill="white"/>
<path d="M62.0967 152.287H57.0859V157.297H62.0967V152.287Z" fill="white"/>
<path d="M62.0967 157.298H57.0859V162.309H62.0967V157.298Z" fill="white"/>
<path d="M62.0967 167.319H57.0859V172.33H62.0967V167.319Z" fill="white"/>
<path d="M62.0967 172.33H57.0859V177.341H62.0967V172.33Z" fill="white"/>
<path d="M62.0967 177.34H57.0859V182.351H62.0967V177.34Z" fill="white"/>
<path d="M62.0967 187.362H57.0859V192.373H62.0967V187.362Z" fill="white"/>
<path d="M67.1045 27.0166H62.0938V32.0274H67.1045V27.0166Z" fill="white"/>
<path d="M67.1045 82.1357H62.0938V87.1465H67.1045V82.1357Z" fill="white"/>
<path d="M67.1045 87.147H62.0938V92.1577H67.1045V87.147Z" fill="white"/>
<path d="M67.1045 92.1582H62.0938V97.169H67.1045V92.1582Z" fill="white"/>
<path d="M67.1045 107.19H62.0938V112.201H67.1045V107.19Z" fill="white"/>
<path d="M67.1045 137.254H62.0938V142.265H67.1045V137.254Z" fill="white"/>
<path d="M67.1045 147.275H62.0938V152.286H67.1045V147.275Z" fill="white"/>
<path d="M67.1045 152.287H62.0938V157.297H67.1045V152.287Z" fill="white"/>
<path d="M67.1045 157.298H62.0938V162.309H67.1045V157.298Z" fill="white"/>
<path d="M67.1045 177.34H62.0938V182.351H67.1045V177.34Z" fill="white"/>
<path d="M72.1201 11.9858H67.1094V16.9966H72.1201V11.9858Z" fill="white"/>
<path d="M72.1201 16.9971H67.1094V22.0078H72.1201V16.9971Z" fill="white"/>
<path d="M72.1201 27.0166H67.1094V32.0274H72.1201V27.0166Z" fill="white"/>
<path d="M72.1201 32.0278H67.1094V37.0386H72.1201V32.0278Z" fill="white"/>
<path d="M72.1201 37.0391H67.1094V42.0498H72.1201V37.0391Z" fill="white"/>
<path d="M72.1201 52.0713H67.1094V57.0821H72.1201V52.0713Z" fill="white"/>
<path d="M72.1201 62.0938H67.1094V67.1045H72.1201V62.0938Z" fill="white"/>
<path d="M72.1201 67.1035H67.1094V72.1143H72.1201V67.1035Z" fill="white"/>
<path d="M72.1201 72.1143H67.1094V77.125H72.1201V72.1143Z" fill="white"/>
<path d="M72.1201 92.1582H67.1094V97.169H72.1201V92.1582Z" fill="white"/>
<path d="M72.1201 107.19H67.1094V112.201H72.1201V107.19Z" fill="white"/>
<path d="M72.1201 157.298H67.1094V162.309H72.1201V157.298Z" fill="white"/>
<path d="M72.1201 162.309H67.1094V167.32H72.1201V162.309Z" fill="white"/>
<path d="M77.128 6.97461H72.1172V11.9854H77.128V6.97461Z" fill="white"/>
<path d="M77.128 11.9858H72.1172V16.9966H77.128V11.9858Z" fill="white"/>
<path d="M77.128 16.9971H72.1172V22.0078H77.128V16.9971Z" fill="white"/>
<path d="M77.128 27.0166H72.1172V32.0274H77.128V27.0166Z" fill="white"/>
<path d="M77.128 32.0278H72.1172V37.0386H77.128V32.0278Z" fill="white"/>
<path d="M77.128 47.061H72.1172V52.0718H77.128V47.061Z" fill="white"/>
<path d="M77.128 52.0713H72.1172V57.0821H77.128V52.0713Z" fill="white"/>
<path d="M77.128 72.1143H72.1172V77.125H77.128V72.1143Z" fill="white"/>
<path d="M77.128 92.1582H72.1172V97.169H77.128V92.1582Z" fill="white"/>
<path d="M77.128 97.1689H72.1172V102.18H77.128V97.1689Z" fill="white"/>
<path d="M77.128 102.179H72.1172V107.189H77.128V102.179Z" fill="white"/>
<path d="M77.128 107.19H72.1172V112.201H77.128V107.19Z" fill="white"/>
<path d="M77.128 112.2H72.1172V117.211H77.128V112.2Z" fill="white"/>
<path d="M77.128 122.222H72.1172V127.233H77.128V122.222Z" fill="white"/>
<path d="M77.128 137.254H72.1172V142.265H77.128V137.254Z" fill="white"/>
<path d="M77.128 142.265H72.1172V147.275H77.128V142.265Z" fill="white"/>
<path d="M77.128 147.275H72.1172V152.286H77.128V147.275Z" fill="white"/>
<path d="M77.128 152.287H72.1172V157.297H77.128V152.287Z" fill="white"/>
<path d="M77.128 167.319H72.1172V172.33H77.128V167.319Z" fill="white"/>
<path d="M77.128 177.34H72.1172V182.351H77.128V177.34Z" fill="white"/>
<path d="M77.128 182.351H72.1172V187.362H77.128V182.351Z" fill="white"/>
<path d="M82.1358 16.9971H77.125V22.0078H82.1358V16.9971Z" fill="white"/>
<path d="M82.1358 37.0391H77.125V42.0498H82.1358V37.0391Z" fill="white"/>
<path d="M82.1358 47.061H77.125V52.0718H82.1358V47.061Z" fill="white"/>
<path d="M82.1358 57.0825H77.125V62.0933H82.1358V57.0825Z" fill="white"/>
<path d="M82.1358 67.1035H77.125V72.1143H82.1358V67.1035Z" fill="white"/>
<path d="M82.1358 77.1255H77.125V82.1363H82.1358V77.1255Z" fill="white"/>
<path d="M82.1358 87.147H77.125V92.1577H82.1358V87.147Z" fill="white"/>
<path d="M82.1358 107.19H77.125V112.201H82.1358V107.19Z" fill="white"/>
<path d="M82.1358 127.233H77.125V132.244H82.1358V127.233Z" fill="white"/>
<path d="M82.1358 137.254H77.125V142.265H82.1358V137.254Z" fill="white"/>
<path d="M82.1358 142.265H77.125V147.275H82.1358V142.265Z" fill="white"/>
<path d="M82.1358 152.287H77.125V157.297H82.1358V152.287Z" fill="white"/>
<path d="M82.1358 167.319H77.125V172.33H82.1358V167.319Z" fill="white"/>
<path d="M82.1358 172.33H77.125V177.341H82.1358V172.33Z" fill="white"/>
<path d="M82.1358 177.34H77.125V182.351H82.1358V177.34Z" fill="white"/>
<path d="M82.1358 182.351H77.125V187.362H82.1358V182.351Z" fill="white"/>
<path d="M82.1358 187.362H77.125V192.373H82.1358V187.362Z" fill="white"/>
<path d="M87.1514 22.0068H82.1406V27.0176H87.1514V22.0068Z" fill="white"/>
<path d="M87.1514 27.0166H82.1406V32.0274H87.1514V27.0166Z" fill="white"/>
<path d="M87.1514 42.0503H82.1406V47.0611H87.1514V42.0503Z" fill="white"/>
<path d="M87.1514 47.061H82.1406V52.0718H87.1514V47.061Z" fill="white"/>
<path d="M87.1514 62.0938H82.1406V67.1045H87.1514V62.0938Z" fill="white"/>
<path d="M87.1514 72.1143H82.1406V77.125H87.1514V72.1143Z" fill="white"/>
<path d="M87.1514 77.1255H82.1406V82.1363H87.1514V77.1255Z" fill="white"/>
<path d="M87.1514 82.1357H82.1406V87.1465H87.1514V82.1357Z" fill="white"/>
<path d="M87.1514 87.147H82.1406V92.1577H87.1514V87.147Z" fill="white"/>
<path d="M87.1514 92.1582H82.1406V97.169H87.1514V92.1582Z" fill="white"/>
<path d="M87.1514 102.179H82.1406V107.189H87.1514V102.179Z" fill="white"/>
<path d="M87.1514 112.2H82.1406V117.211H87.1514V112.2Z" fill="white"/>
<path d="M87.1514 117.211H82.1406V122.222H87.1514V117.211Z" fill="white"/>
<path d="M87.1514 127.233H82.1406V132.244H87.1514V127.233Z" fill="white"/>
<path d="M87.1514 147.275H82.1406V152.286H87.1514V147.275Z" fill="white"/>
<path d="M87.1514 162.309H82.1406V167.32H87.1514V162.309Z" fill="white"/>
<path d="M87.1514 172.33H82.1406V177.341H87.1514V172.33Z" fill="white"/>
<path d="M87.1514 177.34H82.1406V182.351H87.1514V177.34Z" fill="white"/>
<path d="M87.1514 187.362H82.1406V192.373H87.1514V187.362Z" fill="white"/>
<path d="M92.1592 11.9858H87.1484V16.9966H92.1592V11.9858Z" fill="white"/>
<path d="M92.1592 27.0166H87.1484V32.0274H92.1592V27.0166Z" fill="white"/>
<path d="M92.1592 37.0391H87.1484V42.0498H92.1592V37.0391Z" fill="white"/>
<path d="M92.1592 42.0503H87.1484V47.0611H92.1592V42.0503Z" fill="white"/>
<path d="M92.1592 57.0825H87.1484V62.0933H92.1592V57.0825Z" fill="white"/>
<path d="M92.1592 72.1143H87.1484V77.125H92.1592V72.1143Z" fill="white"/>
<path d="M92.1592 77.1255H87.1484V82.1363H92.1592V77.1255Z" fill="white"/>
<path d="M92.1592 87.147H87.1484V92.1577H92.1592V87.147Z" fill="white"/>
<path d="M92.1592 97.1689H87.1484V102.18H92.1592V97.1689Z" fill="white"/>
<path d="M92.1592 107.19H87.1484V112.201H92.1592V107.19Z" fill="white"/>
<path d="M92.1592 112.2H87.1484V117.211H92.1592V112.2Z" fill="white"/>
<path d="M92.1592 117.211H87.1484V122.222H92.1592V117.211Z" fill="white"/>
<path d="M92.1592 122.222H87.1484V127.233H92.1592V122.222Z" fill="white"/>
<path d="M92.1592 127.233H87.1484V132.244H92.1592V127.233Z" fill="white"/>
<path d="M92.1592 132.245H87.1484V137.255H92.1592V132.245Z" fill="white"/>
<path d="M92.1592 142.265H87.1484V147.275H92.1592V142.265Z" fill="white"/>
<path d="M92.1592 157.298H87.1484V162.309H92.1592V157.298Z" fill="white"/>
<path d="M92.1592 177.34H87.1484V182.351H92.1592V177.34Z" fill="white"/>
<path d="M92.1592 182.351H87.1484V187.362H92.1592V182.351Z" fill="white"/>
<path d="M92.1592 187.362H87.1484V192.373H92.1592V187.362Z" fill="white"/>
<path d="M97.1748 6.97461H92.1641V11.9854H97.1748V6.97461Z" fill="white"/>
<path d="M97.1748 16.9971H92.1641V22.0078H97.1748V16.9971Z" fill="white"/>
<path d="M97.1748 22.0068H92.1641V27.0176H97.1748V22.0068Z" fill="white"/>
<path d="M97.1748 27.0166H92.1641V32.0274H97.1748V27.0166Z" fill="white"/>
<path d="M97.1748 47.061H92.1641V52.0718H97.1748V47.061Z" fill="white"/>
<path d="M97.1748 52.0713H92.1641V57.0821H97.1748V52.0713Z" fill="white"/>
<path d="M97.1748 67.1035H92.1641V72.1143H97.1748V67.1035Z" fill="white"/>
<path d="M97.1748 72.1143H92.1641V77.125H97.1748V72.1143Z" fill="white"/>
<path d="M97.1748 107.19H92.1641V112.201H97.1748V107.19Z" fill="white"/>
<path d="M97.1748 112.2H92.1641V117.211H97.1748V112.2Z" fill="white"/>
<path d="M97.1748 117.211H92.1641V122.222H97.1748V117.211Z" fill="white"/>
<path d="M97.1748 122.222H92.1641V127.233H97.1748V122.222Z" fill="white"/>
<path d="M97.1748 137.254H92.1641V142.265H97.1748V137.254Z" fill="white"/>
<path d="M97.1748 142.265H92.1641V147.275H97.1748V142.265Z" fill="white"/>
<path d="M97.1748 152.287H92.1641V157.297H97.1748V152.287Z" fill="white"/>
<path d="M97.1748 177.34H92.1641V182.351H97.1748V177.34Z" fill="white"/>
<path d="M97.1748 182.351H92.1641V187.362H97.1748V182.351Z" fill="white"/>
<path d="M102.183 27.0166H97.1719V32.0274H102.183V27.0166Z" fill="white"/>
<path d="M102.183 32.0278H97.1719V37.0386H102.183V32.0278Z" fill="white"/>
<path d="M102.183 37.0391H97.1719V42.0498H102.183V37.0391Z" fill="white"/>
<path d="M102.183 47.061H97.1719V52.0718H102.183V47.061Z" fill="white"/>
<path d="M102.183 52.0713H97.1719V57.0821H102.183V52.0713Z" fill="white"/>
<path d="M102.183 62.0938H97.1719V67.1045H102.183V62.0938Z" fill="white"/>
<path d="M102.183 72.1143H97.1719V77.125H102.183V72.1143Z" fill="white"/>
<path d="M102.183 77.1255H97.1719V82.1363H102.183V77.1255Z" fill="white"/>
<path d="M102.183 92.1582H97.1719V97.169H102.183V92.1582Z" fill="white"/>
<path d="M102.183 97.1689H97.1719V102.18H102.183V97.1689Z" fill="white"/>
<path d="M102.183 102.179H97.1719V107.189H102.183V102.179Z" fill="white"/>
<path d="M102.183 107.19H97.1719V112.201H102.183V107.19Z" fill="white"/>
<path d="M102.183 127.233H97.1719V132.244H102.183V127.233Z" fill="white"/>
<path d="M102.183 132.245H97.1719V137.255H102.183V132.245Z" fill="white"/>
<path d="M102.183 142.265H97.1719V147.275H102.183V142.265Z" fill="white"/>
<path d="M102.183 157.298H97.1719V162.309H102.183V157.298Z" fill="white"/>
<path d="M102.183 167.319H97.1719V172.33H102.183V167.319Z" fill="white"/>
<path d="M102.183 172.33H97.1719V177.341H102.183V172.33Z" fill="white"/>
<path d="M102.183 177.34H97.1719V182.351H102.183V177.34Z" fill="white"/>
<path d="M102.183 187.362H97.1719V192.373H102.183V187.362Z" fill="white"/>
<path d="M107.19 6.97461H102.18V11.9854H107.19V6.97461Z" fill="white"/>
<path d="M107.19 11.9858H102.18V16.9966H107.19V11.9858Z" fill="white"/>
<path d="M107.19 27.0166H102.18V32.0274H107.19V27.0166Z" fill="white"/>
<path d="M107.19 42.0503H102.18V47.0611H107.19V42.0503Z" fill="white"/>
<path d="M107.19 87.147H102.18V92.1577H107.19V87.147Z" fill="white"/>
<path d="M107.19 97.1689H102.18V102.18H107.19V97.1689Z" fill="white"/>
<path d="M107.19 122.222H102.18V127.233H107.19V122.222Z" fill="white"/>
<path d="M107.19 132.245H102.18V137.255H107.19V132.245Z" fill="white"/>
<path d="M107.19 137.254H102.18V142.265H107.19V137.254Z" fill="white"/>
<path d="M107.19 142.265H102.18V147.275H107.19V142.265Z" fill="white"/>
<path d="M107.19 147.275H102.18V152.286H107.19V147.275Z" fill="white"/>
<path d="M107.19 157.298H102.18V162.309H107.19V157.298Z" fill="white"/>
<path d="M107.19 167.319H102.18V172.33H107.19V167.319Z" fill="white"/>
<path d="M107.19 172.33H102.18V177.341H107.19V172.33Z" fill="white"/>
<path d="M107.19 182.351H102.18V187.362H107.19V182.351Z" fill="white"/>
<path d="M107.19 187.362H102.18V192.373H107.19V187.362Z" fill="white"/>
<path d="M112.206 11.9858H107.195V16.9966H112.206V11.9858Z" fill="white"/>
<path d="M112.206 16.9971H107.195V22.0078H112.206V16.9971Z" fill="white"/>
<path d="M112.206 22.0068H107.195V27.0176H112.206V22.0068Z" fill="white"/>
<path d="M112.206 27.0166H107.195V32.0274H112.206V27.0166Z" fill="white"/>
<path d="M112.206 37.0391H107.195V42.0498H112.206V37.0391Z" fill="white"/>
<path d="M112.206 42.0503H107.195V47.0611H112.206V42.0503Z" fill="white"/>
<path d="M112.206 52.0713H107.195V57.0821H112.206V52.0713Z" fill="white"/>
<path d="M112.206 67.1035H107.195V72.1143H112.206V67.1035Z" fill="white"/>
<path d="M112.206 72.1143H107.195V77.125H112.206V72.1143Z" fill="white"/>
<path d="M112.206 77.1255H107.195V82.1363H112.206V77.1255Z" fill="white"/>
<path d="M112.206 82.1357H107.195V87.1465H112.206V82.1357Z" fill="white"/>
<path d="M112.206 92.1582H107.195V97.169H112.206V92.1582Z" fill="white"/>
<path d="M112.206 97.1689H107.195V102.18H112.206V97.1689Z" fill="white"/>
<path d="M112.206 102.179H107.195V107.189H112.206V102.179Z" fill="white"/>
<path d="M112.206 122.222H107.195V127.233H112.206V122.222Z" fill="white"/>
<path d="M112.206 127.233H107.195V132.244H112.206V127.233Z" fill="white"/>
<path d="M112.206 137.254H107.195V142.265H112.206V137.254Z" fill="white"/>
<path d="M112.206 147.275H107.195V152.286H112.206V147.275Z" fill="white"/>
<path d="M112.206 157.298H107.195V162.309H112.206V157.298Z" fill="white"/>
<path d="M112.206 167.319H107.195V172.33H112.206V167.319Z" fill="white"/>
<path d="M112.206 172.33H107.195V177.341H112.206V172.33Z" fill="white"/>
<path d="M112.206 182.351H107.195V187.362H112.206V182.351Z" fill="white"/>
<path d="M112.206 187.362H107.195V192.373H112.206V187.362Z" fill="white"/>
<path d="M117.214 6.97461H112.203V11.9854H117.214V6.97461Z" fill="white"/>
<path d="M117.214 16.9971H112.203V22.0078H117.214V16.9971Z" fill="white"/>
<path d="M117.214 27.0166H112.203V32.0274H117.214V27.0166Z" fill="white"/>
<path d="M117.214 32.0278H112.203V37.0386H117.214V32.0278Z" fill="white"/>
<path d="M117.214 47.061H112.203V52.0718H117.214V47.061Z" fill="white"/>
<path d="M117.214 57.0825H112.203V62.0933H117.214V57.0825Z" fill="white"/>
<path d="M117.214 82.1357H112.203V87.1465H117.214V82.1357Z" fill="white"/>
<path d="M117.214 87.147H112.203V92.1577H117.214V87.147Z" fill="white"/>
<path d="M117.214 92.1582H112.203V97.169H117.214V92.1582Z" fill="white"/>
<path d="M117.214 117.211H112.203V122.222H117.214V117.211Z" fill="white"/>
<path d="M117.214 122.222H112.203V127.233H117.214V122.222Z" fill="white"/>
<path d="M117.214 127.233H112.203V132.244H117.214V127.233Z" fill="white"/>
<path d="M117.214 132.245H112.203V137.255H117.214V132.245Z" fill="white"/>
<path d="M117.214 137.254H112.203V142.265H117.214V137.254Z" fill="white"/>
<path d="M117.214 142.265H112.203V147.275H117.214V142.265Z" fill="white"/>
<path d="M117.214 147.275H112.203V152.286H117.214V147.275Z" fill="white"/>
<path d="M117.214 162.309H112.203V167.32H117.214V162.309Z" fill="white"/>
<path d="M117.214 167.319H112.203V172.33H117.214V167.319Z" fill="white"/>
<path d="M117.214 172.33H112.203V177.341H117.214V172.33Z" fill="white"/>
<path d="M117.214 182.351H112.203V187.362H117.214V182.351Z" fill="white"/>
<path d="M122.222 6.97461H117.211V11.9854H122.222V6.97461Z" fill="white"/>
<path d="M122.222 16.9971H117.211V22.0078H122.222V16.9971Z" fill="white"/>
<path d="M122.222 22.0068H117.211V27.0176H122.222V22.0068Z" fill="white"/>
<path d="M122.222 27.0166H117.211V32.0274H122.222V27.0166Z" fill="white"/>
<path d="M122.222 32.0278H117.211V37.0386H122.222V32.0278Z" fill="white"/>
<path d="M122.222 37.0391H117.211V42.0498H122.222V37.0391Z" fill="white"/>
<path d="M122.222 42.0503H117.211V47.0611H122.222V42.0503Z" fill="white"/>
<path d="M122.222 47.061H117.211V52.0718H122.222V47.061Z" fill="white"/>
<path d="M122.222 52.0713H117.211V57.0821H122.222V52.0713Z" fill="white"/>
<path d="M122.222 67.1035H117.211V72.1143H122.222V67.1035Z" fill="white"/>
<path d="M122.222 72.1143H117.211V77.125H122.222V72.1143Z" fill="white"/>
<path d="M122.222 77.1255H117.211V82.1363H122.222V77.1255Z" fill="white"/>
<path d="M122.222 82.1357H117.211V87.1465H122.222V82.1357Z" fill="white"/>
<path d="M122.222 87.147H117.211V92.1577H122.222V87.147Z" fill="white"/>
<path d="M122.222 92.1582H117.211V97.169H122.222V92.1582Z" fill="white"/>
<path d="M122.222 97.1689H117.211V102.18H122.222V97.1689Z" fill="white"/>
<path d="M122.222 112.2H117.211V117.211H122.222V112.2Z" fill="white"/>
<path d="M122.222 122.222H117.211V127.233H122.222V122.222Z" fill="white"/>
<path d="M122.222 132.245H117.211V137.255H122.222V132.245Z" fill="white"/>
<path d="M122.222 142.265H117.211V147.275H122.222V142.265Z" fill="white"/>
<path d="M122.222 152.287H117.211V157.297H122.222V152.287Z" fill="white"/>
<path d="M122.222 167.319H117.211V172.33H122.222V167.319Z" fill="white"/>
<path d="M122.222 177.34H117.211V182.351H122.222V177.34Z" fill="white"/>
<path d="M122.222 182.351H117.211V187.362H122.222V182.351Z" fill="white"/>
<path d="M122.222 187.362H117.211V192.373H122.222V187.362Z" fill="white"/>
<path d="M127.237 16.9971H122.227V22.0078H127.237V16.9971Z" fill="white"/>
<path d="M127.237 27.0166H122.227V32.0274H127.237V27.0166Z" fill="white"/>
<path d="M127.237 42.0503H122.227V47.0611H127.237V42.0503Z" fill="white"/>
<path d="M127.237 47.061H122.227V52.0718H127.237V47.061Z" fill="white"/>
<path d="M127.237 52.0713H122.227V57.0821H127.237V52.0713Z" fill="white"/>
<path d="M127.237 57.0825H122.227V62.0933H127.237V57.0825Z" fill="white"/>
<path d="M127.237 67.1035H122.227V72.1143H127.237V67.1035Z" fill="white"/>
<path d="M127.237 72.1143H122.227V77.125H127.237V72.1143Z" fill="white"/>
<path d="M127.237 82.1357H122.227V87.1465H127.237V82.1357Z" fill="white"/>
<path d="M127.237 117.211H122.227V122.222H127.237V117.211Z" fill="white"/>
<path d="M127.237 132.245H122.227V137.255H127.237V132.245Z" fill="white"/>
<path d="M127.237 142.265H122.227V147.275H127.237V142.265Z" fill="white"/>
<path d="M127.237 147.275H122.227V152.286H127.237V147.275Z" fill="white"/>
<path d="M127.237 152.287H122.227V157.297H127.237V152.287Z" fill="white"/>
<path d="M127.237 157.298H122.227V162.309H127.237V157.298Z" fill="white"/>
<path d="M127.237 162.309H122.227V167.32H127.237V162.309Z" fill="white"/>
<path d="M127.237 172.33H122.227V177.341H127.237V172.33Z" fill="white"/>
<path d="M127.237 177.34H122.227V182.351H127.237V177.34Z" fill="white"/>
<path d="M127.237 182.351H122.227V187.362H127.237V182.351Z" fill="white"/>
<path d="M132.245 6.97461H127.234V11.9854H132.245V6.97461Z" fill="white"/>
<path d="M132.245 16.9971H127.234V22.0078H132.245V16.9971Z" fill="white"/>
<path d="M132.245 22.0068H127.234V27.0176H132.245V22.0068Z" fill="white"/>
<path d="M132.245 32.0278H127.234V37.0386H132.245V32.0278Z" fill="white"/>
<path d="M132.245 37.0391H127.234V42.0498H132.245V37.0391Z" fill="white"/>
<path d="M132.245 62.0938H127.234V67.1045H132.245V62.0938Z" fill="white"/>
<path d="M132.245 67.1035H127.234V72.1143H132.245V67.1035Z" fill="white"/>
<path d="M132.245 72.1143H127.234V77.125H132.245V72.1143Z" fill="white"/>
<path d="M132.245 82.1357H127.234V87.1465H132.245V82.1357Z" fill="white"/>
<path d="M132.245 97.1689H127.234V102.18H132.245V97.1689Z" fill="white"/>
<path d="M132.245 127.233H127.234V132.244H132.245V127.233Z" fill="white"/>
<path d="M132.245 132.245H127.234V137.255H132.245V132.245Z" fill="white"/>
<path d="M132.245 152.287H127.234V157.297H132.245V152.287Z" fill="white"/>
<path d="M132.245 157.298H127.234V162.309H132.245V157.298Z" fill="white"/>
<path d="M132.245 187.362H127.234V192.373H132.245V187.362Z" fill="white"/>
<path d="M137.261 6.97461H132.25V11.9854H137.261V6.97461Z" fill="white"/>
<path d="M137.261 11.9858H132.25V16.9966H137.261V11.9858Z" fill="white"/>
<path d="M137.261 22.0068H132.25V27.0176H137.261V22.0068Z" fill="white"/>
<path d="M137.261 42.0503H132.25V47.0611H137.261V42.0503Z" fill="white"/>
<path d="M137.261 52.0713H132.25V57.0821H137.261V52.0713Z" fill="white"/>
<path d="M137.261 57.0825H132.25V62.0933H137.261V57.0825Z" fill="white"/>
<path d="M137.261 62.0938H132.25V67.1045H137.261V62.0938Z" fill="white"/>
<path d="M137.261 82.1357H132.25V87.1465H137.261V82.1357Z" fill="white"/>
<path d="M137.261 107.19H132.25V112.201H137.261V107.19Z" fill="white"/>
<path d="M137.261 117.211H132.25V122.222H137.261V117.211Z" fill="white"/>
<path d="M137.261 122.222H132.25V127.233H137.261V122.222Z" fill="white"/>
<path d="M137.261 127.233H132.25V132.244H137.261V127.233Z" fill="white"/>
<path d="M137.261 132.245H132.25V137.255H137.261V132.245Z" fill="white"/>
<path d="M137.261 137.254H132.25V142.265H137.261V137.254Z" fill="white"/>
<path d="M137.261 142.265H132.25V147.275H137.261V142.265Z" fill="white"/>
<path d="M137.261 152.287H132.25V157.297H137.261V152.287Z" fill="white"/>
<path d="M137.261 162.309H132.25V167.32H137.261V162.309Z" fill="white"/>
<path d="M137.261 167.319H132.25V172.33H137.261V167.319Z" fill="white"/>
<path d="M137.261 177.34H132.25V182.351H137.261V177.34Z" fill="white"/>
<path d="M142.269 6.97461H137.258V11.9854H142.269V6.97461Z" fill="white"/>
<path d="M142.269 11.9858H137.258V16.9966H142.269V11.9858Z" fill="white"/>
<path d="M142.269 16.9971H137.258V22.0078H142.269V16.9971Z" fill="white"/>
<path d="M142.269 27.0166H137.258V32.0274H142.269V27.0166Z" fill="white"/>
<path d="M142.269 32.0278H137.258V37.0386H142.269V32.0278Z" fill="white"/>
<path d="M142.269 37.0391H137.258V42.0498H142.269V37.0391Z" fill="white"/>
<path d="M142.269 47.061H137.258V52.0718H142.269V47.061Z" fill="white"/>
<path d="M142.269 62.0938H137.258V67.1045H142.269V62.0938Z" fill="white"/>
<path d="M142.269 67.1035H137.258V72.1143H142.269V67.1035Z" fill="white"/>
<path d="M142.269 82.1357H137.258V87.1465H142.269V82.1357Z" fill="white"/>
<path d="M142.269 102.179H137.258V107.189H142.269V102.179Z" fill="white"/>
<path d="M142.269 112.2H137.258V117.211H142.269V112.2Z" fill="white"/>
<path d="M142.269 132.245H137.258V137.255H142.269V132.245Z" fill="white"/>
<path d="M142.269 142.265H137.258V147.275H142.269V142.265Z" fill="white"/>
<path d="M142.269 157.298H137.258V162.309H142.269V157.298Z" fill="white"/>
<path d="M142.269 162.309H137.258V167.32H142.269V162.309Z" fill="white"/>
<path d="M142.269 177.34H137.258V182.351H142.269V177.34Z" fill="white"/>
<path d="M142.269 187.362H137.258V192.373H142.269V187.362Z" fill="white"/>
<path d="M147.276 6.97461H142.266V11.9854H147.276V6.97461Z" fill="white"/>
<path d="M147.276 16.9971H142.266V22.0078H147.276V16.9971Z" fill="white"/>
<path d="M147.276 22.0068H142.266V27.0176H147.276V22.0068Z" fill="white"/>
<path d="M147.276 62.0938H142.266V67.1045H147.276V62.0938Z" fill="white"/>
<path d="M147.276 67.1035H142.266V72.1143H147.276V67.1035Z" fill="white"/>
<path d="M147.276 72.1143H142.266V77.125H147.276V72.1143Z" fill="white"/>
<path d="M147.276 77.1255H142.266V82.1363H147.276V77.1255Z" fill="white"/>
<path d="M147.276 82.1357H142.266V87.1465H147.276V82.1357Z" fill="white"/>
<path d="M147.276 87.147H142.266V92.1577H147.276V87.147Z" fill="white"/>
<path d="M147.276 97.1689H142.266V102.18H147.276V97.1689Z" fill="white"/>
<path d="M147.276 102.179H142.266V107.189H147.276V102.179Z" fill="white"/>
<path d="M147.276 107.19H142.266V112.201H147.276V107.19Z" fill="white"/>
<path d="M147.276 117.211H142.266V122.222H147.276V117.211Z" fill="white"/>
<path d="M147.276 122.222H142.266V127.233H147.276V122.222Z" fill="white"/>
<path d="M147.276 127.233H142.266V132.244H147.276V127.233Z" fill="white"/>
<path d="M147.276 142.265H142.266V147.275H147.276V142.265Z" fill="white"/>
<path d="M147.276 152.287H142.266V157.297H147.276V152.287Z" fill="white"/>
<path d="M147.276 167.319H142.266V172.33H147.276V167.319Z" fill="white"/>
<path d="M147.276 177.34H142.266V182.351H147.276V177.34Z" fill="white"/>
<path d="M147.276 187.362H142.266V192.373H147.276V187.362Z" fill="white"/>
<path d="M152.292 6.97461H147.281V11.9854H152.292V6.97461Z" fill="white"/>
<path d="M152.292 16.9971H147.281V22.0078H152.292V16.9971Z" fill="white"/>
<path d="M152.292 22.0068H147.281V27.0176H152.292V22.0068Z" fill="white"/>
<path d="M152.292 37.0391H147.281V42.0498H152.292V37.0391Z" fill="white"/>
<path d="M152.292 42.0503H147.281V47.0611H152.292V42.0503Z" fill="white"/>
<path d="M152.292 47.061H147.281V52.0718H152.292V47.061Z" fill="white"/>
<path d="M152.292 52.0713H147.281V57.0821H152.292V52.0713Z" fill="white"/>
<path d="M152.292 57.0825H147.281V62.0933H152.292V57.0825Z" fill="white"/>
<path d="M152.292 67.1035H147.281V72.1143H152.292V67.1035Z" fill="white"/>
<path d="M152.292 77.1255H147.281V82.1363H152.292V77.1255Z" fill="white"/>
<path d="M152.292 87.147H147.281V92.1577H152.292V87.147Z" fill="white"/>
<path d="M152.292 97.1689H147.281V102.18H152.292V97.1689Z" fill="white"/>
<path d="M152.292 122.222H147.281V127.233H152.292V122.222Z" fill="white"/>
<path d="M152.292 132.245H147.281V137.255H152.292V132.245Z" fill="white"/>
<path d="M152.292 142.265H147.281V147.275H152.292V142.265Z" fill="white"/>
<path d="M152.292 147.275H147.281V152.286H152.292V147.275Z" fill="white"/>
<path d="M152.292 152.287H147.281V157.297H152.292V152.287Z" fill="white"/>
<path d="M152.292 157.298H147.281V162.309H152.292V157.298Z" fill="white"/>
<path d="M152.292 162.309H147.281V167.32H152.292V162.309Z" fill="white"/>
<path d="M152.292 167.319H147.281V172.33H152.292V167.319Z" fill="white"/>
<path d="M152.292 177.34H147.281V182.351H152.292V177.34Z" fill="white"/>
<path d="M152.292 182.351H147.281V187.362H152.292V182.351Z" fill="white"/>
<path d="M152.292 187.362H147.281V192.373H152.292V187.362Z" fill="white"/>
<path d="M157.3 47.061H152.289V52.0718H157.3V47.061Z" fill="white"/>
<path d="M157.3 52.0713H152.289V57.0821H157.3V52.0713Z" fill="white"/>
<path d="M157.3 57.0825H152.289V62.0933H157.3V57.0825Z" fill="white"/>
<path d="M157.3 62.0938H152.289V67.1045H157.3V62.0938Z" fill="white"/>
<path d="M157.3 67.1035H152.289V72.1143H157.3V67.1035Z" fill="white"/>
<path d="M157.3 72.1143H152.289V77.125H157.3V72.1143Z" fill="white"/>
<path d="M157.3 77.1255H152.289V82.1363H157.3V77.1255Z" fill="white"/>
<path d="M157.3 87.147H152.289V92.1577H157.3V87.147Z" fill="white"/>
<path d="M157.3 97.1689H152.289V102.18H157.3V97.1689Z" fill="white"/>
<path d="M157.3 102.179H152.289V107.189H157.3V102.179Z" fill="white"/>
<path d="M157.3 107.19H152.289V112.201H157.3V107.19Z" fill="white"/>
<path d="M157.3 137.254H152.289V142.265H157.3V137.254Z" fill="white"/>
<path d="M157.3 147.275H152.289V152.286H157.3V147.275Z" fill="white"/>
<path d="M157.3 167.319H152.289V172.33H157.3V167.319Z" fill="white"/>
<path d="M157.3 172.33H152.289V177.341H157.3V172.33Z" fill="white"/>
<path d="M157.3 177.34H152.289V182.351H157.3V177.34Z" fill="white"/>
<path d="M162.315 52.0713H157.305V57.0821H162.315V52.0713Z" fill="white"/>
<path d="M162.315 67.1035H157.305V72.1143H162.315V67.1035Z" fill="white"/>
<path d="M162.315 72.1143H157.305V77.125H162.315V72.1143Z" fill="white"/>
<path d="M162.315 77.1255H157.305V82.1363H162.315V77.1255Z" fill="white"/>
<path d="M162.315 97.1689H157.305V102.18H162.315V97.1689Z" fill="white"/>
<path d="M162.315 102.179H157.305V107.189H162.315V102.179Z" fill="white"/>
<path d="M162.315 107.19H157.305V112.201H162.315V107.19Z" fill="white"/>
<path d="M162.315 112.2H157.305V117.211H162.315V112.2Z" fill="white"/>
<path d="M162.315 117.211H157.305V122.222H162.315V117.211Z" fill="white"/>
<path d="M162.315 122.222H157.305V127.233H162.315V122.222Z" fill="white"/>
<path d="M162.315 127.233H157.305V132.244H162.315V127.233Z" fill="white"/>
<path d="M162.315 132.245H157.305V137.255H162.315V132.245Z" fill="white"/>
<path d="M162.315 147.275H157.305V152.286H162.315V147.275Z" fill="white"/>
<path d="M162.315 157.298H157.305V162.309H162.315V157.298Z" fill="white"/>
<path d="M162.315 167.319H157.305V172.33H162.315V167.319Z" fill="white"/>
<path d="M162.315 172.33H157.305V177.341H162.315V172.33Z" fill="white"/>
<path d="M162.315 177.34H157.305V182.351H162.315V177.34Z" fill="white"/>
<path d="M162.315 187.362H157.305V192.373H162.315V187.362Z" fill="white"/>
<path d="M167.323 47.061H162.312V52.0718H167.323V47.061Z" fill="white"/>
<path d="M167.323 62.0938H162.312V67.1045H167.323V62.0938Z" fill="white"/>
<path d="M167.323 82.1357H162.312V87.1465H167.323V82.1357Z" fill="white"/>
<path d="M167.323 87.147H162.312V92.1577H167.323V87.147Z" fill="white"/>
<path d="M167.323 92.1582H162.312V97.169H167.323V92.1582Z" fill="white"/>
<path d="M167.323 97.1689H162.312V102.18H167.323V97.1689Z" fill="white"/>
<path d="M167.323 117.211H162.312V122.222H167.323V117.211Z" fill="white"/>
<path d="M167.323 127.233H162.312V132.244H167.323V127.233Z" fill="white"/>
<path d="M167.323 132.245H162.312V137.255H167.323V132.245Z" fill="white"/>
<path d="M167.323 142.265H162.312V147.275H167.323V142.265Z" fill="white"/>
<path d="M167.323 147.275H162.312V152.286H167.323V147.275Z" fill="white"/>
<path d="M167.323 167.319H162.312V172.33H167.323V167.319Z" fill="white"/>
<path d="M167.323 172.33H162.312V177.341H167.323V172.33Z" fill="white"/>
<path d="M167.323 182.351H162.312V187.362H167.323V182.351Z" fill="white"/>
<path d="M167.323 187.362H162.312V192.373H167.323V187.362Z" fill="white"/>
<path d="M172.331 47.061H167.32V52.0718H172.331V47.061Z" fill="white"/>
<path d="M172.331 52.0713H167.32V57.0821H172.331V52.0713Z" fill="white"/>
<path d="M172.331 62.0938H167.32V67.1045H172.331V62.0938Z" fill="white"/>
<path d="M172.331 72.1143H167.32V77.125H172.331V72.1143Z" fill="white"/>
<path d="M172.331 82.1357H167.32V87.1465H172.331V82.1357Z" fill="white"/>
<path d="M172.331 92.1582H167.32V97.169H172.331V92.1582Z" fill="white"/>
<path d="M172.331 97.1689H167.32V102.18H172.331V97.1689Z" fill="white"/>
<path d="M172.331 102.179H167.32V107.189H172.331V102.179Z" fill="white"/>
<path d="M172.331 112.2H167.32V117.211H172.331V112.2Z" fill="white"/>
<path d="M172.331 117.211H167.32V122.222H172.331V117.211Z" fill="white"/>
<path d="M172.331 137.254H167.32V142.265H172.331V137.254Z" fill="white"/>
<path d="M172.331 142.265H167.32V147.275H172.331V142.265Z" fill="white"/>
<path d="M172.331 147.275H167.32V152.286H172.331V147.275Z" fill="white"/>
<path d="M172.331 152.287H167.32V157.297H172.331V152.287Z" fill="white"/>
<path d="M172.331 157.298H167.32V162.309H172.331V157.298Z" fill="white"/>
<path d="M172.331 162.309H167.32V167.32H172.331V162.309Z" fill="white"/>
<path d="M172.331 167.319H167.32V172.33H172.331V167.319Z" fill="white"/>
<path d="M172.331 187.362H167.32V192.373H172.331V187.362Z" fill="white"/>
<path d="M177.347 47.061H172.336V52.0718H177.347V47.061Z" fill="white"/>
<path d="M177.347 52.0713H172.336V57.0821H177.347V52.0713Z" fill="white"/>
<path d="M177.347 77.1255H172.336V82.1363H177.347V77.1255Z" fill="white"/>
<path d="M177.347 82.1357H172.336V87.1465H177.347V82.1357Z" fill="white"/>
<path d="M177.347 87.147H172.336V92.1577H177.347V87.147Z" fill="white"/>
<path d="M177.347 92.1582H172.336V97.169H177.347V92.1582Z" fill="white"/>
<path d="M177.347 127.233H172.336V132.244H177.347V127.233Z" fill="white"/>
<path d="M177.347 132.245H172.336V137.255H177.347V132.245Z" fill="white"/>
<path d="M177.347 142.265H172.336V147.275H177.347V142.265Z" fill="white"/>
<path d="M177.347 147.275H172.336V152.286H177.347V147.275Z" fill="white"/>
<path d="M177.347 157.298H172.336V162.309H177.347V157.298Z" fill="white"/>
<path d="M177.347 172.33H172.336V177.341H177.347V172.33Z" fill="white"/>
<path d="M177.347 182.351H172.336V187.362H177.347V182.351Z" fill="white"/>
<path d="M182.355 57.0825H177.344V62.0933H182.355V57.0825Z" fill="white"/>
<path d="M182.355 67.1035H177.344V72.1143H182.355V67.1035Z" fill="white"/>
<path d="M182.355 82.1357H177.344V87.1465H182.355V82.1357Z" fill="white"/>
<path d="M182.355 92.1582H177.344V97.169H182.355V92.1582Z" fill="white"/>
<path d="M182.355 102.179H177.344V107.189H182.355V102.179Z" fill="white"/>
<path d="M182.355 107.19H177.344V112.201H182.355V107.19Z" fill="white"/>
<path d="M182.355 112.2H177.344V117.211H182.355V112.2Z" fill="white"/>
<path d="M182.355 122.222H177.344V127.233H182.355V122.222Z" fill="white"/>
<path d="M182.355 137.254H177.344V142.265H182.355V137.254Z" fill="white"/>
<path d="M182.355 147.275H177.344V152.286H182.355V147.275Z" fill="white"/>
<path d="M182.355 162.309H177.344V167.32H182.355V162.309Z" fill="white"/>
<path d="M182.355 167.319H177.344V172.33H182.355V167.319Z" fill="white"/>
<path d="M182.355 172.33H177.344V177.341H182.355V172.33Z" fill="white"/>
<path d="M182.355 182.351H177.344V187.362H182.355V182.351Z" fill="white"/>
<path d="M182.355 187.362H177.344V192.373H182.355V187.362Z" fill="white"/>
<path d="M187.37 47.061H182.359V52.0718H187.37V47.061Z" fill="white"/>
<path d="M187.37 52.0713H182.359V57.0821H187.37V52.0713Z" fill="white"/>
<path d="M187.37 57.0825H182.359V62.0933H187.37V57.0825Z" fill="white"/>
<path d="M187.37 62.0938H182.359V67.1045H187.37V62.0938Z" fill="white"/>
<path d="M187.37 72.1143H182.359V77.125H187.37V72.1143Z" fill="white"/>
<path d="M187.37 87.147H182.359V92.1577H187.37V87.147Z" fill="white"/>
<path d="M187.37 92.1582H182.359V97.169H187.37V92.1582Z" fill="white"/>
<path d="M187.37 97.1689H182.359V102.18H187.37V97.1689Z" fill="white"/>
<path d="M187.37 102.179H182.359V107.189H187.37V102.179Z" fill="white"/>
<path d="M187.37 107.19H182.359V112.201H187.37V107.19Z" fill="white"/>
<path d="M187.37 122.222H182.359V127.233H187.37V122.222Z" fill="white"/>
<path d="M187.37 127.233H182.359V132.244H187.37V127.233Z" fill="white"/>
<path d="M187.37 137.254H182.359V142.265H187.37V137.254Z" fill="white"/>
<path d="M187.37 152.287H182.359V157.297H187.37V152.287Z" fill="white"/>
<path d="M187.37 157.298H182.359V162.309H187.37V157.298Z" fill="white"/>
<path d="M187.37 172.33H182.359V177.341H187.37V172.33Z" fill="white"/>
<path d="M187.37 177.34H182.359V182.351H187.37V177.34Z" fill="white"/>
<path d="M187.37 182.351H182.359V187.362H187.37V182.351Z" fill="white"/>
<path d="M187.37 187.362H182.359V192.373H187.37V187.362Z" fill="white"/>
<path d="M192.378 52.0713H187.367V57.0821H192.378V52.0713Z" fill="white"/>
<path d="M192.378 57.0825H187.367V62.0933H192.378V57.0825Z" fill="white"/>
<path d="M192.378 62.0938H187.367V67.1045H192.378V62.0938Z" fill="white"/>
<path d="M192.378 82.1357H187.367V87.1465H192.378V82.1357Z" fill="white"/>
<path d="M192.378 87.147H187.367V92.1577H192.378V87.147Z" fill="white"/>
<path d="M192.378 97.1689H187.367V102.18H192.378V97.1689Z" fill="white"/>
<path d="M192.378 117.211H187.367V122.222H192.378V117.211Z" fill="white"/>
<path d="M192.378 122.222H187.367V127.233H192.378V122.222Z" fill="white"/>
<path d="M192.378 127.233H187.367V132.244H192.378V127.233Z" fill="white"/>
<path d="M192.378 147.275H187.367V152.286H192.378V147.275Z" fill="white"/>
<path d="M192.378 162.309H187.367V167.32H192.378V162.309Z" fill="white"/>
<path d="M192.378 167.319H187.367V172.33H192.378V167.319Z" fill="white"/>
<path d="M192.378 172.33H187.367V177.341H192.378V172.33Z" fill="white"/>
<path d="M192.378 187.362H187.367V192.373H192.378V187.362Z" fill="white"/>
<path fill-rule="evenodd" clip-rule="evenodd" d="M6.97656 6.97461V42.05H42.0519V6.97461H6.97656ZM11.9873 11.9854H37.0411V37.0392H11.9873V11.9854Z" fill="white"/>
<path d="M22.0108 16.9971H17V22.0078H22.0108V16.9971Z" fill="white"/>
<path d="M22.0108 22.0068H17V27.0176H22.0108V22.0068Z" fill="white"/>
<path d="M22.0108 27.0166H17V32.0274H22.0108V27.0166Z" fill="white"/>
<path d="M27.0186 16.9971H22.0078V22.0078H27.0186V16.9971Z" fill="white"/>
<path d="M27.0186 22.0068H22.0078V27.0176H27.0186V22.0068Z" fill="white"/>
<path d="M27.0186 27.0166H22.0078V32.0274H27.0186V27.0166Z" fill="white"/>
<path d="M32.0342 16.9971H27.0234V22.0078H32.0342V16.9971Z" fill="white"/>
<path d="M32.0342 22.0068H27.0234V27.0176H32.0342V22.0068Z" fill="white"/>
<path d="M32.0342 27.0166H27.0234V32.0274H32.0342V27.0166Z" fill="white"/>
<path fill-rule="evenodd" clip-rule="evenodd" d="M192.375 6.97461L157.3 6.97461V42.05H192.375V6.97461ZM187.364 11.9854V37.0392H162.31V11.9854L187.364 11.9854Z" fill="white"/>
<path d="M172.331 16.9971H167.32V22.0078H172.331V16.9971Z" fill="white"/>
<path d="M172.331 22.0068H167.32V27.0176H172.331V22.0068Z" fill="white"/>
<path d="M172.331 27.0166H167.32V32.0274H172.331V27.0166Z" fill="white"/>
<path d="M177.347 16.9971H172.336V22.0078H177.347V16.9971Z" fill="white"/>
<path d="M177.347 22.0068H172.336V27.0176H177.347V22.0068Z" fill="white"/>
<path d="M177.347 27.0166H172.336V32.0274H177.347V27.0166Z" fill="white"/>
<path d="M182.355 16.9971H177.344V22.0078H182.355V16.9971Z" fill="white"/>
<path d="M182.355 22.0068H177.344V27.0176H182.355V22.0068Z" fill="white"/>
<path d="M182.355 27.0166H177.344V32.0274H182.355V27.0166Z" fill="white"/>
<path fill-rule="evenodd" clip-rule="evenodd" d="M6.97656 192.374H42.0519V157.298H6.97656L6.97656 192.374ZM11.9873 187.363L11.9873 162.309H37.0411V187.363H11.9873Z" fill="white"/>
<path d="M22.0108 167.319H17V172.33H22.0108V167.319Z" fill="white"/>
<path d="M22.0108 172.33H17V177.341H22.0108V172.33Z" fill="white"/>
<path d="M22.0108 177.34H17V182.351H22.0108V177.34Z" fill="white"/>
<path d="M27.0186 167.319H22.0078V172.33H27.0186V167.319Z" fill="white"/>
<path d="M27.0186 172.33H22.0078V177.341H27.0186V172.33Z" fill="white"/>
<path d="M27.0186 177.34H22.0078V182.351H27.0186V177.34Z" fill="white"/>
<path d="M32.0342 167.319H27.0234V172.33H32.0342V167.319Z" fill="white"/>
<path d="M32.0342 172.33H27.0234V177.341H32.0342V172.33Z" fill="white"/>
<path d="M32.0342 177.34H27.0234V182.351H32.0342V177.34Z" fill="white"/>
</mask>
<g mask="url(#mask0_2020_3737)">
<path d="M193.622 5.7207H5.71875V193.624H193.622V5.7207Z" fill="black"/>
</g>
</svg>
