<svg width="187" height="207" viewBox="0 0 187 207" fill="none" xmlns="http://www.w3.org/2000/svg">
<path d="M184.472 59.2102L186.009 55.9107C186.009 55.9107 186.009 55.8146 186.009 55.6508C186.009 55.6508 185.822 50.1083 185.579 48.3908C185.399 47.1026 184.845 46.9218 184.574 46.9161C184.193 46.5969 183.767 46.3378 183.308 46.1478C182.058 45.3873 180.76 44.7097 179.421 44.1195C178.093 43.4302 176.963 43.0347 176.489 43.7861C176.287 44.103 176.112 44.4355 175.963 44.7805C175.924 44.8766 175.89 44.967 175.856 45.063V45.1195C175.763 45.396 175.691 45.6794 175.641 45.967L173.72 47.3625L173.155 47.6563L174.285 53.5603L177.619 57.4474C177.619 57.4474 177.619 57.6056 177.551 57.8542C177.133 59.7037 176.268 61.4224 175.031 62.8599C174.561 63.3041 174.118 63.7758 173.703 64.2724C173.557 64.4136 173.415 64.5549 173.257 64.6905C170.845 66.7979 169.918 68.4137 169.517 69.6341V69.7132C167.839 68.1185 166.057 66.6369 164.183 65.2781C163.777 64.9617 160.014 61.6735 157.336 59.1254L155.285 55.7694C155.946 56.9841 154.76 54.7468 154.652 54.5152C153.454 51.8484 152.957 48.9049 151.567 46.3173C149.5 42.3624 144.68 39.3623 139.968 38.7465L142.228 33.6617L140.014 32.7746C140.078 32.8267 140.151 32.8686 140.228 32.8989C140.725 33.0797 141.692 33.43 142.861 33.8029C150.658 36.786 152.839 34.9329 153.031 34.786C153.322 34.6149 153.559 34.3652 153.715 34.0654C153.871 33.7655 153.939 33.4278 153.912 33.091L153.234 23.2547C153.225 23.1332 153.242 23.0112 153.283 22.8965C153.324 22.7817 153.388 22.6767 153.471 22.588L155.166 20.7179C155.305 20.5654 155.387 20.3703 155.399 20.1649C155.411 19.9594 155.353 19.7559 155.234 19.588L152.923 16.3393C152.794 16.1614 152.736 15.942 152.76 15.7235L153.019 13.2828C153.042 13.1074 153.008 12.9295 152.923 12.7743L149.754 6.65552C150.377 6.33881 150.914 5.87542 151.319 5.30521C153.053 2.4803 153.014 0.734504 151.799 0.0734746C150.584 -0.587555 148.262 3.46337 142.42 2.18651C139.494 1.58763 133.335 7.35045 131.076 11.9042L133.477 6.37303C131.053 9.57083 129.703 10.5482 130.205 12.0228C130.155 12.0567 130.064 12.1132 129.951 12.198C127.866 13.8534 127.691 15.5144 127.691 15.5144C127.126 17.4919 127.906 20.4524 131.245 24.3169L125.33 32.2266C124.88 31.9315 124.371 31.7386 123.838 31.6616C121.414 31.2661 117.878 32.5204 116.804 32.9328C116.194 32.7746 115.606 32.6334 115.047 32.5148C113.412 31.9446 111.694 31.6469 109.962 31.6334C108.162 31.4477 106.344 31.5411 104.572 31.9102C103.551 32.1909 102.555 32.5556 101.595 33.0006C100.716 33.3414 99.8727 33.7651 99.0749 34.2662C98.2392 34.7221 97.4384 35.2396 96.6794 35.8142C94.3592 37.4484 92.269 39.3867 90.4646 41.5771L88.6115 43.7861C87.9335 44.498 87.2611 45.2137 86.5945 45.9331C83.5825 49.0156 80.36 51.885 76.9502 54.5208C73.669 56.524 70.1501 58.1088 66.4755 59.2384C63.933 60.052 61.272 60.7526 58.6165 61.3853C55.7916 61.9955 52.9102 62.5153 50.0345 63.0803C48.5655 63.3289 47.0683 63.6453 45.6163 63.9956C44.04 64.3402 42.4694 64.7131 40.91 65.1255C39.0528 65.527 37.2327 66.0846 35.4692 66.7922C34.9607 66.973 34.4523 67.1651 33.9494 67.3572C34.2997 67.4307 34.6444 67.5154 34.9833 67.6171C36.9634 68.4381 38.7782 69.6116 40.3394 71.0804C42.102 73.2118 43.1827 75.8241 43.4411 78.5778C43.3959 81.0072 42.588 83.7812 41.9665 86.4875C41.0964 89.3859 40.3902 91.9057 41.5258 94.1204C41.7862 94.8002 42.1692 95.4265 42.6558 95.9679C43.3191 96.77 44.0911 97.4755 44.9496 98.064C46.5259 99.2956 48.3395 100.505 49.7407 101.94C50.7722 103.556 51.6643 105.257 52.4074 107.025C52.7798 108.24 53.2601 109.42 53.8424 110.55C54.091 111.115 54.3509 111.68 54.6447 112.217C54.7964 112.529 54.974 112.827 55.1758 113.109C56.9186 115.808 59.3354 118.004 62.1872 119.482C64.7517 121.102 67.6806 122.054 70.7072 122.251C70.5084 123.269 70.3632 124.297 70.2721 125.33C68.2521 125.895 66.2889 126.646 64.4076 127.573C60.82 129.07 56.4075 131.223 53.5995 133.72C51.3843 135.709 49.5017 138.04 48.0231 140.624C46.293 143.574 44.9288 146.723 43.9609 150.003C43.5315 151.297 43.1417 152.579 42.7631 153.822L42.7293 153.743C42.7293 153.89 42.6784 154.037 42.6558 154.184C42.1925 155.726 41.7462 157.212 41.2829 158.591C39.4411 162.845 36.3901 167.065 34.8986 169.291C34.1189 170.291 33.3053 171.269 32.4692 172.235C30.6612 174.229 28.3731 176.568 26.616 178.63C26.0516 179.238 25.5341 179.888 25.0679 180.574C24.6912 181.074 24.3674 181.612 24.1018 182.179C22.7628 185.297 25.7176 187.467 27.8024 190.128C27.8024 190.128 27.8363 190.184 27.8589 190.213C28.5292 191.602 28.9536 193.097 29.1132 194.631C29.0572 196.018 29.1845 197.407 29.4917 198.761C29.8462 199.832 30.4549 200.801 31.2658 201.586C32.2819 202.742 33.5042 203.7 34.8703 204.411C35.5452 204.82 36.2496 205.179 36.9777 205.484C39.0908 206.326 46.0683 206.275 47.6276 203.569C47.7232 203.402 47.8099 203.23 47.8875 203.055C48.0829 202.725 48.1972 202.353 48.2209 201.97C48.2924 201.449 48.2339 200.918 48.0506 200.425C47.8672 199.932 47.5647 199.493 47.17 199.145C47.1248 199.201 47.3621 199.348 47.3169 199.411C44.8423 195.716 38.2037 191.433 38.2772 187.676C38.3845 180.529 42.7123 175.591 47.6502 170.964C52.4526 166.444 58.3228 165.687 62.7861 160.93C65.6675 157.862 68.8201 154.715 70.775 148.308C82.408 144.76 85.3007 135.189 85.3007 135.189C86.4984 134.703 87.4815 134.234 88.5889 133.743C91.7754 138.562 94.0579 141.737 94.3912 141.528L120.019 124.29C120.584 124.963 125.669 130.957 130.567 132.556L130.708 132.607L135.855 135.189C134.974 138.319 130.635 139.217 130.635 139.217V139.268L130.245 139.347C129.33 139.313 124.217 139.347 119.798 144.133C117.702 146.167 114.94 149.856 112.883 152.732C111.188 155.093 110.024 156.805 110.024 156.805C109.256 156.988 108.501 157.222 107.764 157.506C103.002 159.229 102.589 161.269 102.86 162.444C102.865 162.633 102.886 162.822 102.922 163.009C103.103 163.655 103.461 164.239 103.956 164.692C104.449 165.27 105.006 165.79 105.617 166.24C106.499 167.02 107.252 167.933 107.849 168.947C108.425 170.479 108.876 172.054 109.199 173.659C109.928 176.772 113.589 183.693 118.68 183.992C119.901 184.103 121.133 184.012 122.324 183.721C123.16 183.563 123.979 183.28 124.064 182.591C124.092 182.535 124.115 182.476 124.132 182.416C124.132 182.416 124.098 182.365 124.047 182.269C124.016 182.101 123.963 181.937 123.889 181.783C123.201 180.484 122.427 179.233 121.573 178.037C120.176 175.352 119.199 172.47 118.674 169.489C118.646 169.297 118.623 169.11 118.601 168.924C118.499 168.06 118.363 167.099 118.301 166.133C118.301 166.031 118.301 165.93 118.301 165.834C118.225 164.371 118.508 162.913 119.126 161.585C120.092 160.026 121.866 159.184 123.612 158.76C124.838 158.466 126.364 158.054 128.059 157.551C130.152 157.039 132.203 156.368 134.194 155.545C141.019 153.093 148.098 149.766 149.364 146.506C151.37 141.347 155.313 135.771 155.313 135.771C153.341 122.884 143.505 108.51 143.505 108.51L170.003 90.578C170.24 90.4311 169.291 88.5666 167.59 85.6287L168.054 86.3632C169.794 87.3576 172.963 87.8039 174.833 87.9904L175.246 88.0299C175.538 88.0638 175.833 88.0752 176.127 88.0638C178.15 86.2785 179.952 82.8999 181.161 79.5891C182.81 75.6782 183.882 71.5483 184.342 67.329C184.639 65.3377 184.713 63.3195 184.562 61.3119C184.568 60.6226 184.534 59.922 184.472 59.2102ZM130.584 25.4807C130.799 25.1304 131.002 24.8084 131.183 24.509L131.245 24.3621C131.85 23.3677 132.205 22.718 132.205 22.718L131.979 22.6671L132.053 22.4976L132.205 22.718C131.77 23.6968 131.226 24.6235 130.584 25.4807Z" fill="white"/>
<path d="M172.445 65.8205C172.445 65.8205 174.536 72.7528 183.412 70.8149C183.412 70.8149 185.237 66.295 184.27 59.4136L185.892 55.922C185.892 55.922 185.412 50.4586 185.491 49.645C185.57 48.8314 185.587 47.1365 183.033 46.0913C180.479 45.0461 177.253 42.3681 176.355 43.7975C175.457 45.2269 175.57 45.9161 175.57 45.9161L173.31 47.5772L174.157 53.566L177.496 57.4587C177.496 57.4587 177.056 60.9955 175.276 62.5436C174.178 63.4929 173.225 64.5967 172.445 65.8205Z" fill="#533097"/>
<path opacity="0.2" d="M181.352 71.2213C181.352 71.2213 183.476 62.0065 182.086 56.5883C182.086 56.5883 185.199 53.7069 184.306 46.9215C184.306 46.9215 185.216 46.6672 185.436 48.3848C185.657 50.1023 185.871 55.6504 185.871 55.6504L184.357 59.142C184.357 59.142 184.244 67.1083 183.747 70.2609C183.741 70.2609 183.611 70.9558 181.352 71.2213Z" fill="black"/>
<path d="M139.443 40.3457L168.043 82.1544C168.043 82.1544 169.738 83.8889 173.856 84.6686C173.856 84.6686 179.947 77.8888 181.337 71.2276L183.597 70.7756C183.597 70.7756 180.975 83.9284 176.252 88.1319C176.252 88.1319 170.551 87.8438 168.009 86.3805L139.234 40.8485L139.443 40.3457Z" fill="#533097"/>
<path opacity="0.6" d="M139.443 40.3457L168.043 82.1544C168.043 82.1544 169.738 83.8889 173.856 84.6686C173.856 84.6686 179.947 77.8888 181.337 71.2276L183.597 70.7756C183.597 70.7756 180.975 83.9284 176.252 88.1319C176.252 88.1319 170.551 87.8438 168.009 86.3805L139.234 40.8485L139.443 40.3457Z" fill="white"/>
<path d="M139.961 38.8877C142.343 39.0521 144.644 39.8198 146.647 41.1185C148.651 42.4173 150.291 44.2043 151.413 46.3116C152.769 48.8992 153.295 51.8427 154.498 54.5094C156.487 58.922 160.204 62.3062 164.029 65.278C166.436 67.1424 168.961 68.9334 170.809 71.3572C171.748 72.58 172.437 73.9757 172.837 75.4646" stroke="#263238" stroke-width="0.564982" stroke-linecap="round" stroke-linejoin="round"/>
<path d="M169.364 69.6287C169.771 68.4084 170.692 66.8038 173.104 64.6908C177.15 61.1596 177.472 57.4477 177.472 57.4477L174.133 53.555L173.003 47.6566L175.443 46.4023C175.443 46.4023 175.585 44.2667 176.799 43.6113C178.014 42.9559 183.749 46.3684 185.009 47.3402C185.822 47.973 185.336 51.0578 185.879 55.6511C185.003 57.6341 184.365 59.1426 184.365 59.1426C185.828 76.578 176.217 88.1262 176.217 88.1262C173.394 87.9732 170.611 87.3823 167.969 86.3748" stroke="#263238" stroke-width="0.564982" stroke-linecap="round" stroke-linejoin="round"/>
<path d="M176.062 48.4189L177.825 50.0009C178.076 50.2421 178.351 50.4579 178.644 50.645C179.082 50.984 179.603 51.1987 180.153 51.2665C180.611 51.2884 181.068 51.2173 181.498 51.0574C181.887 50.8879 182.746 49.3625 182.859 48.9783" stroke="#263238" stroke-width="0.564982" stroke-linecap="round" stroke-linejoin="round"/>
<path d="M172.359 65.4189C172.359 65.4189 174.173 73.1762 183.766 70.6394" stroke="#263238" stroke-width="0.564982" stroke-linecap="round" stroke-linejoin="round"/>
<path d="M179.571 44.3115C179.088 44.4975 178.652 44.7871 178.292 45.16C177.933 45.5328 177.66 45.9799 177.492 46.4698C177.262 46.9587 177.138 47.4903 177.126 48.0304C177.114 48.5705 177.216 49.107 177.424 49.6054" stroke="#263238" stroke-width="0.564982" stroke-linecap="round" stroke-linejoin="round"/>
<path d="M182.243 45.6172C181.64 45.7999 181.084 46.1133 180.615 46.5352C180.146 46.957 179.776 47.4769 179.531 48.0579C179.125 48.9727 179.039 49.998 179.288 50.9676" stroke="#263238" stroke-width="0.564982" stroke-linecap="round" stroke-linejoin="round"/>
<path d="M178.914 50.8262C179.539 51.1661 180.11 51.5963 180.609 52.103C181.649 53.2612 181.846 54.9279 181.999 56.4647" stroke="#263238" stroke-width="0.564982" stroke-linecap="round" stroke-linejoin="round"/>
<path d="M175.438 46.4018C175.438 46.4018 177.274 45.2718 177.584 45.882" stroke="#263238" stroke-width="0.564982" stroke-linecap="round" stroke-linejoin="round"/>
<path d="M55.2599 165.997C55.2599 165.997 44.4518 163.2 42.8755 153.861C41.3915 158.403 39.2847 162.718 36.6155 166.681C32.395 172.754 24.0277 179.721 23.9938 182.156C23.9599 184.591 24.4627 186.082 26.6548 188.128C28.847 190.173 29.0842 195.574 29.169 196.845C29.3357 198.171 29.7807 199.447 30.4749 200.589C31.1692 201.731 32.0969 202.714 33.1973 203.472C36.3386 205.732 41.4065 206.665 45.1354 205.133C48.8643 203.602 48.5874 200.744 47.3388 199.348C46.0902 197.953 38.5759 191.06 38.2991 188.726C38.0223 186.393 38.8302 181.642 41.3218 177.867C43.8133 174.093 49.9434 168.314 55.2599 165.997Z" fill="#533097"/>
<path d="M142.201 33.7695C142.201 33.7695 139.89 37.5493 139.195 40.8431" stroke="#263238" stroke-width="0.564982" stroke-linecap="round" stroke-linejoin="round"/>
<path d="M144.386 8.31641C145.2 10.6385 145.849 13.1979 145.047 15.5199C144.555 16.9493 143.555 18.1527 143.047 19.5709C142.482 21.1133 142.555 22.8082 142.623 24.4466C142.719 26.6614 142.872 29.0343 144.239 30.7744C146.233 33.3169 149.934 33.5146 152.917 34.7689C152.917 34.7689 150.911 36.9441 142.685 33.7858L139.86 32.7632L138.363 39.6108C138.363 39.6108 137.482 38.1305 136.103 38.3565C134.725 38.5825 131.064 41.3114 131.064 41.3114C131.064 41.3114 128.962 39.2322 128.493 37.8311C128.024 36.4299 126.742 33.0739 125.25 32.2999C125.25 32.2999 131.465 24.7743 132.154 22.7347C132.154 22.7347 128.629 18.0906 132.674 16.2657C136.719 14.4408 138.94 19.0906 138.94 19.0906L137.516 13.0623L142.94 8.4746L144.386 8.31641Z" fill="#533097"/>
<path opacity="0.6" d="M144.386 8.31641C145.2 10.6385 145.849 13.1979 145.047 15.5199C144.555 16.9493 143.555 18.1527 143.047 19.5709C142.482 21.1133 142.555 22.8082 142.623 24.4466C142.719 26.6614 142.872 29.0343 144.239 30.7744C146.233 33.3169 149.934 33.5146 152.917 34.7689C152.917 34.7689 150.911 36.9441 142.685 33.7858L139.86 32.7632L138.363 39.6108C138.363 39.6108 137.482 38.1305 136.103 38.3565C134.725 38.5825 131.064 41.3114 131.064 41.3114C131.064 41.3114 128.962 39.2322 128.493 37.8311C128.024 36.4299 126.742 33.0739 125.25 32.2999C125.25 32.2999 131.465 24.7743 132.154 22.7347C132.154 22.7347 128.629 18.0906 132.674 16.2657C136.719 14.4408 138.94 19.0906 138.94 19.0906L137.516 13.0623L142.94 8.4746L144.386 8.31641Z" fill="white"/>
<path d="M149.49 6.38965L152.812 12.8078C152.894 12.9618 152.928 13.1372 152.908 13.3107L152.648 15.7571C152.625 15.9729 152.682 16.1896 152.806 16.3672L155.123 19.6215C155.243 19.7893 155.301 19.9936 155.288 20.1997C155.275 20.4057 155.19 20.6007 155.049 20.7515L153.354 22.6159C153.273 22.7058 153.211 22.8112 153.171 22.9257C153.131 23.0403 153.115 23.1616 153.123 23.2826L153.801 33.119C153.827 33.4988 153.732 33.8773 153.529 34.1994C153.326 34.5214 153.025 34.7703 152.671 34.9099C151.853 35.1872 150.997 35.3303 150.134 35.3337C147.179 35.4354 141.586 33.4466 140.117 32.9043C140.002 32.8629 139.898 32.7984 139.809 32.7148C139.721 32.6312 139.65 32.5303 139.603 32.4184L137.156 26.633" stroke="#263238" stroke-width="0.564982" stroke-linecap="round" stroke-linejoin="round"/>
<path d="M136.873 19.2319C136.873 19.2319 135.178 15.4352 133.726 15.842C132.274 16.2488 130.539 17.537 130.579 19.2658C130.618 20.9947 133.274 24.0004 134.404 24.2659C135.238 24.4021 136.092 24.3362 136.895 24.0738" stroke="#263238" stroke-width="0.564982" stroke-linecap="round" stroke-linejoin="round"/>
<path d="M150.384 16.469C150.384 17.0339 150.152 17.4859 149.881 17.4803C149.61 17.4746 149.395 17.017 149.407 16.4577C149.418 15.8983 149.638 15.4407 149.91 15.4463C150.181 15.452 150.395 15.9096 150.384 16.469Z" fill="#263238"/>
<path d="M148.352 23.1865C148.355 23.7862 148.564 24.3665 148.944 24.8311C149.323 25.2956 149.85 25.6164 150.436 25.7402" stroke="#263238" stroke-width="0.564982" stroke-linecap="round" stroke-linejoin="round"/>
<path d="M150.516 12.9153C150.516 12.9153 147.99 10.7175 146.516 14.7628" stroke="#263238" stroke-width="1.12996" stroke-linecap="round" stroke-linejoin="round"/>
<path d="M131.674 22.6387L132.115 22.7347C132.115 22.7347 128.674 28.9891 125.211 32.2999" stroke="#263238" stroke-width="0.564982" stroke-linecap="round" stroke-linejoin="round"/>
<path d="M132.926 23.4463C132.926 23.4463 131.514 34.2374 133.491 39.2093" stroke="#263238" stroke-width="0.564982" stroke-linecap="round" stroke-linejoin="round"/>
<path d="M130.421 12.8753C130.421 12.8753 128.094 8.31026 131.359 4.01074" stroke="#263238" stroke-width="0.564982" stroke-linecap="round" stroke-linejoin="round"/>
<path d="M131.32 12.0911C126.885 11.8481 125.562 17.1759 125.562 17.1759" stroke="#263238" stroke-width="0.564982" stroke-linecap="round" stroke-linejoin="round"/>
<path d="M151.682 0.106808C150.485 -0.559871 148.146 3.4967 142.304 2.21984C138.58 1.41757 129.631 3.87524 130.151 12.0223C130.151 12.0223 123.32 15.9772 131.089 24.5253L132.089 22.2033C132.089 22.2033 128.851 18.7343 131.648 16.9772C134.123 15.4291 134.439 15.6156 136.795 19.3614C136.795 19.3614 137.586 20.9998 139.123 20.5366C140.66 20.0733 140.592 19.4348 139.97 17.8924C139.739 17.3275 139.354 16.367 139.038 15.3161C140.439 14.915 143.807 13.4686 143.761 8.82448V8.75669C146.739 7.93181 150.174 6.96004 151.202 5.31029C152.937 2.54188 152.88 0.767838 151.682 0.106808Z" fill="#263238"/>
<path d="M131.737 11.8083C131.308 9.27152 133.054 6.75735 135.308 5.52568C137.562 4.29402 140.229 4.09063 142.8 4.04543C144.438 4.09583 146.077 3.96317 147.687 3.64994C148.25 3.52086 148.797 3.33144 149.319 3.08496" stroke="white" stroke-width="0.282491" stroke-linecap="round" stroke-linejoin="round"/>
<path d="M133 13.1752C133.174 12.1966 133.642 11.2941 134.341 10.5877C135.041 9.88133 135.939 9.40441 136.915 9.22031C137.938 9.05082 139 9.22031 140.017 9.00562C141.034 8.79093 142.074 8.01125 142.028 6.97168" stroke="white" stroke-width="0.282491" stroke-linecap="round" stroke-linejoin="round"/>
<path d="M107.303 58.0238L134.354 38.7635C134.666 38.5414 135.021 38.3865 135.396 38.3086C135.771 38.2308 136.158 38.2318 136.532 38.3115C136.907 38.3912 137.261 38.5478 137.571 38.7715C137.882 38.9953 138.143 39.2811 138.337 39.611C138.337 39.611 171.18 89.7871 169.909 90.5781L94.2632 141.466C92.9694 142.28 62.805 92.7419 62.805 92.7419C62.4304 92.143 62.2984 91.4237 62.4359 90.7308C62.5734 90.0379 62.9702 89.4235 63.5451 89.0131L77.8731 78.6343" stroke="#263238" stroke-width="0.564982" stroke-linecap="round" stroke-linejoin="round"/>
<path d="M127.079 119.155C128.424 122.427 131.367 124.726 134.283 126.726C137.198 128.726 140.294 130.681 142.232 133.63C144.17 136.579 144.565 140.907 142.096 143.433C141.876 143.705 141.593 143.921 141.271 144.059C140.949 144.198 140.598 144.256 140.249 144.229C138.644 143.913 138.927 141.291 137.622 140.308C135.65 143.099 131.576 144.173 129.294 144.495L130.508 139.161C130.508 139.161 133.497 138.828 135.735 135.63C135.735 135.63 135.644 134.195 130.441 132.5C125.237 130.805 119.836 124.167 119.836 124.167L127.079 119.155Z" fill="#533097"/>
<path opacity="0.6" d="M127.079 119.155C128.424 122.427 131.367 124.726 134.283 126.726C137.198 128.726 140.294 130.681 142.232 133.63C144.17 136.579 144.565 140.907 142.096 143.433C141.876 143.705 141.593 143.921 141.271 144.059C140.949 144.198 140.598 144.256 140.249 144.229C138.644 143.913 138.927 141.291 137.622 140.308C135.65 143.099 131.576 144.173 129.294 144.495L130.508 139.161C130.508 139.161 133.497 138.828 135.735 135.63C135.735 135.63 135.644 134.195 130.441 132.5C125.237 130.805 119.836 124.167 119.836 124.167L127.079 119.155Z" fill="white"/>
<path d="M135.644 154.777C135.644 154.777 127.31 150.438 130.248 139.297C130.248 139.297 124.531 138.783 119.66 144.077C114.79 149.37 109.886 156.749 109.886 156.749C109.886 156.749 102.677 158.93 102.751 161.698C102.824 164.467 104.903 165.721 106.327 166.851C107.751 167.981 108.372 170.535 109.101 173.631C109.83 176.727 113.491 183.665 118.581 183.964C123.672 184.264 124.028 182.388 124.028 182.388C124.028 182.388 122.949 180.484 121.548 178.139C120.146 175.795 118.237 170.23 118.192 165.794C118.146 161.359 119.949 159.399 123.062 158.67C126.175 157.941 131.847 156.823 135.644 154.777Z" fill="#533097"/>
<path d="M120.132 124.358C119.256 123.477 125.273 130.697 131.607 132.918C137.822 135.104 137.822 138.206 137.822 138.206" stroke="#263238" stroke-width="0.564982" stroke-linecap="round" stroke-linejoin="round"/>
<path d="M143.411 108.511C143.411 108.511 153.225 122.873 155.203 135.76C155.203 135.76 151.248 141.342 149.248 146.495C147.248 151.647 130.507 157.043 123.501 158.743C121.603 159.201 119.66 160.144 118.773 161.981C117.784 164.026 118.247 166.738 118.496 168.907C118.735 171.303 119.331 173.649 120.264 175.868C121.202 177.987 122.806 179.698 123.79 181.766C124.592 183.461 122.524 183.687 121.258 183.857C113.479 184.913 109.603 176.416 108.671 171.472C107.738 166.529 103.275 165.359 102.789 162.947C101.891 158.495 109.885 156.732 109.885 156.732C109.733 157.054 115.823 147.783 119.66 144.059C121.14 142.613 122.744 141.201 124.744 140.432C126.744 139.664 129.033 139.585 131.157 139.048C133.281 138.511 135.451 137.24 135.886 135.229" stroke="#263238" stroke-width="0.564982" stroke-linecap="round" stroke-linejoin="round"/>
<path d="M130.356 139.364C130.356 139.364 126.356 149.494 135.888 154.839" stroke="#263238" stroke-width="0.564982" stroke-linecap="round" stroke-linejoin="round"/>
<path d="M122.758 122.494C125.727 126.154 129.595 128.981 133.984 130.698" stroke="#263238" stroke-width="0.564982" stroke-linecap="round" stroke-linejoin="round"/>
<path d="M131.583 141.054C129.724 141.171 127.89 141.551 126.137 142.184C124.376 142.824 122.816 143.919 121.617 145.359" stroke="#263238" stroke-width="0.564982" stroke-linecap="round" stroke-linejoin="round"/>
<path opacity="0.2" d="M129.469 144.709C126.042 145.988 122.726 147.547 119.554 149.37C116.376 151.201 113.66 153.737 111.616 156.783C111.39 157.177 111.123 157.546 110.819 157.884C110.068 158.636 108.961 158.862 107.966 159.24C105.774 160.076 103.119 163.551 103.164 163.331C103.164 163.331 99.9095 159.376 109.881 156.726C109.881 156.726 115 149.251 118.435 145.472C121.87 141.692 123.808 139.946 130.068 139.308L129.469 144.709Z" fill="black"/>
<path d="M129.941 41.9218L130.63 41.306C129.71 39.9894 128.89 38.605 128.178 37.1646C127.433 35.4697 126.625 32.1533 123.738 31.6843C120.85 31.2154 116.393 33.0855 116.393 33.0855C116.393 33.0855 110.014 30.6786 104.489 31.9555C104.489 31.9555 96.8387 33.8143 90.364 41.6224C83.8893 49.4304 78.7932 55.278 66.3805 59.2555C53.9679 63.2329 38.8603 64.5776 34.25 67.4081C34.25 67.4081 42.849 70.3291 43.3801 77.397C43.9112 84.465 39.2331 89.8944 41.4309 94.1657C43.6287 98.437 47.7022 99.3409 49.4989 101.77C51.2955 104.2 53.5215 110.019 54.5555 112.296C55.5894 114.573 62.2562 121.522 70.6179 122.319C70.6179 122.319 72.262 114.748 74.3581 111.584L62.8211 92.7307C62.8211 92.7307 61.4539 90.6233 63.7421 88.7758C66.0303 86.9283 77.8666 78.6456 77.8666 78.6456C77.8666 78.6456 75.9287 75.058 75.5502 72.1596C75.2731 70.3572 74.4022 68.6989 73.0756 67.4477C73.0756 67.4477 74.4146 63.3177 77.5559 60.8939C80.6972 58.4701 86.6408 52.7751 89.2397 49.0745C91.8386 45.3738 97.6467 34.5205 108.325 33.2041C110.436 33.9322 112.386 35.0644 114.065 36.5375C116.992 39.0404 122.647 43.3625 129.941 41.9218Z" fill="#533097"/>
<path opacity="0.2" d="M70.6179 122.318C70.6179 122.318 63.4991 122.318 57.4369 115.697C51.3746 109.075 52.917 105.747 50.1938 102.566C47.4706 99.3856 42.6004 97.4025 41.4309 94.1539C40.2614 90.9052 42.9394 82.922 43.3293 80.1366C43.7191 77.3513 41.9168 69.3229 34.25 67.3963C34.25 67.3963 43.2219 64.0968 51.03 62.9329C58.838 61.7691 69.81 58.8029 74.8553 55.8537C79.9006 52.9045 88.4657 44.0964 90.1098 42.1981C91.7539 40.2998 97.8388 33.8194 102.539 32.729C106.325 31.8533 108.364 33.2036 108.364 33.2036C108.364 33.2036 99.3247 35.1245 94.511 41.1585C90.6409 45.9835 89.8556 49.7293 84.6634 54.6503C79.4712 59.5713 74.8948 61.9047 73.0756 66.9895C73.0756 66.9895 74.9683 69.7466 75.2508 71.4698C75.5333 73.193 77.9062 78.6451 77.9062 78.6451L63.5782 89.0238C63.5782 89.0238 61.3183 90.295 62.9116 93.1086C64.5048 95.9222 74.4202 111.753 74.4202 111.753C74.4202 111.753 70.4371 119.539 70.6179 122.318Z" fill="black"/>
<path opacity="0.38" d="M116.948 33.0179C116.948 33.0179 122.886 31.0066 124.773 32.1365C126.66 33.2665 130.637 41.6395 130.637 41.6395L129.569 42.5265C129.569 42.5265 121.27 41.7525 118.298 39.5999C115.326 37.4474 111.518 32.8879 104.688 32.3851C104.699 32.3851 108.529 30.7919 116.948 33.0179Z" fill="white"/>
<path d="M103.841 32.3281C96.366 34.492 94.0609 38.1983 90.0721 42.1871C87.1455 45.1137 84.4731 48.2945 81.4392 51.1081C68.7892 62.8259 49.9019 61.1196 33.8281 67.3796C36.1823 67.7938 38.3497 68.929 40.0308 70.6283C41.7119 72.3276 42.8237 74.5072 43.2125 76.8657C44.1052 82.0635 39.6248 89.6682 41.6644 94.5327C42.9978 97.7135 46.8284 98.9452 49.2182 101.437C52.0432 104.358 52.6081 108.719 54.5347 112.273C57.7438 118.126 63.9304 121.239 70.5972 122.307" stroke="#263238" stroke-width="0.564982" stroke-linecap="round" stroke-linejoin="round"/>
<path d="M74.0937 68.9395C73.184 69.866 72.3648 70.8773 71.4721 71.8152C66.9805 76.5159 60.777 79.1204 54.7656 81.6064" stroke="#263238" stroke-width="0.564982" stroke-linecap="round" stroke-linejoin="round"/>
<path d="M75.6573 73.165C72.3014 77.1199 67.6177 79.0126 63.0695 81.5211C58.5214 84.0296 53.9225 87.2557 52.1484 92.1371" stroke="#263238" stroke-width="0.564982" stroke-linecap="round" stroke-linejoin="round"/>
<path d="M119.457 35.5945C113.683 28.9503 102.508 32.7187 102.508 32.7187C106.779 32.1538 110.016 32.7187 116.333 38.0239C121.265 42.1652 127.169 42.363 129.452 42.233" stroke="#263238" stroke-width="0.564982" stroke-linecap="round" stroke-linejoin="round"/>
<path d="M116.273 33.1308C118.131 32.5954 120.018 32.1635 121.923 31.837C122.436 31.7309 122.96 31.6948 123.483 31.7296C124.035 31.8228 124.563 32.0264 125.035 32.3283C125.506 32.6302 125.912 33.0242 126.228 33.4867C126.854 34.414 127.384 35.4021 127.81 36.436C128.62 38.1318 129.578 39.7521 130.675 41.2778" stroke="#263238" stroke-width="0.564982" stroke-linecap="round" stroke-linejoin="round"/>
<path d="M79.9179 120.805C79.9179 120.805 73.2793 126.195 71.4431 135.093C70.8405 134.453 70.4184 133.665 70.2199 132.808C70.0214 131.952 70.0536 131.058 70.3132 130.218C70.3132 130.218 51.6688 138.161 44.4088 158.371L42.8438 153.851C42.8438 153.851 45.3523 139.625 54.3694 133.297C63.4882 126.89 70.138 125.387 70.138 125.387C70.138 125.387 71.268 115.539 74.3867 112.02L79.9179 120.805Z" fill="#533097"/>
<path opacity="0.6" d="M79.9179 120.828C79.9179 120.828 73.2793 126.195 71.4431 135.093C70.8405 134.453 70.4184 133.665 70.2199 132.808C70.0214 131.951 70.0536 131.058 70.3132 130.218C70.3132 130.218 51.6688 138.161 44.4088 158.371L42.8438 153.851C42.8438 153.851 45.3523 139.624 54.3694 133.297C63.4882 126.89 70.138 125.387 70.138 125.387C70.138 125.387 71.268 115.669 74.3867 112.149L79.9179 120.828Z" fill="white"/>
<path d="M88.485 133.669C87.355 134.166 86.3776 134.64 85.1742 135.126C85.1742 135.126 82.2815 144.697 70.6485 148.251C68.6936 154.646 65.5636 157.805 62.6596 160.872C58.1963 165.624 52.3261 166.409 47.5237 170.901C42.5801 175.528 38.258 180.466 38.1507 187.613C38.0603 193.308 53.377 200.224 46.2017 204.438C39.0264 208.653 29.5573 202.885 29.2522 197.376C28.9471 191.867 28.0319 189.817 25.2973 186.833C22.269 183.506 24.5629 180.619 27.2239 177.822C32.7043 172.031 37.3936 166.822 40.8231 159.545C43.5011 152.07 45.213 141.03 53.4504 133.719C58.8403 128.934 70.1569 125.375 70.1569 125.375C70.1569 125.375 70.6711 118.03 74.3887 111.753" stroke="#263238" stroke-width="0.564982" stroke-linecap="round" stroke-linejoin="round"/>
<path d="M42.7812 153.393C42.979 152.828 44.4762 164.63 55.612 165.732" stroke="#263238" stroke-width="0.564982" stroke-linecap="round" stroke-linejoin="round"/>
<path d="M62.0987 130.641C57.5672 132.71 53.8271 136.191 51.4375 140.562" stroke="#263238" stroke-width="0.564982" stroke-linecap="round" stroke-linejoin="round"/>
<path d="M67.0645 128.94C65.7702 129.233 64.5023 129.632 63.2734 130.133" stroke="#263238" stroke-width="0.564982" stroke-linecap="round" stroke-linejoin="round"/>
<path d="M32.5938 200.286C33.6646 201.873 35.1868 203.102 36.9636 203.814C38.7403 204.526 40.6898 204.688 42.56 204.281" stroke="#263238" stroke-width="0.564982" stroke-linecap="round" stroke-linejoin="round"/>
<path opacity="0.2" d="M44.5165 157.839C42.5956 163.201 39.878 168.009 35.6632 171.84C33.8779 173.467 31.9118 174.913 30.3016 176.721C28.6914 178.529 27.4258 180.795 27.4258 183.213C27.4954 184.606 27.7715 185.98 28.245 187.292C28.9004 189.405 29.552 191.514 30.1999 193.62C30.5823 195.112 31.1778 196.541 31.9683 197.863C32.8335 199.105 33.9571 200.146 35.2621 200.914C37.0734 202.099 39.1938 202.724 41.3583 202.71C43.5052 202.631 46.0928 200.931 47.3358 199.174C47.3358 199.174 49.0646 200.812 47.5053 203.518C45.9459 206.225 38.974 206.275 36.861 205.434C34.748 204.592 30.2394 201.795 29.375 198.744C28.5106 195.693 29.7648 192.778 27.68 190.117C25.5953 187.456 22.646 185.281 23.9851 182.162C25.3241 179.043 32.7084 172.376 34.7819 169.275C36.8553 166.173 41.9232 159.28 42.6125 153.721L44.5165 157.839Z" fill="black"/>
<path d="M126.75 81.8037L168.57 87.7982L169.61 90.4366L126.863 82.9845L126.75 81.8037Z" fill="#533097"/>
<path opacity="0.6" d="M126.75 81.8037L168.57 87.7982L169.61 90.4366L126.863 82.9845L126.75 81.8037Z" fill="white"/>
<path d="M105.056 98.6631L91.875 138.415L94.231 141.297L105.593 99.7817L105.056 98.6631Z" fill="#533097"/>
<path opacity="0.6" d="M105.056 98.6631L91.875 138.415L94.231 141.297L105.593 99.7817L105.056 98.6631Z" fill="white"/>
<path d="M136.939 38.543L123.346 104.324L62.8024 92.7417L62.5312 91.7248L121.465 101.301L136.939 38.543Z" fill="#533097"/>
<path opacity="0.6" d="M136.939 38.543L123.346 104.324L62.8024 92.7417L62.5312 91.7248L121.465 101.301L136.939 38.543Z" fill="white"/>
<path d="M136.342 65.3701C140.645 63.4812 142.602 58.4619 140.713 54.159C138.824 49.8561 133.805 47.8992 129.502 49.788C125.199 51.6768 123.242 56.6962 125.131 60.999C127.02 65.3019 132.039 67.2589 136.342 65.3701Z" fill="#533097"/>
<path d="M134.156 49.0004L136.693 38.4521" stroke="#263238" stroke-width="0.564982" stroke-linecap="round" stroke-linejoin="round"/>
<path d="M94.1953 141.189L106.111 98.6455" stroke="#263238" stroke-width="0.564982" stroke-linecap="round" stroke-linejoin="round"/>
<path d="M125.945 82.9395L169.771 90.3746" stroke="#263238" stroke-width="0.564982" stroke-linecap="round" stroke-linejoin="round"/>
<path d="M98.4688 74.9051L119.56 59.7354" stroke="#263238" stroke-width="0.564982" stroke-linecap="round" stroke-linejoin="round"/>
<path d="M99.5938 78.0182L121.176 62.4756" stroke="#263238" stroke-width="0.564982" stroke-linecap="round" stroke-linejoin="round"/>
<path d="M102.023 83.0978C104.442 83.2899 107.221 81.578 108.6 79.6118C109.978 77.6457 111.074 75.3745 113.063 73.9959C114.404 73.1861 115.862 72.5895 117.385 72.2275C118.911 71.8605 120.344 71.1815 121.594 70.2331C122.775 69.2105 123.527 67.5664 123.052 66.0918" stroke="#263238" stroke-width="0.564982" stroke-linecap="round" stroke-linejoin="round"/>
<path d="M103.484 85.0975C105.902 85.4704 108.123 83.7811 109.637 81.8771C111.151 79.9731 112.326 77.7471 114.309 76.3233C115.853 75.1413 117.637 74.312 119.536 73.8939C122.739 73.3289 124.875 71.3684 124.982 69.4531" stroke="#263238" stroke-width="0.564982" stroke-linecap="round" stroke-linejoin="round"/>
<path d="M132.877 65.9564C137.563 65.9564 141.363 62.1571 141.363 57.4704C141.363 52.7837 137.563 48.9844 132.877 48.9844C128.19 48.9844 124.391 52.7837 124.391 57.4704C124.391 62.1571 128.19 65.9564 132.877 65.9564Z" stroke="#263238" stroke-width="0.564982" stroke-linecap="round" stroke-linejoin="round"/>
<path d="M107.303 58.0238L134.354 38.7635C134.666 38.5414 135.021 38.3865 135.396 38.3086C135.771 38.2308 136.158 38.2318 136.532 38.3115C136.907 38.3912 137.261 38.5478 137.571 38.7715C137.882 38.9953 138.143 39.2811 138.337 39.611C138.337 39.611 171.18 89.7871 169.909 90.5781L94.2632 141.466C92.9694 142.28 62.805 92.7419 62.805 92.7419C62.4304 92.143 62.2984 91.4237 62.4359 90.7308C62.5734 90.0379 62.9702 89.4235 63.5451 89.0131L77.8731 78.6343" stroke="#263238" stroke-width="0.564982" stroke-linecap="round" stroke-linejoin="round"/>
<path d="M121.953 99.1198L130.044 65.5938" stroke="#263238" stroke-width="0.564982" stroke-linecap="round" stroke-linejoin="round"/>
<path d="M62.3828 91.7305L106.231 98.6176" stroke="#263238" stroke-width="0.564982" stroke-linecap="round" stroke-linejoin="round"/>
<path d="M90.3281 89.0751C90.3281 89.0751 97.1475 89.9056 100.498 81.1201C100.498 81.1201 104.453 86.9677 107.69 89.1542C107.69 89.1542 109.069 88.7926 112.103 89.5214C114.489 89.9936 116.919 90.2152 119.351 90.1824C119.351 90.1824 118.6 92.8209 116.927 92.8717C115.84 92.8749 114.767 92.6192 113.797 92.126L113.425 93.0469L124.639 101.443C124.781 101.623 124.885 101.83 124.946 102.051C125.007 102.272 125.024 102.503 124.995 102.731C124.966 102.958 124.892 103.178 124.778 103.376C124.663 103.575 124.511 103.749 124.329 103.889L116.419 98.4086L116.046 99.3351C116.046 99.3351 120.781 105.652 120.916 106.646C121.052 107.64 120.826 107.708 120.063 107.776C119.3 107.844 118.176 106.68 118.176 106.68L113.944 100.595L113.21 101.267C113.21 101.267 116.238 107.482 115.848 108.799C115.459 110.115 113.73 108.284 113.73 108.284L111.379 102.765C111.379 102.765 112.3 107.121 110.922 107.708C109.543 108.296 109.441 106.544 109.074 102.386L105.413 97.386C105.413 97.386 94.7124 92.5271 90.3281 89.0751Z" fill="#533097"/>
<path opacity="0.2" d="M94.164 88.2959L106.063 96.4768L109.04 102.387L105.899 97.878L90.2656 89.6236L94.164 88.2959Z" fill="black"/>
<path d="M112.454 35.4129C107.273 38.2378 106.544 39.1023 103.838 41.4752C100.448 44.447 97.3239 48.255 96.985 52.7296C96.8784 53.5016 97.0022 54.2878 97.3409 54.9896C98.0528 56.2608 99.7929 56.645 101.194 56.2438C102.595 55.8427 103.736 54.8483 104.827 53.8822C104.527 54.1477 104.352 55.0517 104.098 55.4303C103.768 55.924 103.366 56.3657 102.906 56.741C101.86 57.5418 100.659 58.1188 99.3805 58.436C96.2787 59.323 92.8719 59.2665 89.6628 59.9049C86.2729 60.5772 83.9621 62.3287 81.7869 64.9446C80.2445 66.7977 82.9169 71.5831 83.6909 73.8656C85.4876 79.3347 90.0752 84.2443 94.1657 88.2896L90.3238 89.0693C90.3238 89.0693 79.9564 83.5833 77.8942 78.6284C75.832 73.6735 74.6682 69.4701 72.8828 67.1423C72.8828 67.1423 74.3913 63.5886 81.0242 57.7523C87.6571 51.9161 91.0865 46.1645 93.6572 42.6673C97.1262 37.9384 105.126 33.4807 108.347 33.1869C108.319 33.1756 109.697 33.4072 112.454 35.4129Z" fill="#533097"/>
<path opacity="0.6" d="M112.533 35.3731C107.347 38.198 106.544 39.102 103.838 41.4749C100.448 44.4467 97.3239 48.2547 96.985 52.7293C96.8784 53.5013 97.0022 54.2875 97.3409 54.9893C98.0528 56.2605 99.7929 56.6447 101.194 56.2435C102.595 55.8424 103.736 54.848 104.827 53.8819C104.527 54.1474 104.352 55.0514 104.098 55.4299C103.768 55.9237 103.366 56.3654 102.906 56.7407C101.86 57.5415 100.659 58.1185 99.3805 58.4356C96.2787 59.3227 92.8719 59.2662 89.6628 59.9046C86.2729 60.5769 83.9621 62.3284 81.7869 64.9442C80.2445 66.7974 82.9169 71.5828 83.6909 73.8653C85.4876 79.3343 90.0752 84.244 94.1657 88.2893L90.3238 89.069C90.3238 89.069 79.9564 83.583 77.8942 78.6281C75.832 73.6732 74.6682 69.4697 72.8828 67.142C72.8828 67.142 74.3913 63.5883 81.0242 57.752C87.6571 51.9158 91.0865 46.1642 93.6572 42.667C97.1262 37.9381 105.522 33.5086 108.742 33.2148C110.064 33.8265 111.332 34.5485 112.533 35.3731Z" fill="white"/>
<path d="M95.5547 70.5273C100.238 67.3351 107.696 60.787 109.001 52.7529" stroke="#263238" stroke-width="0.564982" stroke-linecap="round" stroke-linejoin="round"/>
<path d="M109.21 90.1539C104.877 87.5256 101.567 83.5007 99.8259 78.7412C97.4021 72.1649 94.8484 68.3512 88.3906 65.8936" stroke="#263238" stroke-width="0.564982" stroke-linecap="round" stroke-linejoin="round"/>
<path d="M79.6562 77.7305C81.6437 80.9282 84.5173 83.4798 87.9276 85.0752" stroke="#263238" stroke-width="0.564982" stroke-linecap="round" stroke-linejoin="round"/>
<path d="M77.6719 73.4707C78.0051 74.5266 78.4344 75.5497 78.9544 76.5273" stroke="#263238" stroke-width="0.564982" stroke-linecap="round" stroke-linejoin="round"/>
<path d="M90.3281 89.075C90.3281 89.075 97.8311 89.2727 100.633 80.7754" stroke="#263238" stroke-width="0.564982" stroke-linecap="round" stroke-linejoin="round"/>
<path d="M103.445 37.2266C104.686 36.7258 105.973 36.3474 107.287 36.0967" stroke="#263238" stroke-width="0.564982" stroke-linecap="round" stroke-linejoin="round"/>
<path d="M93.3906 46.3507C95.3256 42.6856 98.3632 39.7211 102.074 37.876" stroke="#263238" stroke-width="0.564982" stroke-linecap="round" stroke-linejoin="round"/>
<path d="M88.3047 64.4082C89.3369 64.6783 90.2989 65.1672 91.1256 65.8418C91.9522 66.5163 92.6241 67.3608 93.0957 68.3179" stroke="#263238" stroke-width="0.564982" stroke-linecap="round" stroke-linejoin="round"/>
<path d="M108.104 89.3632C109.596 88.6796 111.494 89.2332 112.387 89.5214C113.607 89.8999 118.421 90.5779 119.331 90.1824C120.24 89.7869 118.534 92.2559 117.483 92.7418C116.432 93.2277 113.777 92.126 113.777 92.126L113.404 93.0469C113.404 93.0469 124.24 100.623 124.856 101.697C125.472 102.77 125.054 103.81 124.325 103.889C123.596 103.968 116.415 98.4086 116.415 98.4086L116.042 99.3351C116.042 99.3351 121.692 106.573 121.127 107.33C120.562 108.087 119.376 107.782 118.46 106.821C117.545 105.861 113.941 100.606 113.941 100.606L113.206 101.279C113.206 101.279 116.24 108.058 115.845 108.81C115.449 109.561 114.5 109.29 113.946 108.584C113.393 107.878 111.155 102.313 111.155 102.313C111.155 102.313 111.748 106.991 111.398 107.505C111.303 107.626 111.181 107.723 111.042 107.789C110.903 107.854 110.75 107.886 110.596 107.882C110.442 107.877 110.291 107.837 110.156 107.764C110.02 107.69 109.904 107.586 109.816 107.46C109.46 106.895 109.07 102.375 109.07 102.375L105.409 97.3746C97.7426 94.3463 84.0135 85.1202 84.0135 85.1202C76.7705 79.2952 76.1038 74.555 75.245 71.4476C74.8567 69.9585 74.1253 68.5809 73.1094 67.4249C75.0699 59.8598 84.1096 58.3174 91.0645 46.3116C98.0194 34.3057 108.878 33.2266 108.878 33.2266" stroke="#263238" stroke-width="0.564982" stroke-linecap="round" stroke-linejoin="round"/>
<path d="M13.6669 142.493L1 152.968" stroke="#263238" stroke-width="0.564982" stroke-linecap="round" stroke-linejoin="round"/>
<path d="M46.7206 115.159L21.3359 136.148" stroke="#263238" stroke-width="0.564982" stroke-linecap="round" stroke-linejoin="round"/>
<path d="M13.4298 105.838L8.42969 109.974" stroke="#263238" stroke-width="0.564982" stroke-linecap="round" stroke-linejoin="round"/>
<path d="M37.1316 86.2383L17.3516 102.595" stroke="#263238" stroke-width="0.564982" stroke-linecap="round" stroke-linejoin="round"/>
<path d="M24.7286 100.459L12.6719 110.431" stroke="#263238" stroke-width="0.564982" stroke-linecap="round" stroke-linejoin="round"/>
<path d="M88.0936 150.075L72.3984 163.053" stroke="#263238" stroke-width="0.564982" stroke-linecap="round" stroke-linejoin="round"/>
<path d="M96.4852 143.138L90.2422 148.296" stroke="#263238" stroke-width="0.564982" stroke-linecap="round" stroke-linejoin="round"/>
<path d="M94.0946 148.827L87.8516 153.991" stroke="#263238" stroke-width="0.564982" stroke-linecap="round" stroke-linejoin="round"/>
<path d="M164.147 35.9824L160.305 39.1576" stroke="#263238" stroke-width="0.564982" stroke-linecap="round" stroke-linejoin="round"/>
<path d="M179.728 23.0957L165.977 34.4688" stroke="#263238" stroke-width="0.564982" stroke-linecap="round" stroke-linejoin="round"/>
</svg>
