<svg width="8" height="7" viewBox="0 0 8 7" fill="none" xmlns="http://www.w3.org/2000/svg">
<path d="M2.84316 2.80343C2.79771 3.01555 2.78256 3.21252 2.79771 3.42465C2.81286 3.60646 2.85831 3.78828 2.93407 3.95495C2.97953 4.04586 2.91892 4.15192 2.82801 4.19737C2.81286 4.21252 2.78256 4.21252 2.75225 4.21252C2.6765 4.21252 2.61589 4.16707 2.58559 4.09131C2.50983 3.89434 2.44922 3.68222 2.43407 3.45495C2.40377 3.21252 2.43407 2.95495 2.47953 2.71252C2.50983 2.60646 2.60074 2.54586 2.7068 2.57616C2.79771 2.60646 2.85831 2.71252 2.84316 2.80343Z" fill="#6D44BC"/>
<path d="M7.21875 3.5C7.21875 4.4697 6.87027 5.28788 6.18845 5.9697C5.91572 6.24242 5.62784 6.45455 5.30966 6.62121C5.30966 6 5.30966 5.31818 5.30966 4.80303C5.30966 4.27273 5.2339 3.75758 5.08239 3.30303C4.77936 2.42424 4.15814 1.81818 3.21875 1.77273C3.18845 1.77273 3.15814 1.77273 3.12784 1.77273C2.77936 1.77273 2.52178 2 2.37027 2.33333C2.11269 2.86364 2.12784 3.66667 2.38542 4.16667C2.53693 4.45455 2.7642 4.65152 3.08239 4.66667C3.09754 4.66667 3.11269 4.66667 3.11269 4.66667C3.27936 4.66667 3.46118 4.65152 3.65814 4.60606C3.79451 4.57576 3.91572 4.60606 4.00663 4.68182C4.12784 4.75758 4.2036 4.89394 4.2036 5.06061V6.9697C4.03693 6.98485 3.88542 7 3.71875 7C2.74905 7 1.93087 6.65152 1.24905 5.9697C0.567235 5.28788 0.21875 4.4697 0.21875 3.5C0.21875 2.5303 0.567235 1.71212 1.24905 1.0303C1.93087 0.348485 2.74905 0 3.71875 0C4.68845 0 5.50663 0.348485 6.18845 1.0303C6.87027 1.72727 7.21875 2.54545 7.21875 3.5Z" fill="#6D44BC"/>
<path d="M5.30966 6.62121V4.80303C5.30966 4.27273 5.2339 3.75758 5.08239 3.30303C4.77936 2.42424 4.15814 1.81818 3.21875 1.77273H3.12784C2.77936 1.77273 2.52178 2 2.37027 2.33333C2.11269 2.86364 2.12784 3.66667 2.38542 4.16667C2.53693 4.45455 2.7642 4.65152 3.08239 4.66667H3.11269C3.27936 4.66667 3.46118 4.65152 3.65814 4.60606C3.79451 4.57576 3.91572 4.60606 4.00663 4.68182C4.12784 4.75758 4.2036 4.89394 4.2036 5.06061V6.9697C4.37272 6.95334 4.83069 6.86074 5.30966 6.62121Z" fill="white"/>
<path d="M2.82139 4.20612C2.8059 4.2216 2.77492 4.2216 2.74395 4.2216C2.66651 4.2216 2.60456 4.17514 2.57359 4.09771C2.49615 3.89637 2.43421 3.67955 2.41872 3.44725C2.38774 3.19945 2.41872 2.93617 2.46518 2.68837C2.49615 2.57996 2.58908 2.51801 2.69749 2.54899C2.8059 2.57996 2.86785 2.67289 2.83687 2.7813C2.79041 2.99812 2.77492 3.19945 2.79041 3.41627C2.8059 3.60212 2.85236 3.78796 2.9298 3.95832C2.97626 4.06673 2.9298 4.17514 2.82139 4.20612Z" fill="#EAB611"/>
</svg>
