<svg width="129" height="129" viewBox="0 0 129 129" fill="none" xmlns="http://www.w3.org/2000/svg">
<rect width="128.8" height="128.8" rx="16" fill="#EAD2EE"/>
<path d="M49.3667 25.0441C49.0208 25.1629 48.7189 25.3838 48.5009 25.6775C48.2829 25.9713 48.159 26.3242 48.1455 26.6897C47.9257 30.0206 47.3395 39.3171 47.4219 44.0615C47.5227 49.9081 47.7669 74.9551 47.7669 74.9551L100.215 74.0209C100.215 74.0209 100.215 41.4511 100.108 35.1894C100.047 31.5257 99.8028 28.6498 99.6136 26.8943C99.4945 25.8105 98.6427 25.0136 97.6627 25.0625L72.695 26.4852C72.695 26.4852 56.7459 22.8398 49.3667 25.0441Z" fill="#FBD362" stroke="#263238" stroke-width="0.348046" stroke-miterlimit="10"/>
<path opacity="0.5" d="M89.433 42.8621L92.7913 46.831C90.1454 46.831 86.6548 46.9226 93.8599 47.289C102.866 47.747 92.7913 73.8504 86.38 73.8504C79.9686 73.8504 58.1394 73.8504 58.1394 77.2087C58.1394 80.5671 47.4538 78.43 49.7435 68.8129C52.0333 59.1958 57.0708 67.5917 67.4511 67.5917C77.8315 67.5917 63.7875 61.1803 63.3296 56.9061C62.8716 52.6318 68.9777 54.0057 73.5572 54.0057C78.1368 54.0057 83.6322 55.3795 83.6322 46.831C83.6322 39.9922 87.4994 41.3356 89.433 42.8621Z" fill="#263238"/>
<path d="M81.6343 38.5167C80.2658 38.9288 78.8539 39.1799 77.4272 39.2647C75.2901 39.3593 74.8108 41.7071 74.8108 43.4718C74.8108 45.2364 73.6872 49.7366 73.6872 51.3242C73.6872 52.9117 74.1544 53.3819 73.6872 55.0641C73.4546 56.0238 73.1421 56.9623 72.753 57.8699C72.5668 58.2423 81.0725 67.9663 82.8494 69.276C84.6263 70.5858 86.0276 73.2938 86.7756 73.3793C87.5236 73.4648 89.3951 70.9368 89.676 69.8255C89.9569 68.7142 90.8972 63.5638 91.6391 60.758C92.381 57.9523 95.4706 51.0341 96.4049 48.6986C97.3391 46.363 95.4706 39.2555 93.4129 38.8831C91.3193 38.4755 89.189 38.2872 87.0565 38.3213C84.2538 38.3305 81.6343 38.5167 81.6343 38.5167Z" fill="#9E9E9E" stroke="#263238" stroke-width="0.348046" stroke-miterlimit="10"/>
<path d="M83.9844 62.8008C85.6055 63.8968 87.9197 65.8752 88.7349 68.6199" stroke="#263238" stroke-width="0.348046" stroke-miterlimit="10"/>
<path d="M82.2891 61.7969C82.2891 61.7969 82.6127 61.9495 83.1134 62.2457" stroke="#263238" stroke-width="0.348046" stroke-miterlimit="10"/>
<path d="M88.4219 64.5254C88.5806 64.8307 88.7272 65.0994 88.834 65.3467" stroke="#263238" stroke-width="0.348046" stroke-miterlimit="10"/>
<path d="M84.7188 58.6182C84.7188 58.6182 86.6361 61.4086 87.9519 63.6893" stroke="#263238" stroke-width="0.348046" stroke-miterlimit="10"/>
<path d="M78.9844 36.6611C78.9844 36.6611 79.6316 38.7188 79.5156 39.7141C79.3996 40.7094 78.8103 41.8848 80.5719 42.297C82.3335 42.7091 84.6233 41.5917 84.9164 41.0758C85.2095 40.5598 84.6111 37.7174 84.3302 36.6122C84.0494 35.507 83.683 34.4385 83.683 34.4385C83.683 34.4385 81.5703 37.1313 78.9844 36.6611Z" fill="white" stroke="#263238" stroke-width="0.348046" stroke-miterlimit="10"/>
<path d="M81.2031 37.9917L84.0455 38.703L84.1493 34.2334L81.2031 37.9917Z" fill="#263238" stroke="#263238" stroke-width="0.348046" stroke-miterlimit="10"/>
<path d="M100.489 44.3755C101.755 45.8468 102.942 47.3836 104.046 48.9795C105.35 50.9762 104.138 53.3453 102.932 53.8247C101.726 54.304 94.4138 49.5016 94.4138 49.5016C94.4138 49.5016 93.6658 47.5904 94.3527 46.1829C95.0397 44.7755 98.8041 43.6519 100.489 44.3755Z" fill="white" stroke="#263238" stroke-width="0.348046" stroke-miterlimit="10"/>
<path d="M91.1797 39.0876C91.1797 39.0876 93.4298 38.5778 95.4082 39.2586C97.3866 39.9394 99.7496 43.0383 99.7496 43.0383C99.7496 43.0383 97.2828 42.4734 95.7593 44.4182C94.2358 46.363 93.7473 48.9337 93.7473 48.9337C93.7473 48.9337 90.9416 47.5598 90.1875 44.9861" fill="#9E9E9E"/>
<path d="M91.1797 39.0876C91.1797 39.0876 93.4298 38.5778 95.4082 39.2586C97.3866 39.9394 99.7496 43.0383 99.7496 43.0383C99.7496 43.0383 97.2828 42.4734 95.7593 44.4182C94.2358 46.363 93.7473 48.9337 93.7473 48.9337C93.7473 48.9337 90.9416 47.5598 90.1875 44.9861" stroke="#263238" stroke-width="0.348046" stroke-miterlimit="10"/>
<path d="M91.9098 48.5612L94.7125 50.0267C94.6386 49.2137 94.7558 48.3947 95.0548 47.635C95.3538 46.8754 95.8262 46.1962 96.4344 45.6517C97.9793 44.2137 100.003 44.6991 100.959 45.0411C101.001 45.0558 101.046 45.0581 101.089 45.0476C101.132 45.0371 101.172 45.0143 101.202 44.9819C101.232 44.9496 101.253 44.9091 101.261 44.8654C101.268 44.8217 101.263 44.7766 101.246 44.7358C100.852 43.8624 100.399 43.0169 99.8905 42.2048C99.3409 41.4568 95.1979 41.9636 93.8088 43.6428C92.4197 45.3219 91.2046 47.6025 91.9098 48.5612Z" fill="#9E9E9E" stroke="#263238" stroke-width="0.348046" stroke-miterlimit="10"/>
<path d="M76.868 20.2751C76.868 20.2751 74.6942 20.3331 73.3448 21.4505C71.9954 22.568 70.5818 27.0895 69.8186 29.1442C69.0553 31.1989 67.4128 39.1856 68.4691 41.4204C69.5255 43.6553 72.3465 47.1174 75.3995 47.4105C76.2804 47.4994 77.1699 47.3799 77.9962 47.0617C78.8225 46.7435 79.5623 46.2355 80.1561 45.5787C80.1561 45.5787 79.744 46.7541 79.2158 45.4627C78.6876 44.1712 79.686 42.4676 79.805 40.2939C79.9241 38.1201 79.2769 37.4149 78.1594 35.6533C77.042 33.8917 75.4575 28.6069 76.5749 27.2544C77.6923 25.9019 81.5086 27.4894 82.3757 29.251C83.2427 31.0127 84.0793 32.1301 84.2075 33.4795C84.3357 34.8289 82.855 39.7077 85.0868 41.4174C87.3185 43.1271 91.1379 42.4157 92.0172 40.6511C92.8964 38.8864 92.4873 38.3613 92.4873 38.3613C92.4873 38.3613 91.7241 39.5367 91.373 37.7751C91.0219 36.0135 92.7224 32.7223 91.6783 30.2555C90.6341 27.7886 89.3274 25.2058 86.7934 23.1511C84.2594 21.0964 83.3862 19.0997 80.9774 19.0356C78.5685 18.9715 77.1031 19.6279 76.868 20.2751Z" fill="#263238" stroke="#263238" stroke-width="0.348046" stroke-miterlimit="10"/>
<path d="M79.4631 24.1006C79.4631 24.1006 75.6804 24.7142 74.7645 26.3629C73.8486 28.0115 74.8652 31.8736 75.1736 33.3024C75.4819 34.7313 77.616 36.5692 78.5319 36.9661C79.4478 37.363 80.1653 37.9858 81.4934 37.9858C82.8214 37.9858 85.157 32.6766 85.157 32.6766C84.4724 31.0266 83.617 29.4528 82.6047 27.981C80.9957 25.6302 80.7912 24.3051 79.4631 24.1006Z" fill="white" stroke="#263238" stroke-width="0.348046" stroke-miterlimit="10"/>
<path d="M77.2216 30.729C77.2216 30.8219 77.194 30.9129 77.1423 30.9902C77.0907 31.0675 77.0173 31.1278 76.9313 31.1633C76.8454 31.1989 76.7509 31.2082 76.6597 31.1901C76.5685 31.1719 76.4847 31.1272 76.419 31.0614C76.3532 30.9957 76.3084 30.9119 76.2903 30.8207C76.2721 30.7295 76.2814 30.6349 76.317 30.549C76.3526 30.4631 76.4129 30.3897 76.4902 30.338C76.5675 30.2864 76.6584 30.2588 76.7514 30.2588C76.8761 30.2588 76.9957 30.3083 77.0839 30.3965C77.172 30.4847 77.2216 30.6043 77.2216 30.729Z" fill="#263238"/>
<path d="M80.6825 29.4956C80.6825 29.5885 80.655 29.6795 80.6033 29.7568C80.5516 29.8341 80.4782 29.8943 80.3923 29.9299C80.3064 29.9655 80.2118 29.9748 80.1206 29.9567C80.0294 29.9386 79.9457 29.8938 79.8799 29.828C79.8141 29.7623 79.7694 29.6785 79.7512 29.5873C79.7331 29.4961 79.7424 29.4015 79.778 29.3156C79.8136 29.2297 79.8738 29.1563 79.9511 29.1046C80.0285 29.053 80.1194 29.0254 80.2124 29.0254C80.337 29.0254 80.4566 29.0749 80.5448 29.1631C80.633 29.2513 80.6825 29.3709 80.6825 29.4956Z" fill="#263238"/>
<path d="M75.2812 29.9077C75.2812 29.9077 75.4003 29.2025 76.4567 29.0254" stroke="#263238" stroke-width="0.348046" stroke-miterlimit="10"/>
<path d="M78.9844 28.2623C79.1942 28.0117 79.4799 27.8363 79.7983 27.7625C80.1166 27.6887 80.4504 27.7205 80.749 27.8532" stroke="#263238" stroke-width="0.348046" stroke-miterlimit="10"/>
<path d="M77.8125 29.9658C77.9998 30.3447 78.157 30.7377 78.2827 31.1412C78.2731 31.3184 78.2527 31.4948 78.2216 31.6694C78.2216 31.6694 77.6934 32.8906 78.1636 33.0799C78.5603 33.1963 78.9714 33.2559 79.3848 33.257" stroke="#263238" stroke-width="0.348046" stroke-miterlimit="10"/>
<path d="M78.5528 34.6695C79.5991 34.6192 80.5831 34.1573 81.2903 33.3846C81.2903 33.3846 81.0914 35.2514 80.3631 35.6714C79.6347 36.0915 78.5528 34.6695 78.5528 34.6695Z" stroke="#263238" stroke-width="0.348046" stroke-linecap="round" stroke-linejoin="round"/>
<path d="M75.4219 53.3788C76.1767 53.0491 76.9517 52.7676 77.7422 52.5361" stroke="#263238" stroke-width="0.348046" stroke-miterlimit="10"/>
<path d="M56.0781 41.4628L56.5208 40.2416C56.5929 40.0411 56.707 39.8584 56.8555 39.7057C57.004 39.553 57.1834 39.4338 57.3818 39.3562C57.9791 39.1047 58.5908 38.8885 59.2136 38.709C59.4365 38.709 60.5569 38.8586 60.4837 39.3837C60.4104 39.9088 59.2899 39.689 59.2899 39.689C59.2899 39.689 58.2427 39.8386 57.9435 40.1378C57.7017 40.4758 57.5247 40.8557 57.4215 41.2583L56.0781 41.4628Z" fill="white" stroke="#263238" stroke-width="0.348046" stroke-miterlimit="10"/>
<path d="M55.9843 40.7733C55.9843 40.7733 58.213 40.3428 58.5702 40.3428C58.9275 40.3428 61.7332 41.3472 61.7332 41.7777C61.7298 41.9066 61.6952 42.0328 61.6325 42.1455C61.5698 42.2582 61.4807 42.3541 61.3729 42.4249C61.3729 42.4249 61.6599 43.2859 61.2997 43.5729L60.9424 43.8599C60.9424 43.8599 60.7257 44.5071 60.512 44.5071C60.2983 44.5071 57.7826 44.6506 57.349 44.6506C56.9155 44.6506 55.7706 45.1544 55.5538 44.7239C55.3371 44.2934 55.5538 41.9334 55.9843 40.7733Z" fill="white" stroke="#263238" stroke-width="0.348046" stroke-miterlimit="10"/>
<path d="M61.375 42.4254C61.375 42.4254 59.1493 41.5645 58.789 41.5645C58.4288 41.5645 56.2031 41.7079 56.2031 41.7079" stroke="#263238" stroke-width="0.348046" stroke-miterlimit="10"/>
<path d="M60.9425 43.86C60.9425 43.86 58.7871 42.999 58.5703 42.999C58.3535 42.999 55.9844 43.2158 55.9844 43.2158" stroke="#263238" stroke-width="0.348046" stroke-miterlimit="10"/>
<path d="M54.8047 53.5687C54.8047 53.5687 58.3554 65.1703 59.8514 68.1531C61.3473 71.1359 62.7517 73.2028 63.9668 73.2028C65.1819 73.2028 68.5464 73.7615 69.5753 73.389C70.6041 73.0166 65.182 61.0487 63.0296 55.9867C60.8772 50.9248 58.9171 50.186 57.6074 50.7538C56.2976 51.3217 54.8047 53.5687 54.8047 53.5687Z" fill="#263238" stroke="#263238" stroke-width="0.348046" stroke-miterlimit="10"/>
<path d="M87.8908 72.9219C87.8908 72.9219 88.5441 72.4548 87.8908 70.5832C87.2374 68.7117 79.2904 60.954 74.894 56.8446C70.4976 52.7352 65.3685 46.0918 60.8806 44.6813C56.3926 43.2708 54.9913 45.4293 52.2802 46.739C50.9216 47.3954 41.5305 51.6941 39.0056 52.723C36.4807 53.7519 27.5048 56.6492 26.1981 56.8354C24.8914 57.0217 23.2061 56.4599 23.1115 57.3972C23.0169 58.3345 26.1035 59.8396 27.227 60.1999C28.3505 60.5601 32.3683 60.9479 33.7696 61.1372C35.171 61.3264 36.2121 62.0714 37.128 61.3234C38.0439 60.5754 39.6528 57.1163 40.9626 56.8354C42.2723 56.5546 47.6945 54.967 50.7781 54.967C53.8617 54.967 58.716 52.2559 58.716 52.2559C58.716 52.2559 65.738 67.866 66.7546 69.9238C67.7713 71.9815 67.3164 73.9446 73.5812 74.4117C79.846 74.8789 87.2435 73.8561 87.8908 72.9219Z" fill="white" stroke="#263238" stroke-width="0.348046" stroke-miterlimit="10"/>
<path d="M34.1172 61.2005C35.3384 61.4448 36.2818 62.0126 37.1366 61.3288C37.5244 61.0235 38.019 60.251 38.5624 59.4328C37.2465 57.9613 34.9781 60.2266 34.1172 61.2005Z" fill="#9E9E9E" stroke="#263238" stroke-width="0.348046" stroke-miterlimit="10"/>
<path d="M26.65 56.7461C26.4576 56.7919 26.3019 56.8255 26.1981 56.8407C24.8884 57.027 23.2061 56.4652 23.1115 57.4025C23.0169 58.3398 26.1035 59.8449 27.227 60.2052H27.2453C27.5104 59.8076 27.694 59.3614 27.7857 58.8924C27.9445 58.0528 27.2697 57.2682 26.65 56.7461Z" fill="#9E9E9E" stroke="#263238" stroke-width="0.348046" stroke-miterlimit="10"/>
<path d="M74.9016 56.8407C70.5083 52.7283 65.367 46.091 60.879 44.6866C56.391 43.2822 54.9897 45.4346 52.2786 46.7444C51.3016 47.2145 44.243 50.2157 40.5 51.8857C41.4006 52.5543 42.8356 52.7283 43.2111 54.3281C43.4248 55.244 42.9546 56.0347 43.0249 56.3858C44.6338 56.166 49.0058 55.5432 51.8115 54.9845C54.837 54.3739 58.7297 52.2734 58.7297 52.2734C58.7297 52.2734 65.7516 67.8836 66.7683 69.9413C67.785 71.9991 67.3301 73.9622 73.5949 74.4293C79.8597 74.8964 87.242 73.8675 87.8984 72.9333C87.8984 72.9333 88.5517 72.4662 87.8984 70.5947C87.245 68.7232 79.298 60.9532 74.9016 56.8407Z" fill="#263238" stroke="#263238" stroke-width="0.348046" stroke-miterlimit="10"/>
<path d="M66.8906 69.875L67.3699 70.8917" stroke="#6E6E6E" stroke-width="0.348046" stroke-miterlimit="10"/>
<path d="M56.4766 53.4888L58.7328 52.2676C58.7328 52.2676 63.7977 63.2585 66.286 68.5891" stroke="#6E6E6E" stroke-width="0.348046" stroke-miterlimit="10"/>
<path d="M48.8565 48.2443C48.8565 48.2443 37.0779 50.1311 34.3241 49.9754C31.5703 49.8197 25.2566 48.4153 22.6432 47.3956C20.0298 46.3759 17.6698 45.3439 17.3645 46.556C17.0592 47.768 18.7384 51.3126 20.0481 51.9538C21.3579 52.5949 24.933 54.0909 25.1162 54.3443C25.2993 54.5977 27.2533 56.5821 28.8103 56.7867C30.3674 56.9913 32.2816 55.4586 33.2098 55.0831C34.1379 54.7076 43.8862 50.8272 48.8565 48.2443Z" fill="white" stroke="#263238" stroke-width="0.348046" stroke-miterlimit="10"/>
<path d="M37.8984 49.7554C38.5457 50.3049 39.425 51.227 39.7028 52.4115C42.8321 51.0896 46.4195 49.5111 48.8619 48.2441C48.8527 48.2441 42.3681 49.2822 37.8984 49.7554Z" fill="#263238" stroke="#263238" stroke-width="0.348046" stroke-miterlimit="10"/>
<path d="M20.4206 47.1232C20.6648 47.0011 20.903 46.8881 21.135 46.7874C19.1872 46.0424 17.6332 45.5662 17.395 46.5462C17.218 47.2576 17.7217 48.7719 18.4331 50.0328C18.5049 49.4234 18.7232 48.8405 19.0693 48.3338C19.4154 47.8271 19.8791 47.4118 20.4206 47.1232Z" fill="#9E9E9E" stroke="#263238" stroke-width="0.348046" stroke-miterlimit="10"/>
<path d="M29.446 52.8116C28.0385 53.1017 26.9211 54.5977 26.3594 55.5044C27.0829 56.0845 28.005 56.6798 28.8201 56.7836C30.3283 56.979 32.1785 55.541 33.1402 55.1167C32.7494 53.987 31.2687 52.4422 29.446 52.8116Z" fill="#9E9E9E" stroke="#263238" stroke-width="0.348046" stroke-miterlimit="10"/>
<path d="M52.1875 71.2214C52.1875 71.2214 67.6969 71.9542 70.0386 71.9542C72.3803 71.9542 89.6421 70.9375 91.6907 70.9375C93.7393 70.9375 92.4234 99.9077 92.4234 99.9077H52.6271L52.1875 71.2214Z" fill="#FBD362" stroke="#263238" stroke-width="0.348046" stroke-miterlimit="10"/>
<path d="M86.7734 83.1826H91.2919" stroke="#263238" stroke-width="0.348046" stroke-miterlimit="10"/>
<path d="M59.5156 83.1826H85.3107" stroke="#263238" stroke-width="0.348046" stroke-miterlimit="10"/>
<path d="M71.3766 45.5561L73.7829 53.0819C73.8112 53.1723 73.8652 53.2525 73.9384 53.3127C74.0115 53.3728 74.1006 53.4102 74.1947 53.4204L77.1465 53.7404C77.2255 53.7495 77.3055 53.739 77.3795 53.71C77.4535 53.6809 77.5193 53.6341 77.5711 53.5737C77.6229 53.5133 77.6591 53.4411 77.6765 53.3634C77.694 53.2857 77.6922 53.205 77.6712 53.1282L75.5958 45.3144C75.5684 45.2111 75.5079 45.1196 75.4234 45.0542C75.339 44.9888 75.2354 44.953 75.1287 44.9525L71.8492 44.9159C71.7713 44.9142 71.6941 44.9312 71.6241 44.9656C71.5542 44.9999 71.4935 45.0506 71.4472 45.1134C71.4009 45.1761 71.3703 45.2491 71.358 45.3261C71.3457 45.4032 71.3521 45.482 71.3766 45.5561Z" fill="#263238" stroke="#263238" stroke-width="0.348046" stroke-miterlimit="10"/>
<path d="M100.065 49.1017C100.065 49.1017 84.7574 52.7348 83.9178 52.6677C83.0782 52.6005 82.3119 52.8173 81.5242 52.0968C80.7365 51.3762 77.6682 48.7781 77.134 48.4545C76.5997 48.1309 73.0093 48.3965 72.6307 48.4545C72.2522 48.5125 71.4095 48.6346 71.9316 48.9613C72.4537 49.288 73.7878 49.2055 74.1603 49.2361C74.5328 49.2666 76.56 49.7154 76.56 49.7154L73.6352 51.0679C73.6352 51.0679 72.4567 51.7243 72.6918 52.3044C72.9269 52.8844 73.855 51.8373 73.855 51.8373L76.0654 51.1747H77.2042L75.2411 52.2341C75.2411 52.2341 75.2411 53.5469 75.5769 53.8553C75.9127 54.1637 77.1706 53.8919 77.1706 53.8919L78.575 53.9133C78.575 53.9133 80.361 54.9971 80.7335 55.0277C81.1754 55.0288 81.6169 55.0023 82.0555 54.9483L82.4279 54.9788C82.4279 54.9788 95.3331 55.5894 98.0808 55.2414C100.829 54.8933 102.877 55.0704 103.799 54.1148C104.721 53.1592 104.926 50.7778 104.605 50.097" fill="white"/>
<path d="M100.065 49.1017C100.065 49.1017 84.7574 52.7348 83.9178 52.6677C83.0782 52.6005 82.3119 52.8173 81.5242 52.0968C80.7365 51.3762 77.6682 48.7781 77.134 48.4545C76.5997 48.1309 73.0093 48.3965 72.6307 48.4545C72.2522 48.5125 71.4095 48.6346 71.9316 48.9613C72.4537 49.288 73.7878 49.2055 74.1603 49.2361C74.5328 49.2666 76.56 49.7154 76.56 49.7154L73.6352 51.0679C73.6352 51.0679 72.4567 51.7243 72.6918 52.3044C72.9269 52.8844 73.855 51.8373 73.855 51.8373L76.0654 51.1747H77.2042L75.2411 52.2341C75.2411 52.2341 75.2411 53.5469 75.5769 53.8553C75.9127 54.1637 77.1706 53.8919 77.1706 53.8919L78.575 53.9133C78.575 53.9133 80.361 54.9971 80.7335 55.0277C81.1754 55.0288 81.6169 55.0023 82.0555 54.9483L82.4279 54.9788C82.4279 54.9788 95.3331 55.5894 98.0808 55.2414C100.829 54.8933 102.877 55.0704 103.799 54.1148C104.721 53.1592 104.926 50.7778 104.605 50.097" stroke="#263238" stroke-width="0.348046" stroke-miterlimit="10"/>
<path d="M55.5312 83.1826H57.7539" stroke="#263238" stroke-width="0.348046" stroke-miterlimit="10"/>
<path d="M56.4984 99.2784C56.4984 99.2784 56.0893 68.5099 55.6802 64.4067C55.2711 60.3034 49.9344 54.1454 44.6038 54.756C39.2732 55.3666 37.014 60.3064 37.2155 63.9976C37.417 67.6887 44.3931 70.7661 44.3931 72.6132C44.3931 74.4603 40.2929 92.5098 39.0625 95.9964C37.8322 99.483 41.1111 99.8951 44.1886 99.8951H56.2908L56.4984 99.2784Z" fill="#FBD362" stroke="#263238" stroke-width="0.348046" stroke-miterlimit="10"/>
<path d="M44.8441 75.4062C44.5754 76.3222 44.3281 77.0244 44.3281 77.0244" stroke="#263238" stroke-width="0.348046" stroke-miterlimit="10"/>
<path d="M39.4453 66.3906C41.7656 68.9582 45.4354 70.9122 45.5514 72.0143C45.5406 72.6726 45.4379 73.3262 45.2461 73.9561" stroke="#263238" stroke-width="0.348046" stroke-miterlimit="10"/>
<path d="M38.7105 62.7246C38.7105 62.7246 37.6023 63.4909 38.5884 65.2373" stroke="#263238" stroke-width="0.348046" stroke-miterlimit="10"/>
<path d="M55.3906 94.6289L55.4547 97.1935" stroke="#263238" stroke-width="0.348046" stroke-miterlimit="10"/>
<path d="M54.8203 72.0176L55.3393 92.5523" stroke="#263238" stroke-width="0.348046" stroke-miterlimit="10"/>
<path d="M54.7188 68.2266L54.7768 70.5469" stroke="#263238" stroke-width="0.348046" stroke-miterlimit="10"/>
<path d="M49.7786 57.3508C48.3773 56.5234 46.5058 55.696 44.6953 55.7571" stroke="#263238" stroke-width="0.348046" stroke-miterlimit="10"/>
<path d="M52.0304 58.9362C51.658 58.6213 51.2698 58.3258 50.8672 58.0508" stroke="#263238" stroke-width="0.348046" stroke-miterlimit="10"/>
<path d="M90.125 99.2784C90.125 99.2784 90.5341 68.5099 90.9463 64.4067C91.3584 60.3034 96.689 54.1454 102.023 54.756C107.356 55.3666 109.609 60.2942 109.405 63.9854C109.2 67.6765 102.242 70.7661 102.242 72.6132C102.242 74.4603 106.343 92.5098 107.576 95.9964C108.81 99.483 105.525 99.8951 102.447 99.8951H90.3357L90.125 99.2784Z" fill="#FBD362" stroke="#263238" stroke-width="0.348046" stroke-miterlimit="10"/>
<path d="M91.2734 88.2695C91.2734 89.564 91.2734 90.3486 91.2734 90.3486" stroke="#263238" stroke-width="0.348046" stroke-miterlimit="10"/>
<path d="M91.4872 67.0049C91.3406 71.4776 91.2918 80.6489 91.2734 86.0711" stroke="#263238" stroke-width="0.348046" stroke-miterlimit="10"/>
<path d="M97.9929 56.4902C97.9929 56.4902 92.125 61.6254 91.6365 64.5594C91.6365 64.6449 91.606 64.767 91.5938 64.9197" stroke="#263238" stroke-width="0.348046" stroke-miterlimit="10"/>
<path d="M101.762 77.1504C101.475 75.9566 101.289 75.1934 101.289 75.1934" stroke="#263238" stroke-width="0.348046" stroke-miterlimit="10"/>
<path d="M102.173 99.2023C103.376 99.0314 104.543 98.6131 105.083 97.6758C106.426 95.3525 105.327 92.6658 104.961 90.7088C104.711 89.3807 103.111 82.7068 102.109 78.5547" stroke="#263238" stroke-width="0.348046" stroke-miterlimit="10"/>
<path d="M98.4844 99.1504C99.051 99.2319 99.6218 99.2808 100.194 99.2969" stroke="#263238" stroke-width="0.348046" stroke-miterlimit="10"/>
<path d="M104.937 68.0762C104.196 68.7662 103.609 69.2027 103.609 69.2027" stroke="#263238" stroke-width="0.348046" stroke-miterlimit="10"/>
<path d="M106.671 59.3018C107.197 59.8934 107.58 60.5975 107.791 61.36C108.003 62.1225 108.038 62.9233 107.892 63.7012C107.673 64.9224 106.766 66.1741 105.844 67.1725" stroke="#263238" stroke-width="0.348046" stroke-miterlimit="10"/>
<path d="M78.2706 49.4132C78.3723 47.9884 79.0338 44.1925 80.8656 40.4067M80.8656 40.4067C83.1554 35.6745 84.224 35.9798 84.224 30.4844M80.8656 40.4067C79.5935 39.3891 76.683 36.8042 75.8281 34.606" stroke="#263238" stroke-width="0.348046"/>
</svg>
