<svg width="129" height="129" viewBox="0 0 129 129" fill="none" xmlns="http://www.w3.org/2000/svg">
<rect width="128.8" height="128.8" rx="16" fill="#EAD2EE"/>
<path d="M89.3239 37.5348C89.3239 37.5348 91.4322 47.4549 90.8132 49.184C90.1942 50.9131 89.9452 54.6409 89.9452 55.8789C89.9452 57.1169 95.7722 66.5414 95.8841 68.0307C95.996 69.52 94.6438 70.758 93.8991 71.0001C93.1545 71.2423 91.4368 71.6306 91.4368 71.6306C91.4368 71.6306 88.0882 83.2798 87.2202 85.1437C86.3522 87.0076 85.3609 90.9706 81.6423 92.0853C77.9237 93.2 73.956 91.094 73.956 91.094C73.956 91.094 71.3361 94.3078 70.2329 96.9209C69.1296 99.534 68.4969 104.36 68.4969 104.36L37.005 88.369C37.005 88.369 40.6003 78.6978 40.6003 74.8558C40.6003 71.0138 36.7583 62.8297 36.6327 57.9941C36.5071 53.1585 42.4596 46.2169 47.7909 44.2319C53.1221 42.247 57.4621 44.8532 60.685 45.8446C63.908 46.8359 69.1159 46.2169 69.9839 43.2406C70.8519 40.2643 70.4795 37.5302 75.6943 35.6777C80.9091 33.8253 88.5884 36.1734 88.5884 36.1734L89.3239 37.5348Z" fill="white" stroke="#263238" stroke-width="0.266106" stroke-linecap="round" stroke-linejoin="round"/>
<path d="M31.7109 92.585L31.1376 93.6562" stroke="#263238" stroke-width="0.266106" stroke-linecap="round" stroke-linejoin="round"/>
<path d="M73.9219 107.057L34.6341 87.1074L32.1353 91.7808" fill="#FBD362"/>
<path d="M73.9219 107.057L34.6341 87.1074L32.1353 91.7808" stroke="#263238" stroke-width="0.266106" stroke-linecap="round" stroke-linejoin="round"/>
<path d="M69.7173 98.3481C68.959 97.6986 68.2742 96.9678 67.6753 96.169C65.8479 93.6564 58.9954 78.124 58.9954 78.124C59.9952 80.0175 61.2225 81.7817 62.6501 83.3776C64.9343 85.8902 73.9453 91.0935 73.9453 91.0935C73.9453 91.0935 71.3299 94.3074 70.2267 96.9205C70.0321 97.3871 69.8621 97.8636 69.7173 98.3481Z" fill="#263238" stroke="#263238" stroke-width="0.266106" stroke-linecap="round" stroke-linejoin="round"/>
<path d="M81.3812 55.8833C81.3812 57.1853 81.7718 58.2406 82.2492 58.2406C82.7266 58.2406 83.1172 57.1853 83.1172 55.8833C83.1172 54.5813 82.7289 53.5283 82.2492 53.5283C81.7695 53.5283 81.3812 54.5836 81.3812 55.8833Z" fill="#263238"/>
<path d="M84.505 48.3774C85.8481 48.7086 86.8074 49.4533 86.4716 50.8009C86.0993 52.2879 85.4803 51.6689 82.9997 50.5542C80.5191 49.4395 78.5364 51.9247 77.5451 51.6689C76.5035 51.4085 78.8334 49.0627 79.1235 48.8982C81.2637 47.7104 82.6228 47.9114 84.505 48.3774Z" fill="#263238"/>
<path d="M47.8967 58.5986C47.9858 59.0555 48.0703 59.3273 48.0703 59.3273" stroke="#263238" stroke-width="0.266106" stroke-linecap="round" stroke-linejoin="round"/>
<path d="M56.9623 61.2141C56.9623 61.2141 58.2026 59.9761 58.077 57.7445C57.9514 55.5128 57.0857 51.5452 54.235 50.8006C51.3844 50.0559 48.5566 52.1871 47.8805 54.8344C47.6449 55.9105 47.6201 57.0221 47.8074 58.1076" stroke="#263238" stroke-width="0.266106" stroke-linecap="round" stroke-linejoin="round"/>
<path d="M57.4579 54.9968C57.4579 54.9968 56.5899 53.8799 55.1029 55.4925C53.6159 57.1051 54.2349 59.4601 55.2263 60.7004C56.2176 61.9407 57.7069 61.0727 57.9536 60.0791C58.2002 59.0855 58.2025 56.1115 57.4579 54.9968Z" fill="#263238" stroke="#263238" stroke-width="0.266106" stroke-linecap="round" stroke-linejoin="round"/>
<path d="M58.8203 69.0267C58.8203 69.0267 58.4754 70.0546 56.8376 70.1414C54.7956 70.2511 51.6297 67.6631 51.6297 67.6631" stroke="#263238" stroke-width="0.266106" stroke-linecap="round" stroke-linejoin="round"/>
<path d="M83.3672 58.6405C83.3672 58.6405 82.5517 59.0974 80.6901 58.4121" stroke="#263238" stroke-width="0.266106" stroke-linecap="round" stroke-linejoin="round"/>
<path d="M87.3407 69.9329C87.3096 69.712 87.3213 69.4871 87.375 69.2705" stroke="#263238" stroke-width="0.266106" stroke-linecap="round" stroke-linejoin="round"/>
<path d="M91.2422 70.6593C91.2422 70.6593 89.8557 71.0248 88.9786 71.1687C88.6679 71.2122 88.3514 71.1538 88.0768 71.0023C87.8021 70.8507 87.5839 70.6142 87.455 70.3281" stroke="#263238" stroke-width="0.266106" stroke-linecap="round" stroke-linejoin="round"/>
<path d="M88.7266 74.207C88.7266 74.207 84.8115 74.8923 81.6639 70.9727" stroke="#263238" stroke-width="0.266106" stroke-linecap="round" stroke-linejoin="round"/>
<path d="M87.1956 74.2069C87.1956 74.2069 86.4327 77.2517 87.625 78.8689C87.625 78.8689 85.2426 79.6364 82.9447 77.1672C80.6469 74.698 82.4125 71.8359 82.4125 71.8359C82.4125 71.8359 84.6601 74.0424 87.1956 74.2069Z" fill="#263238" stroke="#263238" stroke-width="0.266106" stroke-linecap="round" stroke-linejoin="round"/>
<path d="M86.5201 78.6794L86.5703 78.9855C85.6566 78.9558 84.2861 78.62 82.9453 77.1741C82.7465 76.9626 82.5676 76.7332 82.4108 76.4889C84.8755 76.2765 86.5201 78.6794 86.5201 78.6794Z" fill="white" stroke="#263238" stroke-width="0.266106" stroke-linecap="round" stroke-linejoin="round"/>
<path d="M81.8448 73.3732C81.9469 72.836 82.1359 72.3191 82.4044 71.8428C82.4044 71.8428 84.6521 74.0424 87.1875 74.2137C87.1118 74.5384 87.0546 74.8671 87.0162 75.1982C86.1551 75.2462 84.1678 75.1206 81.8448 73.3732Z" fill="white" stroke="#263238" stroke-width="0.266106" stroke-linecap="round" stroke-linejoin="round"/>
<path d="M83.2577 77.4893C84.5361 77.9574 85.889 78.1896 87.2504 78.1745C87.3426 78.4243 87.4687 78.6602 87.625 78.8758C87.625 78.8758 85.455 79.5724 83.2577 77.4893Z" fill="white" stroke="#263238" stroke-width="0.266106" stroke-linecap="round" stroke-linejoin="round"/>
<path d="M71.1051 16.4584C71.1051 16.4584 77.044 18.9299 81.2628 17.8221C85.4817 16.7143 86.3474 14.7225 88.3301 14.9714C90.3127 15.2204 92.0487 17.331 92.0487 20.5494C92.0487 23.7678 91.6764 25.0126 91.6764 25.0126C91.6764 25.0126 94.776 24.3936 98.3713 27.6166C101.967 30.8396 99.4882 39.5194 95.644 40.0151C91.7997 40.5107 85.3538 36.0475 76.9138 39.2704C76.9138 39.2704 78.4008 45.9653 74.6821 47.9503C70.9635 49.9352 67.6149 50.8009 67.1193 51.7923C66.6236 52.7836 66.1256 56.0088 63.894 56.6279C61.6624 57.2469 60.1754 55.6365 59.9287 53.7772C59.682 51.9179 58.6884 49.065 55.3398 47.9503C51.9912 46.8356 46.6599 49.1883 46.0432 55.3876C45.4265 61.5868 49.2662 66.299 49.7618 66.5457C50.2575 66.7924 51.6212 67.6627 51.6212 67.6627C51.6212 67.6627 52.3658 70.7623 48.8939 73.3731C45.4219 75.9839 42.5827 78.3183 40.7257 77.4572C38.8686 76.5961 38.3684 72.6216 37.8727 70.8856C37.3771 69.1497 31.1778 65.8034 29.1929 56.0088C27.2079 46.2143 28.3249 36.1708 31.0522 29.9693C33.7795 23.7678 42.7015 16.2072 52.5006 14.2222C62.2997 12.2373 71.1051 16.4584 71.1051 16.4584Z" fill="#263238" stroke="#263238" stroke-width="0.266106" stroke-linecap="round" stroke-linejoin="round"/>
</svg>
