<svg width="129" height="129" viewBox="0 0 129 129" fill="none" xmlns="http://www.w3.org/2000/svg">
<rect width="128.8" height="128.8" rx="16" fill="#EAD2EE"/>
<path d="M66.7968 35.5681V36.0029H66.1538V39.377H65.6823C65.5598 39.132 65.3904 38.9075 65.1741 38.7034C64.9618 38.4952 64.7168 38.3196 64.4392 38.1767C64.1616 38.0339 63.8657 37.9379 63.5513 37.8889L63.3125 37.3011C63.7044 37.0643 64.1086 36.85 64.525 36.6581C64.9454 36.4662 65.3782 36.3029 65.8231 36.1682L65.6823 36.4254V36.0029H63.0247V35.5681H66.7968ZM65.6823 36.4744L65.8109 36.6459C65.5006 36.7479 65.1741 36.8745 64.8311 37.0255C64.4882 37.1725 64.1718 37.3358 63.882 37.5154C64.1024 37.5644 64.3372 37.6481 64.5862 37.7665C64.8352 37.8849 65.0659 38.0339 65.2782 38.2135C65.4904 38.3931 65.6537 38.6013 65.768 38.8381H65.7129C65.7048 38.7442 65.6966 38.6503 65.6884 38.5564C65.6844 38.4625 65.6823 38.3502 65.6823 38.2196V36.4744ZM68.4238 35.5681V36.0029H67.7809V39.377H67.3093V36.505C67.2604 36.3662 67.1869 36.2478 67.0889 36.1499C66.995 36.0519 66.8725 36.0029 66.7215 36.0029H66.6725V35.5681H66.7644C66.8623 35.5681 66.9644 35.6008 67.0705 35.6661C67.1767 35.7273 67.2624 35.8233 67.3277 35.9539C67.3236 35.9335 67.3196 35.8865 67.3155 35.8131C67.3114 35.7396 67.3093 35.6763 67.3093 35.6232V35.164H67.64L67.7747 35.5681H68.4238ZM69.1135 37.4542C69.3707 37.6093 69.6136 37.795 69.8422 38.0114C70.0749 38.2237 70.2851 38.4523 70.4729 38.6972C70.6648 38.9422 70.826 39.1851 70.9567 39.4259L70.5586 39.628C70.3913 39.3708 70.2239 39.1402 70.0565 38.9361C69.8932 38.7279 69.7116 38.536 69.5115 38.3604C69.3156 38.1849 69.0808 38.0134 68.8073 37.8461L69.1135 37.4542ZM68.8379 36.4009C68.8379 36.2335 68.8747 36.0886 68.9482 35.9662C69.0257 35.8396 69.1298 35.7416 69.2605 35.6722C69.3911 35.6028 69.5381 35.5681 69.7013 35.5681C69.8646 35.5681 70.0116 35.6028 70.1422 35.6722C70.2729 35.7416 70.3749 35.8396 70.4484 35.9662C70.526 36.0886 70.5648 36.2335 70.5648 36.4009C70.5648 36.5683 70.526 36.7153 70.4484 36.8418C70.3749 36.9684 70.2729 37.0663 70.1422 37.1357C70.0116 37.2051 69.8646 37.2398 69.7013 37.2398C69.5381 37.2398 69.3911 37.2051 69.2605 37.1357C69.1298 37.0663 69.0257 36.9704 68.9482 36.8479C68.8747 36.7214 68.8379 36.5724 68.8379 36.4009ZM69.2605 36.4009C69.2605 36.5397 69.3013 36.6479 69.3829 36.7255C69.4687 36.803 69.5748 36.8418 69.7013 36.8418C69.832 36.8418 69.9381 36.803 70.0198 36.7255C70.1014 36.6438 70.1422 36.5356 70.1422 36.4009C70.1422 36.2621 70.1014 36.156 70.0198 36.0825C69.9381 36.0049 69.832 35.9662 69.7013 35.9662C69.5748 35.9662 69.4687 36.007 69.3829 36.0886C69.3013 36.1662 69.2605 36.2703 69.2605 36.4009ZM75.5828 35.5681V36.0029H74.9399V39.377H74.4684V37.3256L74.5051 37.4848C74.4153 37.3542 74.3194 37.2501 74.2173 37.1725C74.1193 37.0949 74.0111 37.0561 73.8927 37.0561C73.8315 37.0561 73.7682 37.0684 73.7029 37.0929C73.6417 37.1133 73.5886 37.1541 73.5437 37.2154C73.5029 37.2766 73.4825 37.3705 73.4825 37.497C73.4825 37.5419 73.4825 37.5828 73.4825 37.6195C73.4866 37.6522 73.4906 37.6848 73.4947 37.7175L73.0967 37.7481C73.0804 37.5807 73.0355 37.4399 72.962 37.3256C72.8885 37.2072 72.7987 37.1174 72.6925 37.0561C72.5864 36.9949 72.4721 36.9643 72.3496 36.9643C72.2394 36.9643 72.1455 36.9867 72.0679 37.0316C71.9904 37.0725 71.9312 37.1296 71.8904 37.2031C71.8495 37.2725 71.8291 37.3521 71.8291 37.4419C71.8291 37.6052 71.8883 37.744 72.0067 37.8583C72.1292 37.9726 72.3006 38.0686 72.5211 38.1461L72.3557 38.5993C72.1598 38.538 71.9843 38.4543 71.8291 38.3482C71.674 38.2421 71.5515 38.1114 71.4617 37.9563C71.3719 37.8012 71.327 37.6215 71.327 37.4174C71.327 37.2337 71.3719 37.0766 71.4617 36.9459C71.5515 36.8112 71.672 36.7071 71.823 36.6336C71.974 36.5601 72.1394 36.5234 72.319 36.5234C72.5354 36.5234 72.7211 36.5642 72.8762 36.6459C73.0314 36.7234 73.1743 36.85 73.3049 37.0255L73.213 37.0316C73.2539 36.8969 73.3314 36.7949 73.4457 36.7255C73.5641 36.652 73.6866 36.6152 73.8131 36.6152C73.9601 36.6152 74.0867 36.6438 74.1928 36.701C74.2989 36.7581 74.4153 36.8398 74.5418 36.9459L74.4867 37.0378C74.4826 36.952 74.4786 36.8663 74.4745 36.7806C74.4704 36.6949 74.4684 36.6071 74.4684 36.5173V36.0029H70.9841V35.5681H75.5828ZM77.2144 35.5681V36.0029H76.5715V39.377H76.0999V36.505C76.051 36.3662 75.9775 36.2478 75.8795 36.1499C75.7856 36.0519 75.6631 36.0029 75.5121 36.0029H75.4631V35.5681H75.5549C75.6529 35.5681 75.755 35.6008 75.8611 35.6661C75.9673 35.7273 76.053 35.8233 76.1183 35.9539C76.1142 35.9335 76.1101 35.8865 76.1061 35.8131C76.102 35.7396 76.0999 35.6763 76.0999 35.6232V35.164H76.4306L76.5653 35.5681H77.2144Z" fill="#263238"/>
<path d="M47.1086 28.0191L42.3892 26.7437L43.4551 19.7475C43.5055 19.4158 43.4802 19.0771 43.3812 18.7566C43.2821 18.4361 43.1118 18.1422 42.8831 17.8968C42.6543 17.6515 42.373 17.461 42.0603 17.3398C41.7475 17.2185 41.4113 17.1696 41.077 17.1967L31.0557 18.0255C30.7652 18.049 30.4821 18.1296 30.2227 18.2625C29.9633 18.3955 29.7326 18.5782 29.5438 18.8003C29.3551 19.0225 29.2119 19.2796 29.1225 19.5571C29.0331 19.8345 28.9993 20.1269 29.0229 20.4174L29.7596 29.5938C29.8031 30.1354 30.0436 30.6423 30.4356 31.0186C30.8276 31.3948 31.3439 31.6144 31.8868 31.6358L39.599 31.9397C40.1448 31.9623 40.6797 31.7826 41.1012 31.435C41.5226 31.0875 41.8009 30.5966 41.8827 30.0565L42.083 28.7466L47.1086 28.0191Z" fill="white" stroke="#263238" stroke-width="0.230215" stroke-miterlimit="10"/>
<path d="M32.1578 24.611C31.8333 24.611 31.5791 24.533 31.3954 24.3768C31.2148 24.2207 31.1245 24.017 31.1245 23.766C31.1245 23.5027 31.2316 23.296 31.446 23.146L31.0234 23.1506V22.8337H31.9787C32.0124 22.8092 32.0399 22.7786 32.0614 22.7418C32.0859 22.702 32.0981 22.6576 32.0981 22.6086C32.0981 22.5658 32.0905 22.5244 32.0752 22.4846C32.0629 22.4448 32.0461 22.4096 32.0246 22.379H31.0234V22.0254H32.392C32.5574 22.0254 32.6737 22.0177 32.7411 22.0024C32.8084 21.9871 32.8574 21.9672 32.888 21.9427C32.9279 21.9121 32.9539 21.8784 32.9661 21.8417C32.9814 21.8019 32.9891 21.7605 32.9891 21.7177C32.9891 21.5217 32.8896 21.3242 32.6906 21.1252L32.9891 20.9277C33.133 21.0869 33.231 21.2308 33.283 21.3594C33.3351 21.485 33.3611 21.6136 33.3611 21.7452C33.3611 21.8034 33.3488 21.8753 33.3243 21.9611C33.3029 22.0437 33.2524 22.1188 33.1728 22.1861C33.0962 22.2535 33.0044 22.3025 32.8972 22.3331C32.7931 22.3637 32.6523 22.379 32.4747 22.379H32.392C32.438 22.4647 32.4609 22.5428 32.4609 22.6132C32.4609 22.6622 32.4548 22.7051 32.4426 22.7418C32.4334 22.7755 32.4196 22.8061 32.4012 22.8337H33.3335V23.1506L32.8835 23.146C32.9876 23.2042 33.0702 23.2868 33.1315 23.394C33.1958 23.5011 33.2279 23.6221 33.2279 23.7568C33.2279 24.0109 33.1376 24.2176 32.9569 24.3768C32.7794 24.533 32.513 24.611 32.1578 24.611ZM32.1762 24.2528C32.4211 24.2528 32.5957 24.2008 32.6998 24.0967C32.8069 23.9895 32.8605 23.8609 32.8605 23.7109C32.8605 23.5394 32.8023 23.4032 32.686 23.3021C32.5727 23.2011 32.4028 23.1506 32.1762 23.1506C31.9435 23.1506 31.7705 23.2042 31.6572 23.3113C31.547 23.4154 31.4919 23.5486 31.4919 23.7109C31.4919 23.8731 31.5485 24.0048 31.6618 24.1058C31.7751 24.2038 31.9466 24.2528 32.1762 24.2528Z" fill="#263238"/>
<path d="M35.7135 24.611C35.5513 24.611 35.4165 24.5804 35.3094 24.5192C35.2053 24.4579 35.1165 24.3799 35.043 24.285C34.9726 24.187 34.9068 24.0859 34.8455 23.9818C34.769 23.8471 34.7031 23.7461 34.648 23.6787C34.5929 23.6114 34.5409 23.5654 34.4919 23.5409C34.446 23.5165 34.3924 23.5042 34.3311 23.5042C34.227 23.5042 34.1459 23.5379 34.0877 23.6052C34.0326 23.6695 34.0051 23.7599 34.0051 23.8762C34.0051 23.9742 34.0265 24.0752 34.0694 24.1793C34.1122 24.2804 34.1689 24.3799 34.2393 24.4778L33.8811 24.6202C33.8106 24.5222 33.7525 24.409 33.7065 24.2804C33.6606 24.1518 33.6377 24.0216 33.6377 23.89C33.6377 23.7461 33.6683 23.619 33.7295 23.5088C33.7907 23.3986 33.8734 23.3128 33.9775 23.2516C34.0816 23.1873 34.198 23.1552 34.3265 23.1552C34.5164 23.1552 34.6664 23.1996 34.7766 23.2884C34.8869 23.3771 34.994 23.5134 35.0981 23.6971C35.1685 23.8165 35.2328 23.9175 35.291 24.0002C35.3492 24.0829 35.4135 24.1456 35.4839 24.1885C35.5574 24.2283 35.6477 24.2482 35.7549 24.2482C35.9141 24.2482 36.0258 24.1931 36.0901 24.0829C36.1575 23.9696 36.1912 23.8364 36.1912 23.6833C36.1912 23.469 36.1452 23.27 36.0534 23.0863C35.9646 22.9026 35.8436 22.7495 35.6906 22.627C35.5405 22.5015 35.3706 22.4188 35.1808 22.379H33.6468V22.0254H35.5987C35.764 22.0254 35.8789 22.0177 35.9432 22.0024C36.0105 21.9871 36.061 21.9672 36.0947 21.9427C36.1345 21.9121 36.1605 21.8784 36.1728 21.8417C36.1881 21.8019 36.1958 21.7605 36.1958 21.7177C36.1958 21.5217 36.0962 21.3242 35.8972 21.1252L36.1958 20.9277C36.3397 21.0869 36.4376 21.2308 36.4897 21.3594C36.5417 21.485 36.5678 21.6136 36.5678 21.7452C36.5678 21.8034 36.5555 21.8753 36.531 21.9611C36.5065 22.0437 36.456 22.1188 36.3795 22.1861C36.3182 22.2382 36.2478 22.2795 36.1682 22.3101C36.0917 22.3407 35.9952 22.3606 35.8789 22.3698C36.0962 22.5198 36.2646 22.7036 36.384 22.9209C36.5065 23.1383 36.5678 23.3802 36.5678 23.6466C36.5678 23.9466 36.4927 24.1824 36.3427 24.3538C36.1958 24.5253 35.986 24.611 35.7135 24.611Z" fill="#263238"/>
<path d="M35.9337 24.859C36.0653 24.859 36.1771 24.8789 36.2689 24.9187C36.3608 24.9616 36.445 25.0259 36.5215 25.1116C36.5981 25.2004 36.6777 25.3152 36.7604 25.4561C36.8859 25.3214 36.9487 25.153 36.9487 24.9509C36.9487 24.7427 36.9027 24.5559 36.8109 24.3906L37.114 24.239C37.1752 24.3278 37.2212 24.4334 37.2518 24.5559C37.2824 24.6784 37.2977 24.7947 37.2977 24.905C37.2977 25.0917 37.2625 25.2525 37.1921 25.3872C37.1247 25.525 37.0344 25.6382 36.9211 25.727C36.9732 25.8036 37.0252 25.8556 37.0773 25.8832C37.1293 25.9107 37.1967 25.9245 37.2793 25.9245C37.3038 25.9245 37.3344 25.9215 37.3712 25.9153C37.4079 25.9092 37.4324 25.9031 37.4447 25.897L37.5044 26.2047C37.4768 26.2169 37.4401 26.2261 37.3941 26.2322C37.3513 26.2414 37.313 26.246 37.2793 26.246C37.1293 26.246 37.0084 26.2169 36.9165 26.1587C36.8247 26.1006 36.7389 26.0103 36.6593 25.8878C36.5644 25.9306 36.4649 25.9613 36.3608 25.9796C36.2536 26.0011 36.148 26.0118 36.0439 26.0118C35.8724 26.0118 35.7331 25.9827 35.626 25.9245C35.5158 25.8694 35.4361 25.7959 35.3872 25.7041C35.3382 25.6122 35.3137 25.5142 35.3137 25.4101C35.3137 25.2387 35.3734 25.104 35.4928 25.006C35.6091 24.908 35.7561 24.859 35.9337 24.859ZM35.6627 25.4101C35.6627 25.4591 35.6734 25.5066 35.6949 25.5525C35.7163 25.5984 35.7576 25.6367 35.8189 25.6673C35.877 25.698 35.9612 25.7133 36.0715 25.7133C36.2399 25.7133 36.3884 25.6857 36.5169 25.6306C36.4312 25.4744 36.344 25.3566 36.2552 25.277C36.1664 25.1974 36.0653 25.1576 35.9521 25.1576C35.8602 25.1576 35.7898 25.1805 35.7408 25.2264C35.6887 25.2724 35.6627 25.3336 35.6627 25.4101Z" fill="#263238"/>
<path d="M38.2367 24.611C37.9979 24.611 37.805 24.5222 37.6581 24.3447C37.5111 24.1671 37.4376 23.9007 37.4376 23.5455C37.4376 23.2884 37.4881 23.0587 37.5892 22.8566C37.6902 22.6515 37.8372 22.4923 38.0301 22.379H37.4376V22.0254H39.6237C39.786 22.0254 39.9008 22.0177 39.9682 22.0024C40.0386 21.9871 40.0891 21.9672 40.1197 21.9427C40.1626 21.9121 40.1902 21.8784 40.2024 21.8417C40.2146 21.8019 40.2208 21.7605 40.2208 21.7177C40.2208 21.5217 40.1213 21.3242 39.9222 21.1252L40.2208 20.9277C40.3647 21.0869 40.4626 21.2308 40.5147 21.3594C40.5667 21.485 40.5928 21.6136 40.5928 21.7452C40.5928 21.8034 40.5805 21.8753 40.556 21.9611C40.5315 22.0437 40.481 22.1188 40.4045 22.1861C40.3647 22.2229 40.3142 22.2565 40.2529 22.2872C40.1947 22.3147 40.1243 22.3361 40.0417 22.3515C40.1733 22.4219 40.2698 22.5168 40.331 22.6362C40.3922 22.7525 40.4228 22.8765 40.4228 23.0082C40.4228 23.0419 40.4213 23.0725 40.4183 23.1001C40.5346 23.2715 40.5928 23.4751 40.5928 23.7109C40.5928 23.8915 40.556 24.0492 40.4825 24.1839C40.4121 24.3186 40.3157 24.4243 40.1932 24.5008C40.0707 24.5743 39.9299 24.611 39.7707 24.611C39.5839 24.611 39.4324 24.5804 39.316 24.5192C39.1997 24.4549 39.094 24.3492 38.9991 24.2023C38.895 24.3707 38.7787 24.4809 38.6501 24.533C38.5215 24.585 38.3837 24.611 38.2367 24.611ZM38.2873 24.2482C38.4404 24.2482 38.5613 24.1977 38.6501 24.0967C38.7389 23.9926 38.797 23.864 38.8246 23.7109H39.1736C39.2043 23.8976 39.2701 24.0339 39.3711 24.1196C39.4752 24.2053 39.5962 24.2482 39.7339 24.2482C39.8687 24.2482 39.9881 24.2069 40.0922 24.1242C40.1963 24.0415 40.2483 23.9022 40.2483 23.7063C40.2483 23.6236 40.2391 23.5425 40.2208 23.4629C40.1657 23.5241 40.0968 23.5731 40.0141 23.6098C39.9345 23.6466 39.8411 23.6649 39.7339 23.6649C39.5839 23.6649 39.4523 23.6251 39.339 23.5455C39.2288 23.4659 39.1736 23.3419 39.1736 23.1735C39.1736 23.0143 39.2257 22.898 39.3298 22.8245C39.437 22.7479 39.5594 22.7097 39.6972 22.7097C39.7707 22.7097 39.835 22.7173 39.8901 22.7326C39.9483 22.7449 40.0003 22.7617 40.0462 22.7832C39.985 22.6576 39.8717 22.5581 39.7064 22.4846C39.5441 22.4081 39.3528 22.3698 39.1323 22.3698H38.9716C38.7205 22.3698 38.5077 22.4219 38.3332 22.526C38.1617 22.627 38.0316 22.7663 37.9428 22.9439C37.8571 23.1184 37.8142 23.319 37.8142 23.5455C37.8142 23.7997 37.8556 23.9803 37.9382 24.0875C38.0209 24.1946 38.1372 24.2482 38.2873 24.2482ZM39.5181 23.1735C39.5181 23.3083 39.5977 23.3756 39.7569 23.3756C39.8151 23.3756 39.8763 23.3603 39.9406 23.3297C40.0049 23.296 40.0508 23.2378 40.0784 23.1552C40.0386 23.1062 39.9896 23.0664 39.9314 23.0358C39.8763 23.0051 39.812 22.9898 39.7385 22.9898C39.6742 22.9898 39.6207 23.0067 39.5778 23.0403C39.538 23.071 39.5181 23.1154 39.5181 23.1735Z" fill="#263238"/>
<path d="M39.4876 46.8513H35.4519C34.8459 44.9567 33.547 43.3608 31.8149 42.3827C30.0829 41.4045 28.0454 41.1163 26.1101 41.5757C24.1747 42.0351 22.4841 43.2082 21.3764 44.8603C20.2687 46.5125 19.8255 48.522 20.1356 50.4868C20.4456 52.4516 21.486 54.227 23.0486 55.4578C24.6112 56.6886 26.5809 57.2841 28.5637 57.1252C30.5465 56.9663 32.3962 56.0648 33.7429 54.6009C35.0896 53.1369 35.834 51.2186 35.8272 49.2294C35.8272 49.1696 35.8272 49.112 35.8272 49.0522L39.4876 46.8513Z" fill="white" stroke="#263238" stroke-width="0.230215" stroke-miterlimit="10"/>
<path d="M22.3218 49.8081C22.216 49.8081 22.1131 49.791 22.0131 49.7567C21.916 49.7196 21.8217 49.6624 21.7302 49.5853C21.6416 49.5052 21.5545 49.4009 21.4688 49.2723L21.7388 49.088C21.836 49.2338 21.9274 49.3381 22.0131 49.4009C22.0989 49.4638 22.196 49.4952 22.3046 49.4952C22.4218 49.4952 22.5175 49.4509 22.5918 49.3624C22.6661 49.2738 22.7033 49.128 22.7033 48.9251C22.7033 48.7051 22.6604 48.5465 22.5747 48.4493C22.4918 48.3493 22.3761 48.2993 22.2275 48.2993C22.1389 48.2993 22.0546 48.3107 21.9746 48.3336C21.8945 48.3536 21.8231 48.3808 21.7602 48.415L21.6531 48.1279C21.7474 48.0793 21.846 48.0436 21.9488 48.0207C22.0546 47.9978 22.1532 47.9864 22.2446 47.9864C22.4046 47.9864 22.5447 48.0207 22.6647 48.0893C22.7847 48.155 22.879 48.2579 22.9476 48.3979C23.0162 48.5351 23.0505 48.7122 23.0505 48.9294C23.0505 49.1123 23.0276 49.2609 22.9819 49.3752C22.939 49.4895 22.8819 49.5781 22.8104 49.641C22.739 49.7038 22.6604 49.7481 22.5747 49.7739C22.4889 49.7967 22.4046 49.8081 22.3218 49.8081ZM23.4748 50.7555V47.9864L23.8177 48.0336V50.7555H23.4748Z" fill="#263238"/>
<path d="M23.5318 51.7199C23.3461 51.7199 23.1775 51.6899 23.026 51.6299C22.8746 51.5727 22.736 51.4899 22.6102 51.3813C22.4845 51.2727 22.3645 51.1455 22.2502 50.9998L22.5159 50.8155C22.6274 50.9526 22.7345 51.0655 22.8374 51.1541C22.9374 51.2427 23.0432 51.307 23.1546 51.347C23.2661 51.3899 23.3918 51.4113 23.5318 51.4113C23.6918 51.4113 23.8076 51.3856 23.879 51.3341C23.9476 51.2855 23.9819 51.2127 23.9819 51.1155C23.9819 51.0298 23.9505 50.9655 23.8876 50.9226C23.8219 50.8826 23.739 50.8626 23.639 50.8626C23.5618 50.8626 23.4932 50.8698 23.4332 50.8841C23.3732 50.9012 23.3132 50.9255 23.2532 50.9569L23.1417 50.6697C23.216 50.6383 23.2946 50.614 23.3775 50.5969C23.4575 50.5797 23.5375 50.5711 23.6175 50.5711C23.8376 50.5711 24.0062 50.624 24.1233 50.7297C24.2405 50.8355 24.2991 50.9755 24.2991 51.1498C24.2991 51.3156 24.2348 51.4513 24.1062 51.557C23.9776 51.6656 23.7861 51.7199 23.5318 51.7199Z" fill="#263238"/>
<path d="M26.5795 50.614C26.3966 50.614 26.2494 50.5797 26.138 50.5111C26.0265 50.4397 25.9451 50.3482 25.8937 50.2368C25.8451 50.1253 25.8208 50.0082 25.8208 49.8853C25.8208 49.7339 25.8479 49.5924 25.9022 49.4609C25.9594 49.3295 26.0437 49.2023 26.1551 49.0795C26.2694 48.9537 26.4109 48.8265 26.5795 48.698C26.6824 48.6179 26.7838 48.5422 26.8838 48.4708C26.9838 48.3965 27.0896 48.3193 27.201 48.2393C27.3153 48.1593 27.4411 48.0736 27.5782 47.9821L27.7711 48.2607C27.634 48.3493 27.5068 48.4322 27.3896 48.5094C27.2725 48.5865 27.1596 48.6622 27.051 48.7365C26.9453 48.8108 26.8395 48.888 26.7338 48.968C26.5738 49.0852 26.4537 49.1966 26.3737 49.3023C26.2937 49.4081 26.2394 49.5081 26.2109 49.6024C26.1851 49.6967 26.1723 49.7896 26.1723 49.881C26.1723 50.0125 26.2037 50.1153 26.2666 50.1896C26.3294 50.2639 26.4309 50.3011 26.5709 50.3011C26.6909 50.3011 26.7867 50.2654 26.8581 50.1939C26.9295 50.1196 26.9653 50.0025 26.9653 49.8424C26.9653 49.6624 26.9324 49.4967 26.8667 49.3452C26.8038 49.1938 26.7124 49.0523 26.5923 48.9209C26.478 48.7865 26.3523 48.6722 26.2151 48.5779C26.078 48.4836 25.9279 48.4122 25.7651 48.3636C25.6022 48.3122 25.4236 48.2865 25.2293 48.2865C25.0435 48.2865 24.9106 48.3322 24.8306 48.4236C24.7506 48.5122 24.7106 48.6151 24.7106 48.7322C24.7106 48.8551 24.742 48.948 24.8049 49.0109C24.8678 49.0709 24.9478 49.1009 25.0449 49.1009C25.1764 49.1009 25.2693 49.0666 25.3236 48.998C25.3807 48.9294 25.4093 48.8337 25.4093 48.7108C25.4093 48.6194 25.3936 48.5336 25.3621 48.4536C25.3336 48.3736 25.2921 48.3022 25.2378 48.2393L25.5422 48.1922C25.5965 48.255 25.645 48.3307 25.6879 48.4193C25.7308 48.5079 25.7522 48.6137 25.7522 48.7365C25.7522 48.8165 25.7393 48.898 25.7136 48.9809C25.6908 49.0609 25.6522 49.1337 25.5979 49.1995C25.5436 49.2623 25.4707 49.3138 25.3793 49.3538C25.2907 49.3938 25.1792 49.4138 25.0449 49.4138C24.8992 49.4138 24.7763 49.3838 24.6763 49.3238C24.5763 49.2609 24.4991 49.178 24.4448 49.0752C24.3934 48.9694 24.3677 48.8537 24.3677 48.728C24.3677 48.5937 24.402 48.4708 24.4705 48.3593C24.5391 48.245 24.6391 48.155 24.7706 48.0893C24.9021 48.0207 25.0635 47.9864 25.255 47.9864C25.5779 47.9864 25.8665 48.0493 26.1208 48.175C26.378 48.2979 26.6109 48.4736 26.8195 48.7022C26.971 48.8708 27.091 49.0509 27.1796 49.2423C27.271 49.4338 27.3168 49.6353 27.3168 49.8467C27.3168 50.0896 27.2496 50.2782 27.1153 50.4125C26.9838 50.5468 26.8052 50.614 26.5795 50.614Z" fill="#263238"/>
<path d="M29.5169 50.5711C29.3597 50.5711 29.2168 50.5426 29.0882 50.4854C28.9625 50.4254 28.8482 50.3482 28.7453 50.2539C28.6453 50.1596 28.5538 50.0568 28.471 49.9453C28.3909 49.831 28.3166 49.7181 28.2481 49.6067L28.2824 49.4352C28.4109 49.4267 28.5367 49.3981 28.6596 49.3495C28.7853 49.3009 28.8882 49.2295 28.9682 49.1352C29.0511 49.0409 29.0925 48.9237 29.0925 48.7837C29.0925 48.6237 29.0439 48.5036 28.9468 48.4236C28.8496 48.3407 28.721 48.2993 28.561 48.2993C28.4581 48.2993 28.3609 48.3093 28.2695 48.3293C28.1809 48.3493 28.0866 48.3836 27.9866 48.4322L27.8751 48.1364C27.9809 48.0907 28.0923 48.055 28.2095 48.0293C28.3295 48.0007 28.4495 47.9864 28.5695 47.9864C28.7439 47.9864 28.8967 48.0164 29.0282 48.0764C29.1596 48.1364 29.2625 48.225 29.3368 48.3422C29.4111 48.4593 29.4483 48.6051 29.4483 48.7794C29.4483 48.9337 29.414 49.0723 29.3454 49.1952C29.2797 49.3152 29.1897 49.4181 29.0753 49.5038C28.961 49.5895 28.8339 49.6553 28.6939 49.701C28.5538 49.7439 28.4124 49.7653 28.2695 49.7653C28.138 49.7653 28.0395 49.7453 27.9737 49.7053C27.908 49.6653 27.8751 49.5981 27.8751 49.5038C27.8751 49.4324 27.8994 49.3781 27.948 49.3409C27.9966 49.3009 28.0595 49.2809 28.1366 49.2809C28.2109 49.2809 28.2838 49.2966 28.3552 49.3281C28.4267 49.3595 28.5095 49.4224 28.6038 49.5167H28.5481C28.6824 49.711 28.801 49.8624 28.9039 49.971C29.0096 50.0768 29.1139 50.1496 29.2168 50.1896C29.3197 50.2297 29.434 50.2497 29.5597 50.2497H29.6197L29.5811 50.5711H29.5169Z" fill="#263238"/>
<path d="M30.6841 50.5711C30.5612 50.5711 30.4598 50.5583 30.3798 50.5326C30.2998 50.504 30.234 50.464 30.1826 50.4125C30.134 50.364 30.0983 50.3039 30.0754 50.2325C30.0554 50.1611 30.0454 50.0625 30.0454 49.9367V47.9864L30.3883 48.0293V49.9196C30.3883 49.9996 30.3926 50.0568 30.4012 50.0911C30.4098 50.1253 30.4269 50.1568 30.4526 50.1854C30.4841 50.2225 30.5269 50.2439 30.5812 50.2497C30.6384 50.2554 30.6984 50.2582 30.7613 50.2582L30.727 50.5711H30.6841Z" fill="#263238"/>
<path d="M31.6899 50.5197C31.5613 50.4168 31.4427 50.3097 31.3341 50.1982C31.2284 50.0839 31.1427 49.9653 31.077 49.8424C31.0112 49.7196 30.9784 49.5895 30.9784 49.4524C30.9784 49.3409 30.9969 49.2423 31.0341 49.1566C31.0712 49.0709 31.1241 48.998 31.1927 48.938C31.2784 48.8637 31.3884 48.808 31.5227 48.7708C31.6599 48.7337 31.8542 48.7151 32.1057 48.7151H32.5858V49.028H32.08C31.9514 49.028 31.8485 49.0323 31.7714 49.0409C31.6942 49.0494 31.6328 49.0637 31.587 49.0837C31.5413 49.1009 31.4999 49.1237 31.4627 49.1523C31.4199 49.1866 31.387 49.2295 31.3641 49.2809C31.3413 49.3295 31.3299 49.3866 31.3299 49.4524C31.3299 49.5495 31.3527 49.6424 31.3984 49.731C31.447 49.8196 31.5156 49.9082 31.6042 49.9968C31.6928 50.0853 31.7971 50.1796 31.9171 50.2797L31.6899 50.5197ZM33.1345 50.5711C33.0116 50.5711 32.9087 50.5583 32.8258 50.5326C32.7458 50.504 32.6815 50.464 32.6329 50.4125C32.5872 50.364 32.5529 50.3039 32.5301 50.2325C32.5101 50.1611 32.5001 50.0625 32.5001 49.9367V47.9864L32.843 48.0336V49.9196C32.843 49.9968 32.8473 50.0539 32.8558 50.0911C32.8644 50.1253 32.8773 50.1539 32.8944 50.1768C32.9259 50.2168 32.9716 50.2411 33.0316 50.2497C33.0945 50.2554 33.1545 50.2582 33.2116 50.2582L33.1816 50.5711H33.1345Z" fill="#263238"/>
<path d="M34.2715 50.5711C34.1715 50.5711 34.0772 50.5611 33.9886 50.5411C33.9029 50.5183 33.83 50.4754 33.77 50.4125C33.7128 50.3554 33.6757 50.2882 33.6585 50.2111C33.6414 50.1339 33.6328 50.0425 33.6328 49.9367V47.9521C33.6128 47.8092 33.5842 47.6821 33.5471 47.5706C33.5099 47.4563 33.4671 47.3606 33.4185 47.2834C33.3699 47.2034 33.3156 47.1434 33.2556 47.1034C33.1985 47.0605 33.137 47.0391 33.0713 47.0391C32.9856 47.0391 32.9141 47.072 32.857 47.1377C32.797 47.2006 32.767 47.3034 32.767 47.4463C32.767 47.4863 32.7684 47.5292 32.7712 47.5749C32.7741 47.6206 32.7798 47.6649 32.7884 47.7078H32.4583C32.4498 47.6678 32.4426 47.6192 32.4369 47.562C32.4312 47.502 32.4283 47.4492 32.4283 47.4034C32.4283 47.192 32.4855 47.0277 32.5998 46.9105C32.7141 46.7905 32.8713 46.7305 33.0713 46.7305C33.1999 46.7305 33.3156 46.7633 33.4185 46.8291C33.5242 46.8948 33.6143 46.9848 33.6885 47.0991C33.7657 47.2106 33.8271 47.3391 33.8729 47.4849C33.9214 47.6278 33.9557 47.7792 33.9757 47.9393V49.9196C33.9757 49.9996 33.98 50.0553 33.9886 50.0868C33.9972 50.1182 34.0115 50.1482 34.0315 50.1768C34.0629 50.2168 34.1086 50.2411 34.1686 50.2497C34.2315 50.2554 34.2915 50.2582 34.3487 50.2582L34.3144 50.5711H34.2715Z" fill="#263238"/>
<path d="M91.4734 21.1035H85.3336C84.0923 21.1035 82.9018 21.5966 82.0241 22.4743C81.1464 23.3521 80.6533 24.5425 80.6533 25.7838V27.5127L77.5938 27.3953L80.6625 29.3982V30.6943C80.6625 31.9358 81.1555 33.1264 82.0332 34.0045C82.9108 34.8826 84.1013 35.3762 85.3428 35.3768H91.4826C92.7241 35.3762 93.9145 34.8826 94.7922 34.0045C95.6698 33.1264 96.1629 31.9358 96.1629 30.6943V25.7838C96.1629 25.1684 96.0415 24.559 95.8057 23.9906C95.5699 23.4222 95.2244 22.9058 94.7888 22.4711C94.3532 22.0364 93.8362 21.6918 93.2673 21.4571C92.6984 21.2225 92.0888 21.1023 91.4734 21.1035Z" fill="white" stroke="#263238" stroke-width="0.230215" stroke-miterlimit="10"/>
<path d="M85.5965 26.383H85.1498V29.1601H85.5965V26.383ZM84.93 26.5036H86.0999L86.0716 26.1609H84.9017L84.93 26.5036ZM85.6154 26.5036L85.5871 26.1609H83.0156L83.044 26.5036H85.6154ZM85.3436 27.6191H83.7554V27.9878H85.3436V27.6191ZM84.0555 26.3759H83.6112V27.8791H84.0555V26.3759ZM83.6372 28.7701H84.0555V27.6451H83.6136L83.3938 27.7775C83.4064 27.9082 83.4237 28.0288 83.4458 28.1391C83.4678 28.2494 83.4946 28.3557 83.5261 28.4581C83.5592 28.5606 83.5962 28.6645 83.6372 28.7701Z" fill="#263238"/>
<path d="M88.0349 26.5036L88.0066 26.1609H85.9031L85.9291 26.5036H88.0349ZM87.6497 29.1601V29.1412L87.203 28.4747C87.1431 28.388 87.0895 28.3148 87.0423 28.2549C86.995 28.195 86.9454 28.1391 86.8934 28.0871C86.8414 28.0335 86.7791 27.9728 86.7067 27.9051V27.7775L86.13 27.6286V28.0091L86.397 28.028L87.1203 29.1601H87.6497ZM87.3566 26.4185H86.8721C86.9745 26.4862 87.0509 26.5737 87.1014 26.6808C87.1518 26.788 87.177 26.9124 87.177 27.0542V27.0755C87.177 27.2599 87.1226 27.3985 87.0139 27.4915C86.9068 27.5829 86.7334 27.6286 86.4939 27.6286H86.13L86.4041 27.9949L86.6192 27.9925C86.9658 27.9847 87.2211 27.9082 87.385 27.7633C87.5504 27.6167 87.6331 27.4001 87.6331 27.1133V27.0897C87.6331 26.9463 87.6103 26.8163 87.5646 26.6997C87.5189 26.5816 87.4496 26.4878 87.3566 26.4185Z" fill="#263238"/>
<path d="M88.7619 29.1601V26.383H88.3128V29.1601H88.7619ZM89.263 26.5036L89.2346 26.1609H87.8071L87.8425 26.5036H89.263Z" fill="#263238"/>
<path d="M90.5021 26.5036H91.6153L91.5869 26.1609H90.4738L90.5021 26.5036ZM91.1733 26.383H90.7432V26.9101L91.1733 26.9124V26.383ZM89.0817 26.1609L89.11 26.5036H92.0833L92.0549 26.1609H89.0817ZM90.7385 26.3712V27.3426L91.1757 27.3639V26.3712H90.7385ZM91.1095 27.1251L90.8377 27.4229C90.989 27.4608 91.0993 27.5309 91.1686 27.6333C91.2395 27.7341 91.275 27.8878 91.275 28.0942V28.1533C91.275 28.3864 91.2175 28.5558 91.1024 28.6614C90.989 28.767 90.8157 28.8197 90.5825 28.8197C90.3461 28.8197 90.1697 28.767 90.0531 28.6614C89.938 28.5543 89.8805 28.3849 89.8805 28.1533V28.08C89.8805 27.8531 89.9396 27.6877 90.0578 27.5837C90.176 27.4781 90.3572 27.4253 90.6014 27.4253C90.666 27.4253 90.7282 27.4285 90.7881 27.4348C90.8495 27.4395 90.911 27.4482 90.9724 27.4608C91.0355 27.4734 91.1016 27.4907 91.171 27.5128V27.1299C91.0528 27.1047 90.9449 27.0873 90.8472 27.0779C90.7495 27.0668 90.6502 27.0613 90.5494 27.0613C90.1744 27.0613 89.8916 27.1441 89.7009 27.3095C89.5118 27.4734 89.4173 27.7302 89.4173 28.08V28.1533C89.4173 28.5093 89.5158 28.7725 89.7127 28.9426C89.9112 29.1112 90.2004 29.1955 90.5801 29.1955C90.9693 29.1955 91.2592 29.112 91.4499 28.945C91.6421 28.778 91.7382 28.5164 91.7382 28.1603V28.0894C91.7382 27.9114 91.7154 27.7601 91.6697 27.6357C91.624 27.5096 91.5546 27.4056 91.4617 27.3237C91.3687 27.2402 91.2513 27.174 91.1095 27.1251Z" fill="#263238"/>
<path d="M92.838 29.1601V26.383H92.3889V29.1601H92.838ZM93.339 26.5036L93.3106 26.1609H91.8831L91.9186 26.5036H93.339ZM91.7531 24.9531C91.4175 24.9531 91.1638 25.0193 90.9921 25.1517C90.8188 25.2824 90.7321 25.4589 90.7321 25.6811C90.7321 25.7189 90.7345 25.7575 90.7392 25.7969C90.7424 25.8363 90.7479 25.8772 90.7557 25.9198L91.1623 25.9671V25.8063C91.1623 25.644 91.2135 25.5211 91.3159 25.4376C91.4183 25.3541 91.568 25.3124 91.7649 25.3124C91.9682 25.3124 92.1234 25.3596 92.2305 25.4542C92.3393 25.5487 92.3936 25.6992 92.3936 25.9056V26.2105H92.8214V25.8938C92.8214 25.5755 92.73 25.3392 92.5472 25.1847C92.366 25.0303 92.1013 24.9531 91.7531 24.9531Z" fill="#263238"/>
<path d="M103.002 43.4393L91.0672 44.1805C90.3922 44.2225 89.7592 44.5224 89.2993 45.0183C88.8395 45.5141 88.588 46.1679 88.597 46.8441L88.6568 51.6395L85.1875 52.0078L88.6845 53.8127C88.6893 54.1596 88.7625 54.5021 88.9 54.8205C89.0376 55.139 89.2367 55.4271 89.4859 55.6684C89.7351 55.9097 90.0295 56.0994 90.3522 56.2266C90.675 56.3538 91.0196 56.4159 91.3665 56.4095L102.953 56.1977C103.626 56.1853 104.268 55.916 104.748 55.4452C105.228 54.9743 105.51 54.3375 105.536 53.6654L105.803 46.1696C105.818 45.801 105.755 45.4334 105.618 45.0907C105.482 44.7481 105.275 44.4379 105.01 44.1805C104.746 43.923 104.431 43.724 104.085 43.5963C103.739 43.4686 103.37 43.4151 103.002 43.4393Z" fill="white" stroke="#263238" stroke-width="0.230215" stroke-miterlimit="10"/>
<path d="M91.7846 50.1704C91.5854 50.1704 91.4061 50.1389 91.2467 50.0758C91.0873 50.0127 90.9611 49.9197 90.8682 49.7969C90.7752 49.674 90.7287 49.5263 90.7287 49.3536C90.7287 49.1743 90.7752 49.0199 90.8682 48.8904C90.9645 48.7576 91.1155 48.6563 91.3214 48.5866C91.5272 48.5136 91.7995 48.477 92.1382 48.477H92.8603C93.1492 48.477 93.4065 48.5136 93.6323 48.5866C93.8581 48.6563 94.0341 48.7742 94.1602 48.9402C94.2897 49.1062 94.3545 49.3337 94.3545 49.6226C94.3545 49.845 94.313 50.0309 94.23 50.1804C94.147 50.3331 94.0291 50.4659 93.8764 50.5788C93.7668 50.6552 93.6423 50.7166 93.5028 50.7631C93.3667 50.8096 93.209 50.8411 93.0297 50.8577C92.8504 50.8776 92.6412 50.8876 92.4021 50.8876H91.8394C91.6999 50.8876 91.592 50.8976 91.5156 50.9175C91.4393 50.9374 91.3729 50.9656 91.3164 51.0021C91.2633 51.0387 91.2218 51.0901 91.1919 51.1565C91.162 51.2229 91.1471 51.3109 91.1471 51.4205C91.1471 51.4703 91.1487 51.5168 91.1521 51.56C91.1554 51.6064 91.1587 51.6496 91.162 51.6894L90.7536 51.7094C90.7437 51.6496 90.7354 51.5832 90.7287 51.5101C90.7221 51.4404 90.7188 51.3773 90.7188 51.3209C90.7188 51.1748 90.7453 51.0503 90.7984 50.9474C90.8516 50.8477 90.9196 50.7664 91.0026 50.7033C91.0624 50.6601 91.1238 50.6253 91.1869 50.5987C91.2533 50.5755 91.328 50.5572 91.411 50.5439C91.4974 50.534 91.5953 50.529 91.7049 50.529H92.2478C92.5433 50.529 92.7856 50.5157 92.9749 50.4892C93.1642 50.4659 93.3169 50.4277 93.4331 50.3746C93.5493 50.3248 93.6456 50.2584 93.722 50.1754C93.7884 50.1023 93.8382 50.0177 93.8714 49.9214C93.9079 49.8218 93.9262 49.7105 93.9262 49.5877C93.9262 49.425 93.893 49.2938 93.8266 49.1942C93.7635 49.0946 93.6771 49.0183 93.5676 48.9651C93.4613 48.912 93.3418 48.8755 93.209 48.8556C93.0795 48.8356 92.9467 48.8257 92.8105 48.8257H92.1033C91.934 48.8257 91.7895 48.8356 91.67 48.8556C91.5538 48.8755 91.4542 48.9087 91.3712 48.9552C91.2981 48.9983 91.2434 49.0515 91.2068 49.1145C91.1736 49.1743 91.157 49.2523 91.157 49.3486C91.157 49.5014 91.2201 49.6176 91.3463 49.6973C91.4725 49.7736 91.6318 49.8118 91.8244 49.8118C91.9705 49.8118 92.095 49.7902 92.1979 49.7471C92.3042 49.7006 92.3855 49.6226 92.442 49.513C92.5018 49.4001 92.5316 49.2457 92.5316 49.0498V47.7101H91.675V48.6065L91.2815 48.6862V47.3515H93.8863V47.7101H92.955V48.9851C92.955 49.2075 92.9351 49.3818 92.8952 49.508C92.8587 49.6342 92.8056 49.7404 92.7358 49.8268C92.6329 49.9529 92.5001 50.0426 92.3374 50.0957C92.178 50.1455 91.9937 50.1704 91.7846 50.1704Z" fill="#263238"/>
<path d="M97.4832 47.2917C97.7322 47.2917 97.9364 47.3564 98.0958 47.4859C98.2552 47.6121 98.373 47.7897 98.4494 48.0188C98.5258 48.2446 98.5639 48.5069 98.5639 48.8058C98.5639 49.0382 98.539 49.2374 98.4892 49.4034C98.4394 49.5694 98.3597 49.7056 98.2502 49.8118C98.1738 49.8882 98.0858 49.9479 97.9862 49.9911C97.8866 50.0343 97.7687 50.0658 97.6326 50.0857C97.4998 50.1023 97.3371 50.1106 97.1445 50.1106H95.0328V47.3515H95.4611V49.752H96.5867V48.3426C96.5867 48.1367 96.605 47.974 96.6415 47.8545C96.6813 47.7316 96.7378 47.6287 96.8108 47.5457C96.8872 47.4627 96.9785 47.3996 97.0848 47.3564C97.191 47.3133 97.3238 47.2917 97.4832 47.2917ZM97.4732 47.6503C97.4168 47.6503 97.362 47.6603 97.3089 47.6802C97.2557 47.6968 97.2109 47.725 97.1744 47.7648C97.1213 47.8246 97.0814 47.8993 97.0549 47.989C97.0283 48.0753 97.015 48.2214 97.015 48.4272V49.752H97.2491C97.4749 49.752 97.6509 49.7205 97.777 49.6574C97.9032 49.5943 97.9929 49.4914 98.046 49.3486C98.0991 49.2059 98.1257 49.0166 98.1257 48.7809C98.1257 48.5684 98.1024 48.3774 98.0559 48.2081C98.0128 48.0388 97.9431 47.9043 97.8468 47.8047C97.7538 47.7018 97.6293 47.6503 97.4732 47.6503Z" fill="#263238"/>
<path d="M98.4763 45.9121C98.6556 45.9121 98.8183 45.942 98.9644 46.0018C99.1138 46.0582 99.2449 46.1445 99.3578 46.2607C99.4342 46.3371 99.5006 46.4334 99.557 46.5496C99.6135 46.6625 99.6567 46.8103 99.6865 46.9929C99.7197 47.1722 99.7363 47.3996 99.7363 47.6752V50.1106H99.308V47.7648C99.308 47.5258 99.2964 47.3282 99.2732 47.1722C99.2532 47.0161 99.2234 46.8883 99.1835 46.7887C99.1437 46.6857 99.0955 46.6011 99.0391 46.5347C98.9693 46.4483 98.8863 46.3853 98.7901 46.3454C98.6904 46.3056 98.5825 46.2856 98.4663 46.2856C98.3235 46.2856 98.2024 46.3139 98.1027 46.3703C98.0031 46.4234 97.9284 46.4998 97.8786 46.5994C97.8255 46.6957 97.7989 46.8086 97.7989 46.9381C97.7989 47.0311 97.8122 47.1323 97.8388 47.2419C97.8653 47.3481 97.9069 47.4494 97.9633 47.5457H97.5101C97.4669 47.4461 97.4337 47.3465 97.4105 47.2469C97.3839 47.1473 97.3706 47.046 97.3706 46.9431C97.3706 46.7638 97.4005 46.6094 97.4603 46.4799C97.52 46.3504 97.6014 46.2441 97.7043 46.1611C97.8072 46.0781 97.9251 46.0167 98.0579 45.9769C98.1907 45.9337 98.3302 45.9121 98.4763 45.9121Z" fill="#263238"/>
<path d="M103.062 47.2917C103.311 47.2917 103.515 47.3564 103.674 47.4859C103.834 47.6121 103.952 47.7897 104.028 48.0188C104.104 48.2446 104.143 48.5069 104.143 48.8058C104.143 49.0382 104.118 49.2374 104.068 49.4034C104.018 49.5694 103.938 49.7056 103.829 49.8118C103.753 49.8882 103.665 49.9479 103.565 49.9911C103.465 50.0343 103.347 50.0658 103.211 50.0857C103.078 50.1023 102.916 50.1106 102.723 50.1106H100.611V47.3515H101.04V49.752H102.165V48.3426C102.165 48.1367 102.184 47.974 102.22 47.8545C102.26 47.7316 102.316 47.6287 102.39 47.5457C102.466 47.4627 102.557 47.3996 102.663 47.3564C102.77 47.3133 102.903 47.2917 103.062 47.2917ZM103.052 47.6503C102.995 47.6503 102.941 47.6603 102.888 47.6802C102.834 47.6968 102.79 47.725 102.753 47.7648C102.7 47.8246 102.66 47.8993 102.634 47.989C102.607 48.0753 102.594 48.2214 102.594 48.4272V49.752H102.828C103.054 49.752 103.23 49.7205 103.356 49.6574C103.482 49.5943 103.572 49.4914 103.625 49.3486C103.678 49.2059 103.704 49.0166 103.704 48.7809C103.704 48.5684 103.681 48.3774 103.635 48.2081C103.591 48.0388 103.522 47.9043 103.425 47.8047C103.332 47.7018 103.208 47.6503 103.052 47.6503ZM101.269 50.4144C101.325 50.4144 101.383 50.4161 101.443 50.4194C101.506 50.4261 101.564 50.4327 101.618 50.4393L101.578 50.773C101.545 50.7664 101.508 50.7614 101.468 50.7581C101.428 50.7581 101.383 50.7581 101.334 50.7581C101.211 50.7581 101.11 50.778 101.03 50.8179C100.953 50.861 100.915 50.9324 100.915 51.032C100.915 51.1217 100.947 51.1897 101.01 51.2362C101.076 51.286 101.158 51.3192 101.254 51.3358C101.354 51.3524 101.452 51.3607 101.548 51.3607H101.672C101.842 51.3607 101.983 51.3408 102.096 51.301C102.209 51.2611 102.302 51.2047 102.375 51.1316C102.448 51.0586 102.509 50.9706 102.559 50.8677C102.589 50.8112 102.619 50.7647 102.649 50.7282C102.678 50.695 102.72 50.6684 102.773 50.6485C102.829 50.6319 102.909 50.6203 103.012 50.6137L103.386 50.6734C103.243 50.7033 103.138 50.7465 103.072 50.8029C103.009 50.8627 102.959 50.9341 102.922 51.0171C102.849 51.1565 102.761 51.2777 102.658 51.3807C102.559 51.4869 102.428 51.5683 102.265 51.6247C102.106 51.6811 101.896 51.7094 101.637 51.7094H101.513C101.36 51.7094 101.212 51.6911 101.07 51.6546C100.927 51.6214 100.812 51.5749 100.726 51.5151C100.663 51.4686 100.607 51.4056 100.557 51.3259C100.51 51.2462 100.487 51.1499 100.487 51.037C100.487 50.8444 100.558 50.6917 100.701 50.5788C100.847 50.4692 101.036 50.4144 101.269 50.4144ZM102.907 50.9374L102.823 50.8926C102.7 50.866 102.589 50.8228 102.489 50.7631C102.393 50.7033 102.316 50.6203 102.26 50.5141C102.204 50.4078 102.172 50.2733 102.165 50.1106H102.589C102.592 50.2069 102.609 50.2883 102.639 50.3547C102.672 50.4244 102.725 50.4775 102.798 50.5141C102.844 50.534 102.899 50.5489 102.962 50.5589C103.029 50.5722 103.113 50.5788 103.216 50.5788H103.854V50.9374H102.907ZM102.315 46.7339C102.219 46.7339 102.139 46.704 102.076 46.6442C102.013 46.5812 101.981 46.4998 101.981 46.4002C101.981 46.3039 102.013 46.2242 102.076 46.1611C102.139 46.098 102.219 46.0665 102.315 46.0665C102.411 46.0665 102.491 46.098 102.554 46.1611C102.617 46.2242 102.649 46.3039 102.649 46.4002C102.649 46.4998 102.617 46.5812 102.554 46.6442C102.491 46.704 102.411 46.7339 102.315 46.7339Z" fill="#263238"/>
<path d="M75.1417 40.0913C75.1417 38.8373 74.8947 37.5955 74.4148 36.4369C73.9349 35.2784 73.2315 34.2257 72.3447 33.3389C71.458 32.4522 70.4053 31.7488 69.2467 31.2689C68.0881 30.789 66.8464 30.542 65.5924 30.542H62.2681C59.7354 30.542 57.3065 31.5481 55.5157 33.3389C53.7248 35.1298 52.7188 37.5587 52.7188 40.0913" stroke="#263238" stroke-width="0.690644" stroke-linecap="round" stroke-linejoin="round"/>
<path d="M75.1406 47.163V40.0908" stroke="#263238" stroke-width="1.38129" stroke-linecap="round" stroke-linejoin="round"/>
<path d="M52.7188 40.0908V47.163" stroke="#263238" stroke-width="1.38129" stroke-linecap="round" stroke-linejoin="round"/>
<path d="M59.5769 57.7741C59.5769 57.7741 60.1731 61.9387 60.0534 63.0092C59.9337 64.0797 59.6966 65.1502 56.7222 63.96C53.7479 62.7698 48.3954 64.9131 44.9444 69.0754C41.4935 73.2377 34.9531 87.1587 34.9531 88.8232C34.9531 90.4876 36.2607 92.7368 38.6366 93.1052C41.0124 93.4735 46.6066 86.6822 46.6066 86.6822C46.6066 86.6822 48.9847 100.124 48.9847 101.186C48.9847 102.247 47.9188 109.275 47.9188 109.275H81.5854L80.2755 100.592L82.6559 81.4379C82.6559 81.4379 92.5298 94.8801 94.6708 95.481C96.8118 96.0819 100.143 95.0045 100.976 92.5066C101.81 90.0088 100.5 87.3913 98.8331 85.4874C97.1664 83.5835 86.7008 66.8101 84.79 65.2653C82.8792 63.7206 77.5336 63.5986 75.6298 64.0751C73.7259 64.5517 70.5144 65.2653 69.681 64.7888C68.8476 64.3122 68.8499 59.7931 69.681 57.7695C69.6879 57.7741 62.4316 59.678 59.5769 57.7741Z" fill="#FBD362" stroke="#263238" stroke-width="0.230215" stroke-linecap="round" stroke-linejoin="round"/>
<path d="M54.9219 93.9961C55.3057 94.1442 55.6968 94.2725 56.0937 94.3805" stroke="#263238" stroke-width="0.230215" stroke-linecap="round" stroke-linejoin="round"/>
<path d="M48.7891 86.3643C48.7891 86.3643 49.3186 90.987 53.6742 93.4088" stroke="#263238" stroke-width="0.230215" stroke-linecap="round" stroke-linejoin="round"/>
<path d="M62.3359 72.8252L64.6519 76.2093" stroke="#263238" stroke-width="0.230215" stroke-linecap="round" stroke-linejoin="round"/>
<path d="M85.2344 76.0596L85.8467 74.7842" stroke="#263238" stroke-width="0.230215" stroke-linecap="round" stroke-linejoin="round"/>
<path d="M84.2447 74.4277L82.6562 81.447L84.6085 77.3745" stroke="#263238" stroke-width="0.230215" stroke-linecap="round" stroke-linejoin="round"/>
<path d="M91.375 87.0754C91.375 87.0754 93.8889 85.4639 96.3638 85.4639" stroke="#263238" stroke-width="0.230215" stroke-linecap="round" stroke-linejoin="round"/>
<path d="M86.2628 91.9033C87.857 91.0415 89.3805 90.0546 90.8188 88.952C92.8849 87.3662 95.4797 86.6314 98.0705 86.8985C100.444 87.154 101.729 90.1054 101.791 93.059C101.853 96.0127 100.251 97.8061 97.3638 98.255C94.4769 98.7039 91.0743 98.0639 88.9586 97.5505C87.8388 97.2661 86.7025 97.0516 85.5561 96.9082C85.5561 96.9082 82.7981 92.6723 86.2628 91.9033Z" fill="white" stroke="#263238" stroke-width="0.230215" stroke-linecap="round" stroke-linejoin="round"/>
<path d="M101.787 93.059C101.724 90.1054 100.44 87.154 98.0662 86.8985C95.4754 86.6314 92.8806 87.3662 90.8145 88.952L90.4922 89.1983C93.2548 89.2927 98.8398 90.4208 97.965 98.1353C100.47 97.5344 101.846 95.7963 101.787 93.059Z" fill="#FBD362" stroke="#263238" stroke-width="0.230215" stroke-linecap="round" stroke-linejoin="round"/>
<path d="M59.5724 57.7742C59.5724 57.7742 60.1686 61.9388 60.0489 63.0093C59.9591 63.8127 59.8026 64.6208 58.4766 64.4642C60.3735 67.5652 65.8826 74.8446 71.0233 64.9247C70.4247 64.9615 69.9413 64.9247 69.6834 64.7819C68.8523 64.3054 68.8523 59.7863 69.6834 57.7627C69.6834 57.7742 62.427 59.6781 59.5724 57.7742Z" fill="white" stroke="#263238" stroke-width="0.230215" stroke-linecap="round" stroke-linejoin="round"/>
<path d="M59.5781 57.7744C59.5781 57.7744 59.7324 58.8564 59.8682 60.0581C61.2485 60.7892 62.774 61.2044 64.3344 61.2737C66.0585 61.3012 67.7513 60.8113 69.1942 59.8671C69.2711 59.1516 69.4373 58.4485 69.6892 57.7744C69.6892 57.7744 62.4328 59.6783 59.5781 57.7744Z" fill="#263238" stroke="#263238" stroke-width="0.230215" stroke-linecap="round" stroke-linejoin="round"/>
<path d="M53.0375 43.377H52.3814C51.5753 43.377 50.9219 44.0304 50.9219 44.8365V50.4215C50.9219 51.2276 51.5753 51.8811 52.3814 51.8811H53.0375C53.8436 51.8811 54.4971 51.2276 54.4971 50.4215V44.8365C54.4971 44.0304 53.8436 43.377 53.0375 43.377Z" fill="#263238" stroke="#263238" stroke-width="0.230215" stroke-linecap="round" stroke-linejoin="round"/>
<path d="M53.0758 43.3838C53.0229 43.3838 52.9676 43.3838 52.9124 43.3838H52.5072C52.452 43.3838 52.399 43.3838 52.3438 43.3838V51.8741C52.399 51.8741 52.452 51.8741 52.5072 51.8741H52.9124C52.9676 51.8741 53.0229 51.8741 53.0758 51.8741V43.3838Z" fill="white" stroke="#263238" stroke-width="0.230215" stroke-linecap="round" stroke-linejoin="round"/>
<path d="M75.5375 43.377H74.8814C74.0753 43.377 73.4219 44.0304 73.4219 44.8365V50.4215C73.4219 51.2276 74.0753 51.8811 74.8814 51.8811H75.5375C76.3436 51.8811 76.9971 51.2276 76.9971 50.4215V44.8365C76.9971 44.0304 76.3436 43.377 75.5375 43.377Z" fill="#263238" stroke="#263238" stroke-width="0.230215" stroke-linecap="round" stroke-linejoin="round"/>
<path d="M75.5758 43.3838C75.5229 43.3838 75.4676 43.3838 75.4124 43.3838H75.0072C74.952 43.3838 74.8967 43.3838 74.8438 43.3838V51.8741C74.8967 51.8741 74.952 51.8741 75.0072 51.8741H75.4124C75.4676 51.8741 75.5229 51.8741 75.5758 51.8741V43.3838Z" fill="white" stroke="#263238" stroke-width="0.230215" stroke-linecap="round" stroke-linejoin="round"/>
<path d="M47.0885 50.0923C46.8098 50.1175 46.5419 50.2121 46.3091 50.3673C46.0763 50.5225 45.886 50.7334 45.7555 50.9809C45.2214 51.8695 43.534 55.157 43.7112 56.1354C43.8885 57.1138 51.2646 64.0433 51.2646 64.4876C51.2646 64.9319 45.401 72.9296 41.4897 76.4841C37.5783 80.0386 34.4704 84.0351 33.9363 87.2351C33.4022 90.4351 35.2693 93.0987 37.2261 93.6328C39.1829 94.1669 41.5794 93.0112 44.3328 89.5442C47.0862 86.0771 54.6418 70.9727 55.7975 65.8321C55.7975 65.8321 56.0623 63.5299 54.9964 62.1878C53.9305 60.8456 51.2646 57.7446 51.2646 57.7446C51.2646 57.7446 51.7987 51.614 51.3544 51.1697C50.91 50.7254 50.4657 51.7038 50.4657 51.7038C50.4657 51.7038 50.0536 49.648 49.4873 49.7469C48.868 49.8575 48.6885 50.6356 48.6885 50.6356C48.6885 50.6356 48.2442 48.8468 47.0885 50.0923Z" fill="white" stroke="#263238" stroke-width="0.230215" stroke-linecap="round" stroke-linejoin="round"/>
<path d="M50.4643 51.6914C50.4643 51.6914 49.1889 56.7953 49.3132 57.6563" stroke="#263238" stroke-width="0.230215" stroke-linecap="round" stroke-linejoin="round"/>
<path d="M48.6859 50.624C48.6859 50.624 47.3346 55.5875 47.1619 56.2781C47.1044 56.504 47.094 56.7393 47.1312 56.9693C47.1684 57.1994 47.2525 57.4194 47.3783 57.6156" stroke="#263238" stroke-width="0.230215" stroke-linecap="round" stroke-linejoin="round"/>
<path d="M47.0882 50.0918C47.0882 50.0918 45.1797 55.4144 45.1797 55.9761C45.1797 56.5378 45.6125 57.2262 45.6125 57.2262" stroke="#263238" stroke-width="0.230215" stroke-linecap="round" stroke-linejoin="round"/>
<path d="M45.3895 72.333C44.1747 73.7921 42.8724 75.1759 41.4897 76.4769C37.576 80.0291 34.4704 84.0279 33.9363 87.2279C33.4022 90.4279 35.2693 93.0915 37.2261 93.6256C39.1829 94.1597 41.5794 93.004 44.3328 89.537C45.919 87.5433 49.0914 81.6958 51.7204 76.1085C47.7147 75.0449 46.0617 73.3874 45.3895 72.333Z" fill="#FBD362" stroke="#263238" stroke-width="0.230215" stroke-linecap="round" stroke-linejoin="round"/>
<path d="M54.4152 38.9703C54.4152 38.9703 54.2609 51.3397 54.7259 53.6603C55.191 55.9809 59.3648 59.9221 64.1647 60.0764C68.9647 60.2306 72.7471 55.8243 73.2099 53.5038C73.6726 51.1832 73.2099 41.9079 73.1339 38.1968C73.0579 34.4857 67.7216 31.1614 62.3138 32.0109C56.9061 32.8604 54.1067 36.0305 54.4152 38.9703Z" fill="white" stroke="#263238" stroke-width="0.230215" stroke-linecap="round" stroke-linejoin="round"/>
<path d="M66.1697 43.9961C66.1697 43.9961 66.4782 46.1601 66.789 46.6228C67.0998 47.0856 67.6385 47.7072 66.5588 48.1699C65.4791 48.6326 64.625 48.0916 64.625 47.5506" stroke="#263238" stroke-width="0.230215" stroke-linecap="round" stroke-linejoin="round"/>
<path d="M67.3285 51.6484C67.3285 51.6484 63.1524 52.1825 61.2969 50.3408C61.2969 50.3408 61.7573 53.2024 63.1524 53.6674C64.5475 54.1325 67.3285 51.6484 67.3285 51.6484Z" fill="white" stroke="#263238" stroke-width="0.230215" stroke-linecap="round" stroke-linejoin="round"/>
<path d="M61.9219 44.0713L62.3086 45.3075" stroke="#263238" stroke-width="0.230215" stroke-linecap="round" stroke-linejoin="round"/>
<path d="M60.2188 45.2324C60.2188 45.2324 61.3008 45.9231 63.3105 45.3084" stroke="#263238" stroke-width="0.460429" stroke-linecap="round" stroke-linejoin="round"/>
<path d="M69.5 44.0713L69.8868 45.3075" stroke="#263238" stroke-width="0.230215" stroke-linecap="round" stroke-linejoin="round"/>
<path d="M67.7969 45.2324C67.7969 45.2324 68.8789 45.9231 70.891 45.3084" stroke="#263238" stroke-width="0.460429" stroke-linecap="round" stroke-linejoin="round"/>
<path d="M59.6719 41.9082C60.0498 41.4042 60.5398 40.9951 61.1033 40.7134C61.6667 40.4317 62.288 40.2851 62.9179 40.2852" stroke="#263238" stroke-width="0.460429" stroke-linecap="round" stroke-linejoin="round"/>
<path d="M67.0938 40.1277C67.0938 40.1277 69.336 39.5107 70.8831 41.2788" stroke="#263238" stroke-width="0.460429" stroke-linecap="round" stroke-linejoin="round"/>
<path d="M64.2108 43.4336C64.4072 43.769 64.5084 44.1516 64.5036 44.5402C64.4987 44.9288 64.3879 45.3088 64.1831 45.6391L64.1394 45.7082C63.8163 46.2272 63.3662 46.6554 62.8317 46.9522C62.2972 47.2491 61.6959 47.4049 61.0844 47.4048H60.601C60.1096 47.4047 59.6268 47.2756 59.201 47.0304C58.7752 46.7852 58.4212 46.4324 58.1745 46.0074C57.9936 45.6959 57.8874 45.3467 57.8642 44.9872C57.841 44.6277 57.9015 44.2677 58.041 43.9355C58.2087 43.5361 58.4846 43.1915 58.8377 42.9405C59.1908 42.6896 59.6069 42.5422 60.0393 42.5151L62.2401 42.3769C62.6343 42.3531 63.0273 42.4392 63.3753 42.6258C63.7233 42.8124 64.0125 43.0921 64.2108 43.4336Z" stroke="#263238" stroke-width="0.230215" stroke-linecap="round" stroke-linejoin="round"/>
<path d="M66.7383 43.4336C66.5418 43.769 66.4406 44.1516 66.4455 44.5402C66.4503 44.9288 66.5611 45.3087 66.7659 45.6391L66.8097 45.7081C67.1328 46.2272 67.5828 46.6554 68.1173 46.9522C68.6518 47.2491 69.2532 47.4048 69.8646 47.4048H70.3481C70.8394 47.4047 71.3222 47.2756 71.748 47.0304C72.1738 46.7851 72.5278 46.4324 72.7745 46.0074C72.956 45.6961 73.0625 45.3468 73.0857 44.9872C73.1088 44.6276 73.048 44.2675 72.908 43.9355C72.7403 43.5361 72.4644 43.1915 72.1113 42.9405C71.7583 42.6895 71.3421 42.5422 70.9098 42.515L68.7112 42.3769C68.3168 42.3531 67.9235 42.4393 67.5751 42.6259C67.2268 42.8125 66.9371 43.0921 66.7383 43.4336Z" stroke="#263238" stroke-width="0.230215" stroke-linecap="round" stroke-linejoin="round"/>
<path d="M64.4688 43.8391C64.4688 43.8391 65.1594 43.2981 66.4785 43.8391" stroke="#263238" stroke-width="0.230215" stroke-linecap="round" stroke-linejoin="round"/>
<path d="M63.5391 42.6816H67.3284" stroke="#263238" stroke-width="0.230215" stroke-linecap="round" stroke-linejoin="round"/>
<path d="M58.0385 43.9336H54.4219" stroke="#263238" stroke-width="0.230215" stroke-linecap="round" stroke-linejoin="round"/>
<path d="M68.2575 35.722C68.2575 35.722 70.2604 42.1542 73.3015 43.8163C73.2348 41.6109 73.1565 39.5389 73.1289 38.1968C73.0506 34.4857 67.7165 31.1614 62.3088 32.0109C56.901 32.8604 54.1131 36.0305 54.4216 38.9703C54.4216 38.9703 54.3963 40.9893 54.3986 43.5516C57.0092 42.4258 63.8834 39.2903 68.2575 35.722Z" fill="#263238"/>
<mask id="mask0_1410_1992" style="mask-type:luminance" maskUnits="userSpaceOnUse" x="54" y="31" width="20" height="13">
<path d="M68.2575 35.722C68.2575 35.722 70.2604 42.1542 73.3015 43.8163C73.2348 41.6109 73.1565 39.5389 73.1289 38.1968C73.0506 34.4857 67.7165 31.1614 62.3088 32.0109C56.901 32.8604 54.1131 36.0305 54.4216 38.9703C54.4216 38.9703 54.3963 40.9893 54.3986 43.5516C57.0092 42.4258 63.8834 39.2903 68.2575 35.722Z" fill="white"/>
</mask>
<g mask="url(#mask0_1410_1992)">
<path d="M53.8828 41.8615C53.8828 41.8615 64.0238 37.6095 69.5052 32.2109" stroke="#737373" stroke-width="0.230215" stroke-linecap="round" stroke-linejoin="round"/>
<path d="M53.0625 38.427C53.0625 38.427 63.6961 35.9729 69.8313 29.5107" stroke="#737373" stroke-width="0.230215" stroke-linecap="round" stroke-linejoin="round"/>
<path d="M70.2422 32.9453C70.2422 32.9453 70.4056 37.1168 74.8235 40.9614" stroke="#737373" stroke-width="0.230215" stroke-linecap="round" stroke-linejoin="round"/>
</g>
<path d="M69.0893 58.9023C69.0893 58.9023 69.0893 61.7063 66.9874 66.1748C64.8855 70.6433 64.7958 75.1117 66.1978 78.4406C67.5998 81.7695 71.3684 83.0864 75.4064 81.5969C79.4443 80.1074 79.9623 73.4473 79.5249 69.4162C79.0875 65.3852 75.1508 60.6542 74.2668 58.2876C73.3828 55.921 72.7773 54.6963 72.7773 54.6963C72.7773 54.6963 70.4982 57.8502 69.0939 58.5501L69.0893 58.9023Z" fill="#263238"/>
<mask id="mask1_1410_1992" style="mask-type:luminance" maskUnits="userSpaceOnUse" x="65" y="54" width="15" height="29">
<path d="M69.0893 58.9023C69.0893 58.9023 69.0893 61.7063 66.9874 66.1748C64.8855 70.6433 64.7958 75.1117 66.1978 78.4406C67.5998 81.7695 71.3684 83.0864 75.4064 81.5969C79.4443 80.1074 79.9623 73.4473 79.5249 69.4162C79.0875 65.3852 75.1508 60.6542 74.2668 58.2876C73.3828 55.921 72.7773 54.6963 72.7773 54.6963C72.7773 54.6963 70.4982 57.8502 69.0939 58.5501L69.0893 58.9023Z" fill="white"/>
</mask>
<g mask="url(#mask1_1410_1992)">
<path d="M70.5662 55.7666C71.0728 59.5907 70.5655 63.4808 69.0951 67.0471C66.641 72.936 68.5219 79.2347 71.3858 80.5423C74.2496 81.8499 77.0283 81.3619 78.4188 79.5616" stroke="#737373" stroke-width="0.230215" stroke-linecap="round" stroke-linejoin="round"/>
<path d="M71.6328 54.459C71.6328 54.459 74.4138 61.0017 73.2696 65.9099C72.1255 70.818 72.6158 77.0453 76.0506 78.2609C79.4854 79.4764 81.4492 77.0453 81.4492 77.0453" stroke="#737373" stroke-width="0.230215" stroke-linecap="round" stroke-linejoin="round"/>
<path d="M74.9844 58.7109C74.9844 58.7109 77.3556 67.7077 77.3556 72.3696C77.3556 77.0314 80.2195 76.297 80.9561 74.0064" stroke="#737373" stroke-width="0.230215" stroke-linecap="round" stroke-linejoin="round"/>
</g>
<path d="M69.0893 58.9023C69.0893 58.9023 69.0893 61.7063 66.9874 66.1748C64.8855 70.6433 64.7958 75.1117 66.1978 78.4406C67.5998 81.7695 71.3684 83.0864 75.4064 81.5969C79.4443 80.1074 79.9623 73.4473 79.5249 69.4162C79.0875 65.3852 75.1508 60.6542 74.2668 58.2876C73.3828 55.921 72.7773 54.6963 72.7773 54.6963C72.7773 54.6963 70.4982 57.8502 69.0939 58.5501L69.0893 58.9023Z" stroke="#263238" stroke-width="0.230215" stroke-linecap="round" stroke-linejoin="round"/>
<path d="M79.8989 83.7048L64.9517 83.1019C64.2923 83.0753 63.7363 83.5882 63.7097 84.2476L62.8771 104.886C62.8505 105.545 63.3635 106.101 64.0228 106.128L78.97 106.731C79.6294 106.757 80.1854 106.244 80.212 105.585L81.0445 84.9468C81.0711 84.2875 80.5582 83.7314 79.8989 83.7048Z" fill="#263238" stroke="#263238" stroke-width="0.230215" stroke-linecap="round" stroke-linejoin="round"/>
<path d="M87.5155 92.0534C87.5155 92.0534 79.8631 89.673 78.5578 89.2724C77.2525 88.8718 69.7337 94.4867 69.4344 95.2879C69.1351 96.089 70.2355 96.0913 70.2355 96.0913C70.2355 96.0913 69.7751 96.8925 70.4658 97.2931C70.6836 97.4397 70.9148 97.5654 71.1564 97.6683C71.1564 97.6683 70.7558 98.5708 71.557 98.8723C72.3581 99.1739 73.4632 98.3705 73.4632 98.3705L75.268 97.0675C75.268 97.0675 73.0994 99.7218 73.5622 100.277C74.1998 101.036 74.6073 100.221 74.6073 100.221L77.1006 97.2677L79.6053 96.0637C79.6053 96.0637 81.6105 97.2677 84.8197 97.3667C88.0288 97.4657 88.7333 96.0637 88.7333 96.0637" fill="white"/>
<path d="M87.5155 92.0534C87.5155 92.0534 79.8631 89.673 78.5578 89.2724C77.2525 88.8718 69.7337 94.4867 69.4344 95.2879C69.1351 96.089 70.2355 96.0913 70.2355 96.0913C70.2355 96.0913 69.7751 96.8925 70.4658 97.2931C70.6836 97.4397 70.9148 97.5654 71.1564 97.6683C71.1564 97.6683 70.7558 98.5708 71.557 98.8723C72.3581 99.1739 73.4632 98.3705 73.4632 98.3705L75.268 97.0675C75.268 97.0675 73.0994 99.7218 73.5622 100.277C74.1998 101.036 74.6073 100.221 74.6073 100.221L77.1006 97.2677L79.6053 96.0637C79.6053 96.0637 81.6105 97.2677 84.8197 97.3667C88.0288 97.4657 88.7333 96.0637 88.7333 96.0637" stroke="#263238" stroke-width="0.230215" stroke-linecap="round" stroke-linejoin="round"/>
<path d="M71.1719 97.6683C71.1719 97.6683 73.9828 95.7391 74.6826 95.0415C75.3825 94.344 77.6501 92.8867 78.35 92.8867" stroke="#263238" stroke-width="0.230215" stroke-linecap="round" stroke-linejoin="round"/>
<path d="M75.2812 97.0741C75.2812 97.0741 76.6625 95.5132 77.1828 95.2807C77.7031 95.0482 78.4628 94.6982 78.4628 94.6982" stroke="#263238" stroke-width="0.230215" stroke-linecap="round" stroke-linejoin="round"/>
<path d="M70.2344 96.0909C70.2344 96.0909 74.148 93.3284 75.4879 92.5157C76.2891 92.0268 77.1255 91.5982 77.9903 91.2334" stroke="#263238" stroke-width="0.230215" stroke-linecap="round" stroke-linejoin="round"/>
</svg>
