<svg width="330" height="114" viewBox="0 0 330 114" fill="none" xmlns="http://www.w3.org/2000/svg">
<path d="M33.1462 23.6855C42.2877 23.6855 50.0868 26.9592 56.5754 33.4423C63.064 39.9254 66.2923 47.7886 66.2923 56.9676C66.2923 66.1466 63.0321 73.9777 56.5754 80.4929C50.1188 87.0081 42.2877 90.2496 33.1462 90.2496C24.0046 90.2496 16.2055 86.976 9.74887 80.4929C3.29224 74.0098 0 66.1466 0 56.9676C0 47.7886 3.26028 39.9575 9.74887 33.4423C16.2375 26.9271 24.0366 23.6855 33.1462 23.6855ZM33.1462 37.9676C30.637 37.9505 28.1495 38.4347 25.8284 39.3919C23.5074 40.3491 21.3991 41.7604 19.6263 43.5434C17.8535 45.3265 16.4516 47.4458 15.5021 49.7779C14.5527 52.1101 14.0747 54.6086 14.0959 57.1281C14.0789 59.6448 14.5601 62.1398 15.5114 64.4683C16.4628 66.7968 17.8653 68.9122 19.6377 70.6919C21.4101 72.4715 23.5169 73.8799 25.8359 74.8351C28.1549 75.7904 30.6397 76.2735 33.1462 76.2564C38.1986 76.2564 43.0441 74.2411 46.6167 70.6538C50.1894 67.0666 52.1964 62.2012 52.1964 57.1281C52.2006 54.6134 51.711 52.1226 50.7555 49.7981C49.8 47.4736 48.3975 45.3612 46.6281 43.5815C44.8587 41.8019 42.7572 40.39 40.4438 39.4267C38.1304 38.4634 35.6506 37.9676 33.1462 37.9676Z" fill="white"/>
<path d="M131.343 114C129.505 113.967 127.752 113.219 126.452 111.914C125.152 110.609 124.408 108.848 124.375 107.003V56.8392C124.407 47.6602 127.667 39.8291 134.156 33.4102C140.644 26.9913 148.38 23.6855 157.521 23.6855C166.663 23.6855 174.462 26.9592 180.918 33.4423C187.375 39.9254 190.667 47.7885 190.667 56.9676C190.667 66.1466 187.407 73.9777 180.918 80.4929C174.43 87.0081 166.631 90.2496 157.521 90.2496C149.147 90.2496 142.818 88.324 138.471 84.4726V107.003C138.438 108.848 137.693 110.609 136.394 111.914C135.094 113.219 133.341 113.967 131.503 114H131.343ZM170.978 70.3831C174.686 66.628 176.571 62.1348 176.571 56.8392C176.571 51.5436 174.686 47.0183 170.978 43.2632C167.27 39.5082 162.795 37.743 157.521 37.743C152.247 37.743 147.708 39.5723 144.001 43.2632C140.454 46.878 138.466 51.7487 138.466 56.8232C138.466 61.8976 140.454 66.7683 144.001 70.3831C147.708 74.1061 152.215 75.9676 157.521 75.9676C160.025 76.0062 162.51 75.5308 164.824 74.5705C167.138 73.6102 169.232 72.1852 170.978 70.3831Z" fill="white" fill-opacity="0.3"/>
<path d="M323.027 0.000360131C324.873 0.00880225 326.64 0.748654 327.945 2.05895C329.25 3.36924 329.987 5.14396 329.995 6.99697V57.1287C329.974 66.3077 326.714 74.1067 320.215 80.5256C313.715 86.9445 305.927 90.186 296.849 90.2502C287.708 90.2502 279.909 86.9766 273.42 80.4935C266.931 74.0104 263.703 66.1472 263.703 56.9682C263.703 47.7891 266.963 39.9581 273.42 33.4429C279.877 26.9277 287.708 23.6861 296.849 23.6861C305.16 23.6861 311.51 25.6118 315.9 29.4632V6.99697C315.884 6.06854 316.061 5.147 316.418 4.29069C316.776 3.43438 317.307 2.66196 317.977 2.02232C318.616 1.3733 319.378 0.859849 320.218 0.512494C321.058 0.165138 321.959 -0.00902569 322.868 0.000360131H323.027ZM283.329 43.5527C279.782 47.1674 277.794 52.0382 277.794 57.1126C277.794 62.187 279.782 67.0578 283.329 70.6726C287.037 74.3955 291.543 76.257 296.849 76.257C301.902 76.257 306.747 74.2417 310.32 70.6544C313.892 67.0672 315.9 62.2018 315.9 57.1287C315.904 54.614 315.414 52.1232 314.459 49.7987C313.503 47.4742 312.101 45.3618 310.331 43.5821C308.562 41.8025 306.46 40.3906 304.147 39.4273C301.834 38.464 299.354 37.9682 296.849 37.9682C291.543 37.9682 287.037 39.8297 283.329 43.5527Z" fill="white" fill-opacity="0.3"/>
<path d="M260.19 57.0331C260.19 66.2122 256.951 74.0539 250.473 80.5584C248.049 83.0313 245.256 85.1102 242.195 86.7206C242.163 80.7831 242.131 74.3963 242.131 69.4858C242.131 64.5754 241.395 59.5044 239.893 55.2359C236.985 46.9234 231.167 41.0822 222.249 40.7291H221.418C218.094 40.7291 215.697 42.9436 214.195 46.0889C211.829 51.1598 211.861 58.7021 214.418 63.5804C215.825 66.3085 218.062 68.17 221.099 68.2983H221.418C223.139 68.2913 224.853 68.0976 226.532 67.7206C227.107 67.583 227.705 67.5719 228.284 67.6883C228.863 67.8046 229.411 68.0456 229.889 68.3946C230.461 68.7869 230.929 69.3136 231.252 69.9289C231.575 70.5442 231.743 71.2294 231.743 71.925V90.0263C230.197 90.2472 228.637 90.3544 227.076 90.3473C217.934 90.3473 210.135 87.0736 203.647 80.5905C197.158 74.1074 193.93 66.2443 193.93 57.0652C193.93 47.8862 197.158 40.0551 203.647 33.5399C210.135 27.0248 217.934 23.7832 227.076 23.7832C236.217 23.7832 243.985 27.0568 250.473 33.5399C256.962 40.023 260.19 47.8541 260.19 57.0331Z" fill="white" fill-opacity="0.3"/>
<path d="M219.33 63.6433C219.124 63.7167 218.908 63.76 218.69 63.7716C218.338 63.7701 217.994 63.6622 217.703 63.4619C217.412 63.2616 217.188 62.9781 217.06 62.6483C216.287 60.7288 215.791 58.7076 215.59 56.6467C215.366 54.2612 215.528 51.8552 216.069 49.5217C216.18 49.0663 216.465 48.6735 216.864 48.4297C217.263 48.186 217.741 48.1112 218.195 48.2218C218.648 48.3325 219.04 48.6195 219.282 49.0198C219.525 49.42 219.6 49.9007 219.489 50.3561C219.043 52.3015 218.914 54.3066 219.106 56.2936C219.267 58.0231 219.676 59.7202 220.32 61.3325C220.489 61.7712 220.48 62.259 220.295 62.691C220.11 63.123 219.763 63.4649 219.33 63.6433Z" fill="#FAC649"/>
</svg>
