<svg width="129" height="129" viewBox="0 0 129 129" fill="none" xmlns="http://www.w3.org/2000/svg">
<rect width="128.8" height="128.8" rx="16" fill="#EAD2EE"/>
<path d="M29.7543 67.2007L29.7985 67.301L29.9075 67.3123L41.8112 68.5445L41.412 72.7739C41.333 72.771 41.2287 72.767 41.1016 72.7617C40.7887 72.7487 40.3378 72.728 39.7864 72.6971C38.6834 72.6355 37.1788 72.5335 35.5722 72.3722C33.965 72.2109 32.2585 71.9905 30.7506 71.6925C29.2368 71.3933 27.9444 71.0197 27.1511 70.5607C26.7701 70.3404 26.3822 69.9619 25.9945 69.4537C25.6081 68.9472 25.229 68.3214 24.863 67.6177C24.131 66.2104 23.4587 64.5064 22.8871 62.8562C22.3158 61.2069 21.8468 59.6163 21.5205 58.4376C21.3574 57.8483 21.2301 57.3624 21.1436 57.0239C21.1067 56.8795 21.0772 56.762 21.0555 56.6748L24.6985 55.7259L29.7543 67.2007Z" fill="#FDFDFD" stroke="black" stroke-width="0.377191"/>
<path d="M47.8732 66.8586C50.0087 68.7565 50.2012 72.0263 48.3032 74.1617C46.4053 76.2972 43.1355 76.4897 41.0001 74.5918C38.8646 72.6938 38.672 69.4241 40.57 67.2886C42.468 65.1531 45.7377 64.9606 47.8732 66.8586Z" fill="#263238" stroke="black" stroke-width="0.377191"/>
<path d="M44.4406 65.3506C43.7404 65.3506 43.0418 65.4875 42.3855 65.7594C41.8938 65.963 41.4388 66.2371 41.0333 66.5699C40.4922 67.0141 40.0392 67.563 39.7044 68.1893C39.4539 68.658 39.2762 69.1577 39.1738 69.6715C39.0369 70.3588 39.0348 71.0712 39.1735 71.7685C39.2769 72.2885 39.4559 72.7862 39.7017 73.2473C40.032 73.8669 40.4831 74.4202 41.0337 74.8721C41.4425 75.2076 41.8953 75.4783 42.3765 75.6786C43.0259 75.949 43.7269 76.0912 44.4406 76.0912L44.4406 65.3506ZM44.4406 65.3506L44.4406 65.3678M44.4406 65.3506L48.2265 66.9407C48.4745 67.1893 48.696 67.4602 48.8888 67.7487C49.376 68.4782 49.6797 69.3209 49.7658 70.2046C49.7997 70.5528 49.7992 70.9013 49.7655 71.2453C49.68 72.1198 49.38 72.9653 48.8851 73.7042C48.6909 73.9942 48.4701 74.2627 48.2265 74.5068C48.2265 74.5068 48.2265 74.5068 48.2264 74.5068C47.7309 75.0034 47.1412 75.3992 46.4904 75.6696C46.3255 75.7382 46.1566 75.7987 45.9843 75.8507C45.48 76.0031 44.9599 76.0791 44.4406 76.0797C44.4406 76.0797 44.4406 76.0797 44.4406 76.0797C43.7385 76.0804 43.0379 75.9431 42.3802 75.6698C41.8927 75.4672 41.4415 75.1954 41.0392 74.8655C40.4971 74.421 40.0435 73.8711 39.7089 73.2435C39.4599 72.7764 39.2833 72.2786 39.1817 71.7669C39.0454 71.0807 39.0439 70.3694 39.1831 69.6733C39.2872 69.1532 39.4671 68.6553 39.714 68.1944C40.0438 67.5787 40.4934 67.029 41.0416 66.58C41.4523 66.2437 41.9075 65.9728 42.3912 65.7731C43.0365 65.5067 43.7323 65.3671 44.4406 65.3678M44.4406 65.3678L44.4406 65.3506L44.4406 65.3678Z" fill="#263238" stroke="black" stroke-width="0.377191"/>
<path d="M31.6303 66.8365C32.1245 68.8947 30.8565 70.9638 28.7983 71.4579C26.7401 71.9521 24.671 70.6841 24.1768 68.6259C23.6827 66.5677 24.9506 64.4985 27.0089 64.0044C29.0671 63.5103 31.1362 64.7782 31.6303 66.8365Z" fill="#263238" stroke="black" stroke-width="0.377191"/>
<path d="M24.7133 51.9276C25.9231 53.1374 25.9231 55.0989 24.7133 56.3087C23.5035 57.5185 21.542 57.5185 20.3322 56.3087C19.1224 55.0989 19.1224 53.1374 20.3322 51.9276C21.542 50.7178 23.5035 50.7178 24.7133 51.9276Z" fill="#263238" stroke="black" stroke-width="0.377191"/>
<path d="M27.5285 52.1954L27.5285 52.1954L24.9665 54.3589L24.234 53.4914L26.796 51.3279C26.9002 51.2398 27.0352 51.1968 27.1712 51.2082C27.3072 51.2197 27.4331 51.2847 27.5212 51.389L27.5878 51.468L27.5878 51.468L27.5883 51.4685C27.6323 51.5201 27.6656 51.5799 27.6864 51.6444C27.7071 51.7089 27.715 51.7768 27.7094 51.8444C27.7038 51.9119 27.685 51.9777 27.654 52.0379C27.6229 52.0981 27.5803 52.1516 27.5285 52.1954Z" fill="#263238" stroke="black" stroke-width="0.377191"/>
<path d="M24.0223 48.1544V51.5106H22.8898V48.1544C22.8898 48.0179 22.944 47.887 23.0405 47.7905C23.137 47.694 23.2679 47.6398 23.4044 47.6398H23.5077C23.6442 47.6398 23.7751 47.694 23.8716 47.7905C23.9681 47.887 24.0223 48.0179 24.0223 48.1544Z" fill="#263238" stroke="black" stroke-width="0.377191"/>
<path d="M21.5945 48.2089L22.3272 51.4841L21.2219 51.7314L20.4892 48.4561C20.4594 48.3229 20.4838 48.1834 20.5569 48.0681C20.63 47.9529 20.7459 47.8714 20.8791 47.8416L20.9799 47.819C21.1131 47.7892 21.2527 47.8136 21.3679 47.8867C21.4832 47.9598 21.5647 48.0757 21.5945 48.2089Z" fill="#263238" stroke="black" stroke-width="0.377191"/>
<path d="M18.9852 49.1047L20.6633 52.0112L19.6824 52.5775L18.0043 49.671C17.9361 49.5528 17.9176 49.4123 17.9529 49.2805C17.9882 49.1486 18.0745 49.0362 18.1927 48.968L18.2822 48.9163C18.4004 48.8481 18.5408 48.8296 18.6727 48.8649C18.8045 48.9002 18.9169 48.9865 18.9852 49.1047Z" fill="#263238" stroke="black" stroke-width="0.377191"/>
<path d="M87.6384 72.6397L97.9323 96.8436L94.6608 98.235L84.3669 74.031L87.6384 72.6397Z" fill="#FDFDFD" stroke="black" stroke-width="0.377191"/>
<path d="M87.5099 67.3251C89.6898 69.1718 89.9599 72.4361 88.1132 74.616C86.2664 76.7959 83.0022 77.066 80.8223 75.2193C78.6424 73.3725 78.3723 70.1083 80.219 67.9284C82.0658 65.7485 85.33 65.4784 87.5099 67.3251Z" fill="#263238" stroke="black" stroke-width="0.377191"/>
<mask id="path-13-inside-1_1410_1988" fill="white">
<path d="M84.1727 76.6538C83.3315 76.6542 82.502 76.4571 81.7509 76.0784C80.9998 75.6997 80.3481 75.1499 79.8483 74.4733C79.3485 73.7967 79.0145 73.0123 78.8732 72.183C78.7319 71.3538 78.7873 70.503 79.0349 69.6991C79.3284 68.7509 79.8792 67.9026 80.6259 67.2486C81.3726 66.5947 82.286 66.1605 83.2646 65.9945C84.2432 65.8285 85.2487 65.9372 86.1693 66.3083C87.0899 66.6795 87.8896 67.2987 88.4794 68.0971C89.0692 68.8954 89.426 69.8417 89.5103 70.8307C89.5945 71.8198 89.4029 72.8128 88.9566 73.6994C88.5104 74.5861 87.827 75.3316 86.9825 75.8531C86.1379 76.3747 85.1653 76.6518 84.1727 76.6538ZM84.1727 65.9247C83.1818 65.9257 82.2105 66.2016 81.3671 66.7217C80.5236 67.2418 79.8409 67.9856 79.3951 68.8706C78.9492 69.7555 78.7575 70.7468 78.8414 71.7342C78.9254 72.7215 79.2816 73.6663 79.8704 74.4633C80.4592 75.2603 81.2576 75.8783 82.1768 76.2486C83.0959 76.6188 84.0998 76.7269 85.0767 76.5606C86.0535 76.3944 86.9651 75.9604 87.7101 75.3069C88.455 74.6535 89.0041 73.8062 89.2961 72.8593C89.7131 71.5023 89.5746 70.0354 88.9111 68.7805C88.2475 67.5256 87.1132 66.5852 85.7571 66.1658C85.2384 66.0052 84.6984 65.9239 84.1555 65.9247H84.1727Z"/>
</mask>
<path d="M84.1727 76.6538C83.3315 76.6542 82.502 76.4571 81.7509 76.0784C80.9998 75.6997 80.3481 75.1499 79.8483 74.4733C79.3485 73.7967 79.0145 73.0123 78.8732 72.183C78.7319 71.3538 78.7873 70.503 79.0349 69.6991C79.3284 68.7509 79.8792 67.9026 80.6259 67.2486C81.3726 66.5947 82.286 66.1605 83.2646 65.9945C84.2432 65.8285 85.2487 65.9372 86.1693 66.3083C87.0899 66.6795 87.8896 67.2987 88.4794 68.0971C89.0692 68.8954 89.426 69.8417 89.5103 70.8307C89.5945 71.8198 89.4029 72.8128 88.9566 73.6994C88.5104 74.5861 87.827 75.3316 86.9825 75.8531C86.1379 76.3747 85.1653 76.6518 84.1727 76.6538ZM84.1727 65.9247C83.1818 65.9257 82.2105 66.2016 81.3671 66.7217C80.5236 67.2418 79.8409 67.9856 79.3951 68.8706C78.9492 69.7555 78.7575 70.7468 78.8414 71.7342C78.9254 72.7215 79.2816 73.6663 79.8704 74.4633C80.4592 75.2603 81.2576 75.8783 82.1768 76.2486C83.0959 76.6188 84.0998 76.7269 85.0767 76.5606C86.0535 76.3944 86.9651 75.9604 87.7101 75.3069C88.455 74.6535 89.0041 73.8062 89.2961 72.8593C89.7131 71.5023 89.5746 70.0354 88.9111 68.7805C88.2475 67.5256 87.1132 66.5852 85.7571 66.1658C85.2384 66.0052 84.6984 65.9239 84.1555 65.9247H84.1727Z" fill="#263238"/>
<path d="M84.1727 76.6538L84.1729 77.0309L84.1734 77.0309L84.1727 76.6538ZM79.0349 69.6991L78.6746 69.5875L78.6744 69.5881L79.0349 69.6991ZM84.1727 65.9247L84.1731 66.3019L84.1727 65.5475V65.9247ZM89.2961 72.8593L89.6566 72.9704L89.6567 72.97L89.2961 72.8593ZM85.7571 66.1658L85.6455 66.5261L85.6456 66.5261L85.7571 66.1658ZM84.1555 65.9247L84.1549 65.5475L84.1555 66.3019V65.9247ZM84.1725 76.2766C83.3904 76.277 82.6191 76.0937 81.9207 75.7416L81.5811 76.4152C82.3849 76.8205 83.2727 77.0314 84.1729 77.0309L84.1725 76.2766ZM81.9207 75.7416C81.2223 75.3894 80.6164 74.8783 80.1517 74.2492L79.5449 74.6974C80.0798 75.4215 80.7773 76.0099 81.5811 76.4152L81.9207 75.7416ZM80.1517 74.2492C79.6869 73.6201 79.3764 72.8907 79.245 72.1197L78.5014 72.2464C78.6526 73.1338 79.01 73.9734 79.5449 74.6974L80.1517 74.2492ZM79.245 72.1197C79.1137 71.3487 79.1652 70.5576 79.3954 69.8101L78.6744 69.5881C78.4094 70.4484 78.3502 71.3589 78.5014 72.2464L79.245 72.1197ZM79.3952 69.8106C79.6681 68.929 80.1802 68.1404 80.8744 67.5324L80.3773 66.9649C79.5782 67.6648 78.9887 68.5727 78.6746 69.5875L79.3952 69.8106ZM80.8744 67.5324C81.5686 66.9244 82.4178 66.5208 83.3277 66.3664L83.2015 65.6227C82.1541 65.8003 81.1765 66.2649 80.3773 66.9649L80.8744 67.5324ZM83.3277 66.3664C84.2376 66.2121 85.1724 66.3131 86.0283 66.6582L86.3104 65.9585C85.3251 65.5612 84.2489 65.445 83.2015 65.6227L83.3277 66.3664ZM86.0283 66.6582C86.8842 67.0033 87.6276 67.5789 88.176 68.3212L88.7828 67.8729C88.1515 67.0185 87.2957 66.3558 86.3104 65.9585L86.0283 66.6582ZM88.176 68.3212C88.7243 69.0635 89.0561 69.9432 89.1345 70.8628L89.8861 70.7987C89.7959 69.7402 89.414 68.7274 88.7828 67.8729L88.176 68.3212ZM89.1345 70.8628C89.2128 71.7823 89.0346 72.7055 88.6197 73.5299L89.2936 73.869C89.7712 72.9201 89.9763 71.8573 89.8861 70.7987L89.1345 70.8628ZM88.6197 73.5299C88.2048 74.3542 87.5695 75.0473 86.7843 75.5322L87.1806 76.1741C88.0845 75.6159 88.8159 74.8179 89.2936 73.869L88.6197 73.5299ZM86.7843 75.5322C85.9991 76.0171 85.0948 76.2748 84.172 76.2766L84.1734 77.0309C85.2358 77.0289 86.2768 76.7323 87.1806 76.1741L86.7843 75.5322ZM84.1723 65.5475C83.1116 65.5486 82.072 65.8439 81.1691 66.4006L81.565 67.0427C82.3491 66.5593 83.2519 66.3028 84.1731 66.3019L84.1723 65.5475ZM81.1691 66.4006C80.2662 66.9573 79.5355 67.7536 79.0582 68.7009L79.7319 69.0403C80.1464 68.2177 80.781 67.5262 81.565 67.0427L81.1691 66.4006ZM79.0582 68.7009C78.5809 69.6481 78.3758 70.7092 78.4656 71.7661L79.2173 71.7022C79.1393 70.7844 79.3174 69.8629 79.7319 69.0403L79.0582 68.7009ZM78.4656 71.7661C78.5554 72.823 78.9367 73.8343 79.567 74.6874L80.1738 74.2391C79.6264 73.4983 79.2953 72.6201 79.2173 71.7022L78.4656 71.7661ZM79.567 74.6874C80.1973 75.5405 81.052 76.2021 82.0358 76.5984L82.3177 75.8987C81.4633 75.5545 80.7211 74.98 80.1738 74.2391L79.567 74.6874ZM82.0358 76.5984C83.0197 76.9948 84.0943 77.1104 85.1399 76.9325L85.0134 76.1888C84.1053 76.3433 83.1721 76.2429 82.3177 75.8987L82.0358 76.5984ZM85.1399 76.9325C86.1856 76.7545 87.1614 76.29 87.9588 75.5905L87.4613 75.0234C86.7689 75.6308 85.9215 76.0342 85.0134 76.1888L85.1399 76.9325ZM87.9588 75.5905C88.7562 74.891 89.3439 73.984 89.6566 72.9704L88.9357 72.7481C88.6642 73.6283 88.1538 74.4159 87.4613 75.0234L87.9588 75.5905ZM89.6567 72.97C90.103 71.5176 89.9547 69.9475 89.2445 68.6042L88.5776 68.9568C89.1944 70.1234 89.3232 71.4871 88.9356 72.7485L89.6567 72.97ZM89.2445 68.6042C88.5343 67.261 87.3201 66.2544 85.8685 65.8054L85.6456 66.5261C86.9063 66.916 87.9608 67.7902 88.5776 68.9568L89.2445 68.6042ZM85.8687 65.8055C85.3137 65.6336 84.7359 65.5466 84.1549 65.5475L84.156 66.3019C84.661 66.3011 85.1631 66.3767 85.6455 66.5261L85.8687 65.8055ZM84.1555 66.3019H84.1727V65.5475H84.1555V66.3019Z" fill="black" mask="url(#path-13-inside-1_1410_1988)"/>
<path d="M92.1726 82.5339C94.212 83.1006 95.4059 85.2134 94.8391 87.2528C94.2724 89.2922 92.1597 90.4861 90.1202 89.9194C88.0808 89.3526 86.8869 87.2399 87.4537 85.2005C88.0204 83.161 90.1331 81.9672 92.1726 82.5339Z" fill="#263238" stroke="black" stroke-width="0.377191"/>
<path d="M100.306 98.7435C100.306 100.454 98.9192 101.841 97.2083 101.841C95.4974 101.841 94.1105 100.454 94.1105 98.7435C94.1105 97.0326 95.4974 95.6456 97.2083 95.6456C98.9192 95.6456 100.306 97.0326 100.306 98.7435Z" fill="#263238" stroke="black" stroke-width="0.377191"/>
<path d="M93.0739 102.151L93.0739 102.151L94.816 99.2924L95.7856 99.8833L94.0435 102.742C93.9724 102.858 93.858 102.942 93.7254 102.974C93.5927 103.006 93.4527 102.985 93.3362 102.914L93.248 102.86L93.248 102.86L93.2473 102.859C93.1893 102.824 93.1388 102.778 93.0987 102.724C93.0585 102.669 93.0296 102.607 93.0135 102.541C92.9974 102.475 92.9944 102.407 93.0048 102.34C93.0151 102.273 93.0386 102.209 93.0739 102.151Z" fill="#263238" stroke="black" stroke-width="0.377191"/>
<path d="M98.4103 105.159L98.4103 105.159L98.4081 105.16L98.3112 105.193C98.1836 105.233 98.0452 105.222 97.9253 105.163C97.8055 105.103 97.7137 104.998 97.6695 104.872L96.6072 101.69L97.6815 101.331L98.7438 104.513C98.7642 104.577 98.7718 104.645 98.7662 104.712C98.7606 104.779 98.7418 104.845 98.7109 104.905C98.68 104.965 98.6375 105.018 98.5859 105.062C98.5343 105.106 98.4747 105.139 98.4103 105.159Z" fill="#263238" stroke="black" stroke-width="0.377191"/>
<mask id="path-19-inside-2_1410_1988" fill="white">
<path d="M99.8011 104.15L98.0236 101.199C98.0168 101.188 98.0123 101.176 98.0103 101.163C98.0083 101.15 98.0089 101.136 98.0121 101.123C98.0153 101.111 98.021 101.099 98.0288 101.088C98.0366 101.077 98.0465 101.068 98.0578 101.062L99.1788 100.386C99.1901 100.379 99.2027 100.375 99.2157 100.373C99.2288 100.371 99.2421 100.371 99.2549 100.375C99.2677 100.378 99.2797 100.383 99.2903 100.391C99.301 100.399 99.3099 100.409 99.3167 100.42L101.094 103.37C101.191 103.53 101.219 103.722 101.175 103.903C101.13 104.084 101.015 104.239 100.855 104.336L100.766 104.389C100.607 104.485 100.415 104.514 100.234 104.469C100.053 104.424 99.8974 104.309 99.8011 104.15Z"/>
</mask>
<path d="M99.8011 104.15L98.0236 101.199C98.0168 101.188 98.0123 101.176 98.0103 101.163C98.0083 101.15 98.0089 101.136 98.0121 101.123C98.0153 101.111 98.021 101.099 98.0288 101.088C98.0366 101.077 98.0465 101.068 98.0578 101.062L99.1788 100.386C99.1901 100.379 99.2027 100.375 99.2157 100.373C99.2288 100.371 99.2421 100.371 99.2549 100.375C99.2677 100.378 99.2797 100.383 99.2903 100.391C99.301 100.399 99.3099 100.409 99.3167 100.42L101.094 103.37C101.191 103.53 101.219 103.722 101.175 103.903C101.13 104.084 101.015 104.239 100.855 104.336L100.766 104.389C100.607 104.485 100.415 104.514 100.234 104.469C100.053 104.424 99.8974 104.309 99.8011 104.15Z" fill="#263238"/>
<path d="M98.0236 101.199L97.7005 101.394L98.0236 101.199ZM98.0578 101.062L97.8631 100.738L98.0578 101.062ZM99.1788 100.386L98.9842 100.063L99.1788 100.386ZM99.3167 100.42L99.6398 100.226L99.3167 100.42ZM100.766 104.389L100.572 104.066L100.766 104.389ZM100.124 103.955L98.3467 101.005L97.7005 101.394L99.4781 104.344L100.124 103.955ZM98.3467 101.005C98.3654 101.036 98.3778 101.07 98.3833 101.106L97.6373 101.219C97.6467 101.281 97.6681 101.34 97.7005 101.394L98.3467 101.005ZM98.3833 101.106C98.3887 101.142 98.387 101.179 98.3782 101.214L97.646 101.033C97.6309 101.093 97.6279 101.157 97.6373 101.219L98.3833 101.106ZM98.3782 101.214C98.3695 101.249 98.3539 101.283 98.3323 101.312L97.7253 100.864C97.688 100.914 97.6611 100.972 97.646 101.033L98.3782 101.214ZM98.3323 101.312C98.3107 101.341 98.2836 101.366 98.2524 101.385L97.8631 100.738C97.8094 100.771 97.7626 100.813 97.7253 100.864L98.3323 101.312ZM98.2524 101.385L99.3735 100.709L98.9842 100.063L97.8631 100.738L98.2524 101.385ZM99.3735 100.709C99.3424 100.728 99.3079 100.74 99.2719 100.746L99.1595 99.9998C99.0975 100.009 99.0379 100.031 98.9842 100.063L99.3735 100.709ZM99.2719 100.746C99.236 100.751 99.1994 100.749 99.1641 100.741L99.3457 100.009C99.2848 99.9934 99.2215 99.9905 99.1595 99.9998L99.2719 100.746ZM99.1641 100.741C99.1289 100.732 99.0956 100.716 99.0664 100.695L99.5143 100.088C99.4638 100.051 99.4065 100.024 99.3457 100.009L99.1641 100.741ZM99.0664 100.695C99.0371 100.673 99.0124 100.646 98.9937 100.615L99.6398 100.226C99.6074 100.172 99.5648 100.125 99.5143 100.088L99.0664 100.695ZM98.9937 100.615L100.771 103.565L101.417 103.176L99.6398 100.226L98.9937 100.615ZM100.771 103.565C100.816 103.639 100.829 103.728 100.808 103.812L101.541 103.993C101.61 103.715 101.565 103.421 101.417 103.176L100.771 103.565ZM100.808 103.812C100.788 103.896 100.734 103.968 100.66 104.013L101.05 104.659C101.295 104.511 101.472 104.272 101.541 103.993L100.808 103.812ZM100.66 104.013L100.572 104.066L100.961 104.712L101.05 104.659L100.66 104.013ZM100.572 104.066C100.498 104.111 100.409 104.124 100.325 104.103L100.143 104.835C100.421 104.904 100.716 104.86 100.961 104.712L100.572 104.066ZM100.325 104.103C100.241 104.082 100.169 104.029 100.124 103.955L99.4781 104.344C99.6259 104.59 99.8652 104.766 100.143 104.835L100.325 104.103Z" fill="black" mask="url(#path-19-inside-2_1410_1988)"/>
<path d="M102.146 102.382L102.146 102.382L99.6335 100.156L100.383 99.3106L102.895 101.536C102.997 101.627 103.059 101.754 103.067 101.89C103.075 102.027 103.029 102.16 102.939 102.263L102.87 102.34C102.78 102.441 102.653 102.502 102.517 102.51C102.381 102.518 102.247 102.472 102.146 102.382Z" fill="#263238" stroke="black" stroke-width="0.377191"/>
<path d="M86.1655 65.1727C86.1684 65.1779 86.171 65.1826 86.1734 65.187C86.1729 65.2087 86.1722 65.2378 86.1711 65.2741C86.1688 65.3548 86.1651 65.4708 86.1593 65.6197C86.1477 65.9176 86.1279 66.347 86.0952 66.8888C86.0299 67.9724 85.913 69.5056 85.7068 71.3358C85.2944 74.997 84.5251 79.8427 83.0983 84.6545C81.6707 89.4687 79.5893 94.2344 76.5607 97.7477C73.5371 101.255 69.5731 103.512 64.3601 103.331C59.1437 103.149 55.2064 100.692 52.227 97.0927C49.2436 93.4887 47.2241 88.7424 45.859 84.0036C44.4945 79.2668 43.7876 74.5506 43.4219 71.017C43.2391 69.2506 43.1417 67.7808 43.09 66.7529C43.0642 66.239 43.0497 65.8356 43.0418 65.561C43.0378 65.4237 43.0354 65.3186 43.0341 65.2479L43.0331 65.1909C43.0346 65.1884 43.0361 65.1858 43.0378 65.1831C43.0577 65.1503 43.0905 65.0996 43.1397 65.0335C43.2383 64.9014 43.4029 64.7072 43.6617 64.4708C44.1792 63.998 45.0749 63.355 46.5744 62.7017C49.575 61.3942 54.9874 60.0478 64.6054 59.9389C74.2219 59.83 79.6317 61.1766 82.6296 62.5369C84.1278 63.2166 85.0228 63.8994 85.5403 64.4051C85.7991 64.658 85.964 64.8671 86.0629 65.0102C86.1124 65.0817 86.1455 65.1368 86.1655 65.1727Z" fill="#FDFDFD" stroke="black" stroke-width="0.377191"/>
<path d="M72.5544 58.3309H54.7013C53.6403 58.3309 52.7803 57.4708 52.7803 56.4099V56.1028C52.7803 55.0418 53.6403 54.1817 54.7013 54.1817H72.5544C73.6154 54.1817 74.4755 55.0418 74.4755 56.1028V56.4099C74.4755 57.4708 73.6154 58.3309 72.5544 58.3309Z" fill="#263238" stroke="black" stroke-width="0.377191"/>
<path d="M64.2177 17.4446V24.8602H63.0535V17.4446H64.2177Z" fill="#263238" stroke="black" stroke-width="0.377191"/>
<path d="M90.3722 42.8379C90.9266 45.1702 89.4853 47.5103 87.1529 48.0647C84.8206 48.619 82.4805 47.1777 81.9261 44.8453C81.3718 42.513 82.8131 40.1729 85.1455 39.6186C87.4778 39.0642 89.8179 40.5055 90.3722 42.8379Z" fill="#FDFDFD" stroke="black" stroke-width="0.377191"/>
<path d="M44.6678 42.577C45.1981 44.915 43.7327 47.2401 41.3948 47.7704C39.0569 48.3007 36.7318 46.8354 36.2015 44.4974C35.6712 42.1595 37.1365 39.8344 39.4744 39.3041C41.8123 38.7738 44.1375 40.2391 44.6678 42.577Z" fill="#FDFDFD" stroke="black" stroke-width="0.377191"/>
<path d="M62.7328 23.358L62.7306 23.5467L62.7373 23.5465C71.5476 23.3352 77.3776 26.1306 80.94 30.028C84.5064 33.9297 85.8183 38.9556 85.5527 43.2341C85.493 44.175 85.3421 45.1078 85.1022 46.0196L85.102 46.0203C84.0939 49.9108 82.1165 52.2432 79.3536 53.6297C76.5774 55.0229 72.9912 55.4701 68.7514 55.5432L68.7513 55.5432C64.9164 55.6121 60.5782 55.5975 58.5579 55.4604L58.5577 55.4604C58.3801 55.4484 58.1855 55.4365 57.9758 55.4236C55.5271 55.2735 51.0178 54.9972 47.2906 53.0784C45.273 52.0398 43.4941 50.5241 42.3959 48.2926C41.2976 46.061 40.87 43.0933 41.5922 39.1324C43.0321 31.2359 48.3013 27.3429 53.2298 25.4183C55.6954 24.4555 58.0725 23.9872 59.834 23.7599C60.7144 23.6462 61.4402 23.5929 61.9451 23.568C62.1976 23.5555 62.3948 23.5502 62.5285 23.5479C62.5953 23.5468 62.6462 23.5465 62.6803 23.5464L62.7185 23.5464L62.7278 23.5465L62.73 23.5465L62.7305 23.5465L62.7328 23.358Z" fill="#FDFDFD" stroke="black" stroke-width="0.377191"/>
<path d="M76.0901 47.4642L76.09 47.4642L49.3362 47.8804L49.3358 47.8804C48.693 47.8917 48.0544 47.7762 47.4564 47.5404C46.8583 47.3046 46.3127 46.9532 45.8506 46.5063C45.3885 46.0594 45.0191 45.5258 44.7636 44.9359C44.508 44.3461 44.3713 43.7116 44.3612 43.0688L44.3612 43.0686C44.3502 42.4257 44.4661 41.787 44.7022 41.1889C44.9383 40.5908 45.2899 40.0452 45.7371 39.5832C46.1842 39.1211 46.7181 38.7518 47.3081 38.4962C47.8981 38.2407 48.5327 38.104 49.1756 38.0939C49.1756 38.0939 49.1756 38.0939 49.1756 38.0939L75.9294 37.6777L75.9299 37.6777C76.5727 37.666 77.2115 37.7812 77.8097 38.0169C78.4079 38.2525 78.9537 38.6039 79.4158 39.0509C79.8779 39.4979 80.2473 40.0317 80.5027 40.6217C80.7582 41.2117 80.8947 41.8463 80.9044 42.4891L80.9044 42.4896C80.9157 43.1326 80.8001 43.7714 80.5642 44.3697C80.3282 44.9679 79.9765 45.5137 79.5293 45.9758C79.0821 46.4378 78.5482 46.8072 77.958 47.0626C77.3678 47.318 76.7331 47.4545 76.0901 47.4642ZM76.0929 47.6528L49.3391 48.069C48.6716 48.0807 48.0083 47.9608 47.3872 47.7159C46.7661 47.471 46.1994 47.106 45.7195 46.6419C45.2396 46.1777 44.856 45.6235 44.5905 45.0109C44.3251 44.3983 44.1831 43.7394 44.1726 43.0718L76.0929 47.6528Z" fill="#263238" stroke="black" stroke-width="0.377191"/>
<path d="M54.7168 42.4808C54.6618 42.7606 54.525 43.0177 54.3239 43.2198C54.1227 43.4218 53.8662 43.5597 53.5867 43.616C53.3072 43.6722 53.0173 43.6443 52.7536 43.5358C52.4899 43.4274 52.2643 43.2431 52.1054 43.0064C51.9464 42.7698 51.8612 42.4913 51.8605 42.2061C51.8598 41.921 51.9436 41.6421 52.1014 41.4047C52.2592 41.1672 52.4839 40.9818 52.747 40.872C53.0101 40.7623 53.2999 40.7329 53.5797 40.7878C53.7655 40.8243 53.9424 40.897 54.1001 41.0018C54.2579 41.1066 54.3934 41.2415 54.499 41.3987C54.6046 41.5559 54.6782 41.7324 54.7156 41.9181C54.7529 42.1038 54.7534 42.295 54.7168 42.4808Z" fill="white" stroke="black" stroke-width="0.377191"/>
<path d="M73.397 42.1825C73.3424 42.4624 73.206 42.7199 73.0051 42.9224C72.8041 43.1248 72.5476 43.2631 72.2681 43.3197C71.9885 43.3763 71.6984 43.3488 71.4345 43.2405C71.1707 43.1322 70.9448 42.948 70.7856 42.7114C70.6264 42.4747 70.541 42.1961 70.5402 41.9109C70.5393 41.6256 70.6231 41.3466 70.781 41.109C70.9388 40.8714 71.1635 40.6859 71.4268 40.5761C71.69 40.4663 71.98 40.437 72.2598 40.492C72.6347 40.5657 72.9649 40.785 73.1781 41.102C73.3913 41.4189 73.47 41.8075 73.397 42.1825Z" fill="white" stroke="black" stroke-width="0.377191"/>
<path d="M69.221 83.9218C70.0832 82.8152 70.598 81.4778 70.7001 80.0786C70.8363 78.2023 70.2219 76.3487 68.9919 74.9252C67.7619 73.5018 66.017 72.625 64.1408 72.4876L69.221 83.9218ZM69.221 83.9218C68.3588 85.0284 67.1878 85.8545 65.8561 86.2956M69.221 83.9218L65.8561 86.2956M65.8561 86.2956C64.5244 86.7368 63.0918 86.7731 61.7394 86.4001M65.8561 86.2956L61.7394 86.4001M61.7394 86.4001C60.3871 86.027 59.1757 85.2613 58.2585 84.1999M61.7394 86.4001L58.2585 84.1999M58.2585 84.1999C57.3413 83.1384 56.7594 81.8287 56.5865 80.4366M58.2585 84.1999L56.5865 80.4366M56.5865 80.4366C56.4135 79.0444 56.6573 77.6322 57.2869 76.3786M56.5865 80.4366L57.2869 76.3786M57.2869 76.3786C57.9165 75.125 58.9037 74.0862 60.1237 73.3936M57.2869 76.3786L60.1237 73.3936M60.1237 73.3936C61.3437 72.701 62.7416 72.3857 64.1408 72.4876L60.1237 73.3936Z" fill="#263238" stroke="black" stroke-width="0.377191"/>
<path d="M68.7324 79.9345L68.7323 79.9346C68.6585 80.9443 68.2868 81.9093 67.6645 82.7078C67.0421 83.5063 66.1969 84.1022 65.2358 84.4203C64.2747 84.7384 63.2409 84.7644 62.265 84.4949C61.2892 84.2255 60.4152 83.6727 59.7535 82.9065C59.0918 82.1403 58.6722 81.1951 58.5477 80.1904C58.4233 79.1857 58.5995 78.1666 59.0542 77.2621C59.5089 76.3576 60.2216 75.6083 61.1022 75.1088C61.9828 74.6093 62.9917 74.3822 64.0014 74.4562L64.0015 74.4562C64.6719 74.5049 65.3262 74.6853 65.9269 74.9871C66.5276 75.2889 67.0629 75.7061 67.5023 76.2148C67.9417 76.7236 68.2765 77.314 68.4875 77.9523C68.6986 78.5905 68.7818 79.2641 68.7324 79.9345Z" fill="white" stroke="black" stroke-width="0.377191"/>
<path d="M60.8351 77.5382C60.8351 77.5381 60.8352 77.538 60.8352 77.5379L60.904 77.5795C60.9084 77.5853 60.9124 77.5909 60.916 77.5964L60.8908 77.6386L60.8782 77.6597L60.7775 77.634C60.7957 77.604 60.8191 77.565 60.8351 77.5382Z" fill="#FDFDFD" stroke="black" stroke-width="0.377191"/>
<path d="M65.2943 15.4358C66.2126 16.3542 66.2126 17.8431 65.2943 18.7615C64.3759 19.6798 62.887 19.6798 61.9686 18.7615C61.0503 17.8431 61.0502 16.3542 61.9686 15.4358C62.887 14.5174 64.3759 14.5174 65.2943 15.4358Z" fill="#FDFDFD" stroke="black" stroke-width="0.377191"/>
<path d="M59.5735 41.765C59.694 41.7794 59.6338 42.3391 59.9897 43.1055C60.1913 43.5453 60.4849 43.9368 60.8507 44.2536C61.2795 44.6308 61.8133 44.8682 62.3806 44.9338C62.9509 44.9706 63.5191 44.8346 64.0109 44.5435C64.4271 44.3014 64.7872 43.9736 65.0672 43.5819C65.5551 42.9017 65.5982 42.3305 65.7187 42.3391C65.7675 42.3391 65.8163 42.4826 65.8163 42.7524C65.8054 43.1368 65.7073 43.5137 65.5293 43.8546C65.2619 44.3698 64.8665 44.8077 64.3812 45.1261C63.7812 45.5489 63.0503 45.7444 62.3193 45.6777C61.5883 45.6109 60.905 45.2861 60.3915 44.7616C59.9724 44.3608 59.6639 43.8586 59.496 43.3035C59.3763 42.9332 59.3449 42.54 59.4041 42.1554C59.4529 41.8885 59.5275 41.7564 59.5735 41.765Z" fill="white"/>
<mask id="path-36-inside-3_1410_1988" fill="white">
<path d="M84.0955 49.2022C84.0668 49.2022 84.3969 48.6856 84.7155 47.7814C85.1117 46.5973 85.3623 45.3694 85.4617 44.1247C85.5767 42.8844 85.6055 41.6376 85.5479 40.3933C85.5278 39.914 85.5048 39.5323 85.4818 39.2452C85.4624 39.1064 85.4576 38.966 85.4675 38.8262C85.5043 38.9614 85.5283 39.0998 85.5392 39.2395C85.5794 39.5064 85.6196 39.8939 85.6541 40.3876C85.7441 41.6419 85.7297 42.9015 85.611 44.1534C85.51 45.4097 85.2426 46.6471 84.8159 47.8331C84.6808 48.1908 84.5177 48.5373 84.328 48.8693C84.2602 48.9867 84.1824 49.0981 84.0955 49.2022Z"/>
</mask>
<path d="M84.0955 49.2022C84.0668 49.2022 84.3969 48.6856 84.7155 47.7814C85.1117 46.5973 85.3623 45.3694 85.4617 44.1247C85.5767 42.8844 85.6055 41.6376 85.5479 40.3933C85.5278 39.914 85.5048 39.5323 85.4818 39.2452C85.4624 39.1064 85.4576 38.966 85.4675 38.8262C85.5043 38.9614 85.5283 39.0998 85.5392 39.2395C85.5794 39.5064 85.6196 39.8939 85.6541 40.3876C85.7441 41.6419 85.7297 42.9015 85.611 44.1534C85.51 45.4097 85.2426 46.6471 84.8159 47.8331C84.6808 48.1908 84.5177 48.5373 84.328 48.8693C84.2602 48.9867 84.1824 49.0981 84.0955 49.2022Z" fill="#263238"/>
<path d="M84.0955 49.2022V49.5794H84.272L84.3851 49.4439L84.0955 49.2022ZM84.7155 47.7814L85.0713 47.9068L85.0732 47.9011L84.7155 47.7814ZM85.4617 44.1247L85.0861 44.0899L85.0858 44.0947L85.4617 44.1247ZM85.5479 40.3933L85.171 40.4091L85.1711 40.4108L85.5479 40.3933ZM85.4818 39.2452L85.8578 39.2152L85.8569 39.2041L85.8554 39.1931L85.4818 39.2452ZM85.4675 38.8262L85.8315 38.7272L85.0912 38.7997L85.4675 38.8262ZM85.5392 39.2395L85.1632 39.269L85.1643 39.2824L85.1663 39.2956L85.5392 39.2395ZM85.6541 40.3876L85.2778 40.4139L85.2778 40.4146L85.6541 40.3876ZM85.611 44.1534L85.2355 44.1178L85.235 44.1232L85.611 44.1534ZM84.8159 47.8331L85.1688 47.9664L85.1709 47.9608L84.8159 47.8331ZM84.328 48.8693L84.6546 49.0579L84.6555 49.0564L84.328 48.8693ZM84.0955 48.825C84.1695 48.825 84.2666 48.848 84.3493 48.9238C84.4261 48.9942 84.4533 49.0764 84.4632 49.1244C84.4804 49.2075 84.4635 49.2734 84.4619 49.2805C84.4573 49.3006 84.4521 49.3149 84.4505 49.3192C84.4483 49.325 84.4468 49.3284 84.4468 49.3285C84.4467 49.3288 84.4471 49.3279 84.4483 49.3253C84.4495 49.3227 84.4511 49.3193 84.4534 49.3147C84.4579 49.3054 84.4638 49.2937 84.4715 49.2786C84.5016 49.2197 84.5528 49.1215 84.6139 48.9969C84.7373 48.7453 84.9058 48.3762 85.0712 47.9068L84.3597 47.6561C84.2065 48.0908 84.0507 48.4321 83.9366 48.6648C83.8789 48.7824 83.8331 48.8699 83.7994 48.9361C83.7844 48.9655 83.7672 48.9996 83.7548 49.028C83.7508 49.0374 83.7359 49.0711 83.7266 49.1118C83.724 49.123 83.7069 49.1918 83.7244 49.277C83.7346 49.326 83.7622 49.409 83.8396 49.4799C83.9228 49.5562 84.0206 49.5794 84.0955 49.5794V48.825ZM85.0732 47.9011C85.4791 46.688 85.7359 45.4299 85.8377 44.1547L85.0858 44.0947C84.9888 45.3088 84.7443 46.5067 84.3578 47.6617L85.0732 47.9011ZM85.8373 44.1595C85.9539 42.9018 85.9831 41.6376 85.9246 40.3759L85.1711 40.4108C85.2279 41.6376 85.1995 42.867 85.0862 44.0899L85.8373 44.1595ZM85.9247 40.3775C85.9045 39.8949 85.8813 39.5082 85.8578 39.2152L85.1058 39.2753C85.1283 39.5563 85.151 39.9331 85.171 40.4091L85.9247 40.3775ZM85.8554 39.1931C85.8397 39.0803 85.8357 38.9662 85.8437 38.8527L85.0912 38.7997C85.0795 38.9657 85.0852 39.1325 85.1083 39.2974L85.8554 39.1931ZM85.1035 38.9251C85.1341 39.0376 85.1541 39.1528 85.1632 39.269L85.9153 39.21C85.9025 39.0468 85.8744 38.8852 85.8315 38.7272L85.1035 38.9251ZM85.1663 39.2956C85.2044 39.5487 85.2437 39.9252 85.2778 40.4139L86.0303 40.3613C85.9955 39.8627 85.9545 39.4641 85.9122 39.1833L85.1663 39.2956ZM85.2778 40.4146C85.3664 41.648 85.3522 42.8867 85.2355 44.1178L85.9865 44.189C86.1072 42.9163 86.1218 41.6357 86.0303 40.3606L85.2778 40.4146ZM85.235 44.1232C85.1367 45.3462 84.8764 46.5508 84.461 47.7054L85.1709 47.9608C85.6089 46.7434 85.8833 45.4732 85.987 44.1836L85.235 44.1232ZM84.4631 47.6998C84.335 48.0389 84.1803 48.3674 84.0005 48.6821L84.6555 49.0564C84.855 48.7071 85.0267 48.3427 85.1688 47.9664L84.4631 47.6998ZM84.0014 48.6806C83.9443 48.7794 83.8789 48.873 83.8059 48.9605L84.3851 49.4439C84.4858 49.3232 84.576 49.194 84.6546 49.0579L84.0014 48.6806Z" fill="black" mask="url(#path-36-inside-3_1410_1988)"/>
<mask id="path-38-inside-4_1410_1988" fill="white">
<path d="M41.4374 38.5654C41.4212 38.7048 41.3914 38.8423 41.3485 38.9759C41.3112 39.105 41.271 39.2629 41.2337 39.4523C41.1963 39.6418 41.1389 39.8484 41.1045 40.0867C41.0039 40.6399 40.9368 41.1987 40.9036 41.76C40.865 42.4468 40.8746 43.1355 40.9323 43.8209C40.9964 44.5051 41.1077 45.1841 41.2652 45.8531C41.397 46.4002 41.5619 46.9389 41.7589 47.4661C41.8364 47.6929 41.9254 47.8909 41.9972 48.0689C42.0689 48.2469 42.1378 48.3961 42.1952 48.5167C42.2606 48.6406 42.3144 48.7703 42.3559 48.9042C42.2743 48.7903 42.2032 48.6693 42.1435 48.5425C42.0624 48.399 41.9886 48.2515 41.9225 48.1005C41.8422 47.9283 41.7446 47.7302 41.6613 47.5035C41.4482 46.9776 41.2718 46.4377 41.1332 45.8875C40.9652 45.2122 40.8482 44.5252 40.783 43.8324C40.7245 43.1402 40.7188 42.4445 40.7658 41.7514C40.8058 41.1851 40.8845 40.6222 41.0012 40.0666C41.0442 39.8283 41.1045 39.6188 41.1533 39.4323C41.2021 39.2457 41.248 39.0878 41.2911 38.9587C41.3291 38.8238 41.3781 38.6923 41.4374 38.5654Z"/>
</mask>
<path d="M41.4374 38.5654C41.4212 38.7048 41.3914 38.8423 41.3485 38.9759C41.3112 39.105 41.271 39.2629 41.2337 39.4523C41.1963 39.6418 41.1389 39.8484 41.1045 40.0867C41.0039 40.6399 40.9368 41.1987 40.9036 41.76C40.865 42.4468 40.8746 43.1355 40.9323 43.8209C40.9964 44.5051 41.1077 45.1841 41.2652 45.8531C41.397 46.4002 41.5619 46.9389 41.7589 47.4661C41.8364 47.6929 41.9254 47.8909 41.9972 48.0689C42.0689 48.2469 42.1378 48.3961 42.1952 48.5167C42.2606 48.6406 42.3144 48.7703 42.3559 48.9042C42.2743 48.7903 42.2032 48.6693 42.1435 48.5425C42.0624 48.399 41.9886 48.2515 41.9225 48.1005C41.8422 47.9283 41.7446 47.7302 41.6613 47.5035C41.4482 46.9776 41.2718 46.4377 41.1332 45.8875C40.9652 45.2122 40.8482 44.5252 40.783 43.8324C40.7245 43.1402 40.7188 42.4445 40.7658 41.7514C40.8058 41.1851 40.8845 40.6222 41.0012 40.0666C41.0442 39.8283 41.1045 39.6188 41.1533 39.4323C41.2021 39.2457 41.248 39.0878 41.2911 38.9587C41.3291 38.8238 41.3781 38.6923 41.4374 38.5654Z" fill="#263238"/>
<path d="M41.4374 38.5654L41.8121 38.6091L41.0958 38.4056L41.4374 38.5654ZM41.3485 38.9759L40.9892 38.8604L40.9861 38.8712L41.3485 38.9759ZM41.1045 40.0867L41.4758 40.1542L41.4778 40.1406L41.1045 40.0867ZM40.9036 41.76L40.527 41.7378L40.527 41.7389L40.9036 41.76ZM40.9323 43.8209L40.5564 43.8526L40.5567 43.8561L40.9323 43.8209ZM41.2652 45.8531L40.8981 45.9395L40.8985 45.9414L41.2652 45.8531ZM41.7589 47.4661L42.116 47.3441L42.1122 47.3341L41.7589 47.4661ZM42.1952 48.5167L41.8546 48.6788L41.858 48.6859L41.8617 48.6928L42.1952 48.5167ZM42.3559 48.9042L42.0495 49.1241L42.7162 48.7925L42.3559 48.9042ZM42.1435 48.5425L42.4849 48.382L42.4788 48.3692L42.4719 48.3568L42.1435 48.5425ZM41.9225 48.1005L42.2682 47.9492L42.2643 47.941L41.9225 48.1005ZM41.6613 47.5035L42.0156 47.3734L42.0109 47.3618L41.6613 47.5035ZM41.1332 45.8875L40.7672 45.9785L40.7674 45.9796L41.1332 45.8875ZM40.783 43.8324L40.4072 43.8641L40.4075 43.8677L40.783 43.8324ZM40.7658 41.7514L40.3895 41.7248L40.3895 41.7259L40.7658 41.7514ZM41.0012 40.0666L41.3705 40.1441L41.3723 40.1337L41.0012 40.0666ZM41.2911 38.9587L41.6489 39.0779L41.6517 39.0696L41.6541 39.0611L41.2911 38.9587ZM41.0628 38.5218C41.0494 38.6368 41.0248 38.7502 40.9894 38.8605L41.7076 39.0913C41.758 38.9343 41.793 38.7728 41.8121 38.6091L41.0628 38.5218ZM40.9861 38.8712C40.946 39.01 40.9032 39.1784 40.8636 39.3794L41.6037 39.5252C41.6388 39.3474 41.6763 39.2001 41.7108 39.0806L40.9861 38.8712ZM40.8636 39.3794C40.8345 39.5273 40.7667 39.7874 40.7312 40.0327L41.4778 40.1406C41.5112 39.9095 41.5582 39.7563 41.6037 39.5252L40.8636 39.3794ZM40.7334 40.0192C40.63 40.5874 40.5611 41.1613 40.527 41.7378L41.2801 41.7823C41.3124 41.2362 41.3777 40.6925 41.4756 40.1542L40.7334 40.0192ZM40.527 41.7389C40.4874 42.4433 40.4972 43.1495 40.5564 43.8526L41.3081 43.7892C41.2519 43.1214 41.2426 42.4504 41.2802 41.7812L40.527 41.7389ZM40.5567 43.8561C40.6225 44.5576 40.7365 45.2537 40.8981 45.9395L41.6324 45.7666C41.4788 45.1145 41.3703 44.4527 41.3078 43.7857L40.5567 43.8561ZM40.8985 45.9414C41.0339 46.5034 41.2032 47.0567 41.4056 47.5982L42.1122 47.3341C41.9205 46.8212 41.7601 46.2971 41.6319 45.7647L40.8985 45.9414ZM41.402 47.5881C41.4838 47.8275 41.5825 48.0491 41.6473 48.21L42.347 47.9278C42.2683 47.7328 42.189 47.5583 42.1158 47.3442L41.402 47.5881ZM41.6473 48.21C41.7231 48.3978 41.7955 48.5547 41.8546 48.6788L42.5358 48.3545C42.4801 48.2376 42.4147 48.0959 42.347 47.9278L41.6473 48.21ZM41.8617 48.6928C41.9162 48.7961 41.9611 48.9042 41.9957 49.0158L42.7162 48.7925C42.6678 48.6364 42.6051 48.4851 42.5287 48.3405L41.8617 48.6928ZM42.6624 48.6842C42.5941 48.5891 42.5347 48.4879 42.4849 48.382L41.8022 48.703C41.8716 48.8506 41.9544 48.9916 42.0495 49.1241L42.6624 48.6842ZM42.4719 48.3568C42.397 48.2245 42.329 48.0885 42.2681 47.9492L41.577 48.2517C41.6482 48.4145 41.7277 48.5735 41.8152 48.7282L42.4719 48.3568ZM42.2643 47.941C42.1799 47.7601 42.0916 47.5811 42.0154 47.3735L41.3072 47.6334C41.3975 47.8793 41.5044 48.0964 41.5807 48.26L42.2643 47.941ZM42.0109 47.3618C41.8043 46.8521 41.6333 46.3287 41.499 45.7954L40.7674 45.9796C40.9102 46.5467 41.0921 47.1032 41.3118 47.6451L42.0109 47.3618ZM41.4992 45.7965C41.3358 45.1395 41.2219 44.4711 41.1586 43.7971L40.4075 43.8677C40.4744 44.5793 40.5946 45.2849 40.7672 45.9785L41.4992 45.7965ZM41.1589 43.8006C41.102 43.1275 41.0964 42.451 41.1421 41.777L40.3895 41.7259C40.3412 42.4381 40.3471 43.1529 40.4072 43.8641L41.1589 43.8006ZM41.1421 41.778C41.1809 41.2288 41.2571 40.6829 41.3703 40.1441L40.632 39.9891C40.5118 40.5615 40.4308 41.1414 40.3896 41.7248L41.1421 41.778ZM41.3723 40.1337C41.4121 39.9139 41.4667 39.7246 41.5182 39.5277L40.7884 39.3368C40.7423 39.5131 40.6764 39.7427 40.63 39.9995L41.3723 40.1337ZM41.5182 39.5277C41.5657 39.3461 41.6093 39.1968 41.6489 39.0779L40.9332 38.8394C40.8867 38.9789 40.8385 39.1452 40.7884 39.3368L41.5182 39.5277ZM41.6541 39.0611C41.6866 38.946 41.7284 38.8337 41.7791 38.7253L41.0958 38.4056C41.0278 38.551 40.9717 38.7017 40.9281 38.8562L41.6541 39.0611Z" fill="black" mask="url(#path-38-inside-4_1410_1988)"/>
<path d="M43.6725 65.2379C43.5179 65.1787 43.4212 65.0662 43.3873 64.9532C43.3549 64.845 43.3751 64.7241 43.4802 64.6186C44.8081 63.2854 49.5553 60.0892 64.6055 59.9121C79.9853 59.731 84.5997 63.2832 85.805 64.6555C85.8978 64.7612 85.916 64.8754 85.8887 64.974C85.8605 65.0754 85.7789 65.1769 85.6403 65.2367C82.143 66.7457 64.7677 73.3167 43.6725 65.2379Z" fill="#FBD362" stroke="black" stroke-width="0.377191"/>
</svg>
