<svg width="129" height="129" viewBox="0 0 129 129" fill="none" xmlns="http://www.w3.org/2000/svg">
<rect width="128.8" height="128.8" rx="16" fill="#EAD2EE"/>
<path d="M43.8277 62.5441C41.5051 61.4048 39.1043 60.4324 36.6435 59.6343C33.0975 58.5431 28.9136 59.5422 28.8215 60.723C28.7293 61.9039 29.3599 61.3632 30.187 62.6435C31.0141 63.9238 30.6405 66.916 31.8242 69.644C33.0078 72.3719 36.5513 73.7346 36.5513 73.7346L43.8277 62.5441Z" fill="#FBD362" stroke="#263238" stroke-width="0.306014" stroke-linecap="round" stroke-linejoin="round"/>
<path opacity="0.3" d="M41.4644 65.1817C41.4644 65.1817 36.0072 61.7263 32.825 60.543C29.6428 59.3597 29.4609 61.0886 29.4609 61.0886C29.9845 61.2807 30.4337 61.6335 30.7444 62.0966C31.055 62.5596 31.2111 63.109 31.1903 63.6662C31.1903 65.7079 32.2114 69.9368 34.6926 70.8097C37.1738 71.6826 41.4644 65.1817 41.4644 65.1817Z" fill="black"/>
<path d="M80.4002 69.0433C81.8265 68.5016 82.5111 66.8213 81.9294 65.2902C81.3476 63.7592 79.7198 62.9571 78.2935 63.4987C76.8672 64.0404 76.1825 65.7207 76.7643 67.2518C77.346 68.7829 78.9739 69.5849 80.4002 69.0433Z" fill="#FBD362" stroke="#263238" stroke-width="0.306014" stroke-linecap="round" stroke-linejoin="round"/>
<path d="M41.3047 98.002L44.3656 107.182C44.4486 107.431 44.6079 107.647 44.8207 107.801C45.0336 107.954 45.2893 108.036 45.5516 108.036H50.3225C50.5665 108.036 50.8054 107.965 51.0093 107.831C51.2132 107.697 51.3733 107.506 51.4697 107.282L53.6041 102.33" fill="#FBD362"/>
<path opacity="0.3" d="M42.8359 98.002L45.3681 107.182C45.416 107.413 45.5383 107.621 45.7162 107.775C45.8942 107.93 46.1178 108.021 46.3528 108.036H50.3087C50.526 108.025 50.7344 107.946 50.9048 107.811C51.0752 107.676 51.1992 107.491 51.2595 107.282L53.0301 102.33" fill="black"/>
<path d="M41.3047 98.002L44.3656 107.182C44.4486 107.431 44.6079 107.647 44.8207 107.801C45.0336 107.954 45.2893 108.036 45.5516 108.036H50.3225C50.5665 108.036 50.8054 107.965 51.0093 107.831C51.2132 107.697 51.3733 107.506 51.4697 107.282L53.6041 102.33" stroke="#263238" stroke-width="0.306014" stroke-linecap="round" stroke-linejoin="round"/>
<path d="M64.3234 98.002L61.2649 107.182C61.1819 107.431 61.0226 107.647 60.8098 107.801C60.5969 107.954 60.3412 108.036 60.0789 108.036H55.3129C55.0688 108.036 54.83 107.965 54.6261 107.831C54.4221 107.697 54.262 107.506 54.1656 107.282L52.0312 102.33" fill="#263238"/>
<path d="M64.3234 98.002L61.2649 107.182C61.1819 107.431 61.0226 107.647 60.8098 107.801C60.5969 107.954 60.3412 108.036 60.0789 108.036H55.3129C55.0688 108.036 54.83 107.965 54.6261 107.831C54.4221 107.697 54.262 107.506 54.1656 107.282L52.0312 102.33" stroke="#263238" stroke-width="0.306014" stroke-linecap="round" stroke-linejoin="round"/>
<path d="M74.4557 98.002L71.3948 107.182C71.3117 107.431 71.1525 107.647 70.9396 107.801C70.7267 107.954 70.471 108.036 70.2087 108.036H65.4379C65.1938 108.036 64.955 107.965 64.7511 107.831C64.5471 107.697 64.387 107.506 64.2906 107.282L62.1562 102.33" fill="#FBD362"/>
<path opacity="0.3" d="M72.2891 98.002L70.1959 107.182C70.0795 107.692 69.7545 108.036 69.3858 108.036H66.1236C65.784 108.036 65.476 107.74 65.3402 107.282L63.3125 102.432" fill="black"/>
<path d="M74.4557 98.002L71.3948 107.182C71.3117 107.431 71.1525 107.647 70.9396 107.801C70.7267 107.954 70.471 108.036 70.2087 108.036H65.4379C65.1938 108.036 64.955 107.965 64.7511 107.831C64.5471 107.697 64.387 107.506 64.2906 107.282L62.1562 102.33" stroke="#263238" stroke-width="0.306014" stroke-linecap="round" stroke-linejoin="round"/>
<path d="M58.1032 104.042C72.5929 104.042 84.3392 93.3918 84.3392 80.2543C84.3392 67.1168 72.5929 56.4668 58.1032 56.4668C43.6134 56.4668 31.8672 67.1168 31.8672 80.2543C31.8672 93.3918 43.6134 104.042 58.1032 104.042Z" fill="#FBD362"/>
<path opacity="0.3" d="M76.1698 64.001C77.7083 67.0513 78.5099 70.4198 78.5103 73.8361C78.5103 86.9737 66.7639 97.6236 52.2743 97.6236C46.8822 97.6508 41.5971 96.12 37.0547 93.2152C41.6291 99.3525 49.3735 103.399 58.156 103.399C72.2236 103.399 83.6232 93.0673 83.6232 80.32C83.6086 73.9403 80.7611 68.1765 76.1698 64.001Z" fill="black"/>
<path d="M58.1032 104.042C72.5929 104.042 84.3392 93.3918 84.3392 80.2543C84.3392 67.1168 72.5929 56.4668 58.1032 56.4668C43.6134 56.4668 31.8672 67.1168 31.8672 80.2543C31.8672 93.3918 43.6134 104.042 58.1032 104.042Z" stroke="#263238" stroke-width="0.306014" stroke-linecap="round" stroke-linejoin="round"/>
<path d="M82.1331 82.3887C81.5607 87.1801 79.3511 91.5278 76.0234 94.9614" stroke="#FBD362" stroke-width="0.612028" stroke-linecap="round" stroke-linejoin="round"/>
<path d="M81.6953 75.0098C82.0824 76.6145 82.2778 78.2595 82.2774 79.9103" stroke="#FBD362" stroke-width="0.612028" stroke-linecap="round" stroke-linejoin="round"/>
<path d="M51.5938 57.9509C53.7555 57.4457 55.9685 57.1918 58.1885 57.1944C59.6099 57.1941 61.0293 57.2978 62.4355 57.5047" stroke="#263238" stroke-width="1.22406" stroke-linecap="round" stroke-linejoin="round"/>
<path d="M63.2462 74.5567C63.2462 74.5567 65.7929 72.8279 65.885 69.6465C65.9772 66.4651 61.7909 61.8289 58.4268 59.9181C55.0627 58.0073 52.6057 58.3735 52.516 59.7362C52.4263 61.099 51.2427 62.646 50.7891 65.2818C50.3355 67.9176 50.1512 71.8288 53.6996 73.1019" fill="#FBD362"/>
<path d="M63.2462 74.5567C63.2462 74.5567 65.7929 72.8279 65.885 69.6465C65.9772 66.4651 61.7909 61.8289 58.4268 59.9181C55.0627 58.0073 52.6057 58.3735 52.516 59.7362C52.4263 61.099 51.2427 62.646 50.7891 65.2818C50.3355 67.9176 50.1512 71.8288 53.6996 73.1019" stroke="#263238" stroke-width="0.306014" stroke-linecap="round" stroke-linejoin="round"/>
<path opacity="0.3" d="M57.7699 73.5353L58.2914 73.6129C60.5276 73.9354 61.3135 72.4757 61.248 70.2836C61.1582 67.192 57.0665 60.645 55.3372 59.7357C53.6078 58.8263 53.0645 60.0994 53.0645 60.0994C53.0645 60.0994 53.3071 60.2618 52.4557 63.0868C52.0628 64.3913 50.6003 68.9403 52.0483 70.9577C53.3289 72.74 55.7083 73.2274 57.7699 73.5353Z" fill="black"/>
<path opacity="0.3" d="M65.0157 70.4022H64.9818C64.95 70.398 64.9194 70.3876 64.8917 70.3715C64.864 70.3554 64.8398 70.3341 64.8204 70.3086C64.801 70.2831 64.7868 70.2541 64.7787 70.2231C64.7706 70.1921 64.7688 70.1599 64.7732 70.1281C64.7995 69.9417 64.8148 69.7538 64.8193 69.5656C64.8678 67.8682 63.4828 65.4313 61.2054 63.1835C61.1826 63.161 61.1645 63.1343 61.152 63.1048C61.1396 63.0754 61.133 63.0438 61.1328 63.0118C61.1326 62.9798 61.1387 62.9481 61.1507 62.9185C61.1627 62.8889 61.1805 62.8619 61.2029 62.8391C61.2254 62.8164 61.2521 62.7982 61.2816 62.7858C61.311 62.7734 61.3427 62.7668 61.3746 62.7666C61.4066 62.7664 61.4383 62.7725 61.468 62.7845C61.4976 62.7965 61.5246 62.8143 61.5473 62.8367C63.9534 65.213 65.3577 67.7324 65.3044 69.5777C65.2991 69.7837 65.2829 69.9893 65.2559 70.1936C65.2477 70.2515 65.2189 70.3044 65.1748 70.3427C65.1306 70.381 65.0742 70.4021 65.0157 70.4022Z" fill="black"/>
<path opacity="0.3" d="M63.7121 73.3267C63.6662 73.3268 63.6212 73.314 63.5823 73.2896C63.5435 73.2652 63.5123 73.2302 63.4925 73.1889C63.4727 73.1475 63.465 73.1013 63.4704 73.0557C63.4758 73.0102 63.494 72.9671 63.5229 72.9314C63.9227 72.4418 64.242 71.8918 64.4689 71.3019C64.4917 71.2418 64.5375 71.1932 64.5962 71.1668C64.6548 71.1405 64.7216 71.1385 64.7817 71.1613C64.8419 71.1841 64.8905 71.2299 64.9169 71.2886C64.9433 71.3472 64.9453 71.414 64.9224 71.4741C64.6774 72.1125 64.3318 72.7076 63.8989 73.2369C63.8763 73.2648 63.8479 73.2872 63.8156 73.3027C63.7833 73.3183 63.7479 73.3264 63.7121 73.3267Z" fill="black"/>
<path opacity="0.3" d="M46.05 84.8569C46.7673 81.9827 44.267 78.884 40.4654 77.9357C36.6638 76.9874 33.0005 78.5486 32.2832 81.4228C31.5659 84.297 34.0662 87.3957 37.8678 88.344C41.6693 89.2923 45.3326 87.7311 46.05 84.8569Z" fill="black"/>
<path d="M45.7062 84.3354C46.4236 81.4613 43.9233 78.3625 40.1217 77.4142C36.3201 76.4659 32.6568 78.0271 31.9395 80.9013C31.2221 83.7755 33.7224 86.8742 37.524 87.8225C41.3256 88.7708 44.9889 87.2096 45.7062 84.3354Z" fill="#FBD362" stroke="#263238" stroke-width="0.306014" stroke-linecap="round" stroke-linejoin="round"/>
<path d="M36.6812 81.7503C36.7248 82.4001 36.475 82.9481 36.1258 82.9627C35.7765 82.9772 35.4539 82.4777 35.3981 81.8279C35.3423 81.178 35.6043 80.6276 35.956 80.6155C36.3077 80.6033 36.6375 81.098 36.6812 81.7503Z" stroke="#263238" stroke-width="0.306014" stroke-linecap="round" stroke-linejoin="round"/>
<path d="M41.4859 82.9559C41.5295 83.6082 41.2797 84.1538 40.9305 84.1683C40.5812 84.1829 40.2586 83.6834 40.2028 83.0311C40.147 82.3788 40.409 81.8332 40.7607 81.8187C41.1124 81.8041 41.4349 82.3036 41.4859 82.9559Z" stroke="#263238" stroke-width="0.306014" stroke-linecap="round" stroke-linejoin="round"/>
<path d="M49.4242 84.6406C49.373 85.1074 49.2638 85.566 49.0992 86.0058C47.707 89.7667 42.6669 91.3938 37.6875 89.774" stroke="#263238" stroke-width="0.918042" stroke-linecap="round" stroke-linejoin="round"/>
<path d="M48.6094 84.2842H50.1544" stroke="#263238" stroke-width="0.918042" stroke-linecap="round" stroke-linejoin="round"/>
<path d="M38.7686 74.2169C38.5988 74.9225 38.1647 75.4293 37.7984 75.3371C37.4322 75.245 37.2721 74.6097 37.4443 73.8968C37.6165 73.1839 38.0482 72.6844 38.4145 72.7741C38.7807 72.8638 38.9408 73.5088 38.7686 74.2169Z" fill="#263238" stroke="#263238" stroke-width="0.306014" stroke-linecap="round" stroke-linejoin="round"/>
<path d="M43.2359 75.1912C43.4066 74.483 43.2483 73.8373 42.8824 73.7492C42.5165 73.661 42.0814 74.1637 41.9107 74.8719C41.74 75.5802 41.8982 76.2258 42.2641 76.3139C42.6301 76.4021 43.0651 75.8994 43.2359 75.1912Z" fill="#263238" stroke="#263238" stroke-width="0.306014" stroke-linecap="round" stroke-linejoin="round"/>
<path d="M49.9219 100.955L52.5899 107.284C52.6856 107.511 52.846 107.704 53.0508 107.84C53.2557 107.975 53.4961 108.048 53.7419 108.048H58.5928C58.8364 108.048 59.0746 107.976 59.2784 107.843C59.4821 107.709 59.6425 107.519 59.7401 107.296L62.6506 100.572H62.5245" fill="#FBD362"/>
<path opacity="0.3" d="M55.5569 100.148C54.0192 100.148 52.2292 100.349 50.7812 100.014L53.2746 107.272C53.334 107.483 53.4578 107.669 53.6287 107.806C53.7996 107.943 54.0091 108.024 54.2278 108.036H58.2249C58.441 108.024 58.6481 107.945 58.8175 107.81C58.987 107.676 59.1104 107.492 59.1709 107.284L61.5842 99.8809L60.614 100.014C57.5361 100.349 57.6161 100.148 55.5569 100.148Z" fill="black"/>
<path d="M49.9219 100.955L52.5899 107.284C52.6856 107.511 52.846 107.704 53.0508 107.84C53.2557 107.975 53.4961 108.048 53.7419 108.048H58.5928C58.8364 108.048 59.0746 107.976 59.2784 107.843C59.4821 107.709 59.6425 107.519 59.7401 107.296L62.6506 100.572H62.5245" stroke="#263238" stroke-width="0.306014" stroke-linecap="round" stroke-linejoin="round"/>
<path d="M101.424 16.0059L82.9277 28.7792C82.9277 28.7792 81.8811 31.2745 80.5933 33.1261C79.3055 34.9777 75.6944 36.8292 75.6944 36.8292C75.6944 36.8292 75.3735 40.289 74.3269 41.4968C73.2803 42.7046 71.0256 41.9813 71.0256 41.9813C71.0256 41.9813 70.0586 43.0276 69.012 43.5099C67.9654 43.9921 64.7459 42.2224 64.7459 42.2224C64.7459 42.2224 67.6424 45.3614 68.0451 46.4078C68.4478 47.4541 69.1735 48.339 67.8858 49.3057C66.598 50.2724 65.1464 48.9031 65.1464 48.9031C65.1464 48.9031 65.7925 50.9957 63.9405 51.3983C62.0885 51.801 60.0705 47.7749 59.2651 46.4078C58.4596 45.0407 56.1252 39.8864 55.7247 39.6453C55.3242 39.4041 54.76 38.1167 55.5654 36.9088C56.3708 35.701 62.084 27.974 62.7279 27.4232C63.3718 26.8724 75.6944 23.9501 75.6944 23.9501L84.4567 16.0059" fill="white"/>
<path opacity="0.2" d="M81.9074 28.167C81.9074 28.167 80.3478 32.9541 78.9095 33.7283C77.4713 34.5026 69.2843 36.6041 66.0759 36.1617C62.8674 35.7193 61.0973 34.5026 61.0973 34.5026C61.0973 34.5026 59.3271 36.8253 58.5527 37.5996C58.0134 38.1003 57.3716 38.4777 56.6719 38.7056C56.6719 38.7056 60.522 48.3749 63.2901 51.3679C63.5051 51.4343 63.7336 51.445 63.9539 51.3989C65.8059 50.9963 65.1598 48.9036 65.1598 48.9036C65.1598 48.9036 66.6091 50.2707 67.8991 49.3062C69.1891 48.3417 68.4612 47.4546 68.0584 46.4083C67.6557 45.362 64.7482 42.2229 64.7482 42.2229C64.7482 42.2229 67.9677 43.9926 69.0143 43.5104C70.0609 43.0282 71.0279 41.9796 71.0279 41.9796C71.0279 41.9796 73.2826 42.7052 74.3292 41.4974C75.3758 40.2895 75.6967 36.8297 75.6967 36.8297C75.6967 36.8297 79.3189 34.9782 80.6089 33.1266C81.8989 31.2751 82.9433 28.7798 82.9433 28.7798L90.3251 23.6729L81.9074 28.167Z" fill="black"/>
<path d="M101.513 15.9619L82.9277 28.7794C82.9277 28.7794 81.8811 31.2746 80.5933 33.1262C79.3055 34.9778 75.6944 36.8293 75.6944 36.8293C75.6944 36.8293 75.3735 40.2891 74.3269 41.4969C73.2803 42.7048 71.0256 41.9814 71.0256 41.9814C71.0256 41.9814 70.0586 43.0277 69.012 43.51C67.9654 43.9922 64.7459 42.2225 64.7459 42.2225C64.7459 42.2225 67.6424 45.3615 68.0451 46.4079C68.4478 47.4542 69.1735 48.3391 67.8858 49.3058C66.598 50.2725 65.1464 48.9032 65.1464 48.9032C65.1464 48.9032 65.7925 50.9959 63.9405 51.3985C62.0885 51.8011 60.0705 47.775 59.2651 46.4079C58.4596 45.0408 56.1252 39.8865 55.7247 39.6454C55.3242 39.4043 54.76 38.1168 55.5654 36.909C56.3708 35.7011 62.084 27.9741 62.7279 27.4233C63.3718 26.8725 75.6944 23.9503 75.6944 23.9503L84.5008 15.9619" stroke="#263238" stroke-width="0.209967" stroke-linecap="round" stroke-linejoin="round"/>
<path d="M60.5602 33.8492C60.5602 33.8492 61.5272 35.2981 61.6887 36.5878C61.8259 37.687 61.5688 38.7993 60.963 39.7268C60.4806 40.4502 59.9982 41.0939 59.5955 42.2221C59.1928 43.3503 59.1131 44.9585 58.5489 45.7615C57.9847 46.5645 57.6638 47.3698 58.467 48.0953C59.2702 48.8209 61.3657 48.7391 62.4941 46.6464C63.6226 44.5537 64.3462 42.2995 65.0697 41.4943C65.7933 40.6891 68.1299 38.8398 68.1299 38.8398C68.1299 38.8398 74.4892 37.9549 75.6973 36.8289C76.9055 35.7029 77.9521 32.6436 77.9521 32.6436" fill="white"/>
<path d="M57.0406 45.5601C57.518 45.5601 57.9789 45.63 58.4137 45.7602C58.1397 46.1556 57.9164 46.5642 57.864 46.9719C57.8089 47.4009 57.9446 47.8163 58.3696 48.2002C58.9718 48.7442 60.2096 48.8487 61.2889 48.1473C61.6282 48.8034 61.8199 49.5483 61.8199 50.3381C61.8199 52.9771 59.6797 55.1162 57.0406 55.1162C54.4009 55.1162 52.2612 52.9771 52.2612 50.3381C52.2612 47.6992 54.4009 45.5601 57.0406 45.5601Z" fill="#F0EDF8" stroke="black" stroke-width="0.209967"/>
<path d="M60.5602 33.8492C60.5602 33.8492 61.5272 35.2981 61.6887 36.5878C61.8259 37.687 61.5688 38.7993 60.963 39.7268C60.4806 40.4502 59.9982 41.0939 59.5955 42.2221C59.1928 43.3503 59.1131 44.9585 58.5489 45.7615C57.9847 46.5645 57.6638 47.3698 58.467 48.0953C59.2702 48.8209 61.3657 48.7391 62.4941 46.6464C63.6226 44.5537 64.3462 42.2995 65.0697 41.4943C65.7933 40.6891 68.1299 38.8398 68.1299 38.8398C68.1299 38.8398 74.4892 37.9549 75.6973 36.8289C76.9055 35.7029 77.9521 32.6436 77.9521 32.6436" stroke="#263238" stroke-width="0.209967" stroke-linecap="round" stroke-linejoin="round"/>
<path d="M58.0625 37.8754C58.0625 37.8754 60.1579 39.0013 61.6869 37.7139" stroke="#263238" stroke-width="0.209967" stroke-linecap="round" stroke-linejoin="round"/>
<path d="M65.1467 48.903L63.2969 45.3613" stroke="#263238" stroke-width="0.209967" stroke-linecap="round" stroke-linejoin="round"/>
<path d="M71.0234 41.9818C71.0234 41.9818 72.4728 40.774 72.3909 38.1172" stroke="#263238" stroke-width="0.209967" stroke-linecap="round" stroke-linejoin="round"/>
</svg>
