<svg width="330" height="114" viewBox="0 0 330 114" fill="none" xmlns="http://www.w3.org/2000/svg">
<path d="M33.1556 23.5C42.2998 23.5 50.1011 26.7479 56.5915 33.1801C63.082 39.6123 66.3112 47.4137 66.3112 56.5206C66.3112 65.6276 63.05 73.3971 56.5915 79.8611C50.133 86.3251 42.2998 89.5412 33.1556 89.5412C24.0114 89.5412 16.2101 86.2933 9.75164 79.8611C3.29318 73.429 0 65.6276 0 56.5206C0 47.4137 3.26121 39.6441 9.75164 33.1801C16.2421 26.7161 24.0434 23.5 33.1556 23.5ZM33.1556 37.6699C30.6457 37.6529 28.1575 38.1333 25.8358 39.083C23.514 40.0327 21.4052 41.4328 19.6318 43.2019C17.8585 44.9709 16.4562 47.0736 15.5065 49.3874C14.5568 51.7013 14.0787 54.1802 14.0999 56.6798C14.0829 59.1768 14.5642 61.6522 15.5158 63.9624C16.4674 66.2726 17.8704 68.3715 19.6433 70.1371C21.4162 71.9028 23.5236 73.3 25.8432 74.2478C28.1629 75.1955 30.6484 75.6749 33.1556 75.6579C38.2095 75.6579 43.0564 73.6585 46.63 70.0994C50.2036 66.5403 52.2113 61.7131 52.2113 56.6798C52.2155 54.1849 51.7257 51.7137 50.7699 49.4074C49.8142 47.1012 48.4112 45.0054 46.6413 43.2397C44.8714 41.474 42.7693 40.0733 40.4553 39.1176C38.1413 38.1618 35.6607 37.6699 33.1556 37.6699Z" fill="white" fill-opacity="0.3"/>
<path d="M131.29 113.105C129.452 113.072 127.698 112.33 126.398 111.035C125.098 109.741 124.353 107.994 124.32 106.163V56.3932C124.352 47.2863 127.613 39.5168 134.104 33.1483C140.594 26.7798 148.332 23.5 157.476 23.5C166.62 23.5 174.421 26.7479 180.88 33.1801C187.338 39.6123 190.632 47.4137 190.632 56.5206C190.632 65.6276 187.37 73.3971 180.88 79.8611C174.389 86.3251 166.588 89.5412 157.476 89.5412C149.099 89.5412 142.769 87.6307 138.42 83.8096V106.163C138.387 107.994 137.643 109.741 136.342 111.035C135.042 112.33 133.289 113.072 131.45 113.105H131.29ZM170.936 69.8308C174.645 66.1052 176.532 61.6473 176.532 56.3932C176.532 51.1392 174.645 46.6495 170.936 42.9239C167.228 39.1983 162.751 37.447 157.476 37.447C152.2 37.447 147.66 39.262 143.951 42.9239C140.404 46.5103 138.415 51.3427 138.415 56.3773C138.415 61.4119 140.404 66.2444 143.951 69.8308C147.66 73.5245 152.168 75.3713 157.476 75.3713C159.98 75.4097 162.466 74.938 164.781 73.9852C167.095 73.0325 169.19 71.6187 170.936 69.8308Z" fill="white"/>
<path d="M323.029 0.000357303C324.875 0.00873311 326.643 0.742774 327.948 2.04278C329.253 3.34278 329.99 5.10355 329.999 6.94201V56.6799C329.977 65.7869 326.716 73.5246 320.215 79.8931C313.714 86.2616 305.923 89.4777 296.843 89.5413C287.699 89.5413 279.898 86.2934 273.407 79.8612C266.917 73.429 263.688 65.6277 263.688 56.5207C263.688 47.4138 266.949 39.6442 273.407 33.1802C279.866 26.7162 287.699 23.5001 296.843 23.5001C305.156 23.5001 311.508 25.4106 315.899 29.2317V6.94201C315.883 6.02088 316.06 5.10658 316.418 4.25699C316.775 3.40741 317.306 2.64105 317.977 2.00643C318.616 1.36251 319.378 0.853095 320.218 0.508468C321.059 0.163841 321.96 -0.0089548 322.869 0.000357303H323.029ZM283.319 43.2106C279.771 46.7969 277.782 51.6294 277.782 56.664C277.782 61.6986 279.771 66.5311 283.319 70.1174C287.028 73.8112 291.536 75.658 296.843 75.658C301.897 75.658 306.744 73.6586 310.317 70.0995C313.891 66.5404 315.899 61.7132 315.899 56.6799C315.903 54.185 315.413 51.7137 314.457 49.4075C313.502 47.1013 312.099 45.0054 310.329 43.2398C308.559 41.4741 306.457 40.0734 304.143 39.1176C301.829 38.1619 299.348 37.67 296.843 37.67C291.536 37.67 287.028 39.5168 283.319 43.2106Z" fill="white"/>
<path d="M260.17 56.5845C260.17 65.6914 256.93 73.4716 250.45 79.925C248.025 82.3784 245.231 84.441 242.169 86.0387C242.137 80.1479 242.105 73.8112 242.105 68.9393C242.105 64.0674 241.37 59.0363 239.867 54.8013C236.958 46.5541 231.139 40.7588 222.218 40.4085H221.387C218.062 40.4085 215.664 42.6056 214.161 45.7262C211.795 50.7573 211.827 58.2403 214.385 63.0803C215.792 65.7869 218.03 67.6338 221.067 67.7612H221.387C223.108 67.7542 224.823 67.5621 226.503 67.188C227.078 67.0514 227.675 67.0405 228.255 67.1559C228.834 67.2714 229.382 67.5104 229.86 67.8567C230.432 68.2459 230.9 68.7684 231.223 69.3789C231.547 69.9894 231.715 70.6692 231.714 71.3594V89.3185C230.168 89.5376 228.608 89.644 227.046 89.6369C217.902 89.6369 210.101 86.389 203.61 79.9568C197.12 73.5247 193.891 65.7233 193.891 56.6163C193.891 47.5094 197.12 39.7398 203.61 33.2758C210.101 26.8118 217.902 23.5957 227.046 23.5957C236.19 23.5957 243.96 26.8436 250.45 33.2758C256.941 39.708 260.17 47.4775 260.17 56.5845Z" fill="white"/>
<path d="M218.448 63.1438C218.242 63.2167 218.027 63.2596 217.808 63.2712C217.456 63.2697 217.112 63.1626 216.821 62.9639C216.53 62.7651 216.306 62.4839 216.178 62.1567C215.404 60.2522 214.909 58.2469 214.707 56.2022C214.483 53.8355 214.645 51.4483 215.187 49.1331C215.297 48.6813 215.583 48.2916 215.982 48.0498C216.38 47.8079 216.859 47.7337 217.313 47.8435C217.767 47.9533 218.158 48.2381 218.401 48.6352C218.643 49.0323 218.718 49.5092 218.608 49.961C218.161 51.8911 218.032 53.8805 218.224 55.8519C218.386 57.5678 218.795 59.2516 219.439 60.8512C219.608 61.2865 219.599 61.7704 219.413 62.199C219.228 62.6276 218.881 62.9668 218.448 63.1438Z" fill="#FAC649"/>
</svg>
