<svg width="1440" height="804" viewBox="0 0 1440 804" fill="none" xmlns="http://www.w3.org/2000/svg">
<path d="M0 0H1440V800H0V0Z" fill="#2F1562"/>
<path opacity="0.1" d="M24.2479 48.9663C25.4181 46.0247 29.5819 46.0247 30.7521 48.9663L32.4153 53.147C33.1154 54.907 34.5484 56.2741 36.3394 56.8905L39.7759 58.0733C42.9238 59.1568 42.9238 63.6087 39.7759 64.6922L36.3394 65.875C34.5484 66.4915 33.1154 67.8585 32.4153 69.6185L30.7521 73.7992C29.5819 76.7409 25.4181 76.7409 24.2479 73.7992L22.5847 69.6185C21.8846 67.8585 20.4516 66.4915 18.6606 65.875L15.2241 64.6922C12.0762 63.6087 12.0762 59.1568 15.2241 58.0733L18.6606 56.8905C20.4516 56.2741 21.8846 54.907 22.5847 53.147L24.2479 48.9663Z" stroke="#533097" stroke-width="3"/>
<path opacity="0.1" d="M276.248 49.233C277.418 46.2913 281.582 46.2913 282.752 49.233L284.415 53.4136C285.115 55.1736 286.548 56.5407 288.339 57.1571L291.776 58.3399C294.924 59.4234 294.924 63.8753 291.776 64.9588L288.339 66.1416C286.548 66.7581 285.115 68.1251 284.415 69.8851L282.752 74.0658C281.582 77.0075 277.418 77.0075 276.248 74.0658L274.585 69.8851C273.885 68.1251 272.452 66.7581 270.661 66.1416L267.224 64.9588C264.076 63.8753 264.076 59.4234 267.224 58.3399L270.661 57.1571C272.452 56.5407 273.885 55.1736 274.585 53.4136L276.248 49.233Z" stroke="#533097" stroke-width="3"/>
<path opacity="0.1" d="M528.248 48.233C529.418 45.2913 533.582 45.2913 534.752 48.233L536.415 52.4136C537.115 54.1736 538.548 55.5407 540.339 56.1571L543.776 57.3399C546.924 58.4234 546.924 62.8753 543.776 63.9588L540.339 65.1416C538.548 65.7581 537.115 67.1251 536.415 68.8851L534.752 73.0658C533.582 76.0075 529.418 76.0075 528.248 73.0658L526.585 68.8851C525.885 67.1251 524.452 65.7581 522.661 65.1416L519.224 63.9588C516.076 62.8753 516.076 58.4234 519.224 57.3399L522.661 56.1571C524.452 55.5407 525.885 54.1736 526.585 52.4136L528.248 48.233Z" stroke="#533097" stroke-width="3"/>
<path opacity="0.1" d="M24.2479 454.966C25.4181 452.025 29.5819 452.025 30.7521 454.966L32.4153 459.147C33.1154 460.907 34.5484 462.274 36.3394 462.891L39.7759 464.073C42.9238 465.157 42.9238 469.609 39.7759 470.692L36.3394 471.875C34.5484 472.491 33.1154 473.859 32.4153 475.618L30.7521 479.799C29.5819 482.741 25.4181 482.741 24.2479 479.799L22.5847 475.618C21.8846 473.859 20.4516 472.491 18.6606 471.875L15.2241 470.692C12.0762 469.609 12.0762 465.157 15.2241 464.073L18.6606 462.891C20.4516 462.274 21.8846 460.907 22.5847 459.147L24.2479 454.966Z" stroke="#533097" stroke-width="3"/>
<path opacity="0.1" d="M276.248 455.233C277.418 452.291 281.582 452.291 282.752 455.233L284.415 459.414C285.115 461.174 286.548 462.541 288.339 463.157L291.776 464.34C294.924 465.423 294.924 469.875 291.776 470.959L288.339 472.142C286.548 472.758 285.115 474.125 284.415 475.885L282.752 480.066C281.582 483.007 277.418 483.007 276.248 480.066L274.585 475.885C273.885 474.125 272.452 472.758 270.661 472.142L267.224 470.959C264.076 469.875 264.076 465.423 267.224 464.34L270.661 463.157C272.452 462.541 273.885 461.174 274.585 459.414L276.248 455.233Z" stroke="#533097" stroke-width="3"/>
<path opacity="0.1" d="M528.248 454.233C529.418 451.291 533.582 451.291 534.752 454.233L536.415 458.414C537.115 460.174 538.548 461.541 540.339 462.157L543.776 463.34C546.924 464.423 546.924 468.875 543.776 469.959L540.339 471.142C538.548 471.758 537.115 473.125 536.415 474.885L534.752 479.066C533.582 482.007 529.418 482.007 528.248 479.066L526.585 474.885C525.885 473.125 524.452 471.758 522.661 471.142L519.224 469.959C516.076 468.875 516.076 464.423 519.224 463.34L522.661 462.157C524.452 461.541 525.885 460.174 526.585 458.414L528.248 454.233Z" stroke="#533097" stroke-width="3"/>
<path opacity="0.1" d="M24.2479 251.966C25.4181 249.025 29.5819 249.025 30.7521 251.966L32.4153 256.147C33.1154 257.907 34.5484 259.274 36.3394 259.891L39.7759 261.073C42.9238 262.157 42.9238 266.609 39.7759 267.692L36.3394 268.875C34.5484 269.491 33.1154 270.859 32.4153 272.618L30.7521 276.799C29.5819 279.741 25.4181 279.741 24.2479 276.799L22.5847 272.618C21.8846 270.859 20.4516 269.491 18.6606 268.875L15.2241 267.692C12.0762 266.609 12.0762 262.157 15.2241 261.073L18.6606 259.891C20.4516 259.274 21.8846 257.907 22.5847 256.147L24.2479 251.966Z" stroke="#533097" stroke-width="3"/>
<path opacity="0.1" d="M276.248 252.233C277.418 249.291 281.582 249.291 282.752 252.233L284.415 256.414C285.115 258.174 286.548 259.541 288.339 260.157L291.776 261.34C294.924 262.423 294.924 266.875 291.776 267.959L288.339 269.142C286.548 269.758 285.115 271.125 284.415 272.885L282.752 277.066C281.582 280.007 277.418 280.007 276.248 277.066L274.585 272.885C273.885 271.125 272.452 269.758 270.661 269.142L267.224 267.959C264.076 266.875 264.076 262.423 267.224 261.34L270.661 260.157C272.452 259.541 273.885 258.174 274.585 256.414L276.248 252.233Z" stroke="#533097" stroke-width="3"/>
<path opacity="0.1" d="M528.248 251.233C529.418 248.291 533.582 248.291 534.752 251.233L536.415 255.414C537.115 257.174 538.548 258.541 540.339 259.157L543.776 260.34C546.924 261.423 546.924 265.875 543.776 266.959L540.339 268.142C538.548 268.758 537.115 270.125 536.415 271.885L534.752 276.066C533.582 279.007 529.418 279.007 528.248 276.066L526.585 271.885C525.885 270.125 524.452 268.758 522.661 268.142L519.224 266.959C516.076 265.875 516.076 261.423 519.224 260.34L522.661 259.157C524.452 258.541 525.885 257.174 526.585 255.414L528.248 251.233Z" stroke="#533097" stroke-width="3"/>
<path opacity="0.1" d="M24.2479 657.966C25.4181 655.025 29.5819 655.025 30.7521 657.966L32.4153 662.147C33.1154 663.907 34.5484 665.274 36.3394 665.891L39.7759 667.073C42.9238 668.157 42.9238 672.609 39.7759 673.692L36.3394 674.875C34.5484 675.491 33.1154 676.859 32.4153 678.618L30.7521 682.799C29.5819 685.741 25.4181 685.741 24.2479 682.799L22.5847 678.618C21.8846 676.859 20.4516 675.491 18.6606 674.875L15.2241 673.692C12.0762 672.609 12.0762 668.157 15.2241 667.073L18.6606 665.891C20.4516 665.274 21.8846 663.907 22.5847 662.147L24.2479 657.966Z" stroke="#533097" stroke-width="3"/>
<path opacity="0.1" d="M276.248 658.233C277.418 655.291 281.582 655.291 282.752 658.233L284.415 662.414C285.115 664.174 286.548 665.541 288.339 666.157L291.776 667.34C294.924 668.423 294.924 672.875 291.776 673.959L288.339 675.142C286.548 675.758 285.115 677.125 284.415 678.885L282.752 683.066C281.582 686.007 277.418 686.007 276.248 683.066L274.585 678.885C273.885 677.125 272.452 675.758 270.661 675.142L267.224 673.959C264.076 672.875 264.076 668.423 267.224 667.34L270.661 666.157C272.452 665.541 273.885 664.174 274.585 662.414L276.248 658.233Z" stroke="#533097" stroke-width="3"/>
<path opacity="0.1" d="M528.248 657.233C529.418 654.291 533.582 654.291 534.752 657.233L536.415 661.414C537.115 663.174 538.548 664.541 540.339 665.157L543.776 666.34C546.924 667.423 546.924 671.875 543.776 672.959L540.339 674.142C538.548 674.758 537.115 676.125 536.415 677.885L534.752 682.066C533.582 685.007 529.418 685.007 528.248 682.066L526.585 677.885C525.885 676.125 524.452 674.758 522.661 674.142L519.224 672.959C516.076 671.875 516.076 667.423 519.224 666.34L522.661 665.157C524.452 664.541 525.885 663.174 526.585 661.414L528.248 657.233Z" stroke="#533097" stroke-width="3"/>
<path opacity="0.1" d="M780.248 48.233C781.418 45.2913 785.582 45.2913 786.752 48.233L788.415 52.4136C789.115 54.1736 790.548 55.5407 792.339 56.1571L795.776 57.3399C798.924 58.4234 798.924 62.8753 795.776 63.9588L792.339 65.1416C790.548 65.7581 789.115 67.1251 788.415 68.8851L786.752 73.0658C785.582 76.0075 781.418 76.0075 780.248 73.0658L778.585 68.8851C777.885 67.1251 776.452 65.7581 774.661 65.1416L771.224 63.9588C768.076 62.8753 768.076 58.4234 771.224 57.3399L774.661 56.1571C776.452 55.5407 777.885 54.1736 778.585 52.4136L780.248 48.233Z" stroke="#533097" stroke-width="3"/>
<path opacity="0.1" d="M780.248 454.233C781.418 451.291 785.582 451.291 786.752 454.233L788.415 458.414C789.115 460.174 790.548 461.541 792.339 462.157L795.776 463.34C798.924 464.423 798.924 468.875 795.776 469.959L792.339 471.142C790.548 471.758 789.115 473.125 788.415 474.885L786.752 479.066C785.582 482.007 781.418 482.007 780.248 479.066L778.585 474.885C777.885 473.125 776.452 471.758 774.661 471.142L771.224 469.959C768.076 468.875 768.076 464.423 771.224 463.34L774.661 462.157C776.452 461.541 777.885 460.174 778.585 458.414L780.248 454.233Z" stroke="#533097" stroke-width="3"/>
<path opacity="0.1" d="M780.248 251.233C781.418 248.291 785.582 248.291 786.752 251.233L788.415 255.414C789.115 257.174 790.548 258.541 792.339 259.157L795.776 260.34C798.924 261.423 798.924 265.875 795.776 266.959L792.339 268.142C790.548 268.758 789.115 270.125 788.415 271.885L786.752 276.066C785.582 279.007 781.418 279.007 780.248 276.066L778.585 271.885C777.885 270.125 776.452 268.758 774.661 268.142L771.224 266.959C768.076 265.875 768.076 261.423 771.224 260.34L774.661 259.157C776.452 258.541 777.885 257.174 778.585 255.414L780.248 251.233Z" stroke="#533097" stroke-width="3"/>
<path opacity="0.1" d="M780.248 657.233C781.418 654.291 785.582 654.291 786.752 657.233L788.415 661.414C789.115 663.174 790.548 664.541 792.339 665.157L795.776 666.34C798.924 667.423 798.924 671.875 795.776 672.959L792.339 674.142C790.548 674.758 789.115 676.125 788.415 677.885L786.752 682.066C785.582 685.007 781.418 685.007 780.248 682.066L778.585 677.885C777.885 676.125 776.452 674.758 774.661 674.142L771.224 672.959C768.076 671.875 768.076 667.423 771.224 666.34L774.661 665.157C776.452 664.541 777.885 663.174 778.585 661.414L780.248 657.233Z" stroke="#533097" stroke-width="3"/>
<path opacity="0.1" d="M1032.25 49.233C1033.42 46.2913 1037.58 46.2913 1038.75 49.233L1040.42 53.4136C1041.12 55.1736 1042.55 56.5407 1044.34 57.1571L1047.78 58.3399C1050.92 59.4234 1050.92 63.8753 1047.78 64.9588L1044.34 66.1416C1042.55 66.7581 1041.12 68.1251 1040.42 69.8851L1038.75 74.0658C1037.58 77.0075 1033.42 77.0075 1032.25 74.0658L1030.58 69.8851C1029.88 68.1251 1028.45 66.7581 1026.66 66.1416L1023.22 64.9588C1020.08 63.8753 1020.08 59.4234 1023.22 58.3399L1026.66 57.1571C1028.45 56.5407 1029.88 55.1736 1030.58 53.4136L1032.25 49.233Z" stroke="#533097" stroke-width="3"/>
<path opacity="0.1" d="M1032.25 455.233C1033.42 452.291 1037.58 452.291 1038.75 455.233L1040.42 459.414C1041.12 461.174 1042.55 462.541 1044.34 463.157L1047.78 464.34C1050.92 465.423 1050.92 469.875 1047.78 470.959L1044.34 472.142C1042.55 472.758 1041.12 474.125 1040.42 475.885L1038.75 480.066C1037.58 483.007 1033.42 483.007 1032.25 480.066L1030.58 475.885C1029.88 474.125 1028.45 472.758 1026.66 472.142L1023.22 470.959C1020.08 469.875 1020.08 465.423 1023.22 464.34L1026.66 463.157C1028.45 462.541 1029.88 461.174 1030.58 459.414L1032.25 455.233Z" stroke="#533097" stroke-width="3"/>
<path opacity="0.1" d="M1032.25 252.233C1033.42 249.291 1037.58 249.291 1038.75 252.233L1040.42 256.414C1041.12 258.174 1042.55 259.541 1044.34 260.157L1047.78 261.34C1050.92 262.423 1050.92 266.875 1047.78 267.959L1044.34 269.142C1042.55 269.758 1041.12 271.125 1040.42 272.885L1038.75 277.066C1037.58 280.007 1033.42 280.007 1032.25 277.066L1030.58 272.885C1029.88 271.125 1028.45 269.758 1026.66 269.142L1023.22 267.959C1020.08 266.875 1020.08 262.423 1023.22 261.34L1026.66 260.157C1028.45 259.541 1029.88 258.174 1030.58 256.414L1032.25 252.233Z" stroke="#533097" stroke-width="3"/>
<path opacity="0.1" d="M1032.25 658.233C1033.42 655.291 1037.58 655.291 1038.75 658.233L1040.42 662.414C1041.12 664.174 1042.55 665.541 1044.34 666.157L1047.78 667.34C1050.92 668.423 1050.92 672.875 1047.78 673.959L1044.34 675.142C1042.55 675.758 1041.12 677.125 1040.42 678.885L1038.75 683.066C1037.58 686.007 1033.42 686.007 1032.25 683.066L1030.58 678.885C1029.88 677.125 1028.45 675.758 1026.66 675.142L1023.22 673.959C1020.08 672.875 1020.08 668.423 1023.22 667.34L1026.66 666.157C1028.45 665.541 1029.88 664.174 1030.58 662.414L1032.25 658.233Z" stroke="#533097" stroke-width="3"/>
<path opacity="0.1" d="M1284.25 49.233C1285.42 46.2913 1289.58 46.2913 1290.75 49.233L1292.42 53.4136C1293.12 55.1736 1294.55 56.5407 1296.34 57.1571L1299.78 58.3399C1302.92 59.4234 1302.92 63.8753 1299.78 64.9588L1296.34 66.1416C1294.55 66.7581 1293.12 68.1251 1292.42 69.8851L1290.75 74.0658C1289.58 77.0075 1285.42 77.0075 1284.25 74.0658L1282.58 69.8851C1281.88 68.1251 1280.45 66.7581 1278.66 66.1416L1275.22 64.9588C1272.08 63.8753 1272.08 59.4234 1275.22 58.3399L1278.66 57.1571C1280.45 56.5407 1281.88 55.1736 1282.58 53.4136L1284.25 49.233Z" stroke="#533097" stroke-width="3"/>
<path opacity="0.1" d="M1284.25 455.233C1285.42 452.291 1289.58 452.291 1290.75 455.233L1292.42 459.414C1293.12 461.174 1294.55 462.541 1296.34 463.157L1299.78 464.34C1302.92 465.423 1302.92 469.875 1299.78 470.959L1296.34 472.142C1294.55 472.758 1293.12 474.125 1292.42 475.885L1290.75 480.066C1289.58 483.007 1285.42 483.007 1284.25 480.066L1282.58 475.885C1281.88 474.125 1280.45 472.758 1278.66 472.142L1275.22 470.959C1272.08 469.875 1272.08 465.423 1275.22 464.34L1278.66 463.157C1280.45 462.541 1281.88 461.174 1282.58 459.414L1284.25 455.233Z" stroke="#533097" stroke-width="3"/>
<path opacity="0.1" d="M1284.25 252.233C1285.42 249.291 1289.58 249.291 1290.75 252.233L1292.42 256.414C1293.12 258.174 1294.55 259.541 1296.34 260.157L1299.78 261.34C1302.92 262.423 1302.92 266.875 1299.78 267.959L1296.34 269.142C1294.55 269.758 1293.12 271.125 1292.42 272.885L1290.75 277.066C1289.58 280.007 1285.42 280.007 1284.25 277.066L1282.58 272.885C1281.88 271.125 1280.45 269.758 1278.66 269.142L1275.22 267.959C1272.08 266.875 1272.08 262.423 1275.22 261.34L1278.66 260.157C1280.45 259.541 1281.88 258.174 1282.58 256.414L1284.25 252.233Z" stroke="#533097" stroke-width="3"/>
<path opacity="0.1" d="M1284.25 658.233C1285.42 655.291 1289.58 655.291 1290.75 658.233L1292.42 662.414C1293.12 664.174 1294.55 665.541 1296.34 666.157L1299.78 667.34C1302.92 668.423 1302.92 672.875 1299.78 673.959L1296.34 675.142C1294.55 675.758 1293.12 677.125 1292.42 678.885L1290.75 683.066C1289.58 686.007 1285.42 686.007 1284.25 683.066L1282.58 678.885C1281.88 677.125 1280.45 675.758 1278.66 675.142L1275.22 673.959C1272.08 672.875 1272.08 668.423 1275.22 667.34L1278.66 666.157C1280.45 665.541 1281.88 664.174 1282.58 662.414L1284.25 658.233Z" stroke="#533097" stroke-width="3"/>
<path opacity="0.1" d="M654.248 150.233C655.418 147.291 659.582 147.291 660.752 150.233L662.415 154.414C663.115 156.174 664.548 157.541 666.339 158.157L669.776 159.34C672.924 160.423 672.924 164.875 669.776 165.959L666.339 167.142C664.548 167.758 663.115 169.125 662.415 170.885L660.752 175.066C659.582 178.007 655.418 178.007 654.248 175.066L652.585 170.885C651.885 169.125 650.452 167.758 648.661 167.142L645.224 165.959C642.076 164.875 642.076 160.423 645.224 159.34L648.661 158.157C650.452 157.541 651.885 156.174 652.585 154.414L654.248 150.233Z" stroke="#533097" stroke-width="3"/>
<path opacity="0.1" d="M402.248 150.233C403.418 147.291 407.582 147.291 408.752 150.233L410.415 154.414C411.115 156.174 412.548 157.541 414.339 158.157L417.776 159.34C420.924 160.423 420.924 164.875 417.776 165.959L414.339 167.142C412.548 167.758 411.115 169.125 410.415 170.885L408.752 175.066C407.582 178.007 403.418 178.007 402.248 175.066L400.585 170.885C399.885 169.125 398.452 167.758 396.661 167.142L393.224 165.959C390.076 164.875 390.076 160.423 393.224 159.34L396.661 158.157C398.452 157.541 399.885 156.174 400.585 154.414L402.248 150.233Z" stroke="#533097" stroke-width="3"/>
<path opacity="0.1" d="M150.248 150.233C151.418 147.291 155.582 147.291 156.752 150.233L158.415 154.414C159.115 156.174 160.548 157.541 162.339 158.157L165.776 159.34C168.924 160.423 168.924 164.875 165.776 165.959L162.339 167.142C160.548 167.758 159.115 169.125 158.415 170.885L156.752 175.066C155.582 178.007 151.418 178.007 150.248 175.066L148.585 170.885C147.885 169.125 146.452 167.758 144.661 167.142L141.224 165.959C138.076 164.875 138.076 160.423 141.224 159.34L144.661 158.157C146.452 157.541 147.885 156.174 148.585 154.414L150.248 150.233Z" stroke="#533097" stroke-width="3"/>
<path opacity="0.1" d="M654.248 556.233C655.418 553.291 659.582 553.291 660.752 556.233L662.415 560.414C663.115 562.174 664.548 563.541 666.339 564.157L669.776 565.34C672.924 566.423 672.924 570.875 669.776 571.959L666.339 573.142C664.548 573.758 663.115 575.125 662.415 576.885L660.752 581.066C659.582 584.007 655.418 584.007 654.248 581.066L652.585 576.885C651.885 575.125 650.452 573.758 648.661 573.142L645.224 571.959C642.076 570.875 642.076 566.423 645.224 565.34L648.661 564.157C650.452 563.541 651.885 562.174 652.585 560.414L654.248 556.233Z" stroke="#533097" stroke-width="3"/>
<path opacity="0.1" d="M402.248 556.233C403.418 553.291 407.582 553.291 408.752 556.233L410.415 560.414C411.115 562.174 412.548 563.541 414.339 564.157L417.776 565.34C420.924 566.423 420.924 570.875 417.776 571.959L414.339 573.142C412.548 573.758 411.115 575.125 410.415 576.885L408.752 581.066C407.582 584.007 403.418 584.007 402.248 581.066L400.585 576.885C399.885 575.125 398.452 573.758 396.661 573.142L393.224 571.959C390.076 570.875 390.076 566.423 393.224 565.34L396.661 564.157C398.452 563.541 399.885 562.174 400.585 560.414L402.248 556.233Z" stroke="#533097" stroke-width="3"/>
<path opacity="0.1" d="M150.248 556.233C151.418 553.291 155.582 553.291 156.752 556.233L158.415 560.414C159.115 562.174 160.548 563.541 162.339 564.157L165.776 565.34C168.924 566.423 168.924 570.875 165.776 571.959L162.339 573.142C160.548 573.758 159.115 575.125 158.415 576.885L156.752 581.066C155.582 584.007 151.418 584.007 150.248 581.066L148.585 576.885C147.885 575.125 146.452 573.758 144.661 573.142L141.224 571.959C138.076 570.875 138.076 566.423 141.224 565.34L144.661 564.157C146.452 563.541 147.885 562.174 148.585 560.414L150.248 556.233Z" stroke="#533097" stroke-width="3"/>
<path opacity="0.1" d="M654.248 353.233C655.418 350.291 659.582 350.291 660.752 353.233L662.415 357.414C663.115 359.174 664.548 360.541 666.339 361.157L669.776 362.34C672.924 363.423 672.924 367.875 669.776 368.959L666.339 370.142C664.548 370.758 663.115 372.125 662.415 373.885L660.752 378.066C659.582 381.007 655.418 381.007 654.248 378.066L652.585 373.885C651.885 372.125 650.452 370.758 648.661 370.142L645.224 368.959C642.076 367.875 642.076 363.423 645.224 362.34L648.661 361.157C650.452 360.541 651.885 359.174 652.585 357.414L654.248 353.233Z" stroke="#533097" stroke-width="3"/>
<path opacity="0.1" d="M402.248 353.233C403.418 350.291 407.582 350.291 408.752 353.233L410.415 357.414C411.115 359.174 412.548 360.541 414.339 361.157L417.776 362.34C420.924 363.423 420.924 367.875 417.776 368.959L414.339 370.142C412.548 370.758 411.115 372.125 410.415 373.885L408.752 378.066C407.582 381.007 403.418 381.007 402.248 378.066L400.585 373.885C399.885 372.125 398.452 370.758 396.661 370.142L393.224 368.959C390.076 367.875 390.076 363.423 393.224 362.34L396.661 361.157C398.452 360.541 399.885 359.174 400.585 357.414L402.248 353.233Z" stroke="#533097" stroke-width="3"/>
<path opacity="0.1" d="M150.248 353.233C151.418 350.291 155.582 350.291 156.752 353.233L158.415 357.414C159.115 359.174 160.548 360.541 162.339 361.157L165.776 362.34C168.924 363.423 168.924 367.875 165.776 368.959L162.339 370.142C160.548 370.758 159.115 372.125 158.415 373.885L156.752 378.066C155.582 381.007 151.418 381.007 150.248 378.066L148.585 373.885C147.885 372.125 146.452 370.758 144.661 370.142L141.224 368.959C138.076 367.875 138.076 363.423 141.224 362.34L144.661 361.157C146.452 360.541 147.885 359.174 148.585 357.414L150.248 353.233Z" stroke="#533097" stroke-width="3"/>
<path opacity="0.1" d="M906.248 150.233C907.418 147.291 911.582 147.291 912.752 150.233L914.415 154.414C915.115 156.174 916.548 157.541 918.339 158.157L921.776 159.34C924.924 160.423 924.924 164.875 921.776 165.959L918.339 167.142C916.548 167.758 915.115 169.125 914.415 170.885L912.752 175.066C911.582 178.007 907.418 178.007 906.248 175.066L904.585 170.885C903.885 169.125 902.452 167.758 900.661 167.142L897.224 165.959C894.076 164.875 894.076 160.423 897.224 159.34L900.661 158.157C902.452 157.541 903.885 156.174 904.585 154.414L906.248 150.233Z" stroke="#533097" stroke-width="3"/>
<path opacity="0.1" d="M906.248 556.233C907.418 553.291 911.582 553.291 912.752 556.233L914.415 560.414C915.115 562.174 916.548 563.541 918.339 564.157L921.776 565.34C924.924 566.423 924.924 570.875 921.776 571.959L918.339 573.142C916.548 573.758 915.115 575.125 914.415 576.885L912.752 581.066C911.582 584.007 907.418 584.007 906.248 581.066L904.585 576.885C903.885 575.125 902.452 573.758 900.661 573.142L897.224 571.959C894.076 570.875 894.076 566.423 897.224 565.34L900.661 564.157C902.452 563.541 903.885 562.174 904.585 560.414L906.248 556.233Z" stroke="#533097" stroke-width="3"/>
<path opacity="0.1" d="M906.248 353.233C907.418 350.291 911.582 350.291 912.752 353.233L914.415 357.414C915.115 359.174 916.548 360.541 918.339 361.157L921.776 362.34C924.924 363.423 924.924 367.875 921.776 368.959L918.339 370.142C916.548 370.758 915.115 372.125 914.415 373.885L912.752 378.066C911.582 381.007 907.418 381.007 906.248 378.066L904.585 373.885C903.885 372.125 902.452 370.758 900.661 370.142L897.224 368.959C894.076 367.875 894.076 363.423 897.224 362.34L900.661 361.157C902.452 360.541 903.885 359.174 904.585 357.414L906.248 353.233Z" stroke="#533097" stroke-width="3"/>
<path opacity="0.1" d="M906.248 759.233C907.418 756.291 911.582 756.291 912.752 759.233L914.415 763.414C915.115 765.174 916.548 766.541 918.339 767.157L921.776 768.34C924.924 769.423 924.924 773.875 921.776 774.959L918.339 776.142C916.548 776.758 915.115 778.125 914.415 779.885L912.752 784.066C911.582 787.007 907.418 787.007 906.248 784.066L904.585 779.885C903.885 778.125 902.452 776.758 900.661 776.142L897.224 774.959C894.076 773.875 894.076 769.423 897.224 768.34L900.661 767.157C902.452 766.541 903.885 765.174 904.585 763.414L906.248 759.233Z" stroke="#533097" stroke-width="3"/>
<path opacity="0.1" d="M1158.25 150.233C1159.42 147.291 1163.58 147.291 1164.75 150.233L1166.42 154.414C1167.12 156.174 1168.55 157.541 1170.34 158.157L1173.78 159.34C1176.92 160.423 1176.92 164.875 1173.78 165.959L1170.34 167.142C1168.55 167.758 1167.12 169.125 1166.42 170.885L1164.75 175.066C1163.58 178.007 1159.42 178.007 1158.25 175.066L1156.58 170.885C1155.88 169.125 1154.45 167.758 1152.66 167.142L1149.22 165.959C1146.08 164.875 1146.08 160.423 1149.22 159.34L1152.66 158.157C1154.45 157.541 1155.88 156.174 1156.58 154.414L1158.25 150.233Z" stroke="#533097" stroke-width="3"/>
<path opacity="0.1" d="M1158.25 556.233C1159.42 553.291 1163.58 553.291 1164.75 556.233L1166.42 560.414C1167.12 562.174 1168.55 563.541 1170.34 564.157L1173.78 565.34C1176.92 566.423 1176.92 570.875 1173.78 571.959L1170.34 573.142C1168.55 573.758 1167.12 575.125 1166.42 576.885L1164.75 581.066C1163.58 584.007 1159.42 584.007 1158.25 581.066L1156.58 576.885C1155.88 575.125 1154.45 573.758 1152.66 573.142L1149.22 571.959C1146.08 570.875 1146.08 566.423 1149.22 565.34L1152.66 564.157C1154.45 563.541 1155.88 562.174 1156.58 560.414L1158.25 556.233Z" stroke="#533097" stroke-width="3"/>
<path opacity="0.1" d="M1158.25 353.233C1159.42 350.291 1163.58 350.291 1164.75 353.233L1166.42 357.414C1167.12 359.174 1168.55 360.541 1170.34 361.157L1173.78 362.34C1176.92 363.423 1176.92 367.875 1173.78 368.959L1170.34 370.142C1168.55 370.758 1167.12 372.125 1166.42 373.885L1164.75 378.066C1163.58 381.007 1159.42 381.007 1158.25 378.066L1156.58 373.885C1155.88 372.125 1154.45 370.758 1152.66 370.142L1149.22 368.959C1146.08 367.875 1146.08 363.423 1149.22 362.34L1152.66 361.157C1154.45 360.541 1155.88 359.174 1156.58 357.414L1158.25 353.233Z" stroke="#533097" stroke-width="3"/>
<path opacity="0.1" d="M1158.25 759.233C1159.42 756.291 1163.58 756.291 1164.75 759.233L1166.42 763.414C1167.12 765.174 1168.55 766.541 1170.34 767.157L1173.78 768.34C1176.92 769.423 1176.92 773.875 1173.78 774.959L1170.34 776.142C1168.55 776.758 1167.12 778.125 1166.42 779.885L1164.75 784.066C1163.58 787.007 1159.42 787.007 1158.25 784.066L1156.58 779.885C1155.88 778.125 1154.45 776.758 1152.66 776.142L1149.22 774.959C1146.08 773.875 1146.08 769.423 1149.22 768.34L1152.66 767.157C1154.45 766.541 1155.88 765.174 1156.58 763.414L1158.25 759.233Z" stroke="#533097" stroke-width="3"/>
<path opacity="0.1" d="M1410.25 150.233C1411.42 147.291 1415.58 147.291 1416.75 150.233L1418.42 154.414C1419.12 156.174 1420.55 157.541 1422.34 158.157L1425.78 159.34C1428.92 160.423 1428.92 164.875 1425.78 165.959L1422.34 167.142C1420.55 167.758 1419.12 169.125 1418.42 170.885L1416.75 175.066C1415.58 178.007 1411.42 178.007 1410.25 175.066L1408.58 170.885C1407.88 169.125 1406.45 167.758 1404.66 167.142L1401.22 165.959C1398.08 164.875 1398.08 160.423 1401.22 159.34L1404.66 158.157C1406.45 157.541 1407.88 156.174 1408.58 154.414L1410.25 150.233Z" stroke="#533097" stroke-width="3"/>
<path opacity="0.1" d="M1410.25 556.233C1411.42 553.291 1415.58 553.291 1416.75 556.233L1418.42 560.414C1419.12 562.174 1420.55 563.541 1422.34 564.157L1425.78 565.34C1428.92 566.423 1428.92 570.875 1425.78 571.959L1422.34 573.142C1420.55 573.758 1419.12 575.125 1418.42 576.885L1416.75 581.066C1415.58 584.007 1411.42 584.007 1410.25 581.066L1408.58 576.885C1407.88 575.125 1406.45 573.758 1404.66 573.142L1401.22 571.959C1398.08 570.875 1398.08 566.423 1401.22 565.34L1404.66 564.157C1406.45 563.541 1407.88 562.174 1408.58 560.414L1410.25 556.233Z" stroke="#533097" stroke-width="3"/>
<path opacity="0.1" d="M1410.25 353.233C1411.42 350.291 1415.58 350.291 1416.75 353.233L1418.42 357.414C1419.12 359.174 1420.55 360.541 1422.34 361.157L1425.78 362.34C1428.92 363.423 1428.92 367.875 1425.78 368.959L1422.34 370.142C1420.55 370.758 1419.12 372.125 1418.42 373.885L1416.75 378.066C1415.58 381.007 1411.42 381.007 1410.25 378.066L1408.58 373.885C1407.88 372.125 1406.45 370.758 1404.66 370.142L1401.22 368.959C1398.08 367.875 1398.08 363.423 1401.22 362.34L1404.66 361.157C1406.45 360.541 1407.88 359.174 1408.58 357.414L1410.25 353.233Z" stroke="#533097" stroke-width="3"/>
<path opacity="0.1" d="M1410.25 759.233C1411.42 756.291 1415.58 756.291 1416.75 759.233L1418.42 763.414C1419.12 765.174 1420.55 766.541 1422.34 767.157L1425.78 768.34C1428.92 769.423 1428.92 773.875 1425.78 774.959L1422.34 776.142C1420.55 776.758 1419.12 778.125 1418.42 779.885L1416.75 784.066C1415.58 787.007 1411.42 787.007 1410.25 784.066L1408.58 779.885C1407.88 778.125 1406.45 776.758 1404.66 776.142L1401.22 774.959C1398.08 773.875 1398.08 769.423 1401.22 768.34L1404.66 767.157C1406.45 766.541 1407.88 765.174 1408.58 763.414L1410.25 759.233Z" stroke="#533097" stroke-width="3"/>
<path opacity="0.1" d="M654.248 759.233C655.418 756.291 659.582 756.291 660.752 759.233L662.415 763.414C663.115 765.174 664.548 766.541 666.339 767.157L669.776 768.34C672.924 769.423 672.924 773.875 669.776 774.959L666.339 776.142C664.548 776.758 663.115 778.125 662.415 779.885L660.752 784.066C659.582 787.007 655.418 787.007 654.248 784.066L652.585 779.885C651.885 778.125 650.452 776.758 648.661 776.142L645.224 774.959C642.076 773.875 642.076 769.423 645.224 768.34L648.661 767.157C650.452 766.541 651.885 765.174 652.585 763.414L654.248 759.233Z" stroke="#533097" stroke-width="3"/>
<path opacity="0.1" d="M402.248 759.233C403.418 756.291 407.582 756.291 408.752 759.233L410.415 763.414C411.115 765.174 412.548 766.541 414.339 767.157L417.776 768.34C420.924 769.423 420.924 773.875 417.776 774.959L414.339 776.142C412.548 776.758 411.115 778.125 410.415 779.885L408.752 784.066C407.582 787.007 403.418 787.007 402.248 784.066L400.585 779.885C399.885 778.125 398.452 776.758 396.661 776.142L393.224 774.959C390.076 773.875 390.076 769.423 393.224 768.34L396.661 767.157C398.452 766.541 399.885 765.174 400.585 763.414L402.248 759.233Z" stroke="#533097" stroke-width="3"/>
<path opacity="0.1" d="M150.248 759.233C151.418 756.291 155.582 756.291 156.752 759.233L158.415 763.414C159.115 765.174 160.548 766.541 162.339 767.157L165.776 768.34C168.924 769.423 168.924 773.875 165.776 774.959L162.339 776.142C160.548 776.758 159.115 778.125 158.415 779.885L156.752 784.066C155.582 787.007 151.418 787.007 150.248 784.066L148.585 779.885C147.885 778.125 146.452 776.758 144.661 776.142L141.224 774.959C138.076 773.875 138.076 769.423 141.224 768.34L144.661 767.157C146.452 766.541 147.885 765.174 148.585 763.414L150.248 759.233Z" stroke="#533097" stroke-width="3"/>
<g opacity="0.9">
<g opacity="0.11">
<path fill-rule="evenodd" clip-rule="evenodd" d="M1367.18 800.749H1409.45L1409.45 792.077C1409.45 756.853 1409.26 747.316 1408.35 738.318C1407.02 725.054 1404.2 711.675 1400.57 701.384C1388.24 666.418 1366.21 646.448 1335.55 642.432C1329.93 641.696 1320.98 641.932 1317.7 642.901C1310.72 644.959 1304.56 649.777 1299.8 656.905C1286.82 676.308 1285.33 710.701 1296.47 733.123C1301.59 743.407 1308.82 749.814 1318.19 752.367C1320 752.859 1321.47 752.957 1326.94 752.949C1333.83 752.939 1336.8 752.646 1343.54 751.31C1350.66 749.896 1354.79 750.38 1358.94 753.115C1361.48 754.795 1364.09 757.67 1365.28 760.113C1365.36 760.276 1365.43 760.43 1365.51 760.579C1365.66 760.889 1365.8 761.175 1365.93 761.467C1367.17 764.37 1367.17 767.823 1367.18 800.749Z" fill="#AD95D7"/>
<path d="M1316.01 672.874C1310.48 691.88 1310.75 701.721 1314.27 718.328" stroke="#FFC56F" stroke-width="23.1556" stroke-linecap="round"/>
</g>
</g>
<g opacity="0.9">
<g opacity="0.11">
<path fill-rule="evenodd" clip-rule="evenodd" d="M90.8206 271.547C90.8206 288.26 90.8209 302.216 90.8221 313.888L51.0182 357.05C49.358 353.619 48.4964 349.722 48.505 345.724C48.5325 332.946 48.5462 308.705 48.5462 260.077C48.5462 224.853 48.7449 215.316 49.6523 206.318C50.9831 193.054 53.8002 179.675 57.4297 169.384C69.7611 134.418 91.7884 114.448 122.449 110.432C128.066 109.696 137.018 109.932 140.302 110.901C147.276 112.959 153.437 117.777 158.199 124.905C171.178 144.308 172.673 178.701 161.526 201.123C156.41 211.407 149.177 217.814 139.809 220.367C138.003 220.859 136.534 220.957 131.064 220.949C124.168 220.939 121.204 220.646 114.464 219.31C107.343 217.896 103.213 218.38 99.0646 221.115C96.524 222.795 93.9142 225.67 92.7217 228.113C92.6434 228.276 92.5677 228.43 92.4949 228.579C92.3426 228.889 92.2021 229.175 92.0736 229.467C90.829 232.37 90.8283 235.823 90.8212 268.749L90.8206 271.547Z" fill="#AD95D7"/>
<path d="M90.8306 345.213C90.8398 361.122 76.1836 373.569 61.654 367.381C56.818 365.322 53.2174 361.595 51.0182 357.05L90.8221 313.888C90.8234 326.98 90.826 337.199 90.8306 345.213Z" fill="#AD95D7"/>
<path d="M141.985 140.874C147.517 159.88 147.246 169.721 143.733 186.328" stroke="#FFC56F" stroke-width="23.1556" stroke-linecap="round"/>
</g>
</g>
</svg>
