<svg width="1728" height="968" viewBox="0 0 1728 968" fill="none" xmlns="http://www.w3.org/2000/svg">
<path d="M0 5H1728V965H0V5Z" fill="#2F1562"/>
<path opacity="0.1" d="M168.248 133.966C169.418 131.025 173.582 131.025 174.752 133.966L176.415 138.147C177.115 139.907 178.548 141.274 180.339 141.891L183.776 143.073C186.924 144.157 186.924 148.609 183.776 149.692L180.339 150.875C178.548 151.491 177.115 152.859 176.415 154.618L174.752 158.799C173.582 161.741 169.418 161.741 168.248 158.799L166.585 154.618C165.885 152.859 164.452 151.491 162.661 150.875L159.224 149.692C156.076 148.609 156.076 144.157 159.224 143.073L162.661 141.891C164.452 141.274 165.885 139.907 166.585 138.147L168.248 133.966Z" stroke="#533097" stroke-width="3"/>
<path opacity="0.1" d="M420.248 134.233C421.418 131.291 425.582 131.291 426.752 134.233L428.415 138.414C429.115 140.174 430.548 141.541 432.339 142.157L435.776 143.34C438.924 144.423 438.924 148.875 435.776 149.959L432.339 151.142C430.548 151.758 429.115 153.125 428.415 154.885L426.752 159.066C425.582 162.007 421.418 162.007 420.248 159.066L418.585 154.885C417.885 153.125 416.452 151.758 414.661 151.142L411.224 149.959C408.076 148.875 408.076 144.423 411.224 143.34L414.661 142.157C416.452 141.541 417.885 140.174 418.585 138.414L420.248 134.233Z" stroke="#533097" stroke-width="3"/>
<path opacity="0.1" d="M672.248 133.233C673.418 130.291 677.582 130.291 678.752 133.233L680.415 137.414C681.115 139.174 682.548 140.541 684.339 141.157L687.776 142.34C690.924 143.423 690.924 147.875 687.776 148.959L684.339 150.142C682.548 150.758 681.115 152.125 680.415 153.885L678.752 158.066C677.582 161.007 673.418 161.007 672.248 158.066L670.585 153.885C669.885 152.125 668.452 150.758 666.661 150.142L663.224 148.959C660.076 147.875 660.076 143.423 663.224 142.34L666.661 141.157C668.452 140.541 669.885 139.174 670.585 137.414L672.248 133.233Z" stroke="#533097" stroke-width="3"/>
<path opacity="0.1" d="M168.248 539.966C169.418 537.025 173.582 537.025 174.752 539.966L176.415 544.147C177.115 545.907 178.548 547.274 180.339 547.891L183.776 549.073C186.924 550.157 186.924 554.609 183.776 555.692L180.339 556.875C178.548 557.491 177.115 558.859 176.415 560.618L174.752 564.799C173.582 567.741 169.418 567.741 168.248 564.799L166.585 560.618C165.885 558.859 164.452 557.491 162.661 556.875L159.224 555.692C156.076 554.609 156.076 550.157 159.224 549.073L162.661 547.891C164.452 547.274 165.885 545.907 166.585 544.147L168.248 539.966Z" stroke="#533097" stroke-width="3"/>
<path opacity="0.1" d="M420.248 540.233C421.418 537.291 425.582 537.291 426.752 540.233L428.415 544.414C429.115 546.174 430.548 547.541 432.339 548.157L435.776 549.34C438.924 550.423 438.924 554.875 435.776 555.959L432.339 557.142C430.548 557.758 429.115 559.125 428.415 560.885L426.752 565.066C425.582 568.007 421.418 568.007 420.248 565.066L418.585 560.885C417.885 559.125 416.452 557.758 414.661 557.142L411.224 555.959C408.076 554.875 408.076 550.423 411.224 549.34L414.661 548.157C416.452 547.541 417.885 546.174 418.585 544.414L420.248 540.233Z" stroke="#533097" stroke-width="3"/>
<path opacity="0.1" d="M672.248 539.233C673.418 536.291 677.582 536.291 678.752 539.233L680.415 543.414C681.115 545.174 682.548 546.541 684.339 547.157L687.776 548.34C690.924 549.423 690.924 553.875 687.776 554.959L684.339 556.142C682.548 556.758 681.115 558.125 680.415 559.885L678.752 564.066C677.582 567.007 673.418 567.007 672.248 564.066L670.585 559.885C669.885 558.125 668.452 556.758 666.661 556.142L663.224 554.959C660.076 553.875 660.076 549.423 663.224 548.34L666.661 547.157C668.452 546.541 669.885 545.174 670.585 543.414L672.248 539.233Z" stroke="#533097" stroke-width="3"/>
<path opacity="0.1" d="M168.248 336.966C169.418 334.025 173.582 334.025 174.752 336.966L176.415 341.147C177.115 342.907 178.548 344.274 180.339 344.891L183.776 346.073C186.924 347.157 186.924 351.609 183.776 352.692L180.339 353.875C178.548 354.491 177.115 355.859 176.415 357.618L174.752 361.799C173.582 364.741 169.418 364.741 168.248 361.799L166.585 357.618C165.885 355.859 164.452 354.491 162.661 353.875L159.224 352.692C156.076 351.609 156.076 347.157 159.224 346.073L162.661 344.891C164.452 344.274 165.885 342.907 166.585 341.147L168.248 336.966Z" stroke="#533097" stroke-width="3"/>
<path opacity="0.1" d="M70.2479 235.233C71.4181 232.291 75.5819 232.291 76.7521 235.233L78.4153 239.414C79.1154 241.174 80.5484 242.541 82.3394 243.157L85.7759 244.34C88.9238 245.423 88.9238 249.875 85.7759 250.959L82.3394 252.142C80.5484 252.758 79.1154 254.125 78.4153 255.885L76.7521 260.066C75.5819 263.007 71.4181 263.007 70.2479 260.066L68.5847 255.885C67.8846 254.125 66.4516 252.758 64.6606 252.142L61.2241 250.959C58.0762 249.875 58.0762 245.423 61.2241 244.34L64.6606 243.157C66.4516 242.541 67.8846 241.174 68.5847 239.414L70.2479 235.233Z" stroke="#533097" stroke-width="3"/>
<path opacity="0.1" d="M70.2479 438.233C71.4181 435.291 75.5819 435.291 76.7521 438.233L78.4153 442.414C79.1154 444.174 80.5484 445.541 82.3394 446.157L85.7759 447.34C88.9238 448.423 88.9238 452.875 85.7759 453.959L82.3394 455.142C80.5484 455.758 79.1154 457.125 78.4153 458.885L76.7521 463.066C75.5819 466.007 71.4181 466.007 70.2479 463.066L68.5847 458.885C67.8846 457.125 66.4516 455.758 64.6606 455.142L61.2241 453.959C58.0762 452.875 58.0762 448.423 61.2241 447.34L64.6606 446.157C66.4516 445.541 67.8846 444.174 68.5847 442.414L70.2479 438.233Z" stroke="#533097" stroke-width="3"/>
<path opacity="0.1" d="M70.2479 641.233C71.4181 638.291 75.5819 638.291 76.7521 641.233L78.4153 645.414C79.1154 647.174 80.5484 648.541 82.3394 649.157L85.7759 650.34C88.9238 651.423 88.9238 655.875 85.7759 656.959L82.3394 658.142C80.5484 658.758 79.1154 660.125 78.4153 661.885L76.7521 666.066C75.5819 669.007 71.4181 669.007 70.2479 666.066L68.5847 661.885C67.8846 660.125 66.4516 658.758 64.6606 658.142L61.2241 656.959C58.0762 655.875 58.0762 651.423 61.2241 650.34L64.6606 649.157C66.4516 648.541 67.8846 647.174 68.5847 645.414L70.2479 641.233Z" stroke="#533097" stroke-width="3"/>
<path opacity="0.1" d="M70.2479 844.233C71.4181 841.291 75.5819 841.291 76.7521 844.233L78.4153 848.414C79.1154 850.174 80.5484 851.541 82.3394 852.157L85.7759 853.34C88.9238 854.423 88.9238 858.875 85.7759 859.959L82.3394 861.142C80.5484 861.758 79.1154 863.125 78.4153 864.885L76.7521 869.066C75.5819 872.007 71.4181 872.007 70.2479 869.066L68.5847 864.885C67.8846 863.125 66.4516 861.758 64.6606 861.142L61.2241 859.959C58.0762 858.875 58.0762 854.423 61.2241 853.34L64.6606 852.157C66.4516 851.541 67.8846 850.174 68.5847 848.414L70.2479 844.233Z" stroke="#533097" stroke-width="3"/>
<path opacity="0.1" d="M420.248 928.233C421.418 925.291 425.582 925.291 426.752 928.233L428.415 932.414C429.115 934.174 430.548 935.541 432.339 936.157L435.776 937.34C438.924 938.423 438.924 942.875 435.776 943.959L432.339 945.142C430.548 945.758 429.115 947.125 428.415 948.885L426.752 953.066C425.582 956.007 421.418 956.007 420.248 953.066L418.585 948.885C417.885 947.125 416.452 945.758 414.661 945.142L411.224 943.959C408.076 942.875 408.076 938.423 411.224 937.34L414.661 936.157C416.452 935.541 417.885 934.174 418.585 932.414L420.248 928.233Z" stroke="#533097" stroke-width="3"/>
<path opacity="0.1" d="M294.248 12.233C295.418 9.29127 299.582 9.29127 300.752 12.233L302.415 16.4136C303.115 18.1736 304.548 19.5407 306.339 20.1571L309.776 21.3399C312.924 22.4234 312.924 26.8753 309.776 27.9588L306.339 29.1416C304.548 29.7581 303.115 31.1251 302.415 32.8851L300.752 37.0658C299.582 40.0075 295.418 40.0075 294.248 37.0658L292.585 32.8851C291.885 31.1251 290.452 29.7581 288.661 29.1416L285.224 27.9588C282.076 26.8753 282.076 22.4234 285.224 21.3399L288.661 20.1571C290.452 19.5407 291.885 18.1736 292.585 16.4136L294.248 12.233Z" stroke="#533097" stroke-width="3"/>
<path opacity="0.1" d="M70.2479 12.233C71.4181 9.29127 75.5819 9.29127 76.7521 12.233L78.4153 16.4136C79.1154 18.1736 80.5484 19.5407 82.3394 20.1571L85.7759 21.3399C88.9238 22.4234 88.9238 26.8753 85.7759 27.9588L82.3394 29.1416C80.5484 29.7581 79.1154 31.1251 78.4153 32.8851L76.7521 37.0658C75.5819 40.0075 71.4181 40.0075 70.2479 37.0658L68.5847 32.8851C67.8846 31.1251 66.4516 29.7581 64.6606 29.1416L61.2241 27.9588C58.0762 26.8753 58.0762 22.4234 61.2241 21.3399L64.6606 20.1571C66.4516 19.5407 67.8846 18.1736 68.5847 16.4136L70.2479 12.233Z" stroke="#533097" stroke-width="3"/>
<path opacity="0.1" d="M546.248 12.233C547.418 9.29127 551.582 9.29127 552.752 12.233L554.415 16.4136C555.115 18.1736 556.548 19.5407 558.339 20.1571L561.776 21.3399C564.924 22.4234 564.924 26.8753 561.776 27.9588L558.339 29.1416C556.548 29.7581 555.115 31.1251 554.415 32.8851L552.752 37.0658C551.582 40.0075 547.418 40.0075 546.248 37.0658L544.585 32.8851C543.885 31.1251 542.452 29.7581 540.661 29.1416L537.224 27.9588C534.076 26.8753 534.076 22.4234 537.224 21.3399L540.661 20.1571C542.452 19.5407 543.885 18.1736 544.585 16.4136L546.248 12.233Z" stroke="#533097" stroke-width="3"/>
<path opacity="0.1" d="M798.248 12.233C799.418 9.29127 803.582 9.29127 804.752 12.233L806.415 16.4136C807.115 18.1736 808.548 19.5407 810.339 20.1571L813.776 21.3399C816.924 22.4234 816.924 26.8753 813.776 27.9588L810.339 29.1416C808.548 29.7581 807.115 31.1251 806.415 32.8851L804.752 37.0658C803.582 40.0075 799.418 40.0075 798.248 37.0658L796.585 32.8851C795.885 31.1251 794.452 29.7581 792.661 29.1416L789.224 27.9588C786.076 26.8753 786.076 22.4234 789.224 21.3399L792.661 20.1571C794.452 19.5407 795.885 18.1736 796.585 16.4136L798.248 12.233Z" stroke="#533097" stroke-width="3"/>
<path opacity="0.1" d="M1050.25 12.233C1051.42 9.29127 1055.58 9.29127 1056.75 12.233L1058.42 16.4136C1059.12 18.1736 1060.55 19.5407 1062.34 20.1571L1065.78 21.3399C1068.92 22.4234 1068.92 26.8753 1065.78 27.9588L1062.34 29.1416C1060.55 29.7581 1059.12 31.1251 1058.42 32.8851L1056.75 37.0658C1055.58 40.0075 1051.42 40.0075 1050.25 37.0658L1048.58 32.8851C1047.88 31.1251 1046.45 29.7581 1044.66 29.1416L1041.22 27.9588C1038.08 26.8753 1038.08 22.4234 1041.22 21.3399L1044.66 20.1571C1046.45 19.5407 1047.88 18.1736 1048.58 16.4136L1050.25 12.233Z" stroke="#533097" stroke-width="3"/>
<path opacity="0.1" d="M1302.25 12.233C1303.42 9.29127 1307.58 9.29127 1308.75 12.233L1310.42 16.4136C1311.12 18.1736 1312.55 19.5407 1314.34 20.1571L1317.78 21.3399C1320.92 22.4234 1320.92 26.8753 1317.78 27.9588L1314.34 29.1416C1312.55 29.7581 1311.12 31.1251 1310.42 32.8851L1308.75 37.0658C1307.58 40.0075 1303.42 40.0075 1302.25 37.0658L1300.58 32.8851C1299.88 31.1251 1298.45 29.7581 1296.66 29.1416L1293.22 27.9588C1290.08 26.8753 1290.08 22.4234 1293.22 21.3399L1296.66 20.1571C1298.45 19.5407 1299.88 18.1736 1300.58 16.4136L1302.25 12.233Z" stroke="#533097" stroke-width="3"/>
<path opacity="0.1" d="M1554.25 17.233C1555.42 14.2913 1559.58 14.2913 1560.75 17.233L1562.42 21.4136C1563.12 23.1736 1564.55 24.5407 1566.34 25.1571L1569.78 26.3399C1572.92 27.4234 1572.92 31.8753 1569.78 32.9588L1566.34 34.1416C1564.55 34.7581 1563.12 36.1251 1562.42 37.8851L1560.75 42.0658C1559.58 45.0075 1555.42 45.0075 1554.25 42.0658L1552.58 37.8851C1551.88 36.1251 1550.45 34.7581 1548.66 34.1416L1545.22 32.9588C1542.08 31.8753 1542.08 27.4234 1545.22 26.3399L1548.66 25.1571C1550.45 24.5407 1551.88 23.1736 1552.58 21.4136L1554.25 17.233Z" stroke="#533097" stroke-width="3"/>
<path opacity="0.1" d="M1680.25 134.233C1681.42 131.291 1685.58 131.291 1686.75 134.233L1688.42 138.414C1689.12 140.174 1690.55 141.541 1692.34 142.157L1695.78 143.34C1698.92 144.423 1698.92 148.875 1695.78 149.959L1692.34 151.142C1690.55 151.758 1689.12 153.125 1688.42 154.885L1686.75 159.066C1685.58 162.007 1681.42 162.007 1680.25 159.066L1678.58 154.885C1677.88 153.125 1676.45 151.758 1674.66 151.142L1671.22 149.959C1668.08 148.875 1668.08 144.423 1671.22 143.34L1674.66 142.157C1676.45 141.541 1677.88 140.174 1678.58 138.414L1680.25 134.233Z" stroke="#533097" stroke-width="3"/>
<path opacity="0.1" d="M1680.25 337.233C1681.42 334.291 1685.58 334.291 1686.75 337.233L1688.42 341.414C1689.12 343.174 1690.55 344.541 1692.34 345.157L1695.78 346.34C1698.92 347.423 1698.92 351.875 1695.78 352.959L1692.34 354.142C1690.55 354.758 1689.12 356.125 1688.42 357.885L1686.75 362.066C1685.58 365.007 1681.42 365.007 1680.25 362.066L1678.58 357.885C1677.88 356.125 1676.45 354.758 1674.66 354.142L1671.22 352.959C1668.08 351.875 1668.08 347.423 1671.22 346.34L1674.66 345.157C1676.45 344.541 1677.88 343.174 1678.58 341.414L1680.25 337.233Z" stroke="#533097" stroke-width="3"/>
<path opacity="0.1" d="M1674.25 540.233C1675.42 537.291 1679.58 537.291 1680.75 540.233L1682.42 544.414C1683.12 546.174 1684.55 547.541 1686.34 548.157L1689.78 549.34C1692.92 550.423 1692.92 554.875 1689.78 555.959L1686.34 557.142C1684.55 557.758 1683.12 559.125 1682.42 560.885L1680.75 565.066C1679.58 568.007 1675.42 568.007 1674.25 565.066L1672.58 560.885C1671.88 559.125 1670.45 557.758 1668.66 557.142L1665.22 555.959C1662.08 554.875 1662.08 550.423 1665.22 549.34L1668.66 548.157C1670.45 547.541 1671.88 546.174 1672.58 544.414L1674.25 540.233Z" stroke="#533097" stroke-width="3"/>
<path opacity="0.1" d="M1674.25 743.233C1675.42 740.291 1679.58 740.291 1680.75 743.233L1682.42 747.414C1683.12 749.174 1684.55 750.541 1686.34 751.157L1689.78 752.34C1692.92 753.423 1692.92 757.875 1689.78 758.959L1686.34 760.142C1684.55 760.758 1683.12 762.125 1682.42 763.885L1680.75 768.066C1679.58 771.007 1675.42 771.007 1674.25 768.066L1672.58 763.885C1671.88 762.125 1670.45 760.758 1668.66 760.142L1665.22 758.959C1662.08 757.875 1662.08 753.423 1665.22 752.34L1668.66 751.157C1670.45 750.541 1671.88 749.174 1672.58 747.414L1674.25 743.233Z" stroke="#533097" stroke-width="3"/>
<path opacity="0.1" d="M420.248 337.233C421.418 334.291 425.582 334.291 426.752 337.233L428.415 341.414C429.115 343.174 430.548 344.541 432.339 345.157L435.776 346.34C438.924 347.423 438.924 351.875 435.776 352.959L432.339 354.142C430.548 354.758 429.115 356.125 428.415 357.885L426.752 362.066C425.582 365.007 421.418 365.007 420.248 362.066L418.585 357.885C417.885 356.125 416.452 354.758 414.661 354.142L411.224 352.959C408.076 351.875 408.076 347.423 411.224 346.34L414.661 345.157C416.452 344.541 417.885 343.174 418.585 341.414L420.248 337.233Z" stroke="#533097" stroke-width="3"/>
<path opacity="0.1" d="M672.248 336.233C673.418 333.291 677.582 333.291 678.752 336.233L680.415 340.414C681.115 342.174 682.548 343.541 684.339 344.157L687.776 345.34C690.924 346.423 690.924 350.875 687.776 351.959L684.339 353.142C682.548 353.758 681.115 355.125 680.415 356.885L678.752 361.066C677.582 364.007 673.418 364.007 672.248 361.066L670.585 356.885C669.885 355.125 668.452 353.758 666.661 353.142L663.224 351.959C660.076 350.875 660.076 346.423 663.224 345.34L666.661 344.157C668.452 343.541 669.885 342.174 670.585 340.414L672.248 336.233Z" stroke="#533097" stroke-width="3"/>
<path opacity="0.1" d="M168.248 742.966C169.418 740.025 173.582 740.025 174.752 742.966L176.415 747.147C177.115 748.907 178.548 750.274 180.339 750.891L183.776 752.073C186.924 753.157 186.924 757.609 183.776 758.692L180.339 759.875C178.548 760.491 177.115 761.859 176.415 763.618L174.752 767.799C173.582 770.741 169.418 770.741 168.248 767.799L166.585 763.618C165.885 761.859 164.452 760.491 162.661 759.875L159.224 758.692C156.076 757.609 156.076 753.157 159.224 752.073L162.661 750.891C164.452 750.274 165.885 748.907 166.585 747.147L168.248 742.966Z" stroke="#533097" stroke-width="3"/>
<path opacity="0.1" d="M420.248 743.233C421.418 740.291 425.582 740.291 426.752 743.233L428.415 747.414C429.115 749.174 430.548 750.541 432.339 751.157L435.776 752.34C438.924 753.423 438.924 757.875 435.776 758.959L432.339 760.142C430.548 760.758 429.115 762.125 428.415 763.885L426.752 768.066C425.582 771.007 421.418 771.007 420.248 768.066L418.585 763.885C417.885 762.125 416.452 760.758 414.661 760.142L411.224 758.959C408.076 757.875 408.076 753.423 411.224 752.34L414.661 751.157C416.452 750.541 417.885 749.174 418.585 747.414L420.248 743.233Z" stroke="#533097" stroke-width="3"/>
<path opacity="0.1" d="M672.248 742.233C673.418 739.291 677.582 739.291 678.752 742.233L680.415 746.414C681.115 748.174 682.548 749.541 684.339 750.157L687.776 751.34C690.924 752.423 690.924 756.875 687.776 757.959L684.339 759.142C682.548 759.758 681.115 761.125 680.415 762.885L678.752 767.066C677.582 770.007 673.418 770.007 672.248 767.066L670.585 762.885C669.885 761.125 668.452 759.758 666.661 759.142L663.224 757.959C660.076 756.875 660.076 752.423 663.224 751.34L666.661 750.157C668.452 749.541 669.885 748.174 670.585 746.414L672.248 742.233Z" stroke="#533097" stroke-width="3"/>
<path opacity="0.1" d="M924.248 133.233C925.418 130.291 929.582 130.291 930.752 133.233L932.415 137.414C933.115 139.174 934.548 140.541 936.339 141.157L939.776 142.34C942.924 143.423 942.924 147.875 939.776 148.959L936.339 150.142C934.548 150.758 933.115 152.125 932.415 153.885L930.752 158.066C929.582 161.007 925.418 161.007 924.248 158.066L922.585 153.885C921.885 152.125 920.452 150.758 918.661 150.142L915.224 148.959C912.076 147.875 912.076 143.423 915.224 142.34L918.661 141.157C920.452 140.541 921.885 139.174 922.585 137.414L924.248 133.233Z" stroke="#533097" stroke-width="3"/>
<path opacity="0.1" d="M924.248 539.233C925.418 536.291 929.582 536.291 930.752 539.233L932.415 543.414C933.115 545.174 934.548 546.541 936.339 547.157L939.776 548.34C942.924 549.423 942.924 553.875 939.776 554.959L936.339 556.142C934.548 556.758 933.115 558.125 932.415 559.885L930.752 564.066C929.582 567.007 925.418 567.007 924.248 564.066L922.585 559.885C921.885 558.125 920.452 556.758 918.661 556.142L915.224 554.959C912.076 553.875 912.076 549.423 915.224 548.34L918.661 547.157C920.452 546.541 921.885 545.174 922.585 543.414L924.248 539.233Z" stroke="#533097" stroke-width="3"/>
<path opacity="0.1" d="M924.248 336.233C925.418 333.291 929.582 333.291 930.752 336.233L932.415 340.414C933.115 342.174 934.548 343.541 936.339 344.157L939.776 345.34C942.924 346.423 942.924 350.875 939.776 351.959L936.339 353.142C934.548 353.758 933.115 355.125 932.415 356.885L930.752 361.066C929.582 364.007 925.418 364.007 924.248 361.066L922.585 356.885C921.885 355.125 920.452 353.758 918.661 353.142L915.224 351.959C912.076 350.875 912.076 346.423 915.224 345.34L918.661 344.157C920.452 343.541 921.885 342.174 922.585 340.414L924.248 336.233Z" stroke="#533097" stroke-width="3"/>
<path opacity="0.1" d="M924.248 742.233C925.418 739.291 929.582 739.291 930.752 742.233L932.415 746.414C933.115 748.174 934.548 749.541 936.339 750.157L939.776 751.34C942.924 752.423 942.924 756.875 939.776 757.959L936.339 759.142C934.548 759.758 933.115 761.125 932.415 762.885L930.752 767.066C929.582 770.007 925.418 770.007 924.248 767.066L922.585 762.885C921.885 761.125 920.452 759.758 918.661 759.142L915.224 757.959C912.076 756.875 912.076 752.423 915.224 751.34L918.661 750.157C920.452 749.541 921.885 748.174 922.585 746.414L924.248 742.233Z" stroke="#533097" stroke-width="3"/>
<path opacity="0.1" d="M1176.25 134.233C1177.42 131.291 1181.58 131.291 1182.75 134.233L1184.42 138.414C1185.12 140.174 1186.55 141.541 1188.34 142.157L1191.78 143.34C1194.92 144.423 1194.92 148.875 1191.78 149.959L1188.34 151.142C1186.55 151.758 1185.12 153.125 1184.42 154.885L1182.75 159.066C1181.58 162.007 1177.42 162.007 1176.25 159.066L1174.58 154.885C1173.88 153.125 1172.45 151.758 1170.66 151.142L1167.22 149.959C1164.08 148.875 1164.08 144.423 1167.22 143.34L1170.66 142.157C1172.45 141.541 1173.88 140.174 1174.58 138.414L1176.25 134.233Z" stroke="#533097" stroke-width="3"/>
<path opacity="0.1" d="M1176.25 540.233C1177.42 537.291 1181.58 537.291 1182.75 540.233L1184.42 544.414C1185.12 546.174 1186.55 547.541 1188.34 548.157L1191.78 549.34C1194.92 550.423 1194.92 554.875 1191.78 555.959L1188.34 557.142C1186.55 557.758 1185.12 559.125 1184.42 560.885L1182.75 565.066C1181.58 568.007 1177.42 568.007 1176.25 565.066L1174.58 560.885C1173.88 559.125 1172.45 557.758 1170.66 557.142L1167.22 555.959C1164.08 554.875 1164.08 550.423 1167.22 549.34L1170.66 548.157C1172.45 547.541 1173.88 546.174 1174.58 544.414L1176.25 540.233Z" stroke="#533097" stroke-width="3"/>
<path opacity="0.1" d="M1176.25 337.233C1177.42 334.291 1181.58 334.291 1182.75 337.233L1184.42 341.414C1185.12 343.174 1186.55 344.541 1188.34 345.157L1191.78 346.34C1194.92 347.423 1194.92 351.875 1191.78 352.959L1188.34 354.142C1186.55 354.758 1185.12 356.125 1184.42 357.885L1182.75 362.066C1181.58 365.007 1177.42 365.007 1176.25 362.066L1174.58 357.885C1173.88 356.125 1172.45 354.758 1170.66 354.142L1167.22 352.959C1164.08 351.875 1164.08 347.423 1167.22 346.34L1170.66 345.157C1172.45 344.541 1173.88 343.174 1174.58 341.414L1176.25 337.233Z" stroke="#533097" stroke-width="3"/>
<path opacity="0.1" d="M1176.25 743.233C1177.42 740.291 1181.58 740.291 1182.75 743.233L1184.42 747.414C1185.12 749.174 1186.55 750.541 1188.34 751.157L1191.78 752.34C1194.92 753.423 1194.92 757.875 1191.78 758.959L1188.34 760.142C1186.55 760.758 1185.12 762.125 1184.42 763.885L1182.75 768.066C1181.58 771.007 1177.42 771.007 1176.25 768.066L1174.58 763.885C1173.88 762.125 1172.45 760.758 1170.66 760.142L1167.22 758.959C1164.08 757.875 1164.08 753.423 1167.22 752.34L1170.66 751.157C1172.45 750.541 1173.88 749.174 1174.58 747.414L1176.25 743.233Z" stroke="#533097" stroke-width="3"/>
<path opacity="0.1" d="M1428.25 134.233C1429.42 131.291 1433.58 131.291 1434.75 134.233L1436.42 138.414C1437.12 140.174 1438.55 141.541 1440.34 142.157L1443.78 143.34C1446.92 144.423 1446.92 148.875 1443.78 149.959L1440.34 151.142C1438.55 151.758 1437.12 153.125 1436.42 154.885L1434.75 159.066C1433.58 162.007 1429.42 162.007 1428.25 159.066L1426.58 154.885C1425.88 153.125 1424.45 151.758 1422.66 151.142L1419.22 149.959C1416.08 148.875 1416.08 144.423 1419.22 143.34L1422.66 142.157C1424.45 141.541 1425.88 140.174 1426.58 138.414L1428.25 134.233Z" stroke="#533097" stroke-width="3"/>
<path opacity="0.1" d="M1428.25 540.233C1429.42 537.291 1433.58 537.291 1434.75 540.233L1436.42 544.414C1437.12 546.174 1438.55 547.541 1440.34 548.157L1443.78 549.34C1446.92 550.423 1446.92 554.875 1443.78 555.959L1440.34 557.142C1438.55 557.758 1437.12 559.125 1436.42 560.885L1434.75 565.066C1433.58 568.007 1429.42 568.007 1428.25 565.066L1426.58 560.885C1425.88 559.125 1424.45 557.758 1422.66 557.142L1419.22 555.959C1416.08 554.875 1416.08 550.423 1419.22 549.34L1422.66 548.157C1424.45 547.541 1425.88 546.174 1426.58 544.414L1428.25 540.233Z" stroke="#533097" stroke-width="3"/>
<path opacity="0.1" d="M1428.25 337.233C1429.42 334.291 1433.58 334.291 1434.75 337.233L1436.42 341.414C1437.12 343.174 1438.55 344.541 1440.34 345.157L1443.78 346.34C1446.92 347.423 1446.92 351.875 1443.78 352.959L1440.34 354.142C1438.55 354.758 1437.12 356.125 1436.42 357.885L1434.75 362.066C1433.58 365.007 1429.42 365.007 1428.25 362.066L1426.58 357.885C1425.88 356.125 1424.45 354.758 1422.66 354.142L1419.22 352.959C1416.08 351.875 1416.08 347.423 1419.22 346.34L1422.66 345.157C1424.45 344.541 1425.88 343.174 1426.58 341.414L1428.25 337.233Z" stroke="#533097" stroke-width="3"/>
<path opacity="0.1" d="M1428.25 743.233C1429.42 740.291 1433.58 740.291 1434.75 743.233L1436.42 747.414C1437.12 749.174 1438.55 750.541 1440.34 751.157L1443.78 752.34C1446.92 753.423 1446.92 757.875 1443.78 758.959L1440.34 760.142C1438.55 760.758 1437.12 762.125 1436.42 763.885L1434.75 768.066C1433.58 771.007 1429.42 771.007 1428.25 768.066L1426.58 763.885C1425.88 762.125 1424.45 760.758 1422.66 760.142L1419.22 758.959C1416.08 757.875 1416.08 753.423 1419.22 752.34L1422.66 751.157C1424.45 750.541 1425.88 749.174 1426.58 747.414L1428.25 743.233Z" stroke="#533097" stroke-width="3"/>
<path opacity="0.1" d="M798.248 235.233C799.418 232.291 803.582 232.291 804.752 235.233L806.415 239.414C807.115 241.174 808.548 242.541 810.339 243.157L813.776 244.34C816.924 245.423 816.924 249.875 813.776 250.959L810.339 252.142C808.548 252.758 807.115 254.125 806.415 255.885L804.752 260.066C803.582 263.007 799.418 263.007 798.248 260.066L796.585 255.885C795.885 254.125 794.452 252.758 792.661 252.142L789.224 250.959C786.076 249.875 786.076 245.423 789.224 244.34L792.661 243.157C794.452 242.541 795.885 241.174 796.585 239.414L798.248 235.233Z" stroke="#533097" stroke-width="3"/>
<path opacity="0.1" d="M546.248 235.233C547.418 232.291 551.582 232.291 552.752 235.233L554.415 239.414C555.115 241.174 556.548 242.541 558.339 243.157L561.776 244.34C564.924 245.423 564.924 249.875 561.776 250.959L558.339 252.142C556.548 252.758 555.115 254.125 554.415 255.885L552.752 260.066C551.582 263.007 547.418 263.007 546.248 260.066L544.585 255.885C543.885 254.125 542.452 252.758 540.661 252.142L537.224 250.959C534.076 249.875 534.076 245.423 537.224 244.34L540.661 243.157C542.452 242.541 543.885 241.174 544.585 239.414L546.248 235.233Z" stroke="#533097" stroke-width="3"/>
<path opacity="0.1" d="M294.248 235.233C295.418 232.291 299.582 232.291 300.752 235.233L302.415 239.414C303.115 241.174 304.548 242.541 306.339 243.157L309.776 244.34C312.924 245.423 312.924 249.875 309.776 250.959L306.339 252.142C304.548 252.758 303.115 254.125 302.415 255.885L300.752 260.066C299.582 263.007 295.418 263.007 294.248 260.066L292.585 255.885C291.885 254.125 290.452 252.758 288.661 252.142L285.224 250.959C282.076 249.875 282.076 245.423 285.224 244.34L288.661 243.157C290.452 242.541 291.885 241.174 292.585 239.414L294.248 235.233Z" stroke="#533097" stroke-width="3"/>
<path opacity="0.1" d="M798.248 641.233C799.418 638.291 803.582 638.291 804.752 641.233L806.415 645.414C807.115 647.174 808.548 648.541 810.339 649.157L813.776 650.34C816.924 651.423 816.924 655.875 813.776 656.959L810.339 658.142C808.548 658.758 807.115 660.125 806.415 661.885L804.752 666.066C803.582 669.007 799.418 669.007 798.248 666.066L796.585 661.885C795.885 660.125 794.452 658.758 792.661 658.142L789.224 656.959C786.076 655.875 786.076 651.423 789.224 650.34L792.661 649.157C794.452 648.541 795.885 647.174 796.585 645.414L798.248 641.233Z" stroke="#533097" stroke-width="3"/>
<path opacity="0.1" d="M546.248 641.233C547.418 638.291 551.582 638.291 552.752 641.233L554.415 645.414C555.115 647.174 556.548 648.541 558.339 649.157L561.776 650.34C564.924 651.423 564.924 655.875 561.776 656.959L558.339 658.142C556.548 658.758 555.115 660.125 554.415 661.885L552.752 666.066C551.582 669.007 547.418 669.007 546.248 666.066L544.585 661.885C543.885 660.125 542.452 658.758 540.661 658.142L537.224 656.959C534.076 655.875 534.076 651.423 537.224 650.34L540.661 649.157C542.452 648.541 543.885 647.174 544.585 645.414L546.248 641.233Z" stroke="#533097" stroke-width="3"/>
<path opacity="0.1" d="M294.248 641.233C295.418 638.291 299.582 638.291 300.752 641.233L302.415 645.414C303.115 647.174 304.548 648.541 306.339 649.157L309.776 650.34C312.924 651.423 312.924 655.875 309.776 656.959L306.339 658.142C304.548 658.758 303.115 660.125 302.415 661.885L300.752 666.066C299.582 669.007 295.418 669.007 294.248 666.066L292.585 661.885C291.885 660.125 290.452 658.758 288.661 658.142L285.224 656.959C282.076 655.875 282.076 651.423 285.224 650.34L288.661 649.157C290.452 648.541 291.885 647.174 292.585 645.414L294.248 641.233Z" stroke="#533097" stroke-width="3"/>
<path opacity="0.1" d="M798.248 438.233C799.418 435.291 803.582 435.291 804.752 438.233L806.415 442.414C807.115 444.174 808.548 445.541 810.339 446.157L813.776 447.34C816.924 448.423 816.924 452.875 813.776 453.959L810.339 455.142C808.548 455.758 807.115 457.125 806.415 458.885L804.752 463.066C803.582 466.007 799.418 466.007 798.248 463.066L796.585 458.885C795.885 457.125 794.452 455.758 792.661 455.142L789.224 453.959C786.076 452.875 786.076 448.423 789.224 447.34L792.661 446.157C794.452 445.541 795.885 444.174 796.585 442.414L798.248 438.233Z" stroke="#533097" stroke-width="3"/>
<path opacity="0.1" d="M546.248 438.233C547.418 435.291 551.582 435.291 552.752 438.233L554.415 442.414C555.115 444.174 556.548 445.541 558.339 446.157L561.776 447.34C564.924 448.423 564.924 452.875 561.776 453.959L558.339 455.142C556.548 455.758 555.115 457.125 554.415 458.885L552.752 463.066C551.582 466.007 547.418 466.007 546.248 463.066L544.585 458.885C543.885 457.125 542.452 455.758 540.661 455.142L537.224 453.959C534.076 452.875 534.076 448.423 537.224 447.34L540.661 446.157C542.452 445.541 543.885 444.174 544.585 442.414L546.248 438.233Z" stroke="#533097" stroke-width="3"/>
<path opacity="0.1" d="M294.248 438.233C295.418 435.291 299.582 435.291 300.752 438.233L302.415 442.414C303.115 444.174 304.548 445.541 306.339 446.157L309.776 447.34C312.924 448.423 312.924 452.875 309.776 453.959L306.339 455.142C304.548 455.758 303.115 457.125 302.415 458.885L300.752 463.066C299.582 466.007 295.418 466.007 294.248 463.066L292.585 458.885C291.885 457.125 290.452 455.758 288.661 455.142L285.224 453.959C282.076 452.875 282.076 448.423 285.224 447.34L288.661 446.157C290.452 445.541 291.885 444.174 292.585 442.414L294.248 438.233Z" stroke="#533097" stroke-width="3"/>
<path opacity="0.1" d="M1050.25 235.233C1051.42 232.291 1055.58 232.291 1056.75 235.233L1058.42 239.414C1059.12 241.174 1060.55 242.541 1062.34 243.157L1065.78 244.34C1068.92 245.423 1068.92 249.875 1065.78 250.959L1062.34 252.142C1060.55 252.758 1059.12 254.125 1058.42 255.885L1056.75 260.066C1055.58 263.007 1051.42 263.007 1050.25 260.066L1048.58 255.885C1047.88 254.125 1046.45 252.758 1044.66 252.142L1041.22 250.959C1038.08 249.875 1038.08 245.423 1041.22 244.34L1044.66 243.157C1046.45 242.541 1047.88 241.174 1048.58 239.414L1050.25 235.233Z" stroke="#533097" stroke-width="3"/>
<path opacity="0.1" d="M1050.25 641.233C1051.42 638.291 1055.58 638.291 1056.75 641.233L1058.42 645.414C1059.12 647.174 1060.55 648.541 1062.34 649.157L1065.78 650.34C1068.92 651.423 1068.92 655.875 1065.78 656.959L1062.34 658.142C1060.55 658.758 1059.12 660.125 1058.42 661.885L1056.75 666.066C1055.58 669.007 1051.42 669.007 1050.25 666.066L1048.58 661.885C1047.88 660.125 1046.45 658.758 1044.66 658.142L1041.22 656.959C1038.08 655.875 1038.08 651.423 1041.22 650.34L1044.66 649.157C1046.45 648.541 1047.88 647.174 1048.58 645.414L1050.25 641.233Z" stroke="#533097" stroke-width="3"/>
<path opacity="0.1" d="M1050.25 438.233C1051.42 435.291 1055.58 435.291 1056.75 438.233L1058.42 442.414C1059.12 444.174 1060.55 445.541 1062.34 446.157L1065.78 447.34C1068.92 448.423 1068.92 452.875 1065.78 453.959L1062.34 455.142C1060.55 455.758 1059.12 457.125 1058.42 458.885L1056.75 463.066C1055.58 466.007 1051.42 466.007 1050.25 463.066L1048.58 458.885C1047.88 457.125 1046.45 455.758 1044.66 455.142L1041.22 453.959C1038.08 452.875 1038.08 448.423 1041.22 447.34L1044.66 446.157C1046.45 445.541 1047.88 444.174 1048.58 442.414L1050.25 438.233Z" stroke="#533097" stroke-width="3"/>
<path opacity="0.1" d="M1050.25 844.233C1051.42 841.291 1055.58 841.291 1056.75 844.233L1058.42 848.414C1059.12 850.174 1060.55 851.541 1062.34 852.157L1065.78 853.34C1068.92 854.423 1068.92 858.875 1065.78 859.959L1062.34 861.142C1060.55 861.758 1059.12 863.125 1058.42 864.885L1056.75 869.066C1055.58 872.007 1051.42 872.007 1050.25 869.066L1048.58 864.885C1047.88 863.125 1046.45 861.758 1044.66 861.142L1041.22 859.959C1038.08 858.875 1038.08 854.423 1041.22 853.34L1044.66 852.157C1046.45 851.541 1047.88 850.174 1048.58 848.414L1050.25 844.233Z" stroke="#533097" stroke-width="3"/>
<path opacity="0.1" d="M1302.25 235.233C1303.42 232.291 1307.58 232.291 1308.75 235.233L1310.42 239.414C1311.12 241.174 1312.55 242.541 1314.34 243.157L1317.78 244.34C1320.92 245.423 1320.92 249.875 1317.78 250.959L1314.34 252.142C1312.55 252.758 1311.12 254.125 1310.42 255.885L1308.75 260.066C1307.58 263.007 1303.42 263.007 1302.25 260.066L1300.58 255.885C1299.88 254.125 1298.45 252.758 1296.66 252.142L1293.22 250.959C1290.08 249.875 1290.08 245.423 1293.22 244.34L1296.66 243.157C1298.45 242.541 1299.88 241.174 1300.58 239.414L1302.25 235.233Z" stroke="#533097" stroke-width="3"/>
<path opacity="0.1" d="M1302.25 641.233C1303.42 638.291 1307.58 638.291 1308.75 641.233L1310.42 645.414C1311.12 647.174 1312.55 648.541 1314.34 649.157L1317.78 650.34C1320.92 651.423 1320.92 655.875 1317.78 656.959L1314.34 658.142C1312.55 658.758 1311.12 660.125 1310.42 661.885L1308.75 666.066C1307.58 669.007 1303.42 669.007 1302.25 666.066L1300.58 661.885C1299.88 660.125 1298.45 658.758 1296.66 658.142L1293.22 656.959C1290.08 655.875 1290.08 651.423 1293.22 650.34L1296.66 649.157C1298.45 648.541 1299.88 647.174 1300.58 645.414L1302.25 641.233Z" stroke="#533097" stroke-width="3"/>
<path opacity="0.1" d="M1302.25 438.233C1303.42 435.291 1307.58 435.291 1308.75 438.233L1310.42 442.414C1311.12 444.174 1312.55 445.541 1314.34 446.157L1317.78 447.34C1320.92 448.423 1320.92 452.875 1317.78 453.959L1314.34 455.142C1312.55 455.758 1311.12 457.125 1310.42 458.885L1308.75 463.066C1307.58 466.007 1303.42 466.007 1302.25 463.066L1300.58 458.885C1299.88 457.125 1298.45 455.758 1296.66 455.142L1293.22 453.959C1290.08 452.875 1290.08 448.423 1293.22 447.34L1296.66 446.157C1298.45 445.541 1299.88 444.174 1300.58 442.414L1302.25 438.233Z" stroke="#533097" stroke-width="3"/>
<path opacity="0.1" d="M1302.25 844.233C1303.42 841.291 1307.58 841.291 1308.75 844.233L1310.42 848.414C1311.12 850.174 1312.55 851.541 1314.34 852.157L1317.78 853.34C1320.92 854.423 1320.92 858.875 1317.78 859.959L1314.34 861.142C1312.55 861.758 1311.12 863.125 1310.42 864.885L1308.75 869.066C1307.58 872.007 1303.42 872.007 1302.25 869.066L1300.58 864.885C1299.88 863.125 1298.45 861.758 1296.66 861.142L1293.22 859.959C1290.08 858.875 1290.08 854.423 1293.22 853.34L1296.66 852.157C1298.45 851.541 1299.88 850.174 1300.58 848.414L1302.25 844.233Z" stroke="#533097" stroke-width="3"/>
<path opacity="0.1" d="M1554.25 235.233C1555.42 232.291 1559.58 232.291 1560.75 235.233L1562.42 239.414C1563.12 241.174 1564.55 242.541 1566.34 243.157L1569.78 244.34C1572.92 245.423 1572.92 249.875 1569.78 250.959L1566.34 252.142C1564.55 252.758 1563.12 254.125 1562.42 255.885L1560.75 260.066C1559.58 263.007 1555.42 263.007 1554.25 260.066L1552.58 255.885C1551.88 254.125 1550.45 252.758 1548.66 252.142L1545.22 250.959C1542.08 249.875 1542.08 245.423 1545.22 244.34L1548.66 243.157C1550.45 242.541 1551.88 241.174 1552.58 239.414L1554.25 235.233Z" stroke="#533097" stroke-width="3"/>
<path opacity="0.1" d="M1554.25 641.233C1555.42 638.291 1559.58 638.291 1560.75 641.233L1562.42 645.414C1563.12 647.174 1564.55 648.541 1566.34 649.157L1569.78 650.34C1572.92 651.423 1572.92 655.875 1569.78 656.959L1566.34 658.142C1564.55 658.758 1563.12 660.125 1562.42 661.885L1560.75 666.066C1559.58 669.007 1555.42 669.007 1554.25 666.066L1552.58 661.885C1551.88 660.125 1550.45 658.758 1548.66 658.142L1545.22 656.959C1542.08 655.875 1542.08 651.423 1545.22 650.34L1548.66 649.157C1550.45 648.541 1551.88 647.174 1552.58 645.414L1554.25 641.233Z" stroke="#533097" stroke-width="3"/>
<path opacity="0.1" d="M1554.25 438.233C1555.42 435.291 1559.58 435.291 1560.75 438.233L1562.42 442.414C1563.12 444.174 1564.55 445.541 1566.34 446.157L1569.78 447.34C1572.92 448.423 1572.92 452.875 1569.78 453.959L1566.34 455.142C1564.55 455.758 1563.12 457.125 1562.42 458.885L1560.75 463.066C1559.58 466.007 1555.42 466.007 1554.25 463.066L1552.58 458.885C1551.88 457.125 1550.45 455.758 1548.66 455.142L1545.22 453.959C1542.08 452.875 1542.08 448.423 1545.22 447.34L1548.66 446.157C1550.45 445.541 1551.88 444.174 1552.58 442.414L1554.25 438.233Z" stroke="#533097" stroke-width="3"/>
<path opacity="0.1" d="M1554.25 844.233C1555.42 841.291 1559.58 841.291 1560.75 844.233L1562.42 848.414C1563.12 850.174 1564.55 851.541 1566.34 852.157L1569.78 853.34C1572.92 854.423 1572.92 858.875 1569.78 859.959L1566.34 861.142C1564.55 861.758 1563.12 863.125 1562.42 864.885L1560.75 869.066C1559.58 872.007 1555.42 872.007 1554.25 869.066L1552.58 864.885C1551.88 863.125 1550.45 861.758 1548.66 861.142L1545.22 859.959C1542.08 858.875 1542.08 854.423 1545.22 853.34L1548.66 852.157C1550.45 851.541 1551.88 850.174 1552.58 848.414L1554.25 844.233Z" stroke="#533097" stroke-width="3"/>
<path opacity="0.1" d="M798.248 844.233C799.418 841.291 803.582 841.291 804.752 844.233L806.415 848.414C807.115 850.174 808.548 851.541 810.339 852.157L813.776 853.34C816.924 854.423 816.924 858.875 813.776 859.959L810.339 861.142C808.548 861.758 807.115 863.125 806.415 864.885L804.752 869.066C803.582 872.007 799.418 872.007 798.248 869.066L796.585 864.885C795.885 863.125 794.452 861.758 792.661 861.142L789.224 859.959C786.076 858.875 786.076 854.423 789.224 853.34L792.661 852.157C794.452 851.541 795.885 850.174 796.585 848.414L798.248 844.233Z" stroke="#533097" stroke-width="3"/>
<path opacity="0.1" d="M546.248 844.233C547.418 841.291 551.582 841.291 552.752 844.233L554.415 848.414C555.115 850.174 556.548 851.541 558.339 852.157L561.776 853.34C564.924 854.423 564.924 858.875 561.776 859.959L558.339 861.142C556.548 861.758 555.115 863.125 554.415 864.885L552.752 869.066C551.582 872.007 547.418 872.007 546.248 869.066L544.585 864.885C543.885 863.125 542.452 861.758 540.661 861.142L537.224 859.959C534.076 858.875 534.076 854.423 537.224 853.34L540.661 852.157C542.452 851.541 543.885 850.174 544.585 848.414L546.248 844.233Z" stroke="#533097" stroke-width="3"/>
<path opacity="0.1" d="M294.248 844.233C295.418 841.291 299.582 841.291 300.752 844.233L302.415 848.414C303.115 850.174 304.548 851.541 306.339 852.157L309.776 853.34C312.924 854.423 312.924 858.875 309.776 859.959L306.339 861.142C304.548 861.758 303.115 863.125 302.415 864.885L300.752 869.066C299.582 872.007 295.418 872.007 294.248 869.066L292.585 864.885C291.885 863.125 290.452 861.758 288.661 861.142L285.224 859.959C282.076 858.875 282.076 854.423 285.224 853.34L288.661 852.157C290.452 851.541 291.885 850.174 292.585 848.414L294.248 844.233Z" stroke="#533097" stroke-width="3"/>
<g opacity="0.9">
<g opacity="0.11">
<path fill-rule="evenodd" clip-rule="evenodd" d="M1509.18 965H1551.45V886.077C1551.45 850.853 1551.26 841.316 1550.35 832.318C1549.02 819.054 1546.2 805.675 1542.57 795.384C1530.24 760.418 1508.21 740.448 1477.55 736.432C1471.93 735.696 1462.98 735.932 1459.7 736.901C1452.72 738.959 1446.56 743.777 1441.8 750.905C1428.82 770.308 1427.33 804.701 1438.47 827.123C1443.59 837.407 1450.82 843.814 1460.19 846.367C1462 846.859 1463.47 846.957 1468.94 846.949C1475.83 846.939 1478.8 846.646 1485.54 845.31C1492.66 843.896 1496.79 844.38 1500.94 847.115C1503.48 848.795 1506.09 851.67 1507.28 854.113C1507.36 854.276 1507.43 854.43 1507.51 854.579C1507.66 854.889 1507.8 855.175 1507.93 855.467C1509.17 858.37 1509.17 932.074 1509.18 965Z" fill="#AD95D7"/>
<path d="M1458.01 766.874C1452.48 785.88 1452.75 795.721 1456.27 812.328" stroke="#FFC56F" stroke-width="23.1556" stroke-linecap="round"/>
</g>
</g>
<g opacity="0.9">
<g opacity="0.11">
<path fill-rule="evenodd" clip-rule="evenodd" d="M234.821 356.547C234.821 373.26 234.821 387.216 234.822 398.888L195.018 442.05C193.358 438.619 192.496 434.722 192.505 430.724C192.532 417.946 192.546 393.705 192.546 345.077C192.546 309.853 192.745 300.316 193.652 291.318C194.983 278.054 197.8 264.675 201.43 254.384C213.761 219.418 235.788 199.448 266.449 195.432C272.066 194.696 281.018 194.932 284.302 195.901C291.276 197.959 297.437 202.777 302.199 209.905C315.178 229.308 316.673 263.701 305.526 286.123C300.41 296.407 293.177 302.814 283.809 305.367C282.003 305.859 280.534 305.957 275.064 305.949C268.168 305.939 265.204 305.646 258.464 304.31C251.343 302.896 247.213 303.38 243.065 306.115C240.524 307.795 237.914 310.67 236.722 313.113C236.643 313.276 236.568 313.43 236.495 313.579C236.343 313.889 236.202 314.175 236.074 314.467C234.829 317.37 234.828 320.823 234.821 353.749L234.821 356.547Z" fill="#AD95D7"/>
<path d="M234.831 430.213C234.84 446.122 220.184 458.569 205.654 452.381C200.818 450.322 197.217 446.595 195.018 442.05L234.822 398.888C234.823 411.98 234.826 422.199 234.831 430.213Z" fill="#AD95D7"/>
<path d="M285.985 225.874C291.517 244.88 291.246 254.721 287.733 271.328" stroke="#FFC56F" stroke-width="23.1556" stroke-linecap="round"/>
</g>
</g>
</svg>
