<svg width="1440" height="804" fill="none" xmlns="http://www.w3.org/2000/svg"><path d="M0 0h1440v800H0V0z" fill="#2F1562"/><path opacity=".1" d="M24.248 48.966c1.17-2.941 5.334-2.941 6.504 0l1.663 4.181a6.5 6.5 0 0 0 3.924 3.744l3.437 1.182c3.148 1.084 3.148 5.536 0 6.62l-3.437 1.182a6.5 6.5 0 0 0-3.924 3.743L30.752 73.8c-1.17 2.942-5.334 2.942-6.504 0l-1.663-4.18a6.5 6.5 0 0 0-3.924-3.744l-3.437-1.183c-3.148-1.083-3.148-5.535 0-6.619l3.437-1.182a6.5 6.5 0 0 0 3.924-3.744l1.663-4.18zM276.248 49.233c1.17-2.942 5.334-2.942 6.504 0l1.663 4.18a6.5 6.5 0 0 0 3.924 3.744l3.437 1.183c3.148 1.083 3.148 5.535 0 6.619l-3.437 1.183a6.5 6.5 0 0 0-3.924 3.743l-1.663 4.18c-1.17 2.942-5.334 2.942-6.504 0l-1.663-4.18a6.5 6.5 0 0 0-3.924-3.743l-3.437-1.183c-3.148-1.084-3.148-5.536 0-6.62l3.437-1.182a6.5 6.5 0 0 0 3.924-3.743l1.663-4.181zM528.248 48.233c1.17-2.942 5.334-2.942 6.504 0l1.663 4.18a6.5 6.5 0 0 0 3.924 3.744l3.437 1.183c3.148 1.083 3.148 5.535 0 6.619l-3.437 1.183a6.5 6.5 0 0 0-3.924 3.743l-1.663 4.18c-1.17 2.942-5.334 2.942-6.504 0l-1.663-4.18a6.5 6.5 0 0 0-3.924-3.743l-3.437-1.183c-3.148-1.084-3.148-5.536 0-6.62l3.437-1.182a6.5 6.5 0 0 0 3.924-3.743l1.663-4.181zM24.248 454.966c1.17-2.941 5.334-2.941 6.504 0l1.663 4.181a6.502 6.502 0 0 0 3.924 3.744l3.437 1.182c3.148 1.084 3.148 5.536 0 6.619l-3.437 1.183a6.5 6.5 0 0 0-3.924 3.743l-1.663 4.181c-1.17 2.942-5.334 2.942-6.504 0l-1.663-4.181a6.5 6.5 0 0 0-3.924-3.743l-3.437-1.183c-3.148-1.083-3.148-5.535 0-6.619l3.437-1.182a6.502 6.502 0 0 0 3.924-3.744l1.663-4.181zM276.248 455.233c1.17-2.942 5.334-2.942 6.504 0l1.663 4.181a6.497 6.497 0 0 0 3.924 3.743l3.437 1.183c3.148 1.083 3.148 5.535 0 6.619l-3.437 1.183a6.497 6.497 0 0 0-3.924 3.743l-1.663 4.181c-1.17 2.941-5.334 2.941-6.504 0l-1.663-4.181a6.497 6.497 0 0 0-3.924-3.743l-3.437-1.183c-3.148-1.084-3.148-5.536 0-6.619l3.437-1.183a6.497 6.497 0 0 0 3.924-3.743l1.663-4.181zM528.248 454.233c1.17-2.942 5.334-2.942 6.504 0l1.663 4.181a6.497 6.497 0 0 0 3.924 3.743l3.437 1.183c3.148 1.083 3.148 5.535 0 6.619l-3.437 1.183a6.497 6.497 0 0 0-3.924 3.743l-1.663 4.181c-1.17 2.941-5.334 2.941-6.504 0l-1.663-4.181a6.497 6.497 0 0 0-3.924-3.743l-3.437-1.183c-3.148-1.084-3.148-5.536 0-6.619l3.437-1.183a6.497 6.497 0 0 0 3.924-3.743l1.663-4.181zM24.248 251.966c1.17-2.941 5.334-2.941 6.504 0l1.663 4.181a6.502 6.502 0 0 0 3.924 3.744l3.437 1.182c3.148 1.084 3.148 5.536 0 6.619l-3.437 1.183a6.5 6.5 0 0 0-3.924 3.743l-1.663 4.181c-1.17 2.942-5.334 2.942-6.504 0l-1.663-4.181a6.5 6.5 0 0 0-3.924-3.743l-3.437-1.183c-3.148-1.083-3.148-5.535 0-6.619l3.437-1.182a6.502 6.502 0 0 0 3.924-3.744l1.663-4.181zM276.248 252.233c1.17-2.942 5.334-2.942 6.504 0l1.663 4.181a6.497 6.497 0 0 0 3.924 3.743l3.437 1.183c3.148 1.083 3.148 5.535 0 6.619l-3.437 1.183a6.497 6.497 0 0 0-3.924 3.743l-1.663 4.181c-1.17 2.941-5.334 2.941-6.504 0l-1.663-4.181a6.497 6.497 0 0 0-3.924-3.743l-3.437-1.183c-3.148-1.084-3.148-5.536 0-6.619l3.437-1.183a6.497 6.497 0 0 0 3.924-3.743l1.663-4.181zM528.248 251.233c1.17-2.942 5.334-2.942 6.504 0l1.663 4.181a6.497 6.497 0 0 0 3.924 3.743l3.437 1.183c3.148 1.083 3.148 5.535 0 6.619l-3.437 1.183a6.497 6.497 0 0 0-3.924 3.743l-1.663 4.181c-1.17 2.941-5.334 2.941-6.504 0l-1.663-4.181a6.497 6.497 0 0 0-3.924-3.743l-3.437-1.183c-3.148-1.084-3.148-5.536 0-6.619l3.437-1.183a6.497 6.497 0 0 0 3.924-3.743l1.663-4.181zM24.248 657.966c1.17-2.941 5.334-2.941 6.504 0l1.663 4.181a6.502 6.502 0 0 0 3.924 3.744l3.437 1.182c3.148 1.084 3.148 5.536 0 6.619l-3.437 1.183a6.5 6.5 0 0 0-3.924 3.743l-1.663 4.181c-1.17 2.942-5.334 2.942-6.504 0l-1.663-4.181a6.5 6.5 0 0 0-3.924-3.743l-3.437-1.183c-3.148-1.083-3.148-5.535 0-6.619l3.437-1.182a6.502 6.502 0 0 0 3.924-3.744l1.663-4.181zM276.248 658.233c1.17-2.942 5.334-2.942 6.504 0l1.663 4.181a6.497 6.497 0 0 0 3.924 3.743l3.437 1.183c3.148 1.083 3.148 5.535 0 6.619l-3.437 1.183a6.497 6.497 0 0 0-3.924 3.743l-1.663 4.181c-1.17 2.941-5.334 2.941-6.504 0l-1.663-4.181a6.497 6.497 0 0 0-3.924-3.743l-3.437-1.183c-3.148-1.084-3.148-5.536 0-6.619l3.437-1.183a6.497 6.497 0 0 0 3.924-3.743l1.663-4.181zM528.248 657.233c1.17-2.942 5.334-2.942 6.504 0l1.663 4.181a6.497 6.497 0 0 0 3.924 3.743l3.437 1.183c3.148 1.083 3.148 5.535 0 6.619l-3.437 1.183a6.497 6.497 0 0 0-3.924 3.743l-1.663 4.181c-1.17 2.941-5.334 2.941-6.504 0l-1.663-4.181a6.497 6.497 0 0 0-3.924-3.743l-3.437-1.183c-3.148-1.084-3.148-5.536 0-6.619l3.437-1.183a6.497 6.497 0 0 0 3.924-3.743l1.663-4.181zM780.248 48.233c1.17-2.942 5.334-2.942 6.504 0l1.663 4.18a6.5 6.5 0 0 0 3.924 3.744l3.437 1.183c3.148 1.083 3.148 5.535 0 6.619l-3.437 1.183a6.5 6.5 0 0 0-3.924 3.743l-1.663 4.18c-1.17 2.942-5.334 2.942-6.504 0l-1.663-4.18a6.5 6.5 0 0 0-3.924-3.743l-3.437-1.183c-3.148-1.084-3.148-5.536 0-6.62l3.437-1.182a6.5 6.5 0 0 0 3.924-3.743l1.663-4.181zM780.248 454.233c1.17-2.942 5.334-2.942 6.504 0l1.663 4.181a6.497 6.497 0 0 0 3.924 3.743l3.437 1.183c3.148 1.083 3.148 5.535 0 6.619l-3.437 1.183a6.497 6.497 0 0 0-3.924 3.743l-1.663 4.181c-1.17 2.941-5.334 2.941-6.504 0l-1.663-4.181a6.497 6.497 0 0 0-3.924-3.743l-3.437-1.183c-3.148-1.084-3.148-5.536 0-6.619l3.437-1.183a6.497 6.497 0 0 0 3.924-3.743l1.663-4.181zM780.248 251.233c1.17-2.942 5.334-2.942 6.504 0l1.663 4.181a6.497 6.497 0 0 0 3.924 3.743l3.437 1.183c3.148 1.083 3.148 5.535 0 6.619l-3.437 1.183a6.497 6.497 0 0 0-3.924 3.743l-1.663 4.181c-1.17 2.941-5.334 2.941-6.504 0l-1.663-4.181a6.497 6.497 0 0 0-3.924-3.743l-3.437-1.183c-3.148-1.084-3.148-5.536 0-6.619l3.437-1.183a6.497 6.497 0 0 0 3.924-3.743l1.663-4.181zM780.248 657.233c1.17-2.942 5.334-2.942 6.504 0l1.663 4.181a6.497 6.497 0 0 0 3.924 3.743l3.437 1.183c3.148 1.083 3.148 5.535 0 6.619l-3.437 1.183a6.497 6.497 0 0 0-3.924 3.743l-1.663 4.181c-1.17 2.941-5.334 2.941-6.504 0l-1.663-4.181a6.497 6.497 0 0 0-3.924-3.743l-3.437-1.183c-3.148-1.084-3.148-5.536 0-6.619l3.437-1.183a6.497 6.497 0 0 0 3.924-3.743l1.663-4.181zM1032.25 49.233c1.17-2.942 5.33-2.942 6.5 0l1.67 4.18a6.495 6.495 0 0 0 3.92 3.744l3.44 1.183c3.14 1.083 3.14 5.535 0 6.619l-3.44 1.183a6.495 6.495 0 0 0-3.92 3.743l-1.67 4.18c-1.17 2.942-5.33 2.942-6.5 0l-1.67-4.18a6.495 6.495 0 0 0-3.92-3.743l-3.44-1.183c-3.14-1.084-3.14-5.536 0-6.62l3.44-1.182a6.495 6.495 0 0 0 3.92-3.743l1.67-4.181zM1032.25 455.233c1.17-2.942 5.33-2.942 6.5 0l1.67 4.181a6.493 6.493 0 0 0 3.92 3.743l3.44 1.183c3.14 1.083 3.14 5.535 0 6.619l-3.44 1.183a6.493 6.493 0 0 0-3.92 3.743l-1.67 4.181c-1.17 2.941-5.33 2.941-6.5 0l-1.67-4.181a6.493 6.493 0 0 0-3.92-3.743l-3.44-1.183c-3.14-1.084-3.14-5.536 0-6.619l3.44-1.183a6.493 6.493 0 0 0 3.92-3.743l1.67-4.181zM1032.25 252.233c1.17-2.942 5.33-2.942 6.5 0l1.67 4.181a6.493 6.493 0 0 0 3.92 3.743l3.44 1.183c3.14 1.083 3.14 5.535 0 6.619l-3.44 1.183a6.493 6.493 0 0 0-3.92 3.743l-1.67 4.181c-1.17 2.941-5.33 2.941-6.5 0l-1.67-4.181a6.493 6.493 0 0 0-3.92-3.743l-3.44-1.183c-3.14-1.084-3.14-5.536 0-6.619l3.44-1.183a6.493 6.493 0 0 0 3.92-3.743l1.67-4.181zM1032.25 658.233c1.17-2.942 5.33-2.942 6.5 0l1.67 4.181a6.493 6.493 0 0 0 3.92 3.743l3.44 1.183c3.14 1.083 3.14 5.535 0 6.619l-3.44 1.183a6.493 6.493 0 0 0-3.92 3.743l-1.67 4.181c-1.17 2.941-5.33 2.941-6.5 0l-1.67-4.181a6.493 6.493 0 0 0-3.92-3.743l-3.44-1.183c-3.14-1.084-3.14-5.536 0-6.619l3.44-1.183a6.493 6.493 0 0 0 3.92-3.743l1.67-4.181zM1284.25 49.233c1.17-2.942 5.33-2.942 6.5 0l1.67 4.18a6.495 6.495 0 0 0 3.92 3.744l3.44 1.183c3.14 1.083 3.14 5.535 0 6.619l-3.44 1.183a6.495 6.495 0 0 0-3.92 3.743l-1.67 4.18c-1.17 2.942-5.33 2.942-6.5 0l-1.67-4.18a6.495 6.495 0 0 0-3.92-3.743l-3.44-1.183c-3.14-1.084-3.14-5.536 0-6.62l3.44-1.182a6.495 6.495 0 0 0 3.92-3.743l1.67-4.181zM1284.25 455.233c1.17-2.942 5.33-2.942 6.5 0l1.67 4.181a6.493 6.493 0 0 0 3.92 3.743l3.44 1.183c3.14 1.083 3.14 5.535 0 6.619l-3.44 1.183a6.493 6.493 0 0 0-3.92 3.743l-1.67 4.181c-1.17 2.941-5.33 2.941-6.5 0l-1.67-4.181a6.493 6.493 0 0 0-3.92-3.743l-3.44-1.183c-3.14-1.084-3.14-5.536 0-6.619l3.44-1.183a6.493 6.493 0 0 0 3.92-3.743l1.67-4.181zM1284.25 252.233c1.17-2.942 5.33-2.942 6.5 0l1.67 4.181a6.493 6.493 0 0 0 3.92 3.743l3.44 1.183c3.14 1.083 3.14 5.535 0 6.619l-3.44 1.183a6.493 6.493 0 0 0-3.92 3.743l-1.67 4.181c-1.17 2.941-5.33 2.941-6.5 0l-1.67-4.181a6.493 6.493 0 0 0-3.92-3.743l-3.44-1.183c-3.14-1.084-3.14-5.536 0-6.619l3.44-1.183a6.493 6.493 0 0 0 3.92-3.743l1.67-4.181zM1284.25 658.233c1.17-2.942 5.33-2.942 6.5 0l1.67 4.181a6.493 6.493 0 0 0 3.92 3.743l3.44 1.183c3.14 1.083 3.14 5.535 0 6.619l-3.44 1.183a6.493 6.493 0 0 0-3.92 3.743l-1.67 4.181c-1.17 2.941-5.33 2.941-6.5 0l-1.67-4.181a6.493 6.493 0 0 0-3.92-3.743l-3.44-1.183c-3.14-1.084-3.14-5.536 0-6.619l3.44-1.183a6.493 6.493 0 0 0 3.92-3.743l1.67-4.181zM654.248 150.233c1.17-2.942 5.334-2.942 6.504 0l1.663 4.181a6.497 6.497 0 0 0 3.924 3.743l3.437 1.183c3.148 1.083 3.148 5.535 0 6.619l-3.437 1.183a6.497 6.497 0 0 0-3.924 3.743l-1.663 4.181c-1.17 2.941-5.334 2.941-6.504 0l-1.663-4.181a6.497 6.497 0 0 0-3.924-3.743l-3.437-1.183c-3.148-1.084-3.148-5.536 0-6.619l3.437-1.183a6.497 6.497 0 0 0 3.924-3.743l1.663-4.181zM402.248 150.233c1.17-2.942 5.334-2.942 6.504 0l1.663 4.181a6.497 6.497 0 0 0 3.924 3.743l3.437 1.183c3.148 1.083 3.148 5.535 0 6.619l-3.437 1.183a6.497 6.497 0 0 0-3.924 3.743l-1.663 4.181c-1.17 2.941-5.334 2.941-6.504 0l-1.663-4.181a6.497 6.497 0 0 0-3.924-3.743l-3.437-1.183c-3.148-1.084-3.148-5.536 0-6.619l3.437-1.183a6.497 6.497 0 0 0 3.924-3.743l1.663-4.181zM150.248 150.233c1.17-2.942 5.334-2.942 6.504 0l1.663 4.181a6.497 6.497 0 0 0 3.924 3.743l3.437 1.183c3.148 1.083 3.148 5.535 0 6.619l-3.437 1.183a6.497 6.497 0 0 0-3.924 3.743l-1.663 4.181c-1.17 2.941-5.334 2.941-6.504 0l-1.663-4.181a6.497 6.497 0 0 0-3.924-3.743l-3.437-1.183c-3.148-1.084-3.148-5.536 0-6.619l3.437-1.183a6.497 6.497 0 0 0 3.924-3.743l1.663-4.181zM654.248 556.233c1.17-2.942 5.334-2.942 6.504 0l1.663 4.181a6.497 6.497 0 0 0 3.924 3.743l3.437 1.183c3.148 1.083 3.148 5.535 0 6.619l-3.437 1.183a6.497 6.497 0 0 0-3.924 3.743l-1.663 4.181c-1.17 2.941-5.334 2.941-6.504 0l-1.663-4.181a6.497 6.497 0 0 0-3.924-3.743l-3.437-1.183c-3.148-1.084-3.148-5.536 0-6.619l3.437-1.183a6.497 6.497 0 0 0 3.924-3.743l1.663-4.181zM402.248 556.233c1.17-2.942 5.334-2.942 6.504 0l1.663 4.181a6.497 6.497 0 0 0 3.924 3.743l3.437 1.183c3.148 1.083 3.148 5.535 0 6.619l-3.437 1.183a6.497 6.497 0 0 0-3.924 3.743l-1.663 4.181c-1.17 2.941-5.334 2.941-6.504 0l-1.663-4.181a6.497 6.497 0 0 0-3.924-3.743l-3.437-1.183c-3.148-1.084-3.148-5.536 0-6.619l3.437-1.183a6.497 6.497 0 0 0 3.924-3.743l1.663-4.181zM150.248 556.233c1.17-2.942 5.334-2.942 6.504 0l1.663 4.181a6.497 6.497 0 0 0 3.924 3.743l3.437 1.183c3.148 1.083 3.148 5.535 0 6.619l-3.437 1.183a6.497 6.497 0 0 0-3.924 3.743l-1.663 4.181c-1.17 2.941-5.334 2.941-6.504 0l-1.663-4.181a6.497 6.497 0 0 0-3.924-3.743l-3.437-1.183c-3.148-1.084-3.148-5.536 0-6.619l3.437-1.183a6.497 6.497 0 0 0 3.924-3.743l1.663-4.181zM654.248 353.233c1.17-2.942 5.334-2.942 6.504 0l1.663 4.181a6.497 6.497 0 0 0 3.924 3.743l3.437 1.183c3.148 1.083 3.148 5.535 0 6.619l-3.437 1.183a6.497 6.497 0 0 0-3.924 3.743l-1.663 4.181c-1.17 2.941-5.334 2.941-6.504 0l-1.663-4.181a6.497 6.497 0 0 0-3.924-3.743l-3.437-1.183c-3.148-1.084-3.148-5.536 0-6.619l3.437-1.183a6.497 6.497 0 0 0 3.924-3.743l1.663-4.181zM402.248 353.233c1.17-2.942 5.334-2.942 6.504 0l1.663 4.181a6.497 6.497 0 0 0 3.924 3.743l3.437 1.183c3.148 1.083 3.148 5.535 0 6.619l-3.437 1.183a6.497 6.497 0 0 0-3.924 3.743l-1.663 4.181c-1.17 2.941-5.334 2.941-6.504 0l-1.663-4.181a6.497 6.497 0 0 0-3.924-3.743l-3.437-1.183c-3.148-1.084-3.148-5.536 0-6.619l3.437-1.183a6.497 6.497 0 0 0 3.924-3.743l1.663-4.181zM150.248 353.233c1.17-2.942 5.334-2.942 6.504 0l1.663 4.181a6.497 6.497 0 0 0 3.924 3.743l3.437 1.183c3.148 1.083 3.148 5.535 0 6.619l-3.437 1.183a6.497 6.497 0 0 0-3.924 3.743l-1.663 4.181c-1.17 2.941-5.334 2.941-6.504 0l-1.663-4.181a6.497 6.497 0 0 0-3.924-3.743l-3.437-1.183c-3.148-1.084-3.148-5.536 0-6.619l3.437-1.183a6.497 6.497 0 0 0 3.924-3.743l1.663-4.181zM906.248 150.233c1.17-2.942 5.334-2.942 6.504 0l1.663 4.181a6.497 6.497 0 0 0 3.924 3.743l3.437 1.183c3.148 1.083 3.148 5.535 0 6.619l-3.437 1.183a6.497 6.497 0 0 0-3.924 3.743l-1.663 4.181c-1.17 2.941-5.334 2.941-6.504 0l-1.663-4.181a6.497 6.497 0 0 0-3.924-3.743l-3.437-1.183c-3.148-1.084-3.148-5.536 0-6.619l3.437-1.183a6.497 6.497 0 0 0 3.924-3.743l1.663-4.181zM906.248 556.233c1.17-2.942 5.334-2.942 6.504 0l1.663 4.181a6.497 6.497 0 0 0 3.924 3.743l3.437 1.183c3.148 1.083 3.148 5.535 0 6.619l-3.437 1.183a6.497 6.497 0 0 0-3.924 3.743l-1.663 4.181c-1.17 2.941-5.334 2.941-6.504 0l-1.663-4.181a6.497 6.497 0 0 0-3.924-3.743l-3.437-1.183c-3.148-1.084-3.148-5.536 0-6.619l3.437-1.183a6.497 6.497 0 0 0 3.924-3.743l1.663-4.181zM906.248 353.233c1.17-2.942 5.334-2.942 6.504 0l1.663 4.181a6.497 6.497 0 0 0 3.924 3.743l3.437 1.183c3.148 1.083 3.148 5.535 0 6.619l-3.437 1.183a6.497 6.497 0 0 0-3.924 3.743l-1.663 4.181c-1.17 2.941-5.334 2.941-6.504 0l-1.663-4.181a6.497 6.497 0 0 0-3.924-3.743l-3.437-1.183c-3.148-1.084-3.148-5.536 0-6.619l3.437-1.183a6.497 6.497 0 0 0 3.924-3.743l1.663-4.181zM906.248 759.233c1.17-2.942 5.334-2.942 6.504 0l1.663 4.181a6.497 6.497 0 0 0 3.924 3.743l3.437 1.183c3.148 1.083 3.148 5.535 0 6.619l-3.437 1.183a6.497 6.497 0 0 0-3.924 3.743l-1.663 4.181c-1.17 2.941-5.334 2.941-6.504 0l-1.663-4.181a6.497 6.497 0 0 0-3.924-3.743l-3.437-1.183c-3.148-1.084-3.148-5.536 0-6.619l3.437-1.183a6.497 6.497 0 0 0 3.924-3.743l1.663-4.181zM1158.25 150.233c1.17-2.942 5.33-2.942 6.5 0l1.67 4.181a6.493 6.493 0 0 0 3.92 3.743l3.44 1.183c3.14 1.083 3.14 5.535 0 6.619l-3.44 1.183a6.493 6.493 0 0 0-3.92 3.743l-1.67 4.181c-1.17 2.941-5.33 2.941-6.5 0l-1.67-4.181a6.493 6.493 0 0 0-3.92-3.743l-3.44-1.183c-3.14-1.084-3.14-5.536 0-6.619l3.44-1.183a6.493 6.493 0 0 0 3.92-3.743l1.67-4.181zM1158.25 556.233c1.17-2.942 5.33-2.942 6.5 0l1.67 4.181a6.493 6.493 0 0 0 3.92 3.743l3.44 1.183c3.14 1.083 3.14 5.535 0 6.619l-3.44 1.183a6.493 6.493 0 0 0-3.92 3.743l-1.67 4.181c-1.17 2.941-5.33 2.941-6.5 0l-1.67-4.181a6.493 6.493 0 0 0-3.92-3.743l-3.44-1.183c-3.14-1.084-3.14-5.536 0-6.619l3.44-1.183a6.493 6.493 0 0 0 3.92-3.743l1.67-4.181zM1158.25 353.233c1.17-2.942 5.33-2.942 6.5 0l1.67 4.181a6.493 6.493 0 0 0 3.92 3.743l3.44 1.183c3.14 1.083 3.14 5.535 0 6.619l-3.44 1.183a6.493 6.493 0 0 0-3.92 3.743l-1.67 4.181c-1.17 2.941-5.33 2.941-6.5 0l-1.67-4.181a6.493 6.493 0 0 0-3.92-3.743l-3.44-1.183c-3.14-1.084-3.14-5.536 0-6.619l3.44-1.183a6.493 6.493 0 0 0 3.92-3.743l1.67-4.181zM1158.25 759.233c1.17-2.942 5.33-2.942 6.5 0l1.67 4.181a6.493 6.493 0 0 0 3.92 3.743l3.44 1.183c3.14 1.083 3.14 5.535 0 6.619l-3.44 1.183a6.493 6.493 0 0 0-3.92 3.743l-1.67 4.181c-1.17 2.941-5.33 2.941-6.5 0l-1.67-4.181a6.493 6.493 0 0 0-3.92-3.743l-3.44-1.183c-3.14-1.084-3.14-5.536 0-6.619l3.44-1.183a6.493 6.493 0 0 0 3.92-3.743l1.67-4.181zM1410.25 150.233c1.17-2.942 5.33-2.942 6.5 0l1.67 4.181a6.493 6.493 0 0 0 3.92 3.743l3.44 1.183c3.14 1.083 3.14 5.535 0 6.619l-3.44 1.183a6.493 6.493 0 0 0-3.92 3.743l-1.67 4.181c-1.17 2.941-5.33 2.941-6.5 0l-1.67-4.181a6.493 6.493 0 0 0-3.92-3.743l-3.44-1.183c-3.14-1.084-3.14-5.536 0-6.619l3.44-1.183a6.493 6.493 0 0 0 3.92-3.743l1.67-4.181zM1410.25 556.233c1.17-2.942 5.33-2.942 6.5 0l1.67 4.181a6.493 6.493 0 0 0 3.92 3.743l3.44 1.183c3.14 1.083 3.14 5.535 0 6.619l-3.44 1.183a6.493 6.493 0 0 0-3.92 3.743l-1.67 4.181c-1.17 2.941-5.33 2.941-6.5 0l-1.67-4.181a6.493 6.493 0 0 0-3.92-3.743l-3.44-1.183c-3.14-1.084-3.14-5.536 0-6.619l3.44-1.183a6.493 6.493 0 0 0 3.92-3.743l1.67-4.181zM1410.25 353.233c1.17-2.942 5.33-2.942 6.5 0l1.67 4.181a6.493 6.493 0 0 0 3.92 3.743l3.44 1.183c3.14 1.083 3.14 5.535 0 6.619l-3.44 1.183a6.493 6.493 0 0 0-3.92 3.743l-1.67 4.181c-1.17 2.941-5.33 2.941-6.5 0l-1.67-4.181a6.493 6.493 0 0 0-3.92-3.743l-3.44-1.183c-3.14-1.084-3.14-5.536 0-6.619l3.44-1.183a6.493 6.493 0 0 0 3.92-3.743l1.67-4.181zM1410.25 759.233c1.17-2.942 5.33-2.942 6.5 0l1.67 4.181a6.493 6.493 0 0 0 3.92 3.743l3.44 1.183c3.14 1.083 3.14 5.535 0 6.619l-3.44 1.183a6.493 6.493 0 0 0-3.92 3.743l-1.67 4.181c-1.17 2.941-5.33 2.941-6.5 0l-1.67-4.181a6.493 6.493 0 0 0-3.92-3.743l-3.44-1.183c-3.14-1.084-3.14-5.536 0-6.619l3.44-1.183a6.493 6.493 0 0 0 3.92-3.743l1.67-4.181zM654.248 759.233c1.17-2.942 5.334-2.942 6.504 0l1.663 4.181a6.497 6.497 0 0 0 3.924 3.743l3.437 1.183c3.148 1.083 3.148 5.535 0 6.619l-3.437 1.183a6.497 6.497 0 0 0-3.924 3.743l-1.663 4.181c-1.17 2.941-5.334 2.941-6.504 0l-1.663-4.181a6.497 6.497 0 0 0-3.924-3.743l-3.437-1.183c-3.148-1.084-3.148-5.536 0-6.619l3.437-1.183a6.497 6.497 0 0 0 3.924-3.743l1.663-4.181zM402.248 759.233c1.17-2.942 5.334-2.942 6.504 0l1.663 4.181a6.497 6.497 0 0 0 3.924 3.743l3.437 1.183c3.148 1.083 3.148 5.535 0 6.619l-3.437 1.183a6.497 6.497 0 0 0-3.924 3.743l-1.663 4.181c-1.17 2.941-5.334 2.941-6.504 0l-1.663-4.181a6.497 6.497 0 0 0-3.924-3.743l-3.437-1.183c-3.148-1.084-3.148-5.536 0-6.619l3.437-1.183a6.497 6.497 0 0 0 3.924-3.743l1.663-4.181zM150.248 759.233c1.17-2.942 5.334-2.942 6.504 0l1.663 4.181a6.497 6.497 0 0 0 3.924 3.743l3.437 1.183c3.148 1.083 3.148 5.535 0 6.619l-3.437 1.183a6.497 6.497 0 0 0-3.924 3.743l-1.663 4.181c-1.17 2.941-5.334 2.941-6.504 0l-1.663-4.181a6.497 6.497 0 0 0-3.924-3.743l-3.437-1.183c-3.148-1.084-3.148-5.536 0-6.619l3.437-1.183a6.497 6.497 0 0 0 3.924-3.743l1.663-4.181z" stroke="#533097" stroke-width="3"/></svg>