<svg width="121" height="259" viewBox="0 0 121 259" fill="none" xmlns="http://www.w3.org/2000/svg">
<path fill-rule="evenodd" clip-rule="evenodd" d="M42.8206 161.547C42.8206 178.26 42.8209 192.216 42.8221 203.888L3.01823 247.05C1.35797 243.619 0.496429 239.722 0.505013 235.724C0.532455 222.946 0.546165 198.705 0.546165 150.077C0.546165 114.853 0.744926 105.316 1.65228 96.3177C2.98308 83.0536 5.80022 69.6752 9.42966 59.3845C21.7611 24.4179 43.7884 4.44774 74.4486 0.431694C80.0656 -0.303745 89.0182 -0.0684046 92.302 0.901285C99.2757 2.95942 105.437 7.77737 110.199 14.9051C123.178 34.3076 124.673 68.7011 113.526 91.1228C108.41 101.407 101.177 107.814 91.8094 110.367C90.0033 110.859 88.5343 110.957 83.0642 110.949C76.1682 110.939 73.2042 110.646 66.4638 109.31C59.3432 107.896 55.2125 108.38 51.0646 111.115C48.524 112.795 45.9142 115.67 44.7217 118.113C44.6434 118.276 44.5677 118.43 44.4949 118.579C44.3426 118.889 44.2021 119.175 44.0736 119.467C42.829 122.37 42.8283 125.823 42.8212 158.749L42.8206 161.547Z" fill="#AD95D7"/>
<path d="M42.8306 235.213C42.8398 251.122 28.1836 263.569 13.654 257.381C8.81798 255.322 5.2174 251.595 3.01823 247.05L42.8221 203.888C42.8234 216.98 42.826 227.199 42.8306 235.213Z" fill="#AD95D7"/>
<path d="M93.9854 30.874C99.5167 49.8803 99.2458 59.7211 95.7326 76.3277" stroke="#FFC56F" stroke-width="23.1556" stroke-linecap="round"/>
</svg>
