<svg width="18" height="18" viewBox="0 0 18 18" fill="none" xmlns="http://www.w3.org/2000/svg">
<path d="M4.02943 18H0.297643V5.98243H4.02943V18ZM2.16129 4.34314C0.968143 4.34314 0 3.35443 0 2.16129C0 1.58808 0.227706 1.03835 0.633026 0.633026C1.03835 0.227706 1.58808 0 2.16129 0C2.73449 0 3.28423 0.227706 3.68955 0.633026C4.09487 1.03835 4.32257 1.58808 4.32257 2.16129C4.32257 3.35443 3.35443 4.34314 2.16129 4.34314ZM17.9961 18H14.2727V12.15C14.2727 10.7556 14.2444 8.96786 12.3326 8.96786C10.3924 8.96786 10.0948 10.4824 10.0948 12.0497V18H6.36686V5.98243H9.94564V7.62171H9.99771C10.4959 6.67736 11.7129 5.68093 13.5283 5.68093C17.3051 5.68093 17.9994 8.16814 17.9994 11.3985V18H17.9961Z" fill="#FBD362"/>
</svg>
