<svg width="28" height="28" viewBox="0 0 28 28" fill="none" xmlns="http://www.w3.org/2000/svg">
<path d="M6.30977 27.5H0.712089V9.47364H6.30977V27.5ZM3.50755 7.01471C1.71784 7.01471 0.265625 5.53164 0.265625 3.74193C0.265625 2.88212 0.607184 2.05752 1.21516 1.44954C1.82314 0.841559 2.64774 0.5 3.50755 0.5C4.36737 0.5 5.19196 0.841559 5.79994 1.44954C6.40792 2.05752 6.74948 2.88212 6.74948 3.74193C6.74948 5.53164 5.29727 7.01471 3.50755 7.01471ZM27.2598 27.5H21.6747V18.725C21.6747 16.6335 21.6323 13.9518 18.7645 13.9518C15.8543 13.9518 15.4078 16.2236 15.4078 18.5746V27.5H9.81591V9.47364H15.1841V11.9326H15.2622C16.0095 10.516 17.8349 9.02139 20.5581 9.02139C26.2232 9.02139 27.2647 12.7522 27.2647 17.5978V27.5H27.2598Z" fill="#4D2E99"/>
</svg>
