<svg width="110" height="48" viewBox="0 0 110 48" fill="none" xmlns="http://www.w3.org/2000/svg">
<path d="M12.1928 8.71777C15.5555 8.71777 18.4244 9.9227 20.8112 12.3089C23.198 14.6951 24.3855 17.5893 24.3855 20.9678C24.3855 24.3464 23.1862 27.2287 20.8112 29.6268C18.4361 32.0248 15.5555 33.2179 12.1928 33.2179C8.83005 33.2179 5.96117 32.013 3.58611 29.6268C1.21105 27.2405 0 24.3464 0 20.9678C0 17.5893 1.19929 14.707 3.58611 12.3089C5.97293 9.91088 8.84181 8.71777 12.1928 8.71777ZM12.1928 13.9746C11.2698 13.9683 10.3547 14.1465 9.50094 14.4988C8.64714 14.8511 7.87161 15.3705 7.21949 16.0268C6.56737 16.6831 6.05168 17.4632 5.70243 18.3216C5.35317 19.18 5.17734 20.0996 5.18516 21.0269C5.17891 21.9532 5.3559 22.8716 5.70585 23.7286C6.0558 24.5856 6.57174 25.3643 7.2237 26.0193C7.87567 26.6743 8.65067 27.1927 9.50369 27.5443C10.3567 27.8959 11.2708 28.0737 12.1928 28.0674C14.0513 28.0674 15.8337 27.3257 17.1479 26.0053C18.4621 24.685 19.2004 22.8942 19.2004 21.0269C19.2019 20.1013 19.0218 19.1845 18.6703 18.329C18.3189 17.4734 17.8029 16.6959 17.1521 16.0409C16.5012 15.3858 15.7281 14.8662 14.8772 14.5116C14.0262 14.157 13.114 13.9746 12.1928 13.9746Z" fill="white"/>
<path d="M28.0938 45.9747C27.4178 45.9625 26.6502 45.8453 26.1721 45.365C25.694 44.8846 25.4201 44.2366 25.408 43.5574L25.375 20.986C25.3868 17.6075 26.586 14.7251 28.9729 12.3625C31.3597 9.99994 34.2051 8.7832 37.5678 8.7832C40.9305 8.7832 43.7994 9.98813 46.1744 12.3743C48.5495 14.7606 49.7605 17.6547 49.7605 21.0333C49.7605 24.4118 48.5612 27.2941 46.1744 29.6922C43.7876 32.0902 40.9187 33.2833 37.5678 33.2833C34.4872 33.2833 32.1592 32.5745 30.5602 31.157L30.5932 43.5574C30.5811 44.2366 30.3072 44.8846 29.8291 45.365C29.351 45.8453 28.7699 45.9625 28.0938 45.9747ZM42.5178 25.9711C43.8817 24.589 44.5754 22.9352 44.5754 20.986C44.5754 19.0369 43.8817 17.3712 42.5178 15.9891C41.1539 14.607 39.5078 13.9573 37.5678 13.9573C35.6277 13.9573 33.9581 14.6306 32.5942 15.9891C31.2895 17.3196 30.5582 19.1124 30.5582 20.9801C30.5582 22.8478 31.2895 24.6406 32.5942 25.9711C33.9581 27.3414 35.616 28.0265 37.5678 28.0265C38.4887 28.0408 39.4028 27.8658 40.254 27.5123C41.1052 27.1589 41.8756 26.6344 42.5178 25.9711Z" fill="white"/>
<path d="M98.6505 0.000132553C99.3293 0.00323983 99.9795 0.275556 100.459 0.757833C100.94 1.24011 101.211 1.89333 101.214 2.57536V21.0272C101.206 24.4058 100.007 27.2763 97.6158 29.6389C95.2251 32.0015 92.3601 33.1946 89.0209 33.2182C85.6582 33.2182 82.7893 32.0133 80.4025 29.6271C78.0157 27.2409 76.8281 24.3467 76.8281 20.9682C76.8281 17.5897 78.0274 14.7073 80.4025 12.3093C82.7775 9.91122 85.6582 8.71811 89.0209 8.71811C92.0779 8.71811 94.4138 9.42689 96.0285 10.8445V2.57536C96.0228 2.23364 96.0878 1.89445 96.2194 1.57927C96.3509 1.26409 96.5462 0.979782 96.7928 0.74435C97.0276 0.505469 97.3079 0.316483 97.617 0.188633C97.926 0.0607822 98.2575 -0.00332207 98.5917 0.000132553H98.6505ZM84.0474 16.0303C82.7427 17.3608 82.0113 19.1536 82.0113 21.0213C82.0113 22.8891 82.7427 24.6818 84.0474 26.0123C85.4113 27.3826 87.0691 28.0678 89.0209 28.0678C90.8794 28.0678 92.6618 27.326 93.976 26.0057C95.2902 24.6853 96.0285 22.8945 96.0285 21.0272C96.03 20.1017 95.8499 19.1849 95.4985 18.3293C95.147 17.4738 94.6311 16.6962 93.9802 16.0412C93.3293 15.3862 92.5563 14.8665 91.7053 14.5119C90.8543 14.1574 89.9421 13.9749 89.0209 13.9749C87.0691 13.9749 85.4113 14.66 84.0474 16.0303Z" fill="white"/>
<path d="M60.2438 18.5344C60.0796 19.2505 60.032 19.9885 60.1027 20.7198C60.1621 21.3564 60.3126 21.981 60.5495 22.5745C60.6116 22.736 60.6082 22.9155 60.5401 23.0745C60.4719 23.2335 60.3445 23.3593 60.185 23.425C60.1093 23.452 60.0301 23.468 59.9499 23.4722C59.8202 23.4717 59.6937 23.432 59.5867 23.3582C59.4798 23.2845 59.3974 23.1802 59.3502 23.0588C59.0656 22.3523 58.8835 21.6083 58.8094 20.8498C58.727 19.9718 58.7865 19.0862 58.9857 18.2273C59.0263 18.0597 59.1314 17.9151 59.2781 17.8254C59.4247 17.7357 59.6008 17.7081 59.7676 17.7489C59.9345 17.7896 60.0784 17.8952 60.1677 18.0426C60.257 18.1899 60.2844 18.3668 60.2438 18.5344Z" fill="white"/>
<path d="M75.53 20.9922C75.53 24.3707 74.3385 27.257 71.9556 29.6511C71.0638 30.5613 70.0365 31.3264 68.9104 31.9192C68.8986 29.7338 68.8869 27.383 68.8869 25.5756C68.8869 23.7682 68.6165 21.9018 68.0638 20.3306C66.9939 17.2711 64.854 15.1211 61.5736 14.9912H61.2679C60.0451 14.9912 59.1633 15.8063 58.6106 16.9639C57.7406 18.8304 57.7523 21.6064 58.6929 23.402C59.2103 24.4061 60.0333 25.0913 61.1503 25.1385H61.2679C61.9008 25.1359 62.5315 25.0646 63.1491 24.9259C63.3605 24.8752 63.5803 24.8712 63.7935 24.914C64.0066 24.9568 64.2079 25.0455 64.3837 25.174C64.5941 25.3183 64.7663 25.5122 64.8851 25.7387C65.004 25.9651 65.0659 26.2174 65.0656 26.4734V33.1359C64.497 33.2172 63.9233 33.2567 63.349 33.254C59.9863 33.254 57.1174 32.0491 54.7306 29.6629C52.3438 27.2767 51.1562 24.3825 51.1562 21.004C51.1562 17.6255 52.3438 14.7431 54.7306 12.3451C57.1174 9.94702 59.9863 8.75391 63.349 8.75391C66.7117 8.75391 69.5688 9.95883 71.9556 12.3451C74.3425 14.7313 75.53 17.6136 75.53 20.9922Z" fill="white"/>
<path d="M60.185 23.425C60.1093 23.452 60.0301 23.468 59.9499 23.4722C59.8202 23.4717 59.6937 23.432 59.5867 23.3582C59.4798 23.2845 59.3974 23.1802 59.3502 23.0588C59.0656 22.3523 58.8835 21.6083 58.8094 20.8498C58.727 19.9718 58.7865 19.0862 58.9857 18.2273C59.0263 18.0597 59.1314 17.9151 59.2781 17.8254C59.4247 17.7357 59.6008 17.7081 59.7676 17.7489C59.9345 17.7896 60.0784 17.8952 60.1677 18.0426C60.257 18.1899 60.2844 18.3668 60.2438 18.5344C60.0796 19.2505 60.032 19.9885 60.1027 20.7198C60.1621 21.3564 60.3126 21.981 60.5495 22.5745C60.6116 22.736 60.6082 22.9155 60.5401 23.0745C60.4719 23.2335 60.3445 23.3593 60.185 23.425Z" fill="#EAB611"/>
<path d="M34.7729 45.6608C34.2559 45.6608 33.7958 45.6104 33.3927 45.5096C32.994 45.4132 32.6544 45.3037 32.374 45.181L32.2228 43.7219C32.5558 43.8753 32.9217 44.0089 33.3204 44.1228C33.7235 44.2368 34.1661 44.2937 34.648 44.2937C35.0687 44.2937 35.3732 44.2411 35.5616 44.136C35.75 44.0264 35.8442 43.8643 35.8442 43.6496V43.6102C35.8442 43.4656 35.8004 43.3473 35.7128 43.2553C35.6295 43.1633 35.4805 43.08 35.2658 43.0055C35.0511 42.9267 34.7488 42.8434 34.3589 42.7558C33.8199 42.6287 33.3927 42.4819 33.0772 42.3154C32.7662 42.1446 32.5427 41.9364 32.4069 41.6911C32.271 41.4413 32.2031 41.1434 32.2031 40.7972V40.7381C32.2031 40.129 32.42 39.6712 32.8538 39.3645C33.2876 39.0534 33.9295 38.8978 34.7795 38.8978C35.2834 38.8978 35.7281 38.9482 36.1137 39.049C36.5036 39.1454 36.8279 39.2615 37.0864 39.3973L37.2375 40.7381C36.9308 40.5935 36.5869 40.473 36.2057 40.3766C35.8245 40.2758 35.4148 40.2254 34.9767 40.2254C34.6919 40.2254 34.4662 40.2495 34.2997 40.2977C34.1376 40.3415 34.0215 40.4051 33.9514 40.4883C33.8813 40.5716 33.8462 40.6724 33.8462 40.7907V40.8235C33.8462 40.955 33.8835 41.0689 33.9579 41.1653C34.0368 41.2617 34.1792 41.3493 34.3851 41.4282C34.5911 41.5027 34.8803 41.5837 35.2527 41.6714C35.796 41.7853 36.232 41.9189 36.5606 42.0723C36.8892 42.2256 37.128 42.4228 37.277 42.6638C37.426 42.9004 37.5004 43.2115 37.5004 43.597V43.6759C37.5004 44.3419 37.2748 44.8392 36.8235 45.1678C36.3722 45.4965 35.6887 45.6608 34.7729 45.6608Z" fill="white"/>
<path d="M44.5325 45.503L44.5917 43.9257L44.5457 43.7811V41.7634L44.5391 41.4742C44.5391 41.0536 44.423 40.7447 44.1908 40.5475C43.9629 40.3503 43.5883 40.2517 43.0669 40.2517C42.6244 40.2517 42.2081 40.3109 41.8182 40.4292C41.4326 40.5431 41.0755 40.6767 40.7469 40.8301L40.8915 39.4893C41.0842 39.3886 41.3033 39.2944 41.5487 39.2067C41.7984 39.1147 42.0767 39.0402 42.3834 38.9833C42.6901 38.9263 43.0209 38.8978 43.3758 38.8978C43.9016 38.8978 44.3463 38.9614 44.71 39.0884C45.0737 39.2111 45.3628 39.3886 45.5775 39.6208C45.7966 39.853 45.9544 40.1312 46.0508 40.4555C46.1471 40.7753 46.1953 41.1302 46.1953 41.5202V45.503H44.5325ZM42.4228 45.6542C41.7831 45.6542 41.2946 45.4943 40.9572 45.1744C40.6242 44.8546 40.4577 44.3989 40.4577 43.8074V43.6233C40.4577 42.9968 40.6505 42.5345 41.0361 42.2366C41.4216 41.9342 42.0329 41.7261 42.8697 41.6122L44.6968 41.3625L44.7954 42.4469L43.1129 42.6901C42.7449 42.7383 42.482 42.8259 42.3242 42.953C42.1709 43.08 42.0942 43.2662 42.0942 43.5116V43.5773C42.0942 43.8183 42.1687 44.0067 42.3177 44.1426C42.471 44.274 42.7098 44.3397 43.034 44.3397C43.3232 44.3397 43.5708 44.2937 43.7767 44.2017C43.9827 44.1097 44.1513 43.9892 44.2828 43.8402C44.4186 43.6869 44.515 43.516 44.572 43.3276L44.8086 44.1623H44.5194C44.4493 44.4383 44.3354 44.6903 44.1776 44.9181C44.0243 45.1416 43.8074 45.3212 43.527 45.457C43.2466 45.5885 42.8785 45.6542 42.4228 45.6542Z" fill="white"/>
<path d="M52.532 43.5248C51.5549 43.5248 50.8144 43.332 50.3106 42.9464C49.8067 42.5564 49.5547 42.0109 49.5547 41.3099V41.2113C49.5547 40.7468 49.6555 40.3525 49.8571 40.0283C50.0586 39.6996 50.3741 39.4433 50.8035 39.2593C51.2329 39.0753 51.7893 38.9701 52.4729 38.9438L55.8708 38.8058V40.0414L54.1225 39.9757V40.048C54.3986 40.1049 54.6264 40.197 54.806 40.324C54.9901 40.4467 55.1281 40.6066 55.2201 40.8038C55.3121 40.9966 55.3581 41.231 55.3581 41.507V41.5662C55.3581 42.2015 55.1237 42.6879 54.6549 43.0253C54.1861 43.3583 53.4784 43.5248 52.532 43.5248ZM52.4531 46.7321H52.6372C52.9789 46.7321 53.2615 46.708 53.485 46.6598C53.7085 46.6159 53.875 46.5458 53.9845 46.4494C54.0984 46.3574 54.1554 46.2369 54.1554 46.088V46.0683C54.1554 45.8842 54.0831 45.7484 53.9385 45.6608C53.7983 45.5775 53.5704 45.5206 53.255 45.4899L51.3687 45.3059L51.7565 45.2861C51.5944 45.3168 51.4498 45.3628 51.3227 45.4242C51.2 45.4811 51.1036 45.5578 51.0335 45.6542C50.9634 45.7506 50.9284 45.8689 50.9284 46.0091V46.0222C50.9284 46.1844 50.9853 46.318 51.0992 46.4232C51.2132 46.5327 51.384 46.6116 51.6119 46.6598C51.8397 46.708 52.1201 46.7321 52.4531 46.7321ZM52.3611 48.0005C51.7389 48.0005 51.2066 47.9479 50.7641 47.8428C50.3215 47.742 49.9819 47.5799 49.7453 47.3564C49.5131 47.133 49.397 46.8372 49.397 46.4692V46.4429C49.397 46.1931 49.4518 45.9828 49.5613 45.8119C49.6709 45.641 49.8264 45.5052 50.0279 45.4044C50.2295 45.3037 50.4617 45.2401 50.7246 45.2138V45.1481C50.3916 45.0824 50.1397 44.9751 49.9688 44.8261C49.8023 44.6727 49.719 44.4646 49.719 44.2017V44.1951C49.719 44.0111 49.7607 43.8556 49.8439 43.7285C49.9272 43.6014 50.0499 43.5007 50.212 43.4262C50.3785 43.3517 50.5822 43.3079 50.8232 43.2947V43.1041L52.2494 43.459L51.7893 43.4459C51.5878 43.4503 51.4476 43.4787 51.3687 43.5313C51.2898 43.5795 51.2504 43.6496 51.2504 43.7416V43.7482C51.2504 43.8621 51.3117 43.9454 51.4344 43.998C51.5571 44.0462 51.7609 44.0878 52.0457 44.1228L53.5902 44.2937C54.3131 44.377 54.8455 44.5544 55.1872 44.8261C55.5334 45.0977 55.7065 45.5162 55.7065 46.0814V46.1143C55.7065 46.548 55.5838 46.9029 55.3384 47.179C55.093 47.4594 54.7381 47.6653 54.2737 47.7968C53.8136 47.9326 53.255 48.0005 52.5977 48.0005H52.3611ZM52.486 42.3549C52.7796 42.3549 53.0227 42.3133 53.2155 42.23C53.4127 42.1468 53.5595 42.0241 53.6559 41.862C53.7567 41.6998 53.807 41.5027 53.807 41.2704V41.1981C53.807 40.9659 53.7589 40.7709 53.6625 40.6132C53.5661 40.4511 53.4215 40.3306 53.2287 40.2517C53.0359 40.1685 52.7927 40.1269 52.4992 40.1269H52.4794C52.1683 40.1269 51.9142 40.1707 51.717 40.2583C51.5199 40.3415 51.3753 40.4642 51.2833 40.6263C51.1913 40.7841 51.1452 40.9747 51.1452 41.1981V41.2704C51.1452 41.5027 51.1934 41.6998 51.2898 41.862C51.3906 42.0241 51.5396 42.1468 51.7368 42.23C51.9383 42.3133 52.1881 42.3549 52.486 42.3549Z" fill="white"/>
<path d="M59.414 45.6805C58.415 45.6805 57.657 45.4242 57.1399 44.9115C56.6273 44.3989 56.371 43.6693 56.371 42.7229V41.8488C56.371 40.898 56.6273 40.1663 57.1399 39.6536C57.657 39.1366 58.415 38.8781 59.414 38.8781C60.4086 38.8781 61.1622 39.1366 61.6749 39.6536C62.1875 40.1663 62.4438 40.898 62.4438 41.8488V42.7229C62.4438 43.6693 62.1875 44.3989 61.6749 44.9115C61.1666 45.4242 60.413 45.6805 59.414 45.6805ZM59.414 44.3332C59.8521 44.3332 60.1851 44.2017 60.413 43.9388C60.6452 43.6759 60.7613 43.2991 60.7613 42.8084V41.7634C60.7613 41.2639 60.6452 40.8827 60.413 40.6198C60.1851 40.3525 59.8521 40.2189 59.414 40.2189C58.9714 40.2189 58.6341 40.3525 58.4018 40.6198C58.174 40.8827 58.0601 41.2639 58.0601 41.7634V42.8084C58.0601 43.2991 58.174 43.6759 58.4018 43.9388C58.6341 44.2017 58.9714 44.3332 59.414 44.3332Z" fill="white"/>
<path d="M66.4741 45.6805C65.4751 45.6805 64.7171 45.4242 64.2001 44.9115C63.6874 44.3989 63.4311 43.6693 63.4311 42.7229V41.8488C63.4311 40.898 63.6874 40.1663 64.2001 39.6536C64.7171 39.1366 65.4751 38.8781 66.4741 38.8781C67.4687 38.8781 68.2224 39.1366 68.735 39.6536C69.2476 40.1663 69.504 40.898 69.504 41.8488V42.7229C69.504 43.6693 69.2476 44.3989 68.735 44.9115C68.2267 45.4242 67.4731 45.6805 66.4741 45.6805ZM66.4741 44.3332C66.9123 44.3332 67.2453 44.2017 67.4731 43.9388C67.7053 43.6759 67.8214 43.2991 67.8214 42.8084V41.7634C67.8214 41.2639 67.7053 40.8827 67.4731 40.6198C67.2453 40.3525 66.9123 40.2189 66.4741 40.2189C66.0316 40.2189 65.6942 40.3525 65.462 40.6198C65.2341 40.8827 65.1202 41.2639 65.1202 41.7634V42.8084C65.1202 43.2991 65.2341 43.6759 65.462 43.9388C65.6942 44.2017 66.0316 44.3332 66.4741 44.3332Z" fill="white"/>
<path d="M72.8244 45.6542C72.0664 45.6542 71.4903 45.4088 71.0959 44.9181C70.7016 44.4274 70.5044 43.7044 70.5044 42.7492V41.862C70.5044 40.8936 70.7038 40.1597 71.1025 39.6602C71.5012 39.1607 72.0949 38.911 72.8836 38.911C73.2692 38.911 73.5934 38.9723 73.8563 39.095C74.1236 39.2177 74.3383 39.3929 74.5004 39.6208C74.6669 39.8486 74.783 40.1159 74.8487 40.4226H75.3416L74.9144 41.6714C74.9057 41.369 74.8421 41.1149 74.7238 40.909C74.6099 40.6986 74.45 40.5387 74.2441 40.4292C74.0381 40.3196 73.795 40.2649 73.5145 40.2649C73.0895 40.2649 72.7631 40.3876 72.5353 40.6329C72.3118 40.8783 72.2001 41.2441 72.2001 41.7305V42.7952C72.2001 43.2772 72.3118 43.6409 72.5353 43.8862C72.7631 44.1316 73.0939 44.2543 73.5277 44.2543C73.773 44.2543 73.9921 44.2083 74.1849 44.1163C74.3777 44.0243 74.5376 43.8994 74.6647 43.7416C74.7961 43.5795 74.8903 43.3977 74.9473 43.1961L75.3482 44.136H74.875C74.8049 44.4164 74.691 44.6727 74.5332 44.9049C74.3755 45.1328 74.1586 45.3146 73.8826 45.4505C73.6065 45.5863 73.2538 45.6542 72.8244 45.6542ZM74.8882 45.503L74.9473 43.9257L74.9144 43.551V40.9155L74.921 40.6461L74.8882 38.7992V36.8144H76.5707V45.503H74.8882Z" fill="white"/>
<path d="M84.4589 45.503V41.6319C84.4589 41.3603 84.4217 41.1258 84.3472 40.9287C84.2771 40.7315 84.1588 40.5782 83.9923 40.4686C83.8258 40.3591 83.598 40.3043 83.3088 40.3043C83.0546 40.3043 82.8334 40.3503 82.645 40.4423C82.4566 40.5343 82.301 40.6592 82.1783 40.8169C82.06 40.9703 81.9724 41.1456 81.9154 41.3427L81.5737 40.4226H81.9746C82.0491 40.1378 82.1674 39.8815 82.3295 39.6536C82.4916 39.4258 82.7129 39.2462 82.9933 39.1147C83.2737 38.9789 83.6221 38.911 84.0383 38.911C84.5334 38.911 84.9343 39.0052 85.241 39.1936C85.5477 39.3776 85.7734 39.6536 85.918 40.0217C86.067 40.3897 86.1415 40.8454 86.1415 41.3887V45.503H84.4589ZM80.2592 45.503V36.8144H81.9352V38.7992L81.9023 40.8038L81.9417 40.9287V45.503H80.2592Z" fill="white"/>
<path d="M91.2835 45.503L91.3426 43.9257L91.2966 43.7811V41.7634L91.2901 41.4742C91.2901 41.0536 91.174 40.7447 90.9417 40.5475C90.7139 40.3503 90.3393 40.2517 89.8179 40.2517C89.3753 40.2517 88.9591 40.3109 88.5691 40.4292C88.1835 40.5431 87.8264 40.6767 87.4978 40.8301L87.6424 39.4893C87.8352 39.3886 88.0543 39.2944 88.2996 39.2067C88.5494 39.1147 88.8276 39.0402 89.1343 38.9833C89.441 38.9263 89.7719 38.8978 90.1268 38.8978C90.6525 38.8978 91.0973 38.9614 91.4609 39.0884C91.8246 39.2111 92.1138 39.3886 92.3285 39.6208C92.5476 39.853 92.7053 40.1312 92.8017 40.4555C92.8981 40.7753 92.9463 41.1302 92.9463 41.5202V45.503H91.2835ZM89.1738 45.6542C88.5341 45.6542 88.0455 45.4943 87.7081 45.1744C87.3751 44.8546 87.2086 44.3989 87.2086 43.8074V43.6233C87.2086 42.9968 87.4014 42.5345 87.787 42.2366C88.1726 41.9342 88.7838 41.7261 89.6207 41.6122L91.4478 41.3625L91.5464 42.4469L89.8639 42.6901C89.4958 42.7383 89.2329 42.8259 89.0752 42.953C88.9218 43.08 88.8451 43.2662 88.8451 43.5116V43.5773C88.8451 43.8183 88.9196 44.0067 89.0686 44.1426C89.222 44.274 89.4608 44.3397 89.785 44.3397C90.0742 44.3397 90.3217 44.2937 90.5277 44.2017C90.7336 44.1097 90.9023 43.9892 91.0337 43.8402C91.1696 43.6869 91.266 43.516 91.3229 43.3276L91.5595 44.1623H91.2703C91.2002 44.4383 91.0863 44.6903 90.9286 44.9181C90.7752 45.1416 90.5583 45.3212 90.2779 45.457C89.9975 45.5885 89.6294 45.6542 89.1738 45.6542Z" fill="white"/>
<path d="M98.0087 45.6542C97.6231 45.6542 97.2945 45.5929 97.0228 45.4702C96.7555 45.3431 96.5386 45.1657 96.3721 44.9378C96.21 44.71 96.0939 44.4427 96.0238 44.136H95.544L95.9778 42.8478C95.9909 43.1545 96.0567 43.413 96.175 43.6233C96.2933 43.8337 96.4576 43.9914 96.6679 44.0965C96.8782 44.2017 97.1214 44.2543 97.3974 44.2543C97.8224 44.2543 98.1445 44.1316 98.3636 43.8862C98.5826 43.6365 98.6922 43.2641 98.6922 42.7689V41.7239C98.6922 41.242 98.5826 40.8783 98.3636 40.6329C98.1445 40.3876 97.8224 40.2649 97.3974 40.2649C97.1477 40.2649 96.9242 40.3131 96.727 40.4095C96.5299 40.5015 96.3656 40.6263 96.2341 40.7841C96.1027 40.9418 96.0085 41.1237 95.9515 41.3296L95.5703 40.4226H96.0435C96.1136 40.1422 96.2253 39.8881 96.3787 39.6602C96.5321 39.428 96.7446 39.2462 97.0162 39.1147C97.2923 38.9789 97.6428 38.911 98.0678 38.911C98.8258 38.911 99.402 39.1563 99.7963 39.6471C100.191 40.1334 100.388 40.8542 100.388 41.8094V42.7032C100.388 43.6672 100.188 44.4011 99.7898 44.9049C99.391 45.4044 98.7973 45.6542 98.0087 45.6542ZM94.3281 45.503V36.8144H96.0041V38.7992L95.9712 40.7644L95.9778 40.9681V43.5248L95.9515 43.9257L96.0107 45.503H94.3281Z" fill="white"/>
<path d="M101.645 45.503V39.0556H103.328V45.503H101.645ZM102.487 38.2932C102.167 38.2932 101.93 38.2187 101.777 38.0697C101.628 37.9164 101.553 37.706 101.553 37.4388V37.4059C101.553 37.1386 101.628 36.9283 101.777 36.775C101.93 36.6216 102.167 36.5449 102.487 36.5449C102.802 36.5449 103.036 36.6216 103.19 36.775C103.343 36.9283 103.42 37.1386 103.42 37.4059V37.4388C103.42 37.7104 103.343 37.9207 103.19 38.0697C103.036 38.2187 102.802 38.2932 102.487 38.2932Z" fill="white"/>
<path d="M107.3 45.6411C106.753 45.6411 106.314 45.56 105.986 45.3979C105.662 45.2314 105.427 44.9816 105.283 44.6486C105.138 44.3156 105.066 43.906 105.066 43.4196V39.6602H106.735V43.1698C106.735 43.5204 106.814 43.7789 106.972 43.9454C107.134 44.1075 107.416 44.1886 107.82 44.1886C108.056 44.1886 108.284 44.1645 108.503 44.1163C108.722 44.0637 108.924 43.9958 109.108 43.9125L108.963 45.319C108.744 45.4198 108.492 45.4986 108.207 45.5556C107.927 45.6126 107.625 45.6411 107.3 45.6411ZM104.132 40.4358V39.1081H109.049L108.904 40.4358H104.132ZM105.085 39.233L105.079 37.5242L106.755 37.3533L106.689 39.233H105.085Z" fill="white"/>
</svg>
