<svg width="76" height="31" viewBox="0 0 76 31" fill="none" xmlns="http://www.w3.org/2000/svg">
<path d="M9.06456 6.43555C11.576 6.43555 13.6949 7.33808 15.4608 9.1039C17.2266 10.8697 18.1291 13.028 18.1291 15.5001C18.1291 18.0115 17.2266 20.1305 15.4608 21.8963C13.6949 23.6621 11.5367 24.5647 9.06456 24.5647C6.55317 24.5647 4.43418 23.6621 2.66836 21.8963C0.902532 20.1305 0 18.0115 0 15.5001C0 12.9887 0.902532 10.8697 2.66836 9.1039C4.43418 7.33808 6.55317 6.43555 9.06456 6.43555ZM9.06456 10.3204C7.61266 10.3204 6.39621 10.8305 5.37595 11.8507C4.3557 12.871 3.88481 14.0874 3.88481 15.5393C3.88481 16.9912 4.39494 18.2077 5.37595 19.228C6.39621 20.2482 7.61266 20.7583 9.06456 20.7583C10.5165 20.7583 11.7329 20.2482 12.7532 19.228C13.7734 18.2077 14.2835 16.9912 14.2835 15.5393C14.2835 14.0874 13.7734 12.871 12.7532 11.8507C11.7329 10.8305 10.4772 10.3204 9.06456 10.3204Z" fill="white"/>
<path d="M20.9148 31.0001C20.4047 31.0001 19.973 30.8039 19.5806 30.4507C19.1882 30.0976 19.0312 29.6267 19.0312 29.1166V15.4609C19.0312 12.9495 19.9338 10.8305 21.6996 9.06466C23.4654 7.29884 25.5844 6.43555 28.0958 6.43555C30.6072 6.43555 32.7262 7.33808 34.492 9.1039C36.2578 10.8697 37.1604 13.028 37.1604 15.5001C37.1604 18.0115 36.2578 20.1305 34.492 21.8963C32.7262 23.6621 30.568 24.5647 28.0958 24.5647C25.8199 24.5647 24.0933 24.0545 22.8768 22.995V29.1166C22.8768 29.6267 22.6806 30.0583 22.3275 30.4507C21.9743 30.8432 21.5034 31.0001 20.9933 31.0001H20.9148ZM31.7452 19.1495C32.7654 18.1292 33.2756 16.9128 33.2756 15.4609C33.2756 14.009 32.7654 12.7925 31.7452 11.7723C30.7249 10.752 29.5085 10.2811 28.0566 10.2811C26.6047 10.2811 25.3882 10.7912 24.368 11.7723C23.3477 12.7925 22.8768 14.009 22.8768 15.4609C22.8768 16.9128 23.3869 18.1292 24.368 19.1495C25.3882 20.1697 26.6047 20.6799 28.0566 20.6799C29.4692 20.6799 30.7249 20.1697 31.7452 19.1495Z" fill="white"/>
<path d="M73.3003 0C73.8104 0 74.242 0.196203 74.6344 0.549367C75.0268 0.941773 75.1838 1.37342 75.1838 1.88355V15.5392C75.1838 18.0506 74.2813 20.1696 72.5155 21.8962C70.7496 23.662 68.6306 24.5253 66.1192 24.5253C63.6079 24.5253 61.4889 23.6228 59.723 21.857C57.9572 20.0911 57.0547 17.9722 57.0547 15.4608C57.0547 12.9494 57.9572 10.8304 59.723 9.06456C61.4889 7.29874 63.6079 6.39621 66.1192 6.39621C68.3952 6.39621 70.1218 6.90633 71.3382 7.96583V1.88355C71.3382 1.37342 71.5344 0.902532 71.8876 0.549367C72.28 0.196203 72.7117 0 73.2218 0H73.3003ZM62.4306 11.8506C61.4104 12.8709 60.9395 14.0873 60.9395 15.5392C60.9395 16.9911 61.4496 18.2076 62.4306 19.2279C63.4509 20.2481 64.6673 20.7582 66.1192 20.7582C67.5711 20.7582 68.7876 20.2481 69.8079 19.2279C70.8281 18.2076 71.3382 16.9911 71.3382 15.5392C71.3382 14.0873 70.8281 12.8709 69.8079 11.8506C68.7876 10.8304 67.5711 10.3203 66.1192 10.3203C64.6673 10.3203 63.4509 10.8304 62.4306 11.8506Z" fill="white"/>
<path d="M56.1135 15.5001C56.1135 18.0115 55.211 20.1305 53.4451 21.8963C52.7388 22.6026 51.9932 23.152 51.1692 23.5837C51.1692 21.9748 51.1692 20.209 51.1692 18.8748C51.1692 17.5014 50.973 16.1672 50.5806 14.99C49.7958 12.714 48.1869 11.1444 45.754 11.0267C45.6755 11.0267 45.597 11.0267 45.5186 11.0267C44.616 11.0267 43.9489 11.6153 43.5565 12.4786C42.8894 13.852 42.9287 15.9318 43.5958 17.2267C43.9882 17.9723 44.5768 18.4824 45.4008 18.5216C45.4401 18.5216 45.4793 18.5216 45.4793 18.5216C45.911 18.5216 46.3818 18.4824 46.892 18.3647C47.2451 18.2862 47.5591 18.3647 47.7945 18.5609C48.1084 18.7571 48.3046 19.1102 48.3046 19.5419V24.4862C47.873 24.5254 47.4806 24.5647 47.0489 24.5647C44.5375 24.5647 42.4186 23.6621 40.6527 21.8963C38.8869 20.1305 37.9844 18.0115 37.9844 15.5001C37.9844 12.9887 38.8869 10.8697 40.6527 9.1039C42.4186 7.33808 44.5375 6.43555 47.0489 6.43555C49.5603 6.43555 51.6793 7.33808 53.4451 9.1039C55.211 10.909 56.1135 13.028 56.1135 15.5001Z" fill="white"/>
<path d="M44.6612 17.3547C44.622 17.3939 44.5435 17.3939 44.465 17.3939C44.2688 17.3939 44.1119 17.2762 44.0334 17.08C43.8372 16.5699 43.6802 16.0205 43.641 15.4319C43.5625 14.804 43.641 14.137 43.7587 13.5091C43.8372 13.2344 44.0726 13.0775 44.3473 13.1559C44.622 13.2344 44.7789 13.4699 44.7005 13.7446C44.5827 14.2939 44.5435 14.804 44.5827 15.3534C44.622 15.8243 44.7397 16.2952 44.9359 16.7268C45.0536 17.0015 44.9359 17.2762 44.6612 17.3547Z" fill="#EAB611"/>
</svg>
