<svg width="67" height="68" viewBox="0 0 67 68" fill="none" xmlns="http://www.w3.org/2000/svg">
<path d="M33.1462 0.685547C42.2877 0.685547 50.0868 3.95919 56.5754 10.4423C63.064 16.9254 66.2923 24.7886 66.2923 33.9676C66.2923 43.1466 63.0321 50.9777 56.5754 57.4929C50.1188 64.0081 42.2877 67.2496 33.1462 67.2496C24.0046 67.2496 16.2055 63.976 9.74887 57.4929C3.29224 51.0098 0 43.1466 0 33.9676C0 24.7886 3.26028 16.9575 9.74887 10.4423C16.2375 3.92709 24.0366 0.685547 33.1462 0.685547ZM33.1462 14.9676C30.637 14.9505 28.1495 15.4347 25.8284 16.3919C23.5074 17.3491 21.3991 18.7604 19.6263 20.5434C17.8535 22.3265 16.4516 24.4458 15.5021 26.7779C14.5527 29.1101 14.0747 31.6086 14.0959 34.1281C14.0789 36.6448 14.5601 39.1398 15.5114 41.4683C16.4628 43.7968 17.8653 45.9122 19.6377 47.6919C21.4101 49.4715 23.5169 50.8799 25.8359 51.8351C28.1549 52.7904 30.6397 53.2735 33.1462 53.2564C38.1986 53.2564 43.0441 51.2411 46.6167 47.6538C50.1894 44.0666 52.1964 39.2012 52.1964 34.1281C52.2006 31.6134 51.711 29.1226 50.7555 26.7981C49.8 24.4736 48.3975 22.3612 46.6281 20.5815C44.8587 18.8019 42.7572 17.39 40.4438 16.4267C38.1304 15.4634 35.6506 14.9676 33.1462 14.9676Z" fill="white"/>
</svg>
