<svg width="67" height="67" viewBox="0 0 67 67" fill="none" xmlns="http://www.w3.org/2000/svg">
<path d="M33.1556 0.5C42.2998 0.5 50.1011 3.74793 56.5915 10.1801C63.082 16.6123 66.3112 24.4137 66.3112 33.5206C66.3112 42.6276 63.05 50.3971 56.5915 56.8611C50.133 63.3251 42.2998 66.5412 33.1556 66.5412C24.0114 66.5412 16.2101 63.2933 9.75164 56.8611C3.29318 50.429 0 42.6276 0 33.5206C0 24.4137 3.26121 16.6441 9.75164 10.1801C16.2421 3.71609 24.0434 0.5 33.1556 0.5ZM33.1556 14.6699C30.6457 14.6529 28.1575 15.1333 25.8358 16.083C23.514 17.0327 21.4052 18.4328 19.6318 20.2019C17.8585 21.9709 16.4562 24.0736 15.5065 26.3874C14.5568 28.7013 14.0787 31.1802 14.0999 33.6798C14.0829 36.1768 14.5642 38.6522 15.5158 40.9624C16.4674 43.2726 17.8704 45.3715 19.6433 47.1371C21.4162 48.9028 23.5236 50.3 25.8432 51.2478C28.1629 52.1955 30.6484 52.6749 33.1556 52.6579C38.2095 52.6579 43.0564 50.6585 46.63 47.0994C50.2036 43.5403 52.2113 38.7131 52.2113 33.6798C52.2155 31.1849 51.7257 28.7137 50.7699 26.4074C49.8142 24.1012 48.4112 22.0054 46.6413 20.2397C44.8714 18.474 42.7693 17.0733 40.4553 16.1176C38.1413 15.1618 35.6607 14.6699 33.1556 14.6699Z" fill="white" fill-opacity="0.3"/>
</svg>
