<svg width="240" height="210" viewBox="0 0 240 210" fill="none" xmlns="http://www.w3.org/2000/svg">
<g clip-path="url(#clip0_1928_2927)">
<rect x="8.25" width="206.25" height="206.25" rx="103.125" fill="#EAD2EE"/>
</g>
<path d="M77.5374 192.897C77.5374 192.897 70.567 197.64 67.7589 197.324C67.4505 197.308 67.1577 197.183 66.9323 196.972C65.1032 195.084 63.6318 191.766 63.6318 191.766C63.6318 191.766 64.5053 190.558 67.1961 193.765L68.9021 192.2L65.3846 188.647C65.3846 188.647 67.372 187.07 70.7488 189.081C70.6315 188.835 68.4565 184.098 70.098 177.649L61.8906 169.729L69.1718 163.386L69.758 162.894C69.758 162.894 70.2153 163.345 70.9305 164.066C71.6457 164.787 72.6365 165.655 73.7093 166.599C76.277 168.856 79.3841 171.289 80.7442 171.289C83.1947 171.206 77.5374 192.897 77.5374 192.897Z" fill="white"/>
<mask id="mask0_1928_2927" style="mask-type:luminance" maskUnits="userSpaceOnUse" x="61" y="162" width="21" height="36">
<path d="M77.5374 192.897C77.5374 192.897 70.567 197.64 67.7589 197.324C67.4505 197.308 67.1577 197.183 66.9323 196.972C65.1032 195.084 63.6318 191.766 63.6318 191.766C63.6318 191.766 64.5053 190.558 67.1961 193.765L68.9021 192.2L65.3846 188.647C65.3846 188.647 67.372 187.07 70.7488 189.081C70.6315 188.835 68.4565 184.098 70.098 177.649L61.8906 169.729L69.1718 163.386L69.758 162.894C69.758 162.894 70.2153 163.345 70.9305 164.066C71.6457 164.787 72.6365 165.655 73.7093 166.599C76.277 168.856 79.3841 171.289 80.7442 171.289C83.1947 171.206 77.5374 192.897 77.5374 192.897Z" fill="white"/>
</mask>
<g mask="url(#mask0_1928_2927)">
<path opacity="0.4" d="M72.1499 189.79C72.1499 189.79 68.1751 193.894 67.7589 197.323C67.4505 197.307 67.1577 197.183 66.9323 196.972C65.1032 195.084 63.6318 191.766 63.6318 191.766C63.6318 191.766 64.5053 190.558 67.1961 193.765L68.9021 192.2L65.3846 188.647C65.3846 188.647 67.372 187.07 70.7488 189.081C70.6315 188.835 68.4565 184.098 70.098 177.649L61.8906 169.729L69.1718 163.386L70.9305 164.048C71.6516 164.728 72.6365 165.637 73.7093 166.581C72.1675 168.838 68.8669 173.51 68.8669 173.51L71.7219 177.379C71.7219 177.379 69.9632 187.134 72.1499 189.79Z" fill="#FBD362"/>
</g>
<path d="M77.5374 192.897C77.5374 192.897 70.567 197.64 67.7589 197.324C67.4505 197.308 67.1577 197.183 66.9323 196.972C65.1032 195.084 63.6318 191.766 63.6318 191.766C63.6318 191.766 64.5053 190.558 67.1961 193.765L68.9021 192.2L65.3846 188.647C65.3846 188.647 67.372 187.07 70.7488 189.081C70.6315 188.835 68.4565 184.098 70.098 177.649L61.8906 169.729L69.1718 163.386L69.758 162.894C69.758 162.894 70.2153 163.345 70.9305 164.066C71.6457 164.787 72.6365 165.655 73.7093 166.599C76.277 168.856 79.3841 171.289 80.7442 171.289C83.1947 171.206 77.5374 192.897 77.5374 192.897Z" stroke="#263238" stroke-width="0.75" stroke-linecap="round" stroke-linejoin="round"/>
<path d="M68.9219 192.2C69.3083 191.045 69.9335 189.984 70.7568 189.087" stroke="#263238" stroke-width="0.75" stroke-linecap="round" stroke-linejoin="round"/>
<path d="M198.952 137.685C197.852 139.29 196.523 140.724 195.007 141.942C182.192 152.553 152.645 157.77 152.645 157.77C152.645 157.77 151.654 159.253 150.13 161.364C147.398 165.157 142.925 170.984 139.279 173.903C137.737 175.14 136.347 175.856 135.286 175.662L140.832 196.14L142.169 201.75C142.169 201.75 110.629 213 75.2315 200.25C75.2315 200.25 73.7601 197.746 74.1294 196.532C74.1294 196.474 74.1646 196.415 74.188 196.351C74.6317 195.543 75.2107 194.817 75.8998 194.205C75.8998 194.205 75.6536 190.547 75.5305 186.824C75.3899 184.451 75.4193 182.071 75.6185 179.701C75.9292 177.825 77.301 173.288 77.9927 171.06L78.3972 169.765L76.2281 149.457L75.6067 143.595L75.5715 143.29C75.5715 143.249 75.5715 143.202 75.5715 143.143L75.2315 140.007L64.0226 143.431C64.0226 143.431 64.6088 144.744 65.4178 146.585C66.8893 149.955 69.0525 155.085 69.5215 157.137C69.5567 157.304 69.6038 157.469 69.6622 157.629C70.6999 160.59 74.6511 163.281 74.6511 163.281L64.0343 175.686L60.8979 173.493C60.4964 173.79 60.0731 174.057 59.6316 174.29C57.568 175.41 53.2416 177.057 48.493 174.543C46.4353 173.386 44.6484 171.803 43.252 169.899C34.9273 159.089 31.3044 150.243 32.4827 139.884C33.6611 129.525 80.2791 97.5571 89.53 97.8913L103.289 100.928C103.588 100.682 104.391 100.049 105.013 100.078C107.516 100.207 107.58 103.115 107.58 103.115L138.417 108.121C138.417 108.121 141.612 106.521 142.169 106.544C142.571 106.571 142.961 106.699 143.302 106.915C143.643 107.131 143.924 107.429 144.121 107.781C144.121 107.781 152.106 102.997 154.673 104.111C163.127 107.758 205.196 128.2 198.952 137.685Z" fill="#FBD362"/>
<path opacity="0.2" d="M91.8178 188.347C88.3137 192.199 83.6087 194.751 78.469 195.588C76.8451 195.846 75.4206 196.103 74.1719 196.361C74.6155 195.554 75.1945 194.828 75.8837 194.216C75.8837 194.216 75.6375 190.558 75.5144 186.835C79.1315 189.221 85.4395 191.976 91.8178 188.347Z" fill="black"/>
<path opacity="0.2" d="M77.9755 171.089L78.38 169.794L76.2109 149.486C79.4529 154.135 91.0136 169.97 98.9806 171.681C107.311 173.464 85.0398 176.624 77.9755 171.089Z" fill="black"/>
<path opacity="0.2" d="M140.82 196.169C132.114 195.178 119.809 192.986 118.578 188.43C116.661 181.313 125.988 177.046 139.278 173.933C137.736 175.17 136.347 175.885 135.286 175.691L140.82 196.169Z" fill="black"/>
<path opacity="0.2" d="M194.999 141.947C182.184 152.558 152.638 157.776 152.638 157.776C152.638 157.776 151.647 159.259 150.123 161.369C145.776 150.99 145.112 139.436 148.241 128.628C148.241 128.628 150.515 140.939 159.966 143.87C159.966 143.87 152.731 138.482 155.276 125.515C155.276 125.515 157.744 140.757 173.801 144.99C181.592 147.083 189.219 144.808 194.999 141.947Z" fill="black"/>
<path opacity="0.2" d="M75.5487 143.331L75.197 140.048L63.988 143.472C63.988 143.472 64.5743 144.785 65.3833 146.626C61.0979 146.186 52.9667 150.143 51.548 145.828C49.8361 140.599 60.3416 142.399 60.3416 142.399L70.2726 136.624C68.3966 128.593 73.1745 122.554 73.1745 122.554L74.0831 128.159C74.517 117.507 78.6851 111.68 78.6851 111.68C75.238 120.104 75.3318 140.863 75.5487 143.331Z" fill="black"/>
<path opacity="0.2" d="M74.6425 163.299L64.0257 175.703L60.8893 173.511C60.4877 173.808 60.0645 174.075 59.623 174.308C57.5594 175.428 53.2329 177.075 48.4844 174.56C51.9256 169.8 59.0367 162.794 67.4845 160.092C65.4107 163.178 63.5424 166.398 61.8917 169.73L64.0726 171.875C64.0726 171.875 69.5129 165.673 74.6425 163.299Z" fill="black"/>
<path opacity="0.2" d="M100.417 108.66C100.417 109.756 99.7254 122.144 108.754 125.444C117.782 128.745 125.79 123.164 125.79 123.164C125.79 123.164 111.949 136.518 103.513 129.378C95.0765 122.238 100.417 108.66 100.417 108.66Z" fill="black"/>
<path d="M74.2361 199.875C74.2361 199.875 73.7495 197.769 74.113 196.562C74.4179 195.542 75.8717 194.217 75.8717 194.217C75.8717 194.217 75.1038 182.691 75.5962 179.719C76.0183 177.169 78.375 169.753 78.375 169.753L75.1976 140.007L63.9886 143.436C63.9886 143.436 68.7606 153.989 69.4993 157.119C70.2379 160.25 74.6348 163.257 74.6348 163.257L64.0179 175.656L60.8815 173.47C60.8815 173.47 51.6189 180.716 43.2532 169.882C34.8875 159.048 31.2938 150.225 32.4663 139.837C33.6388 129.449 80.2744 97.516 89.5253 97.8443L103.284 100.887C103.578 100.641 104.387 100.008 105.002 100.037C107.505 100.166 107.57 103.074 107.57 103.074L138.406 108.08C138.406 108.08 141.607 106.48 142.164 106.503C142.566 106.531 142.954 106.659 143.294 106.875C143.634 107.091 143.914 107.388 144.11 107.74C144.11 107.74 152.095 102.962 154.663 104.07C163.105 107.717 205.168 128.159 198.93 137.644C190.072 151.128 152.617 157.758 152.617 157.758C152.617 157.758 140.159 176.518 135.252 175.65L142.5 201.75" stroke="#263238" stroke-width="0.75" stroke-linecap="round" stroke-linejoin="round"/>
<path d="M166.36 139.743C180.511 149.087 191.92 147.364 200.848 135.334C200.848 135.334 208.282 125.749 207.754 115.402C207.227 105.055 204.758 71.3456 172.544 79.9634C167.239 81.3821 154.863 97.9552 153.826 102.51C153.345 104.591 148.379 115.185 143.555 126.153" fill="#FBD362"/>
<path d="M166.36 139.743C180.511 149.087 191.92 147.364 200.848 135.334C200.848 135.334 208.282 125.749 207.754 115.402C207.227 105.055 204.758 71.3456 172.544 79.9634C167.239 81.3821 154.863 97.9552 153.826 102.51C153.345 104.591 148.379 115.185 143.555 126.153" stroke="#263238" stroke-width="0.75" stroke-linecap="round" stroke-linejoin="round"/>
<path d="M128.074 40.7087C128.074 40.7087 137.09 39.3427 143.351 44.9472C151.271 52.0349 160.165 71.1464 147.502 102.815C147.502 102.815 128.795 90.3986 96.868 98.7115C96.868 98.7115 99.6175 91.2838 94.7927 67.8986C92.6119 57.3169 98.0991 32.941 128.074 40.7087Z" fill="#263238"/>
<path d="M114.401 120.18C127.744 122.343 141.919 107.569 141.919 107.569C141.919 107.569 134.667 106.678 134.017 103.272C131.935 92.5265 140.307 79.2363 140.307 79.2363C140.307 79.2363 107.911 80.1333 113.574 87.4437C114.628 88.7813 115.49 90.2591 116.136 91.8347C118.1 96.6595 116.722 100.3 115.697 101.215C115.622 101.275 115.542 101.328 115.456 101.373C113.498 102.264 105.449 100.933 105.449 100.933C105.449 100.933 102.225 118.204 114.401 120.18Z" fill="white" stroke="#263238" stroke-width="0.75" stroke-linecap="round" stroke-linejoin="round"/>
<path d="M137.332 111.662C137.332 111.662 131.177 114.124 122.166 113.392L118.109 115.379" stroke="#263238" stroke-width="0.75" stroke-linecap="round" stroke-linejoin="round"/>
<path d="M114.061 115.068L113.768 112.406C113.768 112.406 107.12 110.325 105.062 106.374" stroke="#263238" stroke-width="0.75" stroke-linecap="round" stroke-linejoin="round"/>
<path d="M115.703 101.232C125.622 103.823 130.283 91.1017 130.283 91.1017C130.283 91.1017 122.345 88.7568 116.143 91.8756C118.107 96.7004 116.747 100.341 115.703 101.232Z" fill="#263238"/>
<path d="M140.885 72.5593C143.294 59.0112 140.615 42.7547 119.991 44.103C105.259 45.0645 105.382 61.2155 106.355 66.0403C107.997 74.148 105.646 77.3371 108.173 84.1493C109.99 89.0444 114.205 94.5199 119.171 96.5718C122.225 97.8322 134.589 89.1558 135.503 85.1869" fill="white"/>
<path d="M140.885 72.5593C143.294 59.0112 140.615 42.7547 119.991 44.103C105.259 45.0645 105.382 61.2155 106.355 66.0403C107.997 74.148 105.646 77.3371 108.173 84.1493C109.99 89.0444 114.205 94.5199 119.171 96.5718C122.225 97.8322 134.589 89.1558 135.503 85.1869" stroke="#263238" stroke-width="0.75" stroke-linecap="round" stroke-linejoin="round"/>
<path d="M114.974 68.5674C114.851 70.0916 114.669 73.8436 111.457 76.6341C109.37 78.4339 114.154 80.2747 114.154 80.2747" stroke="#263238" stroke-width="0.75" stroke-linecap="round" stroke-linejoin="round"/>
<path d="M111.551 63.1914C111.551 63.1914 107.002 60.9754 103.93 64.6336" stroke="#263238" stroke-width="0.75" stroke-linecap="round" stroke-linejoin="round"/>
<path d="M119.188 62.8927C122.386 61.9652 125.799 62.1009 128.913 63.2796" stroke="#263238" stroke-width="0.75" stroke-linecap="round" stroke-linejoin="round"/>
<path d="M123.91 69.3003C124.05 70.6077 124.93 71.5867 125.874 71.4812C126.818 71.3756 127.468 70.2383 127.328 68.931C127.187 67.6237 126.307 66.6505 125.364 66.7502C124.42 66.8498 123.769 67.993 123.91 69.3003Z" fill="#263238"/>
<path d="M114.375 84.583C117.992 84.0839 121.46 82.8166 124.546 80.8662C124.546 80.8662 124.974 86.5528 120.214 87.7311C116.562 88.6398 115.149 84.4716 115.149 84.4716" stroke="#263238" stroke-width="0.75" stroke-linecap="round" stroke-linejoin="round"/>
<path d="M127.752 49.2616C127.752 49.2616 126.451 65.3187 140.62 71.1519L147.262 55.7161L137.214 44.5775L122.083 40.2041C99.4718 41.6169 89.7402 55.6633 102.292 93.0949C102.292 93.1125 98.78 48.5346 127.752 49.2616Z" fill="#263238"/>
<path d="M137.514 71.8321C137.315 70.0265 141.882 65.4303 143.423 68.3791C146.056 73.4091 144.139 77.759 141.419 79.5178C140.199 80.2857 138.651 81.7279 137.567 80.3678" fill="white"/>
<path d="M137.514 71.8321C137.315 70.0265 141.882 65.4303 143.423 68.3791C146.056 73.4091 144.139 77.759 141.419 79.5178C140.199 80.2857 138.651 81.7279 137.567 80.3678" stroke="#263238" stroke-width="0.75" stroke-linecap="round" stroke-linejoin="round"/>
<path d="M110.114 69.9271C110.261 71.2344 111.14 72.2134 112.084 72.1079C113.028 72.0024 113.679 70.8651 113.538 69.5578C113.397 68.2504 112.512 67.2714 111.568 67.3769C110.624 67.4825 109.968 68.5905 110.114 69.9271Z" fill="#263238"/>
<g opacity="0.2">
<path d="M100.289 67.2656C100.119 68.3502 100.002 69.4523 99.9375 70.5486" stroke="white" stroke-width="0.75" stroke-linecap="round" stroke-linejoin="round"/>
<path d="M125.403 46.3428C113.948 46.0439 103.302 53.3426 100.781 64.8036" stroke="white" stroke-width="0.75" stroke-linecap="round" stroke-linejoin="round"/>
<path d="M123.367 43.0718C123.367 43.0718 106.847 39.185 100.656 50.1419" stroke="white" stroke-width="0.75" stroke-linecap="round" stroke-linejoin="round"/>
<path d="M136.766 62.1602C137.762 63.5782 138.961 64.8423 140.324 65.9121" stroke="white" stroke-width="0.75" stroke-linecap="round" stroke-linejoin="round"/>
<path d="M130.211 45.2109C131.055 50.4586 132.83 55.5133 135.452 60.1367" stroke="white" stroke-width="0.75" stroke-linecap="round" stroke-linejoin="round"/>
<path d="M146.807 94.9014C146.514 96.2146 146.168 97.516 145.781 98.8057" stroke="white" stroke-width="0.75" stroke-linecap="round" stroke-linejoin="round"/>
<path d="M145.852 73.0703C148.531 79.0207 148.349 86.4249 147.247 92.686" stroke="white" stroke-width="0.75" stroke-linecap="round" stroke-linejoin="round"/>
<path d="M143.887 83.4111C144.018 85.6648 143.67 87.9206 142.867 90.0303C142.064 92.14 140.823 94.0559 139.227 95.6519" stroke="white" stroke-width="0.75" stroke-linecap="round" stroke-linejoin="round"/>
<path d="M136.273 47.1289C139.082 50.9278 141.169 55.0022 144.422 58.4727C147.852 62.125 151.281 66.3108 151.926 71.458" stroke="white" stroke-width="0.75" stroke-linecap="round" stroke-linejoin="round"/>
<path d="M132.312 43.1777C133.117 43.7051 133.857 44.3249 134.517 45.0244" stroke="white" stroke-width="0.75" stroke-linecap="round" stroke-linejoin="round"/>
</g>
<path d="M188.819 131.336C188.491 131.406 188.163 131.465 187.823 131.512C178.959 132.778 169.016 125.427 165.663 116.604C163.013 109.633 165.329 101.725 166.595 98.3421C166.994 97.281 167.281 96.6654 167.281 96.6654C172.627 89.0443 203.71 103.964 204.073 112.195C204.437 120.426 197.9 129.343 188.819 131.336Z" fill="#263238" stroke="#263238" stroke-width="0.75" stroke-linecap="round" stroke-linejoin="round"/>
<path d="M198.545 113.309C198.545 113.309 196.786 126.394 187.823 131.512C178.959 132.778 169.016 125.426 165.663 116.603C163.013 109.633 165.329 101.725 166.595 98.342C177.071 92.3565 198.545 113.309 198.545 113.309Z" fill="white"/>
<mask id="mask1_1928_2927" style="mask-type:luminance" maskUnits="userSpaceOnUse" x="164" y="97" width="35" height="35">
<path d="M198.537 113.309C198.537 113.309 196.779 126.394 187.815 131.512C178.951 132.778 169.008 125.426 165.655 116.603C163.005 109.633 165.321 101.725 166.587 98.342C177.063 92.3565 198.537 113.309 198.537 113.309Z" fill="white"/>
</mask>
<g mask="url(#mask1_1928_2927)">
<path opacity="0.4" d="M198.537 113.309C198.537 113.309 196.779 126.394 187.815 131.512C178.951 132.778 169.008 125.426 165.655 116.603C163.005 109.633 165.321 101.725 166.587 98.342C177.063 92.3565 198.537 113.309 198.537 113.309Z" fill="#FBD362"/>
</g>
<path d="M198.545 113.309C198.545 113.309 196.786 126.394 187.823 131.512C178.959 132.778 169.016 125.426 165.663 116.603C163.013 109.633 165.329 101.725 166.595 98.342C177.071 92.3565 198.545 113.309 198.545 113.309Z" stroke="#263238" stroke-width="0.75" stroke-linecap="round" stroke-linejoin="round"/>
<path d="M161.891 120.198C161.891 120.198 171.986 134.689 183.775 135.897C195.564 137.105 203.121 127.174 203.584 119.688" stroke="#263238" stroke-width="0.75" stroke-linecap="round" stroke-linejoin="round"/>
<path d="M156.211 54.8022C157.096 52.3224 163.463 53.1549 165.485 60.8933C167.508 68.6317 175.451 87.4442 175.451 87.4442C175.451 87.4442 207.109 40.8907 212.76 39.0968C218.411 37.3029 216.189 45.3696 208.609 56.5609C208.609 56.5609 215.709 55.3122 217.573 56.5609C219.437 57.8096 218.529 65.3546 219.519 67.9692C221.184 72.3836 217.485 73.3158 217.485 73.3158C219.3 73.3564 221.045 74.021 222.427 75.1976C224.461 77.1029 223.441 84.9761 224.022 87.2039C224.602 89.4316 220.721 91.3076 220.721 91.3076C220.721 91.3076 230.048 96.3903 227.944 97.6683C224.391 99.8139 222.368 97.6155 222.368 97.6155C222.368 97.6155 208.035 115.613 197.224 119.623C186.414 123.633 165.374 107.699 163.111 99.0225C160.848 90.3461 163.551 90.8796 161.833 76.4404C160.115 62.0013 156.211 54.8022 156.211 54.8022Z" fill="white" stroke="#263238" stroke-width="0.75" stroke-linecap="round" stroke-linejoin="round"/>
<path d="M202.362 26.1981L160.678 37.0638C159.199 37.4492 158.312 38.9605 158.698 40.4393L178.402 116.03C178.787 117.509 180.299 118.395 181.778 118.01L223.462 107.144C224.941 106.759 225.827 105.247 225.441 103.769L205.737 28.1777C205.352 26.6989 203.841 25.8126 202.362 26.1981Z" fill="white" stroke="#263238" stroke-width="0.75" stroke-linecap="round" stroke-linejoin="round"/>
<path d="M178.48 34.8877C178.502 34.9736 178.508 35.063 178.495 35.1508C178.483 35.2387 178.454 35.3233 178.409 35.3997C178.364 35.4762 178.304 35.5431 178.234 35.5966C178.163 35.6501 178.082 35.6891 177.996 35.7114C177.911 35.7337 177.821 35.7389 177.733 35.7267C177.645 35.7145 177.561 35.6851 177.484 35.6402C177.408 35.5953 177.341 35.5357 177.288 35.465C177.234 35.3942 177.195 35.3136 177.173 35.2278C177.149 35.1419 177.143 35.0522 177.154 34.9638C177.165 34.8754 177.194 34.7902 177.239 34.7132C177.284 34.6362 177.344 34.5689 177.415 34.5153C177.486 34.4617 177.567 34.4229 177.653 34.4011C177.828 34.3566 178.012 34.3827 178.167 34.4739C178.322 34.5651 178.435 34.7139 178.48 34.8877Z" fill="#FBD362" stroke="#263238" stroke-width="0.75" stroke-linecap="round" stroke-linejoin="round"/>
<path d="M187.073 32.6474C187.087 32.7013 187.09 32.7575 187.082 32.8126C187.075 32.8678 187.056 32.9209 187.028 32.9689C186.999 33.0168 186.962 33.0587 186.917 33.0921C186.873 33.1254 186.822 33.1497 186.768 33.1633C186.687 33.1838 186.602 33.1798 186.523 33.152C186.445 33.1242 186.376 33.0738 186.326 33.007C186.276 32.9403 186.247 32.8603 186.243 32.7771C186.238 32.6938 186.258 32.6111 186.301 32.5394C186.343 32.4676 186.406 32.41 186.481 32.3739C186.556 32.3377 186.64 32.3246 186.723 32.3361C186.805 32.3477 186.883 32.3834 186.945 32.4388C187.007 32.4942 187.052 32.5668 187.073 32.6474Z" fill="#FBD362" stroke="#263238" stroke-width="0.75" stroke-linecap="round" stroke-linejoin="round"/>
<path d="M185.019 33.7049L179.987 35.0019C179.886 35.0278 179.826 35.1303 179.852 35.2308L179.878 35.3332C179.904 35.4337 180.006 35.4941 180.107 35.4682L185.139 34.1712C185.24 34.1453 185.3 34.0428 185.275 33.9423L185.248 33.8399C185.222 33.7394 185.12 33.679 185.019 33.7049Z" fill="#FBD362" stroke="#263238" stroke-width="0.751274" stroke-linecap="round" stroke-linejoin="round"/>
<path d="M204.49 28.9602L224.029 103.929C224.138 104.349 224.076 104.796 223.856 105.171C223.636 105.545 223.277 105.818 222.857 105.928L181.708 116.65C181.288 116.759 180.841 116.697 180.466 116.477C180.092 116.257 179.819 115.898 179.709 115.478L160.17 40.5092C160.061 40.0886 160.123 39.6421 160.343 39.2674C160.563 38.8927 160.922 38.6203 161.342 38.5101L169.79 36.3058C170.061 36.2347 170.347 36.2483 170.61 36.3447C170.873 36.4411 171.1 36.6158 171.261 36.8452L171.877 37.7187C172.038 37.9481 172.265 38.1227 172.528 38.2191C172.791 38.3156 173.077 38.3291 173.348 38.258L191.891 33.4274C192.159 33.3573 192.4 33.2079 192.582 32.9987C192.764 32.7895 192.879 32.5303 192.911 32.2549L193.023 31.1938C193.053 30.9178 193.167 30.6578 193.35 30.4483C193.532 30.2389 193.774 30.0899 194.043 30.0213L202.49 27.817C202.907 27.7071 203.35 27.7654 203.724 27.9792C204.098 28.1931 204.373 28.5454 204.49 28.9602Z" fill="#D9D9D9" stroke="#263238" stroke-width="0.75" stroke-linecap="round" stroke-linejoin="round"/>
<path d="M205.92 71.0294C209.744 62.2237 205.705 51.9859 196.899 48.1626C188.093 44.3392 177.855 48.3782 174.032 57.1839C170.209 65.9895 174.248 76.2274 183.053 80.0507C191.859 83.874 202.097 79.835 205.92 71.0294Z" fill="white" stroke="#263238" stroke-width="0.75" stroke-linecap="round" stroke-linejoin="round"/>
<path d="M190.732 73.7914C196.404 73.7914 201.002 69.1931 201.002 63.5207C201.002 57.8484 196.404 53.25 190.732 53.25C185.059 53.25 180.461 57.8484 180.461 63.5207C180.461 69.1931 185.059 73.7914 190.732 73.7914Z" fill="white" stroke="#263238" stroke-width="0.607854" stroke-linejoin="round"/>
<path d="M189.521 73.7914C195.193 73.7914 199.791 69.1931 199.791 63.5207C199.791 57.8484 195.193 53.25 189.521 53.25C183.848 53.25 179.25 57.8484 179.25 63.5207C179.25 69.1931 183.848 73.7914 189.521 73.7914Z" fill="white" stroke="#263238" stroke-width="0.607854" stroke-linejoin="round"/>
<path d="M189.52 71.7753C194.08 71.7753 197.775 68.0795 197.775 63.5205C197.775 58.9615 194.08 55.2656 189.52 55.2656C184.961 55.2656 181.266 58.9615 181.266 63.5205C181.266 68.0795 184.961 71.7753 189.52 71.7753Z" fill="white" stroke="#263238" stroke-width="0.607854" stroke-linejoin="round"/>
<g opacity="0.7">
<path d="M189.684 58.4671C189.091 58.2541 188.416 58.3566 187.669 58.7696L185.203 60.1318L189.179 67.3268L190.534 69.7789L191.477 69.2576L190.122 66.8056L190.117 66.8081L189.014 64.8108L190.54 63.9672C191.27 63.5644 191.697 63.0352 191.827 62.3772C191.957 61.7193 191.771 60.9509 191.287 60.076C190.804 59.2011 190.281 58.6859 189.684 58.4671ZM190.013 63.0341L188.495 63.8726L186.654 60.5398L188.171 59.7013C188.613 59.4571 189.007 59.405 189.351 59.5532C189.694 59.7014 190.022 60.0464 190.33 60.6047C190.966 61.7559 190.861 62.5657 190.013 63.0341Z" fill="black"/>
<path d="M190.013 63.0341L188.495 63.8726L186.654 60.5398L188.171 59.7013C188.613 59.4571 189.007 59.405 189.351 59.5532C189.694 59.7014 190.022 60.0464 190.33 60.6047C190.966 61.7559 190.861 62.5657 190.013 63.0341Z" fill="#F5F5FC"/>
<path d="M191.779 64.5959L188.194 66.5772C187.94 66.7174 187.848 67.0367 187.988 67.2904C188.128 67.5441 188.448 67.6362 188.701 67.496L192.287 65.5147C192.541 65.3745 192.633 65.0552 192.493 64.8015C192.353 64.5478 192.033 64.4557 191.779 64.5959Z" fill="black"/>
</g>
<path d="M181.971 63.5203C181.969 61.3904 182.79 59.3421 184.263 57.8032C185.735 56.2642 187.745 55.3537 189.873 55.2617H189.516C187.326 55.2617 185.225 56.1318 183.677 57.6806C182.128 59.2294 181.258 61.33 181.258 63.5203C181.258 65.7107 182.128 67.8113 183.677 69.3601C185.225 70.9088 187.326 71.7789 189.516 71.7789C189.637 71.7789 189.753 71.7789 189.873 71.7789C187.745 71.687 185.735 70.7764 184.263 69.2375C182.79 67.6986 181.969 65.6502 181.971 63.5203Z" fill="white" stroke="#263238" stroke-width="0.607854" stroke-linejoin="round"/>
<path d="M197.175 55.5996H196.391" stroke="#263238" stroke-width="0.607854" stroke-linejoin="round"/>
<path d="M198.172 56.5273H197.602" stroke="#263238" stroke-width="0.607854" stroke-linejoin="round"/>
<path d="M199.451 57.9531H198.812" stroke="#263238" stroke-width="0.607854" stroke-linejoin="round"/>
<path d="M200.168 59.7363H199.312" stroke="#263238" stroke-width="0.607854" stroke-linejoin="round"/>
<path d="M200.808 61.6621H200.023" stroke="#263238" stroke-width="0.607854" stroke-linejoin="round"/>
<path d="M200.809 65.7285H199.953" stroke="#263238" stroke-width="0.607854" stroke-linejoin="round"/>
<path d="M197.461 70.5781H198.174" stroke="#263238" stroke-width="0.607854" stroke-linejoin="round"/>
<path d="M196.25 71.5059H197.035" stroke="#263238" stroke-width="0.607854" stroke-linejoin="round"/>
<path d="M194.969 72.5039H195.753" stroke="#263238" stroke-width="0.607854" stroke-linejoin="round"/>
<path d="M195.822 54.6055H194.609" stroke="#263238" stroke-width="0.607854" stroke-linejoin="round"/>
<path d="M209.619 91.4186L186.169 97.5272C185.499 97.704 184.8 97.7469 184.113 97.6534C183.426 97.5598 182.764 97.3318 182.165 96.9822C181.566 96.6327 181.042 96.1685 180.622 95.6162C180.203 95.0639 179.897 94.4344 179.721 93.7636C179.544 93.0926 179.502 92.3934 179.595 91.7059C179.689 91.0185 179.918 90.3563 180.268 89.7573C180.618 89.1584 181.083 88.6343 181.636 88.2152C182.189 87.7961 182.819 87.4901 183.49 87.3149L206.94 81.2062C208.29 80.858 209.723 81.0585 210.926 81.7637C212.129 82.4689 213.004 83.6216 213.359 84.9699C213.717 86.321 213.524 87.7589 212.823 88.9679C212.122 90.1769 210.97 91.0583 209.619 91.4186Z" fill="#263238"/>
<path d="M185.093 94.7057L184.185 91.2368L185.541 90.8818C185.818 90.8092 186.059 90.784 186.264 90.8064C186.473 90.8278 186.644 90.9096 186.779 91.0515C186.917 91.1926 187.024 91.4054 187.098 91.6898C187.164 91.9404 187.173 92.164 187.127 92.3606C187.083 92.5529 186.981 92.7136 186.819 92.8428L187.708 94.021L186.972 94.2138L186.21 93.1704L185.489 93.3591L185.793 94.5222L185.093 94.7057ZM185.339 92.7852L186.009 92.6097C186.138 92.5761 186.235 92.5253 186.3 92.4575C186.365 92.3864 186.403 92.3023 186.413 92.2054C186.423 92.1052 186.413 91.9975 186.383 91.8823C186.334 91.6927 186.252 91.562 186.139 91.4903C186.027 91.4185 185.877 91.407 185.691 91.4558L185.036 91.6272L185.339 92.7852ZM189.035 93.6738L188.127 90.2049L190.433 89.6013L190.586 90.1854L188.981 90.6055L189.201 91.4486L190.501 91.1082L190.652 91.6822L189.352 92.0225L189.583 92.9062L191.188 92.4861L191.341 93.0702L189.035 93.6738ZM193.021 92.6304L191.523 89.3158L192.229 89.131L193.387 91.8127L193.509 91.7808L193.315 88.8847L194.103 88.6786L195.363 91.2956L195.485 91.2636L195.155 88.3652L195.866 88.1791L196.195 91.7995L195.083 92.0907L193.869 89.4669L193.895 89.4602L194.118 92.3433L193.021 92.6304ZM197.613 91.4285L197.588 87.7282L198.812 87.4079L200.599 90.6467L199.898 90.8302L199.522 90.1798L198.308 90.4976L198.308 91.2463L197.613 91.4285ZM198.272 89.9046L199.273 89.6427L198.453 88.1096L198.24 88.1655L198.272 89.9046ZM201.794 90.3339L200.886 86.865L202.242 86.5101C202.52 86.4374 202.761 86.4122 202.966 86.4346C203.174 86.4561 203.346 86.5378 203.481 86.6798C203.619 86.8209 203.725 87.0336 203.8 87.3181C203.865 87.5686 203.875 87.7922 203.829 87.9888C203.785 88.1812 203.682 88.3419 203.521 88.471L204.41 89.6493L203.673 89.842L202.912 88.7986L202.191 88.9874L202.495 90.1505L201.794 90.3339ZM202.04 88.4135L202.711 88.238C202.839 88.2043 202.937 88.1536 203.002 88.0858C203.067 88.0146 203.104 87.9306 203.115 87.8337C203.125 87.7334 203.115 87.6257 203.085 87.5106C203.035 87.321 202.954 87.1903 202.841 87.1185C202.728 87.0468 202.579 87.0353 202.392 87.084L201.737 87.2555L202.04 88.4135ZM205.736 89.302L204.828 85.8331L206.154 85.4861C206.425 85.4152 206.662 85.3948 206.865 85.4248C207.071 85.4506 207.249 85.5216 207.399 85.6379C207.548 85.7543 207.674 85.9095 207.776 86.1037C207.88 86.2969 207.967 86.5256 208.036 86.7897C208.106 87.0572 208.146 87.3055 208.155 87.5346C208.168 87.7628 208.141 87.9707 208.074 88.1582C208.008 88.3457 207.895 88.5074 207.735 88.6433C207.574 88.7758 207.357 88.8779 207.082 88.9497L205.736 89.302ZM206.283 88.5294L206.888 88.3712C207.047 88.3295 207.167 88.2654 207.25 88.1787C207.332 88.0921 207.384 87.9879 207.407 87.8663C207.431 87.7404 207.434 87.6041 207.414 87.4575C207.396 87.3065 207.365 87.1464 207.32 86.9771C207.278 86.8146 207.229 86.67 207.174 86.5433C207.118 86.4131 207.051 86.3078 206.972 86.2271C206.896 86.1422 206.802 86.0873 206.69 86.0622C206.581 86.0328 206.447 86.039 206.288 86.0806L205.684 86.2388L206.283 88.5294Z" fill="#EAD2EE"/>
<path d="M152.628 157.799C152.628 157.799 145.511 141.238 149.11 121.153" stroke="#263238" stroke-width="0.75" stroke-linecap="round" stroke-linejoin="round"/>
<path d="M135.27 175.691C135.27 175.691 120.884 180.088 119.442 183.4C118 186.713 125.89 183.922 125.89 183.922" stroke="#263238" stroke-width="0.75" stroke-linecap="round" stroke-linejoin="round"/>
<path d="M144.113 107.78C144.113 107.78 130.864 120.912 122 124.412" stroke="#263238" stroke-width="0.75" stroke-linecap="round" stroke-linejoin="round"/>
<path d="M100.7 104.252C100.7 104.252 98.2851 121.98 107.296 125.327" stroke="#263238" stroke-width="0.75" stroke-linecap="round" stroke-linejoin="round"/>
<path d="M75.2032 140.048C75.2032 140.048 75.1328 116.809 79.7466 109.622" stroke="#263238" stroke-width="0.75" stroke-linecap="round" stroke-linejoin="round"/>
<path d="M73.4746 116.369C73.4746 116.369 72.179 130.802 75.0926 135.51" stroke="#263238" stroke-width="0.75" stroke-linecap="round" stroke-linejoin="round"/>
<path d="M63.9927 143.477C63.9927 143.477 53.9152 140.006 51.8282 144.309C49.7412 148.612 57.8372 144.796 57.8372 144.796" stroke="#263238" stroke-width="0.75" stroke-linecap="round" stroke-linejoin="round"/>
<path d="M70.0621 158.543C70.0621 158.543 60.1663 164.118 59.6562 167.307" stroke="#263238" stroke-width="0.75" stroke-linecap="round" stroke-linejoin="round"/>
<path d="M86.2188 143.126C86.2188 143.126 105.16 171.752 115.613 169.126" stroke="#263238" stroke-width="0.75" stroke-linecap="round" stroke-linejoin="round"/>
<path d="M99.1573 183.277C99.1573 183.277 84.3078 194.164 82.1562 193.243" stroke="#263238" stroke-width="0.75" stroke-linecap="round" stroke-linejoin="round"/>
<path opacity="0.2" d="M203.172 136.823C204.174 136.002 204.837 135.457 205.054 135.287C204.831 135.481 204.186 136.043 203.172 136.823Z" fill="black"/>
<defs>
<clipPath id="clip0_1928_2927">
<rect width="214.5" height="209.235" fill="white"/>
</clipPath>
</defs>
</svg>
