<svg width="539" height="430" viewBox="0 0 539 430" fill="none" xmlns="http://www.w3.org/2000/svg">
<path d="M496.489 382.128C486.689 382.128 477.202 385.578 469.692 391.873C464.517 386.163 457.32 382.697 449.63 382.21C441.94 381.723 434.363 384.254 428.51 389.266C424.579 385.927 419.959 383.498 414.98 382.154C410.001 380.81 404.787 380.584 399.71 381.492C394.633 382.4 389.82 384.42 385.616 387.406C381.412 390.393 377.92 394.272 375.391 398.767C373.248 397.616 370.843 397.041 368.412 397.098C365.98 397.155 363.605 397.841 361.519 399.091C359.432 400.34 357.705 402.11 356.507 404.227C355.309 406.343 354.681 408.734 354.684 411.167C354.685 411.716 354.718 412.265 354.781 412.811C353.908 412.713 353.029 412.664 352.15 412.665C346.732 412.657 341.488 414.583 337.363 418.097C333.861 415.091 329.396 413.44 324.781 413.444C324.175 413.446 323.569 413.479 322.966 413.542V223.039C323.9 221.279 325.049 219.642 326.389 218.167C328.105 216.641 329.317 214.629 329.864 212.398C330.41 210.167 330.266 207.822 329.449 205.675C328.633 203.528 327.183 201.68 325.292 200.376C323.401 199.073 321.158 198.374 318.861 198.374C316.564 198.374 314.321 199.073 312.43 200.376C310.539 201.68 309.09 203.528 308.273 205.675C307.457 207.822 307.312 210.167 307.859 212.398C308.405 214.629 309.617 216.641 311.334 218.167C312.608 219.571 313.712 221.12 314.622 222.783V416.331C313.09 417.285 311.693 418.44 310.469 419.766C306.084 416.115 300.668 413.923 294.978 413.498C289.287 413.072 283.606 414.433 278.726 417.391C277.391 416.586 275.989 415.897 274.536 415.332V239.239C276.388 231.931 282.21 225.841 282.21 225.841C284.921 223.427 286.834 220.247 287.697 216.721C288.559 213.195 288.329 209.49 287.038 206.098C285.746 202.706 283.454 199.786 280.466 197.726C277.477 195.666 273.933 194.562 270.304 194.562C266.674 194.562 263.13 195.666 260.141 197.726C257.153 199.786 254.861 202.706 253.57 206.098C252.278 209.49 252.049 213.195 252.911 216.721C253.773 220.247 255.686 223.427 258.397 225.841V225.902C258.397 225.902 264.487 232.309 266.217 239.934V413.469C265.681 413.469 265.133 413.469 264.573 413.469C258.166 413.46 251.961 415.706 247.045 419.815C244.322 416.807 240.72 414.735 236.751 413.891C232.783 413.047 228.649 413.474 224.938 415.113V223.039C225.871 221.279 227.021 219.642 228.36 218.167C230.077 216.641 231.289 214.629 231.835 212.398C232.382 210.167 232.237 207.822 231.421 205.675C230.604 203.528 229.154 201.68 227.263 200.376C225.372 199.073 223.13 198.374 220.833 198.374C218.536 198.374 216.293 199.073 214.402 200.376C212.511 201.68 211.061 203.528 210.245 205.675C209.428 207.822 209.284 210.167 209.83 212.398C210.377 214.629 211.589 216.641 213.305 218.167C214.58 219.571 215.683 221.12 216.594 222.783V415.6C212.439 413.245 207.648 412.257 202.9 412.775C198.152 413.293 193.687 415.291 190.138 418.487C190.226 418.038 190.271 417.581 190.272 417.123C190.272 415.298 189.547 413.547 188.256 412.257C186.966 410.966 185.215 410.241 183.39 410.241C182.86 410.244 182.333 410.31 181.819 410.436C181.625 408.456 180.949 406.555 179.85 404.897C178.752 403.239 177.264 401.875 175.517 400.924C173.77 399.974 171.817 399.466 169.828 399.444C167.839 399.423 165.875 399.889 164.108 400.801C161.795 395.971 158.405 391.737 154.198 388.423C149.991 385.11 145.08 382.806 139.843 381.69C134.606 380.573 129.182 380.673 123.99 381.983C118.797 383.292 113.975 385.775 109.893 389.242C104.04 384.23 96.463 381.699 88.7728 382.185C81.0826 382.672 73.8854 386.139 68.7108 391.848C62.2535 386.424 54.307 383.079 45.9145 382.253C37.522 381.426 29.0757 383.156 21.6842 387.216C14.2927 391.276 8.30152 397.476 4.49705 405.002C0.69258 412.529 -0.747377 421.029 0.366201 429.389H538.024C538.253 427.603 538.371 425.805 538.377 424.005C538.374 412.897 533.96 402.246 526.104 394.393C518.249 386.54 507.596 382.128 496.489 382.128Z" fill="#EAD2EE"/>
<path d="M225.468 207.472C225.468 204.865 223.36 200.724 220.742 200.724C218.123 200.724 216.016 204.865 216.016 207.472C216.016 210.078 220.035 215.291 220.742 215.291C221.448 215.291 225.468 210.078 225.468 207.472Z" fill="#BA68C8"/>
<path d="M323.6 207.472C323.6 204.865 321.493 200.724 318.874 200.724C316.256 200.724 314.148 204.865 314.148 207.472C314.148 210.078 318.168 215.291 318.874 215.291C319.581 215.291 323.6 210.078 323.6 207.472Z" fill="#BA68C8"/>
<path d="M221.297 176.375L254.623 147.045V171.93L223.514 186.546L221.297 176.375Z" fill="#263238" stroke="#263238" stroke-width="1.15809" stroke-miterlimit="10"/>
<path d="M228.004 200.517H213.534L210.477 143.72C210.435 143.315 210.435 142.907 210.477 142.502C210.976 137.812 215.349 122.44 220.757 122.44C226.128 122.44 230.501 137.812 231.049 142.502C231.085 142.907 231.085 143.314 231.049 143.72L228.004 200.517Z" fill="white" stroke="#263238" stroke-width="1.15809" stroke-miterlimit="10"/>
<path d="M212.516 134.267H229.081C227.205 128.567 224.209 122.428 220.798 122.428C217.388 122.428 214.391 128.567 212.516 134.267Z" fill="#263238" stroke="#263238" stroke-width="1.15809" stroke-miterlimit="10"/>
<path d="M212.883 188.53L213.528 200.516H227.999L228.644 188.53H212.883Z" fill="#263238" stroke="#263238" stroke-width="1.15809" stroke-miterlimit="10"/>
<path d="M318.94 176.375L285.578 147.045V171.93L316.687 186.546L318.94 176.375Z" fill="#263238" stroke="#263238" stroke-width="1.15809" stroke-miterlimit="10"/>
<path d="M312.244 200.517H326.714L329.772 143.72C329.813 143.315 329.813 142.907 329.772 142.502C329.272 137.812 324.899 122.44 319.491 122.44C314.12 122.44 309.747 137.812 309.199 142.502C309.163 142.907 309.163 143.314 309.199 143.72L312.244 200.517Z" fill="white" stroke="#263238" stroke-width="1.15809" stroke-miterlimit="10"/>
<path d="M327.363 188.53L326.718 200.516H312.247L311.602 188.53H327.363Z" fill="#263238" stroke="#263238" stroke-width="1.15809" stroke-miterlimit="10"/>
<path d="M311.172 134.267H327.737C325.849 128.567 322.865 122.428 319.455 122.428C316.044 122.428 313.072 128.567 311.172 134.267Z" fill="#263238" stroke="#263238" stroke-width="1.15809" stroke-miterlimit="10"/>
<path d="M277.766 208.897C277.688 206.967 276.866 205.142 275.474 203.805C274.081 202.467 272.224 201.72 270.293 201.72C268.362 201.72 266.505 202.467 265.112 203.805C263.72 205.142 262.898 206.967 262.82 208.897C262.82 213.026 269.166 221.26 270.287 221.26C271.164 221.26 277.766 213.002 277.766 208.897Z" fill="#BA68C8"/>
<path d="M289.25 180.518H251.405L243.39 57.5932C243.287 56.5197 243.287 55.4388 243.39 54.3654C244.73 42.0631 256.289 1.80664 270.333 1.80664C284.39 1.80664 295.912 42.0631 297.277 54.3654C297.386 55.4385 297.386 56.5201 297.277 57.5932L289.25 180.518Z" fill="white" stroke="#263238" stroke-width="1.15809" stroke-miterlimit="10"/>
<path d="M270.386 150.175C265.994 150.175 261.783 148.432 258.677 145.328C255.57 142.224 253.824 138.013 253.82 133.622V64.6197C253.824 60.2283 255.57 56.018 258.677 52.914C261.783 49.81 265.994 48.0664 270.386 48.0664C274.775 48.0696 278.983 49.8147 282.087 52.9183C285.191 56.0219 286.936 60.2305 286.939 64.6197V133.622C286.936 138.011 285.191 142.22 282.087 145.323C278.983 148.427 274.775 150.172 270.386 150.175Z" fill="#BA68C8" stroke="#263238" stroke-width="1.15809" stroke-miterlimit="10"/>
<path d="M283.628 198.166H257.001L251.398 179.725H289.292L283.628 198.166Z" fill="#263238" stroke="#263238" stroke-width="1.15809" stroke-miterlimit="10"/>
<path d="M274.6 77.843C280.538 75.479 283.435 68.7494 281.071 62.812C278.707 56.8745 271.977 53.9777 266.04 56.3417C260.102 58.7057 257.205 65.4353 259.569 71.3727C261.933 77.3102 268.663 80.207 274.6 77.843Z" fill="#263238"/>
<path d="M281.762 70.3158C282.769 64.0048 278.468 58.0729 272.157 57.0666C265.846 56.0603 259.914 60.3606 258.908 66.6716C257.902 72.9826 262.202 78.9144 268.513 79.9208C274.824 80.9271 280.756 76.6268 281.762 70.3158Z" fill="#BA68C8" stroke="#263238" stroke-width="1.15809" stroke-miterlimit="10"/>
<path d="M270.33 58.4918C273.134 58.4928 275.829 59.5789 277.85 61.5225C279.871 63.4662 281.061 66.1165 281.171 68.9183C281.171 68.7721 281.171 68.6259 281.171 68.4798C281.077 65.6627 279.891 62.9926 277.865 61.0333C275.839 59.0739 273.131 57.9785 270.312 57.9785C267.493 57.9785 264.785 59.0739 262.759 61.0333C260.733 62.9926 259.547 65.6627 259.453 68.4798C259.453 68.6259 259.453 68.7721 259.453 68.9183C259.56 66.1092 260.755 63.4517 262.784 61.5064C264.814 59.5611 267.519 58.4802 270.33 58.4918Z" fill="#263238"/>
<path d="M278.856 69.8813C279.622 65.1737 276.427 60.7366 271.719 59.9707C267.012 59.2049 262.574 62.4003 261.809 67.1079C261.043 71.8156 264.238 76.2527 268.946 77.0185C273.653 77.7844 278.091 74.5889 278.856 69.8813Z" fill="white" stroke="#263238" stroke-width="1.15809" stroke-miterlimit="10"/>
<path d="M270.343 76.3121C272.564 76.3114 274.698 75.4555 276.304 73.9222C277.91 72.3889 278.864 70.296 278.967 68.0781C278.967 68.2121 278.967 68.3461 278.967 68.4801C278.967 70.7705 278.057 72.9671 276.438 74.5866C274.818 76.2062 272.622 77.116 270.331 77.116C268.041 77.116 265.844 76.2062 264.225 74.5866C262.605 72.9671 261.695 70.7705 261.695 68.4801C261.695 68.3461 261.695 68.2121 261.695 68.0781C261.799 70.3003 262.756 72.3967 264.367 73.9307C265.978 75.4646 268.119 76.3177 270.343 76.3121Z" fill="#263238"/>
<path d="M270.329 107.238C276.72 107.238 281.901 102.057 281.901 95.6662C281.901 89.2754 276.72 84.0947 270.329 84.0947C263.939 84.0947 258.758 89.2754 258.758 95.6662C258.758 102.057 263.939 107.238 270.329 107.238Z" fill="#263238"/>
<path d="M270.329 108.627C276.72 108.627 281.901 103.447 281.901 97.0558C281.901 90.6651 276.72 85.4844 270.329 85.4844C263.939 85.4844 258.758 90.6651 258.758 97.0558C258.758 103.447 263.939 108.627 270.329 108.627Z" fill="#BA68C8" stroke="#263238" stroke-width="1.15809" stroke-miterlimit="10"/>
<path d="M270.33 87.066C273.134 87.067 275.829 88.1531 277.85 90.0967C279.871 92.0404 281.061 94.6908 281.171 97.4925C281.171 97.3463 281.171 97.2001 281.171 97.054C281.077 94.237 279.891 91.5669 277.865 89.6075C275.839 87.6481 273.131 86.5527 270.312 86.5527C267.493 86.5527 264.785 87.6481 262.759 89.6075C260.733 91.5669 259.547 94.237 259.453 97.054C259.453 97.2001 259.453 97.3463 259.453 97.4925C259.56 94.6834 260.755 92.0259 262.784 90.0806C264.814 88.1354 267.519 87.0545 270.33 87.066Z" fill="#263238"/>
<path d="M270.347 105.69C275.116 105.69 278.983 101.823 278.983 97.0539C278.983 92.2844 275.116 88.418 270.347 88.418C265.577 88.418 261.711 92.2844 261.711 97.0539C261.711 101.823 265.577 105.69 270.347 105.69Z" fill="white" stroke="#263238" stroke-width="1.15809" stroke-miterlimit="10"/>
<path d="M270.343 104.888C272.564 104.888 274.698 104.032 276.304 102.498C277.91 100.965 278.864 98.8722 278.967 96.6543C278.967 96.7883 278.967 96.9223 278.967 97.0563C278.967 99.3467 278.057 101.543 276.438 103.163C274.818 104.782 272.622 105.692 270.331 105.692C268.041 105.692 265.844 104.782 264.225 103.163C262.605 101.543 261.695 99.3467 261.695 97.0563C261.695 96.9223 261.695 96.7883 261.695 96.6543C261.799 98.8764 262.756 100.973 264.367 102.507C265.978 104.041 268.119 104.894 270.343 104.888Z" fill="#263238"/>
<path d="M274.624 134.995C280.561 132.631 283.458 125.902 281.094 119.964C278.73 114.027 272.001 111.13 266.063 113.494C260.126 115.858 257.229 122.588 259.593 128.525C261.957 134.462 268.686 137.359 274.624 134.995Z" fill="#263238"/>
<path d="M281.762 127.465C282.769 121.154 278.468 115.222 272.157 114.216C265.846 113.21 259.914 117.51 258.908 123.821C257.902 130.132 262.202 136.064 268.513 137.07C274.824 138.077 280.756 133.776 281.762 127.465Z" fill="#BA68C8" stroke="#263238" stroke-width="1.15809" stroke-miterlimit="10"/>
<path d="M270.33 115.642C273.134 115.643 275.829 116.729 277.85 118.673C279.871 120.617 281.061 123.267 281.171 126.069C281.171 125.922 281.171 125.776 281.171 125.63C281.077 122.813 279.891 120.143 277.865 118.184C275.839 116.224 273.131 115.129 270.312 115.129C267.493 115.129 264.785 116.224 262.759 118.184C260.733 120.143 259.547 122.813 259.453 125.63C259.453 125.776 259.453 125.922 259.453 126.069C259.56 123.26 260.755 120.602 262.784 118.657C264.814 116.712 267.519 115.631 270.33 115.642Z" fill="#263238"/>
<path d="M278.856 127.025C279.622 122.317 276.427 117.88 271.719 117.114C267.012 116.348 262.574 119.544 261.809 124.252C261.043 128.959 264.238 133.396 268.946 134.162C273.653 134.928 278.091 131.732 278.856 127.025Z" fill="white" stroke="#263238" stroke-width="1.15809" stroke-miterlimit="10"/>
<path d="M270.343 133.463C272.564 133.463 274.698 132.607 276.304 131.074C277.91 129.54 278.864 127.447 278.967 125.229C278.967 125.363 278.967 125.497 278.967 125.631C278.967 127.922 278.057 130.118 276.438 131.738C274.818 133.358 272.622 134.267 270.331 134.267C268.041 134.267 265.844 133.358 264.225 131.738C262.605 130.118 261.695 127.922 261.695 125.631C261.695 125.497 261.695 125.363 261.695 125.229C261.799 127.452 262.756 129.548 264.367 131.082C265.978 132.616 268.119 133.469 270.343 133.463Z" fill="#263238"/>
<path d="M251.164 25.836H289.508C284.636 12.9612 277.876 1 270.336 1C262.809 1.0609 256.012 12.9612 251.164 25.836Z" fill="#263238" stroke="#263238" stroke-width="1.15809" stroke-miterlimit="10"/>
</svg>
