<svg width="240" height="210" viewBox="0 0 240 210" fill="none" xmlns="http://www.w3.org/2000/svg">
<g clip-path="url(#clip0_1928_3022)">
<rect x="28" width="206.25" height="206.25" rx="103.125" fill="#EAD2EE"/>
<path d="M85.0805 99.878L88.6997 99.3125L85.0805 98.747C84.7618 98.6988 84.4669 98.5498 84.239 98.3218C84.0111 98.0939 83.8621 97.799 83.8138 97.4803L83.2483 93.8555L82.6828 97.4803C82.6348 97.7982 82.4867 98.0925 82.2598 98.3203C82.033 98.5482 81.7394 98.6977 81.4217 98.747L77.7969 99.3125L81.4217 99.878C81.7384 99.9299 82.0306 100.08 82.257 100.308C82.4834 100.535 82.6323 100.828 82.6828 101.145L83.2483 104.77L83.8138 101.145C83.8646 100.827 84.0144 100.534 84.2419 100.306C84.4693 100.079 84.7628 99.9288 85.0805 99.878Z" fill="white"/>
<path d="M58.0393 124.432L61.6642 123.866L58.0393 123.301C57.722 123.249 57.4289 123.099 57.2016 122.872C56.9742 122.644 56.8242 122.351 56.7726 122.034L56.2071 118.409L55.6416 122.034C55.5925 122.352 55.4432 122.647 55.2154 122.875C54.9876 123.102 54.6932 123.252 54.3749 123.301L50.75 123.866L54.3749 124.432C54.6932 124.481 54.9876 124.63 55.2154 124.858C55.4432 125.086 55.5925 125.38 55.6416 125.698L56.2071 129.323L56.7726 125.698C56.8242 125.381 56.9742 125.088 57.2016 124.861C57.4289 124.633 57.722 124.483 58.0393 124.432Z" fill="#FBD362"/>
<path opacity="0.5" d="M58.0393 124.432L61.6642 123.866L58.0393 123.301C57.722 123.249 57.4289 123.099 57.2016 122.872C56.9742 122.644 56.8242 122.351 56.7726 122.034L56.2071 118.409L55.6416 122.034C55.5925 122.352 55.4432 122.647 55.2154 122.875C54.9876 123.102 54.6932 123.252 54.3749 123.301L50.75 123.866L54.3749 124.432C54.6932 124.481 54.9876 124.63 55.2154 124.858C55.4432 125.086 55.5925 125.38 55.6416 125.698L56.2071 129.323L56.7726 125.698C56.8242 125.381 56.9742 125.088 57.2016 124.861C57.4289 124.633 57.722 124.483 58.0393 124.432Z" fill="white"/>
<path d="M148.289 139.547L151.914 138.982L148.289 138.416C147.972 138.367 147.678 138.219 147.45 137.992C147.223 137.766 147.073 137.472 147.023 137.155L146.457 133.53L145.892 137.155C145.841 137.472 145.692 137.766 145.464 137.992C145.236 138.219 144.942 138.367 144.625 138.416L141 138.982L144.625 139.547C144.942 139.596 145.236 139.744 145.464 139.971C145.692 140.198 145.841 140.491 145.892 140.808L146.457 144.433L147.023 140.808C147.073 140.491 147.223 140.198 147.45 139.971C147.678 139.744 147.972 139.596 148.289 139.547Z" fill="#FBD362"/>
<path opacity="0.5" d="M148.289 139.547L151.914 138.982L148.289 138.416C147.972 138.367 147.678 138.219 147.45 137.992C147.223 137.766 147.073 137.472 147.023 137.155L146.457 133.53L145.892 137.155C145.841 137.472 145.692 137.766 145.464 137.992C145.236 138.219 144.942 138.367 144.625 138.416L141 138.982L144.625 139.547C144.942 139.596 145.236 139.744 145.464 139.971C145.692 140.198 145.841 140.491 145.892 140.808L146.457 144.433L147.023 140.808C147.073 140.491 147.223 140.198 147.45 139.971C147.678 139.744 147.972 139.596 148.289 139.547Z" fill="white"/>
<path d="M53.4018 105.148L55.7996 104.769L53.4018 104.39C53.1915 104.358 52.9969 104.259 52.8464 104.109C52.6959 103.958 52.5973 103.764 52.5649 103.553L52.1917 101.161L51.8128 103.553C51.7804 103.764 51.6818 103.958 51.5313 104.109C51.3808 104.259 51.1862 104.358 50.9758 104.39L48.5781 104.769L50.9758 105.148C51.1862 105.18 51.3808 105.279 51.5313 105.429C51.6818 105.58 51.7804 105.774 51.8128 105.985L52.1917 108.377L52.5649 105.985C52.5973 105.774 52.6959 105.58 52.8464 105.429C52.9969 105.279 53.1915 105.18 53.4018 105.148Z" fill="#FBD362"/>
<path opacity="0.5" d="M53.4018 105.148L55.7996 104.769L53.4018 104.39C53.1915 104.358 52.9969 104.259 52.8464 104.109C52.6959 103.958 52.5973 103.764 52.5649 103.553L52.1917 101.161L51.8128 103.553C51.7804 103.764 51.6818 103.958 51.5313 104.109C51.3808 104.259 51.1862 104.358 50.9758 104.39L48.5781 104.769L50.9758 105.148C51.1862 105.18 51.3808 105.279 51.5313 105.429C51.6818 105.58 51.7804 105.774 51.8128 105.985L52.1917 108.377L52.5649 105.985C52.5973 105.774 52.6959 105.58 52.8464 105.429C52.9969 105.279 53.1915 105.18 53.4018 105.148Z" fill="white"/>
<path d="M208.949 110.441L211.346 110.068L208.949 109.689C208.739 109.656 208.545 109.557 208.394 109.406C208.244 109.256 208.145 109.062 208.112 108.852L207.733 106.454L207.36 108.852C207.326 109.062 207.228 109.256 207.077 109.406C206.927 109.557 206.733 109.656 206.523 109.689L204.125 110.068L206.523 110.441C206.733 110.474 206.927 110.573 207.077 110.723C207.228 110.874 207.326 111.068 207.36 111.278L207.733 113.676L208.112 111.278C208.145 111.068 208.244 110.874 208.394 110.723C208.545 110.573 208.739 110.474 208.949 110.441Z" fill="#FBD362"/>
<path opacity="0.5" d="M208.949 110.441L211.346 110.068L208.949 109.689C208.739 109.656 208.545 109.557 208.394 109.406C208.244 109.256 208.145 109.062 208.112 108.852L207.733 106.454L207.36 108.852C207.326 109.062 207.228 109.256 207.077 109.406C206.927 109.557 206.733 109.656 206.523 109.689L204.125 110.068L206.523 110.441C206.733 110.474 206.927 110.573 207.077 110.723C207.228 110.874 207.326 111.068 207.36 111.278L207.733 113.676L208.112 111.278C208.145 111.068 208.244 110.874 208.394 110.723C208.545 110.573 208.739 110.474 208.949 110.441Z" fill="white"/>
<path d="M99.3739 90.5131L101.721 90.1455L99.3739 89.7779C99.168 89.7457 98.9776 89.6489 98.8302 89.5016C98.6829 89.3542 98.5861 89.1638 98.5539 88.958L98.1807 86.6055L97.8131 88.958C97.78 89.1635 97.683 89.3534 97.5358 89.5006C97.3886 89.6478 97.1987 89.7449 96.9931 89.7779L94.6406 90.1455L96.9931 90.5131C97.1987 90.5461 97.3886 90.6432 97.5358 90.7904C97.683 90.9376 97.78 91.1275 97.8131 91.333L98.158 93.7081L98.5313 91.3557C98.5602 91.1424 98.6583 90.9445 98.8105 90.7923C98.9627 90.6401 99.1606 90.542 99.3739 90.5131Z" fill="white"/>
<path d="M177.126 113.733L179.478 113.359L177.126 112.992C176.92 112.959 176.731 112.862 176.583 112.714C176.436 112.567 176.339 112.377 176.306 112.172L175.938 109.819L175.571 112.172C175.538 112.377 175.441 112.567 175.294 112.714C175.146 112.862 174.956 112.959 174.751 112.992L172.398 113.359L174.751 113.733C174.957 113.765 175.147 113.862 175.295 114.009C175.442 114.156 175.539 114.347 175.571 114.553L175.938 116.899L176.306 114.553C176.338 114.347 176.435 114.156 176.582 114.009C176.73 113.862 176.92 113.765 177.126 113.733Z" fill="white"/>
</g>
<path d="M88.8204 97.2516C88.8204 97.2516 78.8181 102.085 74.8172 107.941C70.8163 113.797 71.9845 124.609 78.1462 128.106C84.3079 131.603 105.817 144.446 120.988 142.613C136.16 140.781 133.823 125.273 126.157 119.104C118.491 112.935 108.153 107.437 108.153 107.437C108.153 107.437 107.657 104.108 106.985 102.94C106.313 101.772 98.6548 94.2509 88.8204 97.2516Z" fill="#263238" stroke="#263238" stroke-width="0.75" stroke-linecap="round" stroke-linejoin="round"/>
<path d="M129.431 122.754C106.724 115.805 91.7662 128.243 87.0781 133.008C96.4696 137.887 110.305 143.881 120.994 142.59C133.684 141.056 134.12 129.946 129.431 122.754Z" fill="white" stroke="#263238" stroke-width="0.75" stroke-linecap="round" stroke-linejoin="round"/>
<path d="M113.992 120.922C113.992 120.922 127.331 131.611 122.658 142.255" stroke="#263238" stroke-width="0.75" stroke-linecap="round" stroke-linejoin="round"/>
<path d="M70.2041 92.5942L64.8594 117.524H69.1581L79.756 97.8779C79.756 97.8779 77.6868 91.5787 70.2041 92.5942Z" fill="white" stroke="#263238" stroke-width="0.75" stroke-linecap="round" stroke-linejoin="round"/>
<path d="M137.387 80.4999C133.012 75.1552 127.232 70.1998 116.642 69.3523C116.642 69.3523 107.617 69.0698 95.3389 74.2924C85.7413 78.3697 75.487 87.2725 70.2109 92.6172C74.9296 93.816 77.7394 95.7477 79.7704 97.9009C81.8625 95.9081 83.6873 94.1748 85.0312 93.083C89.5513 89.4104 96.1864 86.3104 96.1864 86.3104C96.1864 86.3104 88.9863 96.1829 87.5737 98.7255C86.1612 101.268 87.1538 105.361 94.6288 106.491C102.104 107.621 103.944 106.208 106.906 104.513C109.869 102.818 113.542 101.268 114.954 101.268C117.777 101.468 120.579 100.656 122.857 98.9775C126.522 96.4349 128.079 89.2424 129.347 88.6774C130.217 88.288 137.921 98.3361 143.923 105.88L144.442 105.613C147.053 104.269 149.092 101.528 150.489 99.1149C145.633 92.0217 140.22 83.9664 137.387 80.4999Z" fill="#FBD362" stroke="#263238" stroke-width="0.75" stroke-linecap="round" stroke-linejoin="round"/>
<path d="M112.091 74.0938C112.091 74.0938 109.098 81.2939 115.092 84.0197" stroke="#263238" stroke-width="0.75" stroke-linecap="round" stroke-linejoin="round"/>
<path d="M96.1797 86.2874L102.685 84.3633" stroke="#263238" stroke-width="0.75" stroke-linecap="round" stroke-linejoin="round"/>
<path d="M96.1016 98.8474C96.1016 98.8474 100.202 102.467 109.799 98.374" stroke="#263238" stroke-width="0.75" stroke-linecap="round" stroke-linejoin="round"/>
<path d="M133.551 85.9365C131.184 86.2496 129.344 88.6852 129.344 88.6852C132.075 88.1034 134.852 87.7636 137.643 87.6697" stroke="#263238" stroke-width="0.75" stroke-linecap="round" stroke-linejoin="round"/>
<path d="M96.3984 86.883C96.3984 86.883 100.804 86.883 105.057 86.7227" stroke="#263238" stroke-width="0.75" stroke-linecap="round" stroke-linejoin="round"/>
<path d="M98.7578 96.9541C98.7578 96.9541 99.2312 99.7945 105.37 99.4738" stroke="#263238" stroke-width="0.75" stroke-linecap="round" stroke-linejoin="round"/>
<path d="M115.09 71.7494C115.09 71.7494 114.105 76.8269 114.807 79.5069C115.51 82.1869 118.052 85.2945 119.893 82.0495C121.733 78.8045 122.71 75.1777 122.71 73.4444C122.71 71.7112 116.357 68.5044 115.09 71.7494Z" fill="white" stroke="#263238" stroke-width="0.75" stroke-linecap="round" stroke-linejoin="round"/>
<path d="M129.338 65.3973C129.338 65.3973 133.285 64.5497 136.676 60.1747C140.066 55.7996 135.691 55.2423 134.278 51.0123C132.866 46.7823 137.836 48.1872 130.644 40.8496C123.451 33.512 111.731 36.0546 106.211 38.4521C100.69 40.8496 100.866 48.8973 96.903 49.4623C92.9403 50.0273 91.2528 46.2173 86.4578 46.2173C81.6628 46.2173 76.5777 51.2948 78.5552 55.5248C80.5328 59.7547 84.3428 57.9299 84.6253 57.2198C84.9079 56.5097 82.6478 57.3649 82.5027 55.2423C82.3577 53.1196 87.5802 54.2573 89.1378 57.0824C90.3977 59.373 88.0842 62.6256 88.1605 65.0308C88.3209 69.8563 94.2306 72.941 98.0254 73.6053C103.149 74.4986 109.379 74.1856 114.021 71.643C119.725 68.5125 117.076 62.0224 121.275 60.3274C125.475 58.6324 127.628 61.1749 127.628 61.1749L129.338 65.3973Z" fill="#263238" stroke="#263238" stroke-width="0.75" stroke-linecap="round" stroke-linejoin="round"/>
<path d="M86.2092 48.8367C85.4821 48.5208 84.6819 48.4114 83.8966 48.5205C83.1113 48.6296 82.3713 48.953 81.7578 49.4552" stroke="white" stroke-width="0.75" stroke-linecap="round" stroke-linejoin="round"/>
<path d="M123.864 52.7916C123.864 52.7916 123.864 44.3927 117.97 42.6824C112.075 40.9721 105.341 48.5769 101.936 53.3719C98.5302 58.1669 93.5367 57.0216 89.8641 51.967C89.5187 51.4797 89.1358 51.0202 88.7188 50.5926" stroke="white" stroke-width="0.75" stroke-linecap="round" stroke-linejoin="round"/>
<path d="M90.4609 68.543C93.5151 70.5053 95.8057 71.0703 100.288 69.6654C104.77 68.2605 104.22 60.9611 108.144 57.0365C112.069 53.1119 119.094 54.5092 119.094 54.5092C119.094 54.5092 111.237 50.2945 105.06 54.7841C98.8827 59.2736 99.4401 66.8556 93.8281 68.2605" stroke="white" stroke-width="0.75" stroke-linecap="round" stroke-linejoin="round"/>
<path d="M127.805 53.6624C127.805 53.6624 133.149 52.2574 132.859 47.4854" stroke="white" stroke-width="0.75" stroke-linecap="round" stroke-linejoin="round"/>
<path d="M83.8203 107.766C83.8203 107.766 98.3275 109.598 105.657 114.637" stroke="white" stroke-width="0.75" stroke-linecap="round" stroke-linejoin="round"/>
<path d="M124.739 55.4788C123.835 55.2196 122.876 55.2258 121.976 55.4965C121.076 55.7673 120.272 56.2912 119.661 57.0058C117.264 59.5408 117.371 60.8235 115.37 62.404C114.774 62.9256 114.022 63.236 113.231 63.2871C112.44 63.3381 111.654 63.1271 110.995 62.6865C110.148 62.2666 109.163 62.5491 108.88 64.519C108.598 66.4889 111.278 68.0466 111.705 68.0466C112.13 68.0696 112.554 68.1181 112.973 68.1916C112.973 68.1916 112.973 71.7192 115.37 73.8342C117.768 75.9491 122.57 79.3392 125.815 78.6368C129.06 77.9343 130.328 70.4517 130.328 66.6416C130.209 62.7785 129.448 58.962 128.075 55.349C127.083 53.1194 124.739 55.4788 124.739 55.4788Z" fill="white" stroke="#263238" stroke-width="0.75" stroke-linecap="round" stroke-linejoin="round"/>
<path d="M122.057 64.0532C122.057 64.8167 121.782 65.4733 121.431 65.4733C121.079 65.4733 120.797 64.8396 120.797 64.0532C120.797 63.2667 121.079 62.6406 121.431 62.6406C121.782 62.6406 122.057 63.2744 122.057 64.0532Z" fill="#263238"/>
<path d="M127.088 63.5805C127.088 64.344 126.805 65.0007 126.462 65.0007C126.118 65.0007 125.828 64.3669 125.828 63.5805C125.828 62.7941 126.111 62.168 126.462 62.168C126.813 62.168 127.088 62.8017 127.088 63.5805Z" fill="#263238"/>
<path d="M119.07 61.1899C119.07 61.1899 120.009 59.7774 122.376 60.4264" stroke="#263238" stroke-width="0.75" stroke-linecap="round" stroke-linejoin="round"/>
<path d="M125.047 60.4266C125.047 60.4266 126.62 58.6933 128.04 60.4266" stroke="#263238" stroke-width="0.75" stroke-linecap="round" stroke-linejoin="round"/>
<path d="M124.891 63.5801C124.891 63.5801 125.043 66.7335 125.99 66.7335C126.937 66.7335 126.616 68.146 125.356 68.6194" stroke="#263238" stroke-width="0.75" stroke-linecap="round" stroke-linejoin="round"/>
<path d="M124.096 71.7729C124.096 71.7729 121.264 73.0327 120.164 70.1924" stroke="#263238" stroke-width="0.75" stroke-linecap="round" stroke-linejoin="round"/>
<path d="M124.761 141.469C124.761 141.469 108.727 127.405 92.1121 122.617C75.4975 117.83 56.3786 120.082 39.7717 115.585C23.1648 111.088 13.6053 104.896 13.6053 104.896L12.7578 119.807L124.234 149.921L200.496 128.817L208.093 113.34C208.093 113.34 198.809 118.12 182.202 122.06C165.595 126 146.987 125.992 136.565 129.909C126.143 133.826 124.761 141.469 124.761 141.469Z" fill="white" stroke="#263238" stroke-width="0.75" stroke-linecap="round" stroke-linejoin="round"/>
<path d="M11.0702 108.262C11.0702 108.262 29.67 119.524 71.5728 123.464C99.1746 126.052 124.761 141.468 124.761 141.468C135.972 134.3 148.879 130.222 162.174 129.648C184.126 128.808 209.17 120.081 209.17 120.081L204.397 129.908L122.508 145.942L9.38281 116.393L11.0702 108.262Z" fill="white" stroke="#263238" stroke-width="0.75" stroke-linecap="round" stroke-linejoin="round"/>
<path d="M7.97907 111.645C23.8095 118.795 40.7532 123.165 58.067 124.564C88.1732 126.816 123.914 141.445 123.914 141.445C123.914 141.445 142.766 131.321 163.618 131.321C179.106 131.189 194.515 129.108 209.484 125.129C209.018 126.684 208.903 128.323 209.146 129.928C209.389 131.533 209.984 133.065 210.889 134.413L123.632 153.005L7.41406 119.219L7.97907 111.645Z" fill="white" stroke="#263238" stroke-width="0.75" stroke-linecap="round" stroke-linejoin="round"/>
<path d="M8.54257 118.325L119.973 146.255V150.195L129.54 150.478V145.942L213.399 132.718C213.399 132.718 217.056 131.87 213.964 136.093C210.872 140.315 156.836 187.311 156.836 187.311L96.8989 193.503L6 173.552L6.54212 119.868C6.54381 119.624 6.6009 119.384 6.70908 119.166C6.81726 118.948 6.97367 118.758 7.16646 118.609C7.35925 118.46 7.58337 118.358 7.8218 118.308C8.06023 118.259 8.30672 118.265 8.54257 118.325Z" fill="#FBD362"/>
<mask id="mask0_1928_3022" style="mask-type:luminance" maskUnits="userSpaceOnUse" x="6" y="118" width="210" height="76">
<path d="M8.54257 118.326L119.973 146.256V150.196L129.54 150.479V145.943L213.399 132.719C213.399 132.719 217.056 131.871 213.964 136.094C210.872 140.316 156.836 187.312 156.836 187.312L96.8989 193.504L6 173.553L6.54212 119.869C6.54381 119.625 6.6009 119.385 6.70908 119.167C6.81726 118.949 6.97367 118.759 7.16646 118.61C7.35925 118.461 7.58337 118.359 7.8218 118.309C8.06023 118.26 8.30672 118.266 8.54257 118.326Z" fill="white"/>
</mask>
<g mask="url(#mask0_1928_3022)">
<path opacity="0.3" d="M119.973 150.197V146.257L6.5652 117.838L6.00781 173.553L96.8991 193.535L98.5254 193.367L122.516 150.273L119.973 150.197Z" fill="black"/>
</g>
<path d="M8.54257 118.325L119.973 146.255V150.195L129.54 150.478V145.942L213.399 132.718C213.399 132.718 217.056 131.87 213.964 136.093C210.872 140.315 156.836 187.311 156.836 187.311L96.8989 193.503L6 173.552L6.54212 119.868C6.54381 119.624 6.6009 119.384 6.70908 119.166C6.81726 118.948 6.97367 118.758 7.16646 118.609C7.35925 118.46 7.58337 118.358 7.8218 118.308C8.06023 118.259 8.30672 118.265 8.54257 118.325Z" stroke="#263238" stroke-width="0.75" stroke-linecap="round" stroke-linejoin="round"/>
<path d="M119.974 150.195L94.9297 193.534L99.717 193.808L129.541 150.478L119.974 150.195Z" fill="#FBD362" stroke="#263238" stroke-width="0.75" stroke-linecap="round" stroke-linejoin="round"/>
<path d="M203.562 134.49C203.562 134.49 211.038 135.887 209.48 140.873L213.969 136.108C213.969 136.108 216.023 133.55 215.084 133.054C214.145 132.558 203.562 134.49 203.562 134.49Z" fill="#263238"/>
<path d="M18.8785 121.159C18.8785 121.159 8.30353 124.083 6.66193 131.986L6.57031 119.869C6.57031 119.869 6.891 118.044 8.56314 118.341C10.2353 118.639 18.8785 121.159 18.8785 121.159Z" fill="#263238"/>
<path d="M6.10708 169.842L11.4213 174.904L6.00781 173.553L6.10708 169.842Z" fill="#263238"/>
<path d="M153.016 187.67L160.223 184.127L156.429 187.418L153.016 187.67Z" fill="#263238"/>
<path d="M150.488 99.123L170.768 123.434L165.66 124.243L143.922 105.919C143.922 105.919 149.549 102.231 150.488 99.123Z" fill="white" stroke="#263238" stroke-width="0.75" stroke-linecap="round" stroke-linejoin="round"/>
<path d="M60.5539 115.295C60.5539 115.295 59.5384 114.066 59.2788 115.165C59.0192 116.265 56.721 120.082 58.5153 120.35C60.3096 120.617 61.3251 116.257 61.3251 116.257L60.5539 115.295Z" fill="white" stroke="#263238" stroke-width="0.75" stroke-linecap="round" stroke-linejoin="round"/>
<path d="M62.9901 115.149C62.9901 115.149 61.967 113.92 61.715 115.012C61.4631 116.103 59.1572 119.929 60.9515 120.204C62.7458 120.479 63.7689 116.103 63.7689 116.103L62.9901 115.149Z" fill="white" stroke="#263238" stroke-width="0.75" stroke-linecap="round" stroke-linejoin="round"/>
<path d="M65.4211 115.058C65.4211 115.058 64.2071 113.691 63.8941 114.905C63.581 116.119 60.8399 120.364 62.9854 120.67C65.131 120.975 66.3221 116.088 66.3221 116.088L65.4211 115.058Z" fill="white" stroke="#263238" stroke-width="0.75" stroke-linecap="round" stroke-linejoin="round"/>
<path d="M67.545 115.516L71.6375 119.455H66.7891L67.545 115.516Z" fill="white" stroke="#263238" stroke-width="0.75" stroke-linecap="round" stroke-linejoin="round"/>
<path d="M67.5383 115.516C67.5383 115.516 66.3243 114.149 66.0112 115.363C65.6982 116.577 62.9571 120.822 65.1026 121.12C67.2482 121.418 68.4393 116.539 68.4393 116.539L67.5383 115.516Z" fill="white" stroke="#263238" stroke-width="0.75" stroke-linecap="round" stroke-linejoin="round"/>
<path d="M176.275 119.051C176.275 119.051 177.092 117.677 177.52 118.715C177.947 119.754 180.81 123.174 179.093 123.724C177.375 124.274 175.672 120.12 175.672 120.12L176.275 119.051Z" fill="white" stroke="#263238" stroke-width="0.75" stroke-linecap="round" stroke-linejoin="round"/>
<path d="M173.877 119.28C173.877 119.28 174.694 117.905 175.121 118.944C175.549 119.982 178.42 123.403 176.694 123.953C174.968 124.502 173.273 120.349 173.273 120.349L173.877 119.28Z" fill="white" stroke="#263238" stroke-width="0.75" stroke-linecap="round" stroke-linejoin="round"/>
<path d="M171.46 119.577C171.46 119.577 172.445 118.05 172.933 119.188C173.422 120.326 176.751 124.105 174.735 124.739C172.719 125.372 170.727 120.768 170.727 120.768L171.46 119.577Z" fill="white" stroke="#263238" stroke-width="0.75" stroke-linecap="round" stroke-linejoin="round"/>
<path d="M169.436 120.364L166.008 124.9L170.803 124.136L169.436 120.364Z" fill="white" stroke="#263238" stroke-width="0.75" stroke-linecap="round" stroke-linejoin="round"/>
<path d="M169.436 120.364C169.436 120.364 170.413 118.837 170.91 119.975C171.406 121.113 174.727 124.884 172.712 125.518C170.696 126.152 168.703 121.555 168.703 121.555L169.436 120.364Z" fill="white" stroke="#263238" stroke-width="0.75" stroke-linecap="round" stroke-linejoin="round"/>
<defs>
<clipPath id="clip0_1928_3022">
<rect width="206.25" height="206.25" fill="white" transform="translate(28)"/>
</clipPath>
</defs>
</svg>
