<svg width="215" height="210" viewBox="0 0 215 210" fill="none" xmlns="http://www.w3.org/2000/svg">
<g clip-path="url(#clip0_1353_3633)">
<rect x="8.25" y="0.000976562" width="206.25" height="206.25" rx="103.125" fill="#EAD2EE"/>
<path d="M84.9673 88.3305C84.9673 88.3305 50.5522 94.8715 46.7587 100.084C42.9651 105.297 33.4948 133.007 32.6942 134.208C31.8937 135.409 15.6641 159.681 13.2624 166.658C10.8607 173.636 12.662 179.886 18.7208 183.688C24.7796 187.491 30.9385 185.69 33.9406 185.69C36.9427 185.69 44.7573 179.085 45.3577 176.274C45.9581 173.463 47.7412 165.903 47.7412 165.903L58.9581 146.271L65.7629 187.136H159.32L165.688 148.072L185.356 184.098H217.788L197.555 141.031L186.339 120.799C186.339 120.799 181.926 105.77 175.112 99.5657C168.299 93.3613 158.892 91.3781 155.69 91.1507C152.487 90.9232 143.863 88.9491 139.46 87.9393C135.057 86.9295 125.814 83.9365 125.814 83.9365L84.9673 88.3305Z" fill="white"/>
<path d="M159.317 187.546H65.7601C65.6526 187.545 65.5489 187.507 65.4673 187.437C65.3857 187.367 65.3315 187.27 65.3143 187.164L58.7188 147.563L48.1659 166.031C47.984 166.768 46.3465 173.746 45.7733 176.375C45.1092 179.477 37.0126 186.145 33.9468 186.145C33.3464 186.145 32.5913 186.227 31.7271 186.318C28.3975 186.655 23.3667 187.173 18.4814 184.071C12.4135 180.232 10.3757 173.827 12.8866 166.513C15.1427 159.918 29.4619 138.312 32.3002 134.054L32.373 133.954C32.5823 133.626 33.7194 130.561 35.0385 127.004C38.2953 118.206 43.7537 103.496 46.4374 99.8118C50.3038 94.5171 83.5362 88.1581 84.9463 87.8852L125.811 83.473C125.874 83.4595 125.939 83.4595 126.002 83.473C126.093 83.473 135.245 86.4842 139.585 87.4758L140.494 87.6851C145.043 88.7312 152.748 90.487 155.705 90.669C158.662 90.8509 168.359 92.7705 175.41 99.2022C182.115 105.307 186.418 119.48 186.745 120.59L197.935 140.786L218.185 183.88C218.221 183.947 218.24 184.022 218.24 184.098C218.24 184.174 218.221 184.249 218.185 184.317C218.144 184.381 218.088 184.433 218.021 184.47C217.954 184.506 217.879 184.526 217.803 184.526H185.353C185.273 184.526 185.193 184.505 185.124 184.463C185.055 184.421 184.999 184.361 184.962 184.289L165.93 149.41L159.735 187.164C159.719 187.266 159.669 187.359 159.593 187.428C159.517 187.498 159.419 187.539 159.317 187.546ZM66.1513 186.636H158.944L165.312 147.955C165.329 147.862 165.374 147.777 165.44 147.71C165.507 147.643 165.592 147.599 165.685 147.582C165.779 147.567 165.874 147.582 165.959 147.624C166.044 147.667 166.114 147.734 166.158 147.818L185.663 183.634H217.13L197.207 141.214L185.945 121.008C185.941 120.978 185.941 120.948 185.945 120.917C185.899 120.763 181.487 105.943 174.855 99.8845C168.032 93.6711 158.48 91.7698 155.696 91.5969C152.676 91.4059 144.952 89.641 140.349 88.5948L139.439 88.3765C135.3 87.4667 126.848 84.7375 125.866 84.3918L85.1191 88.7859C84.2094 88.9678 50.8132 95.3905 47.1925 100.349C44.5816 103.924 39.1505 118.543 35.9119 127.322C34.2289 131.871 33.401 134.072 33.1827 134.463L33.119 134.554C30.2806 138.803 16.0252 160.318 13.7963 166.813C11.4037 173.8 13.2596 179.659 19.0182 183.307C23.6487 186.236 28.4885 185.736 31.6907 185.408C32.6004 185.317 33.3555 185.235 34.0014 185.235C36.7306 185.235 44.3996 178.867 44.9819 176.184C45.5641 173.5 47.3654 165.831 47.3836 165.758C47.3797 165.716 47.3797 165.673 47.3836 165.631L58.5823 145.999C58.6326 145.919 58.7051 145.856 58.7908 145.818C58.8764 145.779 58.9716 145.766 59.0645 145.78C59.156 145.798 59.2401 145.843 59.3051 145.91C59.3702 145.976 59.4132 146.061 59.4284 146.153L66.1513 186.636Z" fill="#263238"/>
<path d="M42.5782 164.748C42.4685 164.747 42.3624 164.709 42.278 164.639C32.0982 155.933 21.2906 157.461 21.1814 157.479C21.0623 157.495 20.9417 157.464 20.845 157.393C20.7483 157.321 20.683 157.215 20.6629 157.097C20.6525 157.038 20.6543 156.977 20.6681 156.918C20.6819 156.86 20.7074 156.805 20.7431 156.756C20.7789 156.708 20.824 156.667 20.8759 156.636C20.9277 156.606 20.9853 156.586 21.0449 156.578C21.1541 156.578 32.3529 154.959 42.8785 163.947C42.9488 164.007 42.9992 164.088 43.0227 164.177C43.0463 164.267 43.042 164.361 43.0103 164.448C42.9787 164.535 42.9212 164.611 42.8456 164.664C42.7701 164.718 42.6799 164.747 42.5873 164.748H42.5782Z" fill="#263238"/>
<path d="M174.183 163.565C180.333 159.635 191.568 152.994 201.757 149.919L197.582 141.031L186.365 120.799C186.365 120.799 181.952 105.77 175.139 99.5657C168.325 93.3613 158.918 91.3781 155.716 91.1507C152.514 90.9232 143.889 88.9491 139.486 87.9393C135.083 86.9295 125.84 83.9365 125.84 83.9365L84.9662 88.3305C84.9662 88.3305 53.7534 93.4068 46.7575 100.084C38.0423 108.381 33.4937 133.007 32.6931 134.208C32.3292 134.763 28.7176 140.158 24.6875 146.508C29.0087 150.047 38.7974 157.133 50.9605 160.154L58.9388 146.189L65.7436 187.054H159.318L165.687 147.991L174.183 163.565Z" fill="#FBD362"/>
<path d="M159.322 187.546H65.7649C65.6574 187.545 65.5537 187.506 65.4721 187.436C65.3905 187.367 65.3363 187.27 65.3191 187.164L58.7236 147.563L51.373 160.445C51.324 160.533 51.2475 160.601 51.1553 160.641C51.0632 160.68 50.9606 160.688 50.8635 160.663C38.8005 157.625 29.1119 150.729 24.4177 146.89C24.3321 146.82 24.2748 146.722 24.2564 146.613C24.238 146.504 24.2597 146.393 24.3176 146.299C27.6472 141.05 30.6857 136.41 32.2504 134.108L32.3414 133.981C32.4779 133.745 32.8873 132.162 33.3148 130.497C35.1343 123.283 39.5283 106.389 46.4604 99.7752C53.3926 93.1615 83.6502 88.1216 84.9238 87.9487L125.816 83.5365C125.879 83.523 125.944 83.523 126.007 83.5365C126.098 83.5365 135.25 86.5477 139.589 87.5393L140.499 87.7486C145.048 88.7948 152.753 90.5505 155.71 90.7325C158.667 90.9144 168.364 92.834 175.415 99.2657C182.119 105.37 186.422 119.544 186.75 120.654L197.94 140.849L202.133 149.756C202.161 149.816 202.175 149.881 202.175 149.947C202.175 150.013 202.161 150.078 202.133 150.138C202.107 150.197 202.068 150.249 202.019 150.292C201.971 150.334 201.913 150.365 201.851 150.383C191.626 153.486 180.263 160.245 174.396 164.029C174.344 164.064 174.286 164.088 174.225 164.099C174.164 164.11 174.101 164.108 174.041 164.093C173.918 164.058 173.814 163.976 173.75 163.866L165.926 149.492L159.731 187.246C159.7 187.331 159.645 187.405 159.572 187.458C159.499 187.512 159.412 187.542 159.322 187.546ZM66.1561 186.636H158.949L165.317 147.954C165.334 147.862 165.378 147.776 165.445 147.71C165.512 147.643 165.597 147.598 165.69 147.581C165.783 147.567 165.879 147.582 165.964 147.624C166.049 147.666 166.118 147.734 166.163 147.818L174.396 162.92C180.309 159.162 191.198 152.749 201.16 149.628L197.212 141.213L185.949 121.008C185.946 120.978 185.946 120.948 185.949 120.917C185.904 120.763 181.492 105.943 174.86 99.8844C168.037 93.6709 158.485 91.7696 155.701 91.5967C152.68 91.4057 144.957 89.6408 140.354 88.5946L139.444 88.3763C135.305 87.4665 126.853 84.7374 125.871 84.3917L85.1057 88.7857C84.8146 88.7857 53.9657 93.9074 47.1427 100.412C40.3197 106.917 36.0895 123.565 34.2518 130.697C33.9903 131.981 33.6221 133.241 33.1511 134.463L33.0601 134.591C31.5681 136.838 28.6024 141.313 25.3638 146.417C30.058 150.211 39.3281 156.697 50.8362 159.663L58.6417 146.017C58.692 145.937 58.7645 145.874 58.8501 145.836C58.9358 145.797 59.031 145.784 59.1239 145.798C59.2154 145.816 59.2994 145.861 59.3645 145.928C59.4296 145.994 59.4726 146.079 59.4878 146.171L66.1561 186.636Z" fill="#263238"/>
<path d="M104.15 119.034C100.511 119.034 97.2 117.596 94.0978 114.713C88.2482 109.254 85.6555 94.0617 85.5464 93.4158L83.9998 88.667C83.9621 88.5536 83.9705 88.4298 84.0233 88.3226C84.0761 88.2153 84.1689 88.1332 84.2818 88.0938L84.8459 87.9028H84.9459L125.811 83.4906C125.874 83.4771 125.939 83.4771 126.002 83.4906C126.002 83.4906 128.358 84.2639 131.251 85.1463C131.319 85.1703 131.381 85.2088 131.433 85.259C131.485 85.3093 131.525 85.3701 131.551 85.4374L132.297 87.5844C132.307 87.6416 132.307 87.7 132.297 87.7572L132.097 91.9602C131.897 96.2541 128.713 105.606 118.087 113.339C112.92 117.142 108.317 119.034 104.15 119.034ZM84.9641 88.8125L86.3924 93.1974C86.3924 93.4248 89.0579 108.799 94.68 114.039C100.948 119.88 108.217 119.425 117.542 112.611C127.894 105.042 130.987 96.0449 131.188 91.9147L131.388 87.8027L130.742 85.9833C128.267 85.2191 126.193 84.5641 125.784 84.4185L85.0642 88.8125H84.9641Z" fill="#263238"/>
<path d="M88.0061 128.249C87.922 128.249 87.8395 128.226 87.7674 128.183C87.6953 128.14 87.6363 128.078 87.5967 128.003C86.8382 126.479 86.1847 124.905 85.6408 123.291C85.6028 123.176 85.6109 123.051 85.6636 122.943C85.7163 122.834 85.8093 122.75 85.9228 122.709C86.0362 122.671 86.16 122.68 86.2672 122.732C86.3745 122.785 86.4566 122.878 86.4959 122.991C87.0286 124.566 87.6668 126.104 88.4064 127.594C88.4343 127.647 88.4513 127.705 88.4564 127.765C88.4614 127.824 88.4544 127.884 88.4357 127.941C88.4171 127.998 88.3871 128.051 88.3477 128.096C88.3082 128.141 88.2601 128.178 88.2062 128.204C88.1446 128.236 88.0756 128.252 88.0061 128.249Z" fill="#263238"/>
<path d="M84.7487 119.088C84.6463 119.089 84.5467 119.056 84.4658 118.993C84.3849 118.93 84.3275 118.842 84.3029 118.743C82.5646 111.195 81.5683 103.495 81.3281 95.7539C81.3302 95.6346 81.3773 95.5205 81.46 95.4345C81.5426 95.3484 81.6548 95.2968 81.7739 95.2899C81.8343 95.2861 81.8948 95.2949 81.9516 95.3157C82.0084 95.3365 82.0602 95.3689 82.1038 95.4108C82.1475 95.4527 82.1819 95.5033 82.205 95.5592C82.228 95.6151 82.2392 95.6752 82.2379 95.7357C82.4742 103.409 83.4584 111.042 85.1763 118.524C85.1913 118.582 85.1948 118.643 85.1864 118.702C85.1781 118.761 85.1582 118.818 85.1277 118.87C85.0973 118.921 85.057 118.966 85.0091 119.002C84.9613 119.038 84.9068 119.065 84.8488 119.079L84.7487 119.088Z" fill="#263238"/>
<path d="M75.3743 109.828C75.279 109.824 75.1874 109.79 75.1123 109.731C75.0372 109.673 74.9825 109.592 74.9558 109.5C73.5367 104.206 76.8299 95.1811 76.9754 94.799C77.0165 94.6856 77.1009 94.5932 77.2101 94.542C77.3192 94.4908 77.4443 94.4851 77.5577 94.5261C77.6696 94.5691 77.7605 94.6537 77.8113 94.7622C77.8622 94.8708 77.8691 94.9948 77.8306 95.1083C77.8306 95.1993 74.4919 104.251 75.8383 109.264C75.8533 109.322 75.8568 109.382 75.8484 109.441C75.8401 109.501 75.8202 109.558 75.7897 109.609C75.7593 109.661 75.719 109.706 75.6711 109.742C75.6233 109.778 75.5688 109.804 75.5108 109.819L75.3743 109.828Z" fill="#263238"/>
<path d="M153.099 133.463C153.008 133.464 152.918 133.437 152.843 133.384C152.768 133.332 152.711 133.258 152.681 133.171C152.141 131.743 151.703 130.277 151.371 128.787C151.357 128.729 151.356 128.668 151.366 128.61C151.376 128.551 151.398 128.495 151.43 128.445C151.463 128.395 151.505 128.352 151.554 128.319C151.603 128.285 151.658 128.262 151.716 128.25C151.775 128.236 151.836 128.235 151.895 128.245C151.954 128.255 152.011 128.277 152.061 128.309C152.112 128.341 152.156 128.383 152.19 128.432C152.225 128.481 152.249 128.537 152.262 128.595C152.577 130.04 152.996 131.46 153.518 132.844C153.54 132.9 153.55 132.96 153.549 133.02C153.547 133.08 153.534 133.14 153.509 133.195C153.485 133.25 153.45 133.299 153.406 133.341C153.362 133.382 153.31 133.414 153.254 133.435L153.099 133.463Z" fill="#263238"/>
<path d="M151.549 127.795C151.443 127.793 151.341 127.755 151.26 127.687C151.179 127.619 151.124 127.526 151.103 127.422C149.238 117.415 151.039 106.198 151.057 106.089C151.077 105.968 151.143 105.86 151.242 105.789C151.341 105.717 151.464 105.688 151.585 105.707C151.706 105.726 151.814 105.793 151.885 105.892C151.957 105.991 151.986 106.114 151.967 106.235C151.967 106.344 150.148 117.37 152.022 127.249C152.033 127.309 152.033 127.369 152.021 127.429C152.01 127.488 151.986 127.544 151.952 127.594C151.918 127.644 151.875 127.687 151.824 127.72C151.774 127.753 151.717 127.775 151.658 127.786L151.549 127.795Z" fill="#263238"/>
<path d="M144.888 128.25C144.808 128.249 144.731 128.228 144.662 128.188C144.593 128.148 144.536 128.091 144.497 128.022C142.677 124.802 140.921 117.788 140.858 117.497C140.828 117.376 140.847 117.248 140.911 117.142C140.975 117.035 141.078 116.958 141.199 116.928C141.32 116.898 141.447 116.917 141.554 116.981C141.66 117.045 141.737 117.149 141.767 117.269C141.767 117.342 143.587 124.465 145.325 127.576C145.355 127.628 145.375 127.685 145.382 127.745C145.39 127.804 145.386 127.865 145.37 127.923C145.354 127.98 145.326 128.034 145.288 128.081C145.251 128.128 145.204 128.167 145.152 128.195C145.071 128.237 144.979 128.256 144.888 128.25Z" fill="#263238"/>
<path d="M165.732 148.483C165.639 148.485 165.547 148.46 165.468 148.41L157.654 142.997C157.556 142.926 157.491 142.82 157.47 142.701C157.45 142.582 157.477 142.46 157.545 142.36C157.614 142.263 157.719 142.198 157.836 142.177C157.954 142.157 158.074 142.183 158.172 142.251L163.704 146.081L157.153 137.284C157.081 137.187 157.05 137.066 157.067 136.947C157.084 136.827 157.148 136.719 157.244 136.647C157.342 136.577 157.462 136.547 157.581 136.564C157.7 136.581 157.807 136.643 157.881 136.738L166.069 147.764C166.133 147.85 166.163 147.957 166.155 148.064C166.146 148.17 166.1 148.271 166.023 148.346C165.948 148.428 165.843 148.477 165.732 148.483Z" fill="#263238"/>
<path d="M58.9583 146.681C58.8543 146.683 58.7528 146.649 58.6714 146.584C58.59 146.519 58.5338 146.428 58.5126 146.326C58.5126 146.217 55.8925 134.864 54.5098 129.951C53.127 125.039 53.2816 116.36 53.2907 115.996C53.2907 115.936 53.3028 115.876 53.3263 115.821C53.3498 115.766 53.3843 115.716 53.4276 115.674C53.471 115.632 53.5223 115.6 53.5785 115.579C53.6347 115.557 53.6946 115.548 53.7547 115.55C53.8144 115.551 53.8733 115.564 53.9281 115.588C53.9828 115.612 54.0323 115.647 54.0737 115.69C54.1151 115.733 54.1476 115.784 54.1693 115.839C54.1911 115.895 54.2016 115.954 54.2004 116.014C54.2004 116.105 54.0185 124.82 55.3831 129.706C56.7477 134.591 59.3768 146.081 59.4041 146.154C59.4175 146.212 59.4192 146.273 59.4091 146.332C59.3989 146.391 59.3771 146.448 59.345 146.498C59.3129 146.549 59.271 146.593 59.2218 146.628C59.1726 146.662 59.1171 146.686 59.0584 146.699L58.9583 146.681Z" fill="#263238"/>
<path d="M51.9381 129.06C51.8541 129.058 51.7722 129.033 51.7016 128.987C48.3961 126.851 45.7106 123.883 43.9143 120.381C43.8723 120.274 43.8723 120.155 43.9145 120.048C43.9567 119.941 44.0378 119.854 44.1416 119.804C44.2454 119.755 44.3641 119.746 44.4738 119.781C44.5836 119.815 44.6762 119.89 44.733 119.99C46.4758 123.308 49.0373 126.126 52.1746 128.177C52.2764 128.24 52.3496 128.339 52.3785 128.455C52.4074 128.571 52.3898 128.693 52.3293 128.796C52.2945 128.871 52.2396 128.936 52.1706 128.982C52.1016 129.029 52.0212 129.056 51.9381 129.06Z" fill="#263238"/>
<path d="M91.4062 100.157C91.4062 100.157 94.6085 110.373 103.024 112.975C111.439 115.577 124.857 99.5564 125.867 95.1442C126.529 91.9816 126.864 88.7594 126.868 85.5284C126.868 84.9279 125.257 70.3086 125.257 70.3086C121.219 76.7546 116.736 82.9103 111.839 88.7306C104.07 97.9462 91.4062 100.157 91.4062 100.157Z" fill="white"/>
<path d="M104.975 113.713C104.264 113.716 103.556 113.615 102.874 113.412C94.3312 110.765 91.0926 100.676 90.9561 100.294C90.9384 100.232 90.9332 100.167 90.941 100.103C90.9489 100.039 90.9695 99.9771 91.0016 99.9212C91.0354 99.8655 91.0803 99.8173 91.1335 99.7797C91.1867 99.7422 91.2471 99.716 91.3109 99.7029C91.4383 99.7029 103.865 97.4194 111.48 88.4404C116.355 82.6314 120.827 76.4945 124.862 70.0729C124.909 69.9905 124.981 69.9254 125.068 69.8877C125.155 69.8499 125.252 69.8415 125.344 69.8637C125.437 69.8826 125.522 69.9307 125.585 70.0011C125.649 70.0715 125.689 70.1604 125.699 70.2549C125.862 71.7559 127.309 84.9197 127.309 85.5292C127.306 88.7944 126.964 92.0504 126.29 95.2452C125.517 98.6384 118.266 107.708 111.443 111.62C109.505 112.867 107.276 113.588 104.975 113.713ZM92.0023 100.494C92.7574 102.514 96.0961 110.356 103.156 112.539C105.284 113.203 107.923 112.63 110.997 110.856C118.066 106.771 124.762 97.9198 125.417 95.045C126.072 91.9154 126.404 88.7267 126.408 85.5292C126.408 85.0926 125.58 77.4236 124.944 71.6559C121.079 77.7177 116.825 83.5219 112.207 89.0317C105.257 97.192 94.495 99.9485 92.0023 100.494Z" fill="#263238"/>
<path d="M91.4062 100.158C91.4062 100.158 94.0081 108.427 100.658 111.984C103.114 109.446 105.862 106.08 107.236 102.559C110.038 95.3452 111.839 88.7314 111.839 88.7314C104.07 97.947 91.4062 100.158 91.4062 100.158Z" fill="#263238"/>
<path d="M100.66 112.439C100.584 112.438 100.509 112.419 100.442 112.384C93.71 108.745 91.0809 100.64 90.9718 100.294C90.954 100.232 90.9489 100.167 90.9567 100.103C90.9645 100.039 90.9851 99.977 91.0172 99.921C91.051 99.8653 91.0959 99.8171 91.1491 99.7796C91.2023 99.742 91.2627 99.7158 91.3266 99.7027C91.4539 99.7027 103.881 97.4193 111.495 88.4402C111.563 88.3623 111.655 88.3095 111.756 88.2908C111.858 88.272 111.963 88.2883 112.054 88.337C112.145 88.3856 112.216 88.4638 112.257 88.5586C112.298 88.6534 112.305 88.7592 112.278 88.8587C112.278 88.9224 110.458 95.5725 107.656 102.723C106.081 106.318 103.815 109.57 100.988 112.293C100.902 112.383 100.784 112.435 100.66 112.439ZM92.0089 100.494C92.6639 102.25 95.2748 108.409 100.569 111.411C103.209 108.834 105.327 105.773 106.81 102.395C108.693 97.5557 110.131 92.9525 110.868 90.478C103.972 97.5284 94.3469 99.9847 92.0089 100.494Z" fill="#263238"/>
<path d="M75.6111 45.8736C75.6111 45.8736 76.6572 69.1445 77.1849 72.647C77.7125 76.1494 81.3787 85.6015 82.2612 88.2215C83.1436 90.8416 88.9113 100.821 93.9785 102.222C99.0457 103.623 102.73 101.695 106.06 100.121C109.389 98.547 116.913 89.7954 118.305 87.3846C119.697 84.9738 122.68 79.197 123.763 76.8863L124.809 74.612C124.809 74.612 125.865 52.3782 126.037 49.5853C126.21 46.7925 128.485 35.2298 125.865 31.2088C123.245 27.1878 113.265 21.9295 102.212 21.5838C91.1583 21.2381 81.3787 23.9855 77.6852 28.8981C73.9917 33.8106 73.3276 42.7169 75.6111 45.8736Z" fill="white"/>
<path d="M97.454 103.132C96.2391 103.129 95.0301 102.961 93.8606 102.632C88.4022 101.14 82.6254 90.7323 81.8249 88.3397C81.6156 87.7029 81.2335 86.6476 80.7696 85.3831C79.3231 81.3985 77.1307 75.376 76.7304 72.6469C76.2209 69.2627 75.2566 48.0296 75.1566 45.9554C72.8913 42.5985 73.519 33.6649 77.3399 28.5614C81.0516 23.6215 90.8221 20.674 102.221 21.0288C112.965 21.3654 123.299 26.3871 126.22 30.8539C128.412 34.229 127.375 42.2164 126.756 46.9925C126.611 48.1024 126.493 48.9757 126.465 49.5124C126.292 52.2416 125.246 74.3117 125.237 74.53C125.246 74.5873 125.246 74.6456 125.237 74.7029L124.182 76.9772C123.099 79.3334 120.097 85.1647 118.723 87.5118C117.35 89.8589 109.672 98.8562 106.269 100.466L105.833 100.676C103.395 101.895 100.729 103.132 97.454 103.132ZM100.329 21.9385C90.0215 21.9385 81.4064 24.6677 78.0677 29.1436C74.4743 33.9379 73.8283 42.6076 75.9753 45.5733C76.0265 45.6459 76.0579 45.7305 76.0663 45.8189C76.0663 46.0555 77.1125 69.1171 77.631 72.5559C78.0222 75.1486 80.1874 81.1165 81.6247 85.0647C82.0887 86.3474 82.4708 87.4027 82.6891 88.0486C83.5988 90.8506 89.321 100.439 94.1062 101.758C98.8914 103.077 102.294 101.376 105.423 99.9388L105.86 99.7295C109.062 98.2194 116.567 89.5042 117.914 87.1389C119.26 84.7736 122.244 79.015 123.318 76.677L124.337 74.4845C124.409 72.938 125.392 52.2143 125.556 49.5397C125.556 48.9666 125.71 48.0842 125.856 46.9561C126.42 42.6167 127.466 34.5292 125.456 31.4361C123.09 27.7972 113.447 22.3388 102.194 22.0204C101.566 21.9749 100.947 21.9658 100.329 21.9658V21.9385Z" fill="#263238"/>
<path d="M76.9995 44.1177C76.9995 42.8987 79.101 42.5439 79.101 42.5439C79.101 42.5439 89.9541 50.7314 96.4313 50.4221C102.909 50.1128 110.778 44.2996 113.716 44.8182C116.655 45.3367 117.046 47.975 116.172 52.3417C115.299 56.7084 114.771 63.0219 116.172 63.1947C117.573 63.3676 120.021 62.285 120.021 62.285C120.021 62.285 119.666 66.8337 121.422 67.0065C123.177 67.1794 124.742 65.087 124.742 64.5593C124.742 64.0317 125.27 57.0359 125.27 57.0359L125.588 56.8812C125.761 53.3333 125.916 50.413 125.97 49.5124C126.143 46.7104 128.417 35.1568 125.797 31.1358C123.177 27.1148 113.198 21.8566 102.144 21.5109C91.0912 21.1652 81.3753 23.9854 77.6818 28.8979C73.9883 33.8105 73.306 42.7167 75.5894 45.8735C75.6076 45.8735 76.9995 45.3458 76.9995 44.1177Z" fill="#263238"/>
<path d="M121.66 67.5064H121.414C119.695 67.3336 119.54 64.4771 119.595 63.0033C118.511 63.4512 117.347 63.6741 116.174 63.6583C116.033 63.6384 115.899 63.5882 115.779 63.5112C115.66 63.4343 115.559 63.3324 115.483 63.2125C114.273 61.5386 115.292 54.7429 115.792 52.2958C116.383 49.3209 116.329 47.4469 115.61 46.4007C115.386 46.0972 115.101 45.8434 114.774 45.6555C114.446 45.4676 114.084 45.3497 113.709 45.309C112.471 45.0907 109.997 46.2188 107.341 47.4014C103.911 48.957 100.063 50.7128 96.4238 50.913C90.2103 51.2496 80.4125 44.1446 78.966 43.0711C78.4293 43.1985 77.4286 43.5533 77.4286 44.1537C77.3858 44.6405 77.2034 45.1047 76.9032 45.4904C76.6031 45.8761 76.1979 46.1669 75.7365 46.3279C75.6437 46.3633 75.5419 46.3673 75.4467 46.3394C75.3514 46.3114 75.2679 46.2531 75.2088 46.1733C72.8435 42.8983 73.444 33.8192 77.3103 28.661C81.022 23.7212 90.7925 20.7736 102.191 21.1284C112.935 21.465 123.27 26.4867 126.19 30.9535C128.383 34.3286 127.345 42.316 126.727 47.0921C126.581 48.202 126.463 49.0753 126.436 49.6121C126.381 50.5218 126.227 53.4329 126.054 56.9718C126.052 57.0542 126.027 57.1343 125.982 57.2034C125.937 57.2724 125.873 57.3277 125.799 57.363L125.717 57.4084C125.553 59.5099 125.208 64.2314 125.208 64.6317C125.028 65.3703 124.605 66.0271 124.007 66.4967C123.372 67.1059 122.538 67.4646 121.66 67.5064ZM120.059 61.8661C120.121 61.8659 120.184 61.8788 120.241 61.9039C120.299 61.929 120.351 61.9658 120.394 62.0119C120.437 62.0581 120.469 62.1126 120.49 62.1721C120.51 62.2316 120.518 62.2946 120.513 62.3574C120.386 64.0131 120.613 66.5057 121.505 66.5967C122.951 66.7332 124.234 64.9592 124.325 64.5771C124.416 64.195 124.798 57.7541 124.853 57.0354C124.858 56.9562 124.885 56.8799 124.929 56.8143C124.974 56.7487 125.036 56.6963 125.108 56.6625H125.189C125.353 53.2328 125.499 50.4308 125.553 49.5575C125.553 48.9843 125.708 48.1019 125.854 46.9738C126.418 42.6344 127.464 34.5469 125.453 31.4538C123.088 27.8149 113.445 22.3565 102.191 22.0381C90.9381 21.7197 81.6042 24.4944 78.0654 29.2068C74.5265 33.9192 73.8715 42.0795 75.7638 45.3181C75.9828 45.2071 76.1697 45.0417 76.3067 44.8379C76.4436 44.634 76.5261 44.3985 76.5461 44.1537C76.5461 42.8892 78.1109 42.2887 79.0297 42.1341C79.0913 42.122 79.1547 42.123 79.2158 42.1371C79.277 42.1513 79.3345 42.1781 79.3845 42.216C79.4846 42.2978 90.1648 50.358 96.4056 50.0033C99.817 49.8213 103.62 48.0928 106.968 46.5736C109.961 45.2181 112.326 44.1446 113.836 44.4084C114.333 44.4703 114.811 44.6339 115.241 44.889C115.672 45.1442 116.045 45.4854 116.338 45.8913C117.247 47.1649 117.311 49.1936 116.656 52.4686C115.746 57.09 115.519 61.7752 116.192 62.7122L116.265 62.7849C117.522 62.7486 118.76 62.4609 119.904 61.9389C119.95 61.904 120.002 61.8792 120.059 61.8661Z" fill="#263238"/>
<path d="M121.281 68.2715C121.281 68.2715 123.037 59.8747 126.185 60.2203C129.332 60.566 128.987 68.6263 126.885 71.6011C124.784 74.5759 122.682 75.0944 122.682 75.0944" fill="white"/>
<path d="M122.679 75.549C122.578 75.5479 122.48 75.5134 122.401 75.4508C122.322 75.3882 122.266 75.3011 122.242 75.2033C122.227 75.1459 122.224 75.0862 122.232 75.0275C122.241 74.9688 122.261 74.9124 122.291 74.8616C122.322 74.8108 122.362 74.7665 122.41 74.7315C122.458 74.6964 122.512 74.6713 122.569 74.6575C122.569 74.6575 124.553 74.1116 126.509 71.3369C128.037 69.1809 128.546 64.2411 127.491 61.894C127.392 61.5895 127.215 61.3164 126.977 61.1024C126.739 60.8884 126.449 60.7409 126.136 60.6749C123.861 60.4202 122.16 66.2879 121.723 68.3621C121.711 68.4219 121.688 68.4786 121.654 68.5293C121.62 68.5799 121.577 68.6233 121.526 68.6571C121.475 68.6909 121.418 68.7144 121.359 68.7262C121.299 68.738 121.237 68.738 121.178 68.726C121.118 68.7141 121.061 68.6905 121.01 68.6566C120.96 68.6227 120.916 68.5791 120.883 68.5284C120.849 68.4778 120.825 68.4209 120.814 68.3612C120.802 68.3014 120.802 68.2399 120.814 68.1802C120.996 67.2704 122.761 59.4013 126.208 59.7652C126.683 59.8396 127.128 60.0426 127.495 60.3521C127.862 60.6617 128.138 61.0659 128.292 61.521C129.474 64.141 128.928 69.4538 127.227 71.8555C125.053 74.9395 122.861 75.4944 122.761 75.5399L122.679 75.549Z" fill="#263238"/>
<path d="M95.3796 87.8033C91.4496 87.8033 90.4398 85.6927 90.2306 85.0741C89.8667 84.0006 90.2943 73.2476 90.3761 71.0916C90.3761 70.9709 90.4241 70.8553 90.5094 70.77C90.5947 70.6846 90.7104 70.6367 90.831 70.6367C90.9516 70.6367 91.0673 70.6846 91.1526 70.77C91.2379 70.8553 91.2859 70.9709 91.2859 71.0916C91.0857 75.9768 90.8583 84.0097 91.0857 84.7375C91.3132 85.4653 92.1501 86.8754 95.3796 86.8754C98.6092 86.8754 99.1004 85.9657 99.5007 84.7375C99.5382 84.623 99.6196 84.528 99.7271 84.4734C99.8345 84.4188 99.9592 84.4091 100.074 84.4464C100.131 84.4639 100.185 84.4928 100.231 84.5314C100.277 84.57 100.314 84.6175 100.341 84.671C100.369 84.7245 100.385 84.783 100.389 84.8429C100.393 84.9028 100.385 84.9629 100.365 85.0195C99.7827 86.7571 98.782 87.8033 95.3796 87.8033Z" fill="#263238"/>
<path d="M96.5072 92.5341C94.5512 92.5856 92.5961 92.3992 90.685 91.9792C89.4687 91.4586 88.4202 90.6116 87.6556 89.532C87.5889 89.4328 87.5639 89.3114 87.586 89.1939C87.6081 89.0764 87.6756 88.9724 87.7738 88.9043C87.822 88.8696 87.8766 88.8449 87.9344 88.8316C87.9923 88.8183 88.0522 88.8167 88.1107 88.8269C88.1691 88.8371 88.225 88.8588 88.2749 88.8908C88.3249 88.9229 88.3679 88.9646 88.4015 89.0135C89.0608 89.9274 89.9486 90.6521 90.9761 91.1149C92.4589 91.6062 97.2714 91.7972 99.6913 91.4515C101.439 91.2011 103.087 90.4811 104.458 89.3683C104.525 89.2685 104.628 89.1992 104.746 89.1754C104.863 89.1515 104.986 89.1751 105.086 89.2409C105.186 89.3093 105.256 89.4142 105.28 89.5333C105.303 89.6524 105.28 89.776 105.213 89.8777C104.768 90.5418 102.384 91.9792 99.8187 92.3522C98.7201 92.4859 97.6139 92.5467 96.5072 92.5341Z" fill="#263238"/>
<path d="M99.3859 68.4079C99.3859 68.4079 109.575 67.8621 110.785 67.6711C111.995 67.48 107.637 65.6878 103.925 65.7424C100.214 65.797 96.6385 66.7431 99.3859 68.4079Z" fill="#263238"/>
<path d="M99.3803 68.8625C99.2976 68.8598 99.2167 68.838 99.1438 68.7988C98.234 68.2257 97.8247 67.6344 97.9884 67.034C98.416 65.4874 102.637 65.3055 103.92 65.2873C106.74 65.2145 111.352 66.4426 111.443 67.4979C111.443 67.5525 111.443 68.0256 110.852 68.1165C109.633 68.3167 99.8261 68.8352 99.4076 68.8625H99.3803ZM104.065 66.197H103.902C100.781 66.2425 98.9527 66.852 98.8436 67.2796C98.8436 67.3433 98.9072 67.5707 99.4713 67.9437C100.545 67.8891 107.195 67.5252 109.769 67.316C107.949 66.6086 106.018 66.2297 104.065 66.197Z" fill="#263238"/>
<path d="M89.5991 68.3526C89.5991 68.3526 79.401 67.9068 78.1911 67.7339C76.9811 67.5611 81.3205 65.7144 85.0322 65.7326C88.7439 65.7508 92.3283 66.6332 89.5991 68.3526Z" fill="#263238"/>
<path d="M89.6009 68.808C89.1824 68.808 79.3664 68.3623 78.1473 68.1803C77.5287 68.0894 77.5469 67.6163 77.5469 67.5708C77.6288 66.5155 82.1775 65.2783 85.0067 65.2783H85.0522C86.3349 65.2783 90.5106 65.4239 90.9927 66.9704C91.1656 67.5617 90.7835 68.1622 89.8556 68.7353C89.7821 68.7891 89.6917 68.8149 89.6009 68.808ZM79.1753 67.3616C81.7863 67.5526 88.4091 67.8438 89.4735 67.8892C90.0375 67.5163 90.1194 67.2797 90.1012 67.216C89.9829 66.7975 88.1544 66.2062 85.034 66.1881H84.9612C82.9783 66.2335 81.0193 66.6309 79.1753 67.3616Z" fill="#263238"/>
<path d="M85.7412 76.2774C84.881 76.3308 84.0203 76.1797 83.2297 75.8366C82.4391 75.4935 81.741 74.968 81.1925 74.3032C81.1262 74.2015 81.1024 74.0779 81.1262 73.9588C81.15 73.8398 81.2195 73.7348 81.3199 73.6664C81.4202 73.6006 81.5424 73.577 81.66 73.6009C81.7775 73.6247 81.8809 73.6941 81.9476 73.7938C82.0295 73.912 83.9581 76.6139 89.2891 74.7035C89.4025 74.6625 89.5275 74.6683 89.6367 74.7194C89.7459 74.7706 89.8303 74.863 89.8713 74.9764C89.8929 75.0325 89.9029 75.0923 89.9008 75.1523C89.8987 75.2123 89.8844 75.2713 89.8589 75.3257C89.8334 75.3801 89.7972 75.4287 89.7524 75.4688C89.7077 75.5088 89.6553 75.5394 89.5984 75.5587C88.3646 76.0219 87.059 76.2651 85.7412 76.2774Z" fill="#263238"/>
<path d="M104.979 77.1407C104.121 77.1811 103.265 77.025 102.477 76.6845C101.689 76.3439 100.989 75.8279 100.43 75.1757C100.393 75.1291 100.366 75.0756 100.351 75.0182C100.335 74.9609 100.332 74.901 100.34 74.8423C100.349 74.7835 100.369 74.7271 100.4 74.6765C100.431 74.6259 100.473 74.5822 100.521 74.548C100.618 74.4756 100.739 74.4445 100.858 74.4616C100.978 74.4787 101.085 74.5425 101.158 74.639C101.267 74.7754 103.696 77.8685 109.445 75.0211C109.499 74.9948 109.558 74.9793 109.617 74.9756C109.677 74.9719 109.737 74.98 109.794 74.9995C109.85 75.0189 109.902 75.0493 109.947 75.0889C109.992 75.1285 110.029 75.1765 110.055 75.2303C110.081 75.2841 110.097 75.3425 110.1 75.4022C110.104 75.4619 110.096 75.5218 110.077 75.5784C110.057 75.635 110.027 75.6872 109.987 75.7321C109.948 75.7769 109.9 75.8135 109.846 75.8398C108.345 76.6411 106.679 77.0862 104.979 77.1407Z" fill="#263238"/>
<path d="M103.754 134.368L90.8438 152.302L126.932 178.282L139.843 160.348L103.754 134.368Z" fill="#F5F5FC"/>
<path d="M126.925 178.731C126.83 178.733 126.738 178.704 126.661 178.649L90.5627 152.667C90.4671 152.593 90.4023 152.486 90.3807 152.367C90.3712 152.308 90.3736 152.248 90.3876 152.19C90.4017 152.132 90.4272 152.078 90.4626 152.03L103.372 134.063C103.407 134.014 103.451 133.973 103.502 133.942C103.553 133.911 103.61 133.89 103.669 133.881C103.728 133.871 103.789 133.874 103.847 133.888C103.905 133.902 103.96 133.927 104.008 133.963L140.097 159.945C140.147 159.978 140.189 160.021 140.22 160.072C140.252 160.122 140.274 160.178 140.283 160.237C140.292 160.296 140.29 160.356 140.275 160.413C140.26 160.471 140.234 160.525 140.198 160.572L127.288 178.549C127.254 178.597 127.211 178.638 127.161 178.669C127.111 178.7 127.055 178.721 126.997 178.731H126.925ZM91.4451 152.194L126.797 177.666L139.197 160.445L103.845 134.973L91.4451 152.194Z" fill="#263238"/>
<path d="M104.535 139.064L95.5469 151.549L126.157 173.585L135.145 161.1L104.535 139.064Z" fill="#D9D9D9"/>
<path d="M126.146 174.036C126.051 174.037 125.959 174.008 125.882 173.954L95.2695 151.912C95.1742 151.841 95.1103 151.735 95.0916 151.618C95.0729 151.501 95.1008 151.381 95.1694 151.284L104.158 138.793C104.193 138.745 104.237 138.704 104.288 138.672C104.339 138.641 104.396 138.62 104.455 138.611C104.514 138.602 104.575 138.604 104.633 138.618C104.691 138.632 104.746 138.658 104.794 138.693L135.398 160.727C135.447 160.761 135.489 160.805 135.521 160.856C135.553 160.907 135.575 160.963 135.585 161.023C135.595 161.082 135.593 161.142 135.58 161.201C135.567 161.259 135.542 161.315 135.507 161.364L126.519 173.845C126.483 173.894 126.438 173.935 126.387 173.966C126.335 173.998 126.278 174.018 126.219 174.027L126.146 174.036ZM96.1701 151.448L126.046 172.945L134.497 161.2L104.631 139.694L96.1701 151.448Z" fill="#263238"/>
<path d="M117.377 153.486C119.76 155.196 120.779 157.861 119.651 159.426C118.523 160.991 115.676 160.873 113.283 159.162C110.89 157.452 109.89 154.787 111.018 153.222C112.146 151.657 114.984 151.766 117.377 153.486Z" fill="#F5F5FC"/>
<path d="M117.139 160.972C115.652 160.927 114.215 160.422 113.027 159.526C111.868 158.719 110.962 157.599 110.416 156.296C110.139 155.772 110.014 155.181 110.054 154.59C110.095 153.999 110.3 153.43 110.646 152.949C110.992 152.468 111.465 152.093 112.013 151.866C112.561 151.639 113.161 151.57 113.746 151.666C115.155 151.766 116.507 152.268 117.639 153.112C120.223 154.977 121.278 157.925 120.014 159.69C119.673 160.119 119.234 160.46 118.734 160.684C118.233 160.907 117.686 161.006 117.139 160.972ZM113.5 152.567C113.097 152.536 112.693 152.603 112.321 152.761C111.949 152.92 111.62 153.165 111.362 153.476C111.135 153.847 111.005 154.268 110.983 154.702C110.96 155.136 111.047 155.568 111.235 155.96C111.713 157.1 112.509 158.079 113.527 158.78C115.702 160.345 118.276 160.508 119.25 159.153C120.223 157.797 119.25 155.414 117.084 153.849C116.098 153.103 114.916 152.657 113.682 152.567H113.5Z" fill="#263238"/>
<path d="M110.43 130.845L95.1328 146.791L127.222 177.575L142.52 161.628L110.43 130.845Z" fill="#F5F5FC"/>
<path d="M127.234 177.994C127.176 177.994 127.119 177.983 127.066 177.961C127.013 177.939 126.965 177.907 126.924 177.867L94.8291 147.082C94.7867 147.04 94.7531 146.991 94.7301 146.936C94.7071 146.881 94.6953 146.822 94.6953 146.763C94.6953 146.704 94.7071 146.645 94.7301 146.59C94.7531 146.536 94.7867 146.486 94.8291 146.445L110.131 130.497C110.172 130.453 110.221 130.418 110.275 130.393C110.33 130.368 110.389 130.354 110.449 130.352C110.508 130.35 110.567 130.361 110.621 130.383C110.676 130.405 110.726 130.437 110.768 130.479L142.863 161.264C142.905 161.307 142.939 161.357 142.962 161.412C142.986 161.468 142.997 161.527 142.997 161.587C142.997 161.647 142.986 161.707 142.962 161.762C142.939 161.818 142.905 161.868 142.863 161.91L127.561 177.858C127.52 177.901 127.47 177.935 127.416 177.958C127.361 177.982 127.302 177.994 127.243 177.994H127.234ZM95.7843 146.745L127.225 176.893L141.889 161.61L110.44 131.452L95.7843 146.745Z" fill="#263238"/>
<path d="M110.54 135.61L99.8906 146.711L127.109 172.822L137.759 161.72L110.54 135.61Z" fill="#D9D9D9"/>
<path d="M127.117 173.236C126.999 173.237 126.884 173.191 126.799 173.109L99.5799 146.999C99.5372 146.957 99.5034 146.907 99.4803 146.851C99.4572 146.796 99.4453 146.736 99.4453 146.676C99.4453 146.616 99.4572 146.557 99.4803 146.501C99.5034 146.446 99.5372 146.396 99.5799 146.353L110.224 135.255C110.264 135.211 110.314 135.176 110.368 135.153C110.423 135.129 110.482 135.118 110.542 135.118C110.662 135.116 110.779 135.158 110.87 135.237L138.08 161.355C138.122 161.397 138.156 161.447 138.179 161.503C138.202 161.558 138.214 161.618 138.214 161.678C138.214 161.738 138.202 161.797 138.179 161.853C138.156 161.908 138.122 161.959 138.08 162.001L127.436 173.1C127.396 173.144 127.347 173.181 127.292 173.206C127.237 173.231 127.178 173.244 127.117 173.245V173.236ZM100.535 146.663L127.099 172.135L137.106 161.691L110.542 136.219L100.535 146.663Z" fill="#263238"/>
<path d="M121.251 151.647C123.371 153.685 123.981 156.46 122.671 157.852C121.361 159.244 118.531 158.762 116.412 156.697C114.292 154.631 113.682 151.893 114.992 150.492C116.302 149.091 119.132 149.619 121.251 151.647Z" fill="#F5F5FC"/>
<path d="M120.633 159.09C120.328 159.09 120.024 159.063 119.724 159.008C118.346 158.709 117.083 158.021 116.085 157.025C113.792 154.823 113.155 151.757 114.656 150.184C116.157 148.61 119.26 149.119 121.561 151.321C123.863 153.522 124.491 156.597 122.99 158.171C122.681 158.478 122.313 158.718 121.907 158.876C121.502 159.034 121.068 159.107 120.633 159.09ZM117.04 150.156C116.724 150.141 116.408 150.192 116.112 150.304C115.816 150.417 115.547 150.59 115.32 150.811C114.165 152.021 114.793 154.514 116.731 156.37C117.605 157.242 118.709 157.848 119.915 158.116C120.334 158.231 120.775 158.239 121.198 158.139C121.621 158.039 122.011 157.834 122.335 157.543C123.499 156.324 122.871 153.832 120.934 151.976C119.905 150.91 118.518 150.262 117.04 150.156Z" fill="#263238"/>
<path d="M118.042 128.565L100.188 141.585L126.388 177.514L144.242 164.495L118.042 128.565Z" fill="#F5F5FC"/>
<path d="M126.389 177.94C126.319 177.939 126.25 177.922 126.186 177.891C126.123 177.859 126.068 177.814 126.026 177.758L99.8253 141.823C99.753 141.727 99.7219 141.605 99.7389 141.486C99.756 141.367 99.8198 141.259 99.9163 141.186L117.774 128.168C117.822 128.132 117.876 128.107 117.934 128.092C117.992 128.078 118.052 128.076 118.111 128.086C118.171 128.095 118.228 128.116 118.279 128.147C118.331 128.178 118.376 128.22 118.411 128.268L144.611 164.193C144.683 164.294 144.712 164.418 144.693 164.539C144.685 164.598 144.665 164.654 144.633 164.704C144.602 164.754 144.56 164.797 144.511 164.83L126.662 177.858C126.582 177.912 126.487 177.94 126.389 177.94ZM100.826 141.659L126.49 176.821L143.611 164.339L117.938 129.142L100.826 141.659Z" fill="#263238"/>
<path d="M117.32 133.271L104.891 142.335L127.114 172.81L139.543 163.746L117.32 133.271Z" fill="#D9D9D9"/>
<path d="M127.119 173.236H127.047C126.987 173.227 126.93 173.206 126.878 173.175C126.827 173.144 126.782 173.102 126.746 173.054L104.522 142.578C104.453 142.479 104.424 142.358 104.443 142.239C104.462 142.12 104.526 142.013 104.622 141.941L117.058 132.844C117.156 132.776 117.276 132.746 117.394 132.762C117.453 132.771 117.508 132.792 117.558 132.824C117.608 132.855 117.651 132.896 117.686 132.944L139.91 163.42C139.947 163.468 139.973 163.522 139.988 163.581C140.003 163.639 140.006 163.7 139.996 163.76C139.987 163.819 139.966 163.876 139.934 163.927C139.902 163.978 139.86 164.022 139.81 164.057L127.383 173.154C127.307 173.211 127.214 173.24 127.119 173.236ZM105.532 142.405L127.22 172.144L138.91 163.62L117.222 133.881L105.532 142.405Z" fill="#263238"/>
<path d="M125.049 150.948C126.778 153.322 126.914 156.169 125.358 157.316C123.803 158.462 121.128 157.452 119.4 155.078C117.671 152.703 117.535 149.865 119.09 148.71C120.646 147.554 123.321 148.619 125.049 150.948Z" fill="#F5F5FC"/>
<path d="M123.825 158.235C123.296 158.228 122.772 158.126 122.278 157.935C120.967 157.4 119.837 156.5 119.022 155.342C117.147 152.767 117.057 149.638 118.821 148.346C119.312 148.027 119.875 147.836 120.458 147.791C121.042 147.747 121.627 147.85 122.16 148.091C123.472 148.622 124.6 149.523 125.408 150.684C127.282 153.249 127.382 156.388 125.617 157.671C125.096 158.047 124.467 158.245 123.825 158.235ZM120.614 148.701C120.165 148.689 119.724 148.823 119.358 149.083C118.003 150.075 118.185 152.64 119.758 154.805C120.466 155.82 121.452 156.61 122.597 157.079C122.989 157.267 123.423 157.352 123.857 157.327C124.292 157.301 124.712 157.166 125.08 156.934C126.436 155.951 126.254 153.386 124.671 151.221C123.966 150.206 122.984 149.417 121.842 148.946C121.45 148.792 121.034 148.708 120.614 148.701Z" fill="#263238"/>
<path d="M127.565 127.638L107.367 136.602L125.404 177.247L145.602 168.284L127.565 127.638Z" fill="#F5F5FC"/>
<path d="M125.419 177.73C125.33 177.73 125.244 177.703 125.17 177.655C125.096 177.607 125.037 177.538 125 177.458L106.96 136.793C106.919 136.681 106.919 136.558 106.96 136.447C106.982 136.39 107.015 136.338 107.058 136.295C107.1 136.251 107.15 136.216 107.206 136.192L127.402 127.231C127.456 127.206 127.515 127.191 127.575 127.189C127.635 127.186 127.695 127.196 127.751 127.217C127.807 127.239 127.858 127.271 127.901 127.312C127.944 127.354 127.979 127.404 128.003 127.459L146.043 168.105C146.089 168.219 146.089 168.346 146.043 168.46C146.021 168.516 145.987 168.566 145.945 168.609C145.903 168.651 145.852 168.684 145.797 168.706L125.601 177.676C125.544 177.704 125.482 177.722 125.419 177.73ZM107.979 136.793L125.655 176.611L145.005 168.033L127.338 128.223L107.979 136.793Z" fill="#263238"/>
<path d="M125.858 132.085L111.797 138.325L127.096 172.8L141.157 166.561L125.858 132.085Z" fill="#D9D9D9"/>
<path d="M127.118 173.236C127.064 173.245 127.009 173.245 126.954 173.236C126.898 173.214 126.846 173.181 126.802 173.139C126.758 173.097 126.723 173.046 126.7 172.99L111.398 138.521C111.357 138.406 111.357 138.281 111.398 138.166C111.42 138.11 111.453 138.06 111.495 138.018C111.537 137.975 111.588 137.942 111.644 137.92L125.699 131.68C125.753 131.654 125.812 131.639 125.872 131.637C125.932 131.635 125.991 131.644 126.047 131.666C126.103 131.687 126.155 131.719 126.198 131.761C126.241 131.802 126.276 131.852 126.299 131.907L141.601 166.386C141.648 166.496 141.65 166.62 141.608 166.732C141.565 166.844 141.482 166.935 141.374 166.986L127.3 173.181C127.243 173.209 127.181 173.228 127.118 173.236ZM112.417 138.539L127.345 172.199L140.573 166.322L125.644 132.662L112.417 138.539Z" fill="#263238"/>
<path d="M129.694 151.002C130.886 153.685 130.422 156.46 128.657 157.279C126.892 158.097 124.49 156.524 123.299 153.84C122.107 151.156 122.58 148.382 124.345 147.563C126.11 146.744 128.502 148.318 129.694 151.002Z" fill="#F5F5FC"/>
<path d="M127.665 157.943C126.897 157.921 126.152 157.678 125.518 157.243C124.347 156.448 123.434 155.329 122.889 154.023C121.597 151.121 122.161 148.037 124.153 147.145C126.146 146.253 128.82 147.909 130.112 150.784C130.708 152.067 130.923 153.494 130.731 154.896C130.667 155.472 130.461 156.024 130.131 156.5C129.8 156.977 129.356 157.364 128.839 157.625C128.474 157.813 128.074 157.922 127.665 157.943ZM125.336 147.809C125.057 147.807 124.78 147.866 124.526 147.982C122.989 148.664 122.634 151.211 123.717 153.659C124.191 154.801 124.987 155.781 126.009 156.479C126.339 156.773 126.746 156.967 127.183 157.035C127.619 157.103 128.066 157.044 128.47 156.864C128.874 156.685 129.217 156.392 129.458 156.022C129.7 155.652 129.829 155.22 129.83 154.778C129.997 153.554 129.804 152.309 129.275 151.193C128.375 149.146 126.746 147.809 125.336 147.809Z" fill="#263238"/>
<path d="M136.283 128.571L114.734 133.463L124.579 176.827L146.128 171.935L136.283 128.571Z" fill="#F5F5FC"/>
<path d="M124.59 177.275C124.506 177.273 124.424 177.248 124.353 177.202C124.301 177.173 124.255 177.132 124.219 177.083C124.183 177.035 124.157 176.979 124.144 176.92L114.301 133.554C114.287 133.495 114.285 133.434 114.296 133.375C114.306 133.316 114.328 133.259 114.36 133.209C114.392 133.158 114.434 133.114 114.483 133.08C114.532 133.045 114.588 133.021 114.646 133.008L136.189 128.113C136.247 128.099 136.308 128.097 136.367 128.106C136.426 128.116 136.483 128.137 136.534 128.168C136.636 128.236 136.708 128.34 136.735 128.459L146.578 171.826C146.593 171.884 146.596 171.944 146.587 172.003C146.578 172.063 146.557 172.119 146.525 172.17C146.494 172.221 146.453 172.265 146.404 172.3C146.355 172.335 146.3 172.359 146.241 172.372L124.69 177.257L124.59 177.275ZM115.292 133.79L124.935 176.275L145.595 171.58L135.952 129.105L115.292 133.79Z" fill="#263238"/>
<path d="M133.76 132.605L118.758 136.011L127.108 172.792L142.109 169.387L133.76 132.605Z" fill="#D0D0D0"/>
<path d="M127.121 173.236C127.018 173.235 126.918 173.2 126.837 173.135C126.757 173.071 126.7 172.982 126.675 172.881L118.324 136.101C118.311 136.042 118.309 135.982 118.319 135.923C118.329 135.863 118.351 135.807 118.383 135.756C118.415 135.705 118.457 135.661 118.506 135.627C118.555 135.593 118.611 135.568 118.67 135.555L133.671 132.153C133.788 132.128 133.91 132.149 134.012 132.212C134.113 132.274 134.187 132.374 134.217 132.489L142.559 169.27C142.574 169.328 142.577 169.388 142.568 169.447C142.559 169.506 142.538 169.563 142.507 169.614C142.475 169.665 142.434 169.709 142.385 169.744C142.336 169.778 142.281 169.803 142.223 169.816L127.221 173.227L127.121 173.236ZM119.316 136.347L127.458 172.272L141.577 169.07L133.389 133.172L119.316 136.347Z" fill="#263238"/>
<path d="M133.851 151.912C134.497 154.777 133.505 157.443 131.622 157.871C129.739 158.298 127.683 156.324 127.028 153.458C126.373 150.593 127.383 147.927 129.266 147.5C131.149 147.072 133.178 149.046 133.851 151.912Z" fill="#F5F5FC"/>
<path d="M131.118 158.38C129.181 158.38 127.234 156.369 126.57 153.558C126.226 152.187 126.289 150.746 126.752 149.41C126.894 148.837 127.193 148.314 127.615 147.901C128.037 147.487 128.566 147.199 129.142 147.068C129.718 146.937 130.319 146.968 130.878 147.158C131.438 147.349 131.933 147.69 132.31 148.145C133.303 149.143 133.986 150.407 134.275 151.784C134.608 153.157 134.545 154.595 134.093 155.933C133.924 156.495 133.617 157.005 133.199 157.417C132.78 157.829 132.265 158.129 131.701 158.289C131.51 158.339 131.315 158.37 131.118 158.38ZM129.79 147.9C129.65 147.901 129.509 147.917 129.372 147.945C128.952 148.077 128.572 148.313 128.268 148.631C127.964 148.949 127.746 149.339 127.634 149.765C127.235 150.938 127.181 152.201 127.479 153.404C128.071 156.015 129.89 157.843 131.519 157.47C131.941 157.342 132.324 157.108 132.63 156.789C132.936 156.47 133.155 156.078 133.265 155.651C133.667 154.478 133.718 153.213 133.411 152.012C133.164 150.8 132.574 149.685 131.71 148.8C131.211 148.263 130.523 147.94 129.79 147.9Z" fill="#263238"/>
<path d="M142.934 157.243C142.934 157.243 127.114 163.256 126.313 163.857C125.513 164.457 117.698 171.671 117.298 172.672L116.897 173.673C116.863 173.847 116.868 174.027 116.913 174.199C116.958 174.371 117.042 174.53 117.158 174.665C117.273 174.8 117.418 174.907 117.581 174.978C117.744 175.048 117.921 175.081 118.098 175.074C118.098 175.074 116.497 177.475 117.898 178.713C119.299 179.95 121.301 178.913 121.301 178.913C121.301 178.913 119.481 181.715 121.501 182.315C123.012 182.669 124.577 182.736 126.113 182.515C126.113 182.515 125.713 183.516 132.718 184.917C139.723 186.318 147.146 186.918 150.348 186.318C153.55 185.718 160.765 184.917 160.765 184.917C160.765 184.917 192.814 187.519 199.228 186.918C205.642 186.318 215.858 187.319 217.859 184.116C219.861 180.914 216.859 175.101 214.448 171.498C212.037 167.896 206.442 161.082 199.828 160.882C194.827 160.938 189.876 161.887 185.209 163.684C181.57 165.285 173.182 168.697 172.382 168.897C171.581 169.097 162.966 168.496 162.966 168.496C162.966 168.496 146.345 157.47 145.345 157.27C144.546 157.15 143.735 157.141 142.934 157.243Z" fill="white"/>
<path d="M196.45 187.438C186.634 187.438 161.88 185.436 160.725 185.345C160.725 185.345 153.584 186.155 150.427 186.737C147.27 187.319 139.719 186.737 132.624 185.336C128.712 184.554 126.419 183.762 125.819 182.98C124.333 183.168 122.825 183.081 121.37 182.725C121.109 182.662 120.868 182.536 120.667 182.358C120.466 182.181 120.31 181.957 120.215 181.706C120.031 181.02 120.099 180.291 120.406 179.65C119.921 179.768 119.415 179.773 118.927 179.664C118.44 179.555 117.984 179.336 117.595 179.023C116.367 177.976 116.949 176.293 117.386 175.384C117.163 175.307 116.962 175.176 116.803 175.002C116.496 174.604 116.358 174.1 116.421 173.601V173.492L116.822 172.491C117.304 171.29 125.509 163.848 125.992 163.484C126.801 162.875 140.074 157.817 142.731 156.816C142.76 156.808 142.792 156.808 142.822 156.816C143.67 156.697 144.53 156.697 145.378 156.816C146.406 157.025 160.061 166.05 163.072 168.042C167.157 168.324 171.724 168.561 172.224 168.443C172.97 168.261 181.321 164.876 184.96 163.257C189.71 161.436 194.748 160.484 199.834 160.446C207.203 160.664 213.171 168.779 214.827 171.263C216.646 173.992 220.567 180.651 218.238 184.381C216.664 186.901 210.833 187.019 205.193 187.11C203.055 187.11 201.026 187.201 199.27 187.365C198.588 187.41 197.624 187.438 196.45 187.438ZM160.707 184.445C161.116 184.445 192.884 187.037 199.179 186.446C200.999 186.273 203.018 186.228 205.174 186.182C210.324 186.082 216.155 185.955 217.465 183.853C219.512 180.578 215.773 174.274 214.072 171.727C212.48 169.334 206.739 161.519 199.807 161.31C194.876 161.35 189.992 162.274 185.388 164.039C181.913 165.586 173.352 169.052 172.488 169.27C171.624 169.489 164.382 168.979 162.936 168.879C162.857 168.879 162.781 168.853 162.717 168.806C156.167 164.467 146.106 157.89 145.232 157.653C144.508 157.559 143.774 157.559 143.049 157.653C136.754 160.046 127.211 163.739 126.574 164.185C125.546 164.967 118.095 171.936 117.713 172.809L117.34 173.719C117.316 173.945 117.378 174.173 117.513 174.356C117.589 174.43 117.681 174.487 117.782 174.521C117.882 174.556 117.989 174.568 118.095 174.556C118.178 174.557 118.259 174.58 118.329 174.623C118.4 174.666 118.457 174.728 118.495 174.802C118.54 174.871 118.564 174.951 118.564 175.034C118.564 175.116 118.54 175.196 118.495 175.265C118.495 175.265 117.14 177.349 118.213 178.277C119.287 179.205 121.106 178.422 121.125 178.413C121.212 178.368 121.313 178.353 121.41 178.371C121.507 178.39 121.596 178.439 121.661 178.513C121.728 178.588 121.768 178.683 121.777 178.783C121.785 178.883 121.76 178.983 121.707 179.068C121.47 179.441 120.843 180.66 121.097 181.324C121.14 181.444 121.215 181.55 121.312 181.631C121.41 181.713 121.527 181.767 121.652 181.788C123.099 182.12 124.594 182.185 126.064 181.979C126.144 181.965 126.226 181.973 126.301 182.002C126.376 182.031 126.442 182.08 126.492 182.143C126.548 182.213 126.58 182.299 126.583 182.389C126.719 182.552 127.629 183.344 132.833 184.381C139.819 185.782 147.161 186.364 150.29 185.782C153.42 185.2 160.643 184.445 160.707 184.445Z" fill="#263238"/>
<path d="M118.094 175.529C118.012 175.53 117.931 175.508 117.86 175.467C117.79 175.425 117.732 175.365 117.694 175.292C117.638 175.186 117.626 175.061 117.659 174.946C117.693 174.831 117.771 174.733 117.875 174.674L130.093 168.069L130.202 168.023L144.021 164.621C144.079 164.606 144.139 164.603 144.199 164.611C144.258 164.619 144.315 164.639 144.367 164.67C144.418 164.7 144.463 164.74 144.499 164.788C144.535 164.836 144.561 164.891 144.576 164.949C144.591 165.007 144.594 165.068 144.585 165.128C144.576 165.188 144.555 165.245 144.524 165.297C144.493 165.348 144.451 165.393 144.403 165.429C144.354 165.464 144.298 165.49 144.239 165.503L130.448 168.897L118.285 175.474C118.226 175.505 118.161 175.524 118.094 175.529Z" fill="#263238"/>
<path d="M121.298 179.34C121.206 179.337 121.115 179.308 121.039 179.254C120.963 179.201 120.905 179.126 120.871 179.04C120.83 178.926 120.836 178.801 120.887 178.692C120.938 178.583 121.03 178.498 121.144 178.457L132.561 174.245L145.252 171.826C145.372 171.803 145.497 171.829 145.599 171.898C145.7 171.967 145.77 172.073 145.793 172.194C145.816 172.315 145.79 172.439 145.721 172.541C145.652 172.642 145.545 172.712 145.424 172.735L132.806 175.137L121.453 179.322C121.404 179.341 121.351 179.348 121.298 179.34Z" fill="#263238"/>
<path d="M126.113 182.943C125.992 182.951 125.873 182.911 125.782 182.832C125.691 182.753 125.635 182.64 125.626 182.52C125.618 182.399 125.657 182.28 125.737 182.189C125.816 182.097 125.928 182.041 126.049 182.033L137.266 180.459L147.273 179.258C147.394 179.244 147.515 179.278 147.611 179.353C147.706 179.428 147.768 179.538 147.783 179.658C147.797 179.779 147.763 179.901 147.688 179.996C147.613 180.092 147.503 180.153 147.382 180.168L137.375 181.369L126.167 182.97L126.113 182.943Z" fill="#263238"/>
<path d="M32.9099 159.044C32.9099 159.044 42.5257 163.856 43.5264 164.057C44.5271 164.257 50.7406 163.856 51.1408 168.26C51.5411 172.663 47.5019 178.676 46.7377 181.278C45.9736 183.88 36.5215 183.279 36.5215 183.279C36.5215 183.279 33.3101 172.462 32.5096 168.46C31.709 164.457 32.9099 159.044 32.9099 159.044Z" fill="white"/>
<path d="M38.9678 183.816C37.8488 183.816 36.93 183.761 36.4843 183.734C36.3925 183.73 36.3045 183.697 36.2326 183.639C36.1608 183.582 36.1087 183.504 36.084 183.415C36.084 183.306 32.8635 172.499 32.063 168.55C31.2624 164.602 32.4178 159.171 32.4632 158.944C32.4799 158.876 32.5114 158.814 32.5555 158.76C32.5996 158.707 32.6551 158.664 32.718 158.634C32.7801 158.603 32.8486 158.587 32.9181 158.587C32.9876 158.587 33.0561 158.603 33.1182 158.634C36.8117 160.454 42.9342 163.465 43.6165 163.611C43.852 163.641 44.0888 163.659 44.3261 163.665C46.3912 163.793 51.2128 164.084 51.604 168.214C51.8951 171.434 49.9482 175.437 48.5291 178.357C48.0155 179.348 47.5629 180.368 47.1736 181.414C46.5368 183.461 42.0063 183.816 38.9678 183.816ZM36.8663 182.851C40.3779 183.033 45.809 182.742 46.3002 181.141C46.6949 180.049 47.1629 178.986 47.7012 177.957C49.0749 175.137 50.9581 171.261 50.6851 168.296C50.3849 164.948 46.2548 164.657 44.317 164.575C43.9349 164.575 43.6438 164.529 43.4801 164.502C42.5703 164.311 35.4563 160.8 33.282 159.717C33.0091 161.2 32.3723 165.257 33 168.368C33.6641 171.935 36.3387 181.059 36.8663 182.851Z" fill="#263238"/>
<path d="M29.1094 142.414L40.7266 180.678L44.1927 184.089L44.1017 179.076L32.1843 141.341L29.1094 142.414Z" fill="#FBD362"/>
<path d="M44.1916 184.544C44.1319 184.545 44.0728 184.533 44.018 184.51C43.9631 184.486 43.9138 184.451 43.8732 184.408L40.3889 181.005C40.336 180.951 40.2957 180.886 40.2707 180.814L28.6534 142.551C28.6184 142.439 28.6283 142.317 28.6808 142.212C28.7334 142.107 28.8247 142.026 28.9354 141.987L32.0194 140.913C32.0748 140.887 32.1354 140.873 32.1968 140.873C32.2582 140.873 32.3189 140.887 32.3742 140.913C32.4282 140.939 32.4763 140.976 32.5154 141.022C32.5545 141.067 32.5839 141.12 32.6017 141.177L44.5191 178.913C44.5229 178.955 44.5229 178.998 44.5191 179.04L44.6101 184.053C44.6102 184.144 44.5836 184.233 44.5334 184.309C44.4833 184.385 44.4119 184.445 44.3281 184.48C44.2855 184.507 44.2396 184.529 44.1916 184.544ZM41.1258 180.459L43.7186 183.007L43.6458 179.177L31.8921 141.951L29.6723 142.733L41.1258 180.459Z" fill="#263238"/>
<path d="M32.1843 141.341L29.1094 142.414L30.474 146.917L33.6125 145.853L32.1843 141.341Z" fill="#FBD362"/>
<path d="M30.4703 147.373C30.397 147.373 30.3248 147.354 30.2611 147.318C30.2068 147.29 30.1587 147.252 30.1196 147.205C30.0806 147.158 30.0513 147.103 30.0337 147.045L28.6691 142.551C28.6341 142.439 28.6439 142.317 28.6965 142.212C28.749 142.107 28.8403 142.026 28.9511 141.987L32.0351 140.913C32.0904 140.887 32.151 140.873 32.2125 140.873C32.2739 140.873 32.3345 140.887 32.3899 140.913C32.4438 140.939 32.4919 140.976 32.531 141.022C32.5701 141.067 32.5995 141.12 32.6173 141.177L34.0456 145.726C34.0804 145.841 34.0696 145.964 34.0153 146.071C33.9611 146.178 33.8676 146.26 33.7545 146.299L30.6159 147.354C30.5689 147.369 30.5196 147.375 30.4703 147.373ZM29.6698 142.706L30.7705 146.345L33.0449 145.58L31.8895 141.941L29.6698 142.706Z" fill="#263238"/>
<path d="M17.0859 181.278C17.0859 181.278 18.2868 184.69 19.4876 185.09C20.6885 185.49 27.5023 185.29 29.4947 185.29C31.487 185.29 17.0859 181.278 17.0859 181.278Z" fill="white"/>
<path d="M24.1336 185.79C22.5334 185.868 20.9295 185.776 19.3484 185.517C18.002 185.072 16.874 182.033 16.6192 181.433C16.5916 181.354 16.5863 181.268 16.604 181.187C16.6216 181.105 16.6615 181.029 16.7193 180.969C16.7756 180.907 16.8481 180.862 16.9285 180.84C17.0089 180.817 17.094 180.818 17.1742 180.841C30.2288 184.48 30.1833 184.817 30.1105 185.299C30.1105 185.463 29.9741 185.745 29.4737 185.745H27.7361L24.1336 185.79ZM17.8474 181.96C18.3568 183.161 19.0846 184.471 19.6668 184.689C20.522 184.981 25.0343 184.926 27.5997 184.89C25.2071 184.098 21.0314 182.861 17.8474 181.96Z" fill="#263238"/>
<path d="M19.8913 173.673C19.8913 173.673 16.689 179.677 17.0893 181.278C17.4896 182.879 20.4917 183.689 23.0935 184.289C26.8005 184.888 30.5608 185.089 34.3105 184.89C36.9214 184.69 32.109 182.279 32.109 182.279C29.5289 180.704 27.0524 178.966 24.6947 177.075C23.2243 175.767 21.6133 174.626 19.8913 173.673Z" fill="white"/>
<path d="M31.8507 185.417C28.8823 185.455 25.9165 185.224 22.9899 184.726C20.0242 184.043 17.0949 183.224 16.6218 181.387C16.2033 179.704 18.9143 174.482 19.4693 173.454C19.4952 173.401 19.5316 173.354 19.5762 173.316C19.6208 173.277 19.6727 173.248 19.7288 173.231C19.7849 173.213 19.844 173.206 19.9025 173.212C19.9611 173.218 20.018 173.235 20.0697 173.263C21.8287 174.231 23.4735 175.394 24.9731 176.729C27.3109 178.606 29.7661 180.332 32.3238 181.896C34.5617 183.006 35.6443 183.943 35.5078 184.625C35.3714 185.308 34.5981 185.308 34.3252 185.335C33.6974 185.39 32.8332 185.417 31.8507 185.417ZM20.0242 174.291C18.8325 176.593 17.2313 180.186 17.477 181.169C17.8409 182.615 21.2887 183.416 23.1446 183.843C26.8067 184.432 30.5211 184.631 34.2251 184.434H34.498C33.7035 183.743 32.8153 183.167 31.8598 182.724C29.244 181.137 26.7367 179.377 24.3545 177.457C23.0247 176.274 21.5905 175.215 20.0697 174.291H20.0242Z" fill="#263238"/>
<path d="M25.4995 167.86C25.4995 167.86 20.0957 171.499 19.8955 173.673C19.6954 175.847 25.6996 181.679 26.7094 182.479C27.7192 183.28 34.715 185.09 36.9257 184.69C37.5435 184.597 38.1331 184.369 38.6522 184.021C39.1712 183.674 39.6069 183.216 39.9278 182.68C39.9278 182.68 33.1139 177.476 31.3126 174.674C29.8075 172.091 28.4704 169.414 27.3098 166.659L25.4995 167.86Z" fill="white"/>
<path d="M36.1567 185.199C33.3002 185.199 27.4324 183.653 26.4135 182.834C26.3407 182.779 19.1902 176.384 19.4359 173.628C19.6542 171.271 24.6759 167.86 25.249 167.478L27.0685 166.277C27.1248 166.241 27.1879 166.218 27.2537 166.209C27.3196 166.199 27.3866 166.204 27.4506 166.222C27.5143 166.242 27.5732 166.275 27.6234 166.319C27.6735 166.362 27.7139 166.416 27.7417 166.477C28.8904 169.21 30.2154 171.866 31.7081 174.428C33.4457 177.157 40.1504 182.27 40.2141 182.325C40.2976 182.389 40.3566 182.48 40.3814 182.583C40.4062 182.685 40.3953 182.793 40.3506 182.889C39.9964 183.486 39.514 183.998 38.9382 184.386C38.3625 184.775 37.7076 185.031 37.021 185.136C36.7355 185.184 36.4461 185.205 36.1567 185.199ZM25.7494 168.242C24.2938 169.206 20.4912 172.081 20.3456 173.7C20.1819 175.52 25.5584 180.978 26.9866 182.115C27.8145 182.779 34.7102 184.617 36.839 184.226C37.8177 184.076 38.7026 183.559 39.3135 182.779C37.9034 181.679 32.536 177.421 30.9258 174.91C29.4875 172.469 28.2082 169.938 27.0958 167.332L25.7494 168.242Z" fill="#263238"/>
<path d="M32.9083 159.044C32.9083 159.044 25.0938 161.045 25.0938 163.856C25.0938 166.667 28.5052 175.073 30.3065 176.875C32.1078 178.676 38.3212 184.089 39.9223 182.679C41.5235 181.269 40.5228 179.877 40.1225 178.476C39.7222 177.075 35.1099 165.257 35.1099 165.257L32.9083 159.044Z" fill="white"/>
<path d="M39.2418 183.352C36.2397 183.352 30.0535 177.266 29.9898 177.193C28.0885 175.301 24.6406 166.695 24.6406 163.856C24.6406 160.781 31.964 158.816 32.8282 158.607C32.9367 158.578 33.0524 158.591 33.1519 158.643C33.2514 158.695 33.3275 158.783 33.3649 158.889L35.5665 165.103C35.7575 165.576 40.1879 176.929 40.5882 178.348C40.661 178.603 40.7519 178.858 40.8429 179.113C41.2614 180.259 41.7526 181.678 40.2516 183.024C39.9682 183.257 39.6076 183.374 39.2418 183.352ZM32.619 159.59C29.7351 160.39 25.5504 162.146 25.5504 163.856C25.5504 166.486 28.8709 174.773 30.6266 176.593C33.5287 179.486 38.5959 183.27 39.6239 182.378C40.6519 181.487 40.3699 180.559 39.9605 179.458C39.8604 179.185 39.7603 178.912 39.6876 178.639C39.2964 177.275 34.7386 165.576 34.6931 165.458L32.619 159.59Z" fill="#263238"/>
<path d="M45.5263 164.857C45.5263 164.857 38.9217 177.275 40.1225 178.503C41.3233 179.731 43.5249 180.905 44.5256 180.322C45.5263 179.74 49.7383 174.318 50.8937 171.307C52.0491 168.296 51.294 167.104 49.4927 165.703C48.9288 165.29 48.2838 165.001 47.6001 164.855C46.9165 164.709 46.2097 164.71 45.5263 164.857Z" fill="white"/>
<path d="M43.8634 180.896C42.5261 180.896 40.7794 179.777 39.806 178.794C38.5506 177.548 42.5989 169.388 45.128 164.639C45.1903 164.53 45.2909 164.449 45.41 164.411C46.1675 164.236 46.954 164.227 47.7156 164.384C48.4771 164.541 49.1957 164.86 49.8222 165.321C51.7963 166.859 52.6332 168.296 51.3596 171.462C50.1679 174.446 45.9649 179.977 44.7641 180.696C44.4872 180.842 44.1762 180.911 43.8634 180.896ZM45.8466 165.257C42.8809 170.834 40.0153 177.311 40.4701 178.176C41.7074 179.404 43.6451 180.286 44.3092 179.886C45.1461 179.386 49.3127 174.136 50.5317 171.098C51.6052 168.369 51.0412 167.395 49.2672 166.012C48.7778 165.662 48.2223 165.414 47.6344 165.284C47.0464 165.154 46.4382 165.145 45.8466 165.257Z" fill="#263238"/>
<path d="M61.7373 187.4C61.2313 187.402 60.7362 187.253 60.3146 186.973C59.893 186.694 59.564 186.295 59.3691 185.828C59.1742 185.361 59.1223 184.847 59.2199 184.35C59.3175 183.854 59.5603 183.397 59.9174 183.039C60.2745 182.681 60.73 182.436 61.2262 182.337C61.7223 182.238 62.2367 182.288 62.7044 182.481C63.172 182.674 63.5718 183.002 63.8531 183.422C64.1344 183.843 64.2846 184.337 64.2846 184.843C64.2858 185.179 64.2208 185.511 64.0933 185.821C63.9658 186.131 63.7784 186.413 63.5417 186.65C63.3051 186.888 63.0238 187.076 62.7142 187.205C62.4046 187.334 62.0726 187.4 61.7373 187.4ZM61.7373 183.206C61.4109 183.204 61.0913 183.299 60.8191 183.48C60.5469 183.66 60.3345 183.917 60.2087 184.218C60.083 184.519 60.0496 184.851 60.1128 185.172C60.1761 185.492 60.3331 185.786 60.5639 186.017C60.7947 186.248 61.089 186.405 61.4092 186.468C61.7295 186.531 62.0613 186.498 62.3626 186.372C62.6638 186.246 62.9209 186.034 63.1011 185.762C63.2814 185.489 63.3766 185.17 63.3748 184.843C63.376 184.627 63.3346 184.413 63.253 184.213C63.1713 184.012 63.0511 183.83 62.899 183.676C62.7469 183.523 62.5661 183.4 62.3668 183.317C62.1674 183.233 61.9536 183.189 61.7373 183.188V183.206Z" fill="#263238"/>
<path d="M61.1997 184.152H4.57812V187.136H61.1997V184.152Z" fill="#FBD362"/>
<path d="M61.1924 187.591H4.57986C4.45923 187.591 4.34354 187.543 4.25823 187.458C4.17293 187.372 4.125 187.257 4.125 187.136V184.152C4.125 184.031 4.17293 183.916 4.25823 183.83C4.34354 183.745 4.45923 183.697 4.57986 183.697H61.1924C61.313 183.697 61.4287 183.745 61.514 183.83C61.5993 183.916 61.6472 184.031 61.6472 184.152V187.136C61.6472 187.257 61.5993 187.372 61.514 187.458C61.4287 187.543 61.313 187.591 61.1924 187.591ZM5.03473 186.681H60.7375V184.607H5.03473V186.681Z" fill="#263238"/>
<path d="M119.083 184.152H62.4609V187.136H119.083V184.152Z" fill="#FBD362"/>
<path d="M119.076 187.592H62.4549C62.3342 187.592 62.2185 187.544 62.1332 187.459C62.0479 187.373 62 187.258 62 187.137V184.153C62 184.032 62.0479 183.917 62.1332 183.831C62.2185 183.746 62.3342 183.698 62.4549 183.698H119.076C119.196 183.701 119.311 183.749 119.396 183.834C119.48 183.919 119.529 184.033 119.531 184.153V187.137C119.529 187.257 119.48 187.371 119.396 187.456C119.311 187.541 119.196 187.59 119.076 187.592ZM62.9097 186.682H118.622V184.608H62.9097V186.682Z" fill="#263238"/>
<path d="M172.125 187.501H51.375C72.4583 201.376 87.7917 206.251 115.775 206.251C138.162 206.251 162.669 193.751 172.125 187.501Z" fill="#F5F5FC"/>
</g>
<defs>
<clipPath id="clip0_1353_3633">
<rect width="214.5" height="209.235" fill="white"/>
</clipPath>
</defs>
</svg>
