<svg width="215" height="210" viewBox="0 0 215 210" fill="none" xmlns="http://www.w3.org/2000/svg">
<rect x="8.25" width="206.25" height="206.25" rx="103.125" fill="#EAD2EE"/>
<path d="M68.7966 201.906C71.5856 198.466 76.5652 192.399 78.2793 190.806C79.9279 189.227 81.4802 187.551 82.9277 185.785C82.9277 185.785 79.9818 191.498 85.002 196.002C90.0223 200.506 104.92 197.042 108.209 194.619C111.498 192.195 111.846 185.96 108.906 176.778C105.966 167.596 101.8 150.626 101.974 144.734C102.149 138.841 98.3371 122.215 96.6056 117.711C94.8741 113.207 87.7736 109.918 80.4989 108.36C73.2242 106.803 53.6545 114.939 53.6545 114.939L49.6743 116.496C49.6743 116.496 33.4049 125.504 29.0645 129.142C24.7241 132.78 26.81 142.828 25.7758 152.527C24.7415 162.226 24.7357 173.488 24.7357 173.488C24.7357 173.488 14.6894 182.322 7.41463 192.364C3.92834 197.199 1.90048 200.145 0.75 201.906H68.7966Z" fill="#FBD362" stroke="#263238" stroke-width="0.432" stroke-miterlimit="10"/>
<path d="M104.421 183.116C104.421 183.116 98.6944 181.762 92.6932 185.813C86.692 189.864 88.3298 195.933 93.6953 197.281C99.0609 198.63 106.099 198.63 109.786 192.896C113.474 187.162 107.106 182.776 104.421 183.116Z" fill="white" stroke="#263238" stroke-width="0.432" stroke-miterlimit="10"/>
<path d="M105.832 183.053C102.609 182.547 99.3128 183.294 96.6328 185.139C91.907 188.261 93.2178 192.95 97.4205 193.992C101.623 195.035 107.142 195.035 110.034 190.608C112.926 186.181 107.93 182.797 105.832 183.053Z" fill="white" stroke="#263238" stroke-width="0.432" stroke-miterlimit="10"/>
<path d="M111.979 197.767C111.979 197.767 113.856 185.992 112.618 185.148C111.38 184.304 93.8351 192.167 93.8351 192.167L94.3197 196.412C94.3197 196.412 90.0495 196.349 87.1327 197.439C84.2159 198.529 86.7888 198.49 88.1244 199.099C89.46 199.708 96.4549 201.148 97.0655 201.292C97.6762 201.435 107.976 200.371 111.979 197.767Z" fill="white" stroke="#263238" stroke-width="0.432" stroke-miterlimit="10"/>
<path d="M100.669 203.268C100.669 203.268 98.3597 205.023 97.0473 203.631C95.735 202.24 93.4519 195.07 93.0387 193.17C92.6255 191.269 93.8631 190.887 95.0321 192.425C96.2011 193.962 100.919 202.877 100.919 202.877L100.669 203.268Z" fill="white" stroke="#263238" stroke-width="0.432" stroke-miterlimit="10"/>
<path d="M105.841 200.444C105.841 200.444 102.941 204.593 101.293 203.63C99.6458 202.667 94.5168 192.123 93.8823 191.468C93.2478 190.814 94.8421 189.531 95.8296 190.053C96.8172 190.576 100.301 193.818 101.454 195.064C102.607 196.311 105.841 200.444 105.841 200.444Z" fill="white" stroke="#263238" stroke-width="0.432" stroke-miterlimit="10"/>
<path d="M112.46 194.61C112.46 194.61 111.78 199.414 110.38 201.218C108.981 203.023 106.223 201.689 104.671 200.486C103.12 199.283 100.832 195.495 99.6466 193.666C98.4617 191.837 96.4297 190.028 97.0058 189.515C97.5819 189.003 101.135 190.244 102.37 191.163C103.604 192.082 107.263 196.057 107.263 196.057" fill="white"/>
<path d="M112.46 194.61C112.46 194.61 111.78 199.414 110.38 201.218C108.981 203.023 106.223 201.689 104.671 200.486C103.12 199.283 100.832 195.495 99.6466 193.666C98.4617 191.837 96.4297 190.028 97.0058 189.515C97.5819 189.003 101.135 190.244 102.37 191.163C103.604 192.082 107.263 196.057 107.263 196.057" stroke="#263238" stroke-width="0.432" stroke-miterlimit="10"/>
<path d="M106.074 188.399C106.074 188.399 110.332 190.269 111.732 190.835C113.132 191.401 114.764 191.28 115.379 189.763C115.995 188.245 116.004 186.663 113.89 185.776C111.775 184.888 107.337 184.343 104.898 185.255C102.46 186.166 103.36 187.216 104.226 187.679C104.811 187.991 105.431 188.233 106.074 188.399Z" fill="white" stroke="#263238" stroke-width="0.432" stroke-miterlimit="10"/>
<path d="M92.3359 144.45C92.5999 141.227 92.7679 139.029 92.7679 138.834" stroke="#263238" stroke-width="0.432" stroke-miterlimit="10"/>
<path d="M82.8281 185.922C82.8281 185.922 89.2017 179.826 90.2591 172.854C90.9184 168.559 91.7738 156.853 92.3321 148.338" stroke="#263238" stroke-width="0.432" stroke-miterlimit="10"/>
<path d="M100.111 156.114C98.5226 161.15 95.5809 168.709 91.0391 173.826" stroke="#263238" stroke-width="0.432" stroke-miterlimit="10"/>
<path d="M101.403 150.93C101.403 150.93 101.126 152.093 100.539 153.954" stroke="#263238" stroke-width="0.432" stroke-miterlimit="10"/>
<path d="M100.972 170.37C97.8833 173.976 94.2348 177.041 90.1719 179.442" stroke="#263238" stroke-width="0.432" stroke-miterlimit="10"/>
<path d="M103.564 166.482C103.032 167.533 102.455 168.542 101.836 169.506" stroke="#263238" stroke-width="0.432" stroke-miterlimit="10"/>
<path d="M110.047 181.525C104.189 179.792 97.919 179.91 92.1337 181.865C82.3022 185.127 83.3566 192.496 84.2343 193.699" stroke="#263238" stroke-width="0.432" stroke-miterlimit="10"/>
<path d="M83.4452 60.8491C83.4452 60.8491 83.4452 58.8126 80.6496 54.467C77.8539 50.1213 63.6209 51.9199 58.7937 56.7587C53.9664 61.5976 60.8253 67.7128 57.775 71.2636C54.7246 74.8144 44.5607 73.0448 41.2557 79.4154C37.9507 85.7859 46.3376 88.8377 48.1204 91.1295C49.9031 93.4212 45.07 94.1871 45.5794 96.4789C46.0888 98.7706 53.9606 99.0259 53.9606 99.0259C53.9606 99.0259 48.8786 100.558 51.4196 102.594C54.9213 105.249 59.2345 106.6 63.6209 106.418C68.7029 106.162 67.4295 96.2236 66.926 88.8377C66.4224 81.4518 73.0208 73.3001 80.6496 74.0601C88.2783 74.8202 96.4048 83.4883 95.1199 87.3118C93.8349 91.1353 97.1515 86.5459 104.016 82.2119C110.881 77.8778 107.831 68.966 106.331 67.1848C104.832 65.4036 99.7272 64.8931 98.7085 61.5802C97.6898 58.2672 95.4035 54.9601 91.0855 54.9601C86.7676 54.9601 87.7632 60.5938 83.4452 60.8491Z" fill="#263238" stroke="#263238" stroke-width="0.432" stroke-miterlimit="10"/>
<path d="M61.7577 106.549C61.7577 106.549 58.5354 107.419 57.2032 109.163C55.8711 110.908 50.3716 114.047 50.0357 116.463C49.6998 118.879 51.7436 131.425 55.8027 136.466C59.8619 141.508 61.9114 141.858 61.9114 141.858C61.9114 141.858 63.1012 136.991 63.9495 136.641C64.7978 136.291 72.6029 141.309 72.6029 141.309C72.6029 141.309 73.9579 133.14 74.8118 133.14C75.6658 133.14 78.37 135.924 78.37 135.924C78.37 135.924 79.389 128.962 78.7116 123.57C78.0341 118.179 73.622 111.573 70.3997 109.309C67.1774 107.045 64.6042 104.985 61.7577 106.549Z" fill="white" stroke="#263238" stroke-width="0.432" stroke-miterlimit="10"/>
<path d="M63.6574 99.9541L57.3438 115.287C57.3438 115.287 58.9681 122.429 61.1033 127.022C64.0133 133.268 71.2051 136.242 71.2051 136.242C71.1589 132.619 71.9347 129.035 73.4723 125.764C74.9087 122.81 76.5949 119.988 78.5118 117.33C78.5118 117.33 67.1873 106.089 63.6574 99.9541Z" fill="white" stroke="#263238" stroke-width="0.432" stroke-miterlimit="10"/>
<path d="M65.1172 106.156C65.1172 106.156 68.0838 122.825 72.3252 128.033L76.3492 120.527L65.7751 104.273L65.1172 106.156Z" fill="#263238" stroke="#263238" stroke-width="0.432" stroke-miterlimit="10"/>
<path d="M62.5234 155.527C62.5234 155.527 72.793 129.067 74.2 127.523C75.6071 125.978 78.7247 123.229 80.1201 121.339C81.5154 119.448 85.3395 114.642 86.7348 114.642C88.1302 114.642 91.4055 115.84 92.9993 116.186C94.5932 116.532 95.609 117.045 95.7784 119.644C95.9477 122.243 93.6941 122.393 93.6941 122.393L92.8242 121.362C92.8242 121.362 86.5597 130.641 84.6506 131.839C83.5101 132.564 82.2823 133.145 80.9958 133.568L72.6412 164.322L62.5234 155.527Z" fill="white" stroke="#263238" stroke-width="0.432" stroke-miterlimit="10"/>
<path d="M98.7479 78.4158C98.7479 78.4158 101.165 80.442 99.5536 87.3124C97.9423 94.1827 97.5424 97.6237 97.5424 101.67C97.5424 105.717 96.3368 111.376 92.9056 115.015C89.4745 118.654 85.2608 123.911 80.23 123.708C72.2606 123.387 68.3541 112.383 65.7402 107.329C63.1262 102.276 62.5234 95.3996 62.5234 92.5699C62.5234 89.7403 62.9234 83.0679 66.5458 78.0141C70.1683 72.9603 80.0329 70.94 84.2581 71.5455C88.4834 72.151 93.7171 72.7566 98.7479 78.4158Z" fill="white" stroke="#263238" stroke-width="0.432" stroke-miterlimit="10"/>
<path d="M64.2232 96.3867C64.2232 96.3867 65.0307 93.5836 68.6613 91.9802C72.2919 90.3767 74.5109 87.5736 73.3085 84.9666C72.106 82.3596 72.7276 79.7756 77.9556 78.3567C83.1837 76.9379 84.6127 82.1635 89.6549 81.3617C94.6971 80.56 96.1087 78.5586 98.7285 79.7583C101.348 80.958 100.14 84.3725 100.14 84.3725C100.14 84.3725 103.37 78.5644 97.1194 71.9545C90.869 65.3447 75.7366 62.9395 65.2456 70.553C54.7546 78.1664 60.8076 95.9888 60.8076 95.9888C60.8076 95.9888 61.4001 96.7847 64.2232 96.3867Z" fill="#263238" stroke="#263238" stroke-width="0.432" stroke-miterlimit="10"/>
<path d="M89.3067 99.9541L88.7141 111.618L84.5547 110.008" stroke="#263238" stroke-width="0.432" stroke-miterlimit="10"/>
<path d="M86.2824 115.891C86.2824 115.891 82.1142 116.444 80.2344 113.778" stroke="#263238" stroke-width="0.432" stroke-miterlimit="10"/>
<path d="M81.4868 99.7076C81.3117 100.903 80.7041 101.776 80.1348 101.674C79.5655 101.573 79.248 100.527 79.4232 99.337C79.5983 98.1474 80.2059 97.2687 80.7752 97.3703C81.3445 97.4719 81.662 98.518 81.4868 99.7076Z" fill="#263238"/>
<path d="M94.4478 100.336C94.2728 101.412 93.6658 102.198 93.097 102.106C92.5283 102.015 92.2056 101.073 92.3861 100.008C92.5666 98.9429 93.1681 98.1412 93.7369 98.2327C94.3056 98.3242 94.6228 99.2657 94.4478 100.336Z" fill="#263238"/>
<path d="M76.3516 94.7704C76.3516 94.7704 80.8967 90.6052 84.5596 93.8426" stroke="#263238" stroke-width="0.864" stroke-miterlimit="10" stroke-linecap="round"/>
<path d="M91.4688 93.9064C91.4688 93.9064 94.4918 91.0971 97.0848 93.7506" stroke="#263238" stroke-width="0.864" stroke-miterlimit="10" stroke-linecap="round"/>
<path d="M87.1461 97.231C87.1461 97.231 80.8963 96.2593 71.2269 97.8059C71.2269 97.8059 70.3778 104.177 74.9237 106.948C79.4695 109.719 83.8738 107.086 85.0059 105.562C87.2935 102.526 87.1461 97.231 87.1461 97.231Z" stroke="#263238" stroke-width="0.864" stroke-miterlimit="10"/>
<path d="M100.973 96.3589C100.973 96.3589 96.5787 95.4261 89.7836 96.892C89.7836 96.892 89.2039 103.034 92.3811 105.699C95.5583 108.364 98.6775 105.832 99.4776 104.366C101.055 101.464 100.973 96.3589 100.973 96.3589Z" stroke="#263238" stroke-width="0.864" stroke-miterlimit="10"/>
<path d="M87.1484 97.362C87.1484 97.362 87.8379 95.6593 90.1724 97.0346" stroke="#263238" stroke-width="0.864" stroke-miterlimit="10"/>
<path d="M64.8757 97.6609C64.8757 97.6609 63.5226 89.1775 59.8644 93.3149C56.2061 97.4523 59.4802 101.596 61.2174 103.45C62.9547 105.304 65.1151 103.45 65.1151 103.45" fill="white"/>
<path d="M64.8757 97.6609C64.8757 97.6609 63.5226 89.1775 59.8644 93.3149C56.2061 97.4523 59.4802 101.596 61.2174 103.45C62.9547 105.304 65.1151 103.45 65.1151 103.45" stroke="#263238" stroke-width="0.432" stroke-miterlimit="10"/>
<path d="M49.8687 138.402C52.349 143.006 54.027 147.998 54.8305 153.165C56.0419 161.462 55.868 163.022 55.868 163.022L61.9138 155.768C61.9138 155.768 71.7678 162.68 73.3155 164.924C74.8632 167.168 75.0544 167.864 75.0544 167.864C75.0544 167.864 75.0544 181.345 69.3507 189.469C63.6469 197.592 60.882 197.586 55.3579 197.586C49.8339 197.586 42.7448 192.397 38.9423 183.757C35.1398 175.118 32.027 162.518 31.3373 161.283C30.6475 160.048 28.3984 153.165 28.3984 153.165" fill="#FBD362"/>
<path d="M49.8687 138.402C52.349 143.006 54.027 147.998 54.8305 153.165C56.0419 161.462 55.868 163.022 55.868 163.022L61.9138 155.768C61.9138 155.768 71.7678 162.68 73.3155 164.924C74.8632 167.168 75.0544 167.864 75.0544 167.864C75.0544 167.864 75.0544 181.345 69.3507 189.469C63.6469 197.592 60.882 197.586 55.3579 197.586C49.8339 197.586 42.7448 192.397 38.9423 183.757C35.1398 175.118 32.027 162.518 31.3373 161.283C30.6475 160.048 28.3984 153.165 28.3984 153.165" stroke="#263238" stroke-width="0.432" stroke-miterlimit="10"/>
<path d="M47.4054 172.962C46.8879 173.675 46.4559 174.272 46.1094 174.69" stroke="#263238" stroke-width="0.432" stroke-miterlimit="10"/>
<path d="M56.0503 163.026C56.0503 163.026 52.6356 166.966 49.5703 170.37" stroke="#263238" stroke-width="0.432" stroke-miterlimit="10"/>
<path d="M56.7755 161.944C60.5091 163.047 64.0869 164.642 67.4189 166.688C73.2532 170.225 73.7542 174.068 75.482 172.665C77.2099 171.262 78.5691 166.865 76.8528 164.413C75.1365 161.961 69.8148 156.161 66.0424 154.393C62.2699 152.625 60.7207 153.686 59.5169 156.326C58.3132 158.967 55.5717 160.364 56.7755 161.944Z" fill="white" stroke="#263238" stroke-width="0.432" stroke-miterlimit="10"/>
<path d="M56.4766 176.418C56.5293 178.026 56.8196 179.622 57.3406 181.17" stroke="#263238" stroke-width="0.432" stroke-miterlimit="10"/>
<path d="M56.9086 162.162C56.9086 162.162 56.3805 167.979 56.492 173.394" stroke="#263238" stroke-width="0.432" stroke-miterlimit="10"/>
<path d="M62.5234 164.754C62.5234 164.754 63.7327 171.678 65.1154 174.69" stroke="#263238" stroke-width="0.432" stroke-miterlimit="10"/>
<path d="M113.16 194.274L121.03 182.207C121.253 181.865 120.919 181.432 120.531 181.562L109.898 185.106L99.2422 189.81L102.41 191.25L107.018 195.858L112.899 194.458C113.006 194.432 113.1 194.366 113.16 194.274Z" fill="black"/>
<path d="M109.61 185.202L109.898 185.106M109.898 185.106L120.531 181.562C120.919 181.432 121.253 181.865 121.03 182.207L113.16 194.274C113.1 194.366 113.006 194.432 112.899 194.458L107.018 195.858L102.41 191.25L99.2422 189.81L109.898 185.106Z" stroke="black" stroke-width="0.432"/>
<path fill-rule="evenodd" clip-rule="evenodd" d="M62.7796 100.712C63.5784 100.439 64.1528 99.6824 64.1528 98.7912C64.1528 97.6704 63.2441 96.7617 62.1233 96.7617C61.0024 96.7617 60.0938 97.6704 60.0938 98.7912C60.0938 99.5307 60.4892 100.178 61.0802 100.533L62.0541 105.402C62.0945 105.604 62.2718 105.75 62.4777 105.75H62.8059C63.0615 105.75 63.2612 105.529 63.2358 105.275L62.7796 100.712Z" fill="#263238"/>
<path d="M62.8621 105.138C63.3555 111.657 62.566 125.804 55.461 130.241C46.5797 135.787 54.8689 155.344 66.4146 145.712" stroke="black" stroke-width="0.432"/>
<path d="M77.6484 145.314C86.0147 147.04 99.4993 155.264 86.5069 174.359C73.5145 193.453 83.6525 196.885 90.3455 196.214" stroke="black" stroke-width="0.432"/>
<path d="M84.1256 147.906C82.2274 145.89 79.2702 140.13 82.627 133.218" stroke="black" stroke-width="0.432"/>
<path d="M92.8062 192.834L89.3576 198.519C89.1669 198.833 89.4309 199.227 89.7941 199.169L94.491 198.43L92.8062 192.834Z" fill="black" stroke="black" stroke-width="0.432"/>
<path opacity="0.7" d="M203.25 91.484C201.634 90.8446 199.985 90.3836 198.318 90.1052C195.956 89.8295 194.126 91.2279 193.106 91.2279C192.086 91.2279 191.052 87.5841 187.419 85.319C183.786 83.0539 180.95 90.381 177.792 90.381C176.283 90.381 175.319 88.7265 174.341 86.9341C173.906 85.9017 173.353 84.9768 172.706 84.1963C172.082 83.2769 171.254 82.6862 170.359 82.5221C170.122 82.4926 169.883 82.4926 169.646 82.5221C169.081 82.4826 168.516 82.6152 167.991 82.9109C167.465 83.2066 166.991 83.6585 166.6 84.2357C165.953 85.0163 165.4 85.9411 164.965 86.9735C163.987 88.7659 163.023 90.4204 161.514 90.4204C160.148 90.1485 158.869 89.3124 157.839 88.0174C156.946 86.9276 155.943 86.0314 154.863 85.3584C154.393 85.0646 153.882 84.9232 153.368 84.9447C152.859 84.9235 152.352 85.0649 151.887 85.3584C150.807 86.0314 149.804 86.9276 148.911 88.0174C147.877 89.3159 146.593 90.1523 145.222 90.4204C143.727 90.4204 142.763 88.7659 141.785 86.9735C141.35 85.9411 140.797 85.0163 140.15 84.2357C139.524 83.3202 138.697 82.7301 137.803 82.5615C137.566 82.532 137.327 82.532 137.09 82.5615C136.853 82.533 136.615 82.533 136.377 82.5615C135.483 82.7301 134.656 83.3202 134.03 84.2357C133.387 85.0168 132.839 85.9418 132.409 86.9735C131.431 88.7659 130.467 90.4204 128.958 90.4204C125.8 90.4204 122.964 83.113 119.331 85.3584C115.698 87.6038 114.58 91.2673 113.644 91.2673C112.708 91.2673 110.85 89.8689 108.432 90.1446C106.765 90.423 105.116 90.884 103.5 91.5234C105.115 92.172 106.764 92.6332 108.432 92.9021C110.794 93.1976 112.694 91.7794 113.644 91.7794C114.594 91.7794 115.698 95.443 119.331 97.6883C122.964 99.9337 125.8 92.6263 128.958 92.6263C130.467 92.6263 131.431 94.2808 132.409 96.0732C132.836 97.1024 133.384 98.0216 134.03 98.7913C134.659 99.7055 135.484 100.301 136.377 100.485C136.615 100.504 136.853 100.504 137.09 100.485C137.327 100.505 137.565 100.505 137.803 100.485C138.696 100.301 139.521 99.7055 140.15 98.7913C140.8 98.0224 141.353 97.1033 141.785 96.0732C142.763 94.2808 143.727 92.6263 145.222 92.6263C146.596 92.8802 147.883 93.7185 148.911 95.0293C149.804 96.1191 150.807 97.0153 151.887 97.6883C152.353 97.9764 152.86 98.1111 153.368 98.0823C153.881 98.1114 154.392 97.9767 154.863 97.6883C155.947 97.0165 156.951 96.113 157.839 95.0097C158.867 93.7147 160.147 92.8845 161.514 92.6263C163.023 92.6263 163.987 94.2808 164.965 96.0732C165.397 97.1033 165.95 98.0224 166.6 98.7913C167.227 99.7091 168.053 100.305 168.947 100.485C169.18 100.505 169.413 100.505 169.646 100.485C169.883 100.505 170.121 100.505 170.359 100.485C171.253 100.305 172.079 99.7091 172.706 98.7913C173.356 98.0224 173.909 97.1033 174.341 96.0732C175.319 94.2808 176.283 92.6263 177.792 92.6263C180.95 92.6263 183.786 99.9337 187.419 97.6883C191.052 95.443 192.156 91.7794 193.106 91.7794C194.056 91.7794 195.9 93.1976 198.318 92.9021C199.986 92.6332 201.635 92.172 203.25 91.5234V91.484Z" fill="#D0D0D0"/>
<path opacity="0.7" d="M203.101 91.8637C201.487 91.4108 199.84 91.0842 198.176 90.887C195.818 90.6917 193.99 91.6823 192.972 91.6823C191.953 91.6823 190.921 89.1012 187.294 87.4968C183.666 85.8923 180.834 91.0824 177.681 91.0824C176.174 91.0824 175.211 89.9104 174.235 88.6408C173.8 87.9096 173.249 87.2544 172.602 86.7015C171.979 86.0503 171.152 85.6319 170.259 85.5157C170.022 85.4948 169.784 85.4948 169.547 85.5157C168.983 85.4877 168.419 85.5816 167.894 85.7911C167.369 86.0005 166.896 86.3206 166.506 86.7295C165.859 87.2824 165.308 87.9375 164.873 88.6687C163.897 89.9383 162.934 91.1103 161.427 91.1103C160.063 90.9177 158.786 90.3254 157.758 89.4081C156.866 88.6362 155.865 88.0014 154.786 87.5247C154.317 87.3166 153.807 87.2165 153.293 87.2317C152.785 87.2166 152.279 87.3168 151.815 87.5247C150.736 88.0014 149.734 88.6362 148.843 89.4081C147.811 90.3279 146.529 90.9204 145.16 91.1103C143.667 91.1103 142.704 89.9383 141.727 88.6687C141.293 87.9375 140.742 87.2824 140.095 86.7295C139.47 86.081 138.644 85.663 137.751 85.5436C137.515 85.5227 137.276 85.5227 137.04 85.5436C136.803 85.5234 136.565 85.5234 136.328 85.5436C135.435 85.663 134.609 86.081 133.984 86.7295C133.342 87.2828 132.795 87.9379 132.366 88.6687C131.389 89.9383 130.427 91.1103 128.92 91.1103C125.767 91.1103 122.935 85.9342 119.307 87.5247C115.68 89.1152 114.564 91.7102 113.629 91.7102C112.694 91.7102 110.839 90.7196 108.425 90.915C106.76 91.1121 105.114 91.4386 103.5 91.8915C105.112 92.351 106.759 92.6777 108.425 92.8682C110.783 93.0774 112.68 92.0729 113.629 92.0729C114.578 92.0729 115.68 94.6679 119.307 96.2584C122.935 97.8489 125.767 92.6728 128.92 92.6728C130.427 92.6728 131.389 93.8448 132.366 95.1144C132.792 95.8434 133.339 96.4945 133.984 97.0397C134.612 97.6872 135.436 98.1091 136.328 98.2396C136.565 98.253 136.803 98.253 137.04 98.2396C137.277 98.2535 137.514 98.2535 137.751 98.2396C138.644 98.1091 139.468 97.6872 140.095 97.0397C140.744 96.4951 141.296 95.844 141.727 95.1144C142.704 93.8448 143.667 92.6728 145.16 92.6728C146.532 92.8527 147.817 93.4464 148.843 94.3749C149.734 95.1469 150.736 95.7817 151.815 96.2584C152.28 96.4624 152.786 96.5579 153.293 96.5375C153.806 96.558 154.316 96.4626 154.786 96.2584C155.868 95.7825 156.871 95.1425 157.758 94.361C158.785 93.4438 160.063 92.8557 161.427 92.6728C162.934 92.6728 163.897 93.8448 164.873 95.1144C165.304 95.844 165.856 96.4951 166.506 97.0397C167.131 97.6898 167.956 98.1121 168.849 98.2396C169.082 98.2532 169.315 98.2532 169.547 98.2396C169.784 98.2535 170.022 98.2535 170.259 98.2396C171.152 98.1121 171.977 97.6898 172.602 97.0397C173.252 96.4951 173.804 95.844 174.235 95.1144C175.211 93.8448 176.174 92.6728 177.681 92.6728C180.834 92.6728 183.666 97.8489 187.294 96.2584C190.921 94.6679 192.023 92.0729 192.972 92.0729C193.921 92.0729 195.762 93.0774 198.176 92.8682C199.841 92.6777 201.489 92.351 203.101 91.8915V91.8637Z" fill="#999292"/>
<path opacity="0.7" d="M203.25 91.4947C201.634 91.2815 199.985 91.1279 198.318 91.0351C195.956 90.9432 194.126 91.4093 193.106 91.4093C192.086 91.4093 191.052 90.1947 187.419 89.4397C183.786 88.6846 180.95 91.127 177.792 91.127C176.283 91.127 175.319 90.5755 174.341 89.978C173.906 89.6339 173.353 89.3256 172.706 89.0654C172.082 88.759 171.254 88.5621 170.359 88.5074C170.122 88.4975 169.883 88.4975 169.646 88.5074C169.081 88.4942 168.516 88.5384 167.991 88.637C167.465 88.7355 166.991 88.8862 166.6 89.0786C165.953 89.3388 165.4 89.647 164.965 89.9912C163.987 90.5886 163.023 91.1401 161.514 91.1401C160.148 91.0495 158.869 90.7708 157.839 90.3391C156.946 89.9759 155.943 89.6771 154.863 89.4528C154.393 89.3549 153.882 89.3077 153.368 89.3149C152.859 89.3078 152.352 89.355 151.887 89.4528C150.807 89.6771 149.804 89.9759 148.911 90.3391C147.877 90.772 146.593 91.0508 145.222 91.1401C143.727 91.1401 142.763 90.5886 141.785 89.9912C141.35 89.647 140.797 89.3388 140.15 89.0786C139.524 88.7734 138.697 88.5767 137.803 88.5205C137.566 88.5107 137.327 88.5107 137.09 88.5205C136.853 88.511 136.615 88.511 136.377 88.5205C135.483 88.5767 134.656 88.7734 134.03 89.0786C133.387 89.3389 132.839 89.6473 132.409 89.9912C131.431 90.5886 130.467 91.1401 128.958 91.1401C125.8 91.1401 122.964 88.7043 119.331 89.4528C115.698 90.2013 114.58 91.4224 113.644 91.4224C112.708 91.4224 110.85 90.9563 108.432 91.0482C106.765 91.141 105.116 91.2947 103.5 91.5078C105.115 91.724 106.764 91.8777 108.432 91.9674C110.794 92.0659 112.694 91.5931 113.644 91.5931C114.594 91.5931 115.698 92.8143 119.331 93.5628C122.964 94.3112 125.8 91.8754 128.958 91.8754C130.467 91.8754 131.431 92.4269 132.409 93.0244C132.836 93.3675 133.384 93.6739 134.03 93.9304C134.659 94.2352 135.484 94.4337 136.377 94.4951C136.615 94.5014 136.853 94.5014 137.09 94.4951C137.327 94.5016 137.565 94.5016 137.803 94.4951C138.696 94.4337 139.521 94.2352 140.15 93.9304C140.8 93.6741 141.353 93.3678 141.785 93.0244C142.763 92.4269 143.727 91.8754 145.222 91.8754C146.596 91.9601 147.883 92.2395 148.911 92.6764C149.804 93.0397 150.807 93.3384 151.887 93.5628C152.353 93.6588 152.86 93.7037 153.368 93.6941C153.881 93.7038 154.392 93.6589 154.863 93.5628C155.947 93.3388 156.951 93.0377 157.839 92.6699C158.867 92.2382 160.147 91.9615 161.514 91.8754C163.023 91.8754 163.987 92.4269 164.965 93.0244C165.397 93.3678 165.95 93.6741 166.6 93.9304C167.227 94.2364 168.053 94.4351 168.947 94.4951C169.18 94.5015 169.413 94.5015 169.646 94.4951C169.883 94.5016 170.121 94.5016 170.359 94.4951C171.253 94.4351 172.079 94.2364 172.706 93.9304C173.356 93.6741 173.909 93.3678 174.341 93.0244C175.319 92.4269 176.283 91.8754 177.792 91.8754C180.95 91.8754 183.786 94.3112 187.419 93.5628C191.052 92.8143 192.156 91.5931 193.106 91.5931C194.056 91.5931 195.9 92.0659 198.318 91.9674C199.986 91.8777 201.635 91.724 203.25 91.5078V91.4947Z" fill="#263238"/>
<path opacity="0.7" d="M203.25 91.498C201.634 91.4181 199.985 91.3605 198.318 91.3257C195.956 91.2912 194.126 91.466 193.106 91.466C192.086 91.466 191.052 91.0105 187.419 90.7274C183.786 90.4442 180.95 91.3601 177.792 91.3601C176.283 91.3601 175.319 91.1533 174.341 90.9293C173.906 90.8002 173.353 90.6846 172.706 90.587C172.082 90.4721 171.254 90.3983 170.359 90.3778C170.122 90.3741 169.883 90.3741 169.646 90.3778C169.081 90.3728 168.516 90.3894 167.991 90.4264C167.465 90.4633 166.991 90.5198 166.6 90.592C165.953 90.6895 165.4 90.8051 164.965 90.9342C163.987 91.1582 163.023 91.365 161.514 91.365C160.148 91.3311 158.869 91.2265 157.839 91.0647C156.946 90.9285 155.943 90.8164 154.863 90.7323C154.393 90.6956 153.882 90.6779 153.368 90.6806C152.859 90.6779 152.352 90.6956 151.887 90.7323C150.807 90.8164 149.804 90.9285 148.911 91.0647C147.877 91.227 146.593 91.3315 145.222 91.365C143.727 91.365 142.763 91.1582 141.785 90.9342C141.35 90.8051 140.797 90.6895 140.15 90.592C139.524 90.4775 138.697 90.4038 137.803 90.3827C137.566 90.379 137.327 90.379 137.09 90.3827C136.853 90.3791 136.615 90.3791 136.377 90.3827C135.483 90.4038 134.656 90.4775 134.03 90.592C133.387 90.6896 132.839 90.8052 132.409 90.9342C131.431 91.1582 130.467 91.365 128.958 91.365C125.8 91.365 122.964 90.4516 119.331 90.7323C115.698 91.013 114.58 91.4709 113.644 91.4709C112.708 91.4709 110.85 91.2961 108.432 91.3306C106.765 91.3654 105.116 91.423 103.5 91.5029C105.115 91.584 106.764 91.6416 108.432 91.6753C110.794 91.7122 112.694 91.5349 113.644 91.5349C114.594 91.5349 115.698 91.9929 119.331 92.2735C122.964 92.5542 125.8 91.6408 128.958 91.6408C130.467 91.6408 131.431 91.8476 132.409 92.0717C132.836 92.2003 133.384 92.3152 134.03 92.4114C134.659 92.5257 135.484 92.6001 136.377 92.6232C136.615 92.6255 136.853 92.6255 137.09 92.6232C137.327 92.6256 137.565 92.6256 137.803 92.6232C138.696 92.6001 139.521 92.5257 140.15 92.4114C140.8 92.3153 141.353 92.2004 141.785 92.0717C142.763 91.8476 143.727 91.6408 145.222 91.6408C146.596 91.6725 147.883 91.7773 148.911 91.9412C149.804 92.0774 150.807 92.1894 151.887 92.2735C152.353 92.3095 152.86 92.3264 153.368 92.3228C153.881 92.3264 154.392 92.3096 154.863 92.2735C155.947 92.1896 156.951 92.0766 157.839 91.9387C158.867 91.7768 160.147 91.6731 161.514 91.6408C163.023 91.6408 163.987 91.8476 164.965 92.0717C165.397 92.2004 165.95 92.3153 166.6 92.4114C167.227 92.5261 168.053 92.6007 168.947 92.6232C169.18 92.6256 169.413 92.6256 169.646 92.6232C169.883 92.6256 170.121 92.6256 170.359 92.6232C171.253 92.6007 172.079 92.5261 172.706 92.4114C173.356 92.3153 173.909 92.2004 174.341 92.0717C175.319 91.8476 176.283 91.6408 177.792 91.6408C180.95 91.6408 183.786 92.5542 187.419 92.2735C191.052 91.9929 192.156 91.5349 193.106 91.5349C194.056 91.5349 195.9 91.7122 198.318 91.6753C199.986 91.6416 201.635 91.584 203.25 91.5029V91.498Z" fill="#D9D9D9"/>
<path d="M128.111 59.373L132.609 71.567H132.791L132.609 64.547V59.373H136.483V76H131.036L126.369 63.533H126.2L126.382 70.709V76H122.508V59.373H128.111ZM145.631 76.325C143.308 76.325 141.592 75.8093 140.483 74.778C139.374 73.738 138.819 72.2257 138.819 70.241V68.915C138.819 66.9563 139.339 65.457 140.379 64.417C141.419 63.3683 142.931 62.844 144.916 62.844C146.251 62.844 147.36 63.0737 148.244 63.533C149.137 63.9837 149.804 64.6293 150.246 65.47C150.697 66.3107 150.922 67.3203 150.922 68.499V68.928C150.922 69.2573 150.905 69.5953 150.87 69.942C150.844 70.28 150.805 70.5963 150.753 70.891H147.165C147.2 70.3883 147.221 69.916 147.23 69.474C147.239 69.0233 147.243 68.616 147.243 68.252C147.243 67.7233 147.161 67.2813 146.996 66.926C146.831 66.562 146.576 66.2847 146.229 66.094C145.891 65.9033 145.453 65.808 144.916 65.808C144.119 65.808 143.534 66.0247 143.161 66.458C142.797 66.8827 142.615 67.4893 142.615 68.278V69.448L142.641 69.877V70.787C142.641 71.1163 142.693 71.4283 142.797 71.723C142.91 72.0177 143.1 72.2777 143.369 72.503C143.646 72.7197 144.023 72.893 144.5 73.023C144.985 73.1443 145.601 73.205 146.346 73.205C147.135 73.205 147.893 73.1313 148.621 72.984C149.349 72.828 150.047 72.62 150.714 72.36L150.389 75.35C149.8 75.6533 149.102 75.8917 148.296 76.065C147.49 76.2383 146.602 76.325 145.631 76.325ZM140.925 70.891V68.434H149.947V70.891H140.925ZM154.52 76L151.959 63.221H155.989L157.575 73.192H157.809L159.369 63.533H164.231L165.817 73.192H166.038L167.637 63.221H171.628L169.067 76H163.412L162.125 67.862L161.904 66.432H161.722L161.488 67.862L160.201 76H154.52ZM177.81 76.312C176.796 76.312 175.881 76.221 175.067 76.039C174.252 75.8657 173.554 75.662 172.974 75.428L172.636 72.087C173.303 72.3643 174.04 72.6157 174.846 72.841C175.66 73.0577 176.54 73.166 177.485 73.166C178.239 73.166 178.772 73.088 179.084 72.932C179.404 72.7673 179.565 72.516 179.565 72.178V72.126C179.565 71.892 179.482 71.7013 179.318 71.554C179.162 71.398 178.884 71.2593 178.486 71.138C178.096 71.0167 177.545 70.8737 176.835 70.709C175.769 70.4577 174.924 70.163 174.3 69.825C173.676 69.4783 173.229 69.058 172.961 68.564C172.701 68.0613 172.571 67.4677 172.571 66.783V66.679C172.571 65.4137 173.021 64.469 173.923 63.845C174.824 63.2123 176.15 62.896 177.901 62.896C178.889 62.896 179.777 62.987 180.566 63.169C181.354 63.351 182.017 63.5677 182.555 63.819L182.893 66.926C182.269 66.6487 181.571 66.419 180.8 66.237C180.037 66.055 179.235 65.964 178.395 65.964C177.883 65.964 177.48 65.9987 177.186 66.068C176.9 66.1373 176.696 66.237 176.575 66.367C176.462 66.497 176.406 66.6573 176.406 66.848V66.887C176.406 67.095 176.475 67.2727 176.614 67.42C176.752 67.5673 177.004 67.706 177.368 67.836C177.74 67.966 178.273 68.1133 178.967 68.278C180.041 68.512 180.908 68.7807 181.567 69.084C182.225 69.3787 182.706 69.7643 183.01 70.241C183.313 70.709 183.465 71.333 183.465 72.113V72.23C183.465 73.608 183.001 74.635 182.074 75.311C181.146 75.9783 179.725 76.312 177.81 76.312Z" fill="#263238"/>
</svg>
