<svg width="240" height="210" viewBox="0 0 240 210" fill="none" xmlns="http://www.w3.org/2000/svg">
<g clip-path="url(#clip0_1928_2833)">
<rect x="21.25" y="0.000976562" width="206.25" height="206.25" rx="103.125" fill="#EAD2EE"/>
<path d="M97.9673 88.3305C97.9673 88.3305 63.5522 94.8715 59.7587 100.084C55.9651 105.297 46.4948 133.007 45.6942 134.208C44.8937 135.409 28.6641 159.681 26.2624 166.658C23.8607 173.636 25.662 179.886 31.7208 183.688C37.7796 187.491 43.9385 185.69 46.9406 185.69C49.9427 185.69 57.7573 179.085 58.3577 176.274C58.9581 173.463 60.7412 165.903 60.7412 165.903L71.9581 146.271L78.7629 187.136H172.32L178.688 148.072L198.356 184.098H230.788L210.555 141.031L199.339 120.799C199.339 120.799 194.926 105.77 188.112 99.5657C181.299 93.3613 171.892 91.3781 168.69 91.1507C165.487 90.9232 156.863 88.9491 152.46 87.9393C148.057 86.9295 138.814 83.9365 138.814 83.9365L97.9673 88.3305Z" fill="white"/>
<path d="M172.317 187.546H78.7601C78.6526 187.545 78.5489 187.507 78.4673 187.437C78.3857 187.367 78.3315 187.27 78.3143 187.164L71.7188 147.563L61.1659 166.031C60.984 166.768 59.3465 173.746 58.7733 176.375C58.1092 179.477 50.0126 186.145 46.9468 186.145C46.3464 186.145 45.5913 186.227 44.7271 186.318C41.3975 186.655 36.3667 187.173 31.4814 184.071C25.4135 180.232 23.3757 173.827 25.8866 166.513C28.1427 159.918 42.4619 138.312 45.3002 134.054L45.373 133.954C45.5823 133.626 46.7194 130.561 48.0385 127.004C51.2953 118.206 56.7537 103.496 59.4374 99.8118C63.3038 94.5171 96.5362 88.1581 97.9463 87.8852L138.811 83.473C138.874 83.4595 138.939 83.4595 139.002 83.473C139.093 83.473 148.245 86.4842 152.585 87.4758L153.494 87.6851C158.043 88.7312 165.748 90.487 168.705 90.669C171.662 90.8509 181.359 92.7705 188.41 99.2022C195.115 105.307 199.418 119.48 199.745 120.59L210.935 140.786L231.185 183.88C231.221 183.947 231.24 184.022 231.24 184.098C231.24 184.174 231.221 184.249 231.185 184.317C231.144 184.381 231.088 184.433 231.021 184.47C230.954 184.506 230.879 184.526 230.803 184.526H198.353C198.273 184.526 198.193 184.505 198.124 184.463C198.055 184.421 197.999 184.361 197.962 184.289L178.93 149.41L172.735 187.164C172.719 187.266 172.669 187.359 172.593 187.428C172.517 187.498 172.419 187.539 172.317 187.546ZM79.1513 186.636H171.944L178.312 147.955C178.329 147.862 178.374 147.777 178.44 147.71C178.507 147.643 178.592 147.599 178.685 147.582C178.779 147.567 178.874 147.582 178.959 147.624C179.044 147.667 179.114 147.734 179.158 147.818L198.663 183.634H230.13L210.207 141.214L198.945 121.008C198.941 120.978 198.941 120.948 198.945 120.917C198.899 120.763 194.487 105.943 187.855 99.8845C181.032 93.6711 171.48 91.7698 168.696 91.5969C165.676 91.4059 157.952 89.641 153.349 88.5948L152.439 88.3765C148.3 87.4667 139.848 84.7375 138.866 84.3918L98.1191 88.7859C97.2094 88.9678 63.8132 95.3905 60.1925 100.349C57.5816 103.924 52.1505 118.543 48.9119 127.322C47.2289 131.871 46.401 134.072 46.1827 134.463L46.119 134.554C43.2806 138.803 29.0252 160.318 26.7963 166.813C24.4037 173.8 26.2596 179.659 32.0182 183.307C36.6487 186.236 41.4885 185.736 44.6907 185.408C45.6004 185.317 46.3555 185.235 47.0014 185.235C49.7306 185.235 57.3996 178.867 57.9819 176.184C58.5641 173.5 60.3654 165.831 60.3836 165.758C60.3797 165.716 60.3797 165.673 60.3836 165.631L71.5823 145.999C71.6326 145.919 71.7051 145.856 71.7908 145.818C71.8764 145.779 71.9716 145.766 72.0645 145.78C72.156 145.798 72.2401 145.843 72.3051 145.91C72.3702 145.976 72.4132 146.061 72.4284 146.153L79.1513 186.636Z" fill="#263238"/>
<path d="M55.5782 164.748C55.4685 164.747 55.3624 164.709 55.278 164.639C45.0982 155.933 34.2906 157.461 34.1814 157.479C34.0623 157.495 33.9417 157.464 33.845 157.393C33.7483 157.321 33.683 157.215 33.6629 157.097C33.6525 157.038 33.6543 156.977 33.6681 156.918C33.6819 156.86 33.7074 156.805 33.7431 156.756C33.7789 156.708 33.824 156.667 33.8759 156.636C33.9277 156.606 33.9853 156.586 34.0449 156.578C34.1541 156.578 45.3529 154.959 55.8785 163.947C55.9488 164.007 55.9992 164.088 56.0227 164.177C56.0463 164.267 56.042 164.361 56.0103 164.448C55.9787 164.535 55.9212 164.611 55.8456 164.664C55.7701 164.718 55.6799 164.747 55.5873 164.748H55.5782Z" fill="#263238"/>
<path d="M187.183 163.565C193.333 159.635 204.568 152.994 214.757 149.919L210.582 141.031L199.365 120.799C199.365 120.799 194.952 105.77 188.139 99.5657C181.325 93.3613 171.918 91.3781 168.716 91.1507C165.514 90.9232 156.889 88.9491 152.486 87.9393C148.083 86.9295 138.84 83.9365 138.84 83.9365L97.9662 88.3305C97.9662 88.3305 66.7534 93.4068 59.7575 100.084C51.0423 108.381 46.4937 133.007 45.6931 134.208C45.3292 134.763 41.7176 140.158 37.6875 146.508C42.0087 150.047 51.7974 157.133 63.9605 160.154L71.9388 146.189L78.7436 187.054H172.318L178.687 147.991L187.183 163.565Z" fill="#FBD362"/>
<path d="M172.322 187.546H78.7649C78.6574 187.545 78.5537 187.506 78.4721 187.436C78.3905 187.367 78.3363 187.27 78.3191 187.164L71.7236 147.563L64.373 160.445C64.324 160.533 64.2475 160.601 64.1553 160.641C64.0632 160.68 63.9606 160.688 63.8635 160.663C51.8005 157.625 42.1119 150.729 37.4177 146.89C37.3321 146.82 37.2748 146.722 37.2564 146.613C37.238 146.504 37.2597 146.393 37.3176 146.299C40.6472 141.05 43.6857 136.41 45.2504 134.108L45.3414 133.981C45.4779 133.745 45.8873 132.162 46.3148 130.497C48.1343 123.283 52.5283 106.389 59.4604 99.7752C66.3926 93.1615 96.6502 88.1216 97.9238 87.9487L138.816 83.5365C138.879 83.523 138.944 83.523 139.007 83.5365C139.098 83.5365 148.25 86.5477 152.589 87.5393L153.499 87.7486C158.048 88.7948 165.753 90.5505 168.71 90.7325C171.667 90.9144 181.364 92.834 188.415 99.2657C195.119 105.37 199.422 119.544 199.75 120.654L210.94 140.849L215.133 149.756C215.161 149.816 215.175 149.881 215.175 149.947C215.175 150.013 215.161 150.078 215.133 150.138C215.107 150.197 215.068 150.249 215.019 150.292C214.971 150.334 214.913 150.365 214.851 150.383C204.626 153.486 193.263 160.245 187.396 164.029C187.344 164.064 187.286 164.088 187.225 164.099C187.164 164.11 187.101 164.108 187.041 164.093C186.918 164.058 186.814 163.976 186.75 163.866L178.926 149.492L172.731 187.246C172.7 187.331 172.645 187.405 172.572 187.458C172.499 187.512 172.412 187.542 172.322 187.546ZM79.1561 186.636H171.949L178.317 147.954C178.334 147.862 178.378 147.776 178.445 147.71C178.512 147.643 178.597 147.598 178.69 147.581C178.783 147.567 178.879 147.582 178.964 147.624C179.049 147.666 179.118 147.734 179.163 147.818L187.396 162.92C193.309 159.162 204.198 152.749 214.16 149.628L210.212 141.213L198.949 121.008C198.946 120.978 198.946 120.948 198.949 120.917C198.904 120.763 194.492 105.943 187.86 99.8844C181.037 93.6709 171.485 91.7696 168.701 91.5967C165.68 91.4057 157.957 89.6408 153.354 88.5946L152.444 88.3763C148.305 87.4665 139.853 84.7374 138.871 84.3917L98.1057 88.7857C97.8146 88.7857 66.9657 93.9074 60.1427 100.412C53.3197 106.917 49.0895 123.565 47.2518 130.697C46.9903 131.981 46.6221 133.241 46.1511 134.463L46.0601 134.591C44.5681 136.838 41.6024 141.313 38.3638 146.417C43.058 150.211 52.3281 156.697 63.8362 159.663L71.6417 146.017C71.692 145.937 71.7645 145.874 71.8501 145.836C71.9358 145.797 72.031 145.784 72.1239 145.798C72.2154 145.816 72.2994 145.861 72.3645 145.928C72.4296 145.994 72.4726 146.079 72.4878 146.171L79.1561 186.636Z" fill="#263238"/>
<path d="M117.15 119.034C113.511 119.034 110.2 117.596 107.098 114.713C101.248 109.254 98.6555 94.0617 98.5464 93.4158L96.9998 88.667C96.9621 88.5536 96.9705 88.4298 97.0233 88.3226C97.0761 88.2153 97.1689 88.1332 97.2818 88.0938L97.8459 87.9028H97.9459L138.811 83.4906C138.874 83.4771 138.939 83.4771 139.002 83.4906C139.002 83.4906 141.358 84.2639 144.251 85.1463C144.319 85.1703 144.381 85.2088 144.433 85.259C144.485 85.3093 144.525 85.3701 144.551 85.4374L145.297 87.5844C145.307 87.6416 145.307 87.7 145.297 87.7572L145.097 91.9602C144.897 96.2541 141.713 105.606 131.087 113.339C125.92 117.142 121.317 119.034 117.15 119.034ZM97.9641 88.8125L99.3924 93.1974C99.3924 93.4248 102.058 108.799 107.68 114.039C113.948 119.88 121.217 119.425 130.542 112.611C140.894 105.042 143.987 96.0449 144.188 91.9147L144.388 87.8027L143.742 85.9833C141.267 85.2191 139.193 84.5641 138.784 84.4185L98.0642 88.8125H97.9641Z" fill="#263238"/>
<path d="M101.006 128.249C100.922 128.249 100.839 128.226 100.767 128.183C100.695 128.14 100.636 128.078 100.597 128.003C99.8382 126.479 99.1847 124.905 98.6408 123.291C98.6028 123.176 98.6109 123.051 98.6636 122.943C98.7163 122.834 98.8093 122.75 98.9228 122.709C99.0362 122.671 99.16 122.68 99.2672 122.732C99.3745 122.785 99.4566 122.878 99.4959 122.991C100.029 124.566 100.667 126.104 101.406 127.594C101.434 127.647 101.451 127.705 101.456 127.765C101.461 127.824 101.454 127.884 101.436 127.941C101.417 127.998 101.387 128.051 101.348 128.096C101.308 128.141 101.26 128.178 101.206 128.204C101.145 128.236 101.076 128.252 101.006 128.249Z" fill="#263238"/>
<path d="M97.7487 119.088C97.6463 119.089 97.5467 119.056 97.4658 118.993C97.3849 118.93 97.3275 118.842 97.3029 118.743C95.5646 111.195 94.5683 103.495 94.3281 95.7539C94.3302 95.6346 94.3773 95.5205 94.46 95.4345C94.5426 95.3484 94.6548 95.2968 94.7739 95.2899C94.8343 95.2861 94.8948 95.2949 94.9516 95.3157C95.0084 95.3365 95.0602 95.3689 95.1038 95.4108C95.1475 95.4527 95.1819 95.5033 95.205 95.5592C95.228 95.6151 95.2392 95.6752 95.2379 95.7357C95.4742 103.409 96.4584 111.042 98.1763 118.524C98.1913 118.582 98.1948 118.643 98.1864 118.702C98.1781 118.761 98.1582 118.818 98.1277 118.87C98.0973 118.921 98.057 118.966 98.0091 119.002C97.9613 119.038 97.9068 119.065 97.8488 119.079L97.7487 119.088Z" fill="#263238"/>
<path d="M88.3743 109.828C88.279 109.824 88.1874 109.79 88.1123 109.731C88.0372 109.673 87.9825 109.592 87.9558 109.5C86.5367 104.206 89.8299 95.1811 89.9754 94.799C90.0165 94.6856 90.1009 94.5932 90.2101 94.542C90.3192 94.4908 90.4443 94.4851 90.5577 94.5261C90.6696 94.5691 90.7605 94.6537 90.8113 94.7622C90.8622 94.8708 90.8691 94.9948 90.8306 95.1083C90.8306 95.1993 87.4919 104.251 88.8383 109.264C88.8533 109.322 88.8568 109.382 88.8484 109.441C88.8401 109.501 88.8202 109.558 88.7897 109.609C88.7593 109.661 88.719 109.706 88.6711 109.742C88.6233 109.778 88.5688 109.804 88.5108 109.819L88.3743 109.828Z" fill="#263238"/>
<path d="M166.099 133.463C166.008 133.464 165.918 133.437 165.843 133.384C165.768 133.332 165.711 133.258 165.681 133.171C165.141 131.743 164.703 130.277 164.371 128.787C164.357 128.729 164.356 128.668 164.366 128.61C164.376 128.551 164.398 128.495 164.43 128.445C164.463 128.395 164.505 128.352 164.554 128.319C164.603 128.285 164.658 128.262 164.716 128.25C164.775 128.236 164.836 128.235 164.895 128.245C164.954 128.255 165.011 128.277 165.061 128.309C165.112 128.341 165.156 128.383 165.19 128.432C165.225 128.481 165.249 128.537 165.262 128.595C165.577 130.04 165.996 131.46 166.518 132.844C166.54 132.9 166.55 132.96 166.549 133.02C166.547 133.08 166.534 133.14 166.509 133.195C166.485 133.25 166.45 133.299 166.406 133.341C166.362 133.382 166.31 133.414 166.254 133.435L166.099 133.463Z" fill="#263238"/>
<path d="M164.549 127.795C164.443 127.793 164.341 127.755 164.26 127.687C164.179 127.619 164.124 127.526 164.103 127.422C162.238 117.415 164.039 106.198 164.057 106.089C164.077 105.968 164.143 105.86 164.242 105.789C164.341 105.717 164.464 105.688 164.585 105.707C164.706 105.726 164.814 105.793 164.885 105.892C164.957 105.991 164.986 106.114 164.967 106.235C164.967 106.344 163.148 117.37 165.022 127.249C165.033 127.309 165.033 127.369 165.021 127.429C165.01 127.488 164.986 127.544 164.952 127.594C164.918 127.644 164.875 127.687 164.824 127.72C164.774 127.753 164.717 127.775 164.658 127.786L164.549 127.795Z" fill="#263238"/>
<path d="M157.888 128.25C157.808 128.249 157.731 128.228 157.662 128.188C157.593 128.148 157.536 128.091 157.497 128.022C155.677 124.802 153.921 117.788 153.858 117.497C153.828 117.376 153.847 117.248 153.911 117.142C153.975 117.035 154.078 116.958 154.199 116.928C154.32 116.898 154.447 116.917 154.554 116.981C154.66 117.045 154.737 117.149 154.767 117.269C154.767 117.342 156.587 124.465 158.325 127.576C158.355 127.628 158.375 127.685 158.382 127.745C158.39 127.804 158.386 127.865 158.37 127.923C158.354 127.98 158.326 128.034 158.288 128.081C158.251 128.128 158.204 128.167 158.152 128.195C158.071 128.237 157.979 128.256 157.888 128.25Z" fill="#263238"/>
<path d="M178.732 148.483C178.639 148.485 178.547 148.46 178.468 148.41L170.654 142.997C170.556 142.926 170.491 142.82 170.47 142.701C170.45 142.582 170.477 142.46 170.545 142.36C170.614 142.263 170.719 142.198 170.836 142.177C170.954 142.157 171.074 142.183 171.172 142.251L176.704 146.081L170.153 137.284C170.081 137.187 170.05 137.066 170.067 136.947C170.084 136.827 170.148 136.719 170.244 136.647C170.342 136.577 170.462 136.547 170.581 136.564C170.7 136.581 170.807 136.643 170.881 136.738L179.069 147.764C179.133 147.85 179.163 147.957 179.155 148.064C179.146 148.17 179.1 148.271 179.023 148.346C178.948 148.428 178.843 148.477 178.732 148.483Z" fill="#263238"/>
<path d="M71.9583 146.681C71.8543 146.683 71.7528 146.649 71.6714 146.584C71.59 146.519 71.5338 146.428 71.5126 146.326C71.5126 146.217 68.8925 134.864 67.5098 129.951C66.127 125.039 66.2816 116.36 66.2907 115.996C66.2907 115.936 66.3028 115.876 66.3263 115.821C66.3498 115.766 66.3843 115.716 66.4276 115.674C66.471 115.632 66.5223 115.6 66.5785 115.579C66.6347 115.557 66.6946 115.548 66.7547 115.55C66.8144 115.551 66.8733 115.564 66.9281 115.588C66.9828 115.612 67.0323 115.647 67.0737 115.69C67.1151 115.733 67.1476 115.784 67.1693 115.839C67.1911 115.895 67.2016 115.954 67.2004 116.014C67.2004 116.105 67.0185 124.82 68.3831 129.706C69.7477 134.591 72.3768 146.081 72.4041 146.154C72.4175 146.212 72.4192 146.273 72.4091 146.332C72.3989 146.391 72.3771 146.448 72.345 146.498C72.3129 146.549 72.271 146.593 72.2218 146.628C72.1726 146.662 72.1171 146.686 72.0584 146.699L71.9583 146.681Z" fill="#263238"/>
<path d="M64.9381 129.06C64.8541 129.058 64.7722 129.033 64.7016 128.987C61.3961 126.851 58.7106 123.883 56.9143 120.381C56.8723 120.274 56.8723 120.155 56.9145 120.048C56.9567 119.941 57.0378 119.854 57.1416 119.804C57.2454 119.755 57.3641 119.746 57.4738 119.781C57.5836 119.815 57.6762 119.89 57.733 119.99C59.4758 123.308 62.0373 126.126 65.1746 128.177C65.2764 128.24 65.3496 128.339 65.3785 128.455C65.4074 128.571 65.3898 128.693 65.3293 128.796C65.2945 128.871 65.2396 128.936 65.1706 128.982C65.1016 129.029 65.0212 129.056 64.9381 129.06Z" fill="#263238"/>
<path d="M104.406 100.157C104.406 100.157 107.609 110.373 116.024 112.975C124.439 115.577 137.857 99.5564 138.867 95.1442C139.529 91.9816 139.864 88.7594 139.868 85.5284C139.868 84.9279 138.257 70.3086 138.257 70.3086C134.219 76.7546 129.736 82.9103 124.839 88.7306C117.07 97.9462 104.406 100.157 104.406 100.157Z" fill="white"/>
<path d="M117.975 113.713C117.264 113.716 116.556 113.615 115.874 113.412C107.331 110.765 104.093 100.676 103.956 100.294C103.938 100.232 103.933 100.167 103.941 100.103C103.949 100.039 103.969 99.9771 104.002 99.9212C104.035 99.8655 104.08 99.8173 104.133 99.7797C104.187 99.7422 104.247 99.716 104.311 99.7029C104.438 99.7029 116.865 97.4194 124.48 88.4404C129.355 82.6314 133.827 76.4945 137.862 70.0729C137.909 69.9905 137.981 69.9254 138.068 69.8877C138.155 69.8499 138.252 69.8415 138.344 69.8637C138.437 69.8826 138.522 69.9307 138.585 70.0011C138.649 70.0715 138.689 70.1604 138.699 70.2549C138.862 71.7559 140.309 84.9197 140.309 85.5292C140.306 88.7944 139.964 92.0504 139.29 95.2452C138.517 98.6384 131.266 107.708 124.443 111.62C122.505 112.867 120.276 113.588 117.975 113.713ZM105.002 100.494C105.757 102.514 109.096 110.356 116.156 112.539C118.284 113.203 120.923 112.63 123.997 110.856C131.066 106.771 137.762 97.9198 138.417 95.045C139.072 91.9154 139.404 88.7267 139.408 85.5292C139.408 85.0926 138.58 77.4236 137.944 71.6559C134.079 77.7177 129.825 83.5219 125.207 89.0317C118.257 97.192 107.495 99.9485 105.002 100.494Z" fill="#263238"/>
<path d="M104.406 100.158C104.406 100.158 107.008 108.427 113.658 111.984C116.114 109.446 118.862 106.08 120.236 102.559C123.038 95.3452 124.839 88.7314 124.839 88.7314C117.07 97.947 104.406 100.158 104.406 100.158Z" fill="#263238"/>
<path d="M113.66 112.439C113.584 112.438 113.509 112.419 113.442 112.384C106.71 108.745 104.081 100.64 103.972 100.294C103.954 100.232 103.949 100.167 103.957 100.103C103.964 100.039 103.985 99.977 104.017 99.921C104.051 99.8653 104.096 99.8171 104.149 99.7796C104.202 99.742 104.263 99.7158 104.327 99.7027C104.454 99.7027 116.881 97.4193 124.495 88.4402C124.563 88.3623 124.655 88.3095 124.756 88.2908C124.858 88.272 124.963 88.2883 125.054 88.337C125.145 88.3856 125.216 88.4638 125.257 88.5586C125.298 88.6534 125.305 88.7592 125.278 88.8587C125.278 88.9224 123.458 95.5725 120.656 102.723C119.081 106.318 116.815 109.57 113.988 112.293C113.902 112.383 113.784 112.435 113.66 112.439ZM105.009 100.494C105.664 102.25 108.275 108.409 113.569 111.411C116.209 108.834 118.327 105.773 119.81 102.395C121.693 97.5557 123.131 92.9525 123.868 90.478C116.972 97.5284 107.347 99.9847 105.009 100.494Z" fill="#263238"/>
<path d="M88.6111 45.8736C88.6111 45.8736 89.6572 69.1445 90.1849 72.647C90.7125 76.1494 94.3787 85.6015 95.2612 88.2215C96.1436 90.8416 101.911 100.821 106.979 102.222C112.046 103.623 115.73 101.695 119.06 100.121C122.389 98.547 129.913 89.7954 131.305 87.3846C132.697 84.9738 135.68 79.197 136.763 76.8863L137.809 74.612C137.809 74.612 138.865 52.3782 139.037 49.5853C139.21 46.7925 141.485 35.2298 138.865 31.2088C136.245 27.1878 126.265 21.9295 115.212 21.5838C104.158 21.2381 94.3787 23.9855 90.6852 28.8981C86.9917 33.8106 86.3276 42.7169 88.6111 45.8736Z" fill="white"/>
<path d="M110.454 103.132C109.239 103.129 108.03 102.961 106.861 102.632C101.402 101.14 95.6254 90.7323 94.8249 88.3397C94.6156 87.7029 94.2335 86.6476 93.7696 85.3831C92.3231 81.3985 90.1307 75.376 89.7304 72.6469C89.2209 69.2627 88.2566 48.0296 88.1566 45.9554C85.8913 42.5985 86.519 33.6649 90.3399 28.5614C94.0516 23.6215 103.822 20.674 115.221 21.0288C125.965 21.3654 136.299 26.3871 139.22 30.8539C141.412 34.229 140.375 42.2164 139.756 46.9925C139.611 48.1024 139.493 48.9757 139.465 49.5124C139.292 52.2416 138.246 74.3117 138.237 74.53C138.246 74.5873 138.246 74.6456 138.237 74.7029L137.182 76.9772C136.099 79.3334 133.097 85.1647 131.723 87.5118C130.35 89.8589 122.672 98.8562 119.269 100.466L118.833 100.676C116.395 101.895 113.729 103.132 110.454 103.132ZM113.329 21.9385C103.022 21.9385 94.4064 24.6677 91.0677 29.1436C87.4743 33.9379 86.8283 42.6076 88.9753 45.5733C89.0265 45.6459 89.0579 45.7305 89.0663 45.8189C89.0663 46.0555 90.1125 69.1171 90.631 72.5559C91.0222 75.1486 93.1874 81.1165 94.6247 85.0647C95.0887 86.3474 95.4708 87.4027 95.6891 88.0486C96.5988 90.8506 102.321 100.439 107.106 101.758C111.891 103.077 115.294 101.376 118.423 99.9388L118.86 99.7295C122.062 98.2194 129.567 89.5042 130.914 87.1389C132.26 84.7736 135.244 79.015 136.318 76.677L137.337 74.4845C137.409 72.938 138.392 52.2143 138.556 49.5397C138.556 48.9666 138.71 48.0842 138.856 46.9561C139.42 42.6167 140.466 34.5292 138.456 31.4361C136.09 27.7972 126.447 22.3388 115.194 22.0204C114.566 21.9749 113.947 21.9658 113.329 21.9658V21.9385Z" fill="#263238"/>
<path d="M89.9995 44.1177C89.9995 42.8987 92.101 42.5439 92.101 42.5439C92.101 42.5439 102.954 50.7314 109.431 50.4221C115.909 50.1128 123.778 44.2996 126.716 44.8182C129.655 45.3367 130.046 47.975 129.172 52.3417C128.299 56.7084 127.771 63.0219 129.172 63.1947C130.573 63.3676 133.021 62.285 133.021 62.285C133.021 62.285 132.666 66.8337 134.422 67.0065C136.177 67.1794 137.742 65.087 137.742 64.5593C137.742 64.0317 138.27 57.0359 138.27 57.0359L138.588 56.8812C138.761 53.3333 138.916 50.413 138.97 49.5124C139.143 46.7104 141.417 35.1568 138.797 31.1358C136.177 27.1148 126.198 21.8566 115.144 21.5109C104.091 21.1652 94.3753 23.9854 90.6818 28.8979C86.9883 33.8105 86.306 42.7167 88.5894 45.8735C88.6076 45.8735 89.9995 45.3458 89.9995 44.1177Z" fill="#263238"/>
<path d="M134.66 67.5064H134.414C132.695 67.3336 132.54 64.4771 132.595 63.0033C131.511 63.4512 130.347 63.6741 129.174 63.6583C129.033 63.6384 128.899 63.5882 128.779 63.5112C128.66 63.4343 128.559 63.3324 128.483 63.2125C127.273 61.5386 128.292 54.7429 128.792 52.2958C129.383 49.3209 129.329 47.4469 128.61 46.4007C128.386 46.0972 128.101 45.8434 127.774 45.6555C127.446 45.4676 127.084 45.3497 126.709 45.309C125.471 45.0907 122.997 46.2188 120.341 47.4014C116.911 48.957 113.063 50.7128 109.424 50.913C103.21 51.2496 93.4125 44.1446 91.966 43.0711C91.4293 43.1985 90.4286 43.5533 90.4286 44.1537C90.3858 44.6405 90.2034 45.1047 89.9032 45.4904C89.6031 45.8761 89.1979 46.1669 88.7365 46.3279C88.6437 46.3633 88.5419 46.3673 88.4467 46.3394C88.3514 46.3114 88.2679 46.2531 88.2088 46.1733C85.8435 42.8983 86.444 33.8192 90.3103 28.661C94.022 23.7212 103.793 20.7736 115.191 21.1284C125.935 21.465 136.27 26.4867 139.19 30.9535C141.383 34.3286 140.345 42.316 139.727 47.0921C139.581 48.202 139.463 49.0753 139.436 49.6121C139.381 50.5218 139.227 53.4329 139.054 56.9718C139.052 57.0542 139.027 57.1343 138.982 57.2034C138.937 57.2724 138.873 57.3277 138.799 57.363L138.717 57.4084C138.553 59.5099 138.208 64.2314 138.208 64.6317C138.028 65.3703 137.605 66.0271 137.007 66.4967C136.372 67.1059 135.538 67.4646 134.66 67.5064ZM133.059 61.8661C133.121 61.8659 133.184 61.8788 133.241 61.9039C133.299 61.929 133.351 61.9658 133.394 62.0119C133.437 62.0581 133.469 62.1126 133.49 62.1721C133.51 62.2316 133.518 62.2946 133.513 62.3574C133.386 64.0131 133.613 66.5057 134.505 66.5967C135.951 66.7332 137.234 64.9592 137.325 64.5771C137.416 64.195 137.798 57.7541 137.853 57.0354C137.858 56.9562 137.885 56.8799 137.929 56.8143C137.974 56.7487 138.036 56.6963 138.108 56.6625H138.189C138.353 53.2328 138.499 50.4308 138.553 49.5575C138.553 48.9843 138.708 48.1019 138.854 46.9738C139.418 42.6344 140.464 34.5469 138.453 31.4538C136.088 27.8149 126.445 22.3565 115.191 22.0381C103.938 21.7197 94.6042 24.4944 91.0654 29.2068C87.5265 33.9192 86.8715 42.0795 88.7638 45.3181C88.9828 45.2071 89.1697 45.0417 89.3067 44.8379C89.4436 44.634 89.5261 44.3985 89.5461 44.1537C89.5461 42.8892 91.1109 42.2887 92.0297 42.1341C92.0913 42.122 92.1547 42.123 92.2158 42.1371C92.277 42.1513 92.3345 42.1781 92.3845 42.216C92.4846 42.2978 103.165 50.358 109.406 50.0033C112.817 49.8213 116.62 48.0928 119.968 46.5736C122.961 45.2181 125.326 44.1446 126.836 44.4084C127.333 44.4703 127.811 44.6339 128.241 44.889C128.672 45.1442 129.045 45.4854 129.338 45.8913C130.247 47.1649 130.311 49.1936 129.656 52.4686C128.746 57.09 128.519 61.7752 129.192 62.7122L129.265 62.7849C130.522 62.7486 131.76 62.4609 132.904 61.9389C132.95 61.904 133.002 61.8792 133.059 61.8661Z" fill="#263238"/>
<path d="M134.281 68.2715C134.281 68.2715 136.037 59.8747 139.185 60.2203C142.332 60.566 141.987 68.6263 139.885 71.6011C137.784 74.5759 135.682 75.0944 135.682 75.0944" fill="white"/>
<path d="M135.679 75.549C135.578 75.5479 135.48 75.5134 135.401 75.4508C135.322 75.3882 135.266 75.3011 135.242 75.2033C135.227 75.1459 135.224 75.0862 135.232 75.0275C135.241 74.9688 135.261 74.9124 135.291 74.8616C135.322 74.8108 135.362 74.7665 135.41 74.7315C135.458 74.6964 135.512 74.6713 135.569 74.6575C135.569 74.6575 137.553 74.1116 139.509 71.3369C141.037 69.1809 141.546 64.2411 140.491 61.894C140.392 61.5895 140.215 61.3164 139.977 61.1024C139.739 60.8884 139.449 60.7409 139.136 60.6749C136.861 60.4202 135.16 66.2879 134.723 68.3621C134.711 68.4219 134.688 68.4786 134.654 68.5293C134.62 68.5799 134.577 68.6233 134.526 68.6571C134.475 68.6909 134.418 68.7144 134.359 68.7262C134.299 68.738 134.237 68.738 134.178 68.726C134.118 68.7141 134.061 68.6905 134.01 68.6566C133.96 68.6227 133.916 68.5791 133.883 68.5284C133.849 68.4778 133.825 68.4209 133.814 68.3612C133.802 68.3014 133.802 68.2399 133.814 68.1802C133.996 67.2704 135.761 59.4013 139.208 59.7652C139.683 59.8396 140.128 60.0426 140.495 60.3521C140.862 60.6617 141.138 61.0659 141.292 61.521C142.474 64.141 141.928 69.4538 140.227 71.8555C138.053 74.9395 135.861 75.4944 135.761 75.5399L135.679 75.549Z" fill="#263238"/>
<path d="M108.38 87.8033C104.45 87.8033 103.44 85.6927 103.231 85.0741C102.867 84.0006 103.294 73.2476 103.376 71.0916C103.376 70.9709 103.424 70.8553 103.509 70.77C103.595 70.6846 103.71 70.6367 103.831 70.6367C103.952 70.6367 104.067 70.6846 104.153 70.77C104.238 70.8553 104.286 70.9709 104.286 71.0916C104.086 75.9768 103.858 84.0097 104.086 84.7375C104.313 85.4653 105.15 86.8754 108.38 86.8754C111.609 86.8754 112.1 85.9657 112.501 84.7375C112.538 84.623 112.62 84.528 112.727 84.4734C112.835 84.4188 112.959 84.4091 113.074 84.4464C113.131 84.4639 113.185 84.4928 113.231 84.5314C113.277 84.57 113.314 84.6175 113.341 84.671C113.369 84.7245 113.385 84.783 113.389 84.8429C113.393 84.9028 113.385 84.9629 113.365 85.0195C112.783 86.7571 111.782 87.8033 108.38 87.8033Z" fill="#263238"/>
<path d="M109.507 92.5341C107.551 92.5856 105.596 92.3992 103.685 91.9792C102.469 91.4586 101.42 90.6116 100.656 89.532C100.589 89.4328 100.564 89.3114 100.586 89.1939C100.608 89.0764 100.676 88.9724 100.774 88.9043C100.822 88.8696 100.877 88.8449 100.934 88.8316C100.992 88.8183 101.052 88.8167 101.111 88.8269C101.169 88.8371 101.225 88.8588 101.275 88.8908C101.325 88.9229 101.368 88.9646 101.402 89.0135C102.061 89.9274 102.949 90.6521 103.976 91.1149C105.459 91.6062 110.271 91.7972 112.691 91.4515C114.439 91.2011 116.087 90.4811 117.458 89.3683C117.525 89.2685 117.628 89.1992 117.746 89.1754C117.863 89.1515 117.986 89.1751 118.086 89.2409C118.186 89.3093 118.256 89.4142 118.28 89.5333C118.303 89.6524 118.28 89.776 118.213 89.8777C117.768 90.5418 115.384 91.9792 112.819 92.3522C111.72 92.4859 110.614 92.5467 109.507 92.5341Z" fill="#263238"/>
<path d="M112.386 68.4079C112.386 68.4079 122.575 67.8621 123.785 67.6711C124.995 67.48 120.637 65.6878 116.925 65.7424C113.214 65.797 109.639 66.7431 112.386 68.4079Z" fill="#263238"/>
<path d="M112.38 68.8625C112.298 68.8598 112.217 68.838 112.144 68.7988C111.234 68.2257 110.825 67.6344 110.988 67.034C111.416 65.4874 115.637 65.3055 116.92 65.2873C119.74 65.2145 124.352 66.4426 124.443 67.4979C124.443 67.5525 124.443 68.0256 123.852 68.1165C122.633 68.3167 112.826 68.8352 112.408 68.8625H112.38ZM117.065 66.197H116.902C113.781 66.2425 111.953 66.852 111.844 67.2796C111.844 67.3433 111.907 67.5707 112.471 67.9437C113.545 67.8891 120.195 67.5252 122.769 67.316C120.949 66.6086 119.018 66.2297 117.065 66.197Z" fill="#263238"/>
<path d="M102.599 68.3526C102.599 68.3526 92.401 67.9068 91.1911 67.7339C89.9811 67.5611 94.3205 65.7144 98.0322 65.7326C101.744 65.7508 105.328 66.6332 102.599 68.3526Z" fill="#263238"/>
<path d="M102.601 68.808C102.182 68.808 92.3664 68.3623 91.1473 68.1803C90.5287 68.0894 90.5469 67.6163 90.5469 67.5708C90.6288 66.5155 95.1775 65.2783 98.0067 65.2783H98.0522C99.3349 65.2783 103.511 65.4239 103.993 66.9704C104.166 67.5617 103.783 68.1622 102.856 68.7353C102.782 68.7891 102.692 68.8149 102.601 68.808ZM92.1753 67.3616C94.7863 67.5526 101.409 67.8438 102.473 67.8892C103.038 67.5163 103.119 67.2797 103.101 67.216C102.983 66.7975 101.154 66.2062 98.034 66.1881H97.9612C95.9783 66.2335 94.0193 66.6309 92.1753 67.3616Z" fill="#263238"/>
<path d="M98.7412 76.2774C97.881 76.3308 97.0203 76.1797 96.2297 75.8366C95.4391 75.4935 94.741 74.968 94.1925 74.3032C94.1262 74.2015 94.1024 74.0779 94.1262 73.9588C94.15 73.8398 94.2195 73.7348 94.3199 73.6664C94.4202 73.6006 94.5424 73.577 94.66 73.6009C94.7775 73.6247 94.8809 73.6941 94.9476 73.7938C95.0295 73.912 96.9581 76.6139 102.289 74.7035C102.403 74.6625 102.528 74.6683 102.637 74.7194C102.746 74.7706 102.83 74.863 102.871 74.9764C102.893 75.0325 102.903 75.0923 102.901 75.1523C102.899 75.2123 102.884 75.2713 102.859 75.3257C102.833 75.3801 102.797 75.4287 102.752 75.4688C102.708 75.5088 102.655 75.5394 102.598 75.5587C101.365 76.0219 100.059 76.2651 98.7412 76.2774Z" fill="#263238"/>
<path d="M117.979 77.1407C117.121 77.1811 116.265 77.025 115.477 76.6845C114.689 76.3439 113.989 75.8279 113.43 75.1757C113.393 75.1291 113.366 75.0756 113.351 75.0182C113.335 74.9609 113.332 74.901 113.34 74.8423C113.349 74.7835 113.369 74.7271 113.4 74.6765C113.431 74.6259 113.473 74.5822 113.521 74.548C113.618 74.4756 113.739 74.4445 113.858 74.4616C113.978 74.4787 114.085 74.5425 114.158 74.639C114.267 74.7754 116.696 77.8685 122.445 75.0211C122.499 74.9948 122.558 74.9793 122.617 74.9756C122.677 74.9719 122.737 74.98 122.794 74.9995C122.85 75.0189 122.902 75.0493 122.947 75.0889C122.992 75.1285 123.029 75.1765 123.055 75.2303C123.081 75.2841 123.097 75.3425 123.1 75.4022C123.104 75.4619 123.096 75.5218 123.077 75.5784C123.057 75.635 123.027 75.6872 122.987 75.7321C122.948 75.7769 122.9 75.8135 122.846 75.8398C121.345 76.6411 119.679 77.0862 117.979 77.1407Z" fill="#263238"/>
<path d="M116.754 134.368L103.844 152.302L139.932 178.282L152.843 160.348L116.754 134.368Z" fill="#F5F5FC"/>
<path d="M139.925 178.731C139.83 178.733 139.738 178.704 139.661 178.649L103.563 152.667C103.467 152.593 103.402 152.486 103.381 152.367C103.371 152.308 103.374 152.248 103.388 152.19C103.402 152.132 103.427 152.078 103.463 152.03L116.372 134.063C116.407 134.014 116.451 133.973 116.502 133.942C116.553 133.911 116.61 133.89 116.669 133.881C116.728 133.871 116.789 133.874 116.847 133.888C116.905 133.902 116.96 133.927 117.008 133.963L153.097 159.945C153.147 159.978 153.189 160.021 153.22 160.072C153.252 160.122 153.274 160.178 153.283 160.237C153.292 160.296 153.29 160.356 153.275 160.413C153.26 160.471 153.234 160.525 153.198 160.572L140.288 178.549C140.254 178.597 140.211 178.638 140.161 178.669C140.111 178.7 140.055 178.721 139.997 178.731H139.925ZM104.445 152.194L139.797 177.666L152.197 160.445L116.845 134.973L104.445 152.194Z" fill="#263238"/>
<path d="M117.535 139.064L108.547 151.549L139.157 173.585L148.145 161.1L117.535 139.064Z" fill="#D9D9D9"/>
<path d="M139.146 174.036C139.051 174.037 138.959 174.008 138.882 173.954L108.269 151.912C108.174 151.841 108.11 151.735 108.092 151.618C108.073 151.501 108.101 151.381 108.169 151.284L117.158 138.793C117.193 138.745 117.237 138.704 117.288 138.672C117.339 138.641 117.396 138.62 117.455 138.611C117.514 138.602 117.575 138.604 117.633 138.618C117.691 138.632 117.746 138.658 117.794 138.693L148.398 160.727C148.447 160.761 148.489 160.805 148.521 160.856C148.553 160.907 148.575 160.963 148.585 161.023C148.595 161.082 148.593 161.142 148.58 161.201C148.567 161.259 148.542 161.315 148.507 161.364L139.519 173.845C139.483 173.894 139.438 173.935 139.387 173.966C139.335 173.998 139.278 174.018 139.219 174.027L139.146 174.036ZM109.17 151.448L139.046 172.945L147.497 161.2L117.631 139.694L109.17 151.448Z" fill="#263238"/>
<path d="M130.377 153.486C132.76 155.196 133.779 157.861 132.651 159.426C131.523 160.991 128.676 160.873 126.283 159.162C123.89 157.452 122.89 154.787 124.018 153.222C125.146 151.657 127.984 151.766 130.377 153.486Z" fill="#F5F5FC"/>
<path d="M130.139 160.972C128.652 160.927 127.215 160.422 126.027 159.526C124.868 158.719 123.962 157.599 123.416 156.296C123.139 155.772 123.014 155.181 123.054 154.59C123.095 153.999 123.3 153.43 123.646 152.949C123.992 152.468 124.465 152.093 125.013 151.866C125.561 151.639 126.161 151.57 126.746 151.666C128.155 151.766 129.507 152.268 130.639 153.112C133.223 154.977 134.278 157.925 133.014 159.69C132.673 160.119 132.234 160.46 131.734 160.684C131.233 160.907 130.686 161.006 130.139 160.972ZM126.5 152.567C126.097 152.536 125.693 152.603 125.321 152.761C124.949 152.92 124.62 153.165 124.362 153.476C124.135 153.847 124.005 154.268 123.983 154.702C123.96 155.136 124.047 155.568 124.235 155.96C124.713 157.1 125.509 158.079 126.527 158.78C128.702 160.345 131.276 160.508 132.25 159.153C133.223 157.797 132.25 155.414 130.084 153.849C129.098 153.103 127.916 152.657 126.682 152.567H126.5Z" fill="#263238"/>
<path d="M123.43 130.845L108.133 146.791L140.222 177.575L155.52 161.628L123.43 130.845Z" fill="#F5F5FC"/>
<path d="M140.234 177.994C140.176 177.994 140.119 177.983 140.066 177.961C140.013 177.939 139.965 177.907 139.924 177.867L107.829 147.082C107.787 147.04 107.753 146.991 107.73 146.936C107.707 146.881 107.695 146.822 107.695 146.763C107.695 146.704 107.707 146.645 107.73 146.59C107.753 146.536 107.787 146.486 107.829 146.445L123.131 130.497C123.172 130.453 123.221 130.418 123.275 130.393C123.33 130.368 123.389 130.354 123.449 130.352C123.508 130.35 123.567 130.361 123.621 130.383C123.676 130.405 123.726 130.437 123.768 130.479L155.863 161.264C155.905 161.307 155.939 161.357 155.962 161.412C155.986 161.468 155.997 161.527 155.997 161.587C155.997 161.647 155.986 161.707 155.962 161.762C155.939 161.818 155.905 161.868 155.863 161.91L140.561 177.858C140.52 177.901 140.47 177.935 140.416 177.958C140.361 177.982 140.302 177.994 140.243 177.994H140.234ZM108.784 146.745L140.225 176.893L154.889 161.61L123.44 131.452L108.784 146.745Z" fill="#263238"/>
<path d="M123.54 135.61L112.891 146.711L140.109 172.822L150.759 161.72L123.54 135.61Z" fill="#D9D9D9"/>
<path d="M140.117 173.236C139.999 173.237 139.884 173.191 139.799 173.109L112.58 146.999C112.537 146.957 112.503 146.907 112.48 146.851C112.457 146.796 112.445 146.736 112.445 146.676C112.445 146.616 112.457 146.557 112.48 146.501C112.503 146.446 112.537 146.396 112.58 146.353L123.224 135.255C123.264 135.211 123.314 135.176 123.368 135.153C123.423 135.129 123.482 135.118 123.542 135.118C123.662 135.116 123.779 135.158 123.87 135.237L151.08 161.355C151.122 161.397 151.156 161.447 151.179 161.503C151.202 161.558 151.214 161.618 151.214 161.678C151.214 161.738 151.202 161.797 151.179 161.853C151.156 161.908 151.122 161.959 151.08 162.001L140.436 173.1C140.396 173.144 140.347 173.181 140.292 173.206C140.237 173.231 140.178 173.244 140.117 173.245V173.236ZM113.535 146.663L140.099 172.135L150.106 161.691L123.542 136.219L113.535 146.663Z" fill="#263238"/>
<path d="M134.251 151.647C136.371 153.685 136.981 156.46 135.671 157.852C134.361 159.244 131.531 158.762 129.412 156.697C127.292 154.631 126.682 151.893 127.992 150.492C129.302 149.091 132.132 149.619 134.251 151.647Z" fill="#F5F5FC"/>
<path d="M133.633 159.09C133.328 159.09 133.024 159.063 132.724 159.008C131.346 158.709 130.083 158.021 129.085 157.025C126.792 154.823 126.155 151.757 127.656 150.184C129.157 148.61 132.26 149.119 134.561 151.321C136.863 153.522 137.491 156.597 135.99 158.171C135.681 158.478 135.313 158.718 134.907 158.876C134.502 159.034 134.068 159.107 133.633 159.09ZM130.04 150.156C129.724 150.141 129.408 150.192 129.112 150.304C128.816 150.417 128.547 150.59 128.32 150.811C127.165 152.021 127.793 154.514 129.731 156.37C130.605 157.242 131.709 157.848 132.915 158.116C133.334 158.231 133.775 158.239 134.198 158.139C134.621 158.039 135.011 157.834 135.335 157.543C136.499 156.324 135.871 153.832 133.934 151.976C132.905 150.91 131.518 150.262 130.04 150.156Z" fill="#263238"/>
<path d="M131.042 128.565L113.188 141.585L139.388 177.514L157.242 164.495L131.042 128.565Z" fill="#F5F5FC"/>
<path d="M139.389 177.94C139.319 177.939 139.25 177.922 139.186 177.891C139.123 177.859 139.068 177.814 139.026 177.758L112.825 141.823C112.753 141.727 112.722 141.605 112.739 141.486C112.756 141.367 112.82 141.259 112.916 141.186L130.774 128.168C130.822 128.132 130.876 128.107 130.934 128.092C130.992 128.078 131.052 128.076 131.111 128.086C131.171 128.095 131.228 128.116 131.279 128.147C131.331 128.178 131.376 128.22 131.411 128.268L157.611 164.193C157.683 164.294 157.712 164.418 157.693 164.539C157.685 164.598 157.665 164.654 157.633 164.704C157.602 164.754 157.56 164.797 157.511 164.83L139.662 177.858C139.582 177.912 139.487 177.94 139.389 177.94ZM113.826 141.659L139.49 176.821L156.611 164.339L130.938 129.142L113.826 141.659Z" fill="#263238"/>
<path d="M130.32 133.271L117.891 142.335L140.114 172.81L152.543 163.746L130.32 133.271Z" fill="#D9D9D9"/>
<path d="M140.119 173.236H140.047C139.987 173.227 139.93 173.206 139.878 173.175C139.827 173.144 139.782 173.102 139.746 173.054L117.522 142.578C117.453 142.479 117.424 142.358 117.443 142.239C117.462 142.12 117.526 142.013 117.622 141.941L130.058 132.844C130.156 132.776 130.276 132.746 130.394 132.762C130.453 132.771 130.508 132.792 130.558 132.824C130.608 132.855 130.651 132.896 130.686 132.944L152.91 163.42C152.947 163.468 152.973 163.522 152.988 163.581C153.003 163.639 153.006 163.7 152.996 163.76C152.987 163.819 152.966 163.876 152.934 163.927C152.902 163.978 152.86 164.022 152.81 164.057L140.383 173.154C140.307 173.211 140.214 173.24 140.119 173.236ZM118.532 142.405L140.22 172.144L151.91 163.62L130.222 133.881L118.532 142.405Z" fill="#263238"/>
<path d="M138.049 150.948C139.778 153.322 139.914 156.169 138.358 157.316C136.803 158.462 134.128 157.452 132.4 155.078C130.671 152.703 130.535 149.865 132.09 148.71C133.646 147.554 136.321 148.619 138.049 150.948Z" fill="#F5F5FC"/>
<path d="M136.825 158.235C136.296 158.228 135.772 158.126 135.278 157.935C133.967 157.4 132.837 156.5 132.022 155.342C130.147 152.767 130.057 149.638 131.821 148.346C132.312 148.027 132.875 147.836 133.458 147.791C134.042 147.747 134.627 147.85 135.16 148.091C136.472 148.622 137.6 149.523 138.408 150.684C140.282 153.249 140.382 156.388 138.617 157.671C138.096 158.047 137.467 158.245 136.825 158.235ZM133.614 148.701C133.165 148.689 132.724 148.823 132.358 149.083C131.003 150.075 131.185 152.64 132.758 154.805C133.466 155.82 134.452 156.61 135.597 157.079C135.989 157.267 136.423 157.352 136.857 157.327C137.292 157.301 137.712 157.166 138.08 156.934C139.436 155.951 139.254 153.386 137.671 151.221C136.966 150.206 135.984 149.417 134.842 148.946C134.45 148.792 134.034 148.708 133.614 148.701Z" fill="#263238"/>
<path d="M140.565 127.638L120.367 136.602L138.404 177.247L158.602 168.284L140.565 127.638Z" fill="#F5F5FC"/>
<path d="M138.419 177.73C138.33 177.73 138.244 177.703 138.17 177.655C138.096 177.607 138.037 177.538 138 177.458L119.96 136.793C119.919 136.681 119.919 136.558 119.96 136.447C119.982 136.39 120.015 136.338 120.058 136.295C120.1 136.251 120.15 136.216 120.206 136.192L140.402 127.231C140.456 127.206 140.515 127.191 140.575 127.189C140.635 127.186 140.695 127.196 140.751 127.217C140.807 127.239 140.858 127.271 140.901 127.312C140.944 127.354 140.979 127.404 141.003 127.459L159.043 168.105C159.089 168.219 159.089 168.346 159.043 168.46C159.021 168.516 158.987 168.566 158.945 168.609C158.903 168.651 158.852 168.684 158.797 168.706L138.601 177.676C138.544 177.704 138.482 177.722 138.419 177.73ZM120.979 136.793L138.655 176.611L158.005 168.033L140.338 128.223L120.979 136.793Z" fill="#263238"/>
<path d="M138.858 132.085L124.797 138.325L140.096 172.8L154.157 166.561L138.858 132.085Z" fill="#D9D9D9"/>
<path d="M140.118 173.236C140.064 173.245 140.009 173.245 139.954 173.236C139.898 173.214 139.846 173.181 139.802 173.139C139.758 173.097 139.723 173.046 139.7 172.99L124.398 138.521C124.357 138.406 124.357 138.281 124.398 138.166C124.42 138.11 124.453 138.06 124.495 138.018C124.537 137.975 124.588 137.942 124.644 137.92L138.699 131.68C138.753 131.654 138.812 131.639 138.872 131.637C138.932 131.635 138.991 131.644 139.047 131.666C139.103 131.687 139.155 131.719 139.198 131.761C139.241 131.802 139.276 131.852 139.299 131.907L154.601 166.386C154.648 166.496 154.65 166.62 154.608 166.732C154.565 166.844 154.482 166.935 154.374 166.986L140.3 173.181C140.243 173.209 140.181 173.228 140.118 173.236ZM125.417 138.539L140.345 172.199L153.573 166.322L138.644 132.662L125.417 138.539Z" fill="#263238"/>
<path d="M142.694 151.002C143.886 153.685 143.422 156.46 141.657 157.279C139.892 158.097 137.49 156.524 136.299 153.84C135.107 151.156 135.58 148.382 137.345 147.563C139.11 146.744 141.502 148.318 142.694 151.002Z" fill="#F5F5FC"/>
<path d="M140.665 157.943C139.897 157.921 139.152 157.678 138.518 157.243C137.347 156.448 136.434 155.329 135.889 154.023C134.597 151.121 135.161 148.037 137.153 147.145C139.146 146.253 141.82 147.909 143.112 150.784C143.708 152.067 143.923 153.494 143.731 154.896C143.667 155.472 143.461 156.024 143.131 156.5C142.8 156.977 142.356 157.364 141.839 157.625C141.474 157.813 141.074 157.922 140.665 157.943ZM138.336 147.809C138.057 147.807 137.78 147.866 137.526 147.982C135.989 148.664 135.634 151.211 136.717 153.659C137.191 154.801 137.987 155.781 139.009 156.479C139.339 156.773 139.746 156.967 140.183 157.035C140.619 157.103 141.066 157.044 141.47 156.864C141.874 156.685 142.217 156.392 142.458 156.022C142.7 155.652 142.829 155.22 142.83 154.778C142.997 153.554 142.804 152.309 142.275 151.193C141.375 149.146 139.746 147.809 138.336 147.809Z" fill="#263238"/>
<path d="M149.283 128.571L127.734 133.463L137.579 176.827L159.128 171.935L149.283 128.571Z" fill="#F5F5FC"/>
<path d="M137.59 177.275C137.506 177.273 137.424 177.248 137.353 177.202C137.301 177.173 137.255 177.132 137.219 177.083C137.183 177.035 137.157 176.979 137.144 176.92L127.301 133.554C127.287 133.495 127.285 133.434 127.296 133.375C127.306 133.316 127.328 133.259 127.36 133.209C127.392 133.158 127.434 133.114 127.483 133.08C127.532 133.045 127.588 133.021 127.646 133.008L149.189 128.113C149.247 128.099 149.308 128.097 149.367 128.106C149.426 128.116 149.483 128.137 149.534 128.168C149.636 128.236 149.708 128.34 149.735 128.459L159.578 171.826C159.593 171.884 159.596 171.944 159.587 172.003C159.578 172.063 159.557 172.119 159.525 172.17C159.494 172.221 159.453 172.265 159.404 172.3C159.355 172.335 159.3 172.359 159.241 172.372L137.69 177.257L137.59 177.275ZM128.292 133.79L137.935 176.275L158.595 171.58L148.952 129.105L128.292 133.79Z" fill="#263238"/>
<path d="M146.76 132.605L131.758 136.011L140.108 172.792L155.109 169.387L146.76 132.605Z" fill="#D0D0D0"/>
<path d="M140.121 173.236C140.018 173.235 139.918 173.2 139.837 173.135C139.757 173.071 139.7 172.982 139.675 172.881L131.324 136.101C131.311 136.042 131.309 135.982 131.319 135.923C131.329 135.863 131.351 135.807 131.383 135.756C131.415 135.705 131.457 135.661 131.506 135.627C131.555 135.593 131.611 135.568 131.67 135.555L146.671 132.153C146.788 132.128 146.91 132.149 147.012 132.212C147.113 132.274 147.187 132.374 147.217 132.489L155.559 169.27C155.574 169.328 155.577 169.388 155.568 169.447C155.559 169.506 155.538 169.563 155.507 169.614C155.475 169.665 155.434 169.709 155.385 169.744C155.336 169.778 155.281 169.803 155.223 169.816L140.221 173.227L140.121 173.236ZM132.316 136.347L140.458 172.272L154.577 169.07L146.389 133.172L132.316 136.347Z" fill="#263238"/>
<path d="M146.851 151.912C147.497 154.777 146.505 157.443 144.622 157.871C142.739 158.298 140.683 156.324 140.028 153.458C139.373 150.593 140.383 147.927 142.266 147.5C144.149 147.072 146.178 149.046 146.851 151.912Z" fill="#F5F5FC"/>
<path d="M144.118 158.38C142.181 158.38 140.234 156.369 139.57 153.558C139.226 152.187 139.289 150.746 139.752 149.41C139.894 148.837 140.193 148.314 140.615 147.901C141.037 147.487 141.566 147.199 142.142 147.068C142.718 146.937 143.319 146.968 143.878 147.158C144.438 147.349 144.933 147.69 145.31 148.145C146.303 149.143 146.986 150.407 147.275 151.784C147.608 153.157 147.545 154.595 147.093 155.933C146.924 156.495 146.617 157.005 146.199 157.417C145.78 157.829 145.265 158.129 144.701 158.289C144.51 158.339 144.315 158.37 144.118 158.38ZM142.79 147.9C142.65 147.901 142.509 147.917 142.372 147.945C141.952 148.077 141.572 148.313 141.268 148.631C140.964 148.949 140.746 149.339 140.634 149.765C140.235 150.938 140.181 152.201 140.479 153.404C141.071 156.015 142.89 157.843 144.519 157.47C144.941 157.342 145.324 157.108 145.63 156.789C145.936 156.47 146.155 156.078 146.265 155.651C146.667 154.478 146.718 153.213 146.411 152.012C146.164 150.8 145.574 149.685 144.71 148.8C144.211 148.263 143.523 147.94 142.79 147.9Z" fill="#263238"/>
<path d="M155.934 157.243C155.934 157.243 140.114 163.256 139.313 163.857C138.513 164.457 130.698 171.671 130.298 172.672L129.897 173.673C129.863 173.847 129.868 174.027 129.913 174.199C129.958 174.371 130.042 174.53 130.158 174.665C130.273 174.8 130.418 174.907 130.581 174.978C130.744 175.048 130.921 175.081 131.098 175.074C131.098 175.074 129.497 177.475 130.898 178.713C132.299 179.95 134.301 178.913 134.301 178.913C134.301 178.913 132.481 181.715 134.501 182.315C136.012 182.669 137.577 182.736 139.113 182.515C139.113 182.515 138.713 183.516 145.718 184.917C152.723 186.318 160.146 186.918 163.348 186.318C166.55 185.718 173.765 184.917 173.765 184.917C173.765 184.917 205.814 187.519 212.228 186.918C218.642 186.318 228.858 187.319 230.859 184.116C232.861 180.914 229.859 175.101 227.448 171.498C225.037 167.896 219.442 161.082 212.828 160.882C207.827 160.938 202.876 161.887 198.209 163.684C194.57 165.285 186.182 168.697 185.382 168.897C184.581 169.097 175.966 168.496 175.966 168.496C175.966 168.496 159.345 157.47 158.345 157.27C157.546 157.15 156.735 157.141 155.934 157.243Z" fill="white"/>
<path d="M209.45 187.438C199.634 187.438 174.88 185.436 173.725 185.345C173.725 185.345 166.584 186.155 163.427 186.737C160.27 187.319 152.719 186.737 145.624 185.336C141.712 184.554 139.419 183.762 138.819 182.98C137.333 183.168 135.825 183.081 134.37 182.725C134.109 182.662 133.868 182.536 133.667 182.358C133.466 182.181 133.31 181.957 133.215 181.706C133.031 181.02 133.099 180.291 133.406 179.65C132.921 179.768 132.415 179.773 131.927 179.664C131.44 179.555 130.984 179.336 130.595 179.023C129.367 177.976 129.949 176.293 130.386 175.384C130.163 175.307 129.962 175.176 129.803 175.002C129.496 174.604 129.358 174.1 129.421 173.601V173.492L129.822 172.491C130.304 171.29 138.509 163.848 138.992 163.484C139.801 162.875 153.074 157.817 155.731 156.816C155.76 156.808 155.792 156.808 155.822 156.816C156.67 156.697 157.53 156.697 158.378 156.816C159.406 157.025 173.061 166.05 176.072 168.042C180.157 168.324 184.724 168.561 185.224 168.443C185.97 168.261 194.321 164.876 197.96 163.257C202.71 161.436 207.748 160.484 212.834 160.446C220.203 160.664 226.171 168.779 227.827 171.263C229.646 173.992 233.567 180.651 231.238 184.381C229.664 186.901 223.833 187.019 218.193 187.11C216.055 187.11 214.026 187.201 212.27 187.365C211.588 187.41 210.624 187.438 209.45 187.438ZM173.707 184.445C174.116 184.445 205.884 187.037 212.179 186.446C213.999 186.273 216.018 186.228 218.174 186.182C223.324 186.082 229.155 185.955 230.465 183.853C232.512 180.578 228.773 174.274 227.072 171.727C225.48 169.334 219.739 161.519 212.807 161.31C207.876 161.35 202.992 162.274 198.388 164.039C194.913 165.586 186.352 169.052 185.488 169.27C184.624 169.489 177.382 168.979 175.936 168.879C175.857 168.879 175.781 168.853 175.717 168.806C169.167 164.467 159.106 157.89 158.232 157.653C157.508 157.559 156.774 157.559 156.049 157.653C149.754 160.046 140.211 163.739 139.574 164.185C138.546 164.967 131.095 171.936 130.713 172.809L130.34 173.719C130.316 173.945 130.378 174.173 130.513 174.356C130.589 174.43 130.681 174.487 130.782 174.521C130.882 174.556 130.989 174.568 131.095 174.556C131.178 174.557 131.259 174.58 131.329 174.623C131.4 174.666 131.457 174.728 131.495 174.802C131.54 174.871 131.564 174.951 131.564 175.034C131.564 175.116 131.54 175.196 131.495 175.265C131.495 175.265 130.14 177.349 131.213 178.277C132.287 179.205 134.106 178.422 134.125 178.413C134.212 178.368 134.313 178.353 134.41 178.371C134.507 178.39 134.596 178.439 134.661 178.513C134.728 178.588 134.768 178.683 134.777 178.783C134.785 178.883 134.76 178.983 134.707 179.068C134.47 179.441 133.843 180.66 134.097 181.324C134.14 181.444 134.215 181.55 134.312 181.631C134.41 181.713 134.527 181.767 134.652 181.788C136.099 182.12 137.594 182.185 139.064 181.979C139.144 181.965 139.226 181.973 139.301 182.002C139.376 182.031 139.442 182.08 139.492 182.143C139.548 182.213 139.58 182.299 139.583 182.389C139.719 182.552 140.629 183.344 145.833 184.381C152.819 185.782 160.161 186.364 163.29 185.782C166.42 185.2 173.643 184.445 173.707 184.445Z" fill="#263238"/>
<path d="M131.094 175.529C131.012 175.53 130.931 175.508 130.86 175.467C130.79 175.425 130.732 175.365 130.694 175.292C130.638 175.186 130.626 175.061 130.659 174.946C130.693 174.831 130.771 174.733 130.875 174.674L143.093 168.069L143.202 168.023L157.021 164.621C157.079 164.606 157.139 164.603 157.199 164.611C157.258 164.619 157.315 164.639 157.367 164.67C157.418 164.7 157.463 164.74 157.499 164.788C157.535 164.836 157.561 164.891 157.576 164.949C157.591 165.007 157.594 165.068 157.585 165.128C157.576 165.188 157.555 165.245 157.524 165.297C157.493 165.348 157.451 165.393 157.403 165.429C157.354 165.464 157.298 165.49 157.239 165.503L143.448 168.897L131.285 175.474C131.226 175.505 131.161 175.524 131.094 175.529Z" fill="#263238"/>
<path d="M134.298 179.34C134.206 179.337 134.115 179.308 134.039 179.254C133.963 179.201 133.905 179.126 133.871 179.04C133.83 178.926 133.836 178.801 133.887 178.692C133.938 178.583 134.03 178.498 134.144 178.457L145.561 174.245L158.252 171.826C158.372 171.803 158.497 171.829 158.599 171.898C158.7 171.967 158.77 172.073 158.793 172.194C158.816 172.315 158.79 172.439 158.721 172.541C158.652 172.642 158.545 172.712 158.424 172.735L145.806 175.137L134.453 179.322C134.404 179.341 134.351 179.348 134.298 179.34Z" fill="#263238"/>
<path d="M139.113 182.943C138.992 182.951 138.873 182.911 138.782 182.832C138.691 182.753 138.635 182.64 138.626 182.52C138.618 182.399 138.657 182.28 138.737 182.189C138.816 182.097 138.928 182.041 139.049 182.033L150.266 180.459L160.273 179.258C160.394 179.244 160.515 179.278 160.611 179.353C160.706 179.428 160.768 179.538 160.783 179.658C160.797 179.779 160.763 179.901 160.688 179.996C160.613 180.092 160.503 180.153 160.382 180.168L150.375 181.369L139.167 182.97L139.113 182.943Z" fill="#263238"/>
<path d="M45.9099 159.044C45.9099 159.044 55.5257 163.856 56.5264 164.057C57.5271 164.257 63.7406 163.856 64.1408 168.26C64.5411 172.663 60.5019 178.676 59.7377 181.278C58.9736 183.88 49.5215 183.279 49.5215 183.279C49.5215 183.279 46.3101 172.462 45.5096 168.46C44.709 164.457 45.9099 159.044 45.9099 159.044Z" fill="white"/>
<path d="M51.9678 183.816C50.8488 183.816 49.93 183.761 49.4843 183.734C49.3925 183.73 49.3045 183.697 49.2326 183.639C49.1608 183.582 49.1087 183.504 49.084 183.415C49.084 183.306 45.8635 172.499 45.063 168.55C44.2624 164.602 45.4178 159.171 45.4632 158.944C45.4799 158.876 45.5114 158.814 45.5555 158.76C45.5996 158.707 45.6551 158.664 45.718 158.634C45.7801 158.603 45.8486 158.587 45.9181 158.587C45.9876 158.587 46.0561 158.603 46.1182 158.634C49.8117 160.454 55.9342 163.465 56.6165 163.611C56.852 163.641 57.0888 163.659 57.3261 163.665C59.3912 163.793 64.2128 164.084 64.604 168.214C64.8951 171.434 62.9482 175.437 61.5291 178.357C61.0155 179.348 60.5629 180.368 60.1736 181.414C59.5368 183.461 55.0063 183.816 51.9678 183.816ZM49.8663 182.851C53.3779 183.033 58.809 182.742 59.3002 181.141C59.6949 180.049 60.1629 178.986 60.7012 177.957C62.0749 175.137 63.9581 171.261 63.6851 168.296C63.3849 164.948 59.2548 164.657 57.317 164.575C56.9349 164.575 56.6438 164.529 56.4801 164.502C55.5703 164.311 48.4563 160.8 46.282 159.717C46.0091 161.2 45.3723 165.257 46 168.368C46.6641 171.935 49.3387 181.059 49.8663 182.851Z" fill="#263238"/>
<path d="M42.1094 142.414L53.7266 180.678L57.1927 184.089L57.1017 179.076L45.1843 141.341L42.1094 142.414Z" fill="#FBD362"/>
<path d="M57.1916 184.544C57.1319 184.545 57.0728 184.533 57.018 184.51C56.9631 184.486 56.9138 184.451 56.8732 184.408L53.3889 181.005C53.336 180.951 53.2957 180.886 53.2707 180.814L41.6534 142.551C41.6184 142.439 41.6283 142.317 41.6808 142.212C41.7334 142.107 41.8247 142.026 41.9354 141.987L45.0194 140.913C45.0748 140.887 45.1354 140.873 45.1968 140.873C45.2582 140.873 45.3189 140.887 45.3742 140.913C45.4282 140.939 45.4763 140.976 45.5154 141.022C45.5545 141.067 45.5839 141.12 45.6017 141.177L57.5191 178.913C57.5229 178.955 57.5229 178.998 57.5191 179.04L57.6101 184.053C57.6102 184.144 57.5836 184.233 57.5334 184.309C57.4833 184.385 57.4119 184.445 57.3281 184.48C57.2855 184.507 57.2396 184.529 57.1916 184.544ZM54.1258 180.459L56.7186 183.007L56.6458 179.177L44.8921 141.951L42.6723 142.733L54.1258 180.459Z" fill="#263238"/>
<path d="M45.1843 141.341L42.1094 142.414L43.474 146.917L46.6125 145.853L45.1843 141.341Z" fill="#FBD362"/>
<path d="M43.4703 147.373C43.397 147.373 43.3248 147.354 43.2611 147.318C43.2068 147.29 43.1587 147.252 43.1196 147.205C43.0806 147.158 43.0513 147.103 43.0337 147.045L41.6691 142.551C41.6341 142.439 41.6439 142.317 41.6965 142.212C41.749 142.107 41.8403 142.026 41.9511 141.987L45.0351 140.913C45.0904 140.887 45.151 140.873 45.2125 140.873C45.2739 140.873 45.3345 140.887 45.3899 140.913C45.4438 140.939 45.4919 140.976 45.531 141.022C45.5701 141.067 45.5995 141.12 45.6173 141.177L47.0456 145.726C47.0804 145.841 47.0696 145.964 47.0153 146.071C46.9611 146.178 46.8676 146.26 46.7545 146.299L43.6159 147.354C43.5689 147.369 43.5196 147.375 43.4703 147.373ZM42.6698 142.706L43.7705 146.345L46.0449 145.58L44.8895 141.941L42.6698 142.706Z" fill="#263238"/>
<path d="M30.0859 181.278C30.0859 181.278 31.2868 184.69 32.4876 185.09C33.6885 185.49 40.5023 185.29 42.4947 185.29C44.487 185.29 30.0859 181.278 30.0859 181.278Z" fill="white"/>
<path d="M37.1336 185.79C35.5334 185.868 33.9295 185.776 32.3484 185.517C31.002 185.072 29.874 182.033 29.6192 181.433C29.5916 181.354 29.5863 181.268 29.604 181.187C29.6216 181.105 29.6615 181.029 29.7193 180.969C29.7756 180.907 29.8481 180.862 29.9285 180.84C30.0089 180.817 30.094 180.818 30.1742 180.841C43.2288 184.48 43.1833 184.817 43.1105 185.299C43.1105 185.463 42.9741 185.745 42.4737 185.745H40.7361L37.1336 185.79ZM30.8474 181.96C31.3568 183.161 32.0846 184.471 32.6668 184.689C33.522 184.981 38.0343 184.926 40.5997 184.89C38.2071 184.098 34.0314 182.861 30.8474 181.96Z" fill="#263238"/>
<path d="M32.8913 173.673C32.8913 173.673 29.689 179.677 30.0893 181.278C30.4896 182.879 33.4917 183.689 36.0935 184.289C39.8005 184.888 43.5608 185.089 47.3105 184.89C49.9214 184.69 45.109 182.279 45.109 182.279C42.5289 180.704 40.0524 178.966 37.6947 177.075C36.2243 175.767 34.6133 174.626 32.8913 173.673Z" fill="white"/>
<path d="M44.8507 185.417C41.8823 185.455 38.9165 185.224 35.9899 184.726C33.0242 184.043 30.0949 183.224 29.6218 181.387C29.2033 179.704 31.9143 174.482 32.4693 173.454C32.4952 173.401 32.5316 173.354 32.5762 173.316C32.6208 173.277 32.6727 173.248 32.7288 173.231C32.7849 173.213 32.844 173.206 32.9025 173.212C32.9611 173.218 33.018 173.235 33.0697 173.263C34.8287 174.231 36.4735 175.394 37.9731 176.729C40.3109 178.606 42.7661 180.332 45.3238 181.896C47.5617 183.006 48.6443 183.943 48.5078 184.625C48.3714 185.308 47.5981 185.308 47.3252 185.335C46.6974 185.39 45.8332 185.417 44.8507 185.417ZM33.0242 174.291C31.8325 176.593 30.2313 180.186 30.477 181.169C30.8409 182.615 34.2887 183.416 36.1446 183.843C39.8067 184.432 43.5211 184.631 47.2251 184.434H47.498C46.7035 183.743 45.8153 183.167 44.8598 182.724C42.244 181.137 39.7367 179.377 37.3545 177.457C36.0247 176.274 34.5905 175.215 33.0697 174.291H33.0242Z" fill="#263238"/>
<path d="M38.4995 167.86C38.4995 167.86 33.0957 171.499 32.8955 173.673C32.6954 175.847 38.6996 181.679 39.7094 182.479C40.7192 183.28 47.715 185.09 49.9257 184.69C50.5435 184.597 51.1331 184.369 51.6522 184.021C52.1712 183.674 52.6069 183.216 52.9278 182.68C52.9278 182.68 46.1139 177.476 44.3126 174.674C42.8075 172.091 41.4704 169.414 40.3098 166.659L38.4995 167.86Z" fill="white"/>
<path d="M49.1567 185.199C46.3002 185.199 40.4324 183.653 39.4135 182.834C39.3407 182.779 32.1902 176.384 32.4359 173.628C32.6542 171.271 37.6759 167.86 38.249 167.478L40.0685 166.277C40.1248 166.241 40.1879 166.218 40.2537 166.209C40.3196 166.199 40.3866 166.204 40.4506 166.222C40.5143 166.242 40.5732 166.275 40.6234 166.319C40.6735 166.362 40.7139 166.416 40.7417 166.477C41.8904 169.21 43.2154 171.866 44.7081 174.428C46.4457 177.157 53.1504 182.27 53.2141 182.325C53.2976 182.389 53.3566 182.48 53.3814 182.583C53.4062 182.685 53.3953 182.793 53.3506 182.889C52.9964 183.486 52.514 183.998 51.9382 184.386C51.3625 184.775 50.7076 185.031 50.021 185.136C49.7355 185.184 49.4461 185.205 49.1567 185.199ZM38.7494 168.242C37.2938 169.206 33.4912 172.081 33.3456 173.7C33.1819 175.52 38.5584 180.978 39.9866 182.115C40.8145 182.779 47.7102 184.617 49.839 184.226C50.8177 184.076 51.7026 183.559 52.3135 182.779C50.9034 181.679 45.536 177.421 43.9258 174.91C42.4875 172.469 41.2082 169.938 40.0958 167.332L38.7494 168.242Z" fill="#263238"/>
<path d="M45.9083 159.044C45.9083 159.044 38.0938 161.045 38.0938 163.856C38.0938 166.667 41.5052 175.073 43.3065 176.875C45.1078 178.676 51.3212 184.089 52.9223 182.679C54.5235 181.269 53.5228 179.877 53.1225 178.476C52.7222 177.075 48.1099 165.257 48.1099 165.257L45.9083 159.044Z" fill="white"/>
<path d="M52.2418 183.352C49.2397 183.352 43.0535 177.266 42.9898 177.193C41.0885 175.301 37.6406 166.695 37.6406 163.856C37.6406 160.781 44.964 158.816 45.8282 158.607C45.9367 158.578 46.0524 158.591 46.1519 158.643C46.2514 158.695 46.3275 158.783 46.3649 158.889L48.5665 165.103C48.7575 165.576 53.1879 176.929 53.5882 178.348C53.661 178.603 53.7519 178.858 53.8429 179.113C54.2614 180.259 54.7526 181.678 53.2516 183.024C52.9682 183.257 52.6076 183.374 52.2418 183.352ZM45.619 159.59C42.7351 160.39 38.5504 162.146 38.5504 163.856C38.5504 166.486 41.8709 174.773 43.6266 176.593C46.5287 179.486 51.5959 183.27 52.6239 182.378C53.6519 181.487 53.3699 180.559 52.9605 179.458C52.8604 179.185 52.7603 178.912 52.6876 178.639C52.2964 177.275 47.7386 165.576 47.6931 165.458L45.619 159.59Z" fill="#263238"/>
<path d="M58.5263 164.857C58.5263 164.857 51.9217 177.275 53.1225 178.503C54.3233 179.731 56.5249 180.905 57.5256 180.322C58.5263 179.74 62.7383 174.318 63.8937 171.307C65.0491 168.296 64.294 167.104 62.4927 165.703C61.9288 165.29 61.2838 165.001 60.6001 164.855C59.9165 164.709 59.2097 164.71 58.5263 164.857Z" fill="white"/>
<path d="M56.8634 180.896C55.5261 180.896 53.7794 179.777 52.806 178.794C51.5506 177.548 55.5989 169.388 58.128 164.639C58.1903 164.53 58.2909 164.449 58.41 164.411C59.1675 164.236 59.954 164.227 60.7156 164.384C61.4771 164.541 62.1957 164.86 62.8222 165.321C64.7963 166.859 65.6332 168.296 64.3596 171.462C63.1679 174.446 58.9649 179.977 57.7641 180.696C57.4872 180.842 57.1762 180.911 56.8634 180.896ZM58.8466 165.257C55.8809 170.834 53.0153 177.311 53.4701 178.176C54.7074 179.404 56.6451 180.286 57.3092 179.886C58.1461 179.386 62.3127 174.136 63.5317 171.098C64.6052 168.369 64.0412 167.395 62.2672 166.012C61.7778 165.662 61.2223 165.414 60.6344 165.284C60.0464 165.154 59.4382 165.145 58.8466 165.257Z" fill="#263238"/>
<path d="M74.7373 187.4C74.2313 187.402 73.7362 187.253 73.3146 186.973C72.893 186.694 72.564 186.295 72.3691 185.828C72.1742 185.361 72.1223 184.847 72.2199 184.35C72.3175 183.854 72.5603 183.397 72.9174 183.039C73.2745 182.681 73.73 182.436 74.2262 182.337C74.7223 182.238 75.2367 182.288 75.7044 182.481C76.172 182.674 76.5718 183.002 76.8531 183.422C77.1344 183.843 77.2846 184.337 77.2846 184.843C77.2858 185.179 77.2208 185.511 77.0933 185.821C76.9658 186.131 76.7784 186.413 76.5417 186.65C76.3051 186.888 76.0238 187.076 75.7142 187.205C75.4046 187.334 75.0726 187.4 74.7373 187.4ZM74.7373 183.206C74.4109 183.204 74.0913 183.299 73.8191 183.48C73.5469 183.66 73.3345 183.917 73.2087 184.218C73.083 184.519 73.0496 184.851 73.1128 185.172C73.1761 185.492 73.3331 185.786 73.5639 186.017C73.7947 186.248 74.089 186.405 74.4092 186.468C74.7295 186.531 75.0613 186.498 75.3626 186.372C75.6638 186.246 75.9209 186.034 76.1011 185.762C76.2814 185.489 76.3766 185.17 76.3748 184.843C76.376 184.627 76.3346 184.413 76.253 184.213C76.1713 184.012 76.0511 183.83 75.899 183.676C75.7469 183.523 75.5661 183.4 75.3668 183.317C75.1674 183.233 74.9536 183.189 74.7373 183.188V183.206Z" fill="#263238"/>
<path d="M74.1997 184.152H17.5781V187.136H74.1997V184.152Z" fill="#FBD362"/>
<path d="M74.1924 187.591H17.5799C17.4592 187.591 17.3435 187.543 17.2582 187.458C17.1729 187.372 17.125 187.257 17.125 187.136V184.152C17.125 184.031 17.1729 183.916 17.2582 183.83C17.3435 183.745 17.4592 183.697 17.5799 183.697H74.1924C74.313 183.697 74.4287 183.745 74.514 183.83C74.5993 183.916 74.6472 184.031 74.6472 184.152V187.136C74.6472 187.257 74.5993 187.372 74.514 187.458C74.4287 187.543 74.313 187.591 74.1924 187.591ZM18.0347 186.681H73.7375V184.607H18.0347V186.681Z" fill="#263238"/>
<path d="M132.083 184.152H75.4609V187.136H132.083V184.152Z" fill="#FBD362"/>
<path d="M132.076 187.592H75.4549C75.3342 187.592 75.2185 187.544 75.1332 187.459C75.0479 187.373 75 187.258 75 187.137V184.153C75 184.032 75.0479 183.917 75.1332 183.831C75.2185 183.746 75.3342 183.698 75.4549 183.698H132.076C132.196 183.701 132.311 183.749 132.396 183.834C132.48 183.919 132.529 184.033 132.531 184.153V187.137C132.529 187.257 132.48 187.371 132.396 187.456C132.311 187.541 132.196 187.59 132.076 187.592ZM75.9097 186.682H131.622V184.608H75.9097V186.682Z" fill="#263238"/>
<path d="M185.125 187.501H64.375C85.4583 201.376 100.792 206.251 128.775 206.251C151.162 206.251 175.669 193.751 185.125 187.501Z" fill="#F5F5FC"/>
</g>
<defs>
<clipPath id="clip0_1928_2833">
<rect width="214.5" height="209.235" fill="white" transform="translate(13)"/>
</clipPath>
</defs>
</svg>
