<svg width="212" height="307" viewBox="0 0 212 307" fill="none" xmlns="http://www.w3.org/2000/svg">
<path d="M126.139 303.003V263.386H5.61719V259.869H182.942C189.143 259.871 195.089 262.336 199.473 266.721C203.857 271.106 206.319 277.053 206.319 283.254C206.317 289.453 203.854 295.398 199.47 299.782C195.087 304.166 189.142 306.629 182.942 306.631H5.61719V303.018L126.139 303.003Z" fill="#BA68C8" stroke="#263238" stroke-width="0.738854" stroke-miterlimit="10"/>
<path d="M179.76 283.239C179.756 277.04 177.29 271.095 172.905 266.713C168.52 262.331 162.574 259.869 156.375 259.869H163.025C169.154 259.978 174.995 262.489 179.291 266.862C183.587 271.235 185.994 277.12 185.994 283.25C185.994 289.38 183.587 295.265 179.291 299.638C174.995 304.011 169.154 306.522 163.025 306.631H156.375C159.447 306.631 162.488 306.026 165.326 304.85C168.163 303.675 170.742 301.952 172.913 299.779C175.085 297.607 176.807 295.028 177.982 292.19C179.157 289.352 179.761 286.311 179.76 283.239Z" fill="white" stroke="#263238" stroke-width="0.738854" stroke-linecap="round" stroke-linejoin="round"/>
<path d="M10.4803 302.368C18.0757 279.286 10.4803 263.504 10.4803 263.504H124.958C130.192 263.504 135.212 265.583 138.913 269.284C142.614 272.985 144.693 278.005 144.693 283.239C144.693 288.473 142.614 293.492 138.913 297.193C135.212 300.894 130.192 302.973 124.958 302.973H10.2734C10.3399 302.774 10.4138 302.574 10.4803 302.368Z" fill="white" stroke="#263238" stroke-width="0.738854" stroke-linecap="round" stroke-linejoin="round"/>
<path d="M143.168 275.644H108.25" stroke="#263238" stroke-width="0.738854" stroke-linecap="round" stroke-linejoin="round"/>
<path d="M144.695 283.238H130.117" stroke="#263238" stroke-width="0.738854" stroke-linecap="round" stroke-linejoin="round"/>
<path d="M141.956 292.349H93.6797" stroke="#263238" stroke-width="0.738854" stroke-linecap="round" stroke-linejoin="round"/>
<path d="M123.436 273.219H96.7188" stroke="#263238" stroke-width="0.738854" stroke-linecap="round" stroke-linejoin="round"/>
<path d="M127.376 283.238H121" stroke="#263238" stroke-width="0.738854" stroke-linecap="round" stroke-linejoin="round"/>
<path d="M88.823 292.349H83.9688" stroke="#263238" stroke-width="0.738854" stroke-linecap="round" stroke-linejoin="round"/>
<path d="M12.9062 271.697H23.2354" stroke="#263238" stroke-width="0.738854" stroke-linecap="round" stroke-linejoin="round"/>
<path d="M28.3985 278.378H16.5547" stroke="#263238" stroke-width="0.738854" stroke-linecap="round" stroke-linejoin="round"/>
<path d="M37.5078 289.312H42.0592" stroke="#263238" stroke-width="0.738854" stroke-linecap="round" stroke-linejoin="round"/>
<path d="M15.0312 289.312H32.9485" stroke="#263238" stroke-width="0.738854" stroke-linecap="round" stroke-linejoin="round"/>
<path d="M81.1583 210.365V170.763H201.702V167.238H24.3773C18.1779 167.24 12.2329 169.704 7.84922 174.087C3.46555 178.471 1.00196 184.416 1 190.616C1 196.816 3.46296 202.762 7.84706 207.146C12.2312 211.53 18.1773 213.993 24.3773 213.993H201.702V210.365H81.1583Z" fill="#EAD2EE" stroke="#263238" stroke-width="0.738854" stroke-linecap="round" stroke-linejoin="round"/>
<path d="M20.4934 190.616C20.4954 184.416 22.959 178.471 27.3427 174.087C31.7263 169.704 37.6713 167.24 43.8708 167.238H37.2211C34.1511 167.238 31.1112 167.843 28.275 169.018C25.4387 170.193 22.8616 171.915 20.6908 174.085C18.52 176.256 16.7981 178.833 15.6232 181.669C14.4484 184.506 13.8438 187.546 13.8438 190.616C13.8438 193.686 14.4484 196.725 15.6232 199.562C16.7981 202.398 18.52 204.975 20.6908 207.146C22.8616 209.317 25.4387 211.039 28.275 212.213C31.1112 213.388 34.1511 213.993 37.2211 213.993H43.8708C37.6707 213.993 31.7246 211.53 27.3405 207.146C22.9564 202.762 20.4934 196.816 20.4934 190.616Z" fill="white" stroke="#263238" stroke-width="0.738854" stroke-linecap="round" stroke-linejoin="round"/>
<path d="M49.4079 190.616C49.4099 184.415 51.8745 178.469 56.2598 174.085C60.645 169.701 66.5919 167.238 72.7926 167.238H66.143C63.073 167.238 60.0331 167.843 57.1968 169.018C54.3606 170.193 51.7835 171.915 49.6127 174.085C47.4419 176.256 45.7199 178.833 44.5451 181.669C43.3703 184.506 42.7656 187.546 42.7656 190.616C42.7656 193.686 43.3703 196.725 44.5451 199.562C45.7199 202.398 47.4419 204.975 49.6127 207.146C51.7835 209.317 54.3606 211.039 57.1968 212.213C60.0331 213.388 63.073 213.993 66.143 213.993H72.7926C69.7221 213.994 66.6814 213.39 63.8443 212.216C61.0071 211.041 58.4292 209.319 56.2576 207.148C54.086 204.978 52.3634 202.4 51.1881 199.563C50.0128 196.727 49.4079 193.686 49.4079 190.616Z" fill="white" stroke="#263238" stroke-width="0.738854" stroke-linecap="round" stroke-linejoin="round"/>
<path d="M196.86 209.745C189.264 186.67 196.86 170.881 196.86 170.881H82.3889C79.7942 170.876 77.224 171.383 74.8254 172.372C72.4268 173.362 70.2469 174.815 68.4104 176.648C66.574 178.481 65.117 180.658 64.1229 183.055C63.1289 185.452 62.6172 188.021 62.6172 190.616C62.6152 193.212 63.1255 195.782 64.1187 198.181C65.1119 200.579 66.5686 202.758 68.4052 204.593C70.2419 206.428 72.4224 207.882 74.822 208.872C77.2215 209.863 79.793 210.37 82.3889 210.365H197.089C197 210.151 196.926 209.959 196.86 209.745Z" fill="white" stroke="#263238" stroke-width="0.738854" stroke-linecap="round" stroke-linejoin="round"/>
<path d="M64.1562 183.028H99.0745" stroke="#263238" stroke-width="0.738854" stroke-linecap="round" stroke-linejoin="round"/>
<path d="M62.6406 190.615H77.2182" stroke="#263238" stroke-width="0.738854" stroke-linecap="round" stroke-linejoin="round"/>
<path d="M65.3672 199.726H113.644" stroke="#263238" stroke-width="0.738854" stroke-linecap="round" stroke-linejoin="round"/>
<path d="M83.8906 180.598H110.608" stroke="#263238" stroke-width="0.738854" stroke-linecap="round" stroke-linejoin="round"/>
<path d="M79.9531 190.615H86.3294" stroke="#263238" stroke-width="0.738854" stroke-linecap="round" stroke-linejoin="round"/>
<path d="M118.5 199.726H123.354" stroke="#263238" stroke-width="0.738854" stroke-linecap="round" stroke-linejoin="round"/>
<path d="M194.423 179.083H184.102" stroke="#263238" stroke-width="0.738854" stroke-linecap="round" stroke-linejoin="round"/>
<path d="M178.922 185.761H190.766" stroke="#263238" stroke-width="0.738854" stroke-linecap="round" stroke-linejoin="round"/>
<path d="M169.817 196.688H165.266" stroke="#263238" stroke-width="0.738854" stroke-linecap="round" stroke-linejoin="round"/>
<path d="M192.293 196.688H174.383" stroke="#263238" stroke-width="0.738854" stroke-linecap="round" stroke-linejoin="round"/>
<path d="M90.4547 256.869V217.252H210.999V213.728H33.6738C27.4731 213.728 21.5262 216.19 17.1409 220.574C12.7556 224.958 10.291 230.904 10.2891 237.105C10.2891 240.175 10.894 243.216 12.0693 246.053C13.2445 248.889 14.9672 251.467 17.1387 253.638C19.3103 255.809 21.8883 257.53 24.7254 258.705C27.5625 259.879 30.6032 260.483 33.6738 260.482H210.999V256.869H90.4547Z" fill="#263238" stroke="#263238" stroke-width="0.738854" stroke-miterlimit="10"/>
<path d="M29.7829 237.105C29.7849 230.904 32.2495 224.958 36.6348 220.574C41.02 216.19 46.9669 213.728 53.1676 213.728H46.518C40.3179 213.728 34.3718 216.191 29.9877 220.575C25.6036 224.959 23.1406 230.905 23.1406 237.105C23.1406 243.305 25.6036 249.251 29.9877 253.635C34.3718 258.019 40.3179 260.482 46.518 260.482H53.1676C50.0971 260.483 47.0564 259.879 44.2193 258.705C41.3821 257.53 38.8042 255.809 36.6326 253.638C34.461 251.467 32.7384 248.889 31.5631 246.053C30.3878 243.216 29.7829 240.175 29.7829 237.105Z" fill="white" stroke="#263238" stroke-width="0.738854" stroke-linecap="round" stroke-linejoin="round"/>
<path d="M58.7122 237.105C58.7141 230.905 61.1777 224.96 65.5614 220.577C69.9451 216.193 75.8901 213.729 82.0895 213.728H75.4398C69.2398 213.728 63.2937 216.191 58.9096 220.575C54.5255 224.959 52.0625 230.905 52.0625 237.105C52.0625 243.305 54.5255 249.251 58.9096 253.635C63.2937 258.019 69.2398 260.482 75.4398 260.482H82.0895C79.0196 260.482 75.9797 259.878 73.1434 258.703C70.3071 257.528 67.73 255.806 65.5592 253.635C63.3885 251.464 61.6665 248.887 60.4917 246.051C59.3169 243.215 58.7122 240.175 58.7122 237.105Z" fill="white" stroke="#263238" stroke-width="0.738854" stroke-linecap="round" stroke-linejoin="round"/>
<path d="M206.143 256.233C198.555 233.158 206.143 217.369 206.143 217.369H91.6723C86.4383 217.369 81.4187 219.448 77.7177 223.149C74.0167 226.85 71.9375 231.87 71.9375 237.104C71.9375 242.338 74.0167 247.358 77.7177 251.059C81.4187 254.76 86.4383 256.839 91.6723 256.839H206.357C206.283 256.639 206.209 256.447 206.143 256.233Z" fill="white" stroke="#263238" stroke-width="0.738854" stroke-linecap="round" stroke-linejoin="round"/>
<path d="M73.4531 229.517H108.371" stroke="#263238" stroke-width="0.738854" stroke-linecap="round" stroke-linejoin="round"/>
<path d="M71.9375 237.104H86.5077" stroke="#263238" stroke-width="0.738854" stroke-linecap="round" stroke-linejoin="round"/>
<path d="M74.6719 246.214H122.949" stroke="#263238" stroke-width="0.738854" stroke-linecap="round" stroke-linejoin="round"/>
<path d="M93.1953 227.086H119.92" stroke="#263238" stroke-width="0.738854" stroke-linecap="round" stroke-linejoin="round"/>
<path d="M89.2422 237.104H95.6185" stroke="#263238" stroke-width="0.738854" stroke-linecap="round" stroke-linejoin="round"/>
<path d="M127.797 246.214H132.659" stroke="#263238" stroke-width="0.738854" stroke-linecap="round" stroke-linejoin="round"/>
<path d="M203.712 225.57H193.391" stroke="#263238" stroke-width="0.738854" stroke-linecap="round" stroke-linejoin="round"/>
<path d="M188.227 232.25H200.07" stroke="#263238" stroke-width="0.738854" stroke-linecap="round" stroke-linejoin="round"/>
<path d="M179.106 243.178H174.555" stroke="#263238" stroke-width="0.738854" stroke-linecap="round" stroke-linejoin="round"/>
<path d="M201.597 243.178H183.68" stroke="#263238" stroke-width="0.738854" stroke-linecap="round" stroke-linejoin="round"/>
<path d="M89.3163 131.182L88.7843 131.744C86.9002 133.724 80.6052 140.322 80.0585 140.869C79.5117 141.415 77.2582 143.24 77.2582 143.24C77.2582 143.24 70.8006 147.976 71.4434 149.269C72.0862 150.562 88.4371 162.184 100.259 164.556C112.08 166.928 139.876 166.034 145.262 163.263C150.649 160.493 157.32 151.442 160.113 146.27C162.906 141.098 156.67 137.012 152.799 135.504C148.927 133.997 139.233 129.047 137.726 127.754L89.3163 131.182Z" fill="#263238" stroke="#263238" stroke-width="0.738854" stroke-miterlimit="10"/>
<path d="M105.243 56.6844C105.243 56.6844 81.1566 58.0439 77.8613 65.4251C74.566 72.8062 82.2944 104.267 82.9077 111.456C83.5209 118.645 84.0751 131.848 92.6162 135.535C101.157 139.222 120.006 140.973 127.963 137.862C135.92 134.752 139.785 131.456 139.785 128.737C139.785 126.018 136.29 118.054 136.29 109.313C136.29 100.572 146.582 82.7142 146.383 71.6314C146.183 60.5486 140.945 58.6202 135.898 57.2607C130.852 55.9012 105.243 56.6844 105.243 56.6844Z" fill="#BA68C8" stroke="#263238" stroke-width="0.738854" stroke-miterlimit="10"/>
<path d="M106.898 116.996C112.226 121.614 119.378 127.229 124.476 128.958" stroke="#263238" stroke-width="0.738854" stroke-linecap="round" stroke-linejoin="round"/>
<path d="M99.6094 110.317C99.6094 110.317 102.144 112.822 105.771 116.021" stroke="#263238" stroke-width="0.738854" stroke-linecap="round" stroke-linejoin="round"/>
<path d="M123.195 131.752C124.439 132.156 125.714 132.458 127.008 132.653" stroke="#263238" stroke-width="0.738854" stroke-linecap="round" stroke-linejoin="round"/>
<path d="M108.352 122.162C111.904 125.833 116.128 128.788 120.794 130.866" stroke="#263238" stroke-width="0.738854" stroke-linecap="round" stroke-linejoin="round"/>
<path d="M116.439 158.313C116.439 158.313 108.223 155.269 107.181 155.084C102.224 154.212 92.1531 151.715 83.2868 143.868C72.5217 134.396 52.255 120.831 44.9625 119.538C37.67 118.245 31.6114 124.924 33.5546 133.539C35.4978 142.154 44.9625 152.697 54.4346 158.298C63.9067 163.898 110.418 167.556 116.447 167.984C122.476 168.413 140.991 171.642 144.434 169.462C147.877 167.282 149.17 160.633 146.592 158.483C144.013 156.333 126.997 159.34 123.333 158.911C119.668 158.483 116.439 158.313 116.439 158.313Z" fill="#263238" stroke="#263238" stroke-width="0.738854" stroke-miterlimit="10"/>
<path d="M123.335 158.955C120.904 158.667 118.673 158.483 117.424 158.387L115.562 167.933L116.434 167.999C122.463 168.428 140.979 171.656 144.422 169.477C147.865 167.297 149.158 160.647 146.58 158.497C144.001 156.347 127 159.384 123.335 158.955Z" fill="white" stroke="#263238" stroke-width="0.738854" stroke-miterlimit="10"/>
<path d="M85.6536 157.908C85.6536 157.908 112.777 147.364 126.992 141.335C141.208 135.306 156.059 126.263 167.253 126.263C178.446 126.263 172.639 140.471 169.41 146.5C166.181 152.529 152.416 155.972 142.072 158.129C131.729 160.287 104.819 163.723 89.7468 166.309C74.6742 168.895 64.7736 166.951 58.9588 166.309C53.144 165.666 49.2724 165.444 48.1937 161.573C47.115 157.701 52.5012 153.822 57.8875 152.957C63.2737 152.093 70.1598 156.401 73.6029 157.265C77.0459 158.129 85.6536 157.908 85.6536 157.908Z" fill="white" stroke="#263238" stroke-width="0.738854" stroke-miterlimit="10"/>
<path d="M167.263 126.232C156.069 126.232 141.211 135.276 127.002 141.305C113.275 147.127 87.5034 157.161 85.7597 157.841C85.5939 159.389 85.7492 160.956 86.2157 162.442C86.6822 163.928 87.4501 165.302 88.4713 166.478L89.7421 166.278C104.815 163.692 131.731 160.249 142.068 158.099C152.404 155.949 166.177 152.499 169.405 146.47C172.634 140.441 178.456 126.232 167.263 126.232Z" fill="#263238" stroke="#263238" stroke-width="0.738854" stroke-miterlimit="10"/>
<path d="M81.8687 157.907C79.1128 157.87 75.5368 157.729 73.601 157.242C70.1579 156.377 63.257 152.07 57.8855 152.934C52.5141 153.799 47.1204 157.67 48.1918 161.549C49.2631 165.428 53.1421 165.635 58.9569 166.285C63.9811 166.84 72.0715 168.362 83.908 167.098C82.95 166.059 82.2245 164.827 81.7801 163.485C81.0691 161.687 81.101 159.681 81.8687 157.907Z" stroke="#263238" stroke-width="0.738854" stroke-linecap="round" stroke-linejoin="round"/>
<path d="M83.0985 61.3759C83.0985 61.3759 76.6927 60.9843 74.3579 71.476C72.0231 81.9678 74.1658 111.485 76.3011 118.475C78.4363 125.464 80.1874 130.71 83.298 135.173C86.4086 139.635 97.085 150.134 97.085 150.134C97.085 150.134 99.9887 155.085 100.728 156.045C101.466 157.006 102.634 159.222 104.215 160.597C105.043 161.334 105.928 162.006 106.86 162.606C106.86 162.606 109.815 164.402 110.673 163.766C111.53 163.131 109.934 162.185 109.934 162.185L106.55 156.274L107.717 156.171L112.15 161.247C112.15 161.247 113.525 162.724 113.946 162.407C114.169 162.108 114.323 161.764 114.397 161.398C114.471 161.033 114.463 160.656 114.374 160.294C114.16 159.873 109.941 153.733 109.941 153.733C109.941 153.733 112.379 155.949 113.539 157.117C114.699 158.284 115.867 159.126 116.184 158.919C116.424 158.686 116.567 158.372 116.586 158.038C116.605 157.704 116.499 157.376 116.288 157.117C115.763 156.274 109.099 147.6 109.099 147.6C109.099 147.6 113.222 146.647 113.96 146.329C114.699 146.012 116.288 144.748 116.177 144.113C116.066 143.477 115.12 143.795 114.382 144.216C113.199 144.662 111.951 144.911 110.687 144.955C109.948 144.955 106.254 144.955 104.547 145.487C103.596 145.833 102.602 146.047 101.592 146.122C101.163 146.122 92.3859 127.296 92.2825 126.764C92.179 126.232 88.0341 104.215 86.9849 100.277C85.9357 96.3385 83.7044 82.8322 83.7044 82.8322" fill="#BA68C8"/>
<path d="M83.0985 61.3759C83.0985 61.3759 76.6927 60.9843 74.3579 71.476C72.0231 81.9678 74.1658 111.485 76.3011 118.475C78.4363 125.464 80.1874 130.71 83.298 135.173C86.4086 139.635 97.085 150.134 97.085 150.134C97.085 150.134 99.9887 155.085 100.728 156.045C101.466 157.006 102.634 159.222 104.215 160.597C105.043 161.334 105.928 162.006 106.86 162.606C106.86 162.606 109.815 164.402 110.673 163.766C111.53 163.131 109.934 162.185 109.934 162.185L106.55 156.274L107.717 156.171L112.15 161.247C112.15 161.247 113.525 162.724 113.946 162.407C114.169 162.108 114.323 161.764 114.397 161.398C114.471 161.033 114.463 160.656 114.374 160.294C114.16 159.873 109.941 153.733 109.941 153.733C109.941 153.733 112.379 155.949 113.539 157.117C114.699 158.284 115.867 159.126 116.184 158.919C116.424 158.686 116.567 158.372 116.586 158.038C116.605 157.704 116.499 157.376 116.288 157.117C115.763 156.274 109.099 147.6 109.099 147.6C109.099 147.6 113.222 146.647 113.96 146.329C114.699 146.012 116.288 144.748 116.177 144.113C116.066 143.477 115.12 143.795 114.382 144.216C113.199 144.662 111.951 144.911 110.687 144.955C109.948 144.955 106.254 144.955 104.547 145.487C103.596 145.833 102.602 146.047 101.592 146.122C101.163 146.122 92.3859 127.296 92.2825 126.764C92.179 126.232 88.0341 104.215 86.9849 100.277C85.9357 96.3385 83.7044 82.8322 83.7044 82.8322" stroke="#263238" stroke-width="0.738854" stroke-miterlimit="10"/>
<path d="M113.947 162.385C114.17 162.086 114.324 161.741 114.398 161.376C114.472 161.011 114.464 160.634 114.376 160.271C114.161 159.85 109.942 153.71 109.942 153.71C109.942 153.71 112.381 155.927 113.541 157.094C114.701 158.262 115.868 159.104 116.186 158.897C116.425 158.664 116.569 158.35 116.588 158.016C116.607 157.682 116.5 157.353 116.289 157.094C115.765 156.252 109.1 147.578 109.1 147.578C109.1 147.578 113.223 146.625 113.962 146.307C114.701 145.989 116.289 144.726 116.178 144.091C116.068 143.455 115.122 143.773 114.383 144.194C113.2 144.64 111.952 144.889 110.689 144.933C109.95 144.933 106.256 144.933 104.549 145.465C103.597 145.811 102.603 146.024 101.593 146.1C101.313 146.1 97.4927 138.113 94.8329 132.395C91.3364 133.573 88.0195 135.229 84.9766 137.315C89.1511 142.325 97.1012 150.134 97.1012 150.134C97.1012 150.134 100.005 155.085 100.744 156.045C101.483 157.006 102.65 159.222 104.231 160.597C105.059 161.334 105.944 162.006 106.876 162.606C106.876 162.606 109.832 164.402 110.689 163.766C111.546 163.131 109.95 162.185 109.95 162.185L106.566 156.274L107.733 156.171L112.166 161.247C112.166 161.247 113.526 162.702 113.947 162.385Z" fill="white" stroke="#263238" stroke-width="0.738854" stroke-miterlimit="10"/>
<path d="M107.78 162.902C107.78 162.902 104.426 159.259 103.406 156.784" stroke="#263238" stroke-width="0.738854" stroke-linecap="round" stroke-linejoin="round"/>
<path d="M101.754 35.9357C106.153 35.9357 109.719 32.0654 109.719 27.2911C109.719 22.5168 106.153 18.6465 101.754 18.6465C97.355 18.6465 93.7891 22.5168 93.7891 27.2911C93.7891 32.0654 97.355 35.9357 101.754 35.9357Z" fill="white" stroke="#263238" stroke-width="0.738854" stroke-miterlimit="10"/>
<path d="M110.099 2.52568C110.099 2.52568 101.166 4.86046 100.974 7.96365C100.782 11.0668 101.358 14.9532 101.358 17.0959C101.358 19.2386 89.7066 42.7267 90.4824 44.6699C91.2582 46.6131 96.6962 51.2753 106.796 53.0263C116.896 54.7774 123.886 56.5211 133.794 53.2184C143.702 49.9158 151.076 45.2536 151.467 40.7835C151.859 36.3135 143.118 18.0638 139.646 13.2095C136.173 8.35524 135.951 6.99575 130.713 4.46887C125.475 1.94199 117.672 -0.776994 110.099 2.52568Z" fill="#263238" stroke="#263238" stroke-width="0.738854" stroke-miterlimit="10"/>
<path d="M103.694 45.4464V56.906C103.694 56.906 100.192 61.9597 102.335 67.5898C104.477 73.2199 110.684 74.1952 114.156 69.7251C117.629 65.255 119.594 56.906 119.594 56.906L119.786 42.1289L103.694 45.4464Z" fill="white" stroke="#263238" stroke-width="0.738854" stroke-miterlimit="10"/>
<path d="M116.049 43.4512L103.887 51.4308L103.688 45.4461L116.049 43.4512Z" fill="#263238" stroke="#263238" stroke-width="0.738854" stroke-miterlimit="10"/>
<path d="M103.306 13.0169C103.306 13.0169 95.7331 30.8824 96.5089 33.4093C97.2847 35.9362 98.6442 45.6447 101.363 46.6126C104.082 47.5805 118.844 44.4773 120.573 43.1178C122.302 41.7583 126.595 33.9856 126.987 32.035C127.378 30.0845 122.923 11.4579 122.147 10.8743C121.371 10.2906 106.025 10.8743 103.306 13.0169Z" fill="white" stroke="#263238" stroke-width="0.738854" stroke-miterlimit="10"/>
<path d="M107.963 26.8057C107.963 26.8057 103.885 31.2388 103.109 32.0515C102.333 32.8643 102.909 34.9626 104.468 34.9626C105.378 34.9653 106.287 34.9011 107.187 34.7705" stroke="#263238" stroke-width="0.738854" stroke-linecap="round" stroke-linejoin="round"/>
<path d="M100.773 34.3779C100.773 34.3779 102.332 37.4885 104.852 38.2643C107.371 39.0401 110.681 37.8727 110.681 37.8727" stroke="#263238" stroke-width="0.738854" stroke-linecap="round" stroke-linejoin="round"/>
<path d="M113.984 28.1631C113.984 28.1631 114.723 31.0742 118.647 30.2984" stroke="#263238" stroke-width="0.738854" stroke-linecap="round" stroke-linejoin="round"/>
<path d="M102.508 23.1104C102.646 23.5726 102.888 23.9967 103.217 24.3494C103.546 24.7022 103.953 24.974 104.404 25.1436C104.856 25.3131 105.34 25.3759 105.82 25.327C106.3 25.278 106.762 25.1187 107.17 24.8614" stroke="#263238" stroke-width="0.738854" stroke-linecap="round" stroke-linejoin="round"/>
<path d="M116.703 23.6943C116.703 23.6943 120.397 24.278 121.365 28.9402" stroke="#263238" stroke-width="0.738854" stroke-linecap="round" stroke-linejoin="round"/>
<path d="M109.515 20.7831C108.697 19.9536 107.643 19.3964 106.497 19.1875C105.35 18.9786 104.168 19.1281 103.109 19.6157" stroke="#263238" stroke-width="0.738854" stroke-linecap="round" stroke-linejoin="round"/>
<path d="M133.798 30.4922C133.798 30.4922 135.35 13.4025 130.688 4.46973C132.173 4.89621 133.549 5.63766 134.722 6.64361C135.895 7.64956 136.837 8.8964 137.485 10.2993C137.485 10.2993 139.62 24.2784 136.325 33.2038L133.798 30.4922Z" fill="white" stroke="#263238" stroke-width="0.738854" stroke-miterlimit="10"/>
<path d="M131.457 46.0294C135.856 46.0294 139.422 42.1591 139.422 37.3848C139.422 32.6105 135.856 28.7402 131.457 28.7402C127.058 28.7402 123.492 32.6105 123.492 37.3848C123.492 42.1591 127.058 46.0294 131.457 46.0294Z" fill="white" stroke="#263238" stroke-width="0.738854" stroke-miterlimit="10"/>
<path d="M133.797 43.8713C136.801 43.8713 139.235 41.2283 139.235 37.9679C139.235 34.7075 136.801 32.0645 133.797 32.0645C130.794 32.0645 128.359 34.7075 128.359 37.9679C128.359 41.2283 130.794 43.8713 133.797 43.8713Z" fill="white" stroke="#263238" stroke-width="0.738854" stroke-miterlimit="10"/>
<path d="M137.102 57.6808C139.397 57.9615 141.572 58.8681 143.387 60.3015C145.202 61.735 146.588 63.6399 147.394 65.8082C149.721 72.0293 148.945 79.6026 145.059 91.668C141.173 103.734 134.183 113.834 131.856 114.573C129.528 115.311 121.948 89.7175 121.756 89.1338C121.563 88.5501 114.367 56.8902 114.766 54.5628C115.165 52.2354 125.642 50.2848 125.642 50.2848L129.72 44.6548C129.72 44.6548 130.688 43.6869 130.304 45.63C129.837 47.3149 129.186 48.9429 128.361 50.4843C128.361 50.4843 132.631 45.0685 133.215 44.4627C133.721 44.0623 134.326 43.8069 134.966 43.7238C134.969 43.9795 135.027 44.2317 135.136 44.4627C135.328 44.9429 134.678 45.8295 134.678 45.8295C134.678 45.8295 136.895 43.2214 137.382 43.5095C137.87 43.7977 138.055 44.6621 138.055 45.4306C138.055 46.199 134.634 51.7773 133.799 53.2624C132.964 54.7475 120.293 59.6387 120.293 59.6387L133.215 85.6981L133.991 77.3417" fill="#BA68C8"/>
<path d="M137.102 57.6808C139.397 57.9615 141.572 58.8681 143.387 60.3015C145.202 61.735 146.588 63.6399 147.394 65.8082C149.721 72.0293 148.945 79.6026 145.059 91.668C141.173 103.734 134.183 113.834 131.856 114.573C129.528 115.311 121.948 89.7175 121.756 89.1338C121.563 88.5501 114.367 56.8902 114.766 54.5628C115.165 52.2354 125.642 50.2848 125.642 50.2848L129.72 44.6548C129.72 44.6548 130.688 43.6869 130.304 45.63C129.837 47.3149 129.186 48.9429 128.361 50.4843C128.361 50.4843 132.631 45.0685 133.215 44.4627C133.721 44.0623 134.326 43.8069 134.966 43.7238C134.969 43.9795 135.027 44.2317 135.136 44.4627C135.328 44.9429 134.678 45.8295 134.678 45.8295C134.678 45.8295 136.895 43.2214 137.382 43.5095C137.87 43.7977 138.055 44.6621 138.055 45.4306C138.055 46.199 134.634 51.7773 133.799 53.2624C132.964 54.7475 120.293 59.6387 120.293 59.6387L133.215 85.6981L133.991 77.3417" stroke="#263238" stroke-width="0.738854" stroke-miterlimit="10"/>
<path d="M130.865 80.9117L120.292 59.5957C120.292 59.5957 132.964 54.7045 133.798 53.2194C134.633 51.7343 138.054 46.156 138.054 45.3876C138.054 44.6192 137.862 43.7547 137.382 43.4666C136.902 43.1784 134.678 45.7866 134.678 45.7866C134.678 45.7866 135.328 44.8999 135.136 44.4197C135.026 44.1887 134.968 43.9365 134.966 43.6808C134.326 43.7639 133.721 44.0193 133.215 44.4197C132.631 45.0256 128.36 50.4413 128.36 50.4413C129.185 48.8999 129.837 47.2719 130.304 45.5871C130.688 43.6439 129.72 44.6118 129.72 44.6118L125.642 50.2419C125.642 50.2419 115.15 52.185 114.766 54.5198C114.455 56.3596 118.859 76.4268 120.832 85.1231L130.865 80.9117Z" fill="white" stroke="#263238" stroke-width="0.738854" stroke-miterlimit="10"/>
<path d="M134.677 45.7861C134.677 45.7861 130.917 52.2807 130.688 52.6205" stroke="#263238" stroke-width="0.738854" stroke-linecap="round" stroke-linejoin="round"/>
<path d="M137.861 44.9883L132.844 52.6206" stroke="#263238" stroke-width="0.738854" stroke-linecap="round" stroke-linejoin="round"/>
<path d="M128.353 50.5L127.148 51.4827" stroke="#263238" stroke-width="0.738854" stroke-linecap="round" stroke-linejoin="round"/>
<path d="M144.492 188.244H139.586" stroke="#263238" stroke-width="2.95542" stroke-linecap="round" stroke-linejoin="round"/>
<path d="M129.711 48.0762V221.264C129.711 223.725 130.689 226.085 132.429 227.825C134.169 229.566 136.53 230.544 138.991 230.544C140.213 230.548 141.423 230.312 142.554 229.848C143.684 229.384 144.711 228.701 145.577 227.839C146.442 226.976 147.129 225.952 147.598 224.823C148.067 223.695 148.308 222.485 148.308 221.264V189.877C148.309 189.663 148.268 189.451 148.186 189.253C148.105 189.055 147.985 188.875 147.834 188.723C147.683 188.571 147.504 188.451 147.306 188.369C147.108 188.286 146.896 188.244 146.682 188.244H144.532" stroke="#263238" stroke-width="0.738854" stroke-linecap="round" stroke-linejoin="round"/>
</svg>
