<svg width="230" height="207" viewBox="0 0 230 207" fill="none" xmlns="http://www.w3.org/2000/svg">
<g clip-path="url(#clip0_1583_2745)">
<rect x="23" width="206.25" height="206.25" rx="103.125" fill="#EAD2EE"/>
<path d="M80.0805 99.878L83.6997 99.3125L80.0805 98.747C79.7618 98.6988 79.4669 98.5498 79.239 98.3218C79.0111 98.0939 78.8621 97.799 78.8138 97.4803L78.2483 93.8555L77.6828 97.4803C77.6348 97.7982 77.4867 98.0925 77.2598 98.3203C77.033 98.5482 76.7394 98.6977 76.4217 98.747L72.7969 99.3125L76.4217 99.878C76.7384 99.9299 77.0306 100.08 77.257 100.308C77.4834 100.535 77.6323 100.828 77.6828 101.145L78.2483 104.77L78.8138 101.145C78.8646 100.827 79.0144 100.534 79.2419 100.306C79.4693 100.079 79.7628 99.9288 80.0805 99.878Z" fill="white"/>
<path d="M53.0393 124.432L56.6642 123.866L53.0393 123.301C52.722 123.249 52.4289 123.099 52.2016 122.872C51.9742 122.644 51.8242 122.351 51.7726 122.034L51.2071 118.409L50.6416 122.034C50.5925 122.352 50.4432 122.647 50.2154 122.875C49.9876 123.102 49.6932 123.252 49.3749 123.301L45.75 123.866L49.3749 124.432C49.6932 124.481 49.9876 124.63 50.2154 124.858C50.4432 125.086 50.5925 125.38 50.6416 125.698L51.2071 129.323L51.7726 125.698C51.8242 125.381 51.9742 125.088 52.2016 124.861C52.4289 124.633 52.722 124.483 53.0393 124.432Z" fill="#FBD362"/>
<path opacity="0.5" d="M53.0393 124.432L56.6642 123.866L53.0393 123.301C52.722 123.249 52.4289 123.099 52.2016 122.872C51.9742 122.644 51.8242 122.351 51.7726 122.034L51.2071 118.409L50.6416 122.034C50.5925 122.352 50.4432 122.647 50.2154 122.875C49.9876 123.102 49.6932 123.252 49.3749 123.301L45.75 123.866L49.3749 124.432C49.6932 124.481 49.9876 124.63 50.2154 124.858C50.4432 125.086 50.5925 125.38 50.6416 125.698L51.2071 129.323L51.7726 125.698C51.8242 125.381 51.9742 125.088 52.2016 124.861C52.4289 124.633 52.722 124.483 53.0393 124.432Z" fill="white"/>
<path d="M143.289 139.547L146.914 138.982L143.289 138.416C142.972 138.367 142.678 138.219 142.45 137.992C142.223 137.766 142.073 137.472 142.023 137.155L141.457 133.53L140.892 137.155C140.841 137.472 140.692 137.766 140.464 137.992C140.236 138.219 139.942 138.367 139.625 138.416L136 138.982L139.625 139.547C139.942 139.596 140.236 139.744 140.464 139.971C140.692 140.198 140.841 140.491 140.892 140.808L141.457 144.433L142.023 140.808C142.073 140.491 142.223 140.198 142.45 139.971C142.678 139.744 142.972 139.596 143.289 139.547Z" fill="#FBD362"/>
<path opacity="0.5" d="M143.289 139.547L146.914 138.982L143.289 138.416C142.972 138.367 142.678 138.219 142.45 137.992C142.223 137.766 142.073 137.472 142.023 137.155L141.457 133.53L140.892 137.155C140.841 137.472 140.692 137.766 140.464 137.992C140.236 138.219 139.942 138.367 139.625 138.416L136 138.982L139.625 139.547C139.942 139.596 140.236 139.744 140.464 139.971C140.692 140.198 140.841 140.491 140.892 140.808L141.457 144.433L142.023 140.808C142.073 140.491 142.223 140.198 142.45 139.971C142.678 139.744 142.972 139.596 143.289 139.547Z" fill="white"/>
<path d="M48.4018 105.148L50.7996 104.769L48.4018 104.39C48.1915 104.358 47.9969 104.259 47.8464 104.109C47.6959 103.958 47.5973 103.764 47.5649 103.553L47.1917 101.161L46.8128 103.553C46.7804 103.764 46.6818 103.958 46.5313 104.109C46.3808 104.259 46.1862 104.358 45.9758 104.39L43.5781 104.769L45.9758 105.148C46.1862 105.18 46.3808 105.279 46.5313 105.429C46.6818 105.58 46.7804 105.774 46.8128 105.985L47.1917 108.377L47.5649 105.985C47.5973 105.774 47.6959 105.58 47.8464 105.429C47.9969 105.279 48.1915 105.18 48.4018 105.148Z" fill="#FBD362"/>
<path opacity="0.5" d="M48.4018 105.148L50.7996 104.769L48.4018 104.39C48.1915 104.358 47.9969 104.259 47.8464 104.109C47.6959 103.958 47.5973 103.764 47.5649 103.553L47.1917 101.161L46.8128 103.553C46.7804 103.764 46.6818 103.958 46.5313 104.109C46.3808 104.259 46.1862 104.358 45.9758 104.39L43.5781 104.769L45.9758 105.148C46.1862 105.18 46.3808 105.279 46.5313 105.429C46.6818 105.58 46.7804 105.774 46.8128 105.985L47.1917 108.377L47.5649 105.985C47.5973 105.774 47.6959 105.58 47.8464 105.429C47.9969 105.279 48.1915 105.18 48.4018 105.148Z" fill="white"/>
<path d="M203.949 110.441L206.346 110.068L203.949 109.689C203.739 109.656 203.545 109.557 203.394 109.406C203.244 109.256 203.145 109.062 203.112 108.852L202.733 106.454L202.36 108.852C202.326 109.062 202.228 109.256 202.077 109.406C201.927 109.557 201.733 109.656 201.523 109.689L199.125 110.068L201.523 110.441C201.733 110.474 201.927 110.573 202.077 110.723C202.228 110.874 202.326 111.068 202.36 111.278L202.733 113.676L203.112 111.278C203.145 111.068 203.244 110.874 203.394 110.723C203.545 110.573 203.739 110.474 203.949 110.441Z" fill="#FBD362"/>
<path opacity="0.5" d="M203.949 110.441L206.346 110.068L203.949 109.689C203.739 109.656 203.545 109.557 203.394 109.406C203.244 109.256 203.145 109.062 203.112 108.852L202.733 106.454L202.36 108.852C202.326 109.062 202.228 109.256 202.077 109.406C201.927 109.557 201.733 109.656 201.523 109.689L199.125 110.068L201.523 110.441C201.733 110.474 201.927 110.573 202.077 110.723C202.228 110.874 202.326 111.068 202.36 111.278L202.733 113.676L203.112 111.278C203.145 111.068 203.244 110.874 203.394 110.723C203.545 110.573 203.739 110.474 203.949 110.441Z" fill="white"/>
<path d="M94.3739 90.5131L96.7207 90.1455L94.3739 89.7779C94.168 89.7457 93.9776 89.6489 93.8302 89.5016C93.6829 89.3542 93.5861 89.1638 93.5539 88.958L93.1807 86.6055L92.8131 88.958C92.78 89.1635 92.683 89.3534 92.5358 89.5006C92.3886 89.6478 92.1987 89.7449 91.9931 89.7779L89.6406 90.1455L91.9931 90.5131C92.1987 90.5461 92.3886 90.6432 92.5358 90.7904C92.683 90.9376 92.78 91.1275 92.8131 91.333L93.158 93.7081L93.5313 91.3557C93.5602 91.1424 93.6583 90.9445 93.8105 90.7923C93.9627 90.6401 94.1606 90.542 94.3739 90.5131Z" fill="white"/>
<path d="M172.126 113.733L174.478 113.359L172.126 112.992C171.92 112.959 171.731 112.862 171.583 112.714C171.436 112.567 171.339 112.377 171.306 112.172L170.938 109.819L170.571 112.172C170.538 112.377 170.441 112.567 170.294 112.714C170.146 112.862 169.956 112.959 169.751 112.992L167.398 113.359L169.751 113.733C169.957 113.765 170.147 113.862 170.295 114.009C170.442 114.156 170.539 114.347 170.571 114.553L170.938 116.899L171.306 114.553C171.338 114.347 171.435 114.156 171.582 114.009C171.73 113.862 171.92 113.765 172.126 113.733Z" fill="white"/>
</g>
<path d="M83.8204 97.2516C83.8204 97.2516 73.8181 102.085 69.8172 107.941C65.8163 113.797 66.9845 124.609 73.1462 128.106C79.3079 131.603 100.817 144.446 115.988 142.613C131.16 140.781 128.823 125.273 121.157 119.104C113.491 112.935 103.153 107.437 103.153 107.437C103.153 107.437 102.657 104.108 101.985 102.94C101.313 101.772 93.6548 94.2509 83.8204 97.2516Z" fill="#263238" stroke="#263238" stroke-width="0.75" stroke-linecap="round" stroke-linejoin="round"/>
<path d="M124.431 122.754C101.724 115.805 86.7662 128.243 82.0781 133.008C91.4696 137.887 105.305 143.881 115.994 142.59C128.684 141.056 129.12 129.946 124.431 122.754Z" fill="white" stroke="#263238" stroke-width="0.75" stroke-linecap="round" stroke-linejoin="round"/>
<path d="M108.992 120.922C108.992 120.922 122.331 131.611 117.658 142.255" stroke="#263238" stroke-width="0.75" stroke-linecap="round" stroke-linejoin="round"/>
<path d="M65.2041 92.5942L59.8594 117.524H64.1581L74.756 97.8779C74.756 97.8779 72.6868 91.5787 65.2041 92.5942Z" fill="white" stroke="#263238" stroke-width="0.75" stroke-linecap="round" stroke-linejoin="round"/>
<path d="M132.387 80.4999C128.012 75.1552 122.232 70.1998 111.642 69.3523C111.642 69.3523 102.617 69.0698 90.3389 74.2924C80.7413 78.3697 70.487 87.2725 65.2109 92.6172C69.9296 93.816 72.7394 95.7477 74.7704 97.9009C76.8625 95.9081 78.6873 94.1748 80.0312 93.083C84.5513 89.4104 91.1864 86.3104 91.1864 86.3104C91.1864 86.3104 83.9863 96.1829 82.5737 98.7255C81.1612 101.268 82.1538 105.361 89.6288 106.491C97.1038 107.621 98.9439 106.208 101.906 104.513C104.869 102.818 108.542 101.268 109.954 101.268C112.777 101.468 115.579 100.656 117.857 98.9775C121.522 96.4349 123.079 89.2424 124.347 88.6774C125.217 88.288 132.921 98.3361 138.923 105.88L139.442 105.613C142.053 104.269 144.092 101.528 145.489 99.1149C140.633 92.0217 135.22 83.9664 132.387 80.4999Z" fill="#FBD362" stroke="#263238" stroke-width="0.75" stroke-linecap="round" stroke-linejoin="round"/>
<path d="M107.091 74.0938C107.091 74.0938 104.098 81.2939 110.092 84.0197" stroke="#263238" stroke-width="0.75" stroke-linecap="round" stroke-linejoin="round"/>
<path d="M91.1797 86.2874L97.685 84.3633" stroke="#263238" stroke-width="0.75" stroke-linecap="round" stroke-linejoin="round"/>
<path d="M91.1016 98.8474C91.1016 98.8474 95.2018 102.467 104.799 98.374" stroke="#263238" stroke-width="0.75" stroke-linecap="round" stroke-linejoin="round"/>
<path d="M128.551 85.9365C126.184 86.2496 124.344 88.6852 124.344 88.6852C127.075 88.1034 129.852 87.7636 132.643 87.6697" stroke="#263238" stroke-width="0.75" stroke-linecap="round" stroke-linejoin="round"/>
<path d="M91.3984 86.883C91.3984 86.883 95.804 86.883 100.057 86.7227" stroke="#263238" stroke-width="0.75" stroke-linecap="round" stroke-linejoin="round"/>
<path d="M93.7578 96.9541C93.7578 96.9541 94.2312 99.7945 100.37 99.4738" stroke="#263238" stroke-width="0.75" stroke-linecap="round" stroke-linejoin="round"/>
<path d="M110.09 71.7494C110.09 71.7494 109.105 76.8269 109.807 79.5069C110.51 82.1869 113.052 85.2945 114.893 82.0495C116.733 78.8045 117.71 75.1777 117.71 73.4444C117.71 71.7112 111.357 68.5044 110.09 71.7494Z" fill="white" stroke="#263238" stroke-width="0.75" stroke-linecap="round" stroke-linejoin="round"/>
<path d="M124.338 65.3973C124.338 65.3973 128.285 64.5497 131.676 60.1747C135.066 55.7996 130.691 55.2423 129.278 51.0123C127.866 46.7823 132.836 48.1872 125.644 40.8496C118.451 33.512 106.731 36.0546 101.211 38.4521C95.6901 40.8496 95.8658 48.8973 91.903 49.4623C87.9403 50.0273 86.2528 46.2173 81.4578 46.2173C76.6628 46.2173 71.5777 51.2948 73.5552 55.5248C75.5328 59.7547 79.3428 57.9299 79.6253 57.2198C79.9079 56.5097 77.6478 57.3649 77.5027 55.2423C77.3577 53.1196 82.5802 54.2573 84.1378 57.0824C85.3977 59.373 83.0842 62.6256 83.1605 65.0308C83.3209 69.8563 89.2306 72.941 93.0254 73.6053C98.1487 74.4986 104.379 74.1856 109.021 71.643C114.725 68.5125 112.076 62.0224 116.275 60.3274C120.475 58.6324 122.628 61.1749 122.628 61.1749L124.338 65.3973Z" fill="#263238" stroke="#263238" stroke-width="0.75" stroke-linecap="round" stroke-linejoin="round"/>
<path d="M81.2092 48.8367C80.4821 48.5208 79.6819 48.4114 78.8966 48.5205C78.1113 48.6296 77.3713 48.953 76.7578 49.4552" stroke="white" stroke-width="0.75" stroke-linecap="round" stroke-linejoin="round"/>
<path d="M118.864 52.7916C118.864 52.7916 118.864 44.3927 112.97 42.6824C107.075 40.9721 100.341 48.5769 96.9355 53.3719C93.5302 58.1669 88.5367 57.0216 84.8641 51.967C84.5187 51.4797 84.1358 51.0202 83.7188 50.5926" stroke="white" stroke-width="0.75" stroke-linecap="round" stroke-linejoin="round"/>
<path d="M85.4609 68.543C88.5151 70.5053 90.8057 71.0703 95.2876 69.6654C99.7696 68.2605 99.2199 60.9611 103.144 57.0365C107.069 53.1119 114.094 54.5092 114.094 54.5092C114.094 54.5092 106.237 50.2945 100.06 54.7841C93.8827 59.2736 94.4401 66.8556 88.8281 68.2605" stroke="white" stroke-width="0.75" stroke-linecap="round" stroke-linejoin="round"/>
<path d="M122.805 53.6624C122.805 53.6624 128.149 52.2574 127.859 47.4854" stroke="white" stroke-width="0.75" stroke-linecap="round" stroke-linejoin="round"/>
<path d="M78.8203 107.766C78.8203 107.766 93.3275 109.598 100.657 114.637" stroke="white" stroke-width="0.75" stroke-linecap="round" stroke-linejoin="round"/>
<path d="M119.739 55.4788C118.835 55.2196 117.876 55.2258 116.976 55.4965C116.076 55.7673 115.272 56.2912 114.661 57.0058C112.264 59.5408 112.371 60.8235 110.37 62.404C109.774 62.9256 109.022 63.236 108.231 63.2871C107.44 63.3381 106.654 63.1271 105.995 62.6865C105.148 62.2666 104.163 62.5491 103.88 64.519C103.598 66.4889 106.278 68.0466 106.705 68.0466C107.13 68.0696 107.554 68.1181 107.973 68.1916C107.973 68.1916 107.973 71.7192 110.37 73.8342C112.768 75.9491 117.57 79.3392 120.815 78.6368C124.06 77.9343 125.328 70.4517 125.328 66.6416C125.209 62.7785 124.448 58.962 123.075 55.349C122.083 53.1194 119.739 55.4788 119.739 55.4788Z" fill="white" stroke="#263238" stroke-width="0.75" stroke-linecap="round" stroke-linejoin="round"/>
<path d="M117.057 64.0532C117.057 64.8167 116.782 65.4733 116.431 65.4733C116.079 65.4733 115.797 64.8396 115.797 64.0532C115.797 63.2667 116.079 62.6406 116.431 62.6406C116.782 62.6406 117.057 63.2744 117.057 64.0532Z" fill="#263238"/>
<path d="M122.088 63.5805C122.088 64.344 121.805 65.0007 121.462 65.0007C121.118 65.0007 120.828 64.3669 120.828 63.5805C120.828 62.7941 121.111 62.168 121.462 62.168C121.813 62.168 122.088 62.8017 122.088 63.5805Z" fill="#263238"/>
<path d="M114.07 61.1899C114.07 61.1899 115.009 59.7774 117.376 60.4264" stroke="#263238" stroke-width="0.75" stroke-linecap="round" stroke-linejoin="round"/>
<path d="M120.047 60.4266C120.047 60.4266 121.62 58.6933 123.04 60.4266" stroke="#263238" stroke-width="0.75" stroke-linecap="round" stroke-linejoin="round"/>
<path d="M119.891 63.5801C119.891 63.5801 120.043 66.7335 120.99 66.7335C121.937 66.7335 121.616 68.146 120.356 68.6194" stroke="#263238" stroke-width="0.75" stroke-linecap="round" stroke-linejoin="round"/>
<path d="M119.096 71.7729C119.096 71.7729 116.264 73.0327 115.164 70.1924" stroke="#263238" stroke-width="0.75" stroke-linecap="round" stroke-linejoin="round"/>
<path d="M119.761 141.469C119.761 141.469 103.727 127.405 87.1121 122.617C70.4975 117.83 51.3786 120.082 34.7717 115.585C18.1648 111.088 8.60534 104.896 8.60534 104.896L7.75781 119.807L119.234 149.921L195.496 128.817L203.093 113.34C203.093 113.34 193.809 118.12 177.202 122.06C160.595 126 141.987 125.992 131.565 129.909C121.143 133.826 119.761 141.469 119.761 141.469Z" fill="white" stroke="#263238" stroke-width="0.75" stroke-linecap="round" stroke-linejoin="round"/>
<path d="M6.07023 108.262C6.07023 108.262 24.67 119.524 66.5728 123.464C94.1746 126.052 119.761 141.468 119.761 141.468C130.972 134.3 143.879 130.222 157.174 129.648C179.126 128.808 204.17 120.081 204.17 120.081L199.397 129.908L117.508 145.942L4.38281 116.393L6.07023 108.262Z" fill="white" stroke="#263238" stroke-width="0.75" stroke-linecap="round" stroke-linejoin="round"/>
<path d="M2.97907 111.645C18.8095 118.795 35.7532 123.165 53.067 124.564C83.1732 126.816 118.914 141.445 118.914 141.445C118.914 141.445 137.766 131.321 158.618 131.321C174.106 131.189 189.515 129.108 204.484 125.129C204.018 126.684 203.903 128.323 204.146 129.928C204.389 131.533 204.984 133.065 205.889 134.413L118.632 153.005L2.41406 119.219L2.97907 111.645Z" fill="white" stroke="#263238" stroke-width="0.75" stroke-linecap="round" stroke-linejoin="round"/>
<path d="M3.54257 118.325L114.973 146.255V150.195L124.54 150.478V145.942L208.399 132.718C208.399 132.718 212.056 131.87 208.964 136.093C205.872 140.315 151.836 187.311 151.836 187.311L91.8989 193.503L1 173.552L1.54212 119.868C1.54381 119.624 1.6009 119.384 1.70908 119.166C1.81726 118.948 1.97367 118.758 2.16646 118.609C2.35925 118.46 2.58337 118.358 2.8218 118.308C3.06023 118.259 3.30672 118.265 3.54257 118.325Z" fill="#FBD362"/>
<mask id="mask0_1583_2745" style="mask-type:luminance" maskUnits="userSpaceOnUse" x="1" y="118" width="210" height="76">
<path d="M3.54257 118.326L114.973 146.256V150.196L124.54 150.479V145.943L208.399 132.719C208.399 132.719 212.056 131.871 208.964 136.094C205.872 140.316 151.836 187.312 151.836 187.312L91.8989 193.504L1 173.553L1.54212 119.869C1.54381 119.625 1.6009 119.385 1.70908 119.167C1.81726 118.949 1.97367 118.759 2.16646 118.61C2.35925 118.461 2.58337 118.359 2.8218 118.309C3.06023 118.26 3.30672 118.266 3.54257 118.326Z" fill="white"/>
</mask>
<g mask="url(#mask0_1583_2745)">
<path opacity="0.3" d="M114.973 150.197V146.257L1.5652 117.838L1.00781 173.553L91.8991 193.535L93.5254 193.367L117.516 150.273L114.973 150.197Z" fill="black"/>
</g>
<path d="M3.54257 118.325L114.973 146.255V150.195L124.54 150.478V145.942L208.399 132.718C208.399 132.718 212.056 131.87 208.964 136.093C205.872 140.315 151.836 187.311 151.836 187.311L91.8989 193.503L1 173.552L1.54212 119.868C1.54381 119.624 1.6009 119.384 1.70908 119.166C1.81726 118.948 1.97367 118.758 2.16646 118.609C2.35925 118.46 2.58337 118.358 2.8218 118.308C3.06023 118.259 3.30672 118.265 3.54257 118.325Z" stroke="#263238" stroke-width="0.75" stroke-linecap="round" stroke-linejoin="round"/>
<path d="M114.974 150.195L89.9297 193.534L94.717 193.808L124.541 150.478L114.974 150.195Z" fill="#FBD362" stroke="#263238" stroke-width="0.75" stroke-linecap="round" stroke-linejoin="round"/>
<path d="M198.562 134.49C198.562 134.49 206.038 135.887 204.48 140.873L208.969 136.108C208.969 136.108 211.023 133.55 210.084 133.054C209.145 132.558 198.562 134.49 198.562 134.49Z" fill="#263238"/>
<path d="M13.8785 121.159C13.8785 121.159 3.30353 124.083 1.66193 131.986L1.57031 119.869C1.57031 119.869 1.891 118.044 3.56314 118.341C5.23528 118.639 13.8785 121.159 13.8785 121.159Z" fill="#263238"/>
<path d="M1.10708 169.842L6.42129 174.904L1.00781 173.553L1.10708 169.842Z" fill="#263238"/>
<path d="M148.016 187.67L155.223 184.127L151.429 187.418L148.016 187.67Z" fill="#263238"/>
<path d="M145.488 99.123L165.768 123.434L160.66 124.243L138.922 105.919C138.922 105.919 144.549 102.231 145.488 99.123Z" fill="white" stroke="#263238" stroke-width="0.75" stroke-linecap="round" stroke-linejoin="round"/>
<path d="M55.5539 115.295C55.5539 115.295 54.5384 114.066 54.2788 115.165C54.0192 116.265 51.721 120.082 53.5153 120.35C55.3096 120.617 56.3251 116.257 56.3251 116.257L55.5539 115.295Z" fill="white" stroke="#263238" stroke-width="0.75" stroke-linecap="round" stroke-linejoin="round"/>
<path d="M57.9901 115.149C57.9901 115.149 56.967 113.92 56.715 115.012C56.4631 116.103 54.1572 119.929 55.9515 120.204C57.7458 120.479 58.7689 116.103 58.7689 116.103L57.9901 115.149Z" fill="white" stroke="#263238" stroke-width="0.75" stroke-linecap="round" stroke-linejoin="round"/>
<path d="M60.4211 115.058C60.4211 115.058 59.2071 113.691 58.8941 114.905C58.581 116.119 55.8399 120.364 57.9854 120.67C60.131 120.975 61.3221 116.088 61.3221 116.088L60.4211 115.058Z" fill="white" stroke="#263238" stroke-width="0.75" stroke-linecap="round" stroke-linejoin="round"/>
<path d="M62.545 115.516L66.6375 119.455H61.7891L62.545 115.516Z" fill="white" stroke="#263238" stroke-width="0.75" stroke-linecap="round" stroke-linejoin="round"/>
<path d="M62.5383 115.516C62.5383 115.516 61.3243 114.149 61.0112 115.363C60.6982 116.577 57.9571 120.822 60.1026 121.12C62.2482 121.418 63.4393 116.539 63.4393 116.539L62.5383 115.516Z" fill="white" stroke="#263238" stroke-width="0.75" stroke-linecap="round" stroke-linejoin="round"/>
<path d="M171.275 119.051C171.275 119.051 172.092 117.677 172.52 118.715C172.947 119.754 175.81 123.174 174.093 123.724C172.375 124.274 170.672 120.12 170.672 120.12L171.275 119.051Z" fill="white" stroke="#263238" stroke-width="0.75" stroke-linecap="round" stroke-linejoin="round"/>
<path d="M168.877 119.28C168.877 119.28 169.694 117.905 170.121 118.944C170.549 119.982 173.42 123.403 171.694 123.953C169.968 124.502 168.273 120.349 168.273 120.349L168.877 119.28Z" fill="white" stroke="#263238" stroke-width="0.75" stroke-linecap="round" stroke-linejoin="round"/>
<path d="M166.46 119.577C166.46 119.577 167.445 118.05 167.933 119.188C168.422 120.326 171.751 124.105 169.735 124.739C167.719 125.372 165.727 120.768 165.727 120.768L166.46 119.577Z" fill="white" stroke="#263238" stroke-width="0.75" stroke-linecap="round" stroke-linejoin="round"/>
<path d="M164.436 120.364L161.008 124.9L165.803 124.136L164.436 120.364Z" fill="white" stroke="#263238" stroke-width="0.75" stroke-linecap="round" stroke-linejoin="round"/>
<path d="M164.436 120.364C164.436 120.364 165.413 118.837 165.91 119.975C166.406 121.113 169.727 124.884 167.712 125.518C165.696 126.152 163.703 121.555 163.703 121.555L164.436 120.364Z" fill="white" stroke="#263238" stroke-width="0.75" stroke-linecap="round" stroke-linejoin="round"/>
<defs>
<clipPath id="clip0_1583_2745">
<rect width="206.25" height="206.25" fill="white" transform="translate(23)"/>
</clipPath>
</defs>
</svg>
