<svg width="240" height="210" viewBox="0 0 240 210" fill="none" xmlns="http://www.w3.org/2000/svg">
<rect x="20.5" width="206.25" height="207.004" rx="103.125" fill="#EAD2EE"/>
<path d="M81.0466 202.644C83.8356 199.191 88.8152 193.102 90.5293 191.504C92.1779 189.919 93.7302 188.236 95.1777 186.464C95.1777 186.464 92.2318 192.198 97.252 196.718C102.272 201.238 117.17 197.762 120.459 195.33C123.748 192.898 124.096 186.639 121.156 177.424C118.216 168.208 114.05 151.177 114.224 145.263C114.399 139.349 110.587 122.661 108.856 118.141C107.124 113.621 100.024 110.32 92.7489 108.756C85.4742 107.193 65.9045 115.359 65.9045 115.359L61.9243 116.922C61.9243 116.922 45.6549 125.963 41.3145 129.614C36.9741 133.265 39.06 143.35 38.0258 153.084C36.9915 162.819 36.9857 174.123 36.9857 174.123C36.9857 174.123 26.9394 182.988 19.6646 193.067C16.1783 197.92 14.1505 200.877 13 202.644H81.0466Z" fill="#FBD362" stroke="#263238" stroke-width="0.432" stroke-miterlimit="10"/>
<path d="M116.671 183.785C116.671 183.785 110.944 182.425 104.943 186.492C98.942 190.558 100.58 196.648 105.945 198.002C111.311 199.355 118.349 199.355 122.036 193.6C125.724 187.845 119.356 183.443 116.671 183.785Z" fill="white" stroke="#263238" stroke-width="0.432" stroke-miterlimit="10"/>
<path d="M118.082 183.722C114.859 183.213 111.563 183.963 108.883 185.815C104.157 188.948 105.468 193.654 109.67 194.701C113.873 195.747 119.392 195.747 122.284 191.304C125.176 186.861 120.18 183.465 118.082 183.722Z" fill="white" stroke="#263238" stroke-width="0.432" stroke-miterlimit="10"/>
<path d="M124.277 198.841C124.277 198.841 125.828 186.745 124.568 185.842C123.309 184.94 105.997 192.595 105.997 192.595L106.598 196.986C106.598 196.986 102.33 196.81 99.4461 197.859C96.5621 198.907 99.1314 198.934 100.482 199.596C101.833 200.259 108.861 201.926 109.475 202.09C110.089 202.253 120.349 201.424 124.277 198.841Z" fill="white" stroke="#263238" stroke-width="0.432" stroke-miterlimit="10"/>
<path d="M112.932 204.105C112.932 204.105 110.748 205.805 109.443 204.378C108.138 202.95 105.743 195.707 105.293 193.791C104.843 191.875 106.029 191.524 107.199 193.094C108.369 194.665 113.163 203.72 113.163 203.72L112.932 204.105Z" fill="white" stroke="#263238" stroke-width="0.432" stroke-miterlimit="10"/>
<path d="M118.061 201.339C118.061 201.339 115.341 205.442 113.707 204.431C112.074 203.419 106.785 192.673 106.148 191.998C105.511 191.323 107.033 190.072 108.011 190.623C108.989 191.174 112.475 194.526 113.634 195.811C114.793 197.095 118.061 201.339 118.061 201.339Z" fill="white" stroke="#263238" stroke-width="0.432" stroke-miterlimit="10"/>
<path d="M124.588 195.493C124.588 195.493 124.048 200.338 122.72 202.129C121.392 203.92 118.642 202.499 117.082 201.242C115.523 199.985 113.169 196.093 111.954 194.212C110.739 192.331 108.69 190.447 109.243 189.943C109.796 189.439 113.326 190.786 114.566 191.748C115.806 192.709 119.513 196.826 119.513 196.826" fill="white"/>
<path d="M124.588 195.493C124.588 195.493 124.048 200.338 122.72 202.129C121.392 203.92 118.642 202.499 117.082 201.242C115.523 199.985 113.169 196.093 111.954 194.212C110.739 192.331 108.69 190.447 109.243 189.943C109.796 189.439 113.326 190.786 114.566 191.748C115.806 192.709 119.513 196.826 119.513 196.826" stroke="#263238" stroke-width="0.432" stroke-miterlimit="10"/>
<path d="M118.357 188.998C118.357 188.998 122.631 191.014 124.035 191.627C125.439 192.24 127.055 192.159 127.623 190.627C128.192 189.095 128.158 187.482 126.037 186.523C123.916 185.564 119.5 184.894 117.106 185.761C114.712 186.628 115.634 187.722 116.505 188.216C117.094 188.549 117.716 188.812 118.357 188.998Z" fill="white" stroke="#263238" stroke-width="0.432" stroke-miterlimit="10"/>
<path d="M104.586 144.977C104.85 141.743 105.018 139.537 105.018 139.341" stroke="#263238" stroke-width="0.432" stroke-miterlimit="10"/>
<path d="M95.0781 186.601C95.0781 186.601 101.452 180.483 102.509 173.486C103.168 169.175 104.024 157.426 104.582 148.88" stroke="#263238" stroke-width="0.432" stroke-miterlimit="10"/>
<path d="M112.361 156.685C110.773 161.739 107.831 169.326 103.289 174.461" stroke="#263238" stroke-width="0.432" stroke-miterlimit="10"/>
<path d="M113.653 151.481C113.653 151.481 113.376 152.649 112.789 154.516" stroke="#263238" stroke-width="0.432" stroke-miterlimit="10"/>
<path d="M113.222 170.992C110.133 174.611 106.485 177.687 102.422 180.097" stroke="#263238" stroke-width="0.432" stroke-miterlimit="10"/>
<path d="M115.814 167.09C115.282 168.144 114.705 169.157 114.086 170.125" stroke="#263238" stroke-width="0.432" stroke-miterlimit="10"/>
<path d="M122.297 182.188C116.439 180.448 110.169 180.567 104.384 182.529C94.5522 185.803 95.6066 193.199 96.4843 194.406" stroke="#263238" stroke-width="0.432" stroke-miterlimit="10"/>
<path d="M95.6952 61.0719C95.6952 61.0719 95.6952 59.0279 92.8996 54.6664C90.1039 50.3049 75.8709 52.11 71.0437 56.9665C66.2164 61.8231 73.0753 67.9606 70.025 71.5244C66.9746 75.0882 56.8107 73.3121 53.5057 79.7059C50.2007 86.0997 58.5876 89.1627 60.3704 91.4629C62.1531 93.763 57.32 94.5317 57.8294 96.8318C58.3388 99.1319 66.2106 99.3882 66.2106 99.3882C66.2106 99.3882 61.1286 100.925 63.6696 102.969C67.1713 105.633 71.4845 106.99 75.8709 106.807C80.9529 106.551 79.6795 96.5756 79.176 89.1627C78.6724 81.7499 85.2708 73.5683 92.8996 74.3312C100.528 75.094 108.655 83.7938 107.37 87.6312C106.085 91.4687 109.401 86.8626 116.266 82.5127C123.131 78.1628 120.081 69.2184 118.581 67.4307C117.082 65.643 111.977 65.1306 110.958 61.8056C109.94 58.4806 107.653 55.1614 103.336 55.1614C99.0176 55.1614 100.013 60.8157 95.6952 61.0719Z" fill="#263238" stroke="#263238" stroke-width="0.432" stroke-miterlimit="10"/>
<path d="M74.0077 106.939C74.0077 106.939 70.7854 107.811 69.4532 109.563C68.1211 111.314 62.6216 114.464 62.2857 116.889C61.9498 119.314 63.9936 131.905 68.0527 136.965C72.1119 142.025 74.1614 142.377 74.1614 142.377C74.1614 142.377 75.3512 137.492 76.1995 137.141C77.0478 136.79 84.8529 141.826 84.8529 141.826C84.8529 141.826 86.2079 133.627 87.0618 133.627C87.9158 133.627 90.62 136.421 90.62 136.421C90.62 136.421 91.639 129.434 90.9616 124.022C90.2841 118.611 85.872 111.981 82.6497 109.709C79.4274 107.437 76.8542 105.369 74.0077 106.939Z" fill="white" stroke="#263238" stroke-width="0.432" stroke-miterlimit="10"/>
<path d="M75.9074 100.319L69.5938 115.708C69.5938 115.708 71.2181 122.876 73.3533 127.486C76.2633 133.755 83.4551 136.74 83.4551 136.74C83.4089 133.104 84.1847 129.506 85.7223 126.224C87.1587 123.259 88.8449 120.427 90.7618 117.758C90.7618 117.758 79.4373 106.477 75.9074 100.319Z" fill="white" stroke="#263238" stroke-width="0.432" stroke-miterlimit="10"/>
<path d="M77.3672 106.544C77.3672 106.544 80.3338 123.275 84.5752 128.502L88.5992 120.968L78.0251 104.655L77.3672 106.544Z" fill="#263238" stroke="#263238" stroke-width="0.432" stroke-miterlimit="10"/>
<path d="M74.7734 156.095C74.7734 156.095 85.043 129.539 86.45 127.989C87.8571 126.438 90.9747 123.679 92.3701 121.782C93.7654 119.885 97.5895 115.061 98.9848 115.061C100.38 115.061 103.655 116.264 105.249 116.611C106.843 116.958 107.859 117.473 108.028 120.081C108.198 122.69 105.944 122.841 105.944 122.841L105.074 121.805C105.074 121.805 98.8097 131.118 96.9006 132.321C95.7601 133.048 94.5323 133.631 93.2458 134.057L84.8912 164.922L74.7734 156.095Z" fill="white" stroke="#263238" stroke-width="0.432" stroke-miterlimit="10"/>
<path d="M110.998 78.7031C110.998 78.7031 113.415 80.7366 111.804 87.6321C110.192 94.5275 109.792 97.981 109.792 102.042C109.792 106.104 108.587 111.784 105.156 115.436C101.724 119.088 97.5108 124.365 92.48 124.16C84.5106 123.839 80.6041 112.795 77.9902 107.722C75.3762 102.65 74.7734 95.7488 74.7734 92.9088C74.7734 90.0688 75.1734 83.3721 78.7958 78.2998C82.4183 73.2276 92.2829 71.1999 96.5081 71.8076C100.733 72.4153 105.967 73.0231 110.998 78.7031Z" fill="white" stroke="#263238" stroke-width="0.432" stroke-miterlimit="10"/>
<path d="M76.4732 96.7386C76.4732 96.7386 77.2807 93.9253 80.9113 92.316C84.5419 90.7067 86.7609 87.8933 85.5585 85.2768C84.356 82.6602 84.9776 80.0668 90.2056 78.6428C95.4337 77.2187 96.8627 82.4634 101.905 81.6587C106.947 80.8541 108.359 78.8454 110.979 80.0494C113.598 81.2535 112.39 84.6805 112.39 84.6805C112.39 84.6805 115.62 78.8511 109.369 72.2171C103.119 65.5832 87.9866 63.1692 77.4956 70.8105C67.0046 78.4517 73.0576 96.3392 73.0576 96.3392C73.0576 96.3392 73.6501 97.1381 76.4732 96.7386Z" fill="#263238" stroke="#263238" stroke-width="0.432" stroke-miterlimit="10"/>
<path d="M101.557 100.319L100.964 112.026L96.8047 110.41" stroke="#263238" stroke-width="0.432" stroke-miterlimit="10"/>
<path d="M98.5324 116.314C98.5324 116.314 94.3642 116.869 92.4844 114.193" stroke="#263238" stroke-width="0.432" stroke-miterlimit="10"/>
<path d="M93.7368 100.072C93.5617 101.272 92.9541 102.147 92.3848 102.045C91.8155 101.943 91.498 100.894 91.6732 99.6997C91.8483 98.5057 92.4559 97.6238 93.0252 97.7258C93.5945 97.8278 93.912 98.8777 93.7368 100.072Z" fill="#263238"/>
<path d="M106.698 100.703C106.523 101.783 105.916 102.572 105.347 102.48C104.778 102.388 104.456 101.443 104.636 100.374C104.817 99.3049 105.418 98.5003 105.987 98.5921C106.556 98.6839 106.873 99.6288 106.698 100.703Z" fill="#263238"/>
<path d="M88.6016 95.1161C88.6016 95.1161 93.1467 90.9358 96.8096 94.185" stroke="#263238" stroke-width="0.864" stroke-miterlimit="10" stroke-linecap="round"/>
<path d="M103.719 94.249C103.719 94.249 106.742 91.4295 109.335 94.0927" stroke="#263238" stroke-width="0.864" stroke-miterlimit="10" stroke-linecap="round"/>
<path d="M99.3961 97.5866C99.3961 97.5866 93.1463 96.6113 83.4769 98.1636C83.4769 98.1636 82.6278 104.558 87.1737 107.339C91.7195 110.121 96.1238 107.478 97.2559 105.948C99.5435 102.901 99.3961 97.5866 99.3961 97.5866Z" stroke="#263238" stroke-width="0.864" stroke-miterlimit="10"/>
<path d="M113.223 96.7106C113.223 96.7106 108.829 95.7743 102.034 97.2456C102.034 97.2456 101.454 103.41 104.631 106.085C107.808 108.76 110.928 106.219 111.728 104.747C113.305 101.834 113.223 96.7106 113.223 96.7106Z" stroke="#263238" stroke-width="0.864" stroke-miterlimit="10"/>
<path d="M99.3984 97.7177C99.3984 97.7177 100.088 96.0088 102.422 97.3891" stroke="#263238" stroke-width="0.864" stroke-miterlimit="10"/>
<path d="M77.1257 98.0179C77.1257 98.0179 75.7726 89.5035 72.1144 93.656C68.4561 97.8085 71.7302 101.967 73.4674 103.828C75.2047 105.689 77.3651 103.828 77.3651 103.828" fill="white"/>
<path d="M77.1257 98.0179C77.1257 98.0179 75.7726 89.5035 72.1144 93.656C68.4561 97.8085 71.7302 101.967 73.4674 103.828C75.2047 105.689 77.3651 103.828 77.3651 103.828" stroke="#263238" stroke-width="0.432" stroke-miterlimit="10"/>
<path d="M62.1187 138.908C64.599 143.528 66.277 148.539 67.0805 153.725C68.2919 162.053 68.118 163.618 68.118 163.618L74.1638 156.338C74.1638 156.338 84.0178 163.275 85.5655 165.527C87.1132 167.779 87.3044 168.477 87.3044 168.477C87.3044 168.477 87.3044 182.008 81.6007 190.161C75.8969 198.314 73.132 198.308 67.6079 198.308C62.0839 198.308 54.9948 193.1 51.1923 184.429C47.3898 175.758 44.277 163.112 43.5873 161.872C42.8975 160.633 40.6484 153.725 40.6484 153.725" fill="#FBD362"/>
<path d="M62.1187 138.908C64.599 143.528 66.277 148.539 67.0805 153.725C68.2919 162.053 68.118 163.618 68.118 163.618L74.1638 156.338C74.1638 156.338 84.0178 163.275 85.5655 165.527C87.1132 167.779 87.3044 168.477 87.3044 168.477C87.3044 168.477 87.3044 182.008 81.6007 190.161C75.8969 198.314 73.132 198.308 67.6079 198.308C62.0839 198.308 54.9948 193.1 51.1923 184.429C47.3898 175.758 44.277 163.112 43.5873 161.872C42.8975 160.633 40.6484 153.725 40.6484 153.725" stroke="#263238" stroke-width="0.432" stroke-miterlimit="10"/>
<path d="M59.6554 173.594C59.1379 174.31 58.7059 174.908 58.3594 175.328" stroke="#263238" stroke-width="0.432" stroke-miterlimit="10"/>
<path d="M68.3003 163.622C68.3003 163.622 64.8856 167.576 61.8203 170.993" stroke="#263238" stroke-width="0.432" stroke-miterlimit="10"/>
<path d="M69.0255 162.536C72.7591 163.643 76.3369 165.244 79.6689 167.298C85.5032 170.848 86.0042 174.705 87.732 173.297C89.4599 171.889 90.8191 167.476 89.1028 165.015C87.3865 162.554 82.0648 156.733 78.2924 154.958C74.5199 153.183 72.9707 154.248 71.7669 156.898C70.5632 159.548 67.8217 160.95 69.0255 162.536Z" fill="white" stroke="#263238" stroke-width="0.432" stroke-miterlimit="10"/>
<path d="M68.7266 177.062C68.7793 178.676 69.0696 180.278 69.5906 181.832" stroke="#263238" stroke-width="0.432" stroke-miterlimit="10"/>
<path d="M69.1586 162.754C69.1586 162.754 68.6305 168.592 68.742 174.027" stroke="#263238" stroke-width="0.432" stroke-miterlimit="10"/>
<path d="M74.7734 165.355C74.7734 165.355 75.9827 172.304 77.3654 175.328" stroke="#263238" stroke-width="0.432" stroke-miterlimit="10"/>
<path d="M125.41 194.274L133.28 182.207C133.503 181.865 133.169 181.432 132.781 181.562L122.148 185.106L111.492 189.81L114.66 191.25L119.268 195.858L125.149 194.458C125.256 194.432 125.35 194.366 125.41 194.274Z" fill="black"/>
<path d="M121.86 185.202L122.148 185.106M122.148 185.106L132.781 181.562C133.169 181.432 133.503 181.865 133.28 182.207L125.41 194.274C125.35 194.366 125.256 194.432 125.149 194.458L119.268 195.858L114.66 191.25L111.492 189.81L122.148 185.106Z" stroke="black" stroke-width="0.432"/>
<path fill-rule="evenodd" clip-rule="evenodd" d="M75.0296 100.712C75.8284 100.439 76.4028 99.6824 76.4028 98.7912C76.4028 97.6704 75.4941 96.7617 74.3733 96.7617C73.2524 96.7617 72.3438 97.6704 72.3438 98.7912C72.3438 99.5307 72.7392 100.178 73.3302 100.533L74.3041 105.402C74.3445 105.604 74.5218 105.75 74.7277 105.75H75.0559C75.3115 105.75 75.5112 105.529 75.4858 105.275L75.0296 100.712Z" fill="#263238"/>
<path d="M75.1121 105.138C75.6055 111.657 74.816 125.804 67.711 130.241C58.8297 135.787 67.1189 155.344 78.6646 145.712" stroke="black" stroke-width="0.432"/>
<path d="M89.8984 145.314C98.2647 147.04 111.749 155.264 98.7569 174.359C85.7645 193.453 95.9025 196.885 102.596 196.214" stroke="black" stroke-width="0.432"/>
<path d="M96.3756 147.906C94.4774 145.89 91.5202 140.13 94.877 133.218" stroke="black" stroke-width="0.432"/>
<path d="M105.056 192.834L101.608 198.519C101.417 198.833 101.681 199.227 102.044 199.169L106.741 198.43L105.056 192.834Z" fill="black" stroke="black" stroke-width="0.432"/>
<path opacity="0.7" d="M215.5 91.8186C213.884 91.1768 212.235 90.7142 210.568 90.4347C208.206 90.158 206.376 91.5616 205.356 91.5616C204.336 91.5616 203.302 87.9044 199.669 85.631C196.036 83.3577 193.2 90.7115 190.042 90.7115C188.533 90.7115 187.569 89.051 186.591 87.2521C186.156 86.2159 185.603 85.2877 184.956 84.5042C184.332 83.5815 183.504 82.9886 182.609 82.824C182.372 82.7944 182.133 82.7944 181.896 82.824C181.331 82.7843 180.766 82.9174 180.241 83.2142C179.715 83.5109 179.241 83.9645 178.85 84.5438C178.203 85.3272 177.65 86.2554 177.215 87.2916C176.237 89.0905 175.273 90.751 173.764 90.751C172.398 90.4782 171.119 89.639 170.089 88.3393C169.196 87.2455 168.193 86.3461 167.113 85.6706C166.643 85.3757 166.132 85.2338 165.618 85.2554C165.109 85.2341 164.602 85.376 164.137 85.6706C163.057 86.3461 162.054 87.2455 161.161 88.3393C160.127 89.6426 158.843 90.482 157.472 90.751C155.977 90.751 155.013 89.0905 154.035 87.2916C153.6 86.2554 153.047 85.3272 152.4 84.5438C151.774 83.6249 150.947 83.0327 150.053 82.8635C149.816 82.8339 149.577 82.8339 149.34 82.8635C149.103 82.8349 148.865 82.8349 148.627 82.8635C147.733 83.0327 146.906 83.6249 146.28 84.5438C145.637 85.3278 145.089 86.2561 144.659 87.2916C143.681 89.0905 142.717 90.751 141.208 90.751C138.05 90.751 135.214 83.417 131.581 85.6706C127.948 87.9242 126.83 91.6011 125.894 91.6011C124.958 91.6011 123.1 90.1976 120.682 90.4743C119.015 90.7537 117.366 91.2164 115.75 91.8581C117.365 92.5091 119.014 92.972 120.682 93.2419C123.044 93.5384 124.944 92.1151 125.894 92.1151C126.844 92.1151 127.948 95.792 131.581 98.0456C135.214 100.299 138.05 92.9651 141.208 92.9651C142.717 92.9651 143.681 94.6256 144.659 96.4246C145.086 97.4575 145.634 98.3801 146.28 99.1526C146.909 100.07 147.734 100.668 148.627 100.853C148.865 100.872 149.103 100.872 149.34 100.853C149.577 100.872 149.815 100.872 150.053 100.853C150.946 100.668 151.771 100.07 152.4 99.1526C153.05 98.3809 153.603 97.4584 154.035 96.4246C155.013 94.6256 155.977 92.9651 157.472 92.9651C158.846 93.2199 160.133 94.0612 161.161 95.3768C162.054 96.4706 163.057 97.3701 164.137 98.0456C164.603 98.3347 165.11 98.4699 165.618 98.441C166.131 98.4702 166.642 98.335 167.113 98.0456C168.197 97.3713 169.201 96.4645 170.089 95.3571C171.117 94.0575 172.397 93.2242 173.764 92.9651C175.273 92.9651 176.237 94.6256 177.215 96.4246C177.647 97.4584 178.2 98.3809 178.85 99.1526C179.477 100.074 180.303 100.672 181.197 100.853C181.43 100.872 181.663 100.872 181.896 100.853C182.133 100.872 182.371 100.872 182.609 100.853C183.503 100.672 184.329 100.074 184.956 99.1526C185.606 98.3809 186.159 97.4584 186.591 96.4246C187.569 94.6256 188.533 92.9651 190.042 92.9651C193.2 92.9651 196.036 100.299 199.669 98.0456C203.302 95.792 204.406 92.1151 205.356 92.1151C206.306 92.1151 208.15 93.5384 210.568 93.2419C212.236 92.972 213.885 92.5091 215.5 91.8581V91.8186Z" fill="#D0D0D0"/>
<path opacity="0.7" d="M215.351 92.1994C213.737 91.7449 212.09 91.4171 210.426 91.2192C208.068 91.0232 206.24 92.0174 205.222 92.0174C204.203 92.0174 203.171 89.4269 199.544 87.8166C195.916 86.2063 193.084 91.4153 189.931 91.4153C188.424 91.4153 187.461 90.239 186.485 88.9648C186.05 88.2309 185.499 87.5733 184.852 87.0184C184.229 86.3648 183.402 85.9449 182.509 85.8282C182.272 85.8073 182.034 85.8073 181.797 85.8282C181.233 85.8002 180.669 85.8944 180.144 86.1046C179.619 86.3148 179.146 86.6361 178.756 87.0464C178.109 87.6014 177.558 88.2589 177.123 88.9928C176.147 90.267 175.184 91.4432 173.677 91.4432C172.313 91.25 171.036 90.6556 170.008 89.7349C169.116 88.9602 168.115 88.3231 167.036 87.8446C166.567 87.6357 166.057 87.5352 165.543 87.5505C165.035 87.5354 164.529 87.6359 164.065 87.8446C162.986 88.3231 161.984 88.9602 161.093 89.7349C160.061 90.6581 158.779 91.2527 157.41 91.4432C155.917 91.4432 154.954 90.267 153.977 88.9928C153.543 88.2589 152.992 87.6014 152.345 87.0464C151.72 86.3956 150.894 85.9761 150.001 85.8562C149.765 85.8352 149.526 85.8352 149.29 85.8562C149.053 85.8359 148.815 85.8359 148.578 85.8562C147.685 85.9761 146.859 86.3956 146.234 87.0464C145.592 87.6018 145.045 88.2593 144.616 88.9928C143.639 90.267 142.677 91.4432 141.17 91.4432C138.017 91.4432 135.185 86.2483 131.557 87.8446C127.93 89.4409 126.814 92.0454 125.879 92.0454C124.944 92.0454 123.089 91.0512 120.675 91.2472C119.01 91.4452 117.364 91.7728 115.75 92.2274C117.362 92.6886 119.009 93.0164 120.675 93.2076C123.033 93.4176 124.93 92.4094 125.879 92.4094C126.828 92.4094 127.93 95.0139 131.557 96.6102C135.185 98.2065 138.017 93.0115 141.17 93.0115C142.677 93.0115 143.639 94.1878 144.616 95.462C145.042 96.1937 145.589 96.8471 146.234 97.3944C146.862 98.0442 147.686 98.4676 148.578 98.5986C148.815 98.612 149.053 98.612 149.29 98.5986C149.527 98.6126 149.764 98.6126 150.001 98.5986C150.894 98.4676 151.718 98.0442 152.345 97.3944C152.994 96.8477 153.546 96.1943 153.977 95.462C154.954 94.1878 155.917 93.0115 157.41 93.0115C158.782 93.192 160.067 93.7879 161.093 94.7199C161.984 95.4946 162.986 96.1317 164.065 96.6102C164.53 96.815 165.036 96.9108 165.543 96.8903C166.056 96.9109 166.566 96.8152 167.036 96.6102C168.118 96.1326 169.121 95.4903 170.008 94.7059C171.035 93.7853 172.313 93.195 173.677 93.0115C175.184 93.0115 176.147 94.1878 177.123 95.462C177.554 96.1943 178.106 96.8477 178.756 97.3944C179.381 98.0468 180.206 98.4707 181.099 98.5986C181.332 98.6123 181.565 98.6123 181.797 98.5986C182.034 98.6126 182.272 98.6126 182.509 98.5986C183.402 98.4707 184.227 98.0468 184.852 97.3944C185.502 96.8477 186.054 96.1943 186.485 95.462C187.461 94.1878 188.424 93.0115 189.931 93.0115C193.084 93.0115 195.916 98.2065 199.544 96.6102C203.171 95.0139 204.273 92.4094 205.222 92.4094C206.171 92.4094 208.012 93.4176 210.426 93.2076C212.091 93.0164 213.739 92.6886 215.351 92.2274V92.1994Z" fill="#999292"/>
<path opacity="0.7" d="M215.5 91.8288C213.884 91.6149 212.235 91.4607 210.568 91.3676C208.206 91.2753 206.376 91.7432 205.356 91.7432C204.336 91.7432 203.302 90.5241 199.669 89.7663C196.036 89.0085 193.2 91.4598 190.042 91.4598C188.533 91.4598 187.569 90.9063 186.591 90.3067C186.156 89.9613 185.603 89.6519 184.956 89.3907C184.332 89.0832 183.504 88.8855 182.609 88.8306C182.372 88.8208 182.133 88.8208 181.896 88.8306C181.331 88.8174 180.766 88.8618 180.241 88.9607C179.715 89.0596 179.241 89.2108 178.85 89.4039C178.203 89.6651 177.65 89.9745 177.215 90.3198C176.237 90.9195 175.273 91.473 173.764 91.473C172.398 91.3821 171.119 91.1023 170.089 90.6691C169.196 90.3045 168.193 90.0047 167.113 89.7795C166.643 89.6812 166.132 89.6339 165.618 89.6411C165.109 89.634 164.602 89.6813 164.137 89.7795C163.057 90.0047 162.054 90.3045 161.161 90.6691C160.127 91.1035 158.843 91.3833 157.472 91.473C155.977 91.473 155.013 90.9195 154.035 90.3198C153.6 89.9745 153.047 89.6651 152.4 89.4039C151.774 89.0976 150.947 88.9002 150.053 88.8438C149.816 88.8339 149.577 88.8339 149.34 88.8438C149.103 88.8343 148.865 88.8343 148.627 88.8438C147.733 88.9002 146.906 89.0976 146.28 89.4039C145.637 89.6653 145.089 89.9747 144.659 90.3198C143.681 90.9195 142.717 91.473 141.208 91.473C138.05 91.473 135.214 89.0283 131.581 89.7795C127.948 90.5307 126.83 91.7563 125.894 91.7563C124.958 91.7563 123.1 91.2885 120.682 91.3808C119.015 91.4739 117.366 91.6281 115.75 91.842C117.365 92.059 119.014 92.2133 120.682 92.3033C123.044 92.4021 124.944 91.9277 125.894 91.9277C126.844 91.9277 127.948 93.1533 131.581 93.9045C135.214 94.6557 138.05 92.211 141.208 92.211C142.717 92.211 143.681 92.7645 144.659 93.3642C145.086 93.7085 145.634 94.016 146.28 94.2735C146.909 94.5794 147.734 94.7786 148.627 94.8402C148.865 94.8466 149.103 94.8466 149.34 94.8402C149.577 94.8468 149.815 94.8468 150.053 94.8402C150.946 94.7786 151.771 94.5794 152.4 94.2735C153.05 94.0163 153.603 93.7088 154.035 93.3642C155.013 92.7645 155.977 92.211 157.472 92.211C158.846 92.296 160.133 92.5764 161.161 93.0149C162.054 93.3795 163.057 93.6793 164.137 93.9045C164.603 94.0009 165.11 94.046 165.618 94.0363C166.131 94.046 166.642 94.001 167.113 93.9045C168.197 93.6797 169.201 93.3775 170.089 93.0084C171.117 92.5751 172.397 92.2974 173.764 92.211C175.273 92.211 176.237 92.7645 177.215 93.3642C177.647 93.7088 178.2 94.0163 178.85 94.2735C179.477 94.5806 180.303 94.7801 181.197 94.8402C181.43 94.8467 181.663 94.8467 181.896 94.8402C182.133 94.8468 182.371 94.8468 182.609 94.8402C183.503 94.7801 184.329 94.5806 184.956 94.2735C185.606 94.0163 186.159 93.7088 186.591 93.3642C187.569 92.7645 188.533 92.211 190.042 92.211C193.2 92.211 196.036 94.6557 199.669 93.9045C203.302 93.1533 204.406 91.9277 205.356 91.9277C206.306 91.9277 208.15 92.4021 210.568 92.3033C212.236 92.2133 213.885 92.059 215.5 91.842V91.8288Z" fill="#263238"/>
<path opacity="0.7" d="M215.5 91.8322C213.884 91.752 212.235 91.6941 210.568 91.6592C208.206 91.6246 206.376 91.8001 205.356 91.8001C204.336 91.8001 203.302 91.3429 199.669 91.0587C196.036 90.7746 193.2 91.6938 190.042 91.6938C188.533 91.6938 187.569 91.4862 186.591 91.2614C186.156 91.1318 185.603 91.0158 184.956 90.9179C184.332 90.8025 183.504 90.7284 182.609 90.7079C182.372 90.7042 182.133 90.7042 181.896 90.7079C181.331 90.7029 180.766 90.7195 180.241 90.7566C179.715 90.7937 179.241 90.8504 178.85 90.9228C178.203 91.0208 177.65 91.1368 177.215 91.2663C176.237 91.4912 175.273 91.6987 173.764 91.6987C172.398 91.6646 171.119 91.5597 170.089 91.3973C169.196 91.2606 168.193 91.1481 167.113 91.0637C166.643 91.0268 166.132 91.0091 165.618 91.0118C165.109 91.0091 164.602 91.0269 164.137 91.0637C163.057 91.1481 162.054 91.2606 161.161 91.3973C160.127 91.5602 158.843 91.6651 157.472 91.6987C155.977 91.6987 155.013 91.4912 154.035 91.2663C153.6 91.1368 153.047 91.0208 152.4 90.9228C151.774 90.808 150.947 90.7339 150.053 90.7128C149.816 90.7091 149.577 90.7091 149.34 90.7128C149.103 90.7092 148.865 90.7092 148.627 90.7128C147.733 90.7339 146.906 90.808 146.28 90.9228C145.637 91.0208 145.089 91.1369 144.659 91.2663C143.681 91.4912 142.717 91.6987 141.208 91.6987C138.05 91.6987 135.214 90.782 131.581 91.0637C127.948 91.3454 126.83 91.805 125.894 91.805C124.958 91.805 123.1 91.6296 120.682 91.6641C119.015 91.6991 117.366 91.7569 115.75 91.8371C117.365 91.9185 119.014 91.9764 120.682 92.0101C123.044 92.0472 124.944 91.8692 125.894 91.8692C126.844 91.8692 127.948 92.3289 131.581 92.6106C135.214 92.8923 138.05 91.9755 141.208 91.9755C142.717 91.9755 143.681 92.1831 144.659 92.4079C145.086 92.537 145.634 92.6524 146.28 92.7489C146.909 92.8636 147.734 92.9383 148.627 92.9615C148.865 92.9638 149.103 92.9638 149.34 92.9615C149.577 92.9639 149.815 92.9639 150.053 92.9615C150.946 92.9383 151.771 92.8636 152.4 92.7489C153.05 92.6525 153.603 92.5372 154.035 92.4079C155.013 92.1831 155.977 91.9755 157.472 91.9755C158.846 92.0073 160.133 92.1125 161.161 92.277C162.054 92.4137 163.057 92.5261 164.137 92.6106C164.603 92.6467 165.11 92.6636 165.618 92.66C166.131 92.6636 166.642 92.6467 167.113 92.6106C168.197 92.5263 169.201 92.4129 170.089 92.2745C171.117 92.112 172.397 92.0079 173.764 91.9755C175.273 91.9755 176.237 92.1831 177.215 92.4079C177.647 92.5372 178.2 92.6525 178.85 92.7489C179.477 92.8641 180.303 92.9389 181.197 92.9615C181.43 92.9639 181.663 92.9639 181.896 92.9615C182.133 92.9639 182.371 92.9639 182.609 92.9615C183.503 92.9389 184.329 92.8641 184.956 92.7489C185.606 92.6525 186.159 92.5372 186.591 92.4079C187.569 92.1831 188.533 91.9755 190.042 91.9755C193.2 91.9755 196.036 92.8923 199.669 92.6106C203.302 92.3289 204.406 91.8692 205.356 91.8692C206.306 91.8692 208.15 92.0472 210.568 92.0101C212.236 91.9764 213.885 91.9185 215.5 91.8371V91.8322Z" fill="#D9D9D9"/>
<path d="M140.361 59.373L144.859 71.567H145.041L144.859 64.547V59.373H148.733V76H143.286L138.619 63.533H138.45L138.632 70.709V76H134.758V59.373H140.361ZM157.881 76.325C155.558 76.325 153.842 75.8093 152.733 74.778C151.624 73.738 151.069 72.2257 151.069 70.241V68.915C151.069 66.9563 151.589 65.457 152.629 64.417C153.669 63.3683 155.181 62.844 157.166 62.844C158.501 62.844 159.61 63.0737 160.494 63.533C161.387 63.9837 162.054 64.6293 162.496 65.47C162.947 66.3107 163.172 67.3203 163.172 68.499V68.928C163.172 69.2573 163.155 69.5953 163.12 69.942C163.094 70.28 163.055 70.5963 163.003 70.891H159.415C159.45 70.3883 159.471 69.916 159.48 69.474C159.489 69.0233 159.493 68.616 159.493 68.252C159.493 67.7233 159.411 67.2813 159.246 66.926C159.081 66.562 158.826 66.2847 158.479 66.094C158.141 65.9033 157.703 65.808 157.166 65.808C156.369 65.808 155.784 66.0247 155.411 66.458C155.047 66.8827 154.865 67.4893 154.865 68.278V69.448L154.891 69.877V70.787C154.891 71.1163 154.943 71.4283 155.047 71.723C155.16 72.0177 155.35 72.2777 155.619 72.503C155.896 72.7197 156.273 72.893 156.75 73.023C157.235 73.1443 157.851 73.205 158.596 73.205C159.385 73.205 160.143 73.1313 160.871 72.984C161.599 72.828 162.297 72.62 162.964 72.36L162.639 75.35C162.05 75.6533 161.352 75.8917 160.546 76.065C159.74 76.2383 158.852 76.325 157.881 76.325ZM153.175 70.891V68.434H162.197V70.891H153.175ZM166.77 76L164.209 63.221H168.239L169.825 73.192H170.059L171.619 63.533H176.481L178.067 73.192H178.288L179.887 63.221H183.878L181.317 76H175.662L174.375 67.862L174.154 66.432H173.972L173.738 67.862L172.451 76H166.77ZM190.06 76.312C189.046 76.312 188.131 76.221 187.317 76.039C186.502 75.8657 185.804 75.662 185.224 75.428L184.886 72.087C185.553 72.3643 186.29 72.6157 187.096 72.841C187.91 73.0577 188.79 73.166 189.735 73.166C190.489 73.166 191.022 73.088 191.334 72.932C191.654 72.7673 191.815 72.516 191.815 72.178V72.126C191.815 71.892 191.732 71.7013 191.568 71.554C191.412 71.398 191.134 71.2593 190.736 71.138C190.346 71.0167 189.795 70.8737 189.085 70.709C188.019 70.4577 187.174 70.163 186.55 69.825C185.926 69.4783 185.479 69.058 185.211 68.564C184.951 68.0613 184.821 67.4677 184.821 66.783V66.679C184.821 65.4137 185.271 64.469 186.173 63.845C187.074 63.2123 188.4 62.896 190.151 62.896C191.139 62.896 192.027 62.987 192.816 63.169C193.604 63.351 194.267 63.5677 194.805 63.819L195.143 66.926C194.519 66.6487 193.821 66.419 193.05 66.237C192.287 66.055 191.485 65.964 190.645 65.964C190.133 65.964 189.73 65.9987 189.436 66.068C189.15 66.1373 188.946 66.237 188.825 66.367C188.712 66.497 188.656 66.6573 188.656 66.848V66.887C188.656 67.095 188.725 67.2727 188.864 67.42C189.002 67.5673 189.254 67.706 189.618 67.836C189.99 67.966 190.523 68.1133 191.217 68.278C192.291 68.512 193.158 68.7807 193.817 69.084C194.475 69.3787 194.956 69.7643 195.26 70.241C195.563 70.709 195.715 71.333 195.715 72.113V72.23C195.715 73.608 195.251 74.635 194.324 75.311C193.396 75.9783 191.975 76.312 190.06 76.312Z" fill="#263238"/>
</svg>
