<svg width="120" height="36" viewBox="0 0 120 36" fill="none" xmlns="http://www.w3.org/2000/svg">
<path fill-rule="evenodd" clip-rule="evenodd" d="M115.554 35.625H4.44608C1.99566 35.625 0 33.6172 0 31.1719V4.45312C0 1.99891 1.99566 0 4.44608 0H115.554C118.002 0 120 1.99891 120 4.45312V31.1719C120 33.6172 118.002 35.625 115.554 35.625Z" fill="black"/>
<path fill-rule="evenodd" clip-rule="evenodd" d="M115.554 0.712944C117.609 0.712944 119.291 2.39425 119.291 4.45312V31.1719C119.291 33.2308 117.62 34.9121 115.554 34.9121H4.44608C2.39082 34.9121 0.708635 33.2308 0.708635 31.1719V4.45312C0.708635 2.39425 2.37978 0.712944 4.44608 0.712944H115.554ZM115.554 0H4.44608C1.99566 0 0 2.00779 0 4.45312V31.1719C0 33.6261 1.99566 35.625 4.44608 35.625H115.554C118.002 35.625 120 33.6261 120 31.1719V4.45312C120 2.00779 118.002 0 115.554 0Z" fill="#A6A6A6"/>
<path d="M63.212 12.1263C62.4106 12.1263 61.7351 11.8442 61.2009 11.2889C60.671 10.7492 60.3752 10.0052 60.3885 9.24562C60.3885 8.43495 60.6622 7.74866 61.2009 7.20451C61.7329 6.64926 62.4084 6.36719 63.2098 6.36719C64.0023 6.36719 64.6778 6.64926 65.2209 7.20451C65.7595 7.76642 66.0333 8.45272 66.0333 9.24562C66.0244 10.0585 65.7507 10.7448 65.2209 11.2867C64.6889 11.8464 64.0133 12.1263 63.212 12.1263ZM39.3678 12.1263C38.5841 12.1263 37.9042 11.8486 37.3479 11.3001C36.796 10.7537 36.5156 10.0629 36.5156 9.24784C36.5156 8.43273 36.796 7.74199 37.3479 7.19562C37.8932 6.64704 38.5731 6.36941 39.3678 6.36941C39.7564 6.36941 40.1339 6.44714 40.4959 6.60484C40.8513 6.75809 41.1405 6.96686 41.3547 7.22228L41.4076 7.28669L40.8094 7.87747L40.7476 7.80418C40.4098 7.39996 39.9573 7.20229 39.359 7.20229C38.8248 7.20229 38.359 7.39329 37.9748 7.77087C37.5885 8.15066 37.392 8.64817 37.392 9.25006C37.392 9.85195 37.5885 10.3495 37.9748 10.7293C38.359 11.1068 38.8248 11.2978 39.359 11.2978C39.9286 11.2978 40.4076 11.1068 40.7807 10.7293C41.0014 10.5072 41.1383 10.1962 41.1869 9.80309H39.2685V8.97243H42.0103L42.0213 9.04795C42.0412 9.18787 42.0611 9.33224 42.0611 9.4655C42.0611 10.2317 41.8315 10.8514 41.3767 11.3089C40.8602 11.8509 40.1846 12.1263 39.3678 12.1263ZM71.071 12.0086H70.2255L67.636 7.83972L67.6581 8.59042V12.0063H66.8125V6.48712H67.7773L67.8038 6.52932L70.2387 10.4561L70.2166 9.70759V6.48712H71.071V12.0086ZM56.8585 12.0086H56.002V7.31778H54.5163V6.48712H58.342V7.31778H56.8563V12.0086H56.8585ZM53.8187 12.0086H52.9644V6.48712H53.8187V12.0086ZM49.0172 12.0086H48.1629V7.31778H46.6771V6.48712H50.5029V7.31778H49.0172V12.0086ZM46.1363 11.9997H42.8602V6.48712H46.1363V7.31778H43.7168V8.83251H45.9001V9.65428H43.7168V11.169H46.1363V11.9997ZM61.8278 10.7181C62.2097 11.1024 62.6733 11.2956 63.212 11.2956C63.7661 11.2956 64.2186 11.1068 64.5961 10.7181C64.9714 10.3406 65.1613 9.84529 65.1613 9.24784C65.1613 8.65039 64.9714 8.15288 64.5983 7.77753C64.2164 7.39329 63.7506 7.20007 63.2142 7.20007C62.6601 7.20007 62.2075 7.38885 61.8322 7.77753C61.4569 8.1551 61.2671 8.65039 61.2671 9.24784C61.2671 9.84529 61.4547 10.3428 61.8278 10.7181Z" fill="white"/>
<path fill-rule="evenodd" clip-rule="evenodd" d="M60.3127 19.3765C58.2265 19.3765 56.5355 20.969 56.5355 23.1656C56.5355 25.3421 58.2376 26.9546 60.3127 26.9546C62.3989 26.9546 64.0899 25.351 64.0899 23.1656C64.0899 20.969 62.3989 19.3765 60.3127 19.3765ZM60.3127 25.4532C59.1714 25.4532 58.189 24.5026 58.189 23.1567C58.189 21.7908 59.1736 20.8602 60.3127 20.8602C61.454 20.8602 62.4364 21.7908 62.4364 23.1567C62.4386 24.5115 61.454 25.4532 60.3127 25.4532ZM52.0718 19.3765C49.9856 19.3765 48.2946 20.969 48.2946 23.1656C48.2946 25.3421 49.9967 26.9546 52.0718 26.9546C54.158 26.9546 55.849 25.351 55.849 23.1656C55.849 20.969 54.1558 19.3765 52.0718 19.3765ZM52.0718 25.4532C50.9305 25.4532 49.9481 24.5026 49.9481 23.1567C49.9481 21.7908 50.9327 20.8602 52.0718 20.8602C53.2131 20.8602 54.1955 21.7908 54.1955 23.1567C54.1955 24.5115 53.2131 25.4532 52.0718 25.4532ZM42.2657 20.5337V22.1372H46.0914C45.9744 23.0367 45.6786 23.7008 45.2261 24.1561C44.6653 24.7203 43.8 25.3333 42.2745 25.3333C39.9234 25.3333 38.0845 23.4232 38.0845 21.0578C38.0845 18.6924 39.9234 16.7824 42.2745 16.7824C43.5439 16.7824 44.4689 17.2865 45.1554 17.9306L46.2857 16.7935C45.332 15.874 44.0627 15.1699 42.2833 15.1699C39.0581 15.1699 36.3516 17.8129 36.3516 21.0489C36.3516 24.2938 39.0559 26.928 42.2833 26.928C44.0251 26.928 45.332 26.3549 46.3652 25.2755C47.4182 24.2161 47.7515 22.7214 47.7515 21.5153C47.7515 21.14 47.7228 20.8024 47.6632 20.5159H42.2635C42.2657 20.5137 42.2657 20.5337 42.2657 20.5337ZM82.3753 21.7819C82.0596 20.9312 81.106 19.3676 79.15 19.3676C77.2118 19.3676 75.6002 20.9023 75.6002 23.1567C75.6002 25.2844 77.1941 26.9457 79.3377 26.9457C81.0596 26.9457 82.0619 25.8863 82.4747 25.2644L81.1965 24.4027C80.7726 25.0356 80.1832 25.451 79.3465 25.451C78.501 25.451 77.9094 25.0645 77.5164 24.3027L82.5519 22.2039C82.5519 22.2061 82.3753 21.7819 82.3753 21.7819ZM77.2405 23.0478C77.2007 21.5842 78.3708 20.8402 79.2074 20.8402C79.8675 20.8402 80.4172 21.1667 80.6048 21.6419L77.2405 23.0478ZM73.1498 26.7192H74.8033V15.5875H73.1498V26.7192ZM70.4345 20.2183H70.3749C70.0018 19.7719 69.2932 19.3676 68.3881 19.3676C66.5094 19.3676 64.7787 21.0312 64.7787 23.1678C64.7787 25.2955 66.5006 26.9391 68.3881 26.9391C69.2821 26.9391 70.0018 26.5326 70.3749 26.0773H70.4345V26.6215C70.4345 28.0673 69.6663 28.8469 68.4278 28.8469C67.4145 28.8469 66.7854 28.114 66.5293 27.501L65.0921 28.1051C65.505 29.1045 66.6065 30.3416 68.4256 30.3416C70.3639 30.3416 72.0063 29.1934 72.0063 26.3927V19.5942H70.4433V20.2183C70.4455 20.2183 70.4345 20.2183 70.4345 20.2183ZM68.536 25.4532C67.3946 25.4532 66.441 24.4937 66.441 23.1678C66.441 21.8307 67.3946 20.8624 68.536 20.8624C69.6663 20.8624 70.5427 21.8418 70.5427 23.1678C70.5537 24.4937 69.6685 25.4532 68.536 25.4532ZM90.1173 15.5875H86.1635V26.7192H87.817V22.5037H90.1195C91.9496 22.5037 93.7488 21.1689 93.7488 19.05C93.7488 16.9312 91.9563 15.5875 90.1173 15.5875ZM90.1659 20.949H87.8148V17.1289H90.1659C91.4044 17.1289 92.1042 18.1572 92.1042 19.0389C92.1042 19.9118 91.3955 20.949 90.1659 20.949ZM100.376 19.3565C99.1751 19.3565 97.9366 19.8918 97.4244 21.0578L98.8903 21.6708C99.206 21.0578 99.7844 20.849 100.396 20.849C101.252 20.849 102.118 21.3643 102.138 22.2838V22.4015C101.842 22.2327 101.193 21.9751 100.416 21.9751C98.8329 21.9751 97.228 22.8457 97.228 24.4782C97.228 25.9729 98.526 26.9324 99.972 26.9324C101.082 26.9324 101.694 26.4282 102.076 25.8441H102.135V26.7059H103.729V22.4415C103.729 20.4559 102.263 19.3565 100.376 19.3565ZM100.168 25.4532C99.6276 25.4532 98.8704 25.1867 98.8704 24.5026C98.8704 23.6409 99.8153 23.3144 100.621 23.3144C101.35 23.3144 101.694 23.4721 102.127 23.6897C102.007 24.6892 101.169 25.4443 100.168 25.4532ZM109.544 19.5942L107.646 24.4227H107.586L105.619 19.5942H103.84L106.791 26.3438L105.109 30.0951H106.831L111.372 19.5942H109.544ZM94.6605 26.7192H96.314V15.5875H94.6605V26.7192Z" fill="white"/>
<path fill-rule="evenodd" clip-rule="evenodd" d="M9.23211 6.70938C8.97603 6.98701 8.82812 7.41122 8.82812 7.96647V27.6602C8.82812 28.2154 8.97603 28.6396 9.24094 28.9062L9.30938 28.9661L20.2767 17.9321V17.6856L9.30055 6.64941L9.23211 6.70938Z" fill="url(#paint0_linear_1302_2948)"/>
<path fill-rule="evenodd" clip-rule="evenodd" d="M23.9314 21.622L20.2734 17.9418V17.6841L23.9314 14.0039L24.0109 14.0528L28.3378 16.527C29.5762 17.2288 29.5762 18.3882 28.3378 19.0989L24.0109 21.5731L23.9314 21.622Z" fill="url(#paint1_linear_1302_2948)"/>
<path fill-rule="evenodd" clip-rule="evenodd" d="M24.0075 21.5746L20.2701 17.8145L9.23438 28.9173C9.63836 29.3526 10.3161 29.4015 11.0733 28.9773L24.0075 21.5746Z" fill="url(#paint2_linear_1302_2948)"/>
<path fill-rule="evenodd" clip-rule="evenodd" d="M24.0075 14.0519L11.0733 6.66035C10.3161 6.22504 9.63616 6.285 9.23438 6.72032L20.2701 17.812L24.0075 14.0519Z" fill="url(#paint3_linear_1302_2948)"/>
<path opacity="0.2" fill-rule="evenodd" clip-rule="evenodd" d="M23.9271 21.4941L11.0811 28.8368C10.3636 29.2521 9.72344 29.2233 9.31062 28.8457L9.24219 28.9145L9.31062 28.9745C9.72344 29.3499 10.3636 29.3809 11.0811 28.9656L24.0154 21.5741L23.9271 21.4941Z" fill="black"/>
<path opacity="0.12" fill-rule="evenodd" clip-rule="evenodd" d="M28.3393 18.9716L23.9219 21.4947L24.0013 21.5746L28.3282 19.1004C28.9485 18.7451 29.2532 18.2786 29.2532 17.8145C29.2157 18.2409 28.9 18.6451 28.3393 18.9716Z" fill="black"/>
<path opacity="0.25" fill-rule="evenodd" clip-rule="evenodd" d="M11.071 6.78915L28.3322 16.6549C28.8929 16.9725 29.2086 17.3878 29.2571 17.812C29.2571 17.3478 28.9525 16.8814 28.3322 16.5261L11.071 6.66033C9.83258 5.94738 8.82812 6.54261 8.82812 7.96628V8.0951C8.82812 6.66921 9.83258 6.08509 11.071 6.78915Z" fill="white"/>
<defs>
<linearGradient id="paint0_linear_1302_2948" x1="19.2929" y1="7.754" x2="1.71117" y2="12.4104" gradientUnits="userSpaceOnUse">
<stop stop-color="#00A0FF"/>
<stop offset="0.00657" stop-color="#00A1FF"/>
<stop offset="0.2601" stop-color="#00BEFF"/>
<stop offset="0.5122" stop-color="#00D2FF"/>
<stop offset="0.7604" stop-color="#00DFFF"/>
<stop offset="1" stop-color="#00E3FF"/>
</linearGradient>
<linearGradient id="paint1_linear_1302_2948" x1="29.9528" y1="17.813" x2="8.53272" y2="17.813" gradientUnits="userSpaceOnUse">
<stop stop-color="#FFE000"/>
<stop offset="0.4087" stop-color="#FFBD00"/>
<stop offset="0.7754" stop-color="#FFA500"/>
<stop offset="1" stop-color="#FF9C00"/>
</linearGradient>
<linearGradient id="paint2_linear_1302_2948" x1="21.9753" y1="19.8605" x2="7.74525" y2="43.6661" gradientUnits="userSpaceOnUse">
<stop stop-color="#FF3A44"/>
<stop offset="1" stop-color="#C31162"/>
</linearGradient>
<linearGradient id="paint3_linear_1302_2948" x1="6.45546" y1="0.15878" x2="12.8041" y2="10.7908" gradientUnits="userSpaceOnUse">
<stop stop-color="#32A071"/>
<stop offset="0.0685" stop-color="#2DA771"/>
<stop offset="0.4762" stop-color="#15CF74"/>
<stop offset="0.8009" stop-color="#06E775"/>
<stop offset="1" stop-color="#00F076"/>
</linearGradient>
</defs>
</svg>
