<svg width="206" height="114" viewBox="0 0 206 114" fill="none" xmlns="http://www.w3.org/2000/svg">
<path d="M7.29034 113.105C5.45203 113.072 3.6982 112.33 2.39811 111.035C1.09803 109.741 0.353147 107.994 0.320312 106.163V56.3932C0.352285 47.2863 3.61349 39.5168 10.1039 33.1483C16.5944 26.7798 24.3317 23.5 33.4759 23.5C42.6201 23.5 50.4214 26.7479 56.8799 33.1801C63.3383 39.6123 66.6315 47.4137 66.6315 56.5206C66.6315 65.6276 63.3703 73.3971 56.8799 79.8611C50.3894 86.3251 42.5881 89.5412 33.4759 89.5412C25.0991 89.5412 18.7685 87.6307 14.4202 83.8096V106.163C14.3874 107.994 13.6425 109.741 12.3424 111.035C11.0424 112.33 9.2885 113.072 7.4502 113.105H7.29034ZM46.9364 69.8308C50.6452 66.1052 52.5316 61.6473 52.5316 56.3932C52.5316 51.1392 50.6452 46.6495 46.9364 42.9239C43.2275 39.1983 38.7514 37.447 33.4759 37.447C28.2004 37.447 23.6603 39.262 19.9515 42.9239C16.4036 46.5103 14.4149 51.3427 14.4149 56.3773C14.4149 61.4119 16.4036 66.2444 19.9515 69.8308C23.6603 73.5245 28.1684 75.3713 33.4759 75.3713C35.9802 75.4097 38.4659 74.938 40.7806 73.9852C43.0952 73.0325 45.19 71.6187 46.9364 69.8308Z" fill="white"/>
<path d="M199.029 0.000357303C200.875 0.00873311 202.643 0.742774 203.948 2.04278C205.253 3.34278 205.99 5.10355 205.999 6.94201V56.6799C205.977 65.7869 202.716 73.5246 196.215 79.8931C189.714 86.2616 181.923 89.4777 172.843 89.5413C163.699 89.5413 155.898 86.2934 149.407 79.8612C142.917 73.429 139.688 65.6277 139.688 56.5207C139.688 47.4138 142.949 39.6442 149.407 33.1802C155.866 26.7162 163.699 23.5001 172.843 23.5001C181.156 23.5001 187.508 25.4106 191.899 29.2317V6.94201C191.883 6.02088 192.06 5.10658 192.418 4.25699C192.775 3.40741 193.306 2.64105 193.977 2.00643C194.616 1.36251 195.378 0.853095 196.218 0.508468C197.059 0.163841 197.96 -0.0089548 198.869 0.000357303H199.029ZM159.319 43.2106C155.771 46.7969 153.782 51.6294 153.782 56.664C153.782 61.6986 155.771 66.5311 159.319 70.1174C163.028 73.8112 167.536 75.658 172.843 75.658C177.897 75.658 182.744 73.6586 186.317 70.0995C189.891 66.5404 191.899 61.7132 191.899 56.6799C191.903 54.185 191.413 51.7137 190.457 49.4075C189.502 47.1013 188.099 45.0054 186.329 43.2398C184.559 41.4741 182.457 40.0734 180.143 39.1176C177.829 38.1619 175.348 37.67 172.843 37.67C167.536 37.67 163.028 39.5168 159.319 43.2106Z" fill="white"/>
<path d="M136.17 56.5845C136.17 65.6914 132.93 73.4716 126.45 79.925C124.025 82.3784 121.231 84.441 118.169 86.0387C118.137 80.1479 118.105 73.8112 118.105 68.9393C118.105 64.0674 117.37 59.0363 115.867 54.8013C112.958 46.5541 107.139 40.7588 98.2183 40.4085H97.387C94.0619 40.4085 91.6639 42.6056 90.1612 45.7262C87.7953 50.7573 87.8272 58.2403 90.385 63.0803C91.7918 65.7869 94.0299 67.6338 97.0673 67.7612H97.387C99.108 67.7542 100.823 67.5621 102.503 67.188C103.078 67.0514 103.675 67.0405 104.255 67.1559C104.834 67.2714 105.382 67.5104 105.86 67.8567C106.432 68.2459 106.9 68.7684 107.223 69.3789C107.547 69.9894 107.715 70.6692 107.714 71.3594V89.3185C106.168 89.5376 104.608 89.644 103.046 89.6369C93.902 89.6369 86.1007 86.389 79.6103 79.9568C73.1198 73.5247 69.8906 65.7233 69.8906 56.6163C69.8906 47.5094 73.1198 39.7398 79.6103 33.2758C86.1007 26.8118 93.902 23.5957 103.046 23.5957C112.19 23.5957 119.96 26.8436 126.45 33.2758C132.941 39.708 136.17 47.4775 136.17 56.5845Z" fill="white"/>
<path d="M94.4479 63.1438C94.242 63.2167 94.0266 63.2596 93.8084 63.2712C93.4558 63.2697 93.1117 63.1626 92.8209 62.9639C92.5301 62.7651 92.3061 62.4839 92.1778 62.1567C91.4039 60.2522 90.9086 58.2469 90.7071 56.2022C90.483 53.8355 90.645 51.4483 91.1867 49.1331C91.2969 48.6813 91.5828 48.2916 91.9816 48.0498C92.3803 47.8079 92.8592 47.7337 93.3129 47.8435C93.7665 47.9533 94.1578 48.2381 94.4006 48.6352C94.6435 49.0323 94.718 49.5092 94.6078 49.961C94.1613 51.8911 94.0318 53.8805 94.2241 55.8519C94.3857 57.5678 94.7949 59.2516 95.439 60.8512C95.6079 61.2865 95.5987 61.7704 95.4134 62.199C95.2281 62.6276 94.8815 62.9668 94.4479 63.1438Z" fill="#FAC649"/>
</svg>
