<svg width="206" height="114" viewBox="0 0 206 114" fill="none" xmlns="http://www.w3.org/2000/svg">
<path d="M7.34305 114C5.50526 113.967 3.75192 113.219 2.45221 111.914C1.15249 110.609 0.407825 108.848 0.375 107.003V56.8392C0.406964 47.6602 3.66725 39.8291 10.1558 33.4102C16.6444 26.9913 24.3796 23.6855 33.5212 23.6855C42.6627 23.6855 50.4618 26.9592 56.9185 33.4423C63.3751 39.9254 66.6674 47.7885 66.6674 56.9676C66.6674 66.1466 63.4071 73.9777 56.9185 80.4929C50.4299 87.0081 42.6308 90.2496 33.5212 90.2496C25.1467 90.2496 18.818 88.324 14.4709 84.4726V107.003C14.4381 108.848 13.6934 110.609 12.3937 111.914C11.094 113.219 9.34064 113.967 7.50286 114H7.34305ZM46.9778 70.3831C50.6856 66.628 52.5714 62.1348 52.5714 56.8392C52.5714 51.5436 50.6856 47.0183 46.9778 43.2632C43.2701 39.5082 38.7952 37.743 33.5212 37.743C28.2472 37.743 23.7084 39.5723 20.0006 43.2632C16.4538 46.878 14.4656 51.7487 14.4656 56.8232C14.4656 61.8976 16.4538 66.7683 20.0006 70.3831C23.7084 74.1061 28.2152 75.9676 33.5212 75.9676C36.0247 76.0062 38.5098 75.5308 40.8238 74.5705C43.1378 73.6102 45.2319 72.1852 46.9778 70.3831Z" fill="white" fill-opacity="0.3"/>
<path d="M199.027 0.000360131C200.873 0.00880225 202.64 0.748654 203.945 2.05895C205.25 3.36924 205.987 5.14396 205.995 6.99697V57.1287C205.974 66.3077 202.714 74.1067 196.215 80.5256C189.715 86.9445 181.927 90.186 172.849 90.2502C163.708 90.2502 155.909 86.9766 149.42 80.4935C142.931 74.0104 139.703 66.1472 139.703 56.9682C139.703 47.7891 142.963 39.9581 149.42 33.4429C155.877 26.9277 163.708 23.6861 172.849 23.6861C181.16 23.6861 187.51 25.6118 191.9 29.4632V6.99697C191.884 6.06854 192.061 5.147 192.418 4.29069C192.776 3.43438 193.307 2.66196 193.977 2.02232C194.616 1.3733 195.378 0.859849 196.218 0.512494C197.058 0.165138 197.959 -0.00902569 198.868 0.000360131H199.027ZM159.329 43.5527C155.782 47.1674 153.794 52.0382 153.794 57.1126C153.794 62.187 155.782 67.0578 159.329 70.6726C163.037 74.3955 167.543 76.257 172.849 76.257C177.902 76.257 182.747 74.2417 186.32 70.6544C189.892 67.0672 191.9 62.2018 191.9 57.1287C191.904 54.614 191.414 52.1232 190.459 49.7987C189.503 47.4742 188.101 45.3618 186.331 43.5821C184.562 41.8025 182.46 40.3906 180.147 39.4273C177.834 38.464 175.354 37.9682 172.849 37.9682C167.543 37.9682 163.037 39.8297 159.329 43.5527Z" fill="white" fill-opacity="0.3"/>
<path d="M136.19 57.0331C136.19 66.2122 132.951 74.0539 126.473 80.5584C124.049 83.0313 121.256 85.1102 118.195 86.7206C118.163 80.7831 118.131 74.3963 118.131 69.4858C118.131 64.5754 117.395 59.5044 115.893 55.2359C112.985 46.9234 107.167 41.0822 98.2493 40.7291H97.4183C94.0941 40.7291 91.6968 42.9436 90.1945 46.0889C87.8292 51.1598 87.8612 58.7021 90.4183 63.5804C91.8247 66.3085 94.0621 68.17 97.0987 68.2983H97.4183C99.1388 68.2913 100.853 68.0976 102.532 67.7206C103.107 67.583 103.705 67.5719 104.284 67.6883C104.863 67.8046 105.411 68.0456 105.889 68.3946C106.461 68.7869 106.929 69.3136 107.252 69.9289C107.575 70.5442 107.743 71.2294 107.743 71.925V90.0263C106.197 90.2472 104.637 90.3544 103.076 90.3473C93.9343 90.3473 86.1352 87.0736 79.6466 80.5905C73.158 74.1074 69.9297 66.2443 69.9297 57.0652C69.9297 47.8862 73.158 40.0551 79.6466 33.5399C86.1352 27.0248 93.9343 23.7832 103.076 23.7832C112.217 23.7832 119.985 27.0568 126.473 33.5399C132.962 40.023 136.19 47.8541 136.19 57.0331Z" fill="white" fill-opacity="0.3"/>
<path d="M95.3296 63.6433C95.1238 63.7167 94.9085 63.76 94.6903 63.7716C94.3378 63.7701 93.9938 63.6622 93.7031 63.4619C93.4124 63.2616 93.1884 62.9781 93.0602 62.6483C92.2865 60.7288 91.7913 58.7076 91.5898 56.6467C91.3659 54.2612 91.5278 51.8552 92.0693 49.5217C92.1795 49.0663 92.4654 48.6735 92.864 48.4297C93.2626 48.186 93.7414 48.1112 94.1949 48.2218C94.6484 48.3325 95.0396 48.6195 95.2824 49.0198C95.5252 49.42 95.5996 49.9007 95.4894 50.3561C95.0431 52.3015 94.9136 54.3066 95.1059 56.2936C95.2674 58.0231 95.6765 59.7202 96.3205 61.3325C96.4893 61.7712 96.4801 62.259 96.2949 62.691C96.1096 63.123 95.7631 63.4649 95.3296 63.6433Z" fill="#FAC649"/>
</svg>
