<svg width="94" height="94" viewBox="0 0 94 94" fill="none" xmlns="http://www.w3.org/2000/svg">
<rect x="0.90909" y="0.135652" width="92.9553" height="92.9553" rx="2.03478" fill="white" stroke="black" stroke-width="0.271305"/>
<path d="M4.53906 2.92627H7.16685V5.55405H4.53906V2.92627ZM7.16685 2.92627H9.79463V5.55405H7.16685V2.92627ZM9.79463 2.92627H12.4224V5.55405H9.79463V2.92627ZM12.4224 2.92627H15.0502V5.55405H12.4224V2.92627ZM15.0502 2.92627H17.678V5.55405H15.0502V2.92627ZM17.678 2.92627H20.3058V5.55405H17.678V2.92627ZM20.3058 2.92627H22.9335V5.55405H20.3058V2.92627ZM30.8169 2.92627H33.4447V5.55405H30.8169V2.92627ZM36.0725 2.92627H38.7002V5.55405H36.0725V2.92627ZM38.7002 2.92627H41.328V5.55405H38.7002V2.92627ZM43.9558 2.92627H46.5836V5.55405H43.9558V2.92627ZM49.2114 2.92627H51.8392V5.55405H49.2114V2.92627ZM51.8392 2.92627H54.4669V5.55405H51.8392V2.92627ZM54.4669 2.92627H57.0947V5.55405H54.4669V2.92627ZM57.0947 2.92627H59.7225V5.55405H57.0947V2.92627ZM59.7225 2.92627H62.3503V5.55405H59.7225V2.92627ZM62.3503 2.92627H64.9781V5.55405H62.3503V2.92627ZM64.9781 2.92627H67.6059V5.55405H64.9781V2.92627ZM72.8614 2.92627H75.4892V5.55405H72.8614V2.92627ZM75.4892 2.92627H78.117V5.55405H75.4892V2.92627ZM78.117 2.92627H80.7448V5.55405H78.117V2.92627ZM80.7448 2.92627H83.3726V5.55405H80.7448V2.92627ZM83.3726 2.92627H86.0003V5.55405H83.3726V2.92627ZM86.0003 2.92627H88.6281V5.55405H86.0003V2.92627ZM88.6281 2.92627H91.2559V5.55405H88.6281V2.92627ZM4.53906 5.55405H7.16685V8.18184H4.53906V5.55405ZM20.3058 5.55405H22.9335V8.18184H20.3058V5.55405ZM25.5613 5.55405H28.1891V8.18184H25.5613V5.55405ZM30.8169 5.55405H33.4447V8.18184H30.8169V5.55405ZM38.7002 5.55405H41.328V8.18184H38.7002V5.55405ZM41.328 5.55405H43.9558V8.18184H41.328V5.55405ZM43.9558 5.55405H46.5836V8.18184H43.9558V5.55405ZM46.5836 5.55405H49.2114V8.18184H46.5836V5.55405ZM51.8392 5.55405H54.4669V8.18184H51.8392V5.55405ZM57.0947 5.55405H59.7225V8.18184H57.0947V5.55405ZM72.8614 5.55405H75.4892V8.18184H72.8614V5.55405ZM88.6281 5.55405H91.2559V8.18184H88.6281V5.55405ZM4.53906 8.18184H7.16685V10.8096H4.53906V8.18184ZM9.79463 8.18184H12.4224V10.8096H9.79463V8.18184ZM12.4224 8.18184H15.0502V10.8096H12.4224V8.18184ZM15.0502 8.18184H17.678V10.8096H15.0502V8.18184ZM20.3058 8.18184H22.9335V10.8096H20.3058V8.18184ZM36.0725 8.18184H38.7002V10.8096H36.0725V8.18184ZM38.7002 8.18184H41.328V10.8096H38.7002V8.18184ZM54.4669 8.18184H57.0947V10.8096H54.4669V8.18184ZM57.0947 8.18184H59.7225V10.8096H57.0947V8.18184ZM59.7225 8.18184H62.3503V10.8096H59.7225V8.18184ZM64.9781 8.18184H67.6059V10.8096H64.9781V8.18184ZM72.8614 8.18184H75.4892V10.8096H72.8614V8.18184ZM78.117 8.18184H80.7448V10.8096H78.117V8.18184ZM80.7448 8.18184H83.3726V10.8096H80.7448V8.18184ZM83.3726 8.18184H86.0003V10.8096H83.3726V8.18184ZM88.6281 8.18184H91.2559V10.8096H88.6281V8.18184ZM4.53906 10.8096H7.16685V13.4374H4.53906V10.8096ZM9.79463 10.8096H12.4224V13.4374H9.79463V10.8096ZM12.4224 10.8096H15.0502V13.4374H12.4224V10.8096ZM15.0502 10.8096H17.678V13.4374H15.0502V10.8096ZM20.3058 10.8096H22.9335V13.4374H20.3058V10.8096ZM25.5613 10.8096H28.1891V13.4374H25.5613V10.8096ZM28.1891 10.8096H30.8169V13.4374H28.1891V10.8096ZM30.8169 10.8096H33.4447V13.4374H30.8169V10.8096ZM36.0725 10.8096H38.7002V13.4374H36.0725V10.8096ZM41.328 10.8096H43.9558V13.4374H41.328V10.8096ZM43.9558 10.8096H46.5836V13.4374H43.9558V10.8096ZM46.5836 10.8096H49.2114V13.4374H46.5836V10.8096ZM49.2114 10.8096H51.8392V13.4374H49.2114V10.8096ZM54.4669 10.8096H57.0947V13.4374H54.4669V10.8096ZM57.0947 10.8096H59.7225V13.4374H57.0947V10.8096ZM62.3503 10.8096H64.9781V13.4374H62.3503V10.8096ZM64.9781 10.8096H67.6059V13.4374H64.9781V10.8096ZM67.6059 10.8096H70.2336V13.4374H67.6059V10.8096ZM72.8614 10.8096H75.4892V13.4374H72.8614V10.8096ZM78.117 10.8096H80.7448V13.4374H78.117V10.8096ZM80.7448 10.8096H83.3726V13.4374H80.7448V10.8096ZM83.3726 10.8096H86.0003V13.4374H83.3726V10.8096ZM88.6281 10.8096H91.2559V13.4374H88.6281V10.8096ZM4.53906 13.4374H7.16685V16.0652H4.53906V13.4374ZM9.79463 13.4374H12.4224V16.0652H9.79463V13.4374ZM12.4224 13.4374H15.0502V16.0652H12.4224V13.4374ZM15.0502 13.4374H17.678V16.0652H15.0502V13.4374ZM20.3058 13.4374H22.9335V16.0652H20.3058V13.4374ZM28.1891 13.4374H30.8169V16.0652H28.1891V13.4374ZM46.5836 13.4374H49.2114V16.0652H46.5836V13.4374ZM51.8392 13.4374H54.4669V16.0652H51.8392V13.4374ZM54.4669 13.4374H57.0947V16.0652H54.4669V13.4374ZM59.7225 13.4374H62.3503V16.0652H59.7225V13.4374ZM64.9781 13.4374H67.6059V16.0652H64.9781V13.4374ZM72.8614 13.4374H75.4892V16.0652H72.8614V13.4374ZM78.117 13.4374H80.7448V16.0652H78.117V13.4374ZM80.7448 13.4374H83.3726V16.0652H80.7448V13.4374ZM83.3726 13.4374H86.0003V16.0652H83.3726V13.4374ZM88.6281 13.4374H91.2559V16.0652H88.6281V13.4374ZM4.53906 16.0652H7.16685V18.693H4.53906V16.0652ZM20.3058 16.0652H22.9335V18.693H20.3058V16.0652ZM25.5613 16.0652H28.1891V18.693H25.5613V16.0652ZM28.1891 16.0652H30.8169V18.693H28.1891V16.0652ZM33.4447 16.0652H36.0725V18.693H33.4447V16.0652ZM36.0725 16.0652H38.7002V18.693H36.0725V16.0652ZM43.9558 16.0652H46.5836V18.693H43.9558V16.0652ZM46.5836 16.0652H49.2114V18.693H46.5836V16.0652ZM57.0947 16.0652H59.7225V18.693H57.0947V16.0652ZM59.7225 16.0652H62.3503V18.693H59.7225V16.0652ZM62.3503 16.0652H64.9781V18.693H62.3503V16.0652ZM67.6059 16.0652H70.2336V18.693H67.6059V16.0652ZM72.8614 16.0652H75.4892V18.693H72.8614V16.0652ZM88.6281 16.0652H91.2559V18.693H88.6281V16.0652ZM4.53906 18.693H7.16685V21.3207H4.53906V18.693ZM7.16685 18.693H9.79463V21.3207H7.16685V18.693ZM9.79463 18.693H12.4224V21.3207H9.79463V18.693ZM12.4224 18.693H15.0502V21.3207H12.4224V18.693ZM15.0502 18.693H17.678V21.3207H15.0502V18.693ZM17.678 18.693H20.3058V21.3207H17.678V18.693ZM20.3058 18.693H22.9335V21.3207H20.3058V18.693ZM25.5613 18.693H28.1891V21.3207H25.5613V18.693ZM30.8169 18.693H33.4447V21.3207H30.8169V18.693ZM36.0725 18.693H38.7002V21.3207H36.0725V18.693ZM41.328 18.693H43.9558V21.3207H41.328V18.693ZM46.5836 18.693H49.2114V21.3207H46.5836V18.693ZM51.8392 18.693H54.4669V21.3207H51.8392V18.693ZM57.0947 18.693H59.7225V21.3207H57.0947V18.693ZM62.3503 18.693H64.9781V21.3207H62.3503V18.693ZM67.6059 18.693H70.2336V21.3207H67.6059V18.693ZM72.8614 18.693H75.4892V21.3207H72.8614V18.693ZM75.4892 18.693H78.117V21.3207H75.4892V18.693ZM78.117 18.693H80.7448V21.3207H78.117V18.693ZM80.7448 18.693H83.3726V21.3207H80.7448V18.693ZM83.3726 18.693H86.0003V21.3207H83.3726V18.693ZM86.0003 18.693H88.6281V21.3207H86.0003V18.693ZM88.6281 18.693H91.2559V21.3207H88.6281V18.693ZM28.1891 21.3207H30.8169V23.9485H28.1891V21.3207ZM30.8169 21.3207H33.4447V23.9485H30.8169V21.3207ZM33.4447 21.3207H36.0725V23.9485H33.4447V21.3207ZM41.328 21.3207H43.9558V23.9485H41.328V21.3207ZM46.5836 21.3207H49.2114V23.9485H46.5836V21.3207ZM51.8392 21.3207H54.4669V23.9485H51.8392V21.3207ZM54.4669 21.3207H57.0947V23.9485H54.4669V21.3207ZM59.7225 21.3207H62.3503V23.9485H59.7225V21.3207ZM62.3503 21.3207H64.9781V23.9485H62.3503V21.3207ZM4.53906 23.9485H7.16685V26.5763H4.53906V23.9485ZM7.16685 23.9485H9.79463V26.5763H7.16685V23.9485ZM9.79463 23.9485H12.4224V26.5763H9.79463V23.9485ZM12.4224 23.9485H15.0502V26.5763H12.4224V23.9485ZM15.0502 23.9485H17.678V26.5763H15.0502V23.9485ZM20.3058 23.9485H22.9335V26.5763H20.3058V23.9485ZM22.9335 23.9485H25.5613V26.5763H22.9335V23.9485ZM25.5613 23.9485H28.1891V26.5763H25.5613V23.9485ZM28.1891 23.9485H30.8169V26.5763H28.1891V23.9485ZM33.4447 23.9485H36.0725V26.5763H33.4447V23.9485ZM43.9558 23.9485H46.5836V26.5763H43.9558V23.9485ZM46.5836 23.9485H49.2114V26.5763H46.5836V23.9485ZM49.2114 23.9485H51.8392V26.5763H49.2114V23.9485ZM51.8392 23.9485H54.4669V26.5763H51.8392V23.9485ZM57.0947 23.9485H59.7225V26.5763H57.0947V23.9485ZM70.2336 23.9485H72.8614V26.5763H70.2336V23.9485ZM75.4892 23.9485H78.117V26.5763H75.4892V23.9485ZM80.7448 23.9485H83.3726V26.5763H80.7448V23.9485ZM86.0003 23.9485H88.6281V26.5763H86.0003V23.9485ZM12.4224 26.5763H15.0502V29.2041H12.4224V26.5763ZM15.0502 26.5763H17.678V29.2041H15.0502V26.5763ZM25.5613 26.5763H28.1891V29.2041H25.5613V26.5763ZM30.8169 26.5763H33.4447V29.2041H30.8169V26.5763ZM36.0725 26.5763H38.7002V29.2041H36.0725V26.5763ZM38.7002 26.5763H41.328V29.2041H38.7002V26.5763ZM41.328 26.5763H43.9558V29.2041H41.328V26.5763ZM46.5836 26.5763H49.2114V29.2041H46.5836V26.5763ZM49.2114 26.5763H51.8392V29.2041H49.2114V26.5763ZM54.4669 26.5763H57.0947V29.2041H54.4669V26.5763ZM57.0947 26.5763H59.7225V29.2041H57.0947V26.5763ZM64.9781 26.5763H67.6059V29.2041H64.9781V26.5763ZM72.8614 26.5763H75.4892V29.2041H72.8614V26.5763ZM83.3726 26.5763H86.0003V29.2041H83.3726V26.5763ZM86.0003 26.5763H88.6281V29.2041H86.0003V26.5763ZM88.6281 26.5763H91.2559V29.2041H88.6281V26.5763ZM4.53906 29.2041H7.16685V31.8319H4.53906V29.2041ZM12.4224 29.2041H15.0502V31.8319H12.4224V29.2041ZM20.3058 29.2041H22.9335V31.8319H20.3058V29.2041ZM22.9335 29.2041H25.5613V31.8319H22.9335V29.2041ZM25.5613 29.2041H28.1891V31.8319H25.5613V29.2041ZM30.8169 29.2041H33.4447V31.8319H30.8169V29.2041ZM38.7002 29.2041H41.328V31.8319H38.7002V29.2041ZM41.328 29.2041H43.9558V31.8319H41.328V29.2041ZM43.9558 29.2041H46.5836V31.8319H43.9558V29.2041ZM46.5836 29.2041H49.2114V31.8319H46.5836V29.2041ZM62.3503 29.2041H64.9781V31.8319H62.3503V29.2041ZM70.2336 29.2041H72.8614V31.8319H70.2336V29.2041ZM72.8614 29.2041H75.4892V31.8319H72.8614V29.2041ZM78.117 29.2041H80.7448V31.8319H78.117V29.2041ZM80.7448 29.2041H83.3726V31.8319H80.7448V29.2041ZM86.0003 29.2041H88.6281V31.8319H86.0003V29.2041ZM4.53906 31.8319H7.16685V34.4597H4.53906V31.8319ZM7.16685 31.8319H9.79463V34.4597H7.16685V31.8319ZM9.79463 31.8319H12.4224V34.4597H9.79463V31.8319ZM12.4224 31.8319H15.0502V34.4597H12.4224V31.8319ZM17.678 31.8319H20.3058V34.4597H17.678V31.8319ZM25.5613 31.8319H28.1891V34.4597H25.5613V31.8319ZM36.0725 31.8319H38.7002V34.4597H36.0725V31.8319ZM38.7002 31.8319H41.328V34.4597H38.7002V31.8319ZM43.9558 31.8319H46.5836V34.4597H43.9558V31.8319ZM46.5836 31.8319H49.2114V34.4597H46.5836V31.8319ZM57.0947 31.8319H59.7225V34.4597H57.0947V31.8319ZM59.7225 31.8319H62.3503V34.4597H59.7225V31.8319ZM62.3503 31.8319H64.9781V34.4597H62.3503V31.8319ZM64.9781 31.8319H67.6059V34.4597H64.9781V31.8319ZM67.6059 31.8319H70.2336V34.4597H67.6059V31.8319ZM70.2336 31.8319H72.8614V34.4597H70.2336V31.8319ZM72.8614 31.8319H75.4892V34.4597H72.8614V31.8319ZM78.117 31.8319H80.7448V34.4597H78.117V31.8319ZM83.3726 31.8319H86.0003V34.4597H83.3726V31.8319ZM9.79463 34.4597H12.4224V37.0874H9.79463V34.4597ZM12.4224 34.4597H15.0502V37.0874H12.4224V34.4597ZM15.0502 34.4597H17.678V37.0874H15.0502V34.4597ZM20.3058 34.4597H22.9335V37.0874H20.3058V34.4597ZM25.5613 34.4597H28.1891V37.0874H25.5613V34.4597ZM28.1891 34.4597H30.8169V37.0874H28.1891V34.4597ZM30.8169 34.4597H33.4447V37.0874H30.8169V34.4597ZM36.0725 34.4597H38.7002V37.0874H36.0725V34.4597ZM41.328 34.4597H43.9558V37.0874H41.328V34.4597ZM43.9558 34.4597H46.5836V37.0874H43.9558V34.4597ZM49.2114 34.4597H51.8392V37.0874H49.2114V34.4597ZM54.4669 34.4597H57.0947V37.0874H54.4669V34.4597ZM62.3503 34.4597H64.9781V37.0874H62.3503V34.4597ZM70.2336 34.4597H72.8614V37.0874H70.2336V34.4597ZM75.4892 34.4597H78.117V37.0874H75.4892V34.4597ZM78.117 34.4597H80.7448V37.0874H78.117V34.4597ZM80.7448 34.4597H83.3726V37.0874H80.7448V34.4597ZM4.53906 37.0874H7.16685V39.7152H4.53906V37.0874ZM7.16685 37.0874H9.79463V39.7152H7.16685V37.0874ZM9.79463 37.0874H12.4224V39.7152H9.79463V37.0874ZM17.678 37.0874H20.3058V39.7152H17.678V37.0874ZM22.9335 37.0874H25.5613V39.7152H22.9335V37.0874ZM28.1891 37.0874H30.8169V39.7152H28.1891V37.0874ZM46.5836 37.0874H49.2114V39.7152H46.5836V37.0874ZM51.8392 37.0874H54.4669V39.7152H51.8392V37.0874ZM54.4669 37.0874H57.0947V39.7152H54.4669V37.0874ZM57.0947 37.0874H59.7225V39.7152H57.0947V37.0874ZM59.7225 37.0874H62.3503V39.7152H59.7225V37.0874ZM64.9781 37.0874H67.6059V39.7152H64.9781V37.0874ZM72.8614 37.0874H75.4892V39.7152H72.8614V37.0874ZM86.0003 37.0874H88.6281V39.7152H86.0003V37.0874ZM88.6281 37.0874H91.2559V39.7152H88.6281V37.0874ZM4.53906 39.7152H7.16685V42.343H4.53906V39.7152ZM15.0502 39.7152H17.678V42.343H15.0502V39.7152ZM17.678 39.7152H20.3058V42.343H17.678V39.7152ZM20.3058 39.7152H22.9335V42.343H20.3058V39.7152ZM28.1891 39.7152H30.8169V42.343H28.1891V39.7152ZM30.8169 39.7152H33.4447V42.343H30.8169V39.7152ZM33.4447 39.7152H36.0725V42.343H33.4447V39.7152ZM36.0725 39.7152H38.7002V42.343H36.0725V39.7152ZM43.9558 39.7152H46.5836V42.343H43.9558V39.7152ZM49.2114 39.7152H51.8392V42.343H49.2114V39.7152ZM51.8392 39.7152H54.4669V42.343H51.8392V39.7152ZM57.0947 39.7152H59.7225V42.343H57.0947V39.7152ZM59.7225 39.7152H62.3503V42.343H59.7225V39.7152ZM70.2336 39.7152H72.8614V42.343H70.2336V39.7152ZM78.117 39.7152H80.7448V42.343H78.117V39.7152ZM86.0003 39.7152H88.6281V42.343H86.0003V39.7152ZM4.53906 42.343H7.16685V44.9708H4.53906V42.343ZM9.79463 42.343H12.4224V44.9708H9.79463V42.343ZM15.0502 42.343H17.678V44.9708H15.0502V42.343ZM17.678 42.343H20.3058V44.9708H17.678V42.343ZM22.9335 42.343H25.5613V44.9708H22.9335V42.343ZM25.5613 42.343H28.1891V44.9708H25.5613V42.343ZM28.1891 42.343H30.8169V44.9708H28.1891V42.343ZM33.4447 42.343H36.0725V44.9708H33.4447V42.343ZM41.328 42.343H43.9558V44.9708H41.328V42.343ZM46.5836 42.343H49.2114V44.9708H46.5836V42.343ZM59.7225 42.343H62.3503V44.9708H59.7225V42.343ZM62.3503 42.343H64.9781V44.9708H62.3503V42.343ZM64.9781 42.343H67.6059V44.9708H64.9781V42.343ZM70.2336 42.343H72.8614V44.9708H70.2336V42.343ZM72.8614 42.343H75.4892V44.9708H72.8614V42.343ZM83.3726 42.343H86.0003V44.9708H83.3726V42.343ZM4.53906 44.9708H7.16685V47.5986H4.53906V44.9708ZM9.79463 44.9708H12.4224V47.5986H9.79463V44.9708ZM12.4224 44.9708H15.0502V47.5986H12.4224V44.9708ZM15.0502 44.9708H17.678V47.5986H15.0502V44.9708ZM20.3058 44.9708H22.9335V47.5986H20.3058V44.9708ZM28.1891 44.9708H30.8169V47.5986H28.1891V44.9708ZM30.8169 44.9708H33.4447V47.5986H30.8169V44.9708ZM33.4447 44.9708H36.0725V47.5986H33.4447V44.9708ZM49.2114 44.9708H51.8392V47.5986H49.2114V44.9708ZM54.4669 44.9708H57.0947V47.5986H54.4669V44.9708ZM62.3503 44.9708H64.9781V47.5986H62.3503V44.9708ZM64.9781 44.9708H67.6059V47.5986H64.9781V44.9708ZM67.6059 44.9708H70.2336V47.5986H67.6059V44.9708ZM70.2336 44.9708H72.8614V47.5986H70.2336V44.9708ZM75.4892 44.9708H78.117V47.5986H75.4892V44.9708ZM78.117 44.9708H80.7448V47.5986H78.117V44.9708ZM86.0003 44.9708H88.6281V47.5986H86.0003V44.9708ZM7.16685 47.5986H9.79463V50.2264H7.16685V47.5986ZM9.79463 47.5986H12.4224V50.2264H9.79463V47.5986ZM12.4224 47.5986H15.0502V50.2264H12.4224V47.5986ZM17.678 47.5986H20.3058V50.2264H17.678V47.5986ZM25.5613 47.5986H28.1891V50.2264H25.5613V47.5986ZM28.1891 47.5986H30.8169V50.2264H28.1891V47.5986ZM30.8169 47.5986H33.4447V50.2264H30.8169V47.5986ZM36.0725 47.5986H38.7002V50.2264H36.0725V47.5986ZM38.7002 47.5986H41.328V50.2264H38.7002V47.5986ZM41.328 47.5986H43.9558V50.2264H41.328V47.5986ZM46.5836 47.5986H49.2114V50.2264H46.5836V47.5986ZM49.2114 47.5986H51.8392V50.2264H49.2114V47.5986ZM51.8392 47.5986H54.4669V50.2264H51.8392V47.5986ZM54.4669 47.5986H57.0947V50.2264H54.4669V47.5986ZM57.0947 47.5986H59.7225V50.2264H57.0947V47.5986ZM59.7225 47.5986H62.3503V50.2264H59.7225V47.5986ZM62.3503 47.5986H64.9781V50.2264H62.3503V47.5986ZM64.9781 47.5986H67.6059V50.2264H64.9781V47.5986ZM67.6059 47.5986H70.2336V50.2264H67.6059V47.5986ZM72.8614 47.5986H75.4892V50.2264H72.8614V47.5986ZM80.7448 47.5986H83.3726V50.2264H80.7448V47.5986ZM86.0003 47.5986H88.6281V50.2264H86.0003V47.5986ZM88.6281 47.5986H91.2559V50.2264H88.6281V47.5986ZM4.53906 50.2264H7.16685V52.8541H4.53906V50.2264ZM7.16685 50.2264H9.79463V52.8541H7.16685V50.2264ZM17.678 50.2264H20.3058V52.8541H17.678V50.2264ZM20.3058 50.2264H22.9335V52.8541H20.3058V50.2264ZM25.5613 50.2264H28.1891V52.8541H25.5613V50.2264ZM28.1891 50.2264H30.8169V52.8541H28.1891V50.2264ZM38.7002 50.2264H41.328V52.8541H38.7002V50.2264ZM41.328 50.2264H43.9558V52.8541H41.328V50.2264ZM43.9558 50.2264H46.5836V52.8541H43.9558V50.2264ZM49.2114 50.2264H51.8392V52.8541H49.2114V50.2264ZM57.0947 50.2264H59.7225V52.8541H57.0947V50.2264ZM59.7225 50.2264H62.3503V52.8541H59.7225V50.2264ZM70.2336 50.2264H72.8614V52.8541H70.2336V50.2264ZM72.8614 50.2264H75.4892V52.8541H72.8614V50.2264ZM75.4892 50.2264H78.117V52.8541H75.4892V50.2264ZM78.117 50.2264H80.7448V52.8541H78.117V50.2264ZM80.7448 50.2264H83.3726V52.8541H80.7448V50.2264ZM86.0003 50.2264H88.6281V52.8541H86.0003V50.2264ZM4.53906 52.8541H7.16685V55.4819H4.53906V52.8541ZM9.79463 52.8541H12.4224V55.4819H9.79463V52.8541ZM15.0502 52.8541H17.678V55.4819H15.0502V52.8541ZM25.5613 52.8541H28.1891V55.4819H25.5613V52.8541ZM36.0725 52.8541H38.7002V55.4819H36.0725V52.8541ZM38.7002 52.8541H41.328V55.4819H38.7002V52.8541ZM46.5836 52.8541H49.2114V55.4819H46.5836V52.8541ZM59.7225 52.8541H62.3503V55.4819H59.7225V52.8541ZM78.117 52.8541H80.7448V55.4819H78.117V52.8541ZM83.3726 52.8541H86.0003V55.4819H83.3726V52.8541ZM7.16685 55.4819H9.79463V58.1097H7.16685V55.4819ZM12.4224 55.4819H15.0502V58.1097H12.4224V55.4819ZM17.678 55.4819H20.3058V58.1097H17.678V55.4819ZM20.3058 55.4819H22.9335V58.1097H20.3058V55.4819ZM22.9335 55.4819H25.5613V58.1097H22.9335V55.4819ZM25.5613 55.4819H28.1891V58.1097H25.5613V55.4819ZM30.8169 55.4819H33.4447V58.1097H30.8169V55.4819ZM36.0725 55.4819H38.7002V58.1097H36.0725V55.4819ZM41.328 55.4819H43.9558V58.1097H41.328V55.4819ZM49.2114 55.4819H51.8392V58.1097H49.2114V55.4819ZM62.3503 55.4819H64.9781V58.1097H62.3503V55.4819ZM64.9781 55.4819H67.6059V58.1097H64.9781V55.4819ZM67.6059 55.4819H70.2336V58.1097H67.6059V55.4819ZM70.2336 55.4819H72.8614V58.1097H70.2336V55.4819ZM75.4892 55.4819H78.117V58.1097H75.4892V55.4819ZM78.117 55.4819H80.7448V58.1097H78.117V55.4819ZM86.0003 55.4819H88.6281V58.1097H86.0003V55.4819ZM4.53906 58.1097H7.16685V60.7375H4.53906V58.1097ZM12.4224 58.1097H15.0502V60.7375H12.4224V58.1097ZM15.0502 58.1097H17.678V60.7375H15.0502V58.1097ZM25.5613 58.1097H28.1891V60.7375H25.5613V58.1097ZM49.2114 58.1097H51.8392V60.7375H49.2114V58.1097ZM51.8392 58.1097H54.4669V60.7375H51.8392V58.1097ZM54.4669 58.1097H57.0947V60.7375H54.4669V58.1097ZM57.0947 58.1097H59.7225V60.7375H57.0947V58.1097ZM59.7225 58.1097H62.3503V60.7375H59.7225V58.1097ZM62.3503 58.1097H64.9781V60.7375H62.3503V58.1097ZM64.9781 58.1097H67.6059V60.7375H64.9781V58.1097ZM72.8614 58.1097H75.4892V60.7375H72.8614V58.1097ZM75.4892 58.1097H78.117V60.7375H75.4892V58.1097ZM80.7448 58.1097H83.3726V60.7375H80.7448V58.1097ZM86.0003 58.1097H88.6281V60.7375H86.0003V58.1097ZM88.6281 58.1097H91.2559V60.7375H88.6281V58.1097ZM4.53906 60.7375H7.16685V63.3653H4.53906V60.7375ZM12.4224 60.7375H15.0502V63.3653H12.4224V60.7375ZM15.0502 60.7375H17.678V63.3653H15.0502V60.7375ZM20.3058 60.7375H22.9335V63.3653H20.3058V60.7375ZM25.5613 60.7375H28.1891V63.3653H25.5613V60.7375ZM30.8169 60.7375H33.4447V63.3653H30.8169V60.7375ZM33.4447 60.7375H36.0725V63.3653H33.4447V60.7375ZM36.0725 60.7375H38.7002V63.3653H36.0725V60.7375ZM43.9558 60.7375H46.5836V63.3653H43.9558V60.7375ZM59.7225 60.7375H62.3503V63.3653H59.7225V60.7375ZM70.2336 60.7375H72.8614V63.3653H70.2336V60.7375ZM80.7448 60.7375H83.3726V63.3653H80.7448V60.7375ZM86.0003 60.7375H88.6281V63.3653H86.0003V60.7375ZM4.53906 63.3653H7.16685V65.9931H4.53906V63.3653ZM12.4224 63.3653H15.0502V65.9931H12.4224V63.3653ZM17.678 63.3653H20.3058V65.9931H17.678V63.3653ZM28.1891 63.3653H30.8169V65.9931H28.1891V63.3653ZM30.8169 63.3653H33.4447V65.9931H30.8169V63.3653ZM33.4447 63.3653H36.0725V65.9931H33.4447V63.3653ZM41.328 63.3653H43.9558V65.9931H41.328V63.3653ZM43.9558 63.3653H46.5836V65.9931H43.9558V63.3653ZM46.5836 63.3653H49.2114V65.9931H46.5836V63.3653ZM57.0947 63.3653H59.7225V65.9931H57.0947V63.3653ZM59.7225 63.3653H62.3503V65.9931H59.7225V63.3653ZM64.9781 63.3653H67.6059V65.9931H64.9781V63.3653ZM70.2336 63.3653H72.8614V65.9931H70.2336V63.3653ZM75.4892 63.3653H78.117V65.9931H75.4892V63.3653ZM78.117 63.3653H80.7448V65.9931H78.117V63.3653ZM80.7448 63.3653H83.3726V65.9931H80.7448V63.3653ZM83.3726 63.3653H86.0003V65.9931H83.3726V63.3653ZM4.53906 65.9931H7.16685V68.6208H4.53906V65.9931ZM12.4224 65.9931H15.0502V68.6208H12.4224V65.9931ZM20.3058 65.9931H22.9335V68.6208H20.3058V65.9931ZM22.9335 65.9931H25.5613V68.6208H22.9335V65.9931ZM25.5613 65.9931H28.1891V68.6208H25.5613V65.9931ZM30.8169 65.9931H33.4447V68.6208H30.8169V65.9931ZM33.4447 65.9931H36.0725V68.6208H33.4447V65.9931ZM43.9558 65.9931H46.5836V68.6208H43.9558V65.9931ZM49.2114 65.9931H51.8392V68.6208H49.2114V65.9931ZM51.8392 65.9931H54.4669V68.6208H51.8392V65.9931ZM57.0947 65.9931H59.7225V68.6208H57.0947V65.9931ZM62.3503 65.9931H64.9781V68.6208H62.3503V65.9931ZM64.9781 65.9931H67.6059V68.6208H64.9781V65.9931ZM67.6059 65.9931H70.2336V68.6208H67.6059V65.9931ZM70.2336 65.9931H72.8614V68.6208H70.2336V65.9931ZM72.8614 65.9931H75.4892V68.6208H72.8614V65.9931ZM75.4892 65.9931H78.117V68.6208H75.4892V65.9931ZM78.117 65.9931H80.7448V68.6208H78.117V65.9931ZM80.7448 65.9931H83.3726V68.6208H80.7448V65.9931ZM88.6281 65.9931H91.2559V68.6208H88.6281V65.9931ZM25.5613 68.6208H28.1891V71.2486H25.5613V68.6208ZM36.0725 68.6208H38.7002V71.2486H36.0725V68.6208ZM38.7002 68.6208H41.328V71.2486H38.7002V68.6208ZM41.328 68.6208H43.9558V71.2486H41.328V68.6208ZM46.5836 68.6208H49.2114V71.2486H46.5836V68.6208ZM49.2114 68.6208H51.8392V71.2486H49.2114V68.6208ZM51.8392 68.6208H54.4669V71.2486H51.8392V68.6208ZM54.4669 68.6208H57.0947V71.2486H54.4669V68.6208ZM57.0947 68.6208H59.7225V71.2486H57.0947V68.6208ZM59.7225 68.6208H62.3503V71.2486H59.7225V68.6208ZM62.3503 68.6208H64.9781V71.2486H62.3503V68.6208ZM67.6059 68.6208H70.2336V71.2486H67.6059V68.6208ZM78.117 68.6208H80.7448V71.2486H78.117V68.6208ZM83.3726 68.6208H86.0003V71.2486H83.3726V68.6208ZM88.6281 68.6208H91.2559V71.2486H88.6281V68.6208ZM4.53906 71.2486H7.16685V73.8764H4.53906V71.2486ZM7.16685 71.2486H9.79463V73.8764H7.16685V71.2486ZM9.79463 71.2486H12.4224V73.8764H9.79463V71.2486ZM12.4224 71.2486H15.0502V73.8764H12.4224V71.2486ZM15.0502 71.2486H17.678V73.8764H15.0502V71.2486ZM17.678 71.2486H20.3058V73.8764H17.678V71.2486ZM20.3058 71.2486H22.9335V73.8764H20.3058V71.2486ZM25.5613 71.2486H28.1891V73.8764H25.5613V71.2486ZM30.8169 71.2486H33.4447V73.8764H30.8169V71.2486ZM38.7002 71.2486H41.328V73.8764H38.7002V71.2486ZM41.328 71.2486H43.9558V73.8764H41.328V71.2486ZM43.9558 71.2486H46.5836V73.8764H43.9558V71.2486ZM46.5836 71.2486H49.2114V73.8764H46.5836V71.2486ZM49.2114 71.2486H51.8392V73.8764H49.2114V71.2486ZM57.0947 71.2486H59.7225V73.8764H57.0947V71.2486ZM64.9781 71.2486H67.6059V73.8764H64.9781V71.2486ZM67.6059 71.2486H70.2336V73.8764H67.6059V71.2486ZM72.8614 71.2486H75.4892V73.8764H72.8614V71.2486ZM78.117 71.2486H80.7448V73.8764H78.117V71.2486ZM83.3726 71.2486H86.0003V73.8764H83.3726V71.2486ZM86.0003 71.2486H88.6281V73.8764H86.0003V71.2486ZM4.53906 73.8764H7.16685V76.5042H4.53906V73.8764ZM20.3058 73.8764H22.9335V76.5042H20.3058V73.8764ZM28.1891 73.8764H30.8169V76.5042H28.1891V73.8764ZM30.8169 73.8764H33.4447V76.5042H30.8169V73.8764ZM36.0725 73.8764H38.7002V76.5042H36.0725V73.8764ZM38.7002 73.8764H41.328V76.5042H38.7002V73.8764ZM46.5836 73.8764H49.2114V76.5042H46.5836V73.8764ZM51.8392 73.8764H54.4669V76.5042H51.8392V73.8764ZM57.0947 73.8764H59.7225V76.5042H57.0947V73.8764ZM59.7225 73.8764H62.3503V76.5042H59.7225V73.8764ZM62.3503 73.8764H64.9781V76.5042H62.3503V73.8764ZM64.9781 73.8764H67.6059V76.5042H64.9781V73.8764ZM67.6059 73.8764H70.2336V76.5042H67.6059V73.8764ZM78.117 73.8764H80.7448V76.5042H78.117V73.8764ZM80.7448 73.8764H83.3726V76.5042H80.7448V73.8764ZM83.3726 73.8764H86.0003V76.5042H83.3726V73.8764ZM86.0003 73.8764H88.6281V76.5042H86.0003V73.8764ZM88.6281 73.8764H91.2559V76.5042H88.6281V73.8764ZM4.53906 76.5042H7.16685V79.132H4.53906V76.5042ZM9.79463 76.5042H12.4224V79.132H9.79463V76.5042ZM12.4224 76.5042H15.0502V79.132H12.4224V76.5042ZM15.0502 76.5042H17.678V79.132H15.0502V76.5042ZM20.3058 76.5042H22.9335V79.132H20.3058V76.5042ZM25.5613 76.5042H28.1891V79.132H25.5613V76.5042ZM28.1891 76.5042H30.8169V79.132H28.1891V76.5042ZM36.0725 76.5042H38.7002V79.132H36.0725V76.5042ZM41.328 76.5042H43.9558V79.132H41.328V76.5042ZM49.2114 76.5042H51.8392V79.132H49.2114V76.5042ZM67.6059 76.5042H70.2336V79.132H67.6059V76.5042ZM70.2336 76.5042H72.8614V79.132H70.2336V76.5042ZM72.8614 76.5042H75.4892V79.132H72.8614V76.5042ZM75.4892 76.5042H78.117V79.132H75.4892V76.5042ZM78.117 76.5042H80.7448V79.132H78.117V76.5042ZM88.6281 76.5042H91.2559V79.132H88.6281V76.5042ZM4.53906 79.132H7.16685V81.7598H4.53906V79.132ZM9.79463 79.132H12.4224V81.7598H9.79463V79.132ZM12.4224 79.132H15.0502V81.7598H12.4224V79.132ZM15.0502 79.132H17.678V81.7598H15.0502V79.132ZM20.3058 79.132H22.9335V81.7598H20.3058V79.132ZM25.5613 79.132H28.1891V81.7598H25.5613V79.132ZM28.1891 79.132H30.8169V81.7598H28.1891V79.132ZM46.5836 79.132H49.2114V81.7598H46.5836V79.132ZM49.2114 79.132H51.8392V81.7598H49.2114V79.132ZM51.8392 79.132H54.4669V81.7598H51.8392V79.132ZM54.4669 79.132H57.0947V81.7598H54.4669V79.132ZM57.0947 79.132H59.7225V81.7598H57.0947V79.132ZM64.9781 79.132H67.6059V81.7598H64.9781V79.132ZM78.117 79.132H80.7448V81.7598H78.117V79.132ZM80.7448 79.132H83.3726V81.7598H80.7448V79.132ZM86.0003 79.132H88.6281V81.7598H86.0003V79.132ZM88.6281 79.132H91.2559V81.7598H88.6281V79.132ZM4.53906 81.7598H7.16685V84.3875H4.53906V81.7598ZM9.79463 81.7598H12.4224V84.3875H9.79463V81.7598ZM12.4224 81.7598H15.0502V84.3875H12.4224V81.7598ZM15.0502 81.7598H17.678V84.3875H15.0502V81.7598ZM20.3058 81.7598H22.9335V84.3875H20.3058V81.7598ZM25.5613 81.7598H28.1891V84.3875H25.5613V81.7598ZM33.4447 81.7598H36.0725V84.3875H33.4447V81.7598ZM36.0725 81.7598H38.7002V84.3875H36.0725V81.7598ZM43.9558 81.7598H46.5836V84.3875H43.9558V81.7598ZM49.2114 81.7598H51.8392V84.3875H49.2114V81.7598ZM62.3503 81.7598H64.9781V84.3875H62.3503V81.7598ZM67.6059 81.7598H70.2336V84.3875H67.6059V81.7598ZM72.8614 81.7598H75.4892V84.3875H72.8614V81.7598ZM83.3726 81.7598H86.0003V84.3875H83.3726V81.7598ZM4.53906 84.3875H7.16685V87.0153H4.53906V84.3875ZM20.3058 84.3875H22.9335V87.0153H20.3058V84.3875ZM25.5613 84.3875H28.1891V87.0153H25.5613V84.3875ZM28.1891 84.3875H30.8169V87.0153H28.1891V84.3875ZM30.8169 84.3875H33.4447V87.0153H30.8169V84.3875ZM33.4447 84.3875H36.0725V87.0153H33.4447V84.3875ZM41.328 84.3875H43.9558V87.0153H41.328V84.3875ZM43.9558 84.3875H46.5836V87.0153H43.9558V84.3875ZM57.0947 84.3875H59.7225V87.0153H57.0947V84.3875ZM59.7225 84.3875H62.3503V87.0153H59.7225V84.3875ZM62.3503 84.3875H64.9781V87.0153H62.3503V84.3875ZM70.2336 84.3875H72.8614V87.0153H70.2336V84.3875ZM72.8614 84.3875H75.4892V87.0153H72.8614V84.3875ZM80.7448 84.3875H83.3726V87.0153H80.7448V84.3875ZM83.3726 84.3875H86.0003V87.0153H83.3726V84.3875ZM4.53906 87.0153H7.16685V89.6431H4.53906V87.0153ZM7.16685 87.0153H9.79463V89.6431H7.16685V87.0153ZM9.79463 87.0153H12.4224V89.6431H9.79463V87.0153ZM12.4224 87.0153H15.0502V89.6431H12.4224V87.0153ZM15.0502 87.0153H17.678V89.6431H15.0502V87.0153ZM17.678 87.0153H20.3058V89.6431H17.678V87.0153ZM20.3058 87.0153H22.9335V89.6431H20.3058V87.0153ZM25.5613 87.0153H28.1891V89.6431H25.5613V87.0153ZM33.4447 87.0153H36.0725V89.6431H33.4447V87.0153ZM43.9558 87.0153H46.5836V89.6431H43.9558V87.0153ZM46.5836 87.0153H49.2114V89.6431H46.5836V87.0153ZM49.2114 87.0153H51.8392V89.6431H49.2114V87.0153ZM62.3503 87.0153H64.9781V89.6431H62.3503V87.0153ZM64.9781 87.0153H67.6059V89.6431H64.9781V87.0153ZM67.6059 87.0153H70.2336V89.6431H67.6059V87.0153ZM72.8614 87.0153H75.4892V89.6431H72.8614V87.0153ZM75.4892 87.0153H78.117V89.6431H75.4892V87.0153ZM86.0003 87.0153H88.6281V89.6431H86.0003V87.0153Z" fill="black"/>
</svg>
