<svg width="121" height="162" viewBox="0 0 121 162" fill="none" xmlns="http://www.w3.org/2000/svg">
<path fill-rule="evenodd" clip-rule="evenodd" d="M78.1788 158.749H120.454L120.454 150.077C120.454 114.853 120.255 105.316 119.348 96.3177C118.017 83.0536 115.2 69.6752 111.57 59.3845C99.2389 24.4179 77.2116 4.44773 46.5514 0.431694C40.9344 -0.303745 31.9818 -0.0684047 28.698 0.901285C21.7243 2.95942 15.5629 7.77737 10.8014 14.9051C-2.1782 34.3076 -3.67319 68.7011 7.4744 91.1227C12.5902 101.407 19.8231 107.814 29.1906 110.367C30.9967 110.859 32.4657 110.957 37.9358 110.949C44.8318 110.939 47.7958 110.646 54.5362 109.31C61.6568 107.896 65.7875 108.38 69.9354 111.115C72.476 112.795 75.0858 115.67 76.2783 118.113C76.3566 118.276 76.4323 118.43 76.5052 118.579C76.6574 118.889 76.7979 119.175 76.9264 119.467C78.171 122.37 78.1717 125.823 78.1788 158.749Z" fill="#AD95D7"/>
<path d="M27.0146 30.874C21.4833 49.8803 21.7542 59.7211 25.2674 76.3277" stroke="#FFC56F" stroke-width="23.1556" stroke-linecap="round"/>
</svg>
