<svg width="127" height="80" viewBox="0 0 127 80" fill="none" xmlns="http://www.w3.org/2000/svg">
<g opacity="0.7">
<path d="M40.2572 24.231C39.5825 24.231 38.9628 24.1723 38.3982 24.055C37.8408 23.9377 37.3458 23.7947 36.9132 23.626C36.4878 23.45 36.1322 23.2777 35.8462 23.109L35.7032 21.723C36.2532 22.075 36.9058 22.3793 37.6612 22.636C38.4238 22.8927 39.2635 23.021 40.1802 23.021C41.3168 23.021 42.1675 22.8047 42.7322 22.372C43.3042 21.932 43.5902 21.283 43.5902 20.425V20.216C43.5902 19.6513 43.4802 19.1893 43.2602 18.83C43.0402 18.4707 42.6735 18.1737 42.1602 17.939C41.6468 17.697 40.9428 17.4807 40.0482 17.29C38.9775 17.048 38.1268 16.762 37.4962 16.432C36.8655 16.102 36.4145 15.6877 36.1432 15.189C35.8718 14.6903 35.7362 14.0743 35.7362 13.341V13.253C35.7362 12.1237 36.0992 11.251 36.8252 10.635C37.5585 10.019 38.6695 9.711 40.1582 9.711C41.1555 9.711 42.0025 9.821 42.6992 10.041C43.4032 10.261 43.9678 10.4993 44.3932 10.756L44.5252 12.043C44.0192 11.7277 43.4215 11.4563 42.7322 11.229C42.0428 11.0017 41.2435 10.888 40.3342 10.888C39.5715 10.888 38.9555 10.9833 38.4862 11.174C38.0168 11.3647 37.6722 11.6397 37.4522 11.999C37.2395 12.3583 37.1332 12.7873 37.1332 13.286V13.341C37.1332 13.847 37.2358 14.276 37.4412 14.628C37.6465 14.98 38.0058 15.2807 38.5192 15.53C39.0398 15.7793 39.7732 16.014 40.7192 16.234C41.7752 16.4687 42.6112 16.7437 43.2272 17.059C43.8432 17.367 44.2868 17.7703 44.5582 18.269C44.8368 18.7677 44.9762 19.413 44.9762 20.205V20.447C44.9762 21.6863 44.5802 22.6287 43.7882 23.274C42.9962 23.912 41.8192 24.231 40.2572 24.231ZM49.9078 24L47.1358 13.275H48.5218L50.8978 23.01H51.1178L53.5928 13.583H55.5288L58.0038 23.01H58.2238L60.5998 13.275H61.9858L59.2028 24H57.0908L55.0448 16.135L54.6378 14.562H54.4838L54.0768 16.146L52.0308 24H49.9078ZM65.1595 24V13.275H66.5015V24H65.1595ZM65.8305 11.317C65.5371 11.317 65.3135 11.2363 65.1595 11.075C65.0128 10.9137 64.9395 10.6827 64.9395 10.382V10.305C64.9395 10.0117 65.0128 9.78433 65.1595 9.623C65.3135 9.46167 65.5371 9.381 65.8305 9.381C66.1311 9.381 66.3548 9.46167 66.5015 9.623C66.6481 9.78433 66.7215 10.0117 66.7215 10.305V10.382C66.7215 10.6827 66.6481 10.9137 66.5015 11.075C66.3548 11.2363 66.1311 11.317 65.8305 11.317ZM75.4567 24.231C74.7747 24.231 74.1733 24.1063 73.6527 23.857C73.1393 23.6077 72.725 23.2593 72.4097 22.812C72.1017 22.3573 71.911 21.8257 71.8377 21.217H71.3977L71.8267 19.974C71.856 20.6633 72.0173 21.2427 72.3107 21.712C72.604 22.174 72.9927 22.5223 73.4767 22.757C73.9607 22.9917 74.4997 23.109 75.0937 23.109C76.0837 23.109 76.8427 22.8157 77.3707 22.229C77.906 21.635 78.1737 20.7733 78.1737 19.644V17.598C78.1737 16.476 77.9097 15.6217 77.3817 15.035C76.8537 14.441 76.0873 14.144 75.0827 14.144C74.5033 14.144 73.9827 14.265 73.5207 14.507C73.066 14.7417 72.6883 15.068 72.3877 15.486C72.0943 15.8967 71.8963 16.3733 71.7937 16.916L71.4307 15.937H71.8157C71.9183 15.4017 72.12 14.9177 72.4207 14.485C72.7213 14.0523 73.1283 13.7077 73.6417 13.451C74.1623 13.187 74.7893 13.055 75.5227 13.055C76.8207 13.055 77.8107 13.451 78.4927 14.243C79.1747 15.035 79.5157 16.1863 79.5157 17.697V19.556C79.5157 21.074 79.171 22.2327 78.4817 23.032C77.7923 23.8313 76.784 24.231 75.4567 24.231ZM70.5397 27.784V13.275H71.8707L71.8047 15.948L71.8267 16.388V20.931L71.8157 21.239L71.8707 24.198V27.784H70.5397ZM87.3322 24.231C85.7848 24.231 84.6115 23.8423 83.8122 23.065C83.0128 22.2877 82.6132 21.1803 82.6132 19.743V17.653C82.6132 16.157 82.9835 15.0093 83.7242 14.21C84.4722 13.4107 85.5575 13.011 86.9802 13.011C87.9335 13.011 88.7328 13.1907 89.3782 13.55C90.0235 13.9093 90.5075 14.4263 90.8302 15.101C91.1602 15.7757 91.3252 16.586 91.3252 17.532V17.917C91.3252 18.1297 91.3178 18.3423 91.3032 18.555C91.2885 18.7677 91.2702 18.9803 91.2482 19.193H90.0162C90.0308 18.8703 90.0382 18.566 90.0382 18.28C90.0382 17.9867 90.0382 17.719 90.0382 17.477C90.0382 16.7583 89.9208 16.1497 89.6862 15.651C89.4588 15.145 89.1178 14.76 88.6632 14.496C88.2158 14.232 87.6548 14.1 86.9802 14.1C85.9755 14.1 85.2165 14.397 84.7032 14.991C84.1898 15.5777 83.9332 16.4283 83.9332 17.543V18.588L83.9442 18.764V19.875C83.9442 20.3663 84.0138 20.81 84.1532 21.206C84.2998 21.602 84.5198 21.943 84.8132 22.229C85.1138 22.5077 85.4878 22.7203 85.9352 22.867C86.3898 23.0137 86.9178 23.087 87.5192 23.087C88.2158 23.087 88.8612 22.9917 89.4552 22.801C90.0565 22.603 90.6175 22.3317 91.1382 21.987L91.0062 23.186C90.5515 23.5013 90.0125 23.7543 89.3892 23.945C88.7658 24.1357 88.0802 24.231 87.3322 24.231ZM83.3062 19.193V18.17H90.9512V19.193H83.3062Z" fill="white"/>
<path opacity="0.7" d="M49.25 38L62.669 51.419C63.1279 51.8779 63.8721 51.8779 64.331 51.419L77.75 38" stroke="white" stroke-width="1.875" stroke-linecap="round"/>
</g>
</svg>
