<svg width="30" height="25" viewBox="0 0 30 25" fill="none" xmlns="http://www.w3.org/2000/svg">
<path d="M29.7882 3.34684C28.7026 3.82792 27.5363 4.15297 26.3102 4.29989C27.5753 3.5429 28.5218 2.35148 28.973 0.947947C27.7844 1.65395 26.4836 2.1509 25.127 2.41719C24.2147 1.44315 23.0064 0.797547 21.6896 0.580603C20.3729 0.36366 19.0213 0.587517 17.8448 1.21742C16.6683 1.84732 15.7327 2.84803 15.1832 4.06417C14.6337 5.28031 14.501 6.64385 14.8059 7.94309C12.3975 7.82216 7.89062 7.94309 5.73981 6.85267C3.58899 5.76226 3.8423 3.48487 2.32126 1.61366C1.80118 2.5108 1.50213 3.55097 1.50213 4.65875C1.50155 5.65601 1.74713 6.63799 2.21709 7.51757C2.68704 8.39715 3.36684 9.14713 4.19617 9.70098C3.23437 9.67037 2.29379 9.41049 1.45272 8.94295V9.02096C1.45262 10.4197 1.93644 11.7753 2.82208 12.8579C3.70772 13.9405 4.94063 14.6833 6.31161 14.9603C5.41939 15.2018 4.48395 15.2374 3.57597 15.0644C3.96277 16.2678 4.71625 17.3203 5.7309 18.0742C6.74554 18.8282 7.97057 19.2461 9.23449 19.2692C7.08892 20.9535 4.43916 21.8672 1.71146 21.8632C1.22828 21.8633 0.745503 21.8351 0.265625 21.7786C3.0344 23.5589 6.25745 24.5037 9.54914 24.5C20.692 24.5 26.7835 15.2711 26.7835 7.26698C26.7835 7.00694 26.777 6.74429 26.7653 6.48425C27.9501 5.62738 28.9729 4.5663 29.7856 3.35074L29.7882 3.34684Z" fill="#4D2E99"/>
</svg>
