<svg width="1439" height="761" viewBox="0 0 1439 761" fill="none" xmlns="http://www.w3.org/2000/svg">
<g opacity="0.5">
<path opacity="0.1" d="M23.2479 12.9663C24.4181 10.0247 28.5819 10.0247 29.7521 12.9663L31.4153 17.147C32.1154 18.907 33.5484 20.2741 35.3394 20.8905L38.7759 22.0733C41.9238 23.1568 41.9238 27.6087 38.7759 28.6922L35.3394 29.875C33.5484 30.4915 32.1154 31.8585 31.4153 33.6185L29.7521 37.7992C28.5819 40.7409 24.4181 40.7409 23.2479 37.7992L21.5847 33.6185C20.8846 31.8585 19.4516 30.4915 17.6606 29.875L14.2241 28.6922C11.0762 27.6087 11.0762 23.1568 14.2241 22.0733L17.6606 20.8905C19.4516 20.2741 20.8846 18.907 21.5847 17.147L23.2479 12.9663Z" stroke="#533097" stroke-width="3"/>
<path opacity="0.1" d="M275.248 13.233C276.418 10.2913 280.582 10.2913 281.752 13.233L283.415 17.4136C284.115 19.1736 285.548 20.5407 287.339 21.1571L290.776 22.3399C293.924 23.4234 293.924 27.8753 290.776 28.9588L287.339 30.1416C285.548 30.7581 284.115 32.1251 283.415 33.8851L281.752 38.0658C280.582 41.0075 276.418 41.0075 275.248 38.0658L273.585 33.8851C272.885 32.1251 271.452 30.7581 269.661 30.1416L266.224 28.9588C263.076 27.8753 263.076 23.4234 266.224 22.3399L269.661 21.1571C271.452 20.5407 272.885 19.1736 273.585 17.4136L275.248 13.233Z" stroke="#533097" stroke-width="3"/>
<path opacity="0.1" d="M527.248 12.233C528.418 9.29127 532.582 9.29127 533.752 12.233L535.415 16.4136C536.115 18.1736 537.548 19.5407 539.339 20.1571L542.776 21.3399C545.924 22.4234 545.924 26.8753 542.776 27.9588L539.339 29.1416C537.548 29.7581 536.115 31.1251 535.415 32.8851L533.752 37.0658C532.582 40.0075 528.418 40.0075 527.248 37.0658L525.585 32.8851C524.885 31.1251 523.452 29.7581 521.661 29.1416L518.224 27.9588C515.076 26.8753 515.076 22.4234 518.224 21.3399L521.661 20.1571C523.452 19.5407 524.885 18.1736 525.585 16.4136L527.248 12.233Z" stroke="#533097" stroke-width="3"/>
<path opacity="0.1" d="M23.2479 418.966C24.4181 416.025 28.5819 416.025 29.7521 418.966L31.4153 423.147C32.1154 424.907 33.5484 426.274 35.3394 426.891L38.7759 428.073C41.9238 429.157 41.9238 433.609 38.7759 434.692L35.3394 435.875C33.5484 436.491 32.1154 437.859 31.4153 439.618L29.7521 443.799C28.5819 446.741 24.4181 446.741 23.2479 443.799L21.5847 439.618C20.8846 437.859 19.4516 436.491 17.6606 435.875L14.2241 434.692C11.0762 433.609 11.0762 429.157 14.2241 428.073L17.6606 426.891C19.4516 426.274 20.8846 424.907 21.5847 423.147L23.2479 418.966Z" stroke="#533097" stroke-width="3"/>
<path opacity="0.1" d="M275.248 419.233C276.418 416.291 280.582 416.291 281.752 419.233L283.415 423.414C284.115 425.174 285.548 426.541 287.339 427.157L290.776 428.34C293.924 429.423 293.924 433.875 290.776 434.959L287.339 436.142C285.548 436.758 284.115 438.125 283.415 439.885L281.752 444.066C280.582 447.007 276.418 447.007 275.248 444.066L273.585 439.885C272.885 438.125 271.452 436.758 269.661 436.142L266.224 434.959C263.076 433.875 263.076 429.423 266.224 428.34L269.661 427.157C271.452 426.541 272.885 425.174 273.585 423.414L275.248 419.233Z" stroke="#533097" stroke-width="3"/>
<path opacity="0.1" d="M527.248 418.233C528.418 415.291 532.582 415.291 533.752 418.233L535.415 422.414C536.115 424.174 537.548 425.541 539.339 426.157L542.776 427.34C545.924 428.423 545.924 432.875 542.776 433.959L539.339 435.142C537.548 435.758 536.115 437.125 535.415 438.885L533.752 443.066C532.582 446.007 528.418 446.007 527.248 443.066L525.585 438.885C524.885 437.125 523.452 435.758 521.661 435.142L518.224 433.959C515.076 432.875 515.076 428.423 518.224 427.34L521.661 426.157C523.452 425.541 524.885 424.174 525.585 422.414L527.248 418.233Z" stroke="#533097" stroke-width="3"/>
<path opacity="0.1" d="M23.2479 215.966C24.4181 213.025 28.5819 213.025 29.7521 215.966L31.4153 220.147C32.1154 221.907 33.5484 223.274 35.3394 223.891L38.7759 225.073C41.9238 226.157 41.9238 230.609 38.7759 231.692L35.3394 232.875C33.5484 233.491 32.1154 234.859 31.4153 236.618L29.7521 240.799C28.5819 243.741 24.4181 243.741 23.2479 240.799L21.5847 236.618C20.8846 234.859 19.4516 233.491 17.6606 232.875L14.2241 231.692C11.0762 230.609 11.0762 226.157 14.2241 225.073L17.6606 223.891C19.4516 223.274 20.8846 221.907 21.5847 220.147L23.2479 215.966Z" stroke="#533097" stroke-width="3"/>
<path opacity="0.1" d="M275.248 216.233C276.418 213.291 280.582 213.291 281.752 216.233L283.415 220.414C284.115 222.174 285.548 223.541 287.339 224.157L290.776 225.34C293.924 226.423 293.924 230.875 290.776 231.959L287.339 233.142C285.548 233.758 284.115 235.125 283.415 236.885L281.752 241.066C280.582 244.007 276.418 244.007 275.248 241.066L273.585 236.885C272.885 235.125 271.452 233.758 269.661 233.142L266.224 231.959C263.076 230.875 263.076 226.423 266.224 225.34L269.661 224.157C271.452 223.541 272.885 222.174 273.585 220.414L275.248 216.233Z" stroke="#533097" stroke-width="3"/>
<path opacity="0.1" d="M527.248 215.233C528.418 212.291 532.582 212.291 533.752 215.233L535.415 219.414C536.115 221.174 537.548 222.541 539.339 223.157L542.776 224.34C545.924 225.423 545.924 229.875 542.776 230.959L539.339 232.142C537.548 232.758 536.115 234.125 535.415 235.885L533.752 240.066C532.582 243.007 528.418 243.007 527.248 240.066L525.585 235.885C524.885 234.125 523.452 232.758 521.661 232.142L518.224 230.959C515.076 229.875 515.076 225.423 518.224 224.34L521.661 223.157C523.452 222.541 524.885 221.174 525.585 219.414L527.248 215.233Z" stroke="#533097" stroke-width="3"/>
<path opacity="0.1" d="M23.2479 621.966C24.4181 619.025 28.5819 619.025 29.7521 621.966L31.4153 626.147C32.1154 627.907 33.5484 629.274 35.3394 629.891L38.7759 631.073C41.9238 632.157 41.9238 636.609 38.7759 637.692L35.3394 638.875C33.5484 639.491 32.1154 640.859 31.4153 642.618L29.7521 646.799C28.5819 649.741 24.4181 649.741 23.2479 646.799L21.5847 642.618C20.8846 640.859 19.4516 639.491 17.6606 638.875L14.2241 637.692C11.0762 636.609 11.0762 632.157 14.2241 631.073L17.6606 629.891C19.4516 629.274 20.8846 627.907 21.5847 626.147L23.2479 621.966Z" stroke="#533097" stroke-width="3"/>
<path opacity="0.1" d="M275.248 622.233C276.418 619.291 280.582 619.291 281.752 622.233L283.415 626.414C284.115 628.174 285.548 629.541 287.339 630.157L290.776 631.34C293.924 632.423 293.924 636.875 290.776 637.959L287.339 639.142C285.548 639.758 284.115 641.125 283.415 642.885L281.752 647.066C280.582 650.007 276.418 650.007 275.248 647.066L273.585 642.885C272.885 641.125 271.452 639.758 269.661 639.142L266.224 637.959C263.076 636.875 263.076 632.423 266.224 631.34L269.661 630.157C271.452 629.541 272.885 628.174 273.585 626.414L275.248 622.233Z" stroke="#533097" stroke-width="3"/>
<path opacity="0.1" d="M527.248 621.233C528.418 618.291 532.582 618.291 533.752 621.233L535.415 625.414C536.115 627.174 537.548 628.541 539.339 629.157L542.776 630.34C545.924 631.423 545.924 635.875 542.776 636.959L539.339 638.142C537.548 638.758 536.115 640.125 535.415 641.885L533.752 646.066C532.582 649.007 528.418 649.007 527.248 646.066L525.585 641.885C524.885 640.125 523.452 638.758 521.661 638.142L518.224 636.959C515.076 635.875 515.076 631.423 518.224 630.34L521.661 629.157C523.452 628.541 524.885 627.174 525.585 625.414L527.248 621.233Z" stroke="#533097" stroke-width="3"/>
<path opacity="0.1" d="M779.248 12.233C780.418 9.29127 784.582 9.29127 785.752 12.233L787.415 16.4136C788.115 18.1736 789.548 19.5407 791.339 20.1571L794.776 21.3399C797.924 22.4234 797.924 26.8753 794.776 27.9588L791.339 29.1416C789.548 29.7581 788.115 31.1251 787.415 32.8851L785.752 37.0658C784.582 40.0075 780.418 40.0075 779.248 37.0658L777.585 32.8851C776.885 31.1251 775.452 29.7581 773.661 29.1416L770.224 27.9588C767.076 26.8753 767.076 22.4234 770.224 21.3399L773.661 20.1571C775.452 19.5407 776.885 18.1736 777.585 16.4136L779.248 12.233Z" stroke="#533097" stroke-width="3"/>
<path opacity="0.1" d="M779.248 418.233C780.418 415.291 784.582 415.291 785.752 418.233L787.415 422.414C788.115 424.174 789.548 425.541 791.339 426.157L794.776 427.34C797.924 428.423 797.924 432.875 794.776 433.959L791.339 435.142C789.548 435.758 788.115 437.125 787.415 438.885L785.752 443.066C784.582 446.007 780.418 446.007 779.248 443.066L777.585 438.885C776.885 437.125 775.452 435.758 773.661 435.142L770.224 433.959C767.076 432.875 767.076 428.423 770.224 427.34L773.661 426.157C775.452 425.541 776.885 424.174 777.585 422.414L779.248 418.233Z" stroke="#533097" stroke-width="3"/>
<path opacity="0.1" d="M779.248 215.233C780.418 212.291 784.582 212.291 785.752 215.233L787.415 219.414C788.115 221.174 789.548 222.541 791.339 223.157L794.776 224.34C797.924 225.423 797.924 229.875 794.776 230.959L791.339 232.142C789.548 232.758 788.115 234.125 787.415 235.885L785.752 240.066C784.582 243.007 780.418 243.007 779.248 240.066L777.585 235.885C776.885 234.125 775.452 232.758 773.661 232.142L770.224 230.959C767.076 229.875 767.076 225.423 770.224 224.34L773.661 223.157C775.452 222.541 776.885 221.174 777.585 219.414L779.248 215.233Z" stroke="#533097" stroke-width="3"/>
<path opacity="0.1" d="M779.248 621.233C780.418 618.291 784.582 618.291 785.752 621.233L787.415 625.414C788.115 627.174 789.548 628.541 791.339 629.157L794.776 630.34C797.924 631.423 797.924 635.875 794.776 636.959L791.339 638.142C789.548 638.758 788.115 640.125 787.415 641.885L785.752 646.066C784.582 649.007 780.418 649.007 779.248 646.066L777.585 641.885C776.885 640.125 775.452 638.758 773.661 638.142L770.224 636.959C767.076 635.875 767.076 631.423 770.224 630.34L773.661 629.157C775.452 628.541 776.885 627.174 777.585 625.414L779.248 621.233Z" stroke="#533097" stroke-width="3"/>
<path opacity="0.1" d="M1031.25 13.233C1032.42 10.2913 1036.58 10.2913 1037.75 13.233L1039.42 17.4136C1040.12 19.1736 1041.55 20.5407 1043.34 21.1571L1046.78 22.3399C1049.92 23.4234 1049.92 27.8753 1046.78 28.9588L1043.34 30.1416C1041.55 30.7581 1040.12 32.1251 1039.42 33.8851L1037.75 38.0658C1036.58 41.0075 1032.42 41.0075 1031.25 38.0658L1029.58 33.8851C1028.88 32.1251 1027.45 30.7581 1025.66 30.1416L1022.22 28.9588C1019.08 27.8753 1019.08 23.4234 1022.22 22.3399L1025.66 21.1571C1027.45 20.5407 1028.88 19.1736 1029.58 17.4136L1031.25 13.233Z" stroke="#533097" stroke-width="3"/>
<path opacity="0.1" d="M1031.25 419.233C1032.42 416.291 1036.58 416.291 1037.75 419.233L1039.42 423.414C1040.12 425.174 1041.55 426.541 1043.34 427.157L1046.78 428.34C1049.92 429.423 1049.92 433.875 1046.78 434.959L1043.34 436.142C1041.55 436.758 1040.12 438.125 1039.42 439.885L1037.75 444.066C1036.58 447.007 1032.42 447.007 1031.25 444.066L1029.58 439.885C1028.88 438.125 1027.45 436.758 1025.66 436.142L1022.22 434.959C1019.08 433.875 1019.08 429.423 1022.22 428.34L1025.66 427.157C1027.45 426.541 1028.88 425.174 1029.58 423.414L1031.25 419.233Z" stroke="#533097" stroke-width="3"/>
<path opacity="0.1" d="M1031.25 216.233C1032.42 213.291 1036.58 213.291 1037.75 216.233L1039.42 220.414C1040.12 222.174 1041.55 223.541 1043.34 224.157L1046.78 225.34C1049.92 226.423 1049.92 230.875 1046.78 231.959L1043.34 233.142C1041.55 233.758 1040.12 235.125 1039.42 236.885L1037.75 241.066C1036.58 244.007 1032.42 244.007 1031.25 241.066L1029.58 236.885C1028.88 235.125 1027.45 233.758 1025.66 233.142L1022.22 231.959C1019.08 230.875 1019.08 226.423 1022.22 225.34L1025.66 224.157C1027.45 223.541 1028.88 222.174 1029.58 220.414L1031.25 216.233Z" stroke="#533097" stroke-width="3"/>
<path opacity="0.1" d="M1031.25 622.233C1032.42 619.291 1036.58 619.291 1037.75 622.233L1039.42 626.414C1040.12 628.174 1041.55 629.541 1043.34 630.157L1046.78 631.34C1049.92 632.423 1049.92 636.875 1046.78 637.959L1043.34 639.142C1041.55 639.758 1040.12 641.125 1039.42 642.885L1037.75 647.066C1036.58 650.007 1032.42 650.007 1031.25 647.066L1029.58 642.885C1028.88 641.125 1027.45 639.758 1025.66 639.142L1022.22 637.959C1019.08 636.875 1019.08 632.423 1022.22 631.34L1025.66 630.157C1027.45 629.541 1028.88 628.174 1029.58 626.414L1031.25 622.233Z" stroke="#533097" stroke-width="3"/>
<path opacity="0.1" d="M1283.25 13.233C1284.42 10.2913 1288.58 10.2913 1289.75 13.233L1291.42 17.4136C1292.12 19.1736 1293.55 20.5407 1295.34 21.1571L1298.78 22.3399C1301.92 23.4234 1301.92 27.8753 1298.78 28.9588L1295.34 30.1416C1293.55 30.7581 1292.12 32.1251 1291.42 33.8851L1289.75 38.0658C1288.58 41.0075 1284.42 41.0075 1283.25 38.0658L1281.58 33.8851C1280.88 32.1251 1279.45 30.7581 1277.66 30.1416L1274.22 28.9588C1271.08 27.8753 1271.08 23.4234 1274.22 22.3399L1277.66 21.1571C1279.45 20.5407 1280.88 19.1736 1281.58 17.4136L1283.25 13.233Z" stroke="#533097" stroke-width="3"/>
<path opacity="0.1" d="M1283.25 419.233C1284.42 416.291 1288.58 416.291 1289.75 419.233L1291.42 423.414C1292.12 425.174 1293.55 426.541 1295.34 427.157L1298.78 428.34C1301.92 429.423 1301.92 433.875 1298.78 434.959L1295.34 436.142C1293.55 436.758 1292.12 438.125 1291.42 439.885L1289.75 444.066C1288.58 447.007 1284.42 447.007 1283.25 444.066L1281.58 439.885C1280.88 438.125 1279.45 436.758 1277.66 436.142L1274.22 434.959C1271.08 433.875 1271.08 429.423 1274.22 428.34L1277.66 427.157C1279.45 426.541 1280.88 425.174 1281.58 423.414L1283.25 419.233Z" stroke="#533097" stroke-width="3"/>
<path opacity="0.1" d="M1283.25 216.233C1284.42 213.291 1288.58 213.291 1289.75 216.233L1291.42 220.414C1292.12 222.174 1293.55 223.541 1295.34 224.157L1298.78 225.34C1301.92 226.423 1301.92 230.875 1298.78 231.959L1295.34 233.142C1293.55 233.758 1292.12 235.125 1291.42 236.885L1289.75 241.066C1288.58 244.007 1284.42 244.007 1283.25 241.066L1281.58 236.885C1280.88 235.125 1279.45 233.758 1277.66 233.142L1274.22 231.959C1271.08 230.875 1271.08 226.423 1274.22 225.34L1277.66 224.157C1279.45 223.541 1280.88 222.174 1281.58 220.414L1283.25 216.233Z" stroke="#533097" stroke-width="3"/>
<path opacity="0.1" d="M1283.25 622.233C1284.42 619.291 1288.58 619.291 1289.75 622.233L1291.42 626.414C1292.12 628.174 1293.55 629.541 1295.34 630.157L1298.78 631.34C1301.92 632.423 1301.92 636.875 1298.78 637.959L1295.34 639.142C1293.55 639.758 1292.12 641.125 1291.42 642.885L1289.75 647.066C1288.58 650.007 1284.42 650.007 1283.25 647.066L1281.58 642.885C1280.88 641.125 1279.45 639.758 1277.66 639.142L1274.22 637.959C1271.08 636.875 1271.08 632.423 1274.22 631.34L1277.66 630.157C1279.45 629.541 1280.88 628.174 1281.58 626.414L1283.25 622.233Z" stroke="#533097" stroke-width="3"/>
<path opacity="0.1" d="M653.248 114.233C654.418 111.291 658.582 111.291 659.752 114.233L661.415 118.414C662.115 120.174 663.548 121.541 665.339 122.157L668.776 123.34C671.924 124.423 671.924 128.875 668.776 129.959L665.339 131.142C663.548 131.758 662.115 133.125 661.415 134.885L659.752 139.066C658.582 142.007 654.418 142.007 653.248 139.066L651.585 134.885C650.885 133.125 649.452 131.758 647.661 131.142L644.224 129.959C641.076 128.875 641.076 124.423 644.224 123.34L647.661 122.157C649.452 121.541 650.885 120.174 651.585 118.414L653.248 114.233Z" stroke="#533097" stroke-width="3"/>
<path opacity="0.1" d="M401.248 114.233C402.418 111.291 406.582 111.291 407.752 114.233L409.415 118.414C410.115 120.174 411.548 121.541 413.339 122.157L416.776 123.34C419.924 124.423 419.924 128.875 416.776 129.959L413.339 131.142C411.548 131.758 410.115 133.125 409.415 134.885L407.752 139.066C406.582 142.007 402.418 142.007 401.248 139.066L399.585 134.885C398.885 133.125 397.452 131.758 395.661 131.142L392.224 129.959C389.076 128.875 389.076 124.423 392.224 123.34L395.661 122.157C397.452 121.541 398.885 120.174 399.585 118.414L401.248 114.233Z" stroke="#533097" stroke-width="3"/>
<path opacity="0.1" d="M149.248 114.233C150.418 111.291 154.582 111.291 155.752 114.233L157.415 118.414C158.115 120.174 159.548 121.541 161.339 122.157L164.776 123.34C167.924 124.423 167.924 128.875 164.776 129.959L161.339 131.142C159.548 131.758 158.115 133.125 157.415 134.885L155.752 139.066C154.582 142.007 150.418 142.007 149.248 139.066L147.585 134.885C146.885 133.125 145.452 131.758 143.661 131.142L140.224 129.959C137.076 128.875 137.076 124.423 140.224 123.34L143.661 122.157C145.452 121.541 146.885 120.174 147.585 118.414L149.248 114.233Z" stroke="#533097" stroke-width="3"/>
<path opacity="0.1" d="M653.248 520.233C654.418 517.291 658.582 517.291 659.752 520.233L661.415 524.414C662.115 526.174 663.548 527.541 665.339 528.157L668.776 529.34C671.924 530.423 671.924 534.875 668.776 535.959L665.339 537.142C663.548 537.758 662.115 539.125 661.415 540.885L659.752 545.066C658.582 548.007 654.418 548.007 653.248 545.066L651.585 540.885C650.885 539.125 649.452 537.758 647.661 537.142L644.224 535.959C641.076 534.875 641.076 530.423 644.224 529.34L647.661 528.157C649.452 527.541 650.885 526.174 651.585 524.414L653.248 520.233Z" stroke="#533097" stroke-width="3"/>
<path opacity="0.1" d="M401.248 520.233C402.418 517.291 406.582 517.291 407.752 520.233L409.415 524.414C410.115 526.174 411.548 527.541 413.339 528.157L416.776 529.34C419.924 530.423 419.924 534.875 416.776 535.959L413.339 537.142C411.548 537.758 410.115 539.125 409.415 540.885L407.752 545.066C406.582 548.007 402.418 548.007 401.248 545.066L399.585 540.885C398.885 539.125 397.452 537.758 395.661 537.142L392.224 535.959C389.076 534.875 389.076 530.423 392.224 529.34L395.661 528.157C397.452 527.541 398.885 526.174 399.585 524.414L401.248 520.233Z" stroke="#533097" stroke-width="3"/>
<path opacity="0.1" d="M149.248 520.233C150.418 517.291 154.582 517.291 155.752 520.233L157.415 524.414C158.115 526.174 159.548 527.541 161.339 528.157L164.776 529.34C167.924 530.423 167.924 534.875 164.776 535.959L161.339 537.142C159.548 537.758 158.115 539.125 157.415 540.885L155.752 545.066C154.582 548.007 150.418 548.007 149.248 545.066L147.585 540.885C146.885 539.125 145.452 537.758 143.661 537.142L140.224 535.959C137.076 534.875 137.076 530.423 140.224 529.34L143.661 528.157C145.452 527.541 146.885 526.174 147.585 524.414L149.248 520.233Z" stroke="#533097" stroke-width="3"/>
<path opacity="0.1" d="M653.248 317.233C654.418 314.291 658.582 314.291 659.752 317.233L661.415 321.414C662.115 323.174 663.548 324.541 665.339 325.157L668.776 326.34C671.924 327.423 671.924 331.875 668.776 332.959L665.339 334.142C663.548 334.758 662.115 336.125 661.415 337.885L659.752 342.066C658.582 345.007 654.418 345.007 653.248 342.066L651.585 337.885C650.885 336.125 649.452 334.758 647.661 334.142L644.224 332.959C641.076 331.875 641.076 327.423 644.224 326.34L647.661 325.157C649.452 324.541 650.885 323.174 651.585 321.414L653.248 317.233Z" stroke="#533097" stroke-width="3"/>
<path opacity="0.1" d="M401.248 317.233C402.418 314.291 406.582 314.291 407.752 317.233L409.415 321.414C410.115 323.174 411.548 324.541 413.339 325.157L416.776 326.34C419.924 327.423 419.924 331.875 416.776 332.959L413.339 334.142C411.548 334.758 410.115 336.125 409.415 337.885L407.752 342.066C406.582 345.007 402.418 345.007 401.248 342.066L399.585 337.885C398.885 336.125 397.452 334.758 395.661 334.142L392.224 332.959C389.076 331.875 389.076 327.423 392.224 326.34L395.661 325.157C397.452 324.541 398.885 323.174 399.585 321.414L401.248 317.233Z" stroke="#533097" stroke-width="3"/>
<path opacity="0.1" d="M149.248 317.233C150.418 314.291 154.582 314.291 155.752 317.233L157.415 321.414C158.115 323.174 159.548 324.541 161.339 325.157L164.776 326.34C167.924 327.423 167.924 331.875 164.776 332.959L161.339 334.142C159.548 334.758 158.115 336.125 157.415 337.885L155.752 342.066C154.582 345.007 150.418 345.007 149.248 342.066L147.585 337.885C146.885 336.125 145.452 334.758 143.661 334.142L140.224 332.959C137.076 331.875 137.076 327.423 140.224 326.34L143.661 325.157C145.452 324.541 146.885 323.174 147.585 321.414L149.248 317.233Z" stroke="#533097" stroke-width="3"/>
<path opacity="0.1" d="M905.248 114.233C906.418 111.291 910.582 111.291 911.752 114.233L913.415 118.414C914.115 120.174 915.548 121.541 917.339 122.157L920.776 123.34C923.924 124.423 923.924 128.875 920.776 129.959L917.339 131.142C915.548 131.758 914.115 133.125 913.415 134.885L911.752 139.066C910.582 142.007 906.418 142.007 905.248 139.066L903.585 134.885C902.885 133.125 901.452 131.758 899.661 131.142L896.224 129.959C893.076 128.875 893.076 124.423 896.224 123.34L899.661 122.157C901.452 121.541 902.885 120.174 903.585 118.414L905.248 114.233Z" stroke="#533097" stroke-width="3"/>
<path opacity="0.1" d="M905.248 520.233C906.418 517.291 910.582 517.291 911.752 520.233L913.415 524.414C914.115 526.174 915.548 527.541 917.339 528.157L920.776 529.34C923.924 530.423 923.924 534.875 920.776 535.959L917.339 537.142C915.548 537.758 914.115 539.125 913.415 540.885L911.752 545.066C910.582 548.007 906.418 548.007 905.248 545.066L903.585 540.885C902.885 539.125 901.452 537.758 899.661 537.142L896.224 535.959C893.076 534.875 893.076 530.423 896.224 529.34L899.661 528.157C901.452 527.541 902.885 526.174 903.585 524.414L905.248 520.233Z" stroke="#533097" stroke-width="3"/>
<path opacity="0.1" d="M905.248 317.233C906.418 314.291 910.582 314.291 911.752 317.233L913.415 321.414C914.115 323.174 915.548 324.541 917.339 325.157L920.776 326.34C923.924 327.423 923.924 331.875 920.776 332.959L917.339 334.142C915.548 334.758 914.115 336.125 913.415 337.885L911.752 342.066C910.582 345.007 906.418 345.007 905.248 342.066L903.585 337.885C902.885 336.125 901.452 334.758 899.661 334.142L896.224 332.959C893.076 331.875 893.076 327.423 896.224 326.34L899.661 325.157C901.452 324.541 902.885 323.174 903.585 321.414L905.248 317.233Z" stroke="#533097" stroke-width="3"/>
<path opacity="0.1" d="M905.248 723.233C906.418 720.291 910.582 720.291 911.752 723.233L913.415 727.414C914.115 729.174 915.548 730.541 917.339 731.157L920.776 732.34C923.924 733.423 923.924 737.875 920.776 738.959L917.339 740.142C915.548 740.758 914.115 742.125 913.415 743.885L911.752 748.066C910.582 751.007 906.418 751.007 905.248 748.066L903.585 743.885C902.885 742.125 901.452 740.758 899.661 740.142L896.224 738.959C893.076 737.875 893.076 733.423 896.224 732.34L899.661 731.157C901.452 730.541 902.885 729.174 903.585 727.414L905.248 723.233Z" stroke="#533097" stroke-width="3"/>
<path opacity="0.1" d="M1157.25 114.233C1158.42 111.291 1162.58 111.291 1163.75 114.233L1165.42 118.414C1166.12 120.174 1167.55 121.541 1169.34 122.157L1172.78 123.34C1175.92 124.423 1175.92 128.875 1172.78 129.959L1169.34 131.142C1167.55 131.758 1166.12 133.125 1165.42 134.885L1163.75 139.066C1162.58 142.007 1158.42 142.007 1157.25 139.066L1155.58 134.885C1154.88 133.125 1153.45 131.758 1151.66 131.142L1148.22 129.959C1145.08 128.875 1145.08 124.423 1148.22 123.34L1151.66 122.157C1153.45 121.541 1154.88 120.174 1155.58 118.414L1157.25 114.233Z" stroke="#533097" stroke-width="3"/>
<path opacity="0.1" d="M1157.25 520.233C1158.42 517.291 1162.58 517.291 1163.75 520.233L1165.42 524.414C1166.12 526.174 1167.55 527.541 1169.34 528.157L1172.78 529.34C1175.92 530.423 1175.92 534.875 1172.78 535.959L1169.34 537.142C1167.55 537.758 1166.12 539.125 1165.42 540.885L1163.75 545.066C1162.58 548.007 1158.42 548.007 1157.25 545.066L1155.58 540.885C1154.88 539.125 1153.45 537.758 1151.66 537.142L1148.22 535.959C1145.08 534.875 1145.08 530.423 1148.22 529.34L1151.66 528.157C1153.45 527.541 1154.88 526.174 1155.58 524.414L1157.25 520.233Z" stroke="#533097" stroke-width="3"/>
<path opacity="0.1" d="M1157.25 317.233C1158.42 314.291 1162.58 314.291 1163.75 317.233L1165.42 321.414C1166.12 323.174 1167.55 324.541 1169.34 325.157L1172.78 326.34C1175.92 327.423 1175.92 331.875 1172.78 332.959L1169.34 334.142C1167.55 334.758 1166.12 336.125 1165.42 337.885L1163.75 342.066C1162.58 345.007 1158.42 345.007 1157.25 342.066L1155.58 337.885C1154.88 336.125 1153.45 334.758 1151.66 334.142L1148.22 332.959C1145.08 331.875 1145.08 327.423 1148.22 326.34L1151.66 325.157C1153.45 324.541 1154.88 323.174 1155.58 321.414L1157.25 317.233Z" stroke="#533097" stroke-width="3"/>
<path opacity="0.1" d="M1157.25 723.233C1158.42 720.291 1162.58 720.291 1163.75 723.233L1165.42 727.414C1166.12 729.174 1167.55 730.541 1169.34 731.157L1172.78 732.34C1175.92 733.423 1175.92 737.875 1172.78 738.959L1169.34 740.142C1167.55 740.758 1166.12 742.125 1165.42 743.885L1163.75 748.066C1162.58 751.007 1158.42 751.007 1157.25 748.066L1155.58 743.885C1154.88 742.125 1153.45 740.758 1151.66 740.142L1148.22 738.959C1145.08 737.875 1145.08 733.423 1148.22 732.34L1151.66 731.157C1153.45 730.541 1154.88 729.174 1155.58 727.414L1157.25 723.233Z" stroke="#533097" stroke-width="3"/>
<path opacity="0.1" d="M1409.25 114.233C1410.42 111.291 1414.58 111.291 1415.75 114.233L1417.42 118.414C1418.12 120.174 1419.55 121.541 1421.34 122.157L1424.78 123.34C1427.92 124.423 1427.92 128.875 1424.78 129.959L1421.34 131.142C1419.55 131.758 1418.12 133.125 1417.42 134.885L1415.75 139.066C1414.58 142.007 1410.42 142.007 1409.25 139.066L1407.58 134.885C1406.88 133.125 1405.45 131.758 1403.66 131.142L1400.22 129.959C1397.08 128.875 1397.08 124.423 1400.22 123.34L1403.66 122.157C1405.45 121.541 1406.88 120.174 1407.58 118.414L1409.25 114.233Z" stroke="#533097" stroke-width="3"/>
<path opacity="0.1" d="M1409.25 520.233C1410.42 517.291 1414.58 517.291 1415.75 520.233L1417.42 524.414C1418.12 526.174 1419.55 527.541 1421.34 528.157L1424.78 529.34C1427.92 530.423 1427.92 534.875 1424.78 535.959L1421.34 537.142C1419.55 537.758 1418.12 539.125 1417.42 540.885L1415.75 545.066C1414.58 548.007 1410.42 548.007 1409.25 545.066L1407.58 540.885C1406.88 539.125 1405.45 537.758 1403.66 537.142L1400.22 535.959C1397.08 534.875 1397.08 530.423 1400.22 529.34L1403.66 528.157C1405.45 527.541 1406.88 526.174 1407.58 524.414L1409.25 520.233Z" stroke="#533097" stroke-width="3"/>
<path opacity="0.1" d="M1409.25 317.233C1410.42 314.291 1414.58 314.291 1415.75 317.233L1417.42 321.414C1418.12 323.174 1419.55 324.541 1421.34 325.157L1424.78 326.34C1427.92 327.423 1427.92 331.875 1424.78 332.959L1421.34 334.142C1419.55 334.758 1418.12 336.125 1417.42 337.885L1415.75 342.066C1414.58 345.007 1410.42 345.007 1409.25 342.066L1407.58 337.885C1406.88 336.125 1405.45 334.758 1403.66 334.142L1400.22 332.959C1397.08 331.875 1397.08 327.423 1400.22 326.34L1403.66 325.157C1405.45 324.541 1406.88 323.174 1407.58 321.414L1409.25 317.233Z" stroke="#533097" stroke-width="3"/>
<path opacity="0.1" d="M1409.25 723.233C1410.42 720.291 1414.58 720.291 1415.75 723.233L1417.42 727.414C1418.12 729.174 1419.55 730.541 1421.34 731.157L1424.78 732.34C1427.92 733.423 1427.92 737.875 1424.78 738.959L1421.34 740.142C1419.55 740.758 1418.12 742.125 1417.42 743.885L1415.75 748.066C1414.58 751.007 1410.42 751.007 1409.25 748.066L1407.58 743.885C1406.88 742.125 1405.45 740.758 1403.66 740.142L1400.22 738.959C1397.08 737.875 1397.08 733.423 1400.22 732.34L1403.66 731.157C1405.45 730.541 1406.88 729.174 1407.58 727.414L1409.25 723.233Z" stroke="#533097" stroke-width="3"/>
<path opacity="0.1" d="M653.248 723.233C654.418 720.291 658.582 720.291 659.752 723.233L661.415 727.414C662.115 729.174 663.548 730.541 665.339 731.157L668.776 732.34C671.924 733.423 671.924 737.875 668.776 738.959L665.339 740.142C663.548 740.758 662.115 742.125 661.415 743.885L659.752 748.066C658.582 751.007 654.418 751.007 653.248 748.066L651.585 743.885C650.885 742.125 649.452 740.758 647.661 740.142L644.224 738.959C641.076 737.875 641.076 733.423 644.224 732.34L647.661 731.157C649.452 730.541 650.885 729.174 651.585 727.414L653.248 723.233Z" stroke="#533097" stroke-width="3"/>
<path opacity="0.1" d="M401.248 723.233C402.418 720.291 406.582 720.291 407.752 723.233L409.415 727.414C410.115 729.174 411.548 730.541 413.339 731.157L416.776 732.34C419.924 733.423 419.924 737.875 416.776 738.959L413.339 740.142C411.548 740.758 410.115 742.125 409.415 743.885L407.752 748.066C406.582 751.007 402.418 751.007 401.248 748.066L399.585 743.885C398.885 742.125 397.452 740.758 395.661 740.142L392.224 738.959C389.076 737.875 389.076 733.423 392.224 732.34L395.661 731.157C397.452 730.541 398.885 729.174 399.585 727.414L401.248 723.233Z" stroke="#533097" stroke-width="3"/>
<path opacity="0.1" d="M149.248 723.233C150.418 720.291 154.582 720.291 155.752 723.233L157.415 727.414C158.115 729.174 159.548 730.541 161.339 731.157L164.776 732.34C167.924 733.423 167.924 737.875 164.776 738.959L161.339 740.142C159.548 740.758 158.115 742.125 157.415 743.885L155.752 748.066C154.582 751.007 150.418 751.007 149.248 748.066L147.585 743.885C146.885 742.125 145.452 740.758 143.661 740.142L140.224 738.959C137.076 737.875 137.076 733.423 140.224 732.34L143.661 731.157C145.452 730.541 146.885 729.174 147.585 727.414L149.248 723.233Z" stroke="#533097" stroke-width="3"/>
</g>
</svg>
